<svg width="536" height="315" viewBox="0 0 536 315" fill="none" xmlns="http://www.w3.org/2000/svg">
<g clip-path="url(#clip0_2243_30982)">
<g clip-path="url(#clip1_2243_30982)">
<g clip-path="url(#clip2_2243_30982)">
<g filter="url(#filter0_f_2243_30982)">
<path d="M4.55002 218.61L206.01 104.93L373 170.33L154.76 297.12L4.55002 218.61Z" fill="#BABCBE"/>
</g>
<path d="M154.76 286.51L364.59 165.37L230.07 110.9L20.2399 214.05L154.76 286.51Z" fill="#CCCCCC"/>
<mask id="mask0_2243_30982" style="mask-type:luminance" maskUnits="userSpaceOnUse" x="20" y="110" width="345" height="177">
<path d="M154.76 286.51L364.59 165.37L230.07 110.9L20.2399 214.05L154.76 286.51Z" fill="white"/>
</mask>
<g mask="url(#mask0_2243_30982)">
<path d="M348.039 152.1L352.309 223.07" stroke="#999999" stroke-width="0.75" stroke-miterlimit="10" stroke-linecap="round"/>
<path d="M326.439 141.45L330.719 212.42" stroke="#999999" stroke-width="0.75" stroke-miterlimit="10" stroke-linecap="round"/>
<path d="M304.849 130.8L309.129 201.78" stroke="#999999" stroke-width="0.75" stroke-miterlimit="10" stroke-linecap="round"/>
<path d="M283.261 120.16L287.531 191.13" stroke="#999999" stroke-width="0.75" stroke-miterlimit="10" stroke-linecap="round"/>
<path d="M261.667 109.51L265.938 180.49" stroke="#999999" stroke-width="0.75" stroke-miterlimit="10" stroke-linecap="round"/>
<path d="M240.078 98.8699L244.348 169.84" stroke="#999999" stroke-width="0.75" stroke-miterlimit="10" stroke-linecap="round"/>
<path d="M218.488 88.2198L222.758 159.2" stroke="#999999" stroke-width="0.75" stroke-miterlimit="10" stroke-linecap="round"/>
<path d="M196.888 77.5798L201.168 148.55" stroke="#999999" stroke-width="0.75" stroke-miterlimit="10" stroke-linecap="round"/>
<path d="M175.298 66.9299L179.578 137.91" stroke="#999999" stroke-width="0.75" stroke-miterlimit="10" stroke-linecap="round"/>
<path d="M153.71 56.2899L157.98 127.26" stroke="#999999" stroke-width="0.75" stroke-miterlimit="10" stroke-linecap="round"/>
<path d="M132.121 45.6399L136.391 116.62" stroke="#999999" stroke-width="0.75" stroke-miterlimit="10" stroke-linecap="round"/>
<path d="M288.739 191.73L411.609 183.44" stroke="#999999" stroke-width="0.75" stroke-miterlimit="10" stroke-linecap="round"/>
<path d="M267.15 181.08L390.02 172.79" stroke="#999999" stroke-width="0.75" stroke-miterlimit="10" stroke-linecap="round"/>
<path d="M245.548 170.44L368.418 162.15" stroke="#999999" stroke-width="0.75" stroke-miterlimit="10" stroke-linecap="round"/>
<path d="M223.958 159.79L346.828 151.5" stroke="#999999" stroke-width="0.75" stroke-miterlimit="10" stroke-linecap="round"/>
<path d="M202.368 149.14L325.238 140.86" stroke="#999999" stroke-width="0.75" stroke-miterlimit="10" stroke-linecap="round"/>
<path d="M180.778 138.5L303.648 130.21" stroke="#999999" stroke-width="0.75" stroke-miterlimit="10" stroke-linecap="round"/>
<path d="M159.189 127.85L282.059 119.57" stroke="#999999" stroke-width="0.75" stroke-miterlimit="10" stroke-linecap="round"/>
<path d="M137.599 117.21L260.469 108.92" stroke="#999999" stroke-width="0.75" stroke-miterlimit="10" stroke-linecap="round"/>
<path d="M294.597 201.18L298.867 272.15" stroke="#999999" stroke-width="0.75" stroke-miterlimit="10" stroke-linecap="round"/>
<path d="M273.007 190.53L277.277 261.5" stroke="#999999" stroke-width="0.75" stroke-miterlimit="10" stroke-linecap="round"/>
<path d="M251.407 179.89L255.688 250.86" stroke="#999999" stroke-width="0.75" stroke-miterlimit="10" stroke-linecap="round"/>
<path d="M229.82 169.24L234.09 240.21" stroke="#999999" stroke-width="0.75" stroke-miterlimit="10" stroke-linecap="round"/>
<path d="M208.226 158.6L212.496 229.57" stroke="#999999" stroke-width="0.75" stroke-miterlimit="10" stroke-linecap="round"/>
<path d="M186.636 147.95L190.906 218.92" stroke="#999999" stroke-width="0.75" stroke-miterlimit="10" stroke-linecap="round"/>
<path d="M165.046 137.31L169.316 208.28" stroke="#999999" stroke-width="0.75" stroke-miterlimit="10" stroke-linecap="round"/>
<path d="M143.457 126.66L147.727 197.63" stroke="#999999" stroke-width="0.75" stroke-miterlimit="10" stroke-linecap="round"/>
<path d="M121.857 116.02L126.137 186.99" stroke="#999999" stroke-width="0.75" stroke-miterlimit="10" stroke-linecap="round"/>
<path d="M100.269 105.37L104.539 176.34" stroke="#999999" stroke-width="0.75" stroke-miterlimit="10" stroke-linecap="round"/>
<path d="M78.6792 94.7198L82.9492 165.7" stroke="#999999" stroke-width="0.75" stroke-miterlimit="10" stroke-linecap="round"/>
<path d="M235.298 240.81L358.168 232.52" stroke="#999999" stroke-width="0.75" stroke-miterlimit="10" stroke-linecap="round"/>
<path d="M213.708 230.16L336.578 221.87" stroke="#999999" stroke-width="0.75" stroke-miterlimit="10" stroke-linecap="round"/>
<path d="M192.118 219.52L314.988 211.23" stroke="#999999" stroke-width="0.75" stroke-miterlimit="10" stroke-linecap="round"/>
<path d="M170.517 208.87L293.387 200.58" stroke="#999999" stroke-width="0.75" stroke-miterlimit="10" stroke-linecap="round"/>
<path d="M148.927 198.23L271.797 189.94" stroke="#999999" stroke-width="0.75" stroke-miterlimit="10" stroke-linecap="round"/>
<path d="M127.337 187.58L250.207 179.29" stroke="#999999" stroke-width="0.75" stroke-miterlimit="10" stroke-linecap="round"/>
<path d="M105.747 176.94L228.617 168.65" stroke="#999999" stroke-width="0.75" stroke-miterlimit="10" stroke-linecap="round"/>
<path d="M84.1573 166.29L207.027 158" stroke="#999999" stroke-width="0.75" stroke-miterlimit="10" stroke-linecap="round"/>
<path d="M62.5675 155.65L185.438 147.36" stroke="#999999" stroke-width="0.75" stroke-miterlimit="10" stroke-linecap="round"/>
<path d="M40.9698 145L163.84 136.71" stroke="#999999" stroke-width="0.75" stroke-miterlimit="10" stroke-linecap="round"/>
<path d="M19.3761 134.36L142.246 126.07" stroke="#999999" stroke-width="0.75" stroke-miterlimit="10" stroke-linecap="round"/>
<path d="M244.741 253.48L249.441 331.46" stroke="#999999" stroke-width="0.82" stroke-miterlimit="10" stroke-linecap="round"/>
<path d="M221.021 241.78L225.711 319.76" stroke="#999999" stroke-width="0.82" stroke-miterlimit="10" stroke-linecap="round"/>
<path d="M197.298 230.08L201.988 308.06" stroke="#999999" stroke-width="0.82" stroke-miterlimit="10" stroke-linecap="round"/>
<path d="M173.57 218.39L178.27 296.37" stroke="#999999" stroke-width="0.82" stroke-miterlimit="10" stroke-linecap="round"/>
<path d="M149.849 206.69L154.539 289.29" stroke="#999999" stroke-width="0.82" stroke-miterlimit="10" stroke-linecap="round"/>
<path d="M126.13 194.99L130.82 272.97" stroke="#999999" stroke-width="0.82" stroke-miterlimit="10" stroke-linecap="round"/>
<path d="M102.402 183.3L107.102 261.28" stroke="#999999" stroke-width="0.82" stroke-miterlimit="10" stroke-linecap="round"/>
<path d="M78.6811 171.6L83.3711 249.58" stroke="#999999" stroke-width="0.82" stroke-miterlimit="10" stroke-linecap="round"/>
<path d="M54.9584 159.91L59.6484 237.89" stroke="#999999" stroke-width="0.82" stroke-miterlimit="10" stroke-linecap="round"/>
<path d="M31.2297 148.21L35.9297 226.19" stroke="#999999" stroke-width="0.82" stroke-miterlimit="10" stroke-linecap="round"/>
<path d="M149.921 285.44L290.871 276.22" stroke="#999999" stroke-width="0.82" stroke-miterlimit="10" stroke-linecap="round"/>
<path d="M132.141 273.63L267.141 264.52" stroke="#999999" stroke-width="0.82" stroke-miterlimit="10" stroke-linecap="round"/>
<path d="M108.418 261.93L243.418 252.82" stroke="#999999" stroke-width="0.82" stroke-miterlimit="10" stroke-linecap="round"/>
<path d="M84.6992 250.23L219.699 241.13" stroke="#999999" stroke-width="0.82" stroke-miterlimit="10" stroke-linecap="round"/>
<path d="M60.9687 238.54L195.969 229.43" stroke="#999999" stroke-width="0.82" stroke-miterlimit="10" stroke-linecap="round"/>
<path d="M37.25 226.84L172.25 217.73" stroke="#999999" stroke-width="0.82" stroke-miterlimit="10" stroke-linecap="round"/>
<path d="M13.5312 215.15L148.531 206.04" stroke="#999999" stroke-width="0.82" stroke-miterlimit="10" stroke-linecap="round"/>
<path d="M-10.1992 203.45L124.801 194.34" stroke="#999999" stroke-width="0.82" stroke-miterlimit="10" stroke-linecap="round"/>
<path d="M-33.9219 191.75L101.078 182.65" stroke="#999999" stroke-width="0.82" stroke-miterlimit="10" stroke-linecap="round"/>
<path d="M-57.6406 180.06L77.3594 170.95" stroke="#999999" stroke-width="0.82" stroke-miterlimit="10" stroke-linecap="round"/>
</g>
<path d="M297.621 204.03L307.051 198.59L177.091 136.96L168.081 141.38L297.621 204.03Z" fill="#03449E"/>
<path d="M227.247 244.66L236.688 239.22L100.928 173.96L91.9175 178.39L227.247 244.66Z" fill="#03449E"/>
<path d="M80.3589 246.42L90.8889 252.09L292.379 136.13L283.389 132.49L80.3589 246.42Z" fill="#03449E"/>
<path d="M364.59 165.37V99.33L230.07 94V110.9L364.59 165.37Z" fill="#002159"/>
<path d="M20.2403 214.05L230.07 110.9V94L20.2403 197.15V214.05Z" fill="#3C6EAC"/>
<path d="M230.07 94L364.59 99.33L154.76 220.48L20.2399 197.15L230.07 94Z" fill="#2A7DE1"/>
<path d="M79.54 177.45L182 194.36" stroke="#1A428A" stroke-width="1.28" stroke-miterlimit="10" stroke-linecap="round"/>
<path d="M56.172 189.35L159.582 207.28" stroke="#1A428A" stroke-width="1.28" stroke-miterlimit="10" stroke-linecap="round"/>
<path d="M231.09 102.99L325.73 107.61" stroke="#1A428A" stroke-width="1.28" stroke-miterlimit="10" stroke-linecap="round"/>
<path d="M207.719 114.89L303.309 120.54" stroke="#1A428A" stroke-width="1.28" stroke-miterlimit="10" stroke-linecap="round"/>
<path d="M271.441 136.07L229.351 131.94L217.241 139.53L237.981 141.74L194.461 166.79L178.591 165.17L163.711 173.97L195.501 179.37L271.441 136.07Z" stroke="#1A428A" stroke-width="1.17" stroke-miterlimit="10" stroke-linecap="round"/>
<path d="M213.552 148.26L185.632 145.78C184.982 145.62 184.102 145.78 183.432 146.16L169.972 153.68C168.812 154.35 168.762 155.37 169.882 155.65L196.252 158.89C196.902 159.05 197.782 158.89 198.452 158.51L213.462 150.22C214.622 149.55 214.672 148.53 213.552 148.25V148.26Z" stroke="#1A428A" stroke-width="1.17" stroke-miterlimit="10" stroke-linecap="round"/>
<path d="M151.642 161.52L163.102 148.42L193.272 136.92L209.782 138.03L221.492 130.61L193.672 128.68L150.112 143.06L132.882 168.85L156.792 172.79L171.902 164.15L151.642 161.52Z" stroke="#1A428A" stroke-width="1.17" stroke-miterlimit="10" stroke-linecap="round"/>
<path d="M364.59 165.37L357.22 162.38L145.36 281.45L154.76 286.51L364.59 165.37Z" fill="#002159"/>
<path d="M154.758 220.48L20.2378 197.15V214.05L154.758 286.51V220.48Z" fill="#03449E"/>
</g>
</g>
<g clip-path="url(#clip3_2243_30982)">
<path d="M321.5 86L384.95 49.26H448.5" stroke="#002159" stroke-miterlimit="10" stroke-linecap="round" stroke-dasharray="2 2"/>
<path d="M448.26 53.02C450.337 53.02 452.02 51.3366 452.02 49.26C452.02 47.1834 450.337 45.5 448.26 45.5C446.183 45.5 444.5 47.1834 444.5 49.26C444.5 51.3366 446.183 53.02 448.26 53.02Z" fill="white"/>
<path d="M448.26 53.52C445.91 53.52 444 51.61 444 49.26C444 46.91 445.91 45 448.26 45C450.61 45 452.52 46.91 452.52 49.26C452.52 51.61 450.61 53.52 448.26 53.52C450.61 53.52 445.91 53.52 448.26 53.52ZM448.26 46C446.46 46 445 47.46 445 49.26C445 51.06 446.46 52.52 448.26 52.52C450.06 52.52 451.52 51.06 451.52 49.26C451.52 47.46 450.06 46 448.26 46C450.06 46 446.46 46 448.26 46Z" fill="#002159"/>
</g>
<path d="M466.716 24V19.9545L475.205 12.5227C475.841 11.947 476.383 11.4205 476.83 10.9432C477.277 10.4583 477.617 9.97348 477.852 9.48864C478.087 8.99621 478.205 8.46212 478.205 7.88636C478.205 7.24242 478.064 6.69318 477.784 6.23864C477.504 5.77651 477.117 5.42045 476.625 5.17045C476.133 4.92045 475.568 4.79545 474.932 4.79545C474.288 4.79545 473.723 4.92803 473.239 5.19318C472.754 5.45076 472.375 5.82576 472.102 6.31818C471.837 6.81061 471.705 7.40909 471.705 8.11364H466.375C466.375 6.5303 466.731 5.16288 467.443 4.01136C468.155 2.85985 469.155 1.97348 470.443 1.35227C471.739 0.723484 473.242 0.40909 474.955 0.40909C476.72 0.40909 478.254 0.704545 479.557 1.29545C480.86 1.88636 481.867 2.71212 482.58 3.77273C483.299 4.82576 483.659 6.04924 483.659 7.44318C483.659 8.32955 483.481 9.20833 483.125 10.0795C482.769 10.9508 482.129 11.9129 481.205 12.9659C480.288 14.0189 478.985 15.2803 477.295 16.75L474.511 19.3182V19.4659H483.943V24H466.716ZM491.255 6.54545L494.13 12.2955L497.107 6.54545H502.709L497.834 15.2727L502.891 24H497.334L494.13 18.2045L491.005 24H485.369L490.437 15.2727L485.619 6.54545H491.255Z" fill="#002159"/>
<path d="M467.409 46V34.3636H474.386V35.6136H468.818V39.5455H473.864V40.7955H468.818V46H467.409ZM479.316 46.1818C478.475 46.1818 477.75 45.9962 477.14 45.625C476.534 45.25 476.066 44.7273 475.737 44.0568C475.411 43.3826 475.248 42.5985 475.248 41.7045C475.248 40.8106 475.411 40.0227 475.737 39.3409C476.066 38.6553 476.525 38.1212 477.112 37.7386C477.703 37.3523 478.392 37.1591 479.18 37.1591C479.635 37.1591 480.083 37.2348 480.527 37.3864C480.97 37.5379 481.373 37.7841 481.737 38.125C482.1 38.4621 482.39 38.9091 482.606 39.4659C482.822 40.0227 482.93 40.7083 482.93 41.5227V42.0909H476.203V40.9318H481.566C481.566 40.4394 481.468 40 481.271 39.6136C481.078 39.2273 480.801 38.9223 480.441 38.6989C480.085 38.4754 479.665 38.3636 479.18 38.3636C478.646 38.3636 478.184 38.4962 477.794 38.7614C477.407 39.0227 477.11 39.3636 476.902 39.7841C476.693 40.2045 476.589 40.6553 476.589 41.1364V41.9091C476.589 42.5682 476.703 43.1269 476.93 43.5852C477.161 44.0398 477.481 44.3864 477.89 44.625C478.299 44.8598 478.775 44.9773 479.316 44.9773C479.669 44.9773 479.987 44.928 480.271 44.8295C480.559 44.7273 480.807 44.5758 481.015 44.375C481.224 44.1705 481.385 43.9167 481.498 43.6136L482.794 43.9773C482.657 44.4167 482.428 44.803 482.106 45.1364C481.784 45.4659 481.386 45.7235 480.913 45.9091C480.439 46.0909 479.907 46.1818 479.316 46.1818ZM487.218 46.2045C486.665 46.2045 486.163 46.1004 485.712 45.892C485.262 45.6799 484.904 45.375 484.638 44.9773C484.373 44.5758 484.241 44.0909 484.241 43.5227C484.241 43.0227 484.339 42.6174 484.536 42.3068C484.733 41.9924 484.996 41.7462 485.326 41.5682C485.655 41.3902 486.019 41.2576 486.417 41.1705C486.818 41.0795 487.222 41.0076 487.627 40.9545C488.157 40.8864 488.587 40.8352 488.917 40.8011C489.25 40.7633 489.493 40.7008 489.644 40.6136C489.799 40.5265 489.877 40.375 489.877 40.1591V40.1136C489.877 39.553 489.724 39.1174 489.417 38.8068C489.114 38.4962 488.654 38.3409 488.036 38.3409C487.396 38.3409 486.894 38.4811 486.53 38.7614C486.167 39.0417 485.911 39.3409 485.763 39.6591L484.491 39.2045C484.718 38.6742 485.021 38.2614 485.4 37.9659C485.782 37.6667 486.199 37.4583 486.65 37.3409C487.104 37.2197 487.551 37.1591 487.991 37.1591C488.271 37.1591 488.593 37.1932 488.957 37.2614C489.324 37.3258 489.678 37.4602 490.019 37.6648C490.364 37.8693 490.65 38.178 490.877 38.5909C491.104 39.0038 491.218 39.5568 491.218 40.25V46H489.877V44.8182H489.809C489.718 45.0076 489.566 45.2102 489.354 45.4261C489.142 45.642 488.86 45.8258 488.508 45.9773C488.155 46.1288 487.726 46.2045 487.218 46.2045ZM487.423 45C487.953 45 488.4 44.8958 488.763 44.6875C489.131 44.4792 489.407 44.2102 489.593 43.8807C489.782 43.5511 489.877 43.2045 489.877 42.8409V41.6136C489.82 41.6818 489.695 41.7443 489.502 41.8011C489.313 41.8542 489.093 41.9015 488.843 41.9432C488.597 41.9811 488.356 42.0152 488.121 42.0455C487.89 42.072 487.703 42.0947 487.559 42.1136C487.21 42.1591 486.885 42.233 486.582 42.3352C486.282 42.4337 486.04 42.5833 485.854 42.7841C485.673 42.9811 485.582 43.25 485.582 43.5909C485.582 44.0568 485.754 44.4091 486.099 44.6477C486.447 44.8826 486.888 45 487.423 45ZM497.141 37.2727V38.4091H492.618V37.2727H497.141ZM493.936 35.1818H495.277V43.5C495.277 43.8788 495.332 44.1629 495.442 44.3523C495.556 44.5379 495.7 44.6629 495.874 44.7273C496.052 44.7879 496.239 44.8182 496.436 44.8182C496.584 44.8182 496.705 44.8106 496.8 44.7955C496.895 44.7765 496.97 44.7614 497.027 44.75L497.3 45.9545C497.209 45.9886 497.082 46.0227 496.919 46.0568C496.756 46.0947 496.55 46.1136 496.3 46.1136C495.921 46.1136 495.55 46.0322 495.186 45.8693C494.826 45.7064 494.527 45.4583 494.289 45.125C494.054 44.7917 493.936 44.3712 493.936 43.8636V35.1818ZM504.338 42.4318V37.2727H505.679V46H504.338V44.5227H504.247C504.042 44.9659 503.724 45.3428 503.292 45.6534C502.861 45.9602 502.315 46.1136 501.656 46.1136C501.111 46.1136 500.626 45.9943 500.202 45.7557C499.777 45.5133 499.444 45.1496 499.202 44.6648C498.959 44.1761 498.838 43.5606 498.838 42.8182V37.2727H500.179V42.7273C500.179 43.3636 500.357 43.8712 500.713 44.25C501.073 44.6288 501.531 44.8182 502.088 44.8182C502.421 44.8182 502.76 44.733 503.105 44.5625C503.453 44.392 503.745 44.1307 503.98 43.7784C504.219 43.4261 504.338 42.9773 504.338 42.4318ZM507.815 46V37.2727H509.11V38.5909H509.201C509.36 38.1591 509.648 37.8087 510.065 37.5398C510.481 37.2708 510.951 37.1364 511.474 37.1364C511.572 37.1364 511.695 37.1383 511.843 37.142C511.991 37.1458 512.103 37.1515 512.178 37.1591V38.5227C512.133 38.5114 512.029 38.4943 511.866 38.4716C511.707 38.4451 511.538 38.4318 511.36 38.4318C510.936 38.4318 510.557 38.5208 510.224 38.6989C509.894 38.8731 509.633 39.1155 509.44 39.4261C509.25 39.733 509.156 40.0833 509.156 40.4773V46H507.815ZM516.841 46.1818C516 46.1818 515.275 45.9962 514.665 45.625C514.059 45.25 513.591 44.7273 513.262 44.0568C512.936 43.3826 512.773 42.5985 512.773 41.7045C512.773 40.8106 512.936 40.0227 513.262 39.3409C513.591 38.6553 514.05 38.1212 514.637 37.7386C515.228 37.3523 515.917 37.1591 516.705 37.1591C517.16 37.1591 517.608 37.2348 518.052 37.3864C518.495 37.5379 518.898 37.7841 519.262 38.125C519.625 38.4621 519.915 38.9091 520.131 39.4659C520.347 40.0227 520.455 40.7083 520.455 41.5227V42.0909H513.728V40.9318H519.091C519.091 40.4394 518.993 40 518.796 39.6136C518.603 39.2273 518.326 38.9223 517.966 38.6989C517.61 38.4754 517.19 38.3636 516.705 38.3636C516.171 38.3636 515.709 38.4962 515.319 38.7614C514.932 39.0227 514.635 39.3636 514.427 39.7841C514.218 40.2045 514.114 40.6553 514.114 41.1364V41.9091C514.114 42.5682 514.228 43.1269 514.455 43.5852C514.686 44.0398 515.006 44.3864 515.415 44.625C515.824 44.8598 516.3 44.9773 516.841 44.9773C517.194 44.9773 517.512 44.928 517.796 44.8295C518.084 44.7273 518.332 44.5758 518.54 44.375C518.749 44.1705 518.91 43.9167 519.023 43.6136L520.319 43.9773C520.182 44.4167 519.953 44.803 519.631 45.1364C519.309 45.4659 518.911 45.7235 518.438 45.9091C517.964 46.0909 517.432 46.1818 516.841 46.1818ZM530.264 46.1591C529.514 46.1591 528.845 46.0303 528.258 45.7727C527.675 45.5152 527.211 45.1572 526.866 44.6989C526.525 44.2367 526.34 43.7008 526.309 43.0909H527.741C527.771 43.4659 527.9 43.7898 528.127 44.0625C528.355 44.3314 528.652 44.5398 529.02 44.6875C529.387 44.8352 529.794 44.9091 530.241 44.9091C530.741 44.9091 531.184 44.822 531.571 44.6477C531.957 44.4735 532.26 44.2311 532.48 43.9205C532.699 43.6098 532.809 43.25 532.809 42.8409C532.809 42.4129 532.703 42.036 532.491 41.7102C532.279 41.3807 531.968 41.1231 531.559 40.9375C531.15 40.7519 530.65 40.6591 530.059 40.6591H529.127V39.4091H530.059C530.521 39.4091 530.927 39.3258 531.275 39.1591C531.627 38.9924 531.902 38.7576 532.099 38.4545C532.3 38.1515 532.4 37.7955 532.4 37.3864C532.4 36.9924 532.313 36.6496 532.139 36.358C531.965 36.0663 531.718 35.839 531.4 35.6761C531.086 35.5133 530.715 35.4318 530.287 35.4318C529.885 35.4318 529.506 35.5057 529.15 35.6534C528.798 35.7973 528.51 36.0076 528.287 36.2841C528.063 36.5568 527.942 36.8864 527.923 37.2727H526.559C526.582 36.6629 526.766 36.1288 527.11 35.6705C527.455 35.2083 527.906 34.8485 528.463 34.5909C529.023 34.3333 529.639 34.2045 530.309 34.2045C531.029 34.2045 531.646 34.3504 532.162 34.642C532.677 34.9299 533.073 35.3106 533.349 35.7841C533.626 36.2576 533.764 36.7689 533.764 37.3182C533.764 37.9735 533.592 38.5322 533.247 38.9943C532.906 39.4564 532.442 39.7765 531.855 39.9545V40.0455C532.59 40.1667 533.163 40.4792 533.576 40.983C533.989 41.483 534.196 42.1023 534.196 42.8409C534.196 43.4735 534.023 44.0417 533.679 44.5455C533.338 45.0455 532.872 45.4394 532.281 45.7273C531.69 46.0152 531.018 46.1591 530.264 46.1591Z" fill="#002159"/>
<path d="M469.392 65.1364C468.847 65.1364 468.365 64.9986 467.947 64.723C467.53 64.4446 467.203 64.0526 466.967 63.5469C466.732 63.0384 466.614 62.4375 466.614 61.7443C466.614 61.0568 466.732 60.4602 466.967 59.9545C467.203 59.4489 467.531 59.0582 467.952 58.7827C468.372 58.5071 468.858 58.3693 469.409 58.3693C469.835 58.3693 470.172 58.4403 470.419 58.5824C470.669 58.7216 470.859 58.8807 470.99 59.0597C471.124 59.2358 471.227 59.3807 471.301 59.4943H471.386V56.2727H472.392V65H471.42V63.9943H471.301C471.227 64.1136 471.122 64.2642 470.986 64.446C470.849 64.625 470.655 64.7855 470.402 64.9276C470.149 65.0668 469.813 65.1364 469.392 65.1364ZM469.528 64.233C469.932 64.233 470.273 64.1278 470.551 63.9176C470.83 63.7045 471.041 63.4105 471.186 63.0355C471.331 62.6577 471.403 62.2216 471.403 61.7273C471.403 61.2386 471.332 60.8111 471.19 60.4446C471.048 60.0753 470.838 59.7884 470.56 59.5838C470.281 59.3764 469.938 59.2727 469.528 59.2727C469.102 59.2727 468.747 59.3821 468.463 59.6009C468.182 59.8168 467.97 60.1108 467.828 60.483C467.689 60.8523 467.619 61.267 467.619 61.7273C467.619 62.1932 467.69 62.6165 467.832 62.9972C467.977 63.375 468.19 63.6761 468.472 63.9006C468.756 64.1222 469.108 64.233 469.528 64.233ZM476.878 65.1364C476.247 65.1364 475.703 64.9972 475.246 64.7188C474.791 64.4375 474.44 64.0455 474.193 63.5426C473.949 63.0369 473.827 62.4489 473.827 61.7784C473.827 61.108 473.949 60.517 474.193 60.0057C474.44 59.4915 474.784 59.0909 475.224 58.804C475.668 58.5142 476.185 58.3693 476.776 58.3693C477.117 58.3693 477.453 58.4261 477.786 58.5398C478.118 58.6534 478.421 58.8381 478.693 59.0938C478.966 59.3466 479.183 59.6818 479.345 60.0994C479.507 60.517 479.588 61.0312 479.588 61.642V62.0682H474.543V61.1989H478.565C478.565 60.8295 478.492 60.5 478.344 60.2102C478.199 59.9205 477.992 59.6918 477.722 59.5241C477.455 59.3565 477.139 59.2727 476.776 59.2727C476.375 59.2727 476.028 59.3722 475.736 59.571C475.446 59.767 475.223 60.0227 475.067 60.3381C474.911 60.6534 474.832 60.9915 474.832 61.3523V61.9318C474.832 62.4261 474.918 62.8452 475.088 63.1889C475.261 63.5298 475.501 63.7898 475.808 63.9688C476.115 64.1449 476.472 64.233 476.878 64.233C477.142 64.233 477.381 64.196 477.594 64.1222C477.81 64.0455 477.996 63.9318 478.152 63.7812C478.308 63.6278 478.429 63.4375 478.514 63.2102L479.486 63.483C479.384 63.8125 479.212 64.1023 478.97 64.3523C478.729 64.5994 478.43 64.7926 478.075 64.9318C477.72 65.0682 477.321 65.1364 476.878 65.1364ZM485.514 59.9205L484.611 60.1761C484.554 60.0256 484.47 59.8793 484.359 59.7372C484.252 59.5923 484.104 59.473 483.916 59.3793C483.729 59.2855 483.489 59.2386 483.196 59.2386C482.796 59.2386 482.462 59.331 482.195 59.5156C481.931 59.6974 481.798 59.929 481.798 60.2102C481.798 60.4602 481.889 60.6577 482.071 60.8026C482.253 60.9474 482.537 61.0682 482.923 61.1648L483.895 61.4034C484.48 61.5455 484.916 61.7628 485.203 62.0554C485.49 62.3452 485.634 62.7187 485.634 63.1761C485.634 63.5511 485.526 63.8864 485.31 64.1818C485.097 64.4773 484.798 64.7102 484.415 64.8807C484.031 65.0511 483.585 65.1364 483.077 65.1364C482.409 65.1364 481.857 64.9915 481.419 64.7017C480.982 64.4119 480.705 63.9886 480.588 63.4318L481.543 63.1932C481.634 63.5455 481.806 63.8097 482.058 63.9858C482.314 64.1619 482.648 64.25 483.06 64.25C483.529 64.25 483.901 64.1506 484.176 63.9517C484.455 63.75 484.594 63.5085 484.594 63.2273C484.594 63 484.514 62.8097 484.355 62.6562C484.196 62.5 483.952 62.3835 483.622 62.3068L482.531 62.0511C481.932 61.9091 481.492 61.6889 481.21 61.3906C480.932 61.0895 480.793 60.7131 480.793 60.2614C480.793 59.892 480.896 59.5653 481.104 59.2812C481.314 58.9972 481.6 58.7741 481.96 58.6122C482.324 58.4503 482.736 58.3693 483.196 58.3693C483.844 58.3693 484.352 58.5114 484.722 58.7955C485.094 59.0795 485.358 59.4545 485.514 59.9205ZM489.567 65.1364C488.953 65.1364 488.425 64.9915 487.981 64.7017C487.538 64.4119 487.197 64.0128 486.959 63.5043C486.72 62.9957 486.601 62.4148 486.601 61.7614C486.601 61.0966 486.723 60.5099 486.967 60.0014C487.214 59.4901 487.558 59.0909 487.998 58.804C488.442 58.5142 488.959 58.3693 489.55 58.3693C490.01 58.3693 490.425 58.4545 490.794 58.625C491.163 58.7955 491.466 59.0341 491.702 59.3409C491.937 59.6477 492.084 60.0057 492.14 60.4148H491.135C491.058 60.1165 490.888 59.8523 490.623 59.6222C490.362 59.3892 490.01 59.2727 489.567 59.2727C489.175 59.2727 488.831 59.375 488.535 59.5795C488.243 59.7812 488.014 60.0668 487.849 60.4361C487.687 60.8026 487.606 61.233 487.606 61.7273C487.606 62.233 487.686 62.6733 487.845 63.0483C488.007 63.4233 488.234 63.7145 488.527 63.9219C488.822 64.1293 489.169 64.233 489.567 64.233C489.828 64.233 490.065 64.1875 490.278 64.0966C490.491 64.0057 490.672 63.875 490.819 63.7045C490.967 63.5341 491.072 63.3295 491.135 63.0909H492.14C492.084 63.4773 491.943 63.8253 491.719 64.1349C491.497 64.4418 491.203 64.6861 490.836 64.8679C490.473 65.0469 490.05 65.1364 489.567 65.1364ZM493.371 65V58.4545H494.342V59.4432H494.41C494.53 59.1193 494.746 58.8565 495.058 58.6548C495.371 58.4531 495.723 58.3523 496.115 58.3523C496.189 58.3523 496.281 58.3537 496.392 58.3565C496.503 58.3594 496.587 58.3636 496.643 58.3693V59.392C496.609 59.3835 496.531 59.3707 496.409 59.3537C496.29 59.3338 496.163 59.3239 496.03 59.3239C495.712 59.3239 495.427 59.3906 495.177 59.5241C494.93 59.6548 494.734 59.8366 494.589 60.0696C494.447 60.2997 494.376 60.5625 494.376 60.858V65H493.371ZM497.595 65V58.4545H498.601V65H497.595ZM498.107 57.3636C497.911 57.3636 497.742 57.2969 497.6 57.1634C497.461 57.0298 497.391 56.8693 497.391 56.6818C497.391 56.4943 497.461 56.3338 497.6 56.2003C497.742 56.0668 497.911 56 498.107 56C498.303 56 498.47 56.0668 498.61 56.2003C498.752 56.3338 498.823 56.4943 498.823 56.6818C498.823 56.8693 498.752 57.0298 498.61 57.1634C498.47 57.2969 498.303 57.3636 498.107 57.3636ZM500.203 67.4545V58.4545H501.175V59.4943H501.294C501.368 59.3807 501.47 59.2358 501.601 59.0597C501.734 58.8807 501.925 58.7216 502.172 58.5824C502.422 58.4403 502.76 58.3693 503.186 58.3693C503.737 58.3693 504.223 58.5071 504.643 58.7827C505.064 59.0582 505.392 59.4489 505.628 59.9545C505.864 60.4602 505.982 61.0568 505.982 61.7443C505.982 62.4375 505.864 63.0384 505.628 63.5469C505.392 64.0526 505.065 64.4446 504.648 64.723C504.23 64.9986 503.749 65.1364 503.203 65.1364C502.783 65.1364 502.446 65.0668 502.193 64.9276C501.94 64.7855 501.746 64.625 501.609 64.446C501.473 64.2642 501.368 64.1136 501.294 63.9943H501.209V67.4545H500.203ZM501.192 61.7273C501.192 62.2216 501.264 62.6577 501.409 63.0355C501.554 63.4105 501.766 63.7045 502.044 63.9176C502.322 64.1278 502.663 64.233 503.067 64.233C503.487 64.233 503.838 64.1222 504.119 63.9006C504.403 63.6761 504.616 63.375 504.759 62.9972C504.903 62.6165 504.976 62.1932 504.976 61.7273C504.976 61.267 504.905 60.8523 504.763 60.483C504.624 60.1108 504.412 59.8168 504.128 59.6009C503.847 59.3821 503.493 59.2727 503.067 59.2727C502.658 59.2727 502.314 59.3764 502.035 59.5838C501.757 59.7884 501.547 60.0753 501.405 60.4446C501.263 60.8111 501.192 61.2386 501.192 61.7273ZM510.122 58.4545V59.3068H506.73V58.4545H510.122ZM507.719 56.8864H508.724V63.125C508.724 63.4091 508.766 63.6222 508.848 63.7642C508.933 63.9034 509.041 63.9972 509.172 64.0455C509.305 64.0909 509.446 64.1136 509.594 64.1136C509.705 64.1136 509.795 64.108 509.867 64.0966C509.938 64.0824 509.994 64.071 510.037 64.0625L510.242 64.9659C510.173 64.9915 510.078 65.017 509.956 65.0426C509.834 65.071 509.679 65.0852 509.492 65.0852C509.207 65.0852 508.929 65.0241 508.656 64.902C508.386 64.7798 508.162 64.5938 507.983 64.3438C507.807 64.0938 507.719 63.7784 507.719 63.3977V56.8864ZM511.395 65V58.4545H512.401V65H511.395ZM511.906 57.3636C511.71 57.3636 511.541 57.2969 511.399 57.1634C511.26 57.0298 511.19 56.8693 511.19 56.6818C511.19 56.4943 511.26 56.3338 511.399 56.2003C511.541 56.0668 511.71 56 511.906 56C512.102 56 512.27 56.0668 512.409 56.2003C512.551 56.3338 512.622 56.4943 512.622 56.6818C512.622 56.8693 512.551 57.0298 512.409 57.1634C512.27 57.2969 512.102 57.3636 511.906 57.3636ZM516.662 65.1364C516.071 65.1364 515.552 64.9957 515.106 64.7145C514.663 64.4332 514.317 64.0398 514.067 63.5341C513.819 63.0284 513.696 62.4375 513.696 61.7614C513.696 61.0795 513.819 60.4844 514.067 59.9759C514.317 59.4673 514.663 59.0724 515.106 58.7912C515.552 58.5099 516.071 58.3693 516.662 58.3693C517.253 58.3693 517.77 58.5099 518.213 58.7912C518.659 59.0724 519.005 59.4673 519.253 59.9759C519.503 60.4844 519.628 61.0795 519.628 61.7614C519.628 62.4375 519.503 63.0284 519.253 63.5341C519.005 64.0398 518.659 64.4332 518.213 64.7145C517.77 64.9957 517.253 65.1364 516.662 65.1364ZM516.662 64.233C517.111 64.233 517.48 64.1179 517.77 63.8878C518.059 63.6577 518.274 63.3551 518.413 62.9801C518.552 62.6051 518.622 62.1989 518.622 61.7614C518.622 61.3239 518.552 60.9162 518.413 60.5384C518.274 60.1605 518.059 59.8551 517.77 59.6222C517.48 59.3892 517.111 59.2727 516.662 59.2727C516.213 59.2727 515.844 59.3892 515.554 59.6222C515.264 59.8551 515.05 60.1605 514.91 60.5384C514.771 60.9162 514.702 61.3239 514.702 61.7614C514.702 62.1989 514.771 62.6051 514.91 62.9801C515.05 63.3551 515.264 63.6577 515.554 63.8878C515.844 64.1179 516.213 64.233 516.662 64.233ZM521.928 61.0625V65H520.923V58.4545H521.894V59.4773H521.98C522.133 59.1449 522.366 58.8778 522.678 58.6761C522.991 58.4716 523.394 58.3693 523.889 58.3693C524.332 58.3693 524.72 58.4602 525.052 58.642C525.384 58.821 525.643 59.0938 525.828 59.4602C526.012 59.8239 526.105 60.2841 526.105 60.8409V65H525.099V60.9091C525.099 60.3949 524.965 59.9943 524.698 59.7074C524.431 59.4176 524.065 59.2727 523.599 59.2727C523.278 59.2727 522.991 59.3423 522.738 59.4815C522.488 59.6207 522.291 59.8239 522.146 60.0909C522.001 60.358 521.928 60.6818 521.928 61.0625Z" fill="#307FE2"/>
<g clip-path="url(#clip4_2243_30982)">
<path d="M448.641 209.26H446.641" stroke="#002159" stroke-miterlimit="10" stroke-linecap="round"/>
<path d="M443 209L325 209" stroke="#002159" stroke-miterlimit="10" stroke-linecap="round" stroke-dasharray="2 2"/>
<path d="M448.42 213.02C450.497 213.02 452.18 211.337 452.18 209.26C452.18 207.183 450.497 205.5 448.42 205.5C446.344 205.5 444.66 207.183 444.66 209.26C444.66 211.337 446.344 213.02 448.42 213.02Z" fill="white"/>
<path d="M448.42 205C446.07 205 444.16 206.91 444.16 209.26C444.16 211.61 446.07 213.52 448.42 213.52C450.77 213.52 452.68 211.61 452.68 209.26C452.68 206.91 450.77 205 448.42 205C450.77 205 446.07 205 448.42 205ZM448.42 212.52C446.62 212.52 445.16 211.06 445.16 209.26C445.16 207.46 446.62 206 448.42 206C450.22 206 451.68 207.46 451.68 209.26C451.68 211.06 450.22 212.52 448.42 212.52C450.22 212.52 446.62 212.52 448.42 212.52Z" fill="#002159"/>
</g>
<path d="M475.807 190.318C473.996 190.318 472.379 190.03 470.955 189.455C469.538 188.871 468.424 188.083 467.614 187.091C466.811 186.091 466.409 184.962 466.409 183.705C466.409 182.742 466.64 181.86 467.102 181.057C467.564 180.254 468.189 179.587 468.977 179.057C469.773 178.519 470.659 178.174 471.636 178.023V177.841C470.356 177.606 469.307 177.011 468.489 176.057C467.678 175.102 467.273 173.985 467.273 172.705C467.273 171.492 467.64 170.413 468.375 169.466C469.117 168.519 470.129 167.773 471.409 167.227C472.697 166.682 474.163 166.409 475.807 166.409C477.451 166.409 478.913 166.682 480.193 167.227C481.481 167.773 482.492 168.519 483.227 169.466C483.97 170.413 484.341 171.492 484.341 172.705C484.341 173.992 483.928 175.114 483.102 176.068C482.284 177.015 481.242 177.606 479.977 177.841V178.023C480.947 178.174 481.826 178.519 482.614 179.057C483.409 179.587 484.038 180.254 484.5 181.057C484.97 181.86 485.205 182.742 485.205 183.705C485.205 184.962 484.799 186.091 483.989 187.091C483.178 188.083 482.064 188.871 480.648 189.455C479.239 190.03 477.625 190.318 475.807 190.318ZM475.807 186.33C476.496 186.33 477.102 186.201 477.625 185.943C478.148 185.678 478.557 185.311 478.852 184.841C479.155 184.371 479.307 183.841 479.307 183.25C479.307 182.644 479.155 182.106 478.852 181.636C478.549 181.167 478.133 180.799 477.602 180.534C477.08 180.261 476.481 180.125 475.807 180.125C475.14 180.125 474.542 180.261 474.011 180.534C473.481 180.799 473.064 181.167 472.761 181.636C472.458 182.106 472.307 182.644 472.307 183.25C472.307 183.841 472.455 184.371 472.75 184.841C473.053 185.303 473.466 185.667 473.989 185.932C474.519 186.197 475.125 186.33 475.807 186.33ZM475.807 176.159C476.398 176.159 476.92 176.038 477.375 175.795C477.837 175.553 478.197 175.216 478.455 174.784C478.72 174.352 478.852 173.864 478.852 173.318C478.852 172.773 478.72 172.292 478.455 171.875C478.197 171.458 477.841 171.133 477.386 170.898C476.932 170.655 476.405 170.534 475.807 170.534C475.216 170.534 474.689 170.655 474.227 170.898C473.765 171.133 473.405 171.458 473.148 171.875C472.89 172.292 472.761 172.773 472.761 173.318C472.761 173.864 472.89 174.352 473.148 174.784C473.413 175.208 473.777 175.545 474.239 175.795C474.701 176.038 475.223 176.159 475.807 176.159ZM492.474 172.545L495.349 178.295L498.326 172.545H503.928L499.053 181.273L504.11 190H498.553L495.349 184.205L492.224 190H486.587L491.655 181.273L486.837 172.545H492.474Z" fill="#002159"/>
<path d="M467.409 212V200.364H474.386V201.614H468.818V205.545H473.864V206.795H468.818V212H467.409ZM479.316 212.182C478.475 212.182 477.75 211.996 477.14 211.625C476.534 211.25 476.066 210.727 475.737 210.057C475.411 209.383 475.248 208.598 475.248 207.705C475.248 206.811 475.411 206.023 475.737 205.341C476.066 204.655 476.525 204.121 477.112 203.739C477.703 203.352 478.392 203.159 479.18 203.159C479.635 203.159 480.083 203.235 480.527 203.386C480.97 203.538 481.373 203.784 481.737 204.125C482.1 204.462 482.39 204.909 482.606 205.466C482.822 206.023 482.93 206.708 482.93 207.523V208.091H476.203V206.932H481.566C481.566 206.439 481.468 206 481.271 205.614C481.078 205.227 480.801 204.922 480.441 204.699C480.085 204.475 479.665 204.364 479.18 204.364C478.646 204.364 478.184 204.496 477.794 204.761C477.407 205.023 477.11 205.364 476.902 205.784C476.693 206.205 476.589 206.655 476.589 207.136V207.909C476.589 208.568 476.703 209.127 476.93 209.585C477.161 210.04 477.481 210.386 477.89 210.625C478.299 210.86 478.775 210.977 479.316 210.977C479.669 210.977 479.987 210.928 480.271 210.83C480.559 210.727 480.807 210.576 481.015 210.375C481.224 210.17 481.385 209.917 481.498 209.614L482.794 209.977C482.657 210.417 482.428 210.803 482.106 211.136C481.784 211.466 481.386 211.723 480.913 211.909C480.439 212.091 479.907 212.182 479.316 212.182ZM487.218 212.205C486.665 212.205 486.163 212.1 485.712 211.892C485.262 211.68 484.904 211.375 484.638 210.977C484.373 210.576 484.241 210.091 484.241 209.523C484.241 209.023 484.339 208.617 484.536 208.307C484.733 207.992 484.996 207.746 485.326 207.568C485.655 207.39 486.019 207.258 486.417 207.17C486.818 207.08 487.222 207.008 487.627 206.955C488.157 206.886 488.587 206.835 488.917 206.801C489.25 206.763 489.493 206.701 489.644 206.614C489.799 206.527 489.877 206.375 489.877 206.159V206.114C489.877 205.553 489.724 205.117 489.417 204.807C489.114 204.496 488.654 204.341 488.036 204.341C487.396 204.341 486.894 204.481 486.53 204.761C486.167 205.042 485.911 205.341 485.763 205.659L484.491 205.205C484.718 204.674 485.021 204.261 485.4 203.966C485.782 203.667 486.199 203.458 486.65 203.341C487.104 203.22 487.551 203.159 487.991 203.159C488.271 203.159 488.593 203.193 488.957 203.261C489.324 203.326 489.678 203.46 490.019 203.665C490.364 203.869 490.65 204.178 490.877 204.591C491.104 205.004 491.218 205.557 491.218 206.25V212H489.877V210.818H489.809C489.718 211.008 489.566 211.21 489.354 211.426C489.142 211.642 488.86 211.826 488.508 211.977C488.155 212.129 487.726 212.205 487.218 212.205ZM487.423 211C487.953 211 488.4 210.896 488.763 210.688C489.131 210.479 489.407 210.21 489.593 209.881C489.782 209.551 489.877 209.205 489.877 208.841V207.614C489.82 207.682 489.695 207.744 489.502 207.801C489.313 207.854 489.093 207.902 488.843 207.943C488.597 207.981 488.356 208.015 488.121 208.045C487.89 208.072 487.703 208.095 487.559 208.114C487.21 208.159 486.885 208.233 486.582 208.335C486.282 208.434 486.04 208.583 485.854 208.784C485.673 208.981 485.582 209.25 485.582 209.591C485.582 210.057 485.754 210.409 486.099 210.648C486.447 210.883 486.888 211 487.423 211ZM497.141 203.273V204.409H492.618V203.273H497.141ZM493.936 201.182H495.277V209.5C495.277 209.879 495.332 210.163 495.442 210.352C495.556 210.538 495.7 210.663 495.874 210.727C496.052 210.788 496.239 210.818 496.436 210.818C496.584 210.818 496.705 210.811 496.8 210.795C496.895 210.777 496.97 210.761 497.027 210.75L497.3 211.955C497.209 211.989 497.082 212.023 496.919 212.057C496.756 212.095 496.55 212.114 496.3 212.114C495.921 212.114 495.55 212.032 495.186 211.869C494.826 211.706 494.527 211.458 494.289 211.125C494.054 210.792 493.936 210.371 493.936 209.864V201.182ZM504.338 208.432V203.273H505.679V212H504.338V210.523H504.247C504.042 210.966 503.724 211.343 503.292 211.653C502.861 211.96 502.315 212.114 501.656 212.114C501.111 212.114 500.626 211.994 500.202 211.756C499.777 211.513 499.444 211.15 499.202 210.665C498.959 210.176 498.838 209.561 498.838 208.818V203.273H500.179V208.727C500.179 209.364 500.357 209.871 500.713 210.25C501.073 210.629 501.531 210.818 502.088 210.818C502.421 210.818 502.76 210.733 503.105 210.562C503.453 210.392 503.745 210.131 503.98 209.778C504.219 209.426 504.338 208.977 504.338 208.432ZM507.815 212V203.273H509.11V204.591H509.201C509.36 204.159 509.648 203.809 510.065 203.54C510.481 203.271 510.951 203.136 511.474 203.136C511.572 203.136 511.695 203.138 511.843 203.142C511.991 203.146 512.103 203.152 512.178 203.159V204.523C512.133 204.511 512.029 204.494 511.866 204.472C511.707 204.445 511.538 204.432 511.36 204.432C510.936 204.432 510.557 204.521 510.224 204.699C509.894 204.873 509.633 205.116 509.44 205.426C509.25 205.733 509.156 206.083 509.156 206.477V212H507.815ZM516.841 212.182C516 212.182 515.275 211.996 514.665 211.625C514.059 211.25 513.591 210.727 513.262 210.057C512.936 209.383 512.773 208.598 512.773 207.705C512.773 206.811 512.936 206.023 513.262 205.341C513.591 204.655 514.05 204.121 514.637 203.739C515.228 203.352 515.917 203.159 516.705 203.159C517.16 203.159 517.608 203.235 518.052 203.386C518.495 203.538 518.898 203.784 519.262 204.125C519.625 204.462 519.915 204.909 520.131 205.466C520.347 206.023 520.455 206.708 520.455 207.523V208.091H513.728V206.932H519.091C519.091 206.439 518.993 206 518.796 205.614C518.603 205.227 518.326 204.922 517.966 204.699C517.61 204.475 517.19 204.364 516.705 204.364C516.171 204.364 515.709 204.496 515.319 204.761C514.932 205.023 514.635 205.364 514.427 205.784C514.218 206.205 514.114 206.655 514.114 207.136V207.909C514.114 208.568 514.228 209.127 514.455 209.585C514.686 210.04 515.006 210.386 515.415 210.625C515.824 210.86 516.3 210.977 516.841 210.977C517.194 210.977 517.512 210.928 517.796 210.83C518.084 210.727 518.332 210.576 518.54 210.375C518.749 210.17 518.91 209.917 519.023 209.614L520.319 209.977C520.182 210.417 519.953 210.803 519.631 211.136C519.309 211.466 518.911 211.723 518.438 211.909C517.964 212.091 517.432 212.182 516.841 212.182ZM526.059 209.614V208.455L531.173 200.364H532.014V202.159H531.446L527.582 208.273V208.364H534.468V209.614H526.059ZM531.537 212V209.261V208.722V200.364H532.877V212H531.537Z" fill="#002159"/>
<path d="M469.392 231.136C468.847 231.136 468.365 230.999 467.947 230.723C467.53 230.445 467.203 230.053 466.967 229.547C466.732 229.038 466.614 228.438 466.614 227.744C466.614 227.057 466.732 226.46 466.967 225.955C467.203 225.449 467.531 225.058 467.952 224.783C468.372 224.507 468.858 224.369 469.409 224.369C469.835 224.369 470.172 224.44 470.419 224.582C470.669 224.722 470.859 224.881 470.99 225.06C471.124 225.236 471.227 225.381 471.301 225.494H471.386V222.273H472.392V231H471.42V229.994H471.301C471.227 230.114 471.122 230.264 470.986 230.446C470.849 230.625 470.655 230.786 470.402 230.928C470.149 231.067 469.813 231.136 469.392 231.136ZM469.528 230.233C469.932 230.233 470.273 230.128 470.551 229.918C470.83 229.705 471.041 229.411 471.186 229.036C471.331 228.658 471.403 228.222 471.403 227.727C471.403 227.239 471.332 226.811 471.19 226.445C471.048 226.075 470.838 225.788 470.56 225.584C470.281 225.376 469.938 225.273 469.528 225.273C469.102 225.273 468.747 225.382 468.463 225.601C468.182 225.817 467.97 226.111 467.828 226.483C467.689 226.852 467.619 227.267 467.619 227.727C467.619 228.193 467.69 228.616 467.832 228.997C467.977 229.375 468.19 229.676 468.472 229.901C468.756 230.122 469.108 230.233 469.528 230.233ZM476.878 231.136C476.247 231.136 475.703 230.997 475.246 230.719C474.791 230.438 474.44 230.045 474.193 229.543C473.949 229.037 473.827 228.449 473.827 227.778C473.827 227.108 473.949 226.517 474.193 226.006C474.44 225.491 474.784 225.091 475.224 224.804C475.668 224.514 476.185 224.369 476.776 224.369C477.117 224.369 477.453 224.426 477.786 224.54C478.118 224.653 478.421 224.838 478.693 225.094C478.966 225.347 479.183 225.682 479.345 226.099C479.507 226.517 479.588 227.031 479.588 227.642V228.068H474.543V227.199H478.565C478.565 226.83 478.492 226.5 478.344 226.21C478.199 225.92 477.992 225.692 477.722 225.524C477.455 225.357 477.139 225.273 476.776 225.273C476.375 225.273 476.028 225.372 475.736 225.571C475.446 225.767 475.223 226.023 475.067 226.338C474.911 226.653 474.832 226.991 474.832 227.352V227.932C474.832 228.426 474.918 228.845 475.088 229.189C475.261 229.53 475.501 229.79 475.808 229.969C476.115 230.145 476.472 230.233 476.878 230.233C477.142 230.233 477.381 230.196 477.594 230.122C477.81 230.045 477.996 229.932 478.152 229.781C478.308 229.628 478.429 229.437 478.514 229.21L479.486 229.483C479.384 229.812 479.212 230.102 478.97 230.352C478.729 230.599 478.43 230.793 478.075 230.932C477.72 231.068 477.321 231.136 476.878 231.136ZM485.514 225.92L484.611 226.176C484.554 226.026 484.47 225.879 484.359 225.737C484.252 225.592 484.104 225.473 483.916 225.379C483.729 225.286 483.489 225.239 483.196 225.239C482.796 225.239 482.462 225.331 482.195 225.516C481.931 225.697 481.798 225.929 481.798 226.21C481.798 226.46 481.889 226.658 482.071 226.803C482.253 226.947 482.537 227.068 482.923 227.165L483.895 227.403C484.48 227.545 484.916 227.763 485.203 228.055C485.49 228.345 485.634 228.719 485.634 229.176C485.634 229.551 485.526 229.886 485.31 230.182C485.097 230.477 484.798 230.71 484.415 230.881C484.031 231.051 483.585 231.136 483.077 231.136C482.409 231.136 481.857 230.991 481.419 230.702C480.982 230.412 480.705 229.989 480.588 229.432L481.543 229.193C481.634 229.545 481.806 229.81 482.058 229.986C482.314 230.162 482.648 230.25 483.06 230.25C483.529 230.25 483.901 230.151 484.176 229.952C484.455 229.75 484.594 229.509 484.594 229.227C484.594 229 484.514 228.81 484.355 228.656C484.196 228.5 483.952 228.384 483.622 228.307L482.531 228.051C481.932 227.909 481.492 227.689 481.21 227.391C480.932 227.089 480.793 226.713 480.793 226.261C480.793 225.892 480.896 225.565 481.104 225.281C481.314 224.997 481.6 224.774 481.96 224.612C482.324 224.45 482.736 224.369 483.196 224.369C483.844 224.369 484.352 224.511 484.722 224.795C485.094 225.08 485.358 225.455 485.514 225.92ZM489.567 231.136C488.953 231.136 488.425 230.991 487.981 230.702C487.538 230.412 487.197 230.013 486.959 229.504C486.72 228.996 486.601 228.415 486.601 227.761C486.601 227.097 486.723 226.51 486.967 226.001C487.214 225.49 487.558 225.091 487.998 224.804C488.442 224.514 488.959 224.369 489.55 224.369C490.01 224.369 490.425 224.455 490.794 224.625C491.163 224.795 491.466 225.034 491.702 225.341C491.937 225.648 492.084 226.006 492.14 226.415H491.135C491.058 226.116 490.888 225.852 490.623 225.622C490.362 225.389 490.01 225.273 489.567 225.273C489.175 225.273 488.831 225.375 488.535 225.58C488.243 225.781 488.014 226.067 487.849 226.436C487.687 226.803 487.606 227.233 487.606 227.727C487.606 228.233 487.686 228.673 487.845 229.048C488.007 229.423 488.234 229.714 488.527 229.922C488.822 230.129 489.169 230.233 489.567 230.233C489.828 230.233 490.065 230.188 490.278 230.097C490.491 230.006 490.672 229.875 490.819 229.705C490.967 229.534 491.072 229.33 491.135 229.091H492.14C492.084 229.477 491.943 229.825 491.719 230.135C491.497 230.442 491.203 230.686 490.836 230.868C490.473 231.047 490.05 231.136 489.567 231.136ZM493.371 231V224.455H494.342V225.443H494.41C494.53 225.119 494.746 224.857 495.058 224.655C495.371 224.453 495.723 224.352 496.115 224.352C496.189 224.352 496.281 224.354 496.392 224.357C496.503 224.359 496.587 224.364 496.643 224.369V225.392C496.609 225.384 496.531 225.371 496.409 225.354C496.29 225.334 496.163 225.324 496.03 225.324C495.712 225.324 495.427 225.391 495.177 225.524C494.93 225.655 494.734 225.837 494.589 226.07C494.447 226.3 494.376 226.562 494.376 226.858V231H493.371ZM497.595 231V224.455H498.601V231H497.595ZM498.107 223.364C497.911 223.364 497.742 223.297 497.6 223.163C497.461 223.03 497.391 222.869 497.391 222.682C497.391 222.494 497.461 222.334 497.6 222.2C497.742 222.067 497.911 222 498.107 222C498.303 222 498.47 222.067 498.61 222.2C498.752 222.334 498.823 222.494 498.823 222.682C498.823 222.869 498.752 223.03 498.61 223.163C498.47 223.297 498.303 223.364 498.107 223.364ZM500.203 233.455V224.455H501.175V225.494H501.294C501.368 225.381 501.47 225.236 501.601 225.06C501.734 224.881 501.925 224.722 502.172 224.582C502.422 224.44 502.76 224.369 503.186 224.369C503.737 224.369 504.223 224.507 504.643 224.783C505.064 225.058 505.392 225.449 505.628 225.955C505.864 226.46 505.982 227.057 505.982 227.744C505.982 228.438 505.864 229.038 505.628 229.547C505.392 230.053 505.065 230.445 504.648 230.723C504.23 230.999 503.749 231.136 503.203 231.136C502.783 231.136 502.446 231.067 502.193 230.928C501.94 230.786 501.746 230.625 501.609 230.446C501.473 230.264 501.368 230.114 501.294 229.994H501.209V233.455H500.203ZM501.192 227.727C501.192 228.222 501.264 228.658 501.409 229.036C501.554 229.411 501.766 229.705 502.044 229.918C502.322 230.128 502.663 230.233 503.067 230.233C503.487 230.233 503.838 230.122 504.119 229.901C504.403 229.676 504.616 229.375 504.759 228.997C504.903 228.616 504.976 228.193 504.976 227.727C504.976 227.267 504.905 226.852 504.763 226.483C504.624 226.111 504.412 225.817 504.128 225.601C503.847 225.382 503.493 225.273 503.067 225.273C502.658 225.273 502.314 225.376 502.035 225.584C501.757 225.788 501.547 226.075 501.405 226.445C501.263 226.811 501.192 227.239 501.192 227.727ZM510.122 224.455V225.307H506.73V224.455H510.122ZM507.719 222.886H508.724V229.125C508.724 229.409 508.766 229.622 508.848 229.764C508.933 229.903 509.041 229.997 509.172 230.045C509.305 230.091 509.446 230.114 509.594 230.114C509.705 230.114 509.795 230.108 509.867 230.097C509.938 230.082 509.994 230.071 510.037 230.062L510.242 230.966C510.173 230.991 510.078 231.017 509.956 231.043C509.834 231.071 509.679 231.085 509.492 231.085C509.207 231.085 508.929 231.024 508.656 230.902C508.386 230.78 508.162 230.594 507.983 230.344C507.807 230.094 507.719 229.778 507.719 229.398V222.886ZM511.395 231V224.455H512.401V231H511.395ZM511.906 223.364C511.71 223.364 511.541 223.297 511.399 223.163C511.26 223.03 511.19 222.869 511.19 222.682C511.19 222.494 511.26 222.334 511.399 222.2C511.541 222.067 511.71 222 511.906 222C512.102 222 512.27 222.067 512.409 222.2C512.551 222.334 512.622 222.494 512.622 222.682C512.622 222.869 512.551 223.03 512.409 223.163C512.27 223.297 512.102 223.364 511.906 223.364ZM516.662 231.136C516.071 231.136 515.552 230.996 515.106 230.714C514.663 230.433 514.317 230.04 514.067 229.534C513.819 229.028 513.696 228.437 513.696 227.761C513.696 227.08 513.819 226.484 514.067 225.976C514.317 225.467 514.663 225.072 515.106 224.791C515.552 224.51 516.071 224.369 516.662 224.369C517.253 224.369 517.77 224.51 518.213 224.791C518.659 225.072 519.005 225.467 519.253 225.976C519.503 226.484 519.628 227.08 519.628 227.761C519.628 228.437 519.503 229.028 519.253 229.534C519.005 230.04 518.659 230.433 518.213 230.714C517.77 230.996 517.253 231.136 516.662 231.136ZM516.662 230.233C517.111 230.233 517.48 230.118 517.77 229.888C518.059 229.658 518.274 229.355 518.413 228.98C518.552 228.605 518.622 228.199 518.622 227.761C518.622 227.324 518.552 226.916 518.413 226.538C518.274 226.161 518.059 225.855 517.77 225.622C517.48 225.389 517.111 225.273 516.662 225.273C516.213 225.273 515.844 225.389 515.554 225.622C515.264 225.855 515.05 226.161 514.91 226.538C514.771 226.916 514.702 227.324 514.702 227.761C514.702 228.199 514.771 228.605 514.91 228.98C515.05 229.355 515.264 229.658 515.554 229.888C515.844 230.118 516.213 230.233 516.662 230.233ZM521.928 227.062V231H520.923V224.455H521.894V225.477H521.98C522.133 225.145 522.366 224.878 522.678 224.676C522.991 224.472 523.394 224.369 523.889 224.369C524.332 224.369 524.72 224.46 525.052 224.642C525.384 224.821 525.643 225.094 525.828 225.46C526.012 225.824 526.105 226.284 526.105 226.841V231H525.099V226.909C525.099 226.395 524.965 225.994 524.698 225.707C524.431 225.418 524.065 225.273 523.599 225.273C523.278 225.273 522.991 225.342 522.738 225.482C522.488 225.621 522.291 225.824 522.146 226.091C522.001 226.358 521.928 226.682 521.928 227.062Z" fill="#307FE2"/>
</g>
<defs>
<filter id="filter0_f_2243_30982" x="-15.4492" y="84.9299" width="408.449" height="232.19" filterUnits="userSpaceOnUse" color-interpolation-filters="sRGB">
<feFlood flood-opacity="0" result="BackgroundImageFix"/>
<feBlend mode="normal" in="SourceGraphic" in2="BackgroundImageFix" result="shape"/>
<feGaussianBlur stdDeviation="10" result="effect1_foregroundBlur_2243_30982"/>
</filter>
<clipPath id="clip0_2243_30982">
<rect width="536" height="315" fill="white"/>
</clipPath>
<clipPath id="clip1_2243_30982">
<rect width="378" height="231" fill="white" transform="matrix(-1 0 0 1 378 84)"/>
</clipPath>
<clipPath id="clip2_2243_30982">
<rect width="397" height="225" fill="white" transform="matrix(-1 0 0 1 387 94)"/>
</clipPath>
<clipPath id="clip3_2243_30982">
<rect width="132" height="42" fill="white" transform="translate(321 45)"/>
</clipPath>
<clipPath id="clip4_2243_30982">
<rect width="129" height="9" fill="white" transform="translate(324 205)"/>
</clipPath>
</defs>
</svg>
