<svg width="547" height="315" viewBox="0 0 547 315" fill="none" xmlns="http://www.w3.org/2000/svg">
<g clip-path="url(#clip0_2243_30982)">
<g clip-path="url(#clip1_2243_30982)">
<g filter="url(#filter0_f_2243_30982)">
<path d="M4.55002 218.61L206.01 104.93L373 170.33L154.76 297.12L4.55002 218.61Z" fill="#BABCBE"/>
</g>
<path d="M154.76 286.51L364.59 165.37L230.07 110.9L20.2399 214.05L154.76 286.51Z" fill="#CCCCCC"/>
<mask id="mask0_2243_30982" style="mask-type:luminance" maskUnits="userSpaceOnUse" x="20" y="110" width="345" height="177">
<path d="M154.76 286.51L364.59 165.37L230.07 110.9L20.2399 214.05L154.76 286.51Z" fill="white"/>
</mask>
<g mask="url(#mask0_2243_30982)">
<path d="M348.039 152.1L352.309 223.07" stroke="#999999" stroke-width="0.75" stroke-miterlimit="10" stroke-linecap="round"/>
<path d="M326.439 141.45L330.719 212.42" stroke="#999999" stroke-width="0.75" stroke-miterlimit="10" stroke-linecap="round"/>
<path d="M304.849 130.8L309.129 201.78" stroke="#999999" stroke-width="0.75" stroke-miterlimit="10" stroke-linecap="round"/>
<path d="M283.261 120.16L287.531 191.13" stroke="#999999" stroke-width="0.75" stroke-miterlimit="10" stroke-linecap="round"/>
<path d="M261.667 109.51L265.938 180.49" stroke="#999999" stroke-width="0.75" stroke-miterlimit="10" stroke-linecap="round"/>
<path d="M240.078 98.8699L244.348 169.84" stroke="#999999" stroke-width="0.75" stroke-miterlimit="10" stroke-linecap="round"/>
<path d="M218.488 88.2198L222.758 159.2" stroke="#999999" stroke-width="0.75" stroke-miterlimit="10" stroke-linecap="round"/>
<path d="M196.888 77.5798L201.168 148.55" stroke="#999999" stroke-width="0.75" stroke-miterlimit="10" stroke-linecap="round"/>
<path d="M175.298 66.9299L179.578 137.91" stroke="#999999" stroke-width="0.75" stroke-miterlimit="10" stroke-linecap="round"/>
<path d="M153.71 56.2899L157.98 127.26" stroke="#999999" stroke-width="0.75" stroke-miterlimit="10" stroke-linecap="round"/>
<path d="M132.121 45.6399L136.391 116.62" stroke="#999999" stroke-width="0.75" stroke-miterlimit="10" stroke-linecap="round"/>
<path d="M288.739 191.73L411.609 183.44" stroke="#999999" stroke-width="0.75" stroke-miterlimit="10" stroke-linecap="round"/>
<path d="M267.15 181.08L390.02 172.79" stroke="#999999" stroke-width="0.75" stroke-miterlimit="10" stroke-linecap="round"/>
<path d="M245.548 170.44L368.418 162.15" stroke="#999999" stroke-width="0.75" stroke-miterlimit="10" stroke-linecap="round"/>
<path d="M223.958 159.79L346.828 151.5" stroke="#999999" stroke-width="0.75" stroke-miterlimit="10" stroke-linecap="round"/>
<path d="M202.368 149.14L325.238 140.86" stroke="#999999" stroke-width="0.75" stroke-miterlimit="10" stroke-linecap="round"/>
<path d="M180.778 138.5L303.648 130.21" stroke="#999999" stroke-width="0.75" stroke-miterlimit="10" stroke-linecap="round"/>
<path d="M159.189 127.85L282.059 119.57" stroke="#999999" stroke-width="0.75" stroke-miterlimit="10" stroke-linecap="round"/>
<path d="M137.599 117.21L260.469 108.92" stroke="#999999" stroke-width="0.75" stroke-miterlimit="10" stroke-linecap="round"/>
<path d="M294.597 201.18L298.867 272.15" stroke="#999999" stroke-width="0.75" stroke-miterlimit="10" stroke-linecap="round"/>
<path d="M273.007 190.53L277.277 261.5" stroke="#999999" stroke-width="0.75" stroke-miterlimit="10" stroke-linecap="round"/>
<path d="M251.407 179.89L255.688 250.86" stroke="#999999" stroke-width="0.75" stroke-miterlimit="10" stroke-linecap="round"/>
<path d="M229.82 169.24L234.09 240.21" stroke="#999999" stroke-width="0.75" stroke-miterlimit="10" stroke-linecap="round"/>
<path d="M208.226 158.6L212.496 229.57" stroke="#999999" stroke-width="0.75" stroke-miterlimit="10" stroke-linecap="round"/>
<path d="M186.636 147.95L190.906 218.92" stroke="#999999" stroke-width="0.75" stroke-miterlimit="10" stroke-linecap="round"/>
<path d="M165.046 137.31L169.316 208.28" stroke="#999999" stroke-width="0.75" stroke-miterlimit="10" stroke-linecap="round"/>
<path d="M143.457 126.66L147.727 197.63" stroke="#999999" stroke-width="0.75" stroke-miterlimit="10" stroke-linecap="round"/>
<path d="M121.857 116.02L126.137 186.99" stroke="#999999" stroke-width="0.75" stroke-miterlimit="10" stroke-linecap="round"/>
<path d="M100.269 105.37L104.539 176.34" stroke="#999999" stroke-width="0.75" stroke-miterlimit="10" stroke-linecap="round"/>
<path d="M78.6792 94.7198L82.9492 165.7" stroke="#999999" stroke-width="0.75" stroke-miterlimit="10" stroke-linecap="round"/>
<path d="M235.298 240.81L358.168 232.52" stroke="#999999" stroke-width="0.75" stroke-miterlimit="10" stroke-linecap="round"/>
<path d="M213.708 230.16L336.578 221.87" stroke="#999999" stroke-width="0.75" stroke-miterlimit="10" stroke-linecap="round"/>
<path d="M192.118 219.52L314.988 211.23" stroke="#999999" stroke-width="0.75" stroke-miterlimit="10" stroke-linecap="round"/>
<path d="M170.517 208.87L293.387 200.58" stroke="#999999" stroke-width="0.75" stroke-miterlimit="10" stroke-linecap="round"/>
<path d="M148.927 198.23L271.797 189.94" stroke="#999999" stroke-width="0.75" stroke-miterlimit="10" stroke-linecap="round"/>
<path d="M127.337 187.58L250.207 179.29" stroke="#999999" stroke-width="0.75" stroke-miterlimit="10" stroke-linecap="round"/>
<path d="M105.747 176.94L228.617 168.65" stroke="#999999" stroke-width="0.75" stroke-miterlimit="10" stroke-linecap="round"/>
<path d="M84.1573 166.29L207.027 158" stroke="#999999" stroke-width="0.75" stroke-miterlimit="10" stroke-linecap="round"/>
<path d="M62.5675 155.65L185.438 147.36" stroke="#999999" stroke-width="0.75" stroke-miterlimit="10" stroke-linecap="round"/>
<path d="M40.9698 145L163.84 136.71" stroke="#999999" stroke-width="0.75" stroke-miterlimit="10" stroke-linecap="round"/>
<path d="M19.3761 134.36L142.246 126.07" stroke="#999999" stroke-width="0.75" stroke-miterlimit="10" stroke-linecap="round"/>
<path d="M244.741 253.48L249.441 331.46" stroke="#999999" stroke-width="0.82" stroke-miterlimit="10" stroke-linecap="round"/>
<path d="M221.021 241.78L225.711 319.76" stroke="#999999" stroke-width="0.82" stroke-miterlimit="10" stroke-linecap="round"/>
<path d="M197.298 230.08L201.988 308.06" stroke="#999999" stroke-width="0.82" stroke-miterlimit="10" stroke-linecap="round"/>
<path d="M173.57 218.39L178.27 296.37" stroke="#999999" stroke-width="0.82" stroke-miterlimit="10" stroke-linecap="round"/>
<path d="M149.849 206.69L154.539 289.29" stroke="#999999" stroke-width="0.82" stroke-miterlimit="10" stroke-linecap="round"/>
<path d="M126.13 194.99L130.82 272.97" stroke="#999999" stroke-width="0.82" stroke-miterlimit="10" stroke-linecap="round"/>
<path d="M102.402 183.3L107.102 261.28" stroke="#999999" stroke-width="0.82" stroke-miterlimit="10" stroke-linecap="round"/>
<path d="M78.6811 171.6L83.3711 249.58" stroke="#999999" stroke-width="0.82" stroke-miterlimit="10" stroke-linecap="round"/>
<path d="M54.9584 159.91L59.6484 237.89" stroke="#999999" stroke-width="0.82" stroke-miterlimit="10" stroke-linecap="round"/>
<path d="M31.2297 148.21L35.9297 226.19" stroke="#999999" stroke-width="0.82" stroke-miterlimit="10" stroke-linecap="round"/>
<path d="M149.921 285.44L290.871 276.22" stroke="#999999" stroke-width="0.82" stroke-miterlimit="10" stroke-linecap="round"/>
<path d="M132.141 273.63L267.141 264.52" stroke="#999999" stroke-width="0.82" stroke-miterlimit="10" stroke-linecap="round"/>
<path d="M108.418 261.93L243.418 252.82" stroke="#999999" stroke-width="0.82" stroke-miterlimit="10" stroke-linecap="round"/>
<path d="M84.6992 250.23L219.699 241.13" stroke="#999999" stroke-width="0.82" stroke-miterlimit="10" stroke-linecap="round"/>
<path d="M60.9687 238.54L195.969 229.43" stroke="#999999" stroke-width="0.82" stroke-miterlimit="10" stroke-linecap="round"/>
<path d="M37.25 226.84L172.25 217.73" stroke="#999999" stroke-width="0.82" stroke-miterlimit="10" stroke-linecap="round"/>
<path d="M13.5312 215.15L148.531 206.04" stroke="#999999" stroke-width="0.82" stroke-miterlimit="10" stroke-linecap="round"/>
<path d="M-10.1992 203.45L124.801 194.34" stroke="#999999" stroke-width="0.82" stroke-miterlimit="10" stroke-linecap="round"/>
<path d="M-33.9219 191.75L101.078 182.65" stroke="#999999" stroke-width="0.82" stroke-miterlimit="10" stroke-linecap="round"/>
<path d="M-57.6406 180.06L77.3594 170.95" stroke="#999999" stroke-width="0.82" stroke-miterlimit="10" stroke-linecap="round"/>
</g>
<path d="M297.621 204.03L307.051 198.59L177.091 136.96L168.081 141.38L297.621 204.03Z" fill="#03449E"/>
<path d="M227.247 244.66L236.688 239.22L100.928 173.96L91.9175 178.39L227.247 244.66Z" fill="#03449E"/>
<path d="M80.3589 246.42L90.8889 252.09L292.379 136.13L283.389 132.49L80.3589 246.42Z" fill="#03449E"/>
<path d="M364.59 165.37V99.33L230.07 94V110.9L364.59 165.37Z" fill="#002159"/>
<path d="M20.2403 214.05L230.07 110.9V94L20.2403 197.15V214.05Z" fill="#3C6EAC"/>
<path d="M230.07 94L364.59 99.33L154.76 220.48L20.2399 197.15L230.07 94Z" fill="#2A7DE1"/>
<path d="M79.54 177.45L182 194.36" stroke="#1A428A" stroke-width="1.28" stroke-miterlimit="10" stroke-linecap="round"/>
<path d="M56.172 189.35L159.582 207.28" stroke="#1A428A" stroke-width="1.28" stroke-miterlimit="10" stroke-linecap="round"/>
<path d="M231.09 102.99L325.73 107.61" stroke="#1A428A" stroke-width="1.28" stroke-miterlimit="10" stroke-linecap="round"/>
<path d="M207.719 114.89L303.309 120.54" stroke="#1A428A" stroke-width="1.28" stroke-miterlimit="10" stroke-linecap="round"/>
<path d="M271.441 136.07L229.351 131.94L217.241 139.53L237.981 141.74L194.461 166.79L178.591 165.17L163.711 173.97L195.501 179.37L271.441 136.07Z" stroke="#1A428A" stroke-width="1.17" stroke-miterlimit="10" stroke-linecap="round"/>
<path d="M213.552 148.26L185.632 145.78C184.982 145.62 184.102 145.78 183.432 146.16L169.972 153.68C168.812 154.35 168.762 155.37 169.882 155.65L196.252 158.89C196.902 159.05 197.782 158.89 198.452 158.51L213.462 150.22C214.622 149.55 214.672 148.53 213.552 148.25V148.26Z" stroke="#1A428A" stroke-width="1.17" stroke-miterlimit="10" stroke-linecap="round"/>
<path d="M151.642 161.52L163.102 148.42L193.272 136.92L209.782 138.03L221.492 130.61L193.672 128.68L150.112 143.06L132.882 168.85L156.792 172.79L171.902 164.15L151.642 161.52Z" stroke="#1A428A" stroke-width="1.17" stroke-miterlimit="10" stroke-linecap="round"/>
<path d="M364.59 165.37L357.22 162.38L145.36 281.45L154.76 286.51L364.59 165.37Z" fill="#002159"/>
<path d="M154.758 220.48L20.2378 197.15V214.05L154.758 286.51V220.48Z" fill="#03449E"/>
</g>
</g>
<g clip-path="url(#clip2_2243_30982)">
<path d="M321.5 86L384.95 49.26H448.5" stroke="#002159" stroke-miterlimit="10" stroke-linecap="round" stroke-dasharray="2 2"/>
<path d="M448.26 53.02C450.337 53.02 452.02 51.3366 452.02 49.26C452.02 47.1834 450.337 45.5 448.26 45.5C446.183 45.5 444.5 47.1834 444.5 49.26C444.5 51.3366 446.183 53.02 448.26 53.02Z" fill="white"/>
<path d="M448.26 53.52C445.91 53.52 444 51.61 444 49.26C444 46.91 445.91 45 448.26 45C450.61 45 452.52 46.91 452.52 49.26C452.52 51.61 450.61 53.52 448.26 53.52C450.61 53.52 445.91 53.52 448.26 53.52ZM448.26 46C446.46 46 445 47.46 445 49.26C445 51.06 446.46 52.52 448.26 52.52C450.06 52.52 451.52 51.06 451.52 49.26C451.52 47.46 450.06 46 448.26 46C450.06 46 446.46 46 448.26 46Z" fill="#002159"/>
</g>
<path d="M476.045 24.3182C474.773 24.3182 473.553 24.1136 472.386 23.7045C471.22 23.2879 470.182 22.6288 469.273 21.7273C468.364 20.8182 467.648 19.6288 467.125 18.1591C466.602 16.6818 466.345 14.8826 466.352 12.7614C466.36 10.8447 466.595 9.125 467.057 7.60227C467.519 6.07197 468.178 4.77273 469.034 3.70454C469.898 2.63636 470.928 1.82197 472.125 1.26136C473.33 0.693181 474.674 0.40909 476.159 0.40909C477.788 0.40909 479.223 0.727272 480.466 1.36364C481.716 1.99242 482.716 2.84091 483.466 3.90909C484.216 4.9697 484.659 6.15151 484.795 7.45454H479.261C479.095 6.7197 478.727 6.16288 478.159 5.78409C477.598 5.39773 476.932 5.20454 476.159 5.20454C474.735 5.20454 473.67 5.82197 472.966 7.05682C472.269 8.29167 471.913 9.94318 471.898 12.0114H472.045C472.364 11.3144 472.822 10.7159 473.42 10.2159C474.019 9.71591 474.705 9.33333 475.477 9.06818C476.258 8.79545 477.083 8.65909 477.955 8.65909C479.348 8.65909 480.58 8.98106 481.648 9.625C482.716 10.2689 483.553 11.1515 484.159 12.2727C484.765 13.3864 485.064 14.6629 485.057 16.1023C485.064 17.7235 484.686 19.1553 483.92 20.3977C483.155 21.6326 482.095 22.5947 480.739 23.2841C479.39 23.9735 477.826 24.3182 476.045 24.3182ZM476.011 20C476.701 20 477.318 19.8371 477.864 19.5114C478.409 19.1856 478.837 18.7424 479.148 18.1818C479.458 17.6212 479.61 16.9886 479.602 16.2841C479.61 15.572 479.458 14.9394 479.148 14.3864C478.845 13.8333 478.42 13.3939 477.875 13.0682C477.337 12.7424 476.72 12.5795 476.023 12.5795C475.515 12.5795 475.042 12.6742 474.602 12.8636C474.163 13.053 473.78 13.3182 473.455 13.6591C473.136 13.9924 472.886 14.3864 472.705 14.8409C472.523 15.2879 472.428 15.7727 472.42 16.2955C472.428 16.9848 472.587 17.6098 472.898 18.1705C473.208 18.7311 473.633 19.178 474.17 19.5114C474.708 19.8371 475.322 20 476.011 20ZM492.38 6.54545L495.255 12.2955L498.232 6.54545H503.834L498.959 15.2727L504.016 24H498.459L495.255 18.2045L492.13 24H486.494L491.562 15.2727L486.744 6.54545H492.38Z" fill="#002159"/>
<path d="M467.409 34.3636H469.091L473.045 44.0227H473.182L477.136 34.3636H478.818V46H477.5V37.1591H477.386L473.75 46H472.477L468.841 37.1591H468.727V46H467.409V34.3636ZM481.323 46V34.3636H488.346V35.6136H482.733V39.5455H487.983V40.7955H482.733V44.75H488.437V46H481.323ZM490.566 46V34.3636H494.498C495.407 34.3636 496.153 34.5189 496.736 34.8295C497.32 35.1364 497.752 35.5587 498.032 36.0966C498.312 36.6345 498.452 37.2462 498.452 37.9318C498.452 38.6174 498.312 39.2254 498.032 39.7557C497.752 40.286 497.322 40.7027 496.742 41.0057C496.163 41.3049 495.422 41.4545 494.521 41.4545H491.339V40.1818H494.475C495.096 40.1818 495.596 40.0909 495.975 39.9091C496.358 39.7273 496.634 39.4697 496.805 39.1364C496.979 38.7992 497.066 38.3977 497.066 37.9318C497.066 37.4659 496.979 37.0587 496.805 36.7102C496.63 36.3617 496.352 36.0928 495.969 35.9034C495.587 35.7102 495.081 35.6136 494.452 35.6136H491.975V46H490.566ZM496.043 40.7727L498.907 46H497.271L494.452 40.7727H496.043ZM500.692 34.3636L504.147 44.1591H504.283L507.737 34.3636H509.215L504.942 46H503.487L499.215 34.3636H500.692ZM467.409 65V53.3636H474.386V54.6136H468.818V58.5455H473.864V59.7955H468.818V65H467.409ZM476.298 65V56.2727H477.639V65H476.298ZM476.98 54.8182C476.718 54.8182 476.493 54.7292 476.304 54.5511C476.118 54.3731 476.025 54.1591 476.025 53.9091C476.025 53.6591 476.118 53.4451 476.304 53.267C476.493 53.089 476.718 53 476.98 53C477.241 53 477.465 53.089 477.65 53.267C477.84 53.4451 477.934 53.6591 477.934 53.9091C477.934 54.1591 477.84 54.3731 477.65 54.5511C477.465 54.7292 477.241 54.8182 476.98 54.8182ZM481.116 53.3636V65H479.775V53.3636H481.116ZM487.047 56.2727V57.4091H482.524V56.2727H487.047ZM483.843 54.1818H485.183V62.5C485.183 62.8788 485.238 63.1629 485.348 63.3523C485.462 63.5379 485.606 63.6629 485.78 63.7273C485.958 63.7879 486.146 63.8182 486.343 63.8182C486.49 63.8182 486.611 63.8106 486.706 63.7955C486.801 63.7765 486.877 63.7614 486.933 63.75L487.206 64.9545C487.115 64.9886 486.988 65.0227 486.826 65.0568C486.663 65.0947 486.456 65.1136 486.206 65.1136C485.827 65.1136 485.456 65.0322 485.093 64.8693C484.733 64.7064 484.433 64.4583 484.195 64.125C483.96 63.7917 483.843 63.3712 483.843 62.8636V54.1818ZM492.309 65.1818C491.469 65.1818 490.743 64.9962 490.133 64.625C489.527 64.25 489.059 63.7273 488.73 63.0568C488.404 62.3826 488.241 61.5985 488.241 60.7045C488.241 59.8106 488.404 59.0227 488.73 58.3409C489.059 57.6553 489.518 57.1212 490.105 56.7386C490.696 56.3523 491.385 56.1591 492.173 56.1591C492.628 56.1591 493.077 56.2348 493.52 56.3864C493.963 56.5379 494.366 56.7841 494.73 57.125C495.094 57.4621 495.383 57.9091 495.599 58.4659C495.815 59.0227 495.923 59.7083 495.923 60.5227V61.0909H489.196V59.9318H494.559C494.559 59.4394 494.461 59 494.264 58.6136C494.071 58.2273 493.794 57.9223 493.434 57.6989C493.078 57.4754 492.658 57.3636 492.173 57.3636C491.639 57.3636 491.177 57.4962 490.787 57.7614C490.4 58.0227 490.103 58.3636 489.895 58.7841C489.686 59.2045 489.582 59.6553 489.582 60.1364V60.9091C489.582 61.5682 489.696 62.1269 489.923 62.5852C490.154 63.0398 490.474 63.3864 490.883 63.625C491.292 63.8598 491.768 63.9773 492.309 63.9773C492.662 63.9773 492.98 63.928 493.264 63.8295C493.552 63.7273 493.8 63.5758 494.008 63.375C494.217 63.1705 494.378 62.9167 494.491 62.6136L495.787 62.9773C495.65 63.4167 495.421 63.803 495.099 64.1364C494.777 64.4659 494.38 64.7235 493.906 64.9091C493.433 65.0909 492.9 65.1818 492.309 65.1818ZM497.643 65V56.2727H498.938V57.5909H499.029C499.188 57.1591 499.476 56.8087 499.893 56.5398C500.31 56.2708 500.779 56.1364 501.302 56.1364C501.4 56.1364 501.524 56.1383 501.671 56.142C501.819 56.1458 501.931 56.1515 502.007 56.1591V57.5227C501.961 57.5114 501.857 57.4943 501.694 57.4716C501.535 57.4451 501.366 57.4318 501.188 57.4318C500.764 57.4318 500.385 57.5208 500.052 57.6989C499.722 57.8731 499.461 58.1155 499.268 58.4261C499.079 58.733 498.984 59.0833 498.984 59.4773V65H497.643ZM509.458 58.2273L508.253 58.5682C508.178 58.3674 508.066 58.1723 507.918 57.983C507.774 57.7898 507.577 57.6307 507.327 57.5057C507.077 57.3807 506.757 57.3182 506.367 57.3182C505.833 57.3182 505.388 57.4413 505.032 57.6875C504.679 57.9299 504.503 58.2386 504.503 58.6136C504.503 58.947 504.625 59.2102 504.867 59.4034C505.109 59.5966 505.488 59.7576 506.003 59.8864L507.299 60.2045C508.079 60.3939 508.66 60.6837 509.043 61.0739C509.426 61.4602 509.617 61.9583 509.617 62.5682C509.617 63.0682 509.473 63.5152 509.185 63.9091C508.901 64.303 508.503 64.6136 507.992 64.8409C507.481 65.0682 506.886 65.1818 506.208 65.1818C505.318 65.1818 504.581 64.9886 503.998 64.6023C503.414 64.2159 503.045 63.6515 502.89 62.9091L504.162 62.5909C504.284 63.0606 504.513 63.4129 504.85 63.6477C505.191 63.8826 505.636 64 506.185 64C506.81 64 507.306 63.8674 507.674 63.6023C508.045 63.3333 508.231 63.0114 508.231 62.6364C508.231 62.3333 508.125 62.0795 507.912 61.875C507.7 61.6667 507.375 61.5114 506.935 61.4091L505.481 61.0682C504.681 60.8788 504.094 60.5852 503.719 60.1875C503.348 59.786 503.162 59.2841 503.162 58.6818C503.162 58.1894 503.301 57.7538 503.577 57.375C503.857 56.9962 504.238 56.6989 504.719 56.483C505.204 56.267 505.753 56.1591 506.367 56.1591C507.231 56.1591 507.909 56.3485 508.401 56.7273C508.897 57.1061 509.25 57.6061 509.458 58.2273Z" fill="#002159"/>
<path d="M466.903 84V83.233L469.784 80.0795C470.122 79.7102 470.401 79.3892 470.619 79.1165C470.838 78.8409 471 78.5824 471.105 78.3409C471.213 78.0966 471.267 77.8409 471.267 77.5739C471.267 77.267 471.193 77.0014 471.045 76.777C470.901 76.5526 470.702 76.3793 470.449 76.2571C470.196 76.1349 469.912 76.0739 469.597 76.0739C469.261 76.0739 468.969 76.1435 468.719 76.2827C468.472 76.419 468.28 76.6108 468.143 76.858C468.01 77.1051 467.943 77.3949 467.943 77.7273H466.938C466.938 77.2159 467.055 76.767 467.291 76.3807C467.527 75.9943 467.848 75.6932 468.254 75.4773C468.663 75.2614 469.122 75.1534 469.631 75.1534C470.142 75.1534 470.595 75.2614 470.99 75.4773C471.385 75.6932 471.695 75.9844 471.919 76.3509C472.143 76.7173 472.256 77.125 472.256 77.5739C472.256 77.8949 472.197 78.2088 472.081 78.5156C471.967 78.8196 471.768 79.1591 471.484 79.5341C471.203 79.9062 470.812 80.3608 470.312 80.8977L468.352 82.9943V83.0625H472.409V84H466.903ZM473.537 82.2102V81.3409L477.372 75.2727H478.003V76.6193H477.577L474.679 81.2045V81.2727H479.844V82.2102H473.537ZM477.645 84V81.946V81.5412V75.2727H478.651V84H477.645ZM482.104 75.2727V76.0398C482.104 76.2727 482.062 76.5213 481.976 76.7855C481.894 77.0469 481.772 77.3011 481.61 77.5483C481.451 77.7926 481.258 78.0057 481.03 78.1875L480.485 77.7443C480.664 77.4886 480.819 77.223 480.949 76.9474C481.083 76.669 481.15 76.3722 481.15 76.0568V75.2727H482.104ZM484.286 75.2727V76.0398C484.286 76.2727 484.243 76.5213 484.158 76.7855C484.076 77.0469 483.954 77.3011 483.792 77.5483C483.633 77.7926 483.439 78.0057 483.212 78.1875L482.667 77.7443C482.846 77.4886 483 77.223 483.131 76.9474C483.265 76.669 483.331 76.3722 483.331 76.0568V75.2727H484.286ZM489.433 77.4545L491.001 80.1307L492.569 77.4545H493.729L491.615 80.7273L493.729 84H492.569L491.001 81.4602L489.433 84H488.274L490.354 80.7273L488.274 77.4545H489.433ZM498.042 84V83.233L500.922 80.0795C501.26 79.7102 501.539 79.3892 501.757 79.1165C501.976 78.8409 502.138 78.5824 502.243 78.3409C502.351 78.0966 502.405 77.8409 502.405 77.5739C502.405 77.267 502.331 77.0014 502.184 76.777C502.039 76.5526 501.84 76.3793 501.587 76.2571C501.334 76.1349 501.05 76.0739 500.735 76.0739C500.399 76.0739 500.107 76.1435 499.857 76.2827C499.61 76.419 499.418 76.6108 499.282 76.858C499.148 77.1051 499.081 77.3949 499.081 77.7273H498.076C498.076 77.2159 498.194 76.767 498.429 76.3807C498.665 75.9943 498.986 75.6932 499.392 75.4773C499.801 75.2614 500.26 75.1534 500.769 75.1534C501.28 75.1534 501.733 75.2614 502.128 75.4773C502.523 75.6932 502.833 75.9844 503.057 76.3509C503.282 76.7173 503.394 77.125 503.394 77.5739C503.394 77.8949 503.336 78.2088 503.219 78.5156C503.105 78.8196 502.907 79.1591 502.622 79.5341C502.341 79.9062 501.951 80.3608 501.451 80.8977L499.49 82.9943V83.0625H503.547V84H498.042ZM504.675 82.2102V81.3409L508.51 75.2727H509.141V76.6193H508.715L505.817 81.2045V81.2727H510.982V82.2102H504.675ZM508.783 84V81.946V81.5412V75.2727H509.789V84H508.783ZM513.242 75.2727V76.0398C513.242 76.2727 513.2 76.5213 513.114 76.7855C513.032 77.0469 512.91 77.3011 512.748 77.5483C512.589 77.7926 512.396 78.0057 512.168 78.1875L511.623 77.7443C511.802 77.4886 511.957 77.223 512.087 76.9474C512.221 76.669 512.288 76.3722 512.288 76.0568V75.2727H513.242ZM515.424 75.2727V76.0398C515.424 76.2727 515.381 76.5213 515.296 76.7855C515.214 77.0469 515.092 77.3011 514.93 77.5483C514.771 77.7926 514.578 78.0057 514.35 78.1875L513.805 77.7443C513.984 77.4886 514.139 77.223 514.269 76.9474C514.403 76.669 514.47 76.3722 514.47 76.0568V75.2727H515.424ZM520.571 77.4545L522.139 80.1307L523.708 77.4545H524.867L522.753 80.7273L524.867 84H523.708L522.139 81.4602L520.571 84H519.412L521.492 80.7273L519.412 77.4545H520.571ZM528.975 82.2102V81.3409L532.81 75.2727H533.441V76.6193H533.015L530.117 81.2045V81.2727H535.282V82.2102H528.975ZM533.083 84V81.946V81.5412V75.2727H534.089V84H533.083ZM537.542 75.2727V76.0398C537.542 76.2727 537.5 76.5213 537.414 76.7855C537.332 77.0469 537.21 77.3011 537.048 77.5483C536.889 77.7926 536.696 78.0057 536.468 78.1875L535.923 77.7443C536.102 77.4886 536.257 77.223 536.387 76.9474C536.521 76.669 536.588 76.3722 536.588 76.0568V75.2727H537.542ZM539.724 75.2727V76.0398C539.724 76.2727 539.681 76.5213 539.596 76.7855C539.514 77.0469 539.392 77.3011 539.23 77.5483C539.071 77.7926 538.878 78.0057 538.65 78.1875L538.105 77.7443C538.284 77.4886 538.439 77.223 538.569 76.9474C538.703 76.669 538.77 76.3722 538.77 76.0568V75.2727H539.724Z" fill="#307FE2"/>
<g clip-path="url(#clip3_2243_30982)">
<path d="M448.641 209.26H446.641" stroke="#002159" stroke-miterlimit="10" stroke-linecap="round"/>
<path d="M443 209L325 209" stroke="#002159" stroke-miterlimit="10" stroke-linecap="round" stroke-dasharray="2 2"/>
<path d="M448.42 213.02C450.497 213.02 452.18 211.337 452.18 209.26C452.18 207.183 450.497 205.5 448.42 205.5C446.344 205.5 444.66 207.183 444.66 209.26C444.66 211.337 446.344 213.02 448.42 213.02Z" fill="white"/>
<path d="M448.42 205C446.07 205 444.16 206.91 444.16 209.26C444.16 211.61 446.07 213.52 448.42 213.52C450.77 213.52 452.68 211.61 452.68 209.26C452.68 206.91 450.77 205 448.42 205C450.77 205 446.07 205 448.42 205ZM448.42 212.52C446.62 212.52 445.16 211.06 445.16 209.26C445.16 207.46 446.62 206 448.42 206C450.22 206 451.68 207.46 451.68 209.26C451.68 211.06 450.22 212.52 448.42 212.52C450.22 212.52 446.62 212.52 448.42 212.52Z" fill="#002159"/>
</g>
<path d="M477.477 150.027V173.3H471.864V155.277H471.727L466.523 158.459V153.595L472.261 150.027H477.477ZM486.755 155.845L489.63 161.595L492.607 155.845H498.209L493.334 164.573L498.391 173.3H492.834L489.63 167.504L486.505 173.3H480.869L485.937 164.573L481.119 155.845H486.755Z" fill="#002159"/>
<path d="M477.773 184.923C477.705 184.347 477.428 183.9 476.943 183.582C476.458 183.264 475.864 183.104 475.159 183.104C474.644 183.104 474.193 183.188 473.807 183.354C473.424 183.521 473.125 183.75 472.909 184.042C472.697 184.334 472.591 184.665 472.591 185.036C472.591 185.347 472.665 185.614 472.812 185.837C472.964 186.057 473.157 186.241 473.392 186.389C473.627 186.532 473.873 186.652 474.131 186.746C474.388 186.837 474.625 186.911 474.841 186.968L476.023 187.286C476.326 187.366 476.663 187.476 477.034 187.616C477.409 187.756 477.767 187.947 478.108 188.19C478.453 188.428 478.737 188.735 478.96 189.11C479.184 189.485 479.295 189.945 479.295 190.491C479.295 191.12 479.131 191.688 478.801 192.195C478.475 192.703 477.998 193.106 477.369 193.406C476.744 193.705 475.985 193.854 475.091 193.854C474.258 193.854 473.536 193.72 472.926 193.451C472.32 193.182 471.843 192.807 471.494 192.326C471.15 191.845 470.955 191.286 470.909 190.65H472.364C472.402 191.089 472.549 191.453 472.807 191.741C473.068 192.025 473.398 192.237 473.795 192.377C474.197 192.514 474.629 192.582 475.091 192.582C475.629 192.582 476.112 192.495 476.54 192.32C476.968 192.142 477.307 191.896 477.557 191.582C477.807 191.264 477.932 190.892 477.932 190.468C477.932 190.082 477.824 189.767 477.608 189.525C477.392 189.282 477.108 189.086 476.756 188.934C476.403 188.782 476.023 188.65 475.614 188.536L474.182 188.127C473.273 187.866 472.553 187.493 472.023 187.008C471.492 186.523 471.227 185.889 471.227 185.104C471.227 184.453 471.403 183.885 471.756 183.4C472.112 182.911 472.589 182.532 473.188 182.264C473.79 181.991 474.462 181.854 475.205 181.854C475.955 181.854 476.621 181.989 477.205 182.258C477.788 182.523 478.25 182.887 478.591 183.349C478.936 183.811 479.117 184.336 479.136 184.923H477.773ZM484.906 184.923V186.059H480.383V184.923H484.906ZM481.701 182.832H483.042V191.15C483.042 191.529 483.097 191.813 483.207 192.002C483.321 192.188 483.465 192.313 483.639 192.377C483.817 192.438 484.004 192.468 484.201 192.468C484.349 192.468 484.47 192.461 484.565 192.445C484.66 192.426 484.735 192.411 484.792 192.4L485.065 193.604C484.974 193.639 484.847 193.673 484.684 193.707C484.521 193.745 484.315 193.764 484.065 193.764C483.686 193.764 483.315 193.682 482.951 193.519C482.591 193.356 482.292 193.108 482.054 192.775C481.819 192.442 481.701 192.021 481.701 191.514V182.832ZM489.171 193.854C488.618 193.854 488.116 193.75 487.665 193.542C487.215 193.33 486.857 193.025 486.592 192.627C486.326 192.226 486.194 191.741 486.194 191.173C486.194 190.673 486.292 190.267 486.489 189.957C486.686 189.642 486.949 189.396 487.279 189.218C487.609 189.04 487.972 188.907 488.37 188.82C488.771 188.729 489.175 188.657 489.58 188.604C490.11 188.536 490.54 188.485 490.87 188.451C491.203 188.413 491.446 188.351 491.597 188.264C491.753 188.176 491.83 188.025 491.83 187.809V187.764C491.83 187.203 491.677 186.767 491.37 186.457C491.067 186.146 490.607 185.991 489.989 185.991C489.349 185.991 488.847 186.131 488.484 186.411C488.12 186.692 487.864 186.991 487.717 187.309L486.444 186.854C486.671 186.324 486.974 185.911 487.353 185.616C487.735 185.317 488.152 185.108 488.603 184.991C489.057 184.87 489.504 184.809 489.944 184.809C490.224 184.809 490.546 184.843 490.91 184.911C491.277 184.976 491.631 185.11 491.972 185.315C492.317 185.519 492.603 185.828 492.83 186.241C493.057 186.654 493.171 187.207 493.171 187.9V193.65H491.83V192.468H491.762C491.671 192.657 491.52 192.86 491.307 193.076C491.095 193.292 490.813 193.476 490.461 193.627C490.109 193.779 489.679 193.854 489.171 193.854ZM489.376 192.65C489.906 192.65 490.353 192.546 490.717 192.337C491.084 192.129 491.36 191.86 491.546 191.531C491.735 191.201 491.83 190.854 491.83 190.491V189.264C491.773 189.332 491.648 189.394 491.455 189.451C491.266 189.504 491.046 189.551 490.796 189.593C490.55 189.631 490.309 189.665 490.074 189.695C489.843 189.722 489.656 189.745 489.512 189.764C489.164 189.809 488.838 189.883 488.535 189.985C488.235 190.084 487.993 190.233 487.807 190.434C487.626 190.631 487.535 190.9 487.535 191.241C487.535 191.707 487.707 192.059 488.052 192.298C488.4 192.532 488.842 192.65 489.376 192.65ZM496.639 188.4V193.65H495.299V184.923H496.594V186.286H496.708C496.912 185.843 497.223 185.487 497.639 185.218C498.056 184.945 498.594 184.809 499.253 184.809C499.844 184.809 500.361 184.93 500.804 185.173C501.247 185.411 501.592 185.775 501.838 186.264C502.085 186.748 502.208 187.362 502.208 188.104V193.65H500.867V188.195C500.867 187.51 500.689 186.976 500.333 186.593C499.977 186.207 499.488 186.014 498.867 186.014C498.439 186.014 498.056 186.106 497.719 186.292C497.386 186.478 497.122 186.748 496.929 187.104C496.736 187.461 496.639 187.892 496.639 188.4ZM507.633 193.832C506.906 193.832 506.264 193.648 505.707 193.281C505.15 192.909 504.715 192.387 504.4 191.712C504.086 191.034 503.929 190.233 503.929 189.309C503.929 188.392 504.086 187.597 504.4 186.923C504.715 186.248 505.152 185.728 505.713 185.36C506.274 184.993 506.921 184.809 507.656 184.809C508.224 184.809 508.673 184.904 509.003 185.093C509.336 185.279 509.59 185.491 509.764 185.729C509.942 185.964 510.08 186.157 510.179 186.309H510.292V182.014H511.633V193.65H510.338V192.309H510.179C510.08 192.468 509.94 192.669 509.758 192.911C509.577 193.15 509.317 193.364 508.98 193.553C508.643 193.739 508.194 193.832 507.633 193.832ZM507.815 192.627C508.353 192.627 508.808 192.487 509.179 192.207C509.55 191.923 509.832 191.531 510.025 191.031C510.219 190.527 510.315 189.945 510.315 189.286C510.315 188.635 510.22 188.065 510.031 187.576C509.842 187.084 509.561 186.701 509.19 186.428C508.819 186.152 508.361 186.014 507.815 186.014C507.247 186.014 506.774 186.159 506.395 186.451C506.02 186.739 505.738 187.131 505.548 187.627C505.363 188.12 505.27 188.673 505.27 189.286C505.27 189.907 505.364 190.472 505.554 190.979C505.747 191.483 506.031 191.885 506.406 192.184C506.785 192.479 507.255 192.627 507.815 192.627ZM516.524 193.854C515.971 193.854 515.469 193.75 515.018 193.542C514.567 193.33 514.209 193.025 513.944 192.627C513.679 192.226 513.546 191.741 513.546 191.173C513.546 190.673 513.645 190.267 513.842 189.957C514.039 189.642 514.302 189.396 514.632 189.218C514.961 189.04 515.325 188.907 515.722 188.82C516.124 188.729 516.527 188.657 516.933 188.604C517.463 188.536 517.893 188.485 518.222 188.451C518.556 188.413 518.798 188.351 518.95 188.264C519.105 188.176 519.183 188.025 519.183 187.809V187.764C519.183 187.203 519.029 186.767 518.722 186.457C518.419 186.146 517.959 185.991 517.342 185.991C516.702 185.991 516.2 186.131 515.836 186.411C515.472 186.692 515.217 186.991 515.069 187.309L513.796 186.854C514.024 186.324 514.327 185.911 514.705 185.616C515.088 185.317 515.505 185.108 515.955 184.991C516.41 184.87 516.857 184.809 517.296 184.809C517.577 184.809 517.899 184.843 518.262 184.911C518.63 184.976 518.984 185.11 519.325 185.315C519.669 185.519 519.955 185.828 520.183 186.241C520.41 186.654 520.524 187.207 520.524 187.9V193.65H519.183V192.468H519.114C519.024 192.657 518.872 192.86 518.66 193.076C518.448 193.292 518.166 193.476 517.813 193.627C517.461 193.779 517.031 193.854 516.524 193.854ZM516.728 192.65C517.258 192.65 517.705 192.546 518.069 192.337C518.436 192.129 518.713 191.86 518.899 191.531C519.088 191.201 519.183 190.854 519.183 190.491V189.264C519.126 189.332 519.001 189.394 518.808 189.451C518.618 189.504 518.399 189.551 518.149 189.593C517.902 189.631 517.662 189.665 517.427 189.695C517.196 189.722 517.008 189.745 516.864 189.764C516.516 189.809 516.19 189.883 515.887 189.985C515.588 190.084 515.346 190.233 515.16 190.434C514.978 190.631 514.887 190.9 514.887 191.241C514.887 191.707 515.06 192.059 515.404 192.298C515.753 192.532 516.194 192.65 516.728 192.65ZM522.651 193.65V184.923H523.946V186.241H524.037C524.196 185.809 524.484 185.459 524.901 185.19C525.318 184.921 525.787 184.786 526.31 184.786C526.409 184.786 526.532 184.788 526.679 184.792C526.827 184.796 526.939 184.801 527.015 184.809V186.173C526.969 186.161 526.865 186.144 526.702 186.121C526.543 186.095 526.375 186.082 526.196 186.082C525.772 186.082 525.393 186.171 525.06 186.349C524.731 186.523 524.469 186.765 524.276 187.076C524.087 187.383 523.992 187.733 523.992 188.127V193.65H522.651ZM531.314 193.832C530.587 193.832 529.945 193.648 529.388 193.281C528.831 192.909 528.395 192.387 528.081 191.712C527.767 191.034 527.609 190.233 527.609 189.309C527.609 188.392 527.767 187.597 528.081 186.923C528.395 186.248 528.833 185.728 529.394 185.36C529.954 184.993 530.602 184.809 531.337 184.809C531.905 184.809 532.354 184.904 532.683 185.093C533.017 185.279 533.27 185.491 533.445 185.729C533.623 185.964 533.761 186.157 533.859 186.309H533.973V182.014H535.314V193.65H534.019V192.309H533.859C533.761 192.468 533.621 192.669 533.439 192.911C533.257 193.15 532.998 193.364 532.661 193.553C532.323 193.739 531.875 193.832 531.314 193.832ZM531.496 192.627C532.034 192.627 532.488 192.487 532.859 192.207C533.231 191.923 533.513 191.531 533.706 191.031C533.899 190.527 533.996 189.945 533.996 189.286C533.996 188.635 533.901 188.065 533.712 187.576C533.522 187.084 533.242 186.701 532.871 186.428C532.5 186.152 532.041 186.014 531.496 186.014C530.928 186.014 530.454 186.159 530.075 186.451C529.7 186.739 529.418 187.131 529.229 187.627C529.043 188.12 528.95 188.673 528.95 189.286C528.95 189.907 529.045 190.472 529.234 190.979C529.428 191.483 529.712 191.885 530.087 192.184C530.465 192.479 530.935 192.627 531.496 192.627ZM481.227 206.832C481.227 208.059 481.006 209.12 480.562 210.014C480.119 210.907 479.511 211.597 478.739 212.082C477.966 212.567 477.083 212.809 476.091 212.809C475.098 212.809 474.216 212.567 473.443 212.082C472.67 211.597 472.063 210.907 471.619 210.014C471.176 209.12 470.955 208.059 470.955 206.832C470.955 205.604 471.176 204.544 471.619 203.65C472.063 202.756 472.67 202.067 473.443 201.582C474.216 201.097 475.098 200.854 476.091 200.854C477.083 200.854 477.966 201.097 478.739 201.582C479.511 202.067 480.119 202.756 480.562 203.65C481.006 204.544 481.227 205.604 481.227 206.832ZM479.864 206.832C479.864 205.824 479.695 204.974 479.358 204.281C479.025 203.587 478.572 203.063 478 202.707C477.432 202.351 476.795 202.173 476.091 202.173C475.386 202.173 474.748 202.351 474.176 202.707C473.608 203.063 473.155 203.587 472.818 204.281C472.485 204.974 472.318 205.824 472.318 206.832C472.318 207.839 472.485 208.69 472.818 209.383C473.155 210.076 473.608 210.601 474.176 210.957C474.748 211.313 475.386 211.491 476.091 211.491C476.795 211.491 477.432 211.313 478 210.957C478.572 210.601 479.025 210.076 479.358 209.383C479.695 208.69 479.864 207.839 479.864 206.832ZM483.095 215.923V203.923H484.39V205.309H484.549C484.648 205.157 484.784 204.964 484.958 204.729C485.136 204.491 485.39 204.279 485.72 204.093C486.053 203.904 486.504 203.809 487.072 203.809C487.807 203.809 488.455 203.993 489.015 204.36C489.576 204.728 490.013 205.248 490.328 205.923C490.642 206.597 490.799 207.392 490.799 208.309C490.799 209.233 490.642 210.034 490.328 210.712C490.013 211.387 489.578 211.909 489.021 212.281C488.464 212.648 487.822 212.832 487.095 212.832C486.534 212.832 486.085 212.739 485.748 212.553C485.411 212.364 485.152 212.15 484.97 211.911C484.788 211.669 484.648 211.468 484.549 211.309H484.436V215.923H483.095ZM484.413 208.286C484.413 208.945 484.51 209.527 484.703 210.031C484.896 210.531 485.178 210.923 485.549 211.207C485.921 211.487 486.375 211.627 486.913 211.627C487.474 211.627 487.941 211.479 488.316 211.184C488.695 210.885 488.979 210.483 489.169 209.979C489.362 209.472 489.458 208.907 489.458 208.286C489.458 207.673 489.364 207.12 489.174 206.627C488.989 206.131 488.707 205.739 488.328 205.451C487.953 205.159 487.481 205.014 486.913 205.014C486.368 205.014 485.909 205.152 485.538 205.428C485.167 205.701 484.886 206.084 484.697 206.576C484.508 207.065 484.413 207.635 484.413 208.286ZM496.184 212.832C495.343 212.832 494.618 212.646 494.008 212.275C493.402 211.9 492.934 211.377 492.604 210.707C492.279 210.032 492.116 209.248 492.116 208.354C492.116 207.461 492.279 206.673 492.604 205.991C492.934 205.305 493.392 204.771 493.979 204.389C494.57 204.002 495.26 203.809 496.048 203.809C496.502 203.809 496.951 203.885 497.394 204.036C497.837 204.188 498.241 204.434 498.604 204.775C498.968 205.112 499.258 205.559 499.474 206.116C499.69 206.673 499.798 207.358 499.798 208.173V208.741H493.07V207.582H498.434C498.434 207.089 498.335 206.65 498.138 206.264C497.945 205.877 497.669 205.572 497.309 205.349C496.953 205.125 496.532 205.014 496.048 205.014C495.513 205.014 495.051 205.146 494.661 205.411C494.275 205.673 493.977 206.014 493.769 206.434C493.561 206.854 493.457 207.305 493.457 207.786V208.559C493.457 209.218 493.57 209.777 493.798 210.235C494.029 210.69 494.349 211.036 494.758 211.275C495.167 211.51 495.642 211.627 496.184 211.627C496.536 211.627 496.854 211.578 497.138 211.479C497.426 211.377 497.674 211.226 497.883 211.025C498.091 210.82 498.252 210.567 498.366 210.264L499.661 210.627C499.525 211.067 499.296 211.453 498.974 211.786C498.652 212.116 498.254 212.373 497.78 212.559C497.307 212.741 496.775 212.832 496.184 212.832ZM502.858 207.4V212.65H501.517V203.923H502.813V205.286H502.926C503.131 204.843 503.442 204.487 503.858 204.218C504.275 203.945 504.813 203.809 505.472 203.809C506.063 203.809 506.58 203.93 507.023 204.173C507.466 204.411 507.811 204.775 508.057 205.264C508.303 205.748 508.426 206.362 508.426 207.104V212.65H507.085V207.195C507.085 206.51 506.907 205.976 506.551 205.593C506.195 205.207 505.707 205.014 505.085 205.014C504.657 205.014 504.275 205.106 503.938 205.292C503.604 205.478 503.341 205.748 503.148 206.104C502.955 206.461 502.858 206.892 502.858 207.4ZM510.557 212.65V203.923H511.898V212.65H510.557ZM511.238 202.468C510.977 202.468 510.752 202.379 510.562 202.201C510.377 202.023 510.284 201.809 510.284 201.559C510.284 201.309 510.377 201.095 510.562 200.917C510.752 200.739 510.977 200.65 511.238 200.65C511.5 200.65 511.723 200.739 511.909 200.917C512.098 201.095 512.193 201.309 512.193 201.559C512.193 201.809 512.098 202.023 511.909 202.201C511.723 202.379 511.5 202.468 511.238 202.468ZM515.374 207.4V212.65H514.034V203.923H515.329V205.286H515.443C515.647 204.843 515.958 204.487 516.374 204.218C516.791 203.945 517.329 203.809 517.988 203.809C518.579 203.809 519.096 203.93 519.539 204.173C519.982 204.411 520.327 204.775 520.573 205.264C520.82 205.748 520.943 206.362 520.943 207.104V212.65H519.602V207.195C519.602 206.51 519.424 205.976 519.068 205.593C518.712 205.207 518.223 205.014 517.602 205.014C517.174 205.014 516.791 205.106 516.454 205.292C516.121 205.478 515.857 205.748 515.664 206.104C515.471 206.461 515.374 206.892 515.374 207.4ZM526.596 216.104C525.948 216.104 525.391 216.021 524.925 215.854C524.459 215.692 524.071 215.476 523.76 215.207C523.454 214.942 523.209 214.657 523.027 214.354L524.096 213.604C524.217 213.764 524.37 213.945 524.556 214.15C524.741 214.358 524.995 214.538 525.317 214.69C525.643 214.845 526.069 214.923 526.596 214.923C527.3 214.923 527.882 214.752 528.34 214.411C528.798 214.07 529.027 213.536 529.027 212.809V211.036H528.914C528.815 211.195 528.675 211.392 528.493 211.627C528.315 211.858 528.058 212.065 527.721 212.246C527.387 212.425 526.937 212.514 526.368 212.514C525.664 212.514 525.031 212.347 524.471 212.014C523.914 211.68 523.473 211.195 523.147 210.559C522.825 209.923 522.664 209.15 522.664 208.241C522.664 207.347 522.821 206.568 523.135 205.906C523.45 205.239 523.887 204.724 524.448 204.36C525.009 203.993 525.656 203.809 526.391 203.809C526.959 203.809 527.41 203.904 527.743 204.093C528.08 204.279 528.338 204.491 528.516 204.729C528.698 204.964 528.838 205.157 528.937 205.309H529.073V203.923H530.368V212.9C530.368 213.65 530.198 214.26 529.857 214.729C529.52 215.203 529.065 215.55 528.493 215.769C527.925 215.993 527.293 216.104 526.596 216.104ZM526.55 211.309C527.088 211.309 527.543 211.186 527.914 210.94C528.285 210.693 528.567 210.339 528.76 209.877C528.954 209.415 529.05 208.862 529.05 208.218C529.05 207.589 528.955 207.034 528.766 206.553C528.577 206.072 528.296 205.695 527.925 205.423C527.554 205.15 527.096 205.014 526.55 205.014C525.982 205.014 525.509 205.157 525.13 205.445C524.755 205.733 524.473 206.12 524.283 206.604C524.098 207.089 524.005 207.627 524.005 208.218C524.005 208.824 524.099 209.36 524.289 209.826C524.482 210.288 524.766 210.652 525.141 210.917C525.52 211.178 525.99 211.309 526.55 211.309Z" fill="#002159"/>
<path d="M470.903 231V230.233L473.784 227.08C474.122 226.71 474.401 226.389 474.619 226.116C474.838 225.841 475 225.582 475.105 225.341C475.213 225.097 475.267 224.841 475.267 224.574C475.267 224.267 475.193 224.001 475.045 223.777C474.901 223.553 474.702 223.379 474.449 223.257C474.196 223.135 473.912 223.074 473.597 223.074C473.261 223.074 472.969 223.143 472.719 223.283C472.472 223.419 472.28 223.611 472.143 223.858C472.01 224.105 471.943 224.395 471.943 224.727H470.938C470.938 224.216 471.055 223.767 471.291 223.381C471.527 222.994 471.848 222.693 472.254 222.477C472.663 222.261 473.122 222.153 473.631 222.153C474.142 222.153 474.595 222.261 474.99 222.477C475.385 222.693 475.695 222.984 475.919 223.351C476.143 223.717 476.256 224.125 476.256 224.574C476.256 224.895 476.197 225.209 476.081 225.516C475.967 225.82 475.768 226.159 475.484 226.534C475.203 226.906 474.812 227.361 474.312 227.898L472.352 229.994V230.062H476.409V231H470.903ZM478.832 222.273V223.04C478.832 223.273 478.79 223.521 478.705 223.786C478.622 224.047 478.5 224.301 478.338 224.548C478.179 224.793 477.986 225.006 477.759 225.188L477.213 224.744C477.392 224.489 477.547 224.223 477.678 223.947C477.811 223.669 477.878 223.372 477.878 223.057V222.273H478.832ZM483.806 224.455L485.374 227.131L486.942 224.455H488.101L485.988 227.727L488.101 231H486.942L485.374 228.46L483.806 231H482.647L484.726 227.727L482.647 224.455H483.806ZM495.312 231.119C494.954 231.114 494.596 231.045 494.238 230.915C493.88 230.784 493.554 230.564 493.258 230.254C492.963 229.942 492.725 229.52 492.546 228.989C492.367 228.455 492.278 227.784 492.278 226.977C492.278 226.205 492.35 225.52 492.495 224.923C492.64 224.324 492.85 223.82 493.126 223.411C493.402 222.999 493.734 222.686 494.123 222.473C494.515 222.26 494.957 222.153 495.448 222.153C495.937 222.153 496.372 222.251 496.752 222.447C497.136 222.641 497.448 222.911 497.69 223.257C497.931 223.604 498.088 224.003 498.159 224.455H497.119C497.022 224.062 496.835 223.737 496.556 223.479C496.278 223.22 495.909 223.091 495.448 223.091C494.772 223.091 494.24 223.385 493.85 223.973C493.464 224.561 493.269 225.386 493.267 226.449H493.335C493.494 226.207 493.683 226.001 493.902 225.831C494.123 225.658 494.367 225.524 494.635 225.43C494.902 225.337 495.184 225.29 495.483 225.29C495.983 225.29 496.44 225.415 496.855 225.665C497.269 225.912 497.602 226.254 497.852 226.692C498.102 227.126 498.227 227.625 498.227 228.188C498.227 228.727 498.106 229.222 497.865 229.67C497.623 230.116 497.284 230.472 496.846 230.736C496.412 230.997 495.9 231.125 495.312 231.119ZM495.312 230.182C495.67 230.182 495.991 230.092 496.275 229.913C496.562 229.734 496.788 229.494 496.953 229.193C497.12 228.892 497.204 228.557 497.204 228.188C497.204 227.827 497.123 227.499 496.961 227.203C496.802 226.905 496.582 226.668 496.301 226.491C496.022 226.315 495.704 226.227 495.346 226.227C495.076 226.227 494.825 226.281 494.592 226.389C494.359 226.494 494.154 226.639 493.978 226.824C493.805 227.009 493.669 227.22 493.569 227.459C493.47 227.695 493.42 227.943 493.42 228.205C493.42 228.551 493.501 228.875 493.663 229.176C493.828 229.477 494.052 229.72 494.336 229.905C494.623 230.089 494.948 230.182 495.312 230.182ZM500.566 222.273V223.04C500.566 223.273 500.523 223.521 500.438 223.786C500.356 224.047 500.234 224.301 500.072 224.548C499.913 224.793 499.719 225.006 499.492 225.188L498.947 224.744C499.126 224.489 499.281 224.223 499.411 223.947C499.545 223.669 499.611 223.372 499.611 223.057V222.273H500.566ZM505.147 227.318C505.147 226.244 505.287 225.257 505.565 224.357C505.846 223.453 506.247 222.622 506.767 221.864H507.653C507.449 222.145 507.257 222.491 507.078 222.903C506.902 223.312 506.747 223.763 506.613 224.254C506.48 224.743 506.375 225.249 506.298 225.771C506.224 226.294 506.187 226.81 506.187 227.318C506.187 227.994 506.253 228.68 506.383 229.376C506.514 230.072 506.69 230.719 506.912 231.315C507.133 231.912 507.38 232.398 507.653 232.773H506.767C506.247 232.014 505.846 231.185 505.565 230.284C505.287 229.381 505.147 228.392 505.147 227.318ZM511.812 224.455V225.307H508.284V224.455H511.812ZM509.34 231V223.551C509.34 223.176 509.428 222.864 509.605 222.614C509.781 222.364 510.009 222.176 510.291 222.051C510.572 221.926 510.869 221.864 511.181 221.864C511.428 221.864 511.63 221.884 511.786 221.923C511.943 221.963 512.059 222 512.136 222.034L511.846 222.903C511.795 222.886 511.724 222.865 511.633 222.839C511.545 222.814 511.428 222.801 511.284 222.801C510.951 222.801 510.711 222.885 510.563 223.053C510.418 223.22 510.346 223.466 510.346 223.79V231H509.34ZM515.828 224.455V225.307H512.436V224.455H515.828ZM513.425 222.886H514.43V229.125C514.43 229.409 514.471 229.622 514.554 229.764C514.639 229.903 514.747 229.997 514.878 230.045C515.011 230.091 515.152 230.114 515.3 230.114C515.41 230.114 515.501 230.108 515.572 230.097C515.643 230.082 515.7 230.071 515.743 230.062L515.947 230.966C515.879 230.991 515.784 231.017 515.662 231.043C515.54 231.071 515.385 231.085 515.197 231.085C514.913 231.085 514.635 231.024 514.362 230.902C514.092 230.78 513.868 230.594 513.689 230.344C513.513 230.094 513.425 229.778 513.425 229.398V222.886ZM517.834 231.068C517.623 231.068 517.443 230.993 517.293 230.842C517.142 230.692 517.067 230.511 517.067 230.301C517.067 230.091 517.142 229.911 517.293 229.76C517.443 229.609 517.623 229.534 517.834 229.534C518.044 229.534 518.224 229.609 518.375 229.76C518.525 229.911 518.601 230.091 518.601 230.301C518.601 230.44 518.565 230.568 518.494 230.685C518.426 230.801 518.334 230.895 518.217 230.966C518.104 231.034 517.976 231.068 517.834 231.068ZM522.313 227.318C522.313 228.392 522.173 229.381 521.891 230.284C521.613 231.185 521.214 232.014 520.694 232.773H519.807C520.012 232.491 520.202 232.145 520.379 231.733C520.557 231.324 520.714 230.875 520.847 230.386C520.981 229.895 521.084 229.388 521.158 228.865C521.235 228.339 521.273 227.824 521.273 227.318C521.273 226.642 521.208 225.956 521.077 225.26C520.947 224.564 520.771 223.918 520.549 223.321C520.327 222.724 520.08 222.239 519.807 221.864H520.694C521.214 222.622 521.613 223.453 521.891 224.357C522.173 225.257 522.313 226.244 522.313 227.318Z" fill="#307FE2"/>
<defs>
<filter id="filter0_f_2243_30982" x="-15.4492" y="84.9299" width="408.449" height="232.19" filterUnits="userSpaceOnUse" color-interpolation-filters="sRGB">
<feFlood flood-opacity="0" result="BackgroundImageFix"/>
<feBlend mode="normal" in="SourceGraphic" in2="BackgroundImageFix" result="shape"/>
<feGaussianBlur stdDeviation="10" result="effect1_foregroundBlur_2243_30982"/>
</filter>
<clipPath id="clip0_2243_30982">
<rect width="378" height="231" fill="white" transform="matrix(-1 0 0 1 378 84)"/>
</clipPath>
<clipPath id="clip1_2243_30982">
<rect width="397" height="225" fill="white" transform="matrix(-1 0 0 1 387 94)"/>
</clipPath>
<clipPath id="clip2_2243_30982">
<rect width="132" height="42" fill="white" transform="translate(321 45)"/>
</clipPath>
<clipPath id="clip3_2243_30982">
<rect width="129" height="9" fill="white" transform="translate(324 205)"/>
</clipPath>
</defs>
</svg>
