<svg width="548" height="277" viewBox="0 0 548 277" fill="none" xmlns="http://www.w3.org/2000/svg">
<g clip-path="url(#clip0_2243_31005)">
<g clip-path="url(#clip1_2243_31005)">
<g filter="url(#filter0_f_2243_31005)">
<path d="M191.358 175.269L422.162 70.439L526.203 146.636L314.98 252.763L191.358 175.269Z" fill="#BABCBE"/>
</g>
<path d="M397.773 57.645L188.573 164.746V111.533L397.773 4.4325V57.645Z" fill="#1752A0"/>
<path d="M397.775 4.4325L522.434 124.832V138.139L397.775 57.645V4.4325Z" fill="#03449E"/>
<path d="M522.434 138.139L313.233 245.231V231.923L522.434 124.832V138.139Z" fill="#01337D"/>
<path d="M188.576 111.533L313.234 231.924V245.231L188.576 164.746V111.533Z" fill="#03449E"/>
<path d="M313.233 231.923L188.574 111.533L397.775 4.4325L522.434 124.832L313.233 231.923Z" fill="#2A7DE1"/>
<path d="M327.59 217.94L214.779 108.992" stroke="#1A428A" stroke-width="1.75" stroke-miterlimit="10" stroke-linecap="round"/>
<path d="M345.973 208.408L233.162 99.46" stroke="#1A428A" stroke-width="1.75" stroke-miterlimit="10" stroke-linecap="round"/>
<path d="M480.945 140.14L368.145 31.1919" stroke="#1A428A" stroke-width="1.75" stroke-miterlimit="10" stroke-linecap="round"/>
<path d="M499.336 130.616L386.525 21.6594" stroke="#1A428A" stroke-width="1.75" stroke-miterlimit="10" stroke-linecap="round"/>
<path d="M251.899 92.5133L289.709 128.31L315.041 115.344L293.59 96.4236L342.09 71.304L362.565 88.2786L387.074 76.0252L349.935 42.3281L251.899 92.5133Z" stroke="#1A428A" stroke-width="1.9" stroke-miterlimit="10" stroke-linecap="round"/>
<path d="M315.71 99.541L345.97 126.066C346.702 126.715 347.799 126.895 348.744 126.526L368.681 116.687C370.296 116.056 370.693 114.182 369.443 113.083L338.969 86.9722C338.237 86.3234 337.14 86.1433 336.195 86.5127L316.472 95.928C314.856 96.5587 314.46 98.4328 315.71 99.532V99.541Z" stroke="#1A428A" stroke-width="1.9" stroke-miterlimit="10" stroke-linecap="round"/>
<path d="M389.654 112.623L387.632 142.527L342.425 138.734L321.401 122.651L296.892 135.202L322.549 157.195L416.317 166.683L422.16 108.218L393.739 83.2871L368.498 95.5676L389.654 112.623Z" stroke="#1A428A" stroke-width="1.9" stroke-miterlimit="10" stroke-linecap="round"/>
</g>
<path d="M28.2906 20.1364V15.75L37.8247 0.727272H41.7224V6.68182H39.461L33.8815 15.5227V15.7045H47.6883V20.1364H28.2906ZM39.5292 24V18.7955L39.6428 16.875V0.727272H44.9042V24H39.5292ZM54.7699 6.54545L57.6449 12.2955L60.6222 6.54545H66.2244L61.3494 15.2727L66.4062 24H60.8494L57.6449 18.2045L54.5199 24H48.8835L53.9517 15.2727L49.1335 6.54545H54.7699Z" fill="#002159"/>
<path d="M1.84409 46V34.3636H8.82136V35.6136H3.25318V39.5455H8.29863V40.7955H3.25318V46H1.84409ZM13.7514 46.1818C12.9105 46.1818 12.1851 45.9962 11.5752 45.625C10.9692 45.25 10.5014 44.7273 10.1718 44.0568C9.84606 43.3826 9.68318 42.5985 9.68318 41.7045C9.68318 40.8106 9.84606 40.0227 10.1718 39.3409C10.5014 38.6553 10.9597 38.1212 11.5468 37.7386C12.1377 37.3523 12.8271 37.1591 13.615 37.1591C14.0695 37.1591 14.5184 37.2348 14.9616 37.3864C15.4048 37.5379 15.8082 37.7841 16.1718 38.125C16.5355 38.4621 16.8252 38.9091 17.0411 39.4659C17.257 40.0227 17.365 40.7083 17.365 41.5227V42.0909H10.6377V40.9318H16.0014C16.0014 40.4394 15.9029 40 15.7059 39.6136C15.5127 39.2273 15.2362 38.9223 14.8764 38.6989C14.5203 38.4754 14.0998 38.3636 13.615 38.3636C13.0809 38.3636 12.6188 38.4962 12.2286 38.7614C11.8423 39.0227 11.5449 39.3636 11.3366 39.7841C11.1283 40.2045 11.0241 40.6553 11.0241 41.1364V41.9091C11.0241 42.5682 11.1377 43.1269 11.365 43.5852C11.5961 44.0398 11.9161 44.3864 12.3252 44.625C12.7343 44.8598 13.2097 44.9773 13.7514 44.9773C14.1036 44.9773 14.4218 44.928 14.7059 44.8295C14.9938 44.7273 15.2419 44.5758 15.4502 44.375C15.6586 44.1705 15.8195 43.9167 15.9332 43.6136L17.2286 43.9773C17.0923 44.4167 16.8631 44.803 16.5411 45.1364C16.2192 45.4659 15.8214 45.7235 15.348 45.9091C14.8745 46.0909 14.3423 46.1818 13.7514 46.1818ZM21.653 46.2045C21.0999 46.2045 20.598 46.1004 20.1473 45.892C19.6965 45.6799 19.3386 45.375 19.0734 44.9773C18.8083 44.5758 18.6757 44.0909 18.6757 43.5227C18.6757 43.0227 18.7742 42.6174 18.9711 42.3068C19.1681 41.9924 19.4314 41.7462 19.7609 41.5682C20.0905 41.3902 20.4541 41.2576 20.8518 41.1705C21.2533 41.0795 21.6567 41.0076 22.062 40.9545C22.5923 40.8864 23.0223 40.8352 23.3518 40.8011C23.6851 40.7633 23.9276 40.7008 24.0791 40.6136C24.2344 40.5265 24.312 40.375 24.312 40.1591V40.1136C24.312 39.553 24.1586 39.1174 23.8518 38.8068C23.5488 38.4962 23.0886 38.3409 22.4711 38.3409C21.831 38.3409 21.3291 38.4811 20.9655 38.7614C20.6018 39.0417 20.3461 39.3409 20.1984 39.6591L18.9257 39.2045C19.153 38.6742 19.456 38.2614 19.8348 37.9659C20.2173 37.6667 20.634 37.4583 21.0848 37.3409C21.5393 37.2197 21.9863 37.1591 22.4257 37.1591C22.706 37.1591 23.028 37.1932 23.3916 37.2614C23.759 37.3258 24.1132 37.4602 24.4541 37.6648C24.7988 37.8693 25.0848 38.178 25.312 38.5909C25.5393 39.0038 25.653 39.5568 25.653 40.25V46H24.312V44.8182H24.2439C24.153 45.0076 24.0014 45.2102 23.7893 45.4261C23.5772 45.642 23.295 45.8258 22.9427 45.9773C22.5905 46.1288 22.1605 46.2045 21.653 46.2045ZM21.8575 45C22.3878 45 22.8348 44.8958 23.1984 44.6875C23.5658 44.4792 23.8423 44.2102 24.028 43.8807C24.2173 43.5511 24.312 43.2045 24.312 42.8409V41.6136C24.2552 41.6818 24.1302 41.7443 23.937 41.8011C23.7476 41.8542 23.528 41.9015 23.278 41.9432C23.0317 41.9811 22.7912 42.0152 22.5564 42.0455C22.3253 42.072 22.1378 42.0947 21.9939 42.1136C21.6454 42.1591 21.3196 42.233 21.0166 42.3352C20.7173 42.4337 20.4749 42.5833 20.2893 42.7841C20.1075 42.9811 20.0166 43.25 20.0166 43.5909C20.0166 44.0568 20.1889 44.4091 20.5336 44.6477C20.8821 44.8826 21.3234 45 21.8575 45ZM31.5759 37.2727V38.4091H27.0531V37.2727H31.5759ZM28.3713 35.1818H29.7122V43.5C29.7122 43.8788 29.7671 44.1629 29.877 44.3523C29.9906 44.5379 30.1346 44.6629 30.3088 44.7273C30.4868 44.7879 30.6743 44.8182 30.8713 44.8182C31.019 44.8182 31.1402 44.8106 31.2349 44.7955C31.3296 44.7765 31.4054 44.7614 31.4622 44.75L31.7349 45.9545C31.644 45.9886 31.5171 46.0227 31.3543 46.0568C31.1914 46.0947 30.9849 46.1136 30.7349 46.1136C30.3562 46.1136 29.9849 46.0322 29.6213 45.8693C29.2615 45.7064 28.9622 45.4583 28.7236 45.125C28.4887 44.7917 28.3713 44.3712 28.3713 43.8636V35.1818ZM38.7729 42.4318V37.2727H40.1138V46H38.7729V44.5227H38.682C38.4774 44.9659 38.1593 45.3428 37.7274 45.6534C37.2956 45.9602 36.7502 46.1136 36.0911 46.1136C35.5456 46.1136 35.0608 45.9943 34.6365 45.7557C34.2123 45.5133 33.879 45.1496 33.6365 44.6648C33.3941 44.1761 33.2729 43.5606 33.2729 42.8182V37.2727H34.6138V42.7273C34.6138 43.3636 34.7918 43.8712 35.1479 44.25C35.5077 44.6288 35.9661 44.8182 36.5229 44.8182C36.8562 44.8182 37.1952 44.733 37.5399 44.5625C37.8884 44.392 38.1801 44.1307 38.4149 43.7784C38.6536 43.4261 38.7729 42.9773 38.7729 42.4318ZM42.2498 46V37.2727H43.5452V38.5909H43.6361C43.7952 38.1591 44.0831 37.8087 44.4998 37.5398C44.9164 37.2708 45.3861 37.1364 45.9089 37.1364C46.0073 37.1364 46.1305 37.1383 46.2782 37.142C46.4259 37.1458 46.5377 37.1515 46.6134 37.1591V38.5227C46.568 38.5114 46.4638 38.4943 46.3009 38.4716C46.1418 38.4451 45.9733 38.4318 45.7952 38.4318C45.371 38.4318 44.9922 38.5208 44.6589 38.6989C44.3293 38.8731 44.068 39.1155 43.8748 39.4261C43.6854 39.733 43.5907 40.0833 43.5907 40.4773V46H42.2498ZM51.2764 46.1818C50.4355 46.1818 49.7101 45.9962 49.1002 45.625C48.4942 45.25 48.0264 44.7273 47.6968 44.0568C47.3711 43.3826 47.2082 42.5985 47.2082 41.7045C47.2082 40.8106 47.3711 40.0227 47.6968 39.3409C48.0264 38.6553 48.4847 38.1212 49.0718 37.7386C49.6627 37.3523 50.3521 37.1591 51.14 37.1591C51.5945 37.1591 52.0434 37.2348 52.4866 37.3864C52.9298 37.5379 53.3332 37.7841 53.6968 38.125C54.0605 38.4621 54.3502 38.9091 54.5661 39.4659C54.782 40.0227 54.89 40.7083 54.89 41.5227V42.0909H48.1627V40.9318H53.5264C53.5264 40.4394 53.4279 40 53.2309 39.6136C53.0377 39.2273 52.7612 38.9223 52.4014 38.6989C52.0453 38.4754 51.6248 38.3636 51.14 38.3636C50.6059 38.3636 50.1438 38.4962 49.7536 38.7614C49.3673 39.0227 49.0699 39.3636 48.8616 39.7841C48.6533 40.2045 48.5491 40.6553 48.5491 41.1364V41.9091C48.5491 42.5682 48.6627 43.1269 48.89 43.5852C49.1211 44.0398 49.4411 44.3864 49.8502 44.625C50.2593 44.8598 50.7347 44.9773 51.2764 44.9773C51.6286 44.9773 51.9468 44.928 52.2309 44.8295C52.5188 44.7273 52.7669 44.5758 52.9752 44.375C53.1836 44.1705 53.3445 43.9167 53.4582 43.6136L54.7536 43.9773C54.6173 44.4167 54.3881 44.803 54.0661 45.1364C53.7442 45.4659 53.3464 45.7235 52.873 45.9091C52.3995 46.0909 51.8673 46.1818 51.2764 46.1818ZM64.858 34.3636V46H63.4489V35.8409H63.3807L60.5398 37.7273V36.2955L63.4489 34.3636H64.858Z" fill="#002159"/>
<path d="M9.37017 65.1364C8.82472 65.1364 8.34318 64.9986 7.92557 64.723C7.50796 64.4446 7.18125 64.0526 6.94546 63.5469C6.70966 63.0384 6.59176 62.4375 6.59176 61.7443C6.59176 61.0568 6.70966 60.4602 6.94546 59.9545C7.18125 59.4489 7.50938 59.0582 7.92983 58.7827C8.35029 58.5071 8.83608 58.3693 9.38722 58.3693C9.81335 58.3693 10.15 58.4403 10.3972 58.5824C10.6472 58.7216 10.8375 58.8807 10.9682 59.0597C11.1017 59.2358 11.2054 59.3807 11.2793 59.4943H11.3645V56.2727H12.3702V65H11.3986V63.9943H11.2793C11.2054 64.1136 11.1003 64.2642 10.9639 64.446C10.8276 64.625 10.633 64.7855 10.3801 64.9276C10.1273 65.0668 9.79063 65.1364 9.37017 65.1364ZM9.50654 64.233C9.90994 64.233 10.2509 64.1278 10.5293 63.9176C10.8077 63.7045 11.0193 63.4105 11.1642 63.0355C11.3091 62.6577 11.3815 62.2216 11.3815 61.7273C11.3815 61.2386 11.3105 60.8111 11.1685 60.4446C11.0264 60.0753 10.8162 59.7884 10.5378 59.5838C10.2594 59.3764 9.91563 59.2727 9.50654 59.2727C9.0804 59.2727 8.72529 59.3821 8.44119 59.6009C8.15994 59.8168 7.9483 60.1108 7.80625 60.483C7.66705 60.8523 7.59744 61.267 7.59744 61.7273C7.59744 62.1932 7.66847 62.6165 7.81051 62.9972C7.9554 63.375 8.16847 63.6761 8.44972 63.9006C8.73381 64.1222 9.08608 64.233 9.50654 64.233ZM16.856 65.1364C16.2253 65.1364 15.6813 64.9972 15.2239 64.7188C14.7694 64.4375 14.4185 64.0455 14.1714 63.5426C13.927 63.0369 13.8049 62.4489 13.8049 61.7784C13.8049 61.108 13.927 60.517 14.1714 60.0057C14.4185 59.4915 14.7623 59.0909 15.2026 58.804C15.6458 58.5142 16.1628 58.3693 16.7538 58.3693C17.0947 58.3693 17.4313 58.4261 17.7637 58.5398C18.0961 58.6534 18.3986 58.8381 18.6714 59.0938C18.9441 59.3466 19.1614 59.6818 19.3234 60.0994C19.4853 60.517 19.5663 61.0312 19.5663 61.642V62.0682H14.5208V61.1989H18.5435C18.5435 60.8295 18.4697 60.5 18.3219 60.2102C18.177 59.9205 17.9697 59.6918 17.6998 59.5241C17.4327 59.3565 17.1174 59.2727 16.7538 59.2727C16.3532 59.2727 16.0066 59.3722 15.714 59.571C15.4242 59.767 15.2012 60.0227 15.0449 60.3381C14.8887 60.6534 14.8106 60.9915 14.8106 61.3523V61.9318C14.8106 62.4261 14.8958 62.8452 15.0663 63.1889C15.2395 63.5298 15.4796 63.7898 15.7864 63.9688C16.0932 64.1449 16.4498 64.233 16.856 64.233C17.1202 64.233 17.3589 64.196 17.5719 64.1222C17.7878 64.0455 17.9739 63.9318 18.1302 63.7812C18.2864 63.6278 18.4072 63.4375 18.4924 63.2102L19.464 63.483C19.3617 63.8125 19.1898 64.1023 18.9484 64.3523C18.7069 64.5994 18.4086 64.7926 18.0535 64.9318C17.6984 65.0682 17.2992 65.1364 16.856 65.1364ZM25.4924 59.9205L24.589 60.1761C24.5322 60.0256 24.4484 59.8793 24.3376 59.7372C24.2297 59.5923 24.0819 59.473 23.8944 59.3793C23.7069 59.2855 23.4669 59.2386 23.1743 59.2386C22.7737 59.2386 22.4399 59.331 22.1728 59.5156C21.9086 59.6974 21.7765 59.929 21.7765 60.2102C21.7765 60.4602 21.8674 60.6577 22.0493 60.8026C22.2311 60.9474 22.5152 61.0682 22.9015 61.1648L23.8731 61.4034C24.4584 61.5455 24.8944 61.7628 25.1814 62.0554C25.4683 62.3452 25.6118 62.7187 25.6118 63.1761C25.6118 63.5511 25.5038 63.8864 25.2879 64.1818C25.0748 64.4773 24.7765 64.7102 24.393 64.8807C24.0095 65.0511 23.5635 65.1364 23.0549 65.1364C22.3873 65.1364 21.8348 64.9915 21.3973 64.7017C20.9598 64.4119 20.6828 63.9886 20.5663 63.4318L21.5209 63.1932C21.6118 63.5455 21.7836 63.8097 22.0365 63.9858C22.2922 64.1619 22.626 64.25 23.0379 64.25C23.5066 64.25 23.8788 64.1506 24.1544 63.9517C24.4328 63.75 24.572 63.5085 24.572 63.2273C24.572 63 24.4924 62.8097 24.3334 62.6562C24.1743 62.5 23.9299 62.3835 23.6004 62.3068L22.5095 62.0511C21.9101 61.9091 21.4697 61.6889 21.1885 61.3906C20.9101 61.0895 20.7709 60.7131 20.7709 60.2614C20.7709 59.892 20.8745 59.5653 21.0819 59.2812C21.2922 58.9972 21.5777 58.7741 21.9385 58.6122C22.3021 58.4503 22.714 58.3693 23.1743 58.3693C23.822 58.3693 24.3305 58.5114 24.6998 58.7955C25.072 59.0795 25.3362 59.4545 25.4924 59.9205ZM29.5447 65.1364C28.9311 65.1364 28.4027 64.9915 27.9595 64.7017C27.5163 64.4119 27.1754 64.0128 26.9367 63.5043C26.6981 62.9957 26.5788 62.4148 26.5788 61.7614C26.5788 61.0966 26.701 60.5099 26.9453 60.0014C27.1924 59.4901 27.5362 59.0909 27.9765 58.804C28.4197 58.5142 28.9367 58.3693 29.5277 58.3693C29.9879 58.3693 30.4027 58.4545 30.772 58.625C31.1413 58.7955 31.4439 59.0341 31.6796 59.3409C31.9154 59.6477 32.0617 60.0057 32.1186 60.4148H31.1129C31.0362 60.1165 30.8657 59.8523 30.6015 59.6222C30.3402 59.3892 29.9879 59.2727 29.5447 59.2727C29.1527 59.2727 28.8089 59.375 28.5135 59.5795C28.2208 59.7812 27.9921 60.0668 27.8274 60.4361C27.6654 60.8026 27.5845 61.233 27.5845 61.7273C27.5845 62.233 27.664 62.6733 27.8231 63.0483C27.985 63.4233 28.2123 63.7145 28.5049 63.9219C28.8004 64.1293 29.147 64.233 29.5447 64.233C29.8061 64.233 30.0433 64.1875 30.2564 64.0966C30.4694 64.0057 30.6498 63.875 30.7975 63.7045C30.9453 63.5341 31.0504 63.3295 31.1129 63.0909H32.1186C32.0617 63.4773 31.9211 63.8253 31.6967 64.1349C31.4751 64.4418 31.1811 64.6861 30.8146 64.8679C30.451 65.0469 30.0277 65.1364 29.5447 65.1364ZM33.3487 65V58.4545H34.3203V59.4432H34.3885C34.5078 59.1193 34.7237 58.8565 35.0362 58.6548C35.3487 58.4531 35.701 58.3523 36.0931 58.3523C36.1669 58.3523 36.2592 58.3537 36.37 58.3565C36.4808 58.3594 36.5646 58.3636 36.6215 58.3693V59.392C36.5874 59.3835 36.5092 59.3707 36.3871 59.3537C36.2678 59.3338 36.1414 59.3239 36.0078 59.3239C35.6896 59.3239 35.4056 59.3906 35.1556 59.5241C34.9084 59.6548 34.7124 59.8366 34.5675 60.0696C34.4254 60.2997 34.3544 60.5625 34.3544 60.858V65H33.3487ZM37.5736 65V58.4545H38.5793V65H37.5736ZM38.0849 57.3636C37.8889 57.3636 37.7199 57.2969 37.5778 57.1634C37.4386 57.0298 37.369 56.8693 37.369 56.6818C37.369 56.4943 37.4386 56.3338 37.5778 56.2003C37.7199 56.0668 37.8889 56 38.0849 56C38.281 56 38.4486 56.0668 38.5878 56.2003C38.7298 56.3338 38.8009 56.4943 38.8009 56.6818C38.8009 56.8693 38.7298 57.0298 38.5878 57.1634C38.4486 57.2969 38.281 57.3636 38.0849 57.3636ZM40.1812 67.4545V58.4545H41.1528V59.4943H41.2721C41.346 59.3807 41.4483 59.2358 41.579 59.0597C41.7125 58.8807 41.9028 58.7216 42.15 58.5824C42.4 58.4403 42.7381 58.3693 43.1642 58.3693C43.7153 58.3693 44.2011 58.5071 44.6216 58.7827C45.042 59.0582 45.3702 59.4489 45.606 59.9545C45.8418 60.4602 45.9596 61.0568 45.9596 61.7443C45.9596 62.4375 45.8418 63.0384 45.606 63.5469C45.3702 64.0526 45.0435 64.4446 44.6258 64.723C44.2082 64.9986 43.7267 65.1364 43.1812 65.1364C42.7608 65.1364 42.4241 65.0668 42.1713 64.9276C41.9185 64.7855 41.7239 64.625 41.5875 64.446C41.4511 64.2642 41.346 64.1136 41.2721 63.9943H41.1869V67.4545H40.1812ZM41.1699 61.7273C41.1699 62.2216 41.2423 62.6577 41.3872 63.0355C41.5321 63.4105 41.7437 63.7045 42.0221 63.9176C42.3006 64.1278 42.6415 64.233 43.0449 64.233C43.4653 64.233 43.8162 64.1222 44.0974 63.9006C44.3815 63.6761 44.5946 63.375 44.7366 62.9972C44.8815 62.6165 44.954 62.1932 44.954 61.7273C44.954 61.267 44.8829 60.8523 44.7409 60.483C44.6017 60.1108 44.39 59.8168 44.106 59.6009C43.8247 59.3821 43.471 59.2727 43.0449 59.2727C42.6358 59.2727 42.292 59.3764 42.0136 59.5838C41.7352 59.7884 41.525 60.0753 41.3829 60.4446C41.2409 60.8111 41.1699 61.2386 41.1699 61.7273ZM50.1003 58.4545V59.3068H46.7083V58.4545H50.1003ZM47.6969 56.8864H48.7026V63.125C48.7026 63.4091 48.7438 63.6222 48.8262 63.7642C48.9114 63.9034 49.0194 63.9972 49.15 64.0455C49.2836 64.0909 49.4242 64.1136 49.5719 64.1136C49.6827 64.1136 49.7736 64.108 49.8446 64.0966C49.9157 64.0824 49.9725 64.071 50.0151 64.0625L50.2196 64.9659C50.1515 64.9915 50.0563 65.017 49.9341 65.0426C49.812 65.071 49.6571 65.0852 49.4696 65.0852C49.1856 65.0852 48.9071 65.0241 48.6344 64.902C48.3645 64.7798 48.1401 64.5938 47.9611 64.3438C47.785 64.0938 47.6969 63.7784 47.6969 63.3977V56.8864ZM51.3731 65V58.4545H52.3788V65H51.3731ZM51.8845 57.3636C51.6885 57.3636 51.5194 57.2969 51.3774 57.1634C51.2382 57.0298 51.1686 56.8693 51.1686 56.6818C51.1686 56.4943 51.2382 56.3338 51.3774 56.2003C51.5194 56.0668 51.6885 56 51.8845 56C52.0805 56 52.2481 56.0668 52.3873 56.2003C52.5294 56.3338 52.6004 56.4943 52.6004 56.6818C52.6004 56.8693 52.5294 57.0298 52.3873 57.1634C52.2481 57.2969 52.0805 57.3636 51.8845 57.3636ZM56.6399 65.1364C56.049 65.1364 55.5305 64.9957 55.0845 64.7145C54.6413 64.4332 54.2947 64.0398 54.0447 63.5341C53.7975 63.0284 53.674 62.4375 53.674 61.7614C53.674 61.0795 53.7975 60.4844 54.0447 59.9759C54.2947 59.4673 54.6413 59.0724 55.0845 58.7912C55.5305 58.5099 56.049 58.3693 56.6399 58.3693C57.2308 58.3693 57.7478 58.5099 58.191 58.7912C58.637 59.0724 58.9836 59.4673 59.2308 59.9759C59.4808 60.4844 59.6058 61.0795 59.6058 61.7614C59.6058 62.4375 59.4808 63.0284 59.2308 63.5341C58.9836 64.0398 58.637 64.4332 58.191 64.7145C57.7478 64.9957 57.2308 65.1364 56.6399 65.1364ZM56.6399 64.233C57.0887 64.233 57.458 64.1179 57.7478 63.8878C58.0376 63.6577 58.2521 63.3551 58.3913 62.9801C58.5305 62.6051 58.6001 62.1989 58.6001 61.7614C58.6001 61.3239 58.5305 60.9162 58.3913 60.5384C58.2521 60.1605 58.0376 59.8551 57.7478 59.6222C57.458 59.3892 57.0887 59.2727 56.6399 59.2727C56.191 59.2727 55.8217 59.3892 55.5319 59.6222C55.2421 59.8551 55.0276 60.1605 54.8884 60.5384C54.7492 60.9162 54.6796 61.3239 54.6796 61.7614C54.6796 62.1989 54.7492 62.6051 54.8884 62.9801C55.0276 63.3551 55.2421 63.6577 55.5319 63.8878C55.8217 64.1179 56.191 64.233 56.6399 64.233ZM61.9066 61.0625V65H60.9009V58.4545H61.8725V59.4773H61.9577C62.1112 59.1449 62.3441 58.8778 62.6566 58.6761C62.9691 58.4716 63.3725 58.3693 63.8668 58.3693C64.31 58.3693 64.6978 58.4602 65.0302 58.642C65.3626 58.821 65.6211 59.0938 65.8058 59.4602C65.9904 59.8239 66.0827 60.2841 66.0827 60.8409V65H65.0771V60.9091C65.0771 60.3949 64.9435 59.9943 64.6765 59.7074C64.4094 59.4176 64.043 59.2727 63.5771 59.2727C63.256 59.2727 62.9691 59.3423 62.7163 59.4815C62.4663 59.6207 62.2688 59.8239 62.1239 60.0909C61.979 60.358 61.9066 60.6818 61.9066 61.0625Z" fill="#307FE2"/>
<g clip-path="url(#clip2_2243_31005)">
<path d="M204 85.5L133.4 39.26H89.9898" stroke="#002159" stroke-miterlimit="10" stroke-linecap="round" stroke-dasharray="2 2"/>
<path d="M88.0508 39.26H86.0508" stroke="#002159" stroke-miterlimit="10" stroke-linecap="round"/>
<path d="M86.2595 43.02C84.1829 43.02 82.4995 41.3366 82.4995 39.26C82.4995 37.1834 84.1829 35.5 86.2595 35.5C88.3361 35.5 90.0195 37.1834 90.0195 39.26C90.0195 41.3366 88.3361 43.02 86.2595 43.02Z" fill="white"/>
<path d="M86.2595 43.52C88.6095 43.52 90.5195 41.61 90.5195 39.26C90.5195 36.91 88.6095 35 86.2595 35C83.9095 35 81.9995 36.91 81.9995 39.26C81.9995 41.61 83.9095 43.52 86.2595 43.52C83.9095 43.52 88.6095 43.52 86.2595 43.52ZM86.2595 36C88.0595 36 89.5195 37.46 89.5195 39.26C89.5195 41.06 88.0595 42.52 86.2595 42.52C84.4595 42.52 82.9995 41.06 82.9995 39.26C82.9995 37.46 84.4595 36 86.2595 36C84.4595 36 88.0595 36 86.2595 36Z" fill="#002159"/>
</g>
<path d="M54.4923 149.727V173H48.8786V154.977H48.7423L43.5377 158.159V153.295L49.2764 149.727H54.4923ZM63.7699 155.545L66.6449 161.295L69.6222 155.545H75.2244L70.3494 164.273L75.4062 173H69.8494L66.6449 167.205L63.5199 173H57.8835L62.9517 164.273L58.1335 155.545H63.7699Z" fill="#002159"/>
<path d="M8.59409 195V183.364H15.5714V184.614H10.0032V188.545H15.0486V189.795H10.0032V195H8.59409ZM20.5014 195.182C19.6605 195.182 18.9351 194.996 18.3252 194.625C17.7192 194.25 17.2514 193.727 16.9218 193.057C16.5961 192.383 16.4332 191.598 16.4332 190.705C16.4332 189.811 16.5961 189.023 16.9218 188.341C17.2514 187.655 17.7097 187.121 18.2968 186.739C18.8877 186.352 19.5771 186.159 20.365 186.159C20.8195 186.159 21.2684 186.235 21.7116 186.386C22.1548 186.538 22.5582 186.784 22.9218 187.125C23.2855 187.462 23.5752 187.909 23.7911 188.466C24.007 189.023 24.115 189.708 24.115 190.523V191.091H17.3877V189.932H22.7514C22.7514 189.439 22.6529 189 22.4559 188.614C22.2627 188.227 21.9862 187.922 21.6264 187.699C21.2703 187.475 20.8498 187.364 20.365 187.364C19.8309 187.364 19.3688 187.496 18.9786 187.761C18.5923 188.023 18.2949 188.364 18.0866 188.784C17.8783 189.205 17.7741 189.655 17.7741 190.136V190.909C17.7741 191.568 17.8877 192.127 18.115 192.585C18.3461 193.04 18.6661 193.386 19.0752 193.625C19.4843 193.86 19.9597 193.977 20.5014 193.977C20.8536 193.977 21.1718 193.928 21.4559 193.83C21.7438 193.727 21.9919 193.576 22.2002 193.375C22.4086 193.17 22.5695 192.917 22.6832 192.614L23.9786 192.977C23.8423 193.417 23.6131 193.803 23.2911 194.136C22.9692 194.466 22.5714 194.723 22.098 194.909C21.6245 195.091 21.0923 195.182 20.5014 195.182ZM28.403 195.205C27.8499 195.205 27.348 195.1 26.8973 194.892C26.4465 194.68 26.0886 194.375 25.8234 193.977C25.5583 193.576 25.4257 193.091 25.4257 192.523C25.4257 192.023 25.5242 191.617 25.7211 191.307C25.9181 190.992 26.1814 190.746 26.5109 190.568C26.8405 190.39 27.2041 190.258 27.6018 190.17C28.0033 190.08 28.4067 190.008 28.812 189.955C29.3423 189.886 29.7723 189.835 30.1018 189.801C30.4351 189.763 30.6776 189.701 30.8291 189.614C30.9844 189.527 31.062 189.375 31.062 189.159V189.114C31.062 188.553 30.9086 188.117 30.6018 187.807C30.2988 187.496 29.8386 187.341 29.2211 187.341C28.581 187.341 28.0791 187.481 27.7155 187.761C27.3518 188.042 27.0961 188.341 26.9484 188.659L25.6757 188.205C25.903 187.674 26.206 187.261 26.5848 186.966C26.9673 186.667 27.384 186.458 27.8348 186.341C28.2893 186.22 28.7363 186.159 29.1757 186.159C29.456 186.159 29.778 186.193 30.1416 186.261C30.509 186.326 30.8632 186.46 31.2041 186.665C31.5488 186.869 31.8348 187.178 32.062 187.591C32.2893 188.004 32.403 188.557 32.403 189.25V195H31.062V193.818H30.9939C30.903 194.008 30.7514 194.21 30.5393 194.426C30.3272 194.642 30.045 194.826 29.6927 194.977C29.3405 195.129 28.9105 195.205 28.403 195.205ZM28.6075 194C29.1378 194 29.5848 193.896 29.9484 193.688C30.3158 193.479 30.5923 193.21 30.778 192.881C30.9673 192.551 31.062 192.205 31.062 191.841V190.614C31.0052 190.682 30.8802 190.744 30.687 190.801C30.4976 190.854 30.278 190.902 30.028 190.943C29.7817 190.981 29.5412 191.015 29.3064 191.045C29.0753 191.072 28.8878 191.095 28.7439 191.114C28.3954 191.159 28.0696 191.233 27.7666 191.335C27.4673 191.434 27.2249 191.583 27.0393 191.784C26.8575 191.981 26.7666 192.25 26.7666 192.591C26.7666 193.057 26.9389 193.409 27.2836 193.648C27.6321 193.883 28.0734 194 28.6075 194ZM38.3259 186.273V187.409H33.8031V186.273H38.3259ZM35.1213 184.182H36.4622V192.5C36.4622 192.879 36.5171 193.163 36.627 193.352C36.7406 193.538 36.8846 193.663 37.0588 193.727C37.2368 193.788 37.4243 193.818 37.6213 193.818C37.769 193.818 37.8902 193.811 37.9849 193.795C38.0796 193.777 38.1554 193.761 38.2122 193.75L38.4849 194.955C38.394 194.989 38.2671 195.023 38.1043 195.057C37.9414 195.095 37.7349 195.114 37.4849 195.114C37.1062 195.114 36.7349 195.032 36.3713 194.869C36.0115 194.706 35.7122 194.458 35.4736 194.125C35.2387 193.792 35.1213 193.371 35.1213 192.864V184.182ZM45.5229 191.432V186.273H46.8638V195H45.5229V193.523H45.432C45.2274 193.966 44.9093 194.343 44.4774 194.653C44.0456 194.96 43.5002 195.114 42.8411 195.114C42.2956 195.114 41.8108 194.994 41.3865 194.756C40.9623 194.513 40.629 194.15 40.3865 193.665C40.1441 193.176 40.0229 192.561 40.0229 191.818V186.273H41.3638V191.727C41.3638 192.364 41.5418 192.871 41.8979 193.25C42.2577 193.629 42.7161 193.818 43.2729 193.818C43.6062 193.818 43.9452 193.733 44.2899 193.562C44.6384 193.392 44.9301 193.131 45.1649 192.778C45.4036 192.426 45.5229 191.977 45.5229 191.432ZM48.9998 195V186.273H50.2952V187.591H50.3861C50.5452 187.159 50.8331 186.809 51.2498 186.54C51.6664 186.271 52.1361 186.136 52.6589 186.136C52.7573 186.136 52.8805 186.138 53.0282 186.142C53.1759 186.146 53.2877 186.152 53.3634 186.159V187.523C53.318 187.511 53.2138 187.494 53.0509 187.472C52.8918 187.445 52.7233 187.432 52.5452 187.432C52.121 187.432 51.7422 187.521 51.4089 187.699C51.0793 187.873 50.818 188.116 50.6248 188.426C50.4354 188.733 50.3407 189.083 50.3407 189.477V195H48.9998ZM58.0264 195.182C57.1855 195.182 56.4601 194.996 55.8502 194.625C55.2442 194.25 54.7764 193.727 54.4468 193.057C54.1211 192.383 53.9582 191.598 53.9582 190.705C53.9582 189.811 54.1211 189.023 54.4468 188.341C54.7764 187.655 55.2347 187.121 55.8218 186.739C56.4127 186.352 57.1021 186.159 57.89 186.159C58.3445 186.159 58.7934 186.235 59.2366 186.386C59.6798 186.538 60.0832 186.784 60.4468 187.125C60.8105 187.462 61.1002 187.909 61.3161 188.466C61.532 189.023 61.64 189.708 61.64 190.523V191.091H54.9127V189.932H60.2764C60.2764 189.439 60.1779 189 59.9809 188.614C59.7877 188.227 59.5112 187.922 59.1514 187.699C58.7953 187.475 58.3748 187.364 57.89 187.364C57.3559 187.364 56.8938 187.496 56.5036 187.761C56.1173 188.023 55.8199 188.364 55.6116 188.784C55.4033 189.205 55.2991 189.655 55.2991 190.136V190.909C55.2991 191.568 55.4127 192.127 55.64 192.585C55.8711 193.04 56.1911 193.386 56.6002 193.625C57.0093 193.86 57.4847 193.977 58.0264 193.977C58.3786 193.977 58.6968 193.928 58.9809 193.83C59.2688 193.727 59.5169 193.576 59.7252 193.375C59.9336 193.17 60.0945 192.917 60.2082 192.614L61.5036 192.977C61.3673 193.417 61.1381 193.803 60.8161 194.136C60.4942 194.466 60.0964 194.723 59.623 194.909C59.1495 195.091 58.6173 195.182 58.0264 195.182ZM67.517 195V193.977L71.358 189.773C71.8087 189.28 72.1799 188.852 72.4716 188.489C72.7633 188.121 72.9792 187.777 73.1193 187.455C73.2633 187.129 73.3352 186.788 73.3352 186.432C73.3352 186.023 73.2367 185.669 73.0398 185.369C72.8466 185.07 72.5814 184.839 72.2443 184.676C71.9072 184.513 71.5284 184.432 71.108 184.432C70.661 184.432 70.2708 184.525 69.9375 184.71C69.608 184.892 69.3523 185.148 69.1705 185.477C68.9924 185.807 68.9034 186.193 68.9034 186.636H67.5625C67.5625 185.955 67.7197 185.356 68.0341 184.841C68.3485 184.326 68.7765 183.924 69.3182 183.636C69.8636 183.348 70.4754 183.205 71.1534 183.205C71.8352 183.205 72.4394 183.348 72.9659 183.636C73.4924 183.924 73.9053 184.312 74.2045 184.801C74.5038 185.29 74.6534 185.833 74.6534 186.432C74.6534 186.86 74.5758 187.278 74.4205 187.688C74.2689 188.093 74.0038 188.545 73.625 189.045C73.25 189.542 72.7292 190.148 72.0625 190.864L69.4489 193.659V193.75H74.858V195H67.517Z" fill="#002159"/>
<path d="M18.3702 214.136C17.8247 214.136 17.3432 213.999 16.9256 213.723C16.508 213.445 16.1813 213.053 15.9455 212.547C15.7097 212.038 15.5918 211.438 15.5918 210.744C15.5918 210.057 15.7097 209.46 15.9455 208.955C16.1813 208.449 16.5094 208.058 16.9298 207.783C17.3503 207.507 17.8361 207.369 18.3872 207.369C18.8134 207.369 19.15 207.44 19.3972 207.582C19.6472 207.722 19.8375 207.881 19.9682 208.06C20.1017 208.236 20.2054 208.381 20.2793 208.494H20.3645V205.273H21.3702V214H20.3986V212.994H20.2793C20.2054 213.114 20.1003 213.264 19.9639 213.446C19.8276 213.625 19.633 213.786 19.3801 213.928C19.1273 214.067 18.7906 214.136 18.3702 214.136ZM18.5065 213.233C18.9099 213.233 19.2509 213.128 19.5293 212.918C19.8077 212.705 20.0193 212.411 20.1642 212.036C20.3091 211.658 20.3815 211.222 20.3815 210.727C20.3815 210.239 20.3105 209.811 20.1685 209.445C20.0264 209.075 19.8162 208.788 19.5378 208.584C19.2594 208.376 18.9156 208.273 18.5065 208.273C18.0804 208.273 17.7253 208.382 17.4412 208.601C17.1599 208.817 16.9483 209.111 16.8063 209.483C16.667 209.852 16.5974 210.267 16.5974 210.727C16.5974 211.193 16.6685 211.616 16.8105 211.997C16.9554 212.375 17.1685 212.676 17.4497 212.901C17.7338 213.122 18.0861 213.233 18.5065 213.233ZM25.856 214.136C25.2253 214.136 24.6813 213.997 24.2239 213.719C23.7694 213.438 23.4185 213.045 23.1714 212.543C22.927 212.037 22.8049 211.449 22.8049 210.778C22.8049 210.108 22.927 209.517 23.1714 209.006C23.4185 208.491 23.7623 208.091 24.2026 207.804C24.6458 207.514 25.1628 207.369 25.7538 207.369C26.0947 207.369 26.4313 207.426 26.7637 207.54C27.0961 207.653 27.3986 207.838 27.6714 208.094C27.9441 208.347 28.1614 208.682 28.3234 209.099C28.4853 209.517 28.5663 210.031 28.5663 210.642V211.068H23.5208V210.199H27.5435C27.5435 209.83 27.4697 209.5 27.3219 209.21C27.177 208.92 26.9697 208.692 26.6998 208.524C26.4327 208.357 26.1174 208.273 25.7538 208.273C25.3532 208.273 25.0066 208.372 24.714 208.571C24.4242 208.767 24.2012 209.023 24.0449 209.338C23.8887 209.653 23.8106 209.991 23.8106 210.352V210.932C23.8106 211.426 23.8958 211.845 24.0663 212.189C24.2395 212.53 24.4796 212.79 24.7864 212.969C25.0932 213.145 25.4498 213.233 25.856 213.233C26.1202 213.233 26.3589 213.196 26.5719 213.122C26.7878 213.045 26.9739 212.932 27.1302 212.781C27.2864 212.628 27.4072 212.437 27.4924 212.21L28.464 212.483C28.3617 212.812 28.1898 213.102 27.9484 213.352C27.7069 213.599 27.4086 213.793 27.0535 213.932C26.6984 214.068 26.2992 214.136 25.856 214.136ZM34.4924 208.92L33.589 209.176C33.5322 209.026 33.4484 208.879 33.3376 208.737C33.2297 208.592 33.0819 208.473 32.8944 208.379C32.7069 208.286 32.4669 208.239 32.1743 208.239C31.7737 208.239 31.4399 208.331 31.1728 208.516C30.9086 208.697 30.7765 208.929 30.7765 209.21C30.7765 209.46 30.8674 209.658 31.0493 209.803C31.2311 209.947 31.5152 210.068 31.9015 210.165L32.8731 210.403C33.4584 210.545 33.8944 210.763 34.1814 211.055C34.4683 211.345 34.6118 211.719 34.6118 212.176C34.6118 212.551 34.5038 212.886 34.2879 213.182C34.0748 213.477 33.7765 213.71 33.393 213.881C33.0095 214.051 32.5635 214.136 32.0549 214.136C31.3873 214.136 30.8348 213.991 30.3973 213.702C29.9598 213.412 29.6828 212.989 29.5663 212.432L30.5209 212.193C30.6118 212.545 30.7836 212.81 31.0365 212.986C31.2922 213.162 31.626 213.25 32.0379 213.25C32.5066 213.25 32.8788 213.151 33.1544 212.952C33.4328 212.75 33.572 212.509 33.572 212.227C33.572 212 33.4924 211.81 33.3334 211.656C33.1743 211.5 32.9299 211.384 32.6004 211.307L31.5095 211.051C30.9101 210.909 30.4697 210.689 30.1885 210.391C29.9101 210.089 29.7709 209.713 29.7709 209.261C29.7709 208.892 29.8745 208.565 30.0819 208.281C30.2922 207.997 30.5777 207.774 30.9385 207.612C31.3021 207.45 31.714 207.369 32.1743 207.369C32.822 207.369 33.3305 207.511 33.6998 207.795C34.072 208.08 34.3362 208.455 34.4924 208.92ZM38.5447 214.136C37.9311 214.136 37.4027 213.991 36.9595 213.702C36.5163 213.412 36.1754 213.013 35.9367 212.504C35.6981 211.996 35.5788 211.415 35.5788 210.761C35.5788 210.097 35.701 209.51 35.9453 209.001C36.1924 208.49 36.5362 208.091 36.9765 207.804C37.4197 207.514 37.9367 207.369 38.5277 207.369C38.9879 207.369 39.4027 207.455 39.772 207.625C40.1413 207.795 40.4439 208.034 40.6796 208.341C40.9154 208.648 41.0617 209.006 41.1186 209.415H40.1129C40.0362 209.116 39.8657 208.852 39.6015 208.622C39.3402 208.389 38.9879 208.273 38.5447 208.273C38.1527 208.273 37.8089 208.375 37.5135 208.58C37.2208 208.781 36.9921 209.067 36.8274 209.436C36.6654 209.803 36.5845 210.233 36.5845 210.727C36.5845 211.233 36.664 211.673 36.8231 212.048C36.985 212.423 37.2123 212.714 37.5049 212.922C37.8004 213.129 38.147 213.233 38.5447 213.233C38.8061 213.233 39.0433 213.188 39.2564 213.097C39.4694 213.006 39.6498 212.875 39.7975 212.705C39.9453 212.534 40.0504 212.33 40.1129 212.091H41.1186C41.0617 212.477 40.9211 212.825 40.6967 213.135C40.4751 213.442 40.1811 213.686 39.8146 213.868C39.451 214.047 39.0277 214.136 38.5447 214.136ZM42.3487 214V207.455H43.3203V208.443H43.3885C43.5078 208.119 43.7237 207.857 44.0362 207.655C44.3487 207.453 44.701 207.352 45.0931 207.352C45.1669 207.352 45.2592 207.354 45.37 207.357C45.4808 207.359 45.5646 207.364 45.6215 207.369V208.392C45.5874 208.384 45.5092 208.371 45.3871 208.354C45.2678 208.334 45.1414 208.324 45.0078 208.324C44.6896 208.324 44.4056 208.391 44.1556 208.524C43.9084 208.655 43.7124 208.837 43.5675 209.07C43.4254 209.3 43.3544 209.562 43.3544 209.858V214H42.3487ZM46.5736 214V207.455H47.5793V214H46.5736ZM47.0849 206.364C46.8889 206.364 46.7199 206.297 46.5778 206.163C46.4386 206.03 46.369 205.869 46.369 205.682C46.369 205.494 46.4386 205.334 46.5778 205.2C46.7199 205.067 46.8889 205 47.0849 205C47.281 205 47.4486 205.067 47.5878 205.2C47.7298 205.334 47.8009 205.494 47.8009 205.682C47.8009 205.869 47.7298 206.03 47.5878 206.163C47.4486 206.297 47.281 206.364 47.0849 206.364ZM49.1812 216.455V207.455H50.1528V208.494H50.2721C50.346 208.381 50.4483 208.236 50.579 208.06C50.7125 207.881 50.9028 207.722 51.15 207.582C51.4 207.44 51.7381 207.369 52.1642 207.369C52.7153 207.369 53.2011 207.507 53.6216 207.783C54.042 208.058 54.3702 208.449 54.606 208.955C54.8418 209.46 54.9596 210.057 54.9596 210.744C54.9596 211.438 54.8418 212.038 54.606 212.547C54.3702 213.053 54.0435 213.445 53.6258 213.723C53.2082 213.999 52.7267 214.136 52.1812 214.136C51.7608 214.136 51.4241 214.067 51.1713 213.928C50.9185 213.786 50.7239 213.625 50.5875 213.446C50.4511 213.264 50.346 213.114 50.2721 212.994H50.1869V216.455H49.1812ZM50.1699 210.727C50.1699 211.222 50.2423 211.658 50.3872 212.036C50.5321 212.411 50.7437 212.705 51.0221 212.918C51.3006 213.128 51.6415 213.233 52.0449 213.233C52.4653 213.233 52.8162 213.122 53.0974 212.901C53.3815 212.676 53.5946 212.375 53.7366 211.997C53.8815 211.616 53.954 211.193 53.954 210.727C53.954 210.267 53.8829 209.852 53.7409 209.483C53.6017 209.111 53.39 208.817 53.106 208.601C52.8247 208.382 52.471 208.273 52.0449 208.273C51.6358 208.273 51.292 208.376 51.0136 208.584C50.7352 208.788 50.525 209.075 50.3829 209.445C50.2409 209.811 50.1699 210.239 50.1699 210.727ZM59.1003 207.455V208.307H55.7083V207.455H59.1003ZM56.6969 205.886H57.7026V212.125C57.7026 212.409 57.7438 212.622 57.8262 212.764C57.9114 212.903 58.0194 212.997 58.15 213.045C58.2836 213.091 58.4242 213.114 58.5719 213.114C58.6827 213.114 58.7736 213.108 58.8446 213.097C58.9157 213.082 58.9725 213.071 59.0151 213.062L59.2196 213.966C59.1515 213.991 59.0563 214.017 58.9341 214.043C58.812 214.071 58.6571 214.085 58.4696 214.085C58.1856 214.085 57.9071 214.024 57.6344 213.902C57.3645 213.78 57.1401 213.594 56.9611 213.344C56.785 213.094 56.6969 212.778 56.6969 212.398V205.886ZM60.3731 214V207.455H61.3788V214H60.3731ZM60.8845 206.364C60.6885 206.364 60.5194 206.297 60.3774 206.163C60.2382 206.03 60.1686 205.869 60.1686 205.682C60.1686 205.494 60.2382 205.334 60.3774 205.2C60.5194 205.067 60.6885 205 60.8845 205C61.0805 205 61.2481 205.067 61.3873 205.2C61.5294 205.334 61.6004 205.494 61.6004 205.682C61.6004 205.869 61.5294 206.03 61.3873 206.163C61.2481 206.297 61.0805 206.364 60.8845 206.364ZM65.6399 214.136C65.049 214.136 64.5305 213.996 64.0845 213.714C63.6413 213.433 63.2947 213.04 63.0447 212.534C62.7975 212.028 62.674 211.437 62.674 210.761C62.674 210.08 62.7975 209.484 63.0447 208.976C63.2947 208.467 63.6413 208.072 64.0845 207.791C64.5305 207.51 65.049 207.369 65.6399 207.369C66.2308 207.369 66.7478 207.51 67.191 207.791C67.637 208.072 67.9836 208.467 68.2308 208.976C68.4808 209.484 68.6058 210.08 68.6058 210.761C68.6058 211.437 68.4808 212.028 68.2308 212.534C67.9836 213.04 67.637 213.433 67.191 213.714C66.7478 213.996 66.2308 214.136 65.6399 214.136ZM65.6399 213.233C66.0887 213.233 66.458 213.118 66.7478 212.888C67.0376 212.658 67.2521 212.355 67.3913 211.98C67.5305 211.605 67.6001 211.199 67.6001 210.761C67.6001 210.324 67.5305 209.916 67.3913 209.538C67.2521 209.161 67.0376 208.855 66.7478 208.622C66.458 208.389 66.0887 208.273 65.6399 208.273C65.191 208.273 64.8217 208.389 64.5319 208.622C64.2421 208.855 64.0276 209.161 63.8884 209.538C63.7492 209.916 63.6796 210.324 63.6796 210.761C63.6796 211.199 63.7492 211.605 63.8884 211.98C64.0276 212.355 64.2421 212.658 64.5319 212.888C64.8217 213.118 65.191 213.233 65.6399 213.233ZM70.9066 210.062V214H69.9009V207.455H70.8725V208.477H70.9577C71.1112 208.145 71.3441 207.878 71.6566 207.676C71.9691 207.472 72.3725 207.369 72.8668 207.369C73.31 207.369 73.6978 207.46 74.0302 207.642C74.3626 207.821 74.6211 208.094 74.8058 208.46C74.9904 208.824 75.0827 209.284 75.0827 209.841V214H74.0771V209.909C74.0771 209.395 73.9435 208.994 73.6765 208.707C73.4094 208.418 73.043 208.273 72.5771 208.273C72.256 208.273 71.9691 208.342 71.7163 208.482C71.4663 208.621 71.2688 208.824 71.1239 209.091C70.979 209.358 70.9066 209.682 70.9066 210.062Z" fill="#307FE2"/>
<g clip-path="url(#clip3_2243_31005)">
<path d="M95.5 191L196 191" stroke="#002159" stroke-miterlimit="10" stroke-linecap="round" stroke-dasharray="2 2"/>
</g>
<path d="M97.7972 195.262C95.6831 195.262 93.9694 193.528 93.9694 191.389C93.9694 189.249 95.6831 187.515 97.7972 187.515C99.9112 187.515 101.625 189.249 101.625 191.389C101.625 193.528 99.9112 195.262 97.7972 195.262Z" fill="white"/>
<path d="M97.796 187C100.188 187 102.133 188.968 102.133 191.389C102.133 193.81 100.188 195.777 97.796 195.777C95.4036 195.777 93.4591 193.81 93.4591 191.389C93.4591 188.968 95.4036 187 97.796 187C95.4036 187 100.188 187 97.796 187ZM97.796 194.747C99.6284 194.747 101.115 193.243 101.115 191.389C101.115 189.534 99.6284 188.03 97.796 188.03C95.9635 188.03 94.4772 189.534 94.4772 191.389C94.4772 193.243 95.9635 194.747 97.796 194.747C95.9635 194.747 99.6284 194.747 97.796 194.747Z" fill="#002159"/>
</g>
<defs>
<filter id="filter0_f_2243_31005" x="171.359" y="50.439" width="374.844" height="222.324" filterUnits="userSpaceOnUse" color-interpolation-filters="sRGB">
<feFlood flood-opacity="0" result="BackgroundImageFix"/>
<feBlend mode="normal" in="SourceGraphic" in2="BackgroundImageFix" result="shape"/>
<feGaussianBlur stdDeviation="10" result="effect1_foregroundBlur_2243_31005"/>
</filter>
<clipPath id="clip0_2243_31005">
<rect width="548" height="277" fill="white"/>
</clipPath>
<clipPath id="clip1_2243_31005">
<rect width="378" height="273" fill="white" transform="matrix(-1 0 0 1 548 4)"/>
</clipPath>
<clipPath id="clip2_2243_31005">
<rect width="135" height="52" fill="white" transform="matrix(-1 0 0 1 217 35)"/>
</clipPath>
<clipPath id="clip3_2243_31005">
<rect width="102" height="2" fill="white" transform="matrix(-1 0 0 1 197 190)"/>
</clipPath>
</defs>
</svg>
