<svg width="576" height="314" viewBox="0 0 576 314" fill="none" xmlns="http://www.w3.org/2000/svg">
<g clip-path="url(#clip0_2243_31005)">
<g filter="url(#filter0_f_2243_31005)">
<path d="M219.358 193.269L450.162 88.439L554.203 164.636L342.98 270.763L219.358 193.269Z" fill="#BABCBE"/>
</g>
<path d="M425.773 75.645L216.573 182.746V129.533L425.773 22.4325V75.645Z" fill="#1752A0"/>
<path d="M425.775 22.4325L550.434 142.832V156.139L425.775 75.645V22.4325Z" fill="#03449E"/>
<path d="M550.434 156.139L341.233 263.231V249.923L550.434 142.832V156.139Z" fill="#01337D"/>
<path d="M216.576 129.533L341.234 249.924V263.231L216.576 182.746V129.533Z" fill="#03449E"/>
<path d="M341.233 249.923L216.574 129.533L425.775 22.4325L550.434 142.832L341.233 249.923Z" fill="#2A7DE1"/>
<path d="M355.59 235.94L242.779 126.992" stroke="#1A428A" stroke-width="1.75" stroke-miterlimit="10" stroke-linecap="round"/>
<path d="M373.973 226.408L261.162 117.46" stroke="#1A428A" stroke-width="1.75" stroke-miterlimit="10" stroke-linecap="round"/>
<path d="M508.945 158.14L396.145 49.1919" stroke="#1A428A" stroke-width="1.75" stroke-miterlimit="10" stroke-linecap="round"/>
<path d="M527.336 148.616L414.525 39.6594" stroke="#1A428A" stroke-width="1.75" stroke-miterlimit="10" stroke-linecap="round"/>
<path d="M279.899 110.513L317.709 146.31L343.041 133.344L321.59 114.424L370.09 89.304L390.565 106.279L415.074 94.0252L377.935 60.3281L279.899 110.513Z" stroke="#1A428A" stroke-width="1.9" stroke-miterlimit="10" stroke-linecap="round"/>
<path d="M343.71 117.541L373.97 144.066C374.702 144.715 375.799 144.895 376.744 144.526L396.681 134.687C398.296 134.056 398.693 132.182 397.443 131.083L366.969 104.972C366.237 104.323 365.14 104.143 364.195 104.513L344.472 113.928C342.856 114.559 342.46 116.433 343.71 117.532V117.541Z" stroke="#1A428A" stroke-width="1.9" stroke-miterlimit="10" stroke-linecap="round"/>
<path d="M417.654 130.623L415.632 160.527L370.425 156.734L349.401 140.651L324.892 153.202L350.549 175.195L444.317 184.683L450.16 126.218L421.739 101.287L396.498 113.568L417.654 130.623Z" stroke="#1A428A" stroke-width="1.9" stroke-miterlimit="10" stroke-linecap="round"/>
</g>
<path d="M65.1457 42.3182C63.373 42.3182 61.801 42.0152 60.4298 41.4091C59.0661 40.7955 57.9904 39.9508 57.2025 38.875C56.4146 37.7992 56.0131 36.5606 55.998 35.1591H61.657C61.6798 35.6667 61.8427 36.1174 62.1457 36.5114C62.4487 36.8977 62.8616 37.2008 63.3843 37.4205C63.907 37.6402 64.5017 37.75 65.1684 37.75C65.8351 37.75 66.4222 37.6326 66.9298 37.3977C67.4449 37.1553 67.8464 36.8258 68.1343 36.4091C68.4222 35.9848 68.5623 35.5 68.5548 34.9545C68.5623 34.4091 68.407 33.9242 68.0889 33.5C67.7707 33.0758 67.3199 32.7462 66.7366 32.5114C66.1608 32.2765 65.479 32.1591 64.6911 32.1591H62.4298V28.1591H64.6911C65.3805 28.1591 65.9866 28.0455 66.5093 27.8182C67.0396 27.5909 67.4525 27.2727 67.748 26.8636C68.0434 26.447 68.1873 25.9697 68.1798 25.4318C68.1873 24.9091 68.0623 24.4508 67.8048 24.0568C67.5548 23.6553 67.2025 23.3447 66.748 23.125C66.301 22.9053 65.782 22.7955 65.1911 22.7955C64.5699 22.7955 64.0055 22.9053 63.498 23.125C62.998 23.3447 62.6002 23.6553 62.3048 24.0568C62.0093 24.4583 61.854 24.9242 61.8389 25.4545H56.4639C56.479 24.0682 56.8654 22.8485 57.623 21.7955C58.3805 20.7348 59.4108 19.9053 60.7139 19.3068C62.0245 18.7083 63.5169 18.4091 65.1911 18.4091C66.8578 18.4091 68.3237 18.7008 69.5889 19.2841C70.854 19.8674 71.8389 20.6629 72.5434 21.6705C73.248 22.6705 73.6002 23.803 73.6002 25.0682C73.6078 26.3788 73.1798 27.4583 72.3161 28.3068C71.4601 29.1553 70.3578 29.678 69.0093 29.875V30.0568C70.8123 30.2689 72.1722 30.8523 73.0889 31.8068C74.0131 32.7614 74.4714 33.9545 74.4639 35.3864C74.4639 36.7348 74.0661 37.9318 73.2707 38.9773C72.4828 40.0152 71.3843 40.8333 69.9752 41.4318C68.5737 42.0227 66.9639 42.3182 65.1457 42.3182ZM81.7699 24.5455L84.6449 30.2955L87.6222 24.5455H93.2244L88.3494 33.2727L93.4062 42H87.8494L84.6449 36.2045L81.5199 42H75.8835L80.9517 33.2727L76.1335 24.5455H81.7699Z" fill="#002159"/>
<path d="M59.0403 64V52.3636H66.0176V53.6136H60.4494V57.5455H65.4949V58.7955H60.4494V64H59.0403ZM67.9291 64V55.2727H69.2701V64H67.9291ZM68.611 53.8182C68.3496 53.8182 68.1242 53.7292 67.9348 53.5511C67.7492 53.3731 67.6564 53.1591 67.6564 52.9091C67.6564 52.6591 67.7492 52.4451 67.9348 52.267C68.1242 52.089 68.3496 52 68.611 52C68.8723 52 69.0958 52.089 69.2814 52.267C69.4708 52.4451 69.5655 52.6591 69.5655 52.9091C69.5655 53.1591 69.4708 53.3731 69.2814 53.5511C69.0958 53.7292 68.8723 53.8182 68.611 53.8182ZM72.7469 52.3636V64H71.406V52.3636H72.7469ZM78.6784 55.2727V56.4091H74.1556V55.2727H78.6784ZM75.4738 53.1818H76.8147V61.5C76.8147 61.8788 76.8696 62.1629 76.9795 62.3523C77.0931 62.5379 77.2371 62.6629 77.4113 62.7273C77.5893 62.7879 77.7768 62.8182 77.9738 62.8182C78.1215 62.8182 78.2427 62.8106 78.3374 62.7955C78.4321 62.7765 78.5079 62.7614 78.5647 62.75L78.8374 63.9545C78.7465 63.9886 78.6196 64.0227 78.4568 64.0568C78.2939 64.0947 78.0874 64.1136 77.8374 64.1136C77.4587 64.1136 77.0874 64.0322 76.7238 63.8693C76.364 63.7064 76.0647 63.4583 75.8261 63.125C75.5912 62.7917 75.4738 62.3712 75.4738 61.8636V53.1818ZM83.9407 64.1818C83.0998 64.1818 82.3744 63.9962 81.7646 63.625C81.1585 63.25 80.6907 62.7273 80.3612 62.0568C80.0354 61.3826 79.8726 60.5985 79.8726 59.7045C79.8726 58.8106 80.0354 58.0227 80.3612 57.3409C80.6907 56.6553 81.1491 56.1212 81.7362 55.7386C82.3271 55.3523 83.0165 55.1591 83.8044 55.1591C84.2589 55.1591 84.7078 55.2348 85.151 55.3864C85.5941 55.5379 85.9976 55.7841 86.3612 56.125C86.7248 56.4621 87.0146 56.9091 87.2305 57.4659C87.4464 58.0227 87.5544 58.7083 87.5544 59.5227V60.0909H80.8271V58.9318H86.1907C86.1907 58.4394 86.0923 58 85.8953 57.6136C85.7021 57.2273 85.4256 56.9223 85.0657 56.6989C84.7097 56.4754 84.2892 56.3636 83.8044 56.3636C83.2703 56.3636 82.8082 56.4962 82.418 56.7614C82.0316 57.0227 81.7343 57.3636 81.526 57.7841C81.3176 58.2045 81.2135 58.6553 81.2135 59.1364V59.9091C81.2135 60.5682 81.3271 61.1269 81.5544 61.5852C81.7854 62.0398 82.1055 62.3864 82.5146 62.625C82.9237 62.8598 83.3991 62.9773 83.9407 62.9773C84.293 62.9773 84.6112 62.928 84.8953 62.8295C85.1832 62.7273 85.4313 62.5758 85.6396 62.375C85.8479 62.1705 86.0089 61.9167 86.1226 61.6136L87.418 61.9773C87.2816 62.4167 87.0525 62.803 86.7305 63.1364C86.4085 63.4659 86.0108 63.7235 85.5373 63.9091C85.0638 64.0909 84.5316 64.1818 83.9407 64.1818ZM89.2741 64V55.2727H90.5696V56.5909H90.6605C90.8196 56.1591 91.1075 55.8087 91.5241 55.5398C91.9408 55.2708 92.4105 55.1364 92.9332 55.1364C93.0317 55.1364 93.1548 55.1383 93.3026 55.142C93.4503 55.1458 93.562 55.1515 93.6378 55.1591V56.5227C93.5923 56.5114 93.4882 56.4943 93.3253 56.4716C93.1662 56.4451 92.9976 56.4318 92.8196 56.4318C92.3954 56.4318 92.0166 56.5208 91.6832 56.6989C91.3537 56.8731 91.0923 57.1155 90.8991 57.4261C90.7098 57.733 90.6151 58.0833 90.6151 58.4773V64H89.2741ZM52.1422 83V71.3636H53.5513V81.75H58.9604V83H52.1422ZM64.1859 83.1818C63.398 83.1818 62.7067 82.9943 62.112 82.6193C61.5211 82.2443 61.059 81.7197 60.7256 81.0455C60.3961 80.3712 60.2313 79.5833 60.2313 78.6818C60.2313 77.7727 60.3961 76.9792 60.7256 76.3011C61.059 75.6231 61.5211 75.0966 62.112 74.7216C62.7067 74.3466 63.398 74.1591 64.1859 74.1591C64.9737 74.1591 65.6631 74.3466 66.254 74.7216C66.8487 75.0966 67.3109 75.6231 67.6404 76.3011C67.9737 76.9792 68.1404 77.7727 68.1404 78.6818C68.1404 79.5833 67.9737 80.3712 67.6404 81.0455C67.3109 81.7197 66.8487 82.2443 66.254 82.6193C65.6631 82.9943 64.9737 83.1818 64.1859 83.1818ZM64.1859 81.9773C64.7843 81.9773 65.2768 81.8239 65.6631 81.517C66.0495 81.2102 66.3355 80.8068 66.5211 80.3068C66.7067 79.8068 66.7995 79.2652 66.7995 78.6818C66.7995 78.0985 66.7067 77.5549 66.5211 77.0511C66.3355 76.5473 66.0495 76.1402 65.6631 75.8295C65.2768 75.5189 64.7843 75.3636 64.1859 75.3636C63.5874 75.3636 63.0949 75.5189 62.7086 75.8295C62.3222 76.1402 62.0362 76.5473 61.8506 77.0511C61.665 77.5549 61.5722 78.0985 61.5722 78.6818C61.5722 79.2652 61.665 79.8068 61.8506 80.3068C62.0362 80.8068 62.3222 81.2102 62.7086 81.517C63.0949 81.8239 63.5874 81.9773 64.1859 81.9773ZM73.4127 83.1818C72.5945 83.1818 71.89 82.9886 71.2991 82.6023C70.7082 82.2159 70.2536 81.6837 69.9355 81.0057C69.6173 80.3277 69.4582 79.553 69.4582 78.6818C69.4582 77.7955 69.6211 77.0133 69.9468 76.3352C70.2764 75.6534 70.7347 75.1212 71.3218 74.7386C71.9127 74.3523 72.6021 74.1591 73.39 74.1591C74.0036 74.1591 74.5567 74.2727 75.0491 74.5C75.5415 74.7273 75.9449 75.0455 76.2593 75.4545C76.5737 75.8636 76.7688 76.3409 76.8445 76.8864H75.5036C75.4014 76.4886 75.1741 76.1364 74.8218 75.8295C74.4733 75.5189 74.0036 75.3636 73.4127 75.3636C72.89 75.3636 72.4317 75.5 72.0377 75.7727C71.6476 76.0417 71.3427 76.4223 71.123 76.9148C70.907 77.4034 70.7991 77.9773 70.7991 78.6364C70.7991 79.3106 70.9052 79.8977 71.1173 80.3977C71.3332 80.8977 71.6362 81.286 72.0264 81.5625C72.4203 81.839 72.8824 81.9773 73.4127 81.9773C73.7612 81.9773 74.0775 81.9167 74.3616 81.7955C74.6457 81.6742 74.8862 81.5 75.0832 81.2727C75.2802 81.0455 75.4203 80.7727 75.5036 80.4545H76.8445C76.7688 80.9697 76.5813 81.4337 76.282 81.8466C75.9866 82.2557 75.5945 82.5814 75.1059 82.8239C74.6211 83.0625 74.0567 83.1818 73.4127 83.1818ZM79.7348 79.8182L79.712 78.1591H79.9848L83.803 74.2727H85.462L81.3939 78.3864H81.2802L79.7348 79.8182ZM78.4848 83V71.3636H79.8257V83H78.4848ZM84.0302 83L80.6211 78.6818L81.5757 77.75L85.7348 83H84.0302ZM93.0497 76.2273L91.8452 76.5682C91.7694 76.3674 91.6577 76.1723 91.5099 75.983C91.366 75.7898 91.169 75.6307 90.919 75.5057C90.669 75.3807 90.349 75.3182 89.9588 75.3182C89.4247 75.3182 88.9796 75.4413 88.6236 75.6875C88.2713 75.9299 88.0952 76.2386 88.0952 76.6136C88.0952 76.947 88.2164 77.2102 88.4588 77.4034C88.7012 77.5966 89.08 77.7576 89.5952 77.8864L90.8906 78.2045C91.6709 78.3939 92.2524 78.6837 92.6349 79.0739C93.0175 79.4602 93.2088 79.9583 93.2088 80.5682C93.2088 81.0682 93.0649 81.5152 92.777 81.9091C92.4929 82.303 92.0952 82.6136 91.5838 82.8409C91.0724 83.0682 90.4777 83.1818 89.7997 83.1818C88.9096 83.1818 88.1728 82.9886 87.5895 82.6023C87.0062 82.2159 86.6368 81.6515 86.4815 80.9091L87.7543 80.5909C87.8755 81.0606 88.1046 81.4129 88.4418 81.6477C88.7827 81.8826 89.2277 82 89.777 82C90.402 82 90.8982 81.8674 91.2656 81.6023C91.6368 81.3333 91.8224 81.0114 91.8224 80.6364C91.8224 80.3333 91.7164 80.0795 91.5043 79.875C91.2921 79.6667 90.9664 79.5114 90.527 79.4091L89.0724 79.0682C88.2732 78.8788 87.6861 78.5852 87.3111 78.1875C86.9399 77.786 86.7543 77.2841 86.7543 76.6818C86.7543 76.1894 86.8925 75.7538 87.169 75.375C87.4493 74.9962 87.83 74.6989 88.3111 74.483C88.7959 74.267 89.3452 74.1591 89.9588 74.1591C90.8224 74.1591 91.5005 74.3485 91.9929 74.7273C92.4891 75.1061 92.8414 75.6061 93.0497 76.2273Z" fill="#002159"/>
<path d="M40.2272 100.894V91.8935H41.1988V92.9333H41.3181C41.3919 92.8196 41.4942 92.6748 41.6249 92.4986C41.7584 92.3196 41.9488 92.1606 42.1959 92.0214C42.4459 91.8793 42.784 91.8083 43.2101 91.8083C43.7613 91.8083 44.2471 91.9461 44.6675 92.2216C45.088 92.4972 45.4161 92.8878 45.6519 93.3935C45.8877 93.8992 46.0056 94.4958 46.0056 95.1833C46.0056 95.8765 45.8877 96.4773 45.6519 96.9858C45.4161 97.4915 45.0894 97.8836 44.6718 98.162C44.2542 98.4375 43.7726 98.5753 43.2272 98.5753C42.8067 98.5753 42.4701 98.5057 42.2172 98.3665C41.9644 98.2245 41.7698 98.064 41.6334 97.885C41.4971 97.7032 41.3919 97.5526 41.3181 97.4333H41.2329V100.894H40.2272ZM41.2158 95.1662C41.2158 95.6606 41.2883 96.0966 41.4331 96.4745C41.578 96.8495 41.7897 97.1435 42.0681 97.3566C42.3465 97.5668 42.6874 97.6719 43.0908 97.6719C43.5113 97.6719 43.8621 97.5611 44.1434 97.3395C44.4275 97.1151 44.6405 96.814 44.7826 96.4361C44.9275 96.0554 44.9999 95.6321 44.9999 95.1662C44.9999 94.706 44.9289 94.2912 44.7868 93.9219C44.6476 93.5498 44.436 93.2557 44.1519 93.0398C43.8706 92.8211 43.5169 92.7117 43.0908 92.7117C42.6817 92.7117 42.338 92.8154 42.0596 93.0228C41.7811 93.2273 41.5709 93.5142 41.4289 93.8836C41.2868 94.25 41.2158 94.6776 41.2158 95.1662ZM51.4247 95.7628V91.8935H52.4304V98.439H51.4247V97.331H51.3565C51.2031 97.6634 50.9644 97.9461 50.6406 98.179C50.3167 98.4091 49.9076 98.5242 49.4133 98.5242C49.0042 98.5242 48.6406 98.4347 48.3224 98.2557C48.0042 98.0739 47.7542 97.8012 47.5724 97.4375C47.3906 97.0711 47.2997 96.6094 47.2997 96.0526V91.8935H48.3054V95.9844C48.3054 96.4617 48.4389 96.8424 48.7059 97.1265C48.9758 97.4106 49.3196 97.5526 49.7372 97.5526C49.9872 97.5526 50.2414 97.4887 50.5 97.3608C50.7613 97.233 50.9801 97.037 51.1562 96.7728C51.3352 96.5086 51.4247 96.1719 51.4247 95.7628ZM58.6687 93.3594L57.7653 93.6151C57.7085 93.4645 57.6247 93.3182 57.5139 93.1762C57.4059 93.0313 57.2582 92.912 57.0707 92.8182C56.8832 92.7245 56.6431 92.6776 56.3505 92.6776C55.9499 92.6776 55.6161 92.7699 55.3491 92.9546C55.0849 93.1364 54.9528 93.3679 54.9528 93.6492C54.9528 93.8992 55.0437 94.0966 55.2255 94.2415C55.4073 94.3864 55.6914 94.5071 56.0778 94.6037L57.0494 94.8424C57.6346 94.9844 58.0707 95.2017 58.3576 95.4944C58.6445 95.7841 58.788 96.1577 58.788 96.6151C58.788 96.9901 58.6801 97.3253 58.4641 97.6208C58.2511 97.9162 57.9528 98.1492 57.5693 98.3196C57.1857 98.4901 56.7397 98.5753 56.2312 98.5753C55.5636 98.5753 55.011 98.4304 54.5735 98.1407C54.136 97.8509 53.859 97.4276 53.7426 96.8708L54.6971 96.6321C54.788 96.9844 54.9599 97.2486 55.2127 97.4248C55.4684 97.6009 55.8022 97.689 56.2141 97.689C56.6829 97.689 57.0551 97.5895 57.3306 97.3907C57.609 97.189 57.7482 96.9475 57.7482 96.6662C57.7482 96.439 57.6687 96.2486 57.5096 96.0952C57.3505 95.939 57.1062 95.8225 56.7766 95.7458L55.6857 95.4901C55.0863 95.3481 54.646 95.1279 54.3647 94.8296C54.0863 94.5285 53.9471 94.152 53.9471 93.7003C53.9471 93.331 54.0508 93.0043 54.2582 92.7202C54.4684 92.4361 54.7539 92.2131 55.1147 92.0512C55.4784 91.8892 55.8903 91.8083 56.3505 91.8083C56.9982 91.8083 57.5068 91.9503 57.8761 92.2344C58.2482 92.5185 58.5124 92.8935 58.6687 93.3594ZM61.0675 94.5015V98.439H60.0619V89.7117H61.0675V92.9162H61.1528C61.3062 92.5782 61.5363 92.3097 61.8431 92.1108C62.1528 91.9091 62.5647 91.8083 63.0789 91.8083C63.5249 91.8083 63.9156 91.8978 64.2508 92.0767C64.586 92.2529 64.846 92.5242 65.0306 92.8907C65.2181 93.2543 65.3119 93.7174 65.3119 94.2799V98.439H64.3062V94.3481C64.3062 93.8282 64.1712 93.4262 63.9013 93.1421C63.6343 92.8552 63.2636 92.7117 62.7891 92.7117C62.4596 92.7117 62.1641 92.7813 61.9028 92.9205C61.6442 93.0597 61.4397 93.2628 61.2891 93.5299C61.1414 93.7969 61.0675 94.1208 61.0675 94.5015ZM70.6617 94.2287V95.1662H66.8435V94.2287H70.6617ZM72.1912 100.894V91.8935H73.1628V92.9333H73.2821C73.356 92.8196 73.4583 92.6748 73.589 92.4986C73.7225 92.3196 73.9128 92.1606 74.16 92.0214C74.41 91.8793 74.7481 91.8083 75.1742 91.8083C75.7253 91.8083 76.2111 91.9461 76.6316 92.2216C77.052 92.4972 77.3802 92.8878 77.6159 93.3935C77.8517 93.8992 77.9696 94.4958 77.9696 95.1833C77.9696 95.8765 77.8517 96.4773 77.6159 96.9858C77.3802 97.4915 77.0534 97.8836 76.6358 98.162C76.2182 98.4375 75.7367 98.5753 75.1912 98.5753C74.7708 98.5753 74.4341 98.5057 74.1813 98.3665C73.9284 98.2245 73.7338 98.064 73.5975 97.885C73.4611 97.7032 73.356 97.5526 73.2821 97.4333H73.1969V100.894H72.1912ZM73.1799 95.1662C73.1799 95.6606 73.2523 96.0966 73.3972 96.4745C73.5421 96.8495 73.7537 97.1435 74.0321 97.3566C74.3106 97.5668 74.6515 97.6719 75.0549 97.6719C75.4753 97.6719 75.8262 97.5611 76.1074 97.3395C76.3915 97.1151 76.6046 96.814 76.7466 96.4361C76.8915 96.0554 76.964 95.6321 76.964 95.1662C76.964 94.706 76.8929 94.2912 76.7509 93.9219C76.6117 93.5498 76.4 93.2557 76.1159 93.0398C75.8347 92.8211 75.481 92.7117 75.0549 92.7117C74.6458 92.7117 74.302 92.8154 74.0236 93.0228C73.7452 93.2273 73.535 93.5142 73.3929 93.8836C73.2509 94.25 73.1799 94.6776 73.1799 95.1662ZM79.2637 98.439V91.8935H80.2694V98.439H79.2637ZM79.7751 90.8026C79.5791 90.8026 79.41 90.7358 79.268 90.6023C79.1288 90.4688 79.0592 90.3083 79.0592 90.1208C79.0592 89.9333 79.1288 89.7728 79.268 89.6392C79.41 89.5057 79.5791 89.439 79.7751 89.439C79.9711 89.439 80.1387 89.5057 80.2779 89.6392C80.42 89.7728 80.491 89.9333 80.491 90.1208C80.491 90.3083 80.42 90.4688 80.2779 90.6023C80.1387 90.7358 79.9711 90.8026 79.7751 90.8026ZM82.8771 94.5015V98.439H81.8714V91.8935H82.843V92.9162H82.9282C83.0816 92.5839 83.3146 92.3168 83.6271 92.1151C83.9396 91.9106 84.343 91.8083 84.8373 91.8083C85.2805 91.8083 85.6683 91.8992 86.0007 92.081C86.333 92.26 86.5916 92.5327 86.7762 92.8992C86.9609 93.2628 87.0532 93.7231 87.0532 94.2799V98.439H86.0475V94.3481C86.0475 93.8339 85.914 93.4333 85.647 93.1464C85.3799 92.8566 85.0134 92.7117 84.5475 92.7117C84.2265 92.7117 83.9396 92.7813 83.6867 92.9205C83.4367 93.0597 83.2393 93.2628 83.0944 93.5299C82.9495 93.7969 82.8771 94.1208 82.8771 94.5015ZM93.2873 93.3594L92.3839 93.6151C92.3271 93.4645 92.2433 93.3182 92.1325 93.1762C92.0245 93.0313 91.8768 92.912 91.6893 92.8182C91.5018 92.7245 91.2617 92.6776 90.9691 92.6776C90.5685 92.6776 90.2347 92.7699 89.9677 92.9546C89.7035 93.1364 89.5714 93.3679 89.5714 93.6492C89.5714 93.8992 89.6623 94.0966 89.8441 94.2415C90.0259 94.3864 90.31 94.5071 90.6964 94.6037L91.668 94.8424C92.2532 94.9844 92.6893 95.2017 92.9762 95.4944C93.2631 95.7841 93.4066 96.1577 93.4066 96.6151C93.4066 96.9901 93.2987 97.3253 93.0827 97.6208C92.8697 97.9162 92.5714 98.1492 92.1879 98.3196C91.8043 98.4901 91.3583 98.5753 90.8498 98.5753C90.1822 98.5753 89.6296 98.4304 89.1921 98.1407C88.7546 97.8509 88.4776 97.4276 88.3612 96.8708L89.3157 96.6321C89.4066 96.9844 89.5785 97.2486 89.8313 97.4248C90.087 97.6009 90.4208 97.689 90.8327 97.689C91.3015 97.689 91.6737 97.5895 91.9492 97.3907C92.2276 97.189 92.3668 96.9475 92.3668 96.6662C92.3668 96.439 92.2873 96.2486 92.1282 96.0952C91.9691 95.939 91.7248 95.8225 91.3952 95.7458L90.3043 95.4901C89.7049 95.3481 89.2646 95.1279 88.9833 94.8296C88.7049 94.5285 88.5657 94.152 88.5657 93.7003C88.5657 93.331 88.6694 93.0043 88.8768 92.7202C89.087 92.4361 89.3725 92.2131 89.7333 92.0512C90.0969 91.8892 90.5089 91.8083 90.9691 91.8083C91.6168 91.8083 92.1254 91.9503 92.4947 92.2344C92.8668 92.5185 93.131 92.8935 93.2873 93.3594Z" fill="#307FE2"/>
<g clip-path="url(#clip1_2243_31005)">
<path d="M232 103.5L161.4 57.26H117.99" stroke="#002159" stroke-miterlimit="10" stroke-linecap="round" stroke-dasharray="2 2"/>
<path d="M116.051 57.26H114.051" stroke="#002159" stroke-miterlimit="10" stroke-linecap="round"/>
<path d="M114.26 61.02C112.183 61.02 110.5 59.3366 110.5 57.26C110.5 55.1834 112.183 53.5 114.26 53.5C116.336 53.5 118.02 55.1834 118.02 57.26C118.02 59.3366 116.336 61.02 114.26 61.02Z" fill="white"/>
<path d="M114.26 61.52C116.61 61.52 118.52 59.61 118.52 57.26C118.52 54.91 116.61 53 114.26 53C111.91 53 110 54.91 110 57.26C110 59.61 111.91 61.52 114.26 61.52C111.91 61.52 116.61 61.52 114.26 61.52ZM114.26 54C116.06 54 117.52 55.46 117.52 57.26C117.52 59.06 116.06 60.52 114.26 60.52C112.46 60.52 111 59.06 111 57.26C111 55.46 112.46 54 114.26 54C112.46 54 116.06 54 114.26 54Z" fill="#002159"/>
</g>
<path d="M72.4923 167.727V191H66.8786V172.977H66.7423L61.5377 176.159V171.295L67.2764 167.727H72.4923ZM81.7699 173.545L84.6449 179.295L87.6222 173.545H93.2244L88.3494 182.273L93.4062 191H87.8494L84.6449 185.205L81.5199 191H75.8835L80.9517 182.273L76.1335 173.545H81.7699Z" fill="#002159"/>
<path d="M21.132 213V211.977L24.973 207.773C25.4237 207.28 25.7949 206.852 26.0866 206.489C26.3783 206.121 26.5942 205.777 26.7343 205.455C26.8783 205.129 26.9502 204.788 26.9502 204.432C26.9502 204.023 26.8517 203.669 26.6548 203.369C26.4616 203.07 26.1964 202.839 25.8593 202.676C25.5222 202.513 25.1434 202.432 24.723 202.432C24.276 202.432 23.8858 202.525 23.5525 202.71C23.223 202.892 22.9673 203.148 22.7855 203.477C22.6074 203.807 22.5184 204.193 22.5184 204.636H21.1775C21.1775 203.955 21.3347 203.356 21.6491 202.841C21.9635 202.326 22.3915 201.924 22.9332 201.636C23.4786 201.348 24.0904 201.205 24.7684 201.205C25.4502 201.205 26.0544 201.348 26.5809 201.636C27.1074 201.924 27.5203 202.312 27.8195 202.801C28.1188 203.29 28.2684 203.833 28.2684 204.432C28.2684 204.86 28.1908 205.278 28.0355 205.688C27.8839 206.093 27.6188 206.545 27.24 207.045C26.865 207.542 26.3442 208.148 25.6775 208.864L23.0639 211.659V211.75H28.473V213H21.132ZM34.295 213.159C33.4389 213.159 32.7098 212.926 32.1075 212.46C31.5052 211.991 31.045 211.311 30.7268 210.42C30.4086 209.527 30.2495 208.447 30.2495 207.182C30.2495 205.924 30.4086 204.85 30.7268 203.96C31.0488 203.066 31.5109 202.384 32.1132 201.915C32.7192 201.441 33.4465 201.205 34.295 201.205C35.1435 201.205 35.8689 201.441 36.4711 201.915C37.0772 202.384 37.5393 203.066 37.8575 203.96C38.1795 204.85 38.3405 205.924 38.3405 207.182C38.3405 208.447 38.1814 209.527 37.8632 210.42C37.545 211.311 37.0848 211.991 36.4825 212.46C35.8802 212.926 35.1511 213.159 34.295 213.159ZM34.295 211.909C35.1435 211.909 35.8026 211.5 36.2723 210.682C36.742 209.864 36.9768 208.697 36.9768 207.182C36.9768 206.174 36.8689 205.316 36.653 204.608C36.4408 203.9 36.134 203.36 35.7325 202.989C35.3348 202.617 34.8556 202.432 34.295 202.432C33.4541 202.432 32.7969 202.847 32.3234 203.676C31.8499 204.502 31.6132 205.67 31.6132 207.182C31.6132 208.189 31.7192 209.045 31.9314 209.75C32.1435 210.455 32.4484 210.991 32.8461 211.358C33.2476 211.725 33.7306 211.909 34.295 211.909ZM45.2023 206.557V207.807H40.1114V206.557H45.2023ZM55.378 205C55.253 204.617 55.0882 204.275 54.8837 203.972C54.6829 203.665 54.4424 203.403 54.1621 203.188C53.8856 202.972 53.5712 202.807 53.2189 202.693C52.8666 202.58 52.4803 202.523 52.0598 202.523C51.3704 202.523 50.7435 202.701 50.1791 203.057C49.6148 203.413 49.1659 203.938 48.8326 204.631C48.4992 205.324 48.3326 206.174 48.3326 207.182C48.3326 208.189 48.5011 209.04 48.8382 209.733C49.1754 210.426 49.6318 210.951 50.2076 211.307C50.7833 211.663 51.431 211.841 52.1507 211.841C52.8174 211.841 53.4045 211.699 53.9121 211.415C54.4235 211.127 54.8212 210.722 55.1053 210.199C55.3932 209.672 55.5371 209.053 55.5371 208.341L55.9689 208.432H52.4689V207.182H56.9007V208.432C56.9007 209.39 56.6962 210.223 56.2871 210.932C55.8818 211.64 55.3212 212.189 54.6053 212.58C53.8932 212.966 53.075 213.159 52.1507 213.159C51.1204 213.159 50.2151 212.917 49.4348 212.432C48.6583 211.947 48.0523 211.258 47.6166 210.364C47.1848 209.47 46.9689 208.409 46.9689 207.182C46.9689 206.261 47.092 205.434 47.3382 204.699C47.5882 203.96 47.9405 203.331 48.3951 202.812C48.8496 202.294 49.3875 201.896 50.0087 201.619C50.6299 201.343 51.3136 201.205 52.0598 201.205C52.6735 201.205 53.2454 201.297 53.7757 201.483C54.3098 201.665 54.7852 201.924 55.2019 202.261C55.6223 202.595 55.9727 202.994 56.253 203.46C56.5333 203.922 56.7265 204.436 56.8326 205H55.378ZM61.3805 213.205C60.8274 213.205 60.3255 213.1 59.8748 212.892C59.424 212.68 59.0661 212.375 58.8009 211.977C58.5358 211.576 58.4032 211.091 58.4032 210.523C58.4032 210.023 58.5017 209.617 58.6986 209.307C58.8956 208.992 59.1589 208.746 59.4884 208.568C59.818 208.39 60.1816 208.258 60.5793 208.17C60.9808 208.08 61.3842 208.008 61.7895 207.955C62.3198 207.886 62.7498 207.835 63.0793 207.801C63.4127 207.763 63.6551 207.701 63.8066 207.614C63.9619 207.527 64.0395 207.375 64.0395 207.159V207.114C64.0395 206.553 63.8861 206.117 63.5793 205.807C63.2763 205.496 62.8161 205.341 62.1986 205.341C61.5585 205.341 61.0566 205.481 60.693 205.761C60.3293 206.042 60.0736 206.341 59.9259 206.659L58.6532 206.205C58.8805 205.674 59.1835 205.261 59.5623 204.966C59.9448 204.667 60.3615 204.458 60.8123 204.341C61.2668 204.22 61.7138 204.159 62.1532 204.159C62.4335 204.159 62.7555 204.193 63.1191 204.261C63.4865 204.326 63.8407 204.46 64.1816 204.665C64.5263 204.869 64.8123 205.178 65.0395 205.591C65.2668 206.004 65.3805 206.557 65.3805 207.25V213H64.0395V211.818H63.9714C63.8805 212.008 63.7289 212.21 63.5168 212.426C63.3047 212.642 63.0225 212.826 62.6702 212.977C62.318 213.129 61.888 213.205 61.3805 213.205ZM61.585 212C62.1153 212 62.5623 211.896 62.9259 211.688C63.2933 211.479 63.5698 211.21 63.7555 210.881C63.9448 210.551 64.0395 210.205 64.0395 209.841V208.614C63.9827 208.682 63.8577 208.744 63.6645 208.801C63.4752 208.854 63.2555 208.902 63.0055 208.943C62.7592 208.981 62.5187 209.015 62.2839 209.045C62.0528 209.072 61.8653 209.095 61.7214 209.114C61.3729 209.159 61.0471 209.233 60.7441 209.335C60.4448 209.434 60.2024 209.583 60.0168 209.784C59.835 209.981 59.7441 210.25 59.7441 210.591C59.7441 211.057 59.9164 211.409 60.2611 211.648C60.6096 211.883 61.0509 212 61.585 212ZM73.0079 209.432V204.273H74.3488V213H73.0079V211.523H72.917C72.7124 211.966 72.3943 212.343 71.9624 212.653C71.5306 212.96 70.9852 213.114 70.3261 213.114C69.7806 213.114 69.2958 212.994 68.8715 212.756C68.4473 212.513 68.114 212.15 67.8715 211.665C67.6291 211.176 67.5079 210.561 67.5079 209.818V204.273H68.8488V209.727C68.8488 210.364 69.0268 210.871 69.3829 211.25C69.7427 211.629 70.2011 211.818 70.7579 211.818C71.0912 211.818 71.4302 211.733 71.7749 211.562C72.1234 211.392 72.4151 211.131 72.6499 210.778C72.8886 210.426 73.0079 209.977 73.0079 209.432ZM80.0075 216.455C79.3598 216.455 78.803 216.371 78.337 216.205C77.8711 216.042 77.4829 215.826 77.1723 215.557C76.8655 215.292 76.6211 215.008 76.4393 214.705L77.5075 213.955C77.6287 214.114 77.7821 214.295 77.9677 214.5C78.1533 214.708 78.4071 214.888 78.7291 215.04C79.0548 215.195 79.481 215.273 80.0075 215.273C80.712 215.273 81.2935 215.102 81.7518 214.761C82.2102 214.42 82.4393 213.886 82.4393 213.159V211.386H82.3257C82.2272 211.545 82.087 211.742 81.9052 211.977C81.7272 212.208 81.4696 212.415 81.1325 212.597C80.7992 212.775 80.3484 212.864 79.7802 212.864C79.0757 212.864 78.4431 212.697 77.8825 212.364C77.3257 212.03 76.8844 211.545 76.5586 210.909C76.2367 210.273 76.0757 209.5 76.0757 208.591C76.0757 207.697 76.2329 206.919 76.5473 206.256C76.8617 205.589 77.2992 205.074 77.8598 204.71C78.4204 204.343 79.0681 204.159 79.803 204.159C80.3711 204.159 80.8219 204.254 81.1552 204.443C81.4923 204.629 81.7499 204.841 81.928 205.08C82.1098 205.314 82.2499 205.508 82.3484 205.659H82.4848V204.273H83.7802V213.25C83.7802 214 83.6098 214.61 83.2689 215.08C82.9317 215.553 82.4772 215.9 81.9052 216.119C81.337 216.343 80.7045 216.455 80.0075 216.455ZM79.962 211.659C80.4999 211.659 80.9545 211.536 81.3257 211.29C81.6969 211.044 81.9791 210.689 82.1723 210.227C82.3655 209.765 82.462 209.212 82.462 208.568C82.462 207.939 82.3673 207.384 82.178 206.903C81.9886 206.422 81.7083 206.045 81.337 205.773C80.9658 205.5 80.5075 205.364 79.962 205.364C79.3939 205.364 78.9204 205.508 78.5416 205.795C78.1666 206.083 77.8844 206.47 77.695 206.955C77.5094 207.439 77.4166 207.977 77.4166 208.568C77.4166 209.174 77.5113 209.71 77.7007 210.176C77.8939 210.638 78.178 211.002 78.553 211.267C78.9317 211.528 79.4014 211.659 79.962 211.659ZM89.5739 213.182C88.733 213.182 88.0076 212.996 87.3977 212.625C86.7917 212.25 86.3239 211.727 85.9943 211.057C85.6686 210.383 85.5057 209.598 85.5057 208.705C85.5057 207.811 85.6686 207.023 85.9943 206.341C86.3239 205.655 86.7822 205.121 87.3693 204.739C87.9602 204.352 88.6496 204.159 89.4375 204.159C89.892 204.159 90.3409 204.235 90.7841 204.386C91.2273 204.538 91.6307 204.784 91.9943 205.125C92.358 205.462 92.6477 205.909 92.8636 206.466C93.0795 207.023 93.1875 207.708 93.1875 208.523V209.091H86.4602V207.932H91.8239C91.8239 207.439 91.7254 207 91.5284 206.614C91.3352 206.227 91.0587 205.922 90.6989 205.699C90.3428 205.475 89.9223 205.364 89.4375 205.364C88.9034 205.364 88.4413 205.496 88.0511 205.761C87.6648 206.023 87.3674 206.364 87.1591 206.784C86.9508 207.205 86.8466 207.655 86.8466 208.136V208.909C86.8466 209.568 86.9602 210.127 87.1875 210.585C87.4186 211.04 87.7386 211.386 88.1477 211.625C88.5568 211.86 89.0322 211.977 89.5739 211.977C89.9261 211.977 90.2443 211.928 90.5284 211.83C90.8163 211.727 91.0644 211.576 91.2727 211.375C91.4811 211.17 91.642 210.917 91.7557 210.614L93.0511 210.977C92.9148 211.417 92.6856 211.803 92.3636 212.136C92.0417 212.466 91.6439 212.723 91.1705 212.909C90.697 213.091 90.1648 213.182 89.5739 213.182ZM10.8708 224H9.46176C9.37843 223.595 9.23259 223.239 9.02426 222.932C8.81971 222.625 8.56971 222.367 8.27426 222.159C7.98259 221.947 7.65873 221.788 7.30267 221.682C6.94661 221.576 6.57539 221.523 6.18903 221.523C5.48449 221.523 4.84623 221.701 4.27426 222.057C3.70608 222.413 3.25342 222.938 2.9163 223.631C2.58297 224.324 2.4163 225.174 2.4163 226.182C2.4163 227.189 2.58297 228.04 2.9163 228.733C3.25342 229.426 3.70608 229.951 4.27426 230.307C4.84623 230.663 5.48449 230.841 6.18903 230.841C6.57539 230.841 6.94661 230.788 7.30267 230.682C7.65873 230.576 7.98259 230.419 8.27426 230.21C8.56971 229.998 8.81971 229.739 9.02426 229.432C9.23259 229.121 9.37843 228.765 9.46176 228.364H10.8708C10.7648 228.958 10.5716 229.491 10.2913 229.96C10.011 230.43 9.66252 230.83 9.24585 231.159C8.82918 231.485 8.36138 231.733 7.84244 231.903C7.32729 232.074 6.77615 232.159 6.18903 232.159C5.19661 232.159 4.31403 231.917 3.5413 231.432C2.76858 230.947 2.16062 230.258 1.71744 229.364C1.27426 228.47 1.05267 227.409 1.05267 226.182C1.05267 224.955 1.27426 223.894 1.71744 223C2.16062 222.106 2.76858 221.417 3.5413 220.932C4.31403 220.447 5.19661 220.205 6.18903 220.205C6.77615 220.205 7.32729 220.29 7.84244 220.46C8.36138 220.631 8.82918 220.881 9.24585 221.21C9.66252 221.536 10.011 221.934 10.2913 222.403C10.5716 222.869 10.7648 223.402 10.8708 224ZM16.1915 232.182C15.4036 232.182 14.7123 231.994 14.1176 231.619C13.5267 231.244 13.0646 230.72 12.7312 230.045C12.4017 229.371 12.2369 228.583 12.2369 227.682C12.2369 226.773 12.4017 225.979 12.7312 225.301C13.0646 224.623 13.5267 224.097 14.1176 223.722C14.7123 223.347 15.4036 223.159 16.1915 223.159C16.9794 223.159 17.6687 223.347 18.2597 223.722C18.8544 224.097 19.3165 224.623 19.646 225.301C19.9794 225.979 20.146 226.773 20.146 227.682C20.146 228.583 19.9794 229.371 19.646 230.045C19.3165 230.72 18.8544 231.244 18.2597 231.619C17.6687 231.994 16.9794 232.182 16.1915 232.182ZM16.1915 230.977C16.79 230.977 17.2824 230.824 17.6687 230.517C18.0551 230.21 18.3411 229.807 18.5267 229.307C18.7123 228.807 18.8051 228.265 18.8051 227.682C18.8051 227.098 18.7123 226.555 18.5267 226.051C18.3411 225.547 18.0551 225.14 17.6687 224.83C17.2824 224.519 16.79 224.364 16.1915 224.364C15.593 224.364 15.1006 224.519 14.7142 224.83C14.3278 225.14 14.0419 225.547 13.8562 226.051C13.6706 226.555 13.5778 227.098 13.5778 227.682C13.5778 228.265 13.6706 228.807 13.8562 229.307C14.0419 229.807 14.3278 230.21 14.7142 230.517C15.1006 230.824 15.593 230.977 16.1915 230.977ZM23.2138 226.75V232H21.8729V223.273H23.1683V224.636H23.282C23.4865 224.193 23.7971 223.837 24.2138 223.568C24.6305 223.295 25.1683 223.159 25.8274 223.159C26.4183 223.159 26.9354 223.28 27.3786 223.523C27.8218 223.761 28.1665 224.125 28.4127 224.614C28.6589 225.098 28.782 225.712 28.782 226.455V232H27.4411V226.545C27.4411 225.86 27.263 225.326 26.907 224.943C26.5509 224.557 26.0623 224.364 25.4411 224.364C25.013 224.364 24.6305 224.456 24.2933 224.642C23.96 224.828 23.6968 225.098 23.5036 225.455C23.3104 225.811 23.2138 226.242 23.2138 226.75ZM37.0941 225.227L35.8895 225.568C35.8138 225.367 35.702 225.172 35.5543 224.983C35.4104 224.79 35.2134 224.631 34.9634 224.506C34.7134 224.381 34.3933 224.318 34.0032 224.318C33.4691 224.318 33.024 224.441 32.668 224.688C32.3157 224.93 32.1395 225.239 32.1395 225.614C32.1395 225.947 32.2608 226.21 32.5032 226.403C32.7456 226.597 33.1244 226.758 33.6395 226.886L34.935 227.205C35.7153 227.394 36.2967 227.684 36.6793 228.074C37.0619 228.46 37.2532 228.958 37.2532 229.568C37.2532 230.068 37.1092 230.515 36.8214 230.909C36.5373 231.303 36.1395 231.614 35.6282 231.841C35.1168 232.068 34.5221 232.182 33.8441 232.182C32.9539 232.182 32.2172 231.989 31.6339 231.602C31.0505 231.216 30.6812 230.652 30.5259 229.909L31.7986 229.591C31.9198 230.061 32.149 230.413 32.4861 230.648C32.827 230.883 33.2721 231 33.8214 231C34.4464 231 34.9426 230.867 35.31 230.602C35.6812 230.333 35.8668 230.011 35.8668 229.636C35.8668 229.333 35.7608 229.08 35.5486 228.875C35.3365 228.667 35.0108 228.511 34.5714 228.409L33.1168 228.068C32.3176 227.879 31.7305 227.585 31.3555 227.188C30.9842 226.786 30.7986 226.284 30.7986 225.682C30.7986 225.189 30.9369 224.754 31.2134 224.375C31.4937 223.996 31.8744 223.699 32.3555 223.483C32.8403 223.267 33.3895 223.159 34.0032 223.159C34.8668 223.159 35.5448 223.348 36.0373 223.727C36.5335 224.106 36.8858 224.606 37.0941 225.227ZM42.7471 223.273V224.409H38.2244V223.273H42.7471ZM39.5426 221.182H40.8835V229.5C40.8835 229.879 40.9384 230.163 41.0482 230.352C41.1619 230.538 41.3058 230.663 41.4801 230.727C41.6581 230.788 41.8456 230.818 42.0426 230.818C42.1903 230.818 42.3115 230.811 42.4062 230.795C42.5009 230.777 42.5766 230.761 42.6335 230.75L42.9062 231.955C42.8153 231.989 42.6884 232.023 42.5255 232.057C42.3626 232.095 42.1562 232.114 41.9062 232.114C41.5274 232.114 41.1562 232.032 40.7926 231.869C40.4327 231.706 40.1335 231.458 39.8948 231.125C39.66 230.792 39.5426 230.371 39.5426 229.864V221.182ZM44.4441 232V223.273H45.7396V224.591H45.8305C45.9896 224.159 46.2775 223.809 46.6941 223.54C47.1108 223.271 47.5805 223.136 48.1032 223.136C48.2017 223.136 48.3248 223.138 48.4726 223.142C48.6203 223.146 48.732 223.152 48.8078 223.159V224.523C48.7623 224.511 48.6582 224.494 48.4953 224.472C48.3362 224.445 48.1676 224.432 47.9896 224.432C47.5654 224.432 47.1866 224.521 46.8532 224.699C46.5237 224.873 46.2623 225.116 46.0691 225.426C45.8798 225.733 45.7851 226.083 45.7851 226.477V232H44.4441ZM55.5773 228.432V223.273H56.9182V232H55.5773V230.523H55.4864C55.2818 230.966 54.9636 231.343 54.5318 231.653C54.1 231.96 53.5545 232.114 52.8955 232.114C52.35 232.114 51.8652 231.994 51.4409 231.756C51.0167 231.513 50.6833 231.15 50.4409 230.665C50.1985 230.176 50.0773 229.561 50.0773 228.818V223.273H51.4182V228.727C51.4182 229.364 51.5962 229.871 51.9523 230.25C52.3121 230.629 52.7705 230.818 53.3273 230.818C53.6606 230.818 53.9996 230.733 54.3443 230.562C54.6928 230.392 54.9845 230.131 55.2193 229.778C55.458 229.426 55.5773 228.977 55.5773 228.432ZM62.5996 232.182C61.7814 232.182 61.0769 231.989 60.486 231.602C59.8951 231.216 59.4405 230.684 59.1223 230.006C58.8041 229.328 58.6451 228.553 58.6451 227.682C58.6451 226.795 58.8079 226.013 59.1337 225.335C59.4632 224.653 59.9216 224.121 60.5087 223.739C61.0996 223.352 61.789 223.159 62.5769 223.159C63.1905 223.159 63.7435 223.273 64.236 223.5C64.7284 223.727 65.1318 224.045 65.4462 224.455C65.7606 224.864 65.9557 225.341 66.0314 225.886H64.6905C64.5882 225.489 64.361 225.136 64.0087 224.83C63.6602 224.519 63.1905 224.364 62.5996 224.364C62.0769 224.364 61.6185 224.5 61.2246 224.773C60.8344 225.042 60.5295 225.422 60.3098 225.915C60.0939 226.403 59.986 226.977 59.986 227.636C59.986 228.311 60.092 228.898 60.3041 229.398C60.5201 229.898 60.8231 230.286 61.2132 230.562C61.6072 230.839 62.0693 230.977 62.5996 230.977C62.9481 230.977 63.2644 230.917 63.5485 230.795C63.8326 230.674 64.0731 230.5 64.2701 230.273C64.467 230.045 64.6072 229.773 64.6905 229.455H66.0314C65.9557 229.97 65.7682 230.434 65.4689 230.847C65.1735 231.256 64.7814 231.581 64.2928 231.824C63.8079 232.062 63.2435 232.182 62.5996 232.182ZM71.4671 223.273V224.409H66.9444V223.273H71.4671ZM68.2626 221.182H69.6035V229.5C69.6035 229.879 69.6584 230.163 69.7682 230.352C69.8819 230.538 70.0258 230.663 70.2001 230.727C70.3781 230.788 70.5656 230.818 70.7626 230.818C70.9103 230.818 71.0315 230.811 71.1262 230.795C71.2209 230.777 71.2966 230.761 71.3535 230.75L71.6262 231.955C71.5353 231.989 71.4084 232.023 71.2455 232.057C71.0826 232.095 70.8762 232.114 70.6262 232.114C70.2474 232.114 69.8762 232.032 69.5126 231.869C69.1527 231.706 68.8535 231.458 68.6148 231.125C68.38 230.792 68.2626 230.371 68.2626 229.864V221.182ZM73.1641 232V223.273H74.5051V232H73.1641ZM73.846 221.818C73.5846 221.818 73.3592 221.729 73.1698 221.551C72.9842 221.373 72.8914 221.159 72.8914 220.909C72.8914 220.659 72.9842 220.445 73.1698 220.267C73.3592 220.089 73.5846 220 73.846 220C74.1073 220 74.3308 220.089 74.5164 220.267C74.7058 220.445 74.8005 220.659 74.8005 220.909C74.8005 221.159 74.7058 221.373 74.5164 221.551C74.3308 221.729 74.1073 221.818 73.846 221.818ZM80.1865 232.182C79.3986 232.182 78.7073 231.994 78.1126 231.619C77.5217 231.244 77.0596 230.72 76.7262 230.045C76.3967 229.371 76.2319 228.583 76.2319 227.682C76.2319 226.773 76.3967 225.979 76.7262 225.301C77.0596 224.623 77.5217 224.097 78.1126 223.722C78.7073 223.347 79.3986 223.159 80.1865 223.159C80.9744 223.159 81.6637 223.347 82.2547 223.722C82.8494 224.097 83.3115 224.623 83.641 225.301C83.9744 225.979 84.141 226.773 84.141 227.682C84.141 228.583 83.9744 229.371 83.641 230.045C83.3115 230.72 82.8494 231.244 82.2547 231.619C81.6637 231.994 80.9744 232.182 80.1865 232.182ZM80.1865 230.977C80.785 230.977 81.2774 230.824 81.6637 230.517C82.0501 230.21 82.3361 229.807 82.5217 229.307C82.7073 228.807 82.8001 228.265 82.8001 227.682C82.8001 227.098 82.7073 226.555 82.5217 226.051C82.3361 225.547 82.0501 225.14 81.6637 224.83C81.2774 224.519 80.785 224.364 80.1865 224.364C79.588 224.364 79.0956 224.519 78.7092 224.83C78.3228 225.14 78.0369 225.547 77.8512 226.051C77.6656 226.555 77.5728 227.098 77.5728 227.682C77.5728 228.265 77.6656 228.807 77.8512 229.307C78.0369 229.807 78.3228 230.21 78.7092 230.517C79.0956 230.824 79.588 230.977 80.1865 230.977ZM87.2088 226.75V232H85.8679V223.273H87.1634V224.636H87.277C87.4815 224.193 87.7921 223.837 88.2088 223.568C88.6255 223.295 89.1634 223.159 89.8224 223.159C90.4134 223.159 90.9304 223.28 91.3736 223.523C91.8168 223.761 92.1615 224.125 92.4077 224.614C92.6539 225.098 92.777 225.712 92.777 226.455V232H91.4361V226.545C91.4361 225.86 91.258 225.326 90.902 224.943C90.5459 224.557 90.0573 224.364 89.4361 224.364C89.008 224.364 88.6255 224.456 88.2884 224.642C87.955 224.828 87.6918 225.098 87.4986 225.455C87.3054 225.811 87.2088 226.242 87.2088 226.75Z" fill="#002159"/>
<path d="M18.1551 243.92L17.2517 244.176C17.1949 244.026 17.1111 243.879 17.0003 243.737C16.8923 243.592 16.7446 243.473 16.5571 243.379C16.3696 243.286 16.1295 243.239 15.8369 243.239C15.4364 243.239 15.1025 243.331 14.8355 243.516C14.5713 243.697 14.4392 243.929 14.4392 244.21C14.4392 244.46 14.5301 244.658 14.7119 244.803C14.8937 244.947 15.1778 245.068 15.5642 245.165L16.5358 245.403C17.121 245.545 17.5571 245.763 17.844 246.055C18.131 246.345 18.2744 246.719 18.2744 247.176C18.2744 247.551 18.1665 247.886 17.9506 248.182C17.7375 248.477 17.4392 248.71 17.0557 248.881C16.6721 249.051 16.2261 249.136 15.7176 249.136C15.05 249.136 14.4974 248.991 14.0599 248.702C13.6224 248.412 13.3454 247.989 13.229 247.432L14.1835 247.193C14.2744 247.545 14.4463 247.81 14.6991 247.986C14.9548 248.162 15.2886 248.25 15.7006 248.25C16.1693 248.25 16.5415 248.151 16.817 247.952C17.0954 247.75 17.2346 247.509 17.2346 247.227C17.2346 247 17.1551 246.81 16.996 246.656C16.8369 246.5 16.5926 246.384 16.2631 246.307L15.1721 246.051C14.5727 245.909 14.1324 245.689 13.8511 245.391C13.5727 245.089 13.4335 244.713 13.4335 244.261C13.4335 243.892 13.5372 243.565 13.7446 243.281C13.9548 242.997 14.2403 242.774 14.6011 242.612C14.9648 242.45 15.3767 242.369 15.8369 242.369C16.4846 242.369 16.9932 242.511 17.3625 242.795C17.7346 243.08 17.9989 243.455 18.1551 243.92ZM22.3949 242.455V243.307H19.0028V242.455H22.3949ZM19.9914 240.886H20.9971V247.125C20.9971 247.409 21.0383 247.622 21.1207 247.764C21.2059 247.903 21.3139 247.997 21.4446 248.045C21.5781 248.091 21.7187 248.114 21.8664 248.114C21.9772 248.114 22.0682 248.108 22.1392 248.097C22.2102 248.082 22.267 248.071 22.3096 248.062L22.5142 248.966C22.446 248.991 22.3508 249.017 22.2287 249.043C22.1065 249.071 21.9517 249.085 21.7642 249.085C21.4801 249.085 21.2017 249.024 20.9289 248.902C20.6591 248.78 20.4346 248.594 20.2557 248.344C20.0795 248.094 19.9914 247.778 19.9914 247.398V240.886ZM27.7926 246.324V242.455H28.7983V249H27.7926V247.892H27.7245C27.5711 248.224 27.3324 248.507 27.0086 248.74C26.6847 248.97 26.2756 249.085 25.7813 249.085C25.3722 249.085 25.0086 248.996 24.6904 248.817C24.3722 248.635 24.1222 248.362 23.9404 247.999C23.7586 247.632 23.6676 247.17 23.6676 246.614V242.455H24.6733V246.545C24.6733 247.023 24.8068 247.403 25.0739 247.688C25.3438 247.972 25.6875 248.114 26.1051 248.114C26.3551 248.114 26.6094 248.05 26.8679 247.922C27.1293 247.794 27.348 247.598 27.5242 247.334C27.7032 247.07 27.7926 246.733 27.7926 246.324ZM30.4003 249V242.455H31.3719V243.443H31.4401C31.5594 243.119 31.7753 242.857 32.0878 242.655C32.4003 242.453 32.7526 242.352 33.1446 242.352C33.2185 242.352 33.3108 242.354 33.4216 242.357C33.5324 242.359 33.6162 242.364 33.673 242.369V243.392C33.6389 243.384 33.5608 243.371 33.4387 243.354C33.3193 243.334 33.1929 243.324 33.0594 243.324C32.7412 243.324 32.4571 243.391 32.2071 243.524C31.96 243.655 31.7639 243.837 31.619 244.07C31.477 244.3 31.406 244.562 31.406 244.858V249H30.4003ZM36.8975 249.136C36.3521 249.136 35.8705 248.999 35.4529 248.723C35.0353 248.445 34.7086 248.053 34.4728 247.547C34.237 247.038 34.1191 246.438 34.1191 245.744C34.1191 245.057 34.237 244.46 34.4728 243.955C34.7086 243.449 35.0367 243.058 35.4572 242.783C35.8776 242.507 36.3634 242.369 36.9146 242.369C37.3407 242.369 37.6773 242.44 37.9245 242.582C38.1745 242.722 38.3648 242.881 38.4955 243.06C38.6291 243.236 38.7327 243.381 38.8066 243.494H38.8918V240.273H39.8975V249H38.9259V247.994H38.8066C38.7327 248.114 38.6276 248.264 38.4913 248.446C38.3549 248.625 38.1603 248.786 37.9075 248.928C37.6546 249.067 37.318 249.136 36.8975 249.136ZM37.0339 248.233C37.4373 248.233 37.7782 248.128 38.0566 247.918C38.335 247.705 38.5467 247.411 38.6916 247.036C38.8364 246.658 38.9089 246.222 38.9089 245.727C38.9089 245.239 38.8379 244.811 38.6958 244.445C38.5538 244.075 38.3435 243.788 38.0651 243.584C37.7867 243.376 37.443 243.273 37.0339 243.273C36.6077 243.273 36.2526 243.382 35.9685 243.601C35.6873 243.817 35.4756 244.111 35.3336 244.483C35.1944 244.852 35.1248 245.267 35.1248 245.727C35.1248 246.193 35.1958 246.616 35.3379 246.997C35.4827 247.375 35.6958 247.676 35.9771 247.901C36.2612 248.122 36.6134 248.233 37.0339 248.233ZM42.2868 251.455C42.1163 251.455 41.9643 251.44 41.8308 251.412C41.6973 251.386 41.605 251.361 41.5538 251.335L41.8095 250.449C42.0538 250.511 42.2697 250.534 42.4572 250.517C42.6447 250.5 42.8109 250.416 42.9558 250.266C43.1035 250.118 43.2385 249.878 43.3606 249.545L43.5481 249.034L41.1277 242.455H42.2186L44.0254 247.67H44.0936L45.9004 242.455H46.9913L44.2129 249.955C44.0879 250.293 43.9331 250.572 43.7484 250.794C43.5638 251.018 43.3493 251.185 43.105 251.293C42.8635 251.401 42.5908 251.455 42.2868 251.455ZM51.2137 249V242.455H52.1853V243.477H52.2706C52.4069 243.128 52.6271 242.857 52.9311 242.663C53.235 242.467 53.6001 242.369 54.0262 242.369C54.4581 242.369 54.8174 242.467 55.1044 242.663C55.3941 242.857 55.62 243.128 55.7819 243.477H55.8501C56.0177 243.139 56.2691 242.871 56.6044 242.672C56.9396 242.47 57.3416 242.369 57.8103 242.369C58.3956 242.369 58.8742 242.553 59.2464 242.919C59.6186 243.283 59.8046 243.849 59.8046 244.619V249H58.799V244.619C58.799 244.136 58.6669 243.791 58.4027 243.584C58.1385 243.376 57.8274 243.273 57.4694 243.273C57.0092 243.273 56.6527 243.412 56.3998 243.69C56.147 243.966 56.0206 244.315 56.0206 244.739V249H54.9978V244.517C54.9978 244.145 54.8771 243.845 54.6356 243.618C54.3941 243.388 54.0831 243.273 53.7024 243.273C53.441 243.273 53.1967 243.342 52.9694 243.482C52.745 243.621 52.5632 243.814 52.424 244.061C52.2876 244.305 52.2194 244.588 52.2194 244.909V249H51.2137ZM63.3296 249.153C62.9148 249.153 62.5384 249.075 62.2003 248.919C61.8622 248.76 61.5938 248.531 61.3949 248.233C61.196 247.932 61.0966 247.568 61.0966 247.142C61.0966 246.767 61.1705 246.463 61.3182 246.23C61.4659 245.994 61.6634 245.81 61.9105 245.676C62.1577 245.543 62.4304 245.443 62.7287 245.378C63.0298 245.31 63.3324 245.256 63.6364 245.216C64.0341 245.165 64.3566 245.126 64.6037 245.101C64.8537 245.072 65.0355 245.026 65.1492 244.96C65.2656 244.895 65.3239 244.781 65.3239 244.619V244.585C65.3239 244.165 65.2088 243.838 64.9787 243.605C64.7514 243.372 64.4063 243.256 63.9432 243.256C63.4631 243.256 63.0867 243.361 62.8139 243.571C62.5412 243.781 62.3494 244.006 62.2387 244.244L61.2841 243.903C61.4546 243.506 61.6818 243.196 61.9659 242.974C62.2529 242.75 62.5654 242.594 62.9034 242.506C63.2443 242.415 63.5796 242.369 63.9091 242.369C64.1193 242.369 64.3608 242.395 64.6335 242.446C64.9091 242.494 65.1747 242.595 65.4304 242.749C65.6889 242.902 65.9034 243.134 66.0739 243.443C66.2443 243.753 66.3296 244.168 66.3296 244.688V249H65.3239V248.114H65.2727C65.2046 248.256 65.0909 248.408 64.9318 248.57C64.7727 248.732 64.5611 248.869 64.2969 248.983C64.0327 249.097 63.7102 249.153 63.3296 249.153ZM63.483 248.25C63.8807 248.25 64.2159 248.172 64.4887 248.016C64.7642 247.859 64.9716 247.658 65.1108 247.411C65.2529 247.163 65.3239 246.903 65.3239 246.631V245.71C65.2813 245.761 65.1875 245.808 65.0426 245.851C64.9006 245.891 64.7358 245.926 64.5483 245.957C64.3637 245.986 64.1833 246.011 64.0071 246.034C63.8338 246.054 63.6932 246.071 63.5852 246.085C63.3239 246.119 63.0796 246.175 62.8523 246.251C62.6279 246.325 62.446 246.437 62.3068 246.588C62.1705 246.736 62.1023 246.937 62.1023 247.193C62.1023 247.543 62.2316 247.807 62.4901 247.986C62.7514 248.162 63.0824 248.25 63.483 248.25ZM70.7717 242.455V243.307H67.3797V242.455H70.7717ZM68.3683 240.886H69.374V247.125C69.374 247.409 69.4152 247.622 69.4976 247.764C69.5828 247.903 69.6908 247.997 69.8214 248.045C69.955 248.091 70.0956 248.114 70.2433 248.114C70.3541 248.114 70.445 248.108 70.5161 248.097C70.5871 248.082 70.6439 248.071 70.6865 248.062L70.8911 248.966C70.8229 248.991 70.7277 249.017 70.6055 249.043C70.4834 249.071 70.3286 249.085 70.1411 249.085C69.857 249.085 69.5786 249.024 69.3058 248.902C69.0359 248.78 68.8115 248.594 68.6325 248.344C68.4564 248.094 68.3683 247.778 68.3683 247.398V240.886ZM74.7185 249.136C74.0878 249.136 73.5438 248.997 73.0864 248.719C72.6319 248.438 72.281 248.045 72.0339 247.543C71.7895 247.037 71.6674 246.449 71.6674 245.778C71.6674 245.108 71.7895 244.517 72.0339 244.006C72.281 243.491 72.6248 243.091 73.0651 242.804C73.5083 242.514 74.0253 242.369 74.6162 242.369C74.9572 242.369 75.2938 242.426 75.6262 242.54C75.9586 242.653 76.2611 242.838 76.5339 243.094C76.8066 243.347 77.0239 243.682 77.1859 244.099C77.3478 244.517 77.4287 245.031 77.4287 245.642V246.068H72.3833V245.199H76.406C76.406 244.83 76.3322 244.5 76.1844 244.21C76.0395 243.92 75.8322 243.692 75.5623 243.524C75.2952 243.357 74.9799 243.273 74.6162 243.273C74.2157 243.273 73.8691 243.372 73.5765 243.571C73.2867 243.767 73.0637 244.023 72.9074 244.338C72.7512 244.653 72.6731 244.991 72.6731 245.352V245.932C72.6731 246.426 72.7583 246.845 72.9287 247.189C73.102 247.53 73.3421 247.79 73.6489 247.969C73.9557 248.145 74.3123 248.233 74.7185 248.233C74.9827 248.233 75.2214 248.196 75.4344 248.122C75.6503 248.045 75.8364 247.932 75.9927 247.781C76.1489 247.628 76.2697 247.437 76.3549 247.21L77.3265 247.483C77.2242 247.812 77.0523 248.102 76.8109 248.352C76.5694 248.599 76.2711 248.793 75.916 248.932C75.5609 249.068 75.1617 249.136 74.7185 249.136ZM78.7186 249V242.455H79.6902V243.443H79.7584C79.8777 243.119 80.0936 242.857 80.4061 242.655C80.7186 242.453 81.0709 242.352 81.4629 242.352C81.5368 242.352 81.6291 242.354 81.7399 242.357C81.8507 242.359 81.9345 242.364 81.9913 242.369V243.392C81.9572 243.384 81.8791 243.371 81.7569 243.354C81.6376 243.334 81.5112 243.324 81.3777 243.324C81.0595 243.324 80.7754 243.391 80.5254 243.524C80.2782 243.655 80.0822 243.837 79.9373 244.07C79.7953 244.3 79.7243 244.562 79.7243 244.858V249H78.7186ZM82.9434 249V242.455H83.9491V249H82.9434ZM83.4548 241.364C83.2588 241.364 83.0897 241.297 82.9477 241.163C82.8085 241.03 82.7389 240.869 82.7389 240.682C82.7389 240.494 82.8085 240.334 82.9477 240.2C83.0897 240.067 83.2588 240 83.4548 240C83.6508 240 83.8184 240.067 83.9576 240.2C84.0997 240.334 84.1707 240.494 84.1707 240.682C84.1707 240.869 84.0997 241.03 83.9576 241.163C83.8184 241.297 83.6508 241.364 83.4548 241.364ZM87.4772 249.153C87.0624 249.153 86.686 249.075 86.348 248.919C86.0099 248.76 85.7414 248.531 85.5426 248.233C85.3437 247.932 85.2443 247.568 85.2443 247.142C85.2443 246.767 85.3181 246.463 85.4659 246.23C85.6136 245.994 85.811 245.81 86.0582 245.676C86.3053 245.543 86.5781 245.443 86.8764 245.378C87.1775 245.31 87.4801 245.256 87.784 245.216C88.1818 245.165 88.5042 245.126 88.7514 245.101C89.0014 245.072 89.1832 245.026 89.2968 244.96C89.4133 244.895 89.4715 244.781 89.4715 244.619V244.585C89.4715 244.165 89.3565 243.838 89.1264 243.605C88.8991 243.372 88.5539 243.256 88.0909 243.256C87.6107 243.256 87.2343 243.361 86.9616 243.571C86.6889 243.781 86.4971 244.006 86.3863 244.244L85.4318 243.903C85.6022 243.506 85.8295 243.196 86.1136 242.974C86.4005 242.75 86.713 242.594 87.0511 242.506C87.392 242.415 87.7272 242.369 88.0568 242.369C88.267 242.369 88.5085 242.395 88.7812 242.446C89.0568 242.494 89.3224 242.595 89.5781 242.749C89.8366 242.902 90.0511 243.134 90.2215 243.443C90.392 243.753 90.4772 244.168 90.4772 244.688V249H89.4715V248.114H89.4204C89.3522 248.256 89.2386 248.408 89.0795 248.57C88.9204 248.732 88.7087 248.869 88.4445 248.983C88.1803 249.097 87.8579 249.153 87.4772 249.153ZM87.6306 248.25C88.0284 248.25 88.3636 248.172 88.6363 248.016C88.9119 247.859 89.1193 247.658 89.2585 247.411C89.4005 247.163 89.4715 246.903 89.4715 246.631V245.71C89.4289 245.761 89.3352 245.808 89.1903 245.851C89.0482 245.891 88.8835 245.926 88.696 245.957C88.5113 245.986 88.3309 246.011 88.1548 246.034C87.9815 246.054 87.8409 246.071 87.7329 246.085C87.4715 246.119 87.2272 246.175 86.9999 246.251C86.7755 246.325 86.5937 246.437 86.4545 246.588C86.3181 246.736 86.2499 246.937 86.2499 247.193C86.2499 247.543 86.3792 247.807 86.6377 247.986C86.8991 248.162 87.2301 248.25 87.6306 248.25ZM93.0785 240.273V249H92.0728V240.273H93.0785Z" fill="#307FE2"/>
<g clip-path="url(#clip2_2243_31005)">
<path d="M114.543 209L223.91 209" stroke="#002159" stroke-miterlimit="10" stroke-linecap="round" stroke-dasharray="2 2"/>
</g>
<path d="M114.119 212.76C112.042 212.76 110.359 211.077 110.359 209C110.359 206.923 112.042 205.24 114.119 205.24C116.196 205.24 117.879 206.923 117.879 209C117.879 211.077 116.196 212.76 114.119 212.76Z" fill="white"/>
<path d="M114.119 204.74C116.469 204.74 118.379 206.65 118.379 209C118.379 211.35 116.469 213.26 114.119 213.26C111.769 213.26 109.859 211.35 109.859 209C109.859 206.65 111.769 204.74 114.119 204.74C111.769 204.74 116.469 204.74 114.119 204.74ZM114.119 212.26C115.919 212.26 117.379 210.8 117.379 209C117.379 207.2 115.919 205.74 114.119 205.74C112.319 205.74 110.859 207.2 110.859 209C110.859 210.8 112.319 212.26 114.119 212.26C112.319 212.26 115.919 212.26 114.119 212.26Z" fill="#002159"/>
<defs>
<filter id="filter0_f_2243_31005" x="199.359" y="68.439" width="374.844" height="222.324" filterUnits="userSpaceOnUse" color-interpolation-filters="sRGB">
<feFlood flood-opacity="0" result="BackgroundImageFix"/>
<feBlend mode="normal" in="SourceGraphic" in2="BackgroundImageFix" result="shape"/>
<feGaussianBlur stdDeviation="10" result="effect1_foregroundBlur_2243_31005"/>
</filter>
<clipPath id="clip0_2243_31005">
<rect width="378" height="273" fill="white" transform="matrix(-1 0 0 1 576 22)"/>
</clipPath>
<clipPath id="clip1_2243_31005">
<rect width="135" height="52" fill="white" transform="matrix(-1 0 0 1 245 53)"/>
</clipPath>
<clipPath id="clip2_2243_31005">
<rect width="111" height="2" fill="white" transform="matrix(-1 0 0 1 225 208)"/>
</clipPath>
</defs>
</svg>
