<?xml version="1.0" encoding="UTF-8"?>
<svg id="Layer_1" xmlns="http://www.w3.org/2000/svg" viewBox="0 0 372.65 134.48">
  <defs>
    <style>
      .cls-1 {
        fill: #7e7d82;
      }

      .cls-2 {
        fill: #007ad1;
      }
    </style>
  </defs>
  <g>
    <path class="cls-1" d="M0,94.64V.46h37.71c6.93,0,12.71,1.03,17.34,3.08,4.63,2.05,8.11,4.9,10.44,8.53,2.33,3.63,3.5,7.81,3.5,12.53,0,3.68-.74,6.91-2.21,9.68-1.47,2.77-3.49,5.04-6.05,6.81-2.56,1.76-5.48,3.01-8.76,3.75v.92c3.59.15,6.95,1.17,10.09,3.03,3.14,1.87,5.69,4.48,7.66,7.84,1.96,3.36,2.94,7.35,2.94,11.98,0,5-1.23,9.45-3.7,13.36-2.47,3.91-6.11,7-10.92,9.27-4.81,2.27-10.75,3.4-17.8,3.4H0ZM19.91,39.87h14.76c2.73,0,5.16-.48,7.29-1.45,2.13-.97,3.82-2.34,5.06-4.12,1.24-1.78,1.86-3.91,1.86-6.39,0-3.4-1.2-6.15-3.61-8.23-2.41-2.08-5.82-3.13-10.23-3.13h-15.13v23.32ZM19.91,78.36h16.23c5.55,0,9.59-1.06,12.14-3.2,2.54-2.13,3.82-4.97,3.82-8.53,0-2.61-.63-4.9-1.89-6.9-1.26-1.99-3.04-3.56-5.36-4.69-2.32-1.13-5.07-1.7-8.25-1.7h-16.69v25.02Z"/>
    <path class="cls-1" d="M99.62.46v94.18h-19.59V.46h19.59Z"/>
    <path class="cls-1" d="M155.37,64.56V24.01h19.59v70.63h-18.81v-12.83h-.73c-1.59,4.14-4.24,7.47-7.93,9.98-3.69,2.51-8.19,3.77-13.5,3.77-4.72,0-8.88-1.07-12.46-3.22-3.59-2.15-6.39-5.2-8.39-9.15-2.01-3.95-3.03-8.69-3.06-14.21V24.01h19.59v41.48c.03,4.17,1.15,7.47,3.36,9.89,2.21,2.42,5.17,3.63,8.87,3.63,2.36,0,4.57-.54,6.62-1.63,2.05-1.09,3.72-2.7,4.99-4.85,1.27-2.15,1.89-4.8,1.86-7.96Z"/>
  </g>
  <g>
    <polygon class="cls-2" points="372.65 134.48 330.69 67.24 371.73 0 339.63 0 311.63 45.83 284.21 0 251.97 0 293.27 67.24 251.18 134.47 283.75 134.47 311.63 88.58 339.95 134.47 340.36 134.47 340.36 134.48 372.65 134.48"/>
    <polygon class="cls-2" points="277.55 67.24 269.79 54.53 240.8 54.53 256.33 30.59 241.31 6.17 156.67 134.48 188.96 134.48 224.33 79.94 269.79 79.94 277.55 67.24"/>
  </g>
</svg>