<?xml version="1.0" encoding="UTF-8"?>
<svg id="Layer_2" data-name="Layer 2" xmlns="http://www.w3.org/2000/svg" viewBox="0 0 353.22 632.58">
  <defs>
    <style>
      .cls-1 {
        letter-spacing: -.08em;
      }

      .cls-2, .cls-3 {
        letter-spacing: -.07em;
      }

      .cls-4 {
        fill: #fff;
      }

      .cls-5 {
        stroke: #007ad1;
      }

      .cls-5, .cls-3, .cls-6, .cls-7 {
        fill: #e6e7e8;
      }

      .cls-5, .cls-8, .cls-9 {
        stroke-miterlimit: 10;
      }

      .cls-10 {
        fill: #1b588e;
      }

      .cls-3, .cls-7 {
        font-family: AntarcticanMono-Book, 'AntarcticanMono Book';
        font-size: 8.23px;
      }

      .cls-11 {
        fill: #808285;
      }

      .cls-12 {
        fill: #939598;
      }

      .cls-13 {
        letter-spacing: -.09em;
      }

      .cls-14 {
        fill: #d1d3d4;
      }

      .cls-15 {
        fill: #6d6e71;
      }

      .cls-16 {
        fill: #58595b;
      }

      .cls-8 {
        stroke: #20629c;
      }

      .cls-8, .cls-9 {
        fill: none;
      }

      .cls-17 {
        letter-spacing: -.07em;
      }

      .cls-9 {
        stroke: #e6e7e8;
      }

      .cls-18 {
        fill: #bcbec0;
      }

      .cls-19 {
        fill: #00335b;
      }

      .cls-20 {
        fill: #007ad1;
      }
    </style>
  </defs>
  <g id="Layer_2-2" data-name="Layer 2">
    <g>
      <polygon class="cls-20" points="353.22 465.46 206.61 632.58 146.61 632.58 0 465.46 0 37.1 353.22 37.1 353.22 465.46"/>
      <g>
        <g>
          <g>
            <path class="cls-4" d="M112.82,435.72v-32.62h13.06c2.4,0,4.4.36,6,1.07,1.6.71,2.81,1.7,3.62,2.95.81,1.26,1.21,2.71,1.21,4.34,0,1.27-.25,2.39-.76,3.35-.51.96-1.21,1.75-2.09,2.36-.89.61-1.9,1.04-3.03,1.3v.32c1.24.05,2.41.4,3.5,1.05,1.09.65,1.97,1.55,2.65,2.72.68,1.16,1.02,2.55,1.02,4.15,0,1.73-.43,3.27-1.28,4.63-.85,1.35-2.12,2.42-3.78,3.21-1.67.79-3.72,1.18-6.16,1.18h-13.94ZM119.72,416.75h5.11c.94,0,1.79-.17,2.52-.5.74-.33,1.32-.81,1.75-1.43.43-.62.65-1.35.65-2.21,0-1.18-.42-2.13-1.25-2.85-.83-.72-2.01-1.08-3.54-1.08h-5.24v8.07ZM119.72,430.08h5.62c1.92,0,3.32-.37,4.2-1.11.88-.74,1.32-1.72,1.32-2.95,0-.9-.22-1.7-.65-2.39-.44-.69-1.05-1.23-1.86-1.62-.8-.39-1.75-.59-2.86-.59h-5.78v8.66Z"/>
            <path class="cls-4" d="M147.33,403.1v32.62h-6.78v-32.62h6.78Z"/>
            <path class="cls-4" d="M166.63,425.3v-14.05h6.79v24.46h-6.51v-4.44h-.25c-.55,1.43-1.47,2.59-2.75,3.46-1.28.87-2.84,1.31-4.67,1.31-1.64,0-3.07-.37-4.32-1.11-1.24-.74-2.21-1.8-2.91-3.17-.7-1.37-1.05-3.01-1.06-4.92v-15.58h6.78v14.37c.01,1.44.4,2.59,1.16,3.42.76.84,1.79,1.26,3.07,1.26.82,0,1.58-.19,2.29-.57.71-.38,1.29-.94,1.73-1.68.44-.74.66-1.66.64-2.76Z"/>
          </g>
          <g>
            <polygon class="cls-4" points="241.89 449.52 227.36 426.23 241.57 402.94 230.45 402.94 220.76 418.82 211.26 402.94 200.09 402.94 214.39 426.23 199.82 449.52 211.1 449.52 220.76 433.62 230.56 449.52 230.7 449.52 230.7 449.52 241.89 449.52"/>
            <polygon class="cls-4" points="208.95 426.23 206.26 421.83 196.22 421.83 201.6 413.54 196.4 405.08 167.08 449.52 178.27 449.52 190.52 430.63 206.26 430.63 208.95 426.23"/>
          </g>
        </g>
        <g>
          <g>
            <polygon class="cls-4" points="131.33 457.26 117.83 457.26 111.08 457.26 111.08 470.76 117.83 470.76 117.83 464.01 131.33 464.01 131.33 470.76 138.08 470.76 138.08 457.26 131.33 457.26"/>
            <rect class="cls-4" x="121.21" y="467.38" width="6.75" height="13.5" rx="2.52" ry="2.52"/>
            <polygon class="cls-4" points="131.33 482.23 124.56 488.88 117.83 482.23 117.83 474.13 111.08 474.13 111.08 485.06 124.56 498.43 138.08 484.87 138.08 474.13 131.33 474.13 131.33 482.23"/>
          </g>
          <g>
            <path class="cls-4" d="M148.25,476.57v-19.29h6.97c2.27,0,4.17.74,5.7,2.22,1.53,1.48,2.29,3.38,2.29,5.69v3.47c0,2.32-.76,4.22-2.29,5.7-1.53,1.48-3.43,2.21-5.7,2.21h-6.97ZM152.74,460.72v12.4h2.17c1.19,0,2.12-.41,2.8-1.23.67-.82,1.01-1.9,1.01-3.24v-3.5c0-1.33-.34-2.41-1.01-3.22-.67-.81-1.6-1.22-2.8-1.22h-2.17Z"/>
            <path class="cls-4" d="M169.15,476.57h-4.47v-19.29h4.47v19.29Z"/>
            <path class="cls-4" d="M186.16,473.91c-.65.78-1.6,1.46-2.85,2.05-1.25.59-2.81.89-4.69.89-2.38,0-4.32-.73-5.81-2.2-1.49-1.47-2.23-3.37-2.23-5.71v-4.03c0-2.32.73-4.22,2.18-5.7,1.45-1.48,3.32-2.21,5.61-2.21,2.48,0,4.34.57,5.58,1.72,1.24,1.15,1.94,2.72,2.11,4.7l-.03.08h-4.2c-.15-1.02-.48-1.78-.99-2.29-.51-.51-1.28-.77-2.32-.77s-1.88.41-2.52,1.24c-.64.83-.95,1.89-.95,3.2v4.05c0,1.34.31,2.42.94,3.24.63.82,1.51,1.23,2.64,1.23.82,0,1.47-.07,1.93-.2.47-.13.84-.31,1.11-.53v-3.05h-3.03v-2.97h7.53v7.25Z"/>
            <path class="cls-4" d="M192.31,476.57h-4.47v-19.29h4.47v19.29Z"/>
            <path class="cls-4" d="M208.17,460.72h-5.09v15.85h-4.49v-15.85h-5.05v-3.44h14.63v3.44Z"/>
            <path class="cls-4" d="M217.64,472.82h-6.08l-1.09,3.75h-4.51l6.23-19.29h4.81l6.24,19.29h-4.51l-1.1-3.75ZM212.55,469.38h4.09l-2.01-6.9h-.08l-2,6.9Z"/>
            <path class="cls-4" d="M228.58,473.13h8.31v3.45h-12.8v-19.29h4.49v15.85Z"/>
            <path class="cls-4" d="M158.49,494.14c0-.68-.23-1.21-.68-1.58-.45-.37-1.26-.76-2.42-1.18-2.44-.77-4.24-1.59-5.42-2.47-1.17-.88-1.76-2.15-1.76-3.81s.7-2.92,2.1-3.92c1.4-1,3.18-1.5,5.33-1.5s3.89.55,5.25,1.65c1.36,1.1,2.02,2.52,1.98,4.25l-.03.08h-4.35c0-.77-.26-1.39-.78-1.88-.52-.48-1.24-.72-2.16-.72s-1.61.2-2.12.6c-.51.4-.77.89-.77,1.47s.26,1.02.77,1.36c.52.34,1.49.77,2.91,1.28,2.19.65,3.84,1.46,4.95,2.41,1.11.95,1.66,2.27,1.66,3.94s-.66,3.02-1.98,3.98c-1.32.96-3.07,1.44-5.25,1.44s-4.09-.55-5.68-1.65c-1.6-1.1-2.38-2.68-2.33-4.75l.03-.08h4.36c0,1.11.3,1.91.9,2.39.6.48,1.51.72,2.73.72.93,0,1.62-.19,2.07-.56.46-.37.68-.86.68-1.46Z"/>
            <path class="cls-4" d="M180.12,499.25h-4.46v-7.76h-7.14v7.76h-4.49v-19.29h4.49v8.08h7.14v-8.08h4.46v19.29Z"/>
            <path class="cls-4" d="M197.76,491.34c0,2.38-.75,4.34-2.26,5.88-1.51,1.54-3.47,2.31-5.9,2.31s-4.43-.77-5.95-2.31c-1.52-1.54-2.28-3.5-2.28-5.88v-3.47c0-2.37.76-4.32,2.27-5.87,1.51-1.55,3.49-2.32,5.93-2.32s4.39.77,5.91,2.32c1.52,1.55,2.28,3.5,2.28,5.87v3.47ZM193.29,487.85c0-1.38-.32-2.51-.97-3.39-.65-.88-1.57-1.32-2.75-1.32s-2.14.44-2.78,1.32c-.64.88-.96,2.01-.96,3.4v3.5c0,1.4.32,2.54.97,3.42.65.88,1.58,1.32,2.79,1.32s2.08-.44,2.73-1.32c.64-.88.97-2.02.97-3.42v-3.5Z"/>
            <path class="cls-4" d="M205.63,494.02l.13.7h.08l.13-.65,3.83-14.11h4.69l-6.25,19.29h-4.84l-6.23-19.29h4.68l3.78,14.06Z"/>
            <path class="cls-4" d="M227.1,491h-7.57v4.81h8.92v3.44h-13.41v-19.29h13.44v3.44h-8.94v4.15h7.57v3.45Z"/>
            <path class="cls-4" d="M233.83,495.81h8.31v3.44h-12.8v-19.29h4.49v15.85Z"/>
          </g>
        </g>
      </g>
      <polyline class="cls-8" points="58.23 300.74 68.57 300.74 106.66 262.46 127.16 262.46"/>
      <g>
        <circle class="cls-18" cx="26.92" cy="62.89" r="17.56"/>
        <circle class="cls-6" cx="26.92" cy="62.89" r="9.01"/>
      </g>
      <g>
        <circle class="cls-18" cx="323.39" cy="62.89" r="17.56"/>
        <circle class="cls-6" cx="323.39" cy="62.89" r="9.01"/>
      </g>
      <g>
        <circle class="cls-18" cx="176.61" cy="603.8" r="17.56"/>
        <circle class="cls-6" cx="176.61" cy="603.8" r="9.01"/>
      </g>
      <g>
        <polygon class="cls-18" points="86.81 228.76 61.6 228.76 48.99 250.59 61.6 272.43 86.81 272.43 99.41 250.59 86.81 228.76"/>
        <circle class="cls-6" cx="74.2" cy="250.59" r="11.63"/>
      </g>
      <g>
        <polygon class="cls-18" points="290.71 228.76 265.5 228.76 252.9 250.59 265.5 272.43 290.71 272.43 303.32 250.59 290.71 228.76"/>
        <circle class="cls-6" cx="278.11" cy="250.59" r="11.63"/>
      </g>
      <g>
        <polygon class="cls-18" points="86.81 433.62 61.6 433.62 48.99 455.46 61.6 477.29 86.81 477.29 99.41 455.46 86.81 433.62"/>
        <circle class="cls-6" cx="74.2" cy="455.46" r="11.63"/>
      </g>
      <g>
        <polygon class="cls-18" points="290.71 433.62 265.5 433.62 252.9 455.46 265.5 477.29 290.71 477.29 303.32 455.46 290.71 433.62"/>
        <circle class="cls-6" cx="278.11" cy="455.46" r="11.63"/>
      </g>
      <g>
        <polygon class="cls-14" points="40.94 307.02 4.57 307.02 4.57 297.35 6.25 294.97 4.57 292.39 4.57 280.3 6.4 278.17 4.57 275.82 4.57 268.67 40.94 268.67 40.94 276.75 39.39 278.6 40.94 280.19 40.94 293.27 39.13 295.61 40.94 297.75 40.94 307.02"/>
        <rect class="cls-6" x="7.47" y="264.28" width="6.36" height="4.39"/>
        <rect class="cls-6" x="31.79" y="264.28" width="6.36" height="4.39"/>
        <rect class="cls-6" x="7.47" y="307.02" width="6.36" height="4.39"/>
        <rect class="cls-6" x="31.79" y="307.02" width="6.36" height="4.39"/>
        <circle class="cls-20" cx="22.76" cy="286.57" r="9.03"/>
      </g>
      <g>
        <polygon class="cls-14" points="343.7 307.02 307.33 307.02 307.33 297.35 309.01 294.97 307.33 292.39 307.33 280.3 309.16 278.17 307.33 275.82 307.33 268.67 343.7 268.67 343.7 276.75 342.14 278.6 343.7 280.19 343.7 293.27 341.88 295.61 343.7 297.75 343.7 307.02"/>
        <rect class="cls-6" x="310.23" y="264.28" width="6.36" height="4.39"/>
        <rect class="cls-6" x="334.54" y="264.28" width="6.36" height="4.39"/>
        <rect class="cls-6" x="310.23" y="307.02" width="6.36" height="4.39"/>
        <rect class="cls-6" x="334.54" y="307.02" width="6.36" height="4.39"/>
        <circle class="cls-20" cx="325.51" cy="286.57" r="9.03"/>
      </g>
      <g>
        <circle class="cls-18" cx="14.47" cy="104.19" r="8.31"/>
        <circle class="cls-6" cx="14.47" cy="104.19" r="5.76"/>
      </g>
      <g>
        <circle class="cls-18" cx="324.22" cy="194.95" r="8.31"/>
        <circle class="cls-6" cx="324.22" cy="194.95" r="5.76"/>
      </g>
      <circle class="cls-4" cx="304" cy="228.76" r="8.31"/>
      <circle class="cls-4" cx="47.36" cy="483.46" r="8.31"/>
      <circle class="cls-4" cx="11.25" cy="400.62" r="3.2"/>
      <circle class="cls-4" cx="305.84" cy="483.46" r="8.31"/>
      <g>
        <circle class="cls-18" cx="107.26" cy="332.77" r="8.31"/>
        <circle class="cls-6" cx="107.26" cy="332.77" r="5.76"/>
      </g>
      <g>
        <circle class="cls-18" cx="176.61" cy="569.57" r="8.31"/>
        <circle class="cls-6" cx="176.61" cy="569.57" r="5.76"/>
      </g>
      <g>
        <polygon class="cls-5" points="141.77 358.67 140.03 359.67 140.03 361.68 141.77 362.68 143.5 361.68 143.5 359.67 141.77 358.67"/>
        <polygon class="cls-5" points="143.5 355.67 141.77 356.67 141.77 358.68 143.5 359.68 145.24 358.68 145.24 356.67 143.5 355.67"/>
        <polygon class="cls-5" points="145.25 358.68 143.51 359.68 143.51 361.69 145.25 362.69 146.99 361.69 146.99 359.68 145.25 358.68"/>
        <polygon class="cls-5" points="148.73 358.68 147 359.68 147 361.69 148.73 362.69 150.47 361.69 150.47 359.68 148.73 358.68"/>
        <polygon class="cls-5" points="152.22 358.68 150.48 359.68 150.48 361.69 152.22 362.69 153.96 361.69 153.96 359.68 152.22 358.68"/>
        <polygon class="cls-5" points="155.71 358.68 153.97 359.68 153.97 361.69 155.71 362.69 157.44 361.69 157.44 359.68 155.71 358.68"/>
        <polygon class="cls-5" points="159.19 358.68 157.45 359.68 157.45 361.69 159.19 362.69 160.93 361.69 160.93 359.68 159.19 358.68"/>
        <polygon class="cls-5" points="162.68 358.68 160.94 359.68 160.94 361.69 162.68 362.69 164.42 361.69 164.42 359.68 162.68 358.68"/>
        <polygon class="cls-5" points="166.16 358.68 164.43 359.68 164.43 361.69 166.16 362.69 167.9 361.69 167.9 359.68 166.16 358.68"/>
        <polygon class="cls-5" points="169.65 358.68 167.91 359.68 167.91 361.69 169.65 362.69 171.39 361.69 171.39 359.68 169.65 358.68"/>
        <polygon class="cls-5" points="173.14 358.68 171.4 359.68 171.4 361.69 173.14 362.69 174.88 361.69 174.88 359.68 173.14 358.68"/>
        <polygon class="cls-5" points="176.62 358.68 174.88 359.68 174.88 361.69 176.62 362.69 178.36 361.69 178.36 359.68 176.62 358.68"/>
        <polygon class="cls-5" points="180.11 358.68 178.37 359.68 178.37 361.69 180.11 362.69 181.85 361.69 181.85 359.68 180.11 358.68"/>
        <polygon class="cls-5" points="183.59 358.68 181.86 359.68 181.86 361.69 183.59 362.69 185.33 361.69 185.33 359.68 183.59 358.68"/>
        <polygon class="cls-5" points="187.08 358.68 185.34 359.68 185.34 361.69 187.08 362.69 188.82 361.69 188.82 359.68 187.08 358.68"/>
        <polygon class="cls-5" points="190.57 358.68 188.83 359.68 188.83 361.69 190.57 362.69 192.31 361.69 192.31 359.68 190.57 358.68"/>
        <polygon class="cls-5" points="194.05 358.68 192.31 359.68 192.31 361.69 194.05 362.69 195.79 361.69 195.79 359.68 194.05 358.68"/>
        <polygon class="cls-5" points="197.54 358.68 195.8 359.68 195.8 361.69 197.54 362.69 199.28 361.69 199.28 359.68 197.54 358.68"/>
        <polygon class="cls-5" points="150.36 361.83 148.62 362.83 148.62 364.84 150.36 365.84 152.09 364.84 152.09 362.83 150.36 361.83"/>
        <polygon class="cls-5" points="153.84 361.83 152.1 362.83 152.1 364.84 153.84 365.84 155.58 364.84 155.58 362.83 153.84 361.83"/>
        <polygon class="cls-5" points="157.33 361.83 155.59 362.83 155.59 364.84 157.33 365.84 159.07 364.84 159.07 362.83 157.33 361.83"/>
        <polygon class="cls-5" points="160.81 361.83 159.08 362.83 159.08 364.84 160.81 365.84 162.55 364.84 162.55 362.83 160.81 361.83"/>
        <polygon class="cls-5" points="164.3 361.83 162.56 362.83 162.56 364.84 164.3 365.84 166.04 364.84 166.04 362.83 164.3 361.83"/>
        <polygon class="cls-5" points="167.79 361.83 166.05 362.83 166.05 364.84 167.79 365.84 169.53 364.84 169.53 362.83 167.79 361.83"/>
        <polygon class="cls-5" points="171.27 361.83 169.53 362.83 169.53 364.84 171.27 365.84 173.01 364.84 173.01 362.83 171.27 361.83"/>
        <polygon class="cls-5" points="174.76 361.83 173.02 362.83 173.02 364.84 174.76 365.84 176.5 364.84 176.5 362.83 174.76 361.83"/>
        <polygon class="cls-5" points="178.25 361.83 176.51 362.83 176.51 364.84 178.25 365.84 179.98 364.84 179.98 362.83 178.25 361.83"/>
        <polygon class="cls-5" points="181.73 361.83 179.99 362.83 179.99 364.84 181.73 365.84 183.47 364.84 183.47 362.83 181.73 361.83"/>
        <polygon class="cls-5" points="185.22 361.83 183.48 362.83 183.48 364.84 185.22 365.84 186.96 364.84 186.96 362.83 185.22 361.83"/>
        <polygon class="cls-5" points="188.7 361.83 186.97 362.83 186.97 364.84 188.7 365.84 190.44 364.84 190.44 362.83 188.7 361.83"/>
        <polygon class="cls-5" points="192.19 361.83 190.45 362.83 190.45 364.84 192.19 365.84 193.93 364.84 193.93 362.83 192.19 361.83"/>
        <polygon class="cls-5" points="195.68 361.83 193.94 362.83 193.94 364.84 195.68 365.84 197.41 364.84 197.41 362.83 195.68 361.83"/>
        <polygon class="cls-5" points="199.16 361.83 197.42 362.83 197.42 364.84 199.16 365.84 200.9 364.84 200.9 362.83 199.16 361.83"/>
        <polygon class="cls-5" points="148.6 364.86 146.86 365.86 146.86 367.87 148.6 368.87 150.34 367.87 150.34 365.86 148.6 364.86"/>
        <polygon class="cls-5" points="152.08 364.86 150.34 365.86 150.34 367.87 152.08 368.87 153.82 367.87 153.82 365.86 152.08 364.86"/>
        <polygon class="cls-5" points="155.57 364.86 153.83 365.86 153.83 367.87 155.57 368.87 157.31 367.87 157.31 365.86 155.57 364.86"/>
        <polygon class="cls-5" points="159.06 364.86 157.32 365.86 157.32 367.87 159.06 368.87 160.79 367.87 160.79 365.86 159.06 364.86"/>
        <polygon class="cls-5" points="162.54 364.86 160.8 365.86 160.8 367.87 162.54 368.87 164.28 367.87 164.28 365.86 162.54 364.86"/>
        <polygon class="cls-5" points="166.03 364.86 164.29 365.86 164.29 367.87 166.03 368.87 167.77 367.87 167.77 365.86 166.03 364.86"/>
        <polygon class="cls-5" points="169.51 364.86 167.78 365.86 167.78 367.87 169.51 368.87 171.25 367.87 171.25 365.86 169.51 364.86"/>
        <polygon class="cls-5" points="173 364.86 171.26 365.86 171.26 367.87 173 368.87 174.74 367.87 174.74 365.86 173 364.86"/>
        <polygon class="cls-5" points="176.49 364.86 174.75 365.86 174.75 367.87 176.49 368.87 178.22 367.87 178.22 365.86 176.49 364.86"/>
        <polygon class="cls-5" points="179.97 364.86 178.23 365.86 178.23 367.87 179.97 368.87 181.71 367.87 181.71 365.86 179.97 364.86"/>
        <polygon class="cls-5" points="183.46 364.86 181.72 365.86 181.72 367.87 183.46 368.87 185.2 367.87 185.2 365.86 183.46 364.86"/>
        <polygon class="cls-5" points="186.94 364.86 185.21 365.86 185.21 367.87 186.94 368.87 188.68 367.87 188.68 365.86 186.94 364.86"/>
        <polygon class="cls-5" points="190.43 364.86 188.69 365.86 188.69 367.87 190.43 368.87 192.17 367.87 192.17 365.86 190.43 364.86"/>
        <polygon class="cls-5" points="193.92 364.86 192.18 365.86 192.18 367.87 193.92 368.87 195.66 367.87 195.66 365.86 193.92 364.86"/>
        <polygon class="cls-5" points="197.4 364.86 195.66 365.86 195.66 367.87 197.4 368.87 199.14 367.87 199.14 365.86 197.4 364.86"/>
        <polygon class="cls-5" points="146.87 367.9 145.13 368.91 145.13 370.92 146.87 371.92 148.61 370.92 148.61 368.91 146.87 367.9"/>
        <polygon class="cls-5" points="150.36 367.9 148.62 368.91 148.62 370.92 150.36 371.92 152.09 370.92 152.09 368.91 150.36 367.9"/>
        <polygon class="cls-5" points="153.84 367.9 152.1 368.91 152.1 370.92 153.84 371.92 155.58 370.92 155.58 368.91 153.84 367.9"/>
        <polygon class="cls-5" points="157.33 367.9 155.59 368.91 155.59 370.92 157.33 371.92 159.07 370.92 159.07 368.91 157.33 367.9"/>
        <polygon class="cls-5" points="160.81 367.9 159.08 368.91 159.08 370.92 160.81 371.92 162.55 370.92 162.55 368.91 160.81 367.9"/>
        <polygon class="cls-5" points="164.3 367.9 162.56 368.91 162.56 370.92 164.3 371.92 166.04 370.92 166.04 368.91 164.3 367.9"/>
        <polygon class="cls-5" points="167.79 367.9 166.05 368.91 166.05 370.92 167.79 371.92 169.53 370.92 169.53 368.91 167.79 367.9"/>
        <polygon class="cls-5" points="171.27 367.9 169.53 368.91 169.53 370.92 171.27 371.92 173.01 370.92 173.01 368.91 171.27 367.9"/>
        <polygon class="cls-5" points="174.76 367.9 173.02 368.91 173.02 370.92 174.76 371.92 176.5 370.92 176.5 368.91 174.76 367.9"/>
        <polygon class="cls-5" points="178.25 367.9 176.51 368.91 176.51 370.92 178.25 371.92 179.98 370.92 179.98 368.91 178.25 367.9"/>
        <polygon class="cls-5" points="181.73 367.9 179.99 368.91 179.99 370.92 181.73 371.92 183.47 370.92 183.47 368.91 181.73 367.9"/>
        <polygon class="cls-5" points="185.22 367.9 183.48 368.91 183.48 370.92 185.22 371.92 186.96 370.92 186.96 368.91 185.22 367.9"/>
        <polygon class="cls-5" points="188.7 367.9 186.97 368.91 186.97 370.92 188.7 371.92 190.44 370.92 190.44 368.91 188.7 367.9"/>
        <polygon class="cls-5" points="192.19 367.9 190.45 368.91 190.45 370.92 192.19 371.92 193.93 370.92 193.93 368.91 192.19 367.9"/>
        <polygon class="cls-5" points="195.68 367.9 193.94 368.91 193.94 370.92 195.68 371.92 197.41 370.92 197.41 368.91 195.68 367.9"/>
        <polygon class="cls-5" points="199.18 367.9 197.45 368.91 197.45 370.92 199.18 371.92 200.92 370.92 200.92 368.91 199.18 367.9"/>
        <polygon class="cls-5" points="145.12 370.94 143.38 371.94 143.38 373.95 145.12 374.95 146.85 373.95 146.85 371.94 145.12 370.94"/>
        <polygon class="cls-5" points="148.6 370.94 146.86 371.94 146.86 373.95 148.6 374.95 150.34 373.95 150.34 371.94 148.6 370.94"/>
        <polygon class="cls-5" points="152.09 370.94 150.35 371.94 150.35 373.95 152.09 374.95 153.83 373.95 153.83 371.94 152.09 370.94"/>
        <polygon class="cls-5" points="155.57 370.94 153.84 371.94 153.84 373.95 155.57 374.95 157.31 373.95 157.31 371.94 155.57 370.94"/>
        <polygon class="cls-5" points="159.06 370.94 157.32 371.94 157.32 373.95 159.06 374.95 160.8 373.95 160.8 371.94 159.06 370.94"/>
        <polygon class="cls-5" points="162.55 370.94 160.81 371.94 160.81 373.95 162.55 374.95 164.29 373.95 164.29 371.94 162.55 370.94"/>
        <polygon class="cls-5" points="166.03 370.94 164.29 371.94 164.29 373.95 166.03 374.95 167.77 373.95 167.77 371.94 166.03 370.94"/>
        <polygon class="cls-5" points="169.52 370.94 167.78 371.94 167.78 373.95 169.52 374.95 171.26 373.95 171.26 371.94 169.52 370.94"/>
        <polygon class="cls-5" points="173.01 370.94 171.27 371.94 171.27 373.95 173.01 374.95 174.74 373.95 174.74 371.94 173.01 370.94"/>
        <polygon class="cls-5" points="176.49 370.94 174.75 371.94 174.75 373.95 176.49 374.95 178.23 373.95 178.23 371.94 176.49 370.94"/>
        <polygon class="cls-5" points="179.98 370.94 178.24 371.94 178.24 373.95 179.98 374.95 181.72 373.95 181.72 371.94 179.98 370.94"/>
        <polygon class="cls-5" points="183.46 370.94 181.73 371.94 181.73 373.95 183.46 374.95 185.2 373.95 185.2 371.94 183.46 370.94"/>
        <polygon class="cls-5" points="186.95 370.94 185.21 371.94 185.21 373.95 186.95 374.95 188.69 373.95 188.69 371.94 186.95 370.94"/>
        <polygon class="cls-5" points="190.44 370.94 188.7 371.94 188.7 373.95 190.44 374.95 192.17 373.95 192.17 371.94 190.44 370.94"/>
        <polygon class="cls-5" points="193.94 370.94 192.21 371.94 192.21 373.95 193.94 374.95 195.68 373.95 195.68 371.94 193.94 370.94"/>
        <polygon class="cls-5" points="197.4 370.94 195.66 371.94 195.66 373.95 197.4 374.95 199.14 373.95 199.14 371.94 197.4 370.94"/>
        <polygon class="cls-5" points="200.86 370.94 199.12 371.94 199.12 373.95 200.86 374.95 202.6 373.95 202.6 371.94 200.86 370.94"/>
      </g>
      <g>
        <polygon class="cls-5" points="31.66 200 29.92 201.01 29.92 203.01 31.66 204.02 33.39 203.01 33.39 201.01 31.66 200"/>
        <polygon class="cls-5" points="35.14 200 33.4 201.01 33.4 203.01 35.14 204.02 36.88 203.01 36.88 201.01 35.14 200"/>
        <polygon class="cls-5" points="38.63 200 36.89 201.01 36.89 203.01 38.63 204.02 40.37 203.01 40.37 201.01 38.63 200"/>
        <polygon class="cls-5" points="31.66 193.96 29.92 194.97 29.92 196.98 31.66 197.98 33.39 196.98 33.39 194.97 31.66 193.96"/>
        <polygon class="cls-5" points="35.14 193.96 33.4 194.97 33.4 196.98 35.14 197.98 36.88 196.98 36.88 194.97 35.14 193.96"/>
        <polygon class="cls-5" points="38.63 193.96 36.89 194.97 36.89 196.98 38.63 197.98 40.37 196.98 40.37 194.97 38.63 193.96"/>
        <polygon class="cls-5" points="29.91 196.99 28.17 198 28.17 200 29.91 201.01 31.65 200 31.65 198 29.91 196.99"/>
        <polygon class="cls-5" points="33.39 196.99 31.66 198 31.66 200 33.39 201.01 35.13 200 35.13 198 33.39 196.99"/>
        <polygon class="cls-5" points="36.88 196.99 35.14 198 35.14 200 36.88 201.01 38.62 200 38.62 198 36.88 196.99"/>
        <polygon class="cls-5" points="40.36 196.99 38.62 198 38.62 200 40.36 201.01 42.1 200 42.1 198 40.36 196.99"/>
        <polygon class="cls-5" points="29.79 203.15 28.05 204.16 28.05 206.16 29.79 207.17 31.53 206.16 31.53 204.16 29.79 203.15"/>
        <polygon class="cls-5" points="33.28 203.15 31.54 204.16 31.54 206.16 33.28 207.17 35.02 206.16 35.02 204.16 33.28 203.15"/>
        <polygon class="cls-5" points="36.77 203.15 35.03 204.16 35.03 206.16 36.77 207.17 38.5 206.16 38.5 204.16 36.77 203.15"/>
        <polygon class="cls-5" points="40.25 203.15 38.51 204.16 38.51 206.16 40.25 207.17 41.99 206.16 41.99 204.16 40.25 203.15"/>
        <polygon class="cls-5" points="28.03 206.18 26.3 207.19 26.3 209.19 28.03 210.2 29.77 209.19 29.77 207.19 28.03 206.18"/>
        <polygon class="cls-5" points="31.52 206.18 29.78 207.19 29.78 209.19 31.52 210.2 33.26 209.19 33.26 207.19 31.52 206.18"/>
        <polygon class="cls-5" points="35.01 206.18 33.27 207.19 33.27 209.19 35.01 210.2 36.74 209.19 36.74 207.19 35.01 206.18"/>
        <polygon class="cls-5" points="38.49 206.18 36.75 207.19 36.75 209.19 38.49 210.2 40.23 209.19 40.23 207.19 38.49 206.18"/>
        <polygon class="cls-5" points="41.98 206.18 40.24 207.19 40.24 209.19 41.98 210.2 43.72 209.19 43.72 207.19 41.98 206.18"/>
        <polygon class="cls-5" points="12.36 209.23 10.62 210.23 10.62 212.24 12.36 213.24 14.1 212.24 14.1 210.23 12.36 209.23"/>
        <polygon class="cls-5" points="15.85 209.23 14.11 210.23 14.11 212.24 15.85 213.24 17.59 212.24 17.59 210.23 15.85 209.23"/>
        <polygon class="cls-5" points="19.33 209.23 17.6 210.23 17.6 212.24 19.33 213.24 21.07 212.24 21.07 210.23 19.33 209.23"/>
        <polygon class="cls-5" points="22.82 209.23 21.08 210.23 21.08 212.24 22.82 213.24 24.56 212.24 24.56 210.23 22.82 209.23"/>
        <polygon class="cls-5" points="26.31 209.23 24.57 210.23 24.57 212.24 26.31 213.24 28.05 212.24 28.05 210.23 26.31 209.23"/>
        <polygon class="cls-5" points="29.79 209.23 28.05 210.23 28.05 212.24 29.79 213.24 31.53 212.24 31.53 210.23 29.79 209.23"/>
        <polygon class="cls-5" points="33.28 209.23 31.54 210.23 31.54 212.24 33.28 213.24 35.02 212.24 35.02 210.23 33.28 209.23"/>
        <polygon class="cls-5" points="36.77 209.23 35.03 210.23 35.03 212.24 36.77 213.24 38.5 212.24 38.5 210.23 36.77 209.23"/>
        <polygon class="cls-5" points="40.25 209.23 38.51 210.23 38.51 212.24 40.25 213.24 41.99 212.24 41.99 210.23 40.25 209.23"/>
        <polygon class="cls-5" points="43.74 209.23 42 210.23 42 212.24 43.74 213.24 45.48 212.24 45.48 210.23 43.74 209.23"/>
        <polygon class="cls-5" points="47.22 209.23 45.49 210.23 45.49 212.24 47.22 213.24 48.96 212.24 48.96 210.23 47.22 209.23"/>
        <polygon class="cls-5" points="50.71 209.23 48.97 210.23 48.97 212.24 50.71 213.24 52.45 212.24 52.45 210.23 50.71 209.23"/>
        <polygon class="cls-5" points="54.2 209.23 52.46 210.23 52.46 212.24 54.2 213.24 55.93 212.24 55.93 210.23 54.2 209.23"/>
        <polygon class="cls-5" points="57.68 209.23 55.94 210.23 55.94 212.24 57.68 213.24 59.42 212.24 59.42 210.23 57.68 209.23"/>
        <polygon class="cls-5" points="61.17 209.23 59.43 210.23 59.43 212.24 61.17 213.24 62.91 212.24 62.91 210.23 61.17 209.23"/>
        <polygon class="cls-5" points="64.68 209.23 62.94 210.23 62.94 212.24 64.68 213.24 66.41 212.24 66.41 210.23 64.68 209.23"/>
        <polygon class="cls-5" points="68.1 215.28 66.36 216.28 66.36 218.29 68.1 219.3 69.83 218.29 69.83 216.28 68.1 215.28"/>
        <polygon class="cls-5" points="10.61 212.26 8.87 213.27 8.87 215.28 10.61 216.28 12.35 215.28 12.35 213.27 10.61 212.26"/>
        <polygon class="cls-5" points="14.09 212.26 12.36 213.27 12.36 215.28 14.09 216.28 15.83 215.28 15.83 213.27 14.09 212.26"/>
        <polygon class="cls-5" points="17.58 212.26 15.84 213.27 15.84 215.28 17.58 216.28 19.32 215.28 19.32 213.27 17.58 212.26"/>
        <polygon class="cls-5" points="21.07 212.26 19.33 213.27 19.33 215.28 21.07 216.28 22.81 215.28 22.81 213.27 21.07 212.26"/>
        <polygon class="cls-5" points="24.55 212.26 22.81 213.27 22.81 215.28 24.55 216.28 26.29 215.28 26.29 213.27 24.55 212.26"/>
        <polygon class="cls-5" points="28.04 212.26 26.3 213.27 26.3 215.28 28.04 216.28 29.78 215.28 29.78 213.27 28.04 212.26"/>
        <polygon class="cls-5" points="31.53 212.26 29.79 213.27 29.79 215.28 31.53 216.28 33.26 215.28 33.26 213.27 31.53 212.26"/>
        <polygon class="cls-5" points="35.01 212.26 33.27 213.27 33.27 215.28 35.01 216.28 36.75 215.28 36.75 213.27 35.01 212.26"/>
        <polygon class="cls-5" points="38.5 212.26 36.76 213.27 36.76 215.28 38.5 216.28 40.24 215.28 40.24 213.27 38.5 212.26"/>
        <polygon class="cls-5" points="41.98 212.26 40.25 213.27 40.25 215.28 41.98 216.28 43.72 215.28 43.72 213.27 41.98 212.26"/>
        <polygon class="cls-5" points="45.47 212.26 43.73 213.27 43.73 215.28 45.47 216.28 47.21 215.28 47.21 213.27 45.47 212.26"/>
        <polygon class="cls-5" points="48.96 212.26 47.22 213.27 47.22 215.28 48.96 216.28 50.69 215.28 50.69 213.27 48.96 212.26"/>
        <polygon class="cls-5" points="52.44 212.26 50.7 213.27 50.7 215.28 52.44 216.28 54.18 215.28 54.18 213.27 52.44 212.26"/>
        <polygon class="cls-5" points="55.93 212.26 54.19 213.27 54.19 215.28 55.93 216.28 57.67 215.28 57.67 213.27 55.93 212.26"/>
        <polygon class="cls-5" points="59.44 212.26 57.7 213.27 57.7 215.28 59.44 216.28 61.17 215.28 61.17 213.27 59.44 212.26"/>
        <polygon class="cls-5" points="62.89 212.26 61.16 213.27 61.16 215.28 62.89 216.28 64.63 215.28 64.63 213.27 62.89 212.26"/>
        <polygon class="cls-5" points="66.35 212.26 64.62 213.27 64.62 215.28 66.35 216.28 68.09 215.28 68.09 213.27 66.35 212.26"/>
        <polygon class="cls-5" points="69.84 212.26 68.1 213.27 68.1 215.28 69.84 216.28 71.58 215.28 71.58 213.27 69.84 212.26"/>
      </g>
      <g>
        <rect class="cls-15" x="310.23" y="334.33" width="18.01" height="18.01"/>
        <g>
          <g>
            <rect class="cls-12" x="307.37" y="335.67" width="2.86" height="2.86"/>
            <rect class="cls-6" x="300.83" y="336.01" width="2.18" height="2.18"/>
            <rect class="cls-14" x="303.02" y="336.5" width="4.35" height="1.21"/>
          </g>
          <g>
            <rect class="cls-12" x="307.37" y="339.82" width="2.86" height="2.86"/>
            <rect class="cls-6" x="300.83" y="340.16" width="2.18" height="2.18"/>
            <rect class="cls-14" x="303.02" y="340.65" width="4.35" height="1.21"/>
          </g>
          <g>
            <rect class="cls-12" x="307.37" y="343.97" width="2.86" height="2.86"/>
            <rect class="cls-6" x="300.83" y="344.31" width="2.18" height="2.18"/>
            <rect class="cls-14" x="303.02" y="344.8" width="4.35" height="1.21"/>
          </g>
          <g>
            <rect class="cls-12" x="307.37" y="348.13" width="2.86" height="2.86"/>
            <rect class="cls-6" x="300.83" y="348.47" width="2.18" height="2.18"/>
            <rect class="cls-14" x="303.02" y="348.95" width="4.35" height="1.21"/>
          </g>
        </g>
        <g>
          <g>
            <rect class="cls-12" x="328.24" y="335.67" width="2.86" height="2.86" transform="translate(659.33 674.2) rotate(180)"/>
            <rect class="cls-6" x="335.45" y="336.01" width="2.18" height="2.18" transform="translate(673.08 674.2) rotate(180)"/>
            <rect class="cls-14" x="331.1" y="336.5" width="4.35" height="1.21" transform="translate(666.55 674.2) rotate(180)"/>
          </g>
          <g>
            <rect class="cls-12" x="328.24" y="339.82" width="2.86" height="2.86" transform="translate(659.33 682.51) rotate(180)"/>
            <rect class="cls-6" x="335.45" y="340.16" width="2.18" height="2.18" transform="translate(673.08 682.51) rotate(180)"/>
            <rect class="cls-14" x="331.1" y="340.65" width="4.35" height="1.21" transform="translate(666.55 682.51) rotate(180)"/>
          </g>
          <g>
            <rect class="cls-12" x="328.24" y="343.97" width="2.86" height="2.86" transform="translate(659.33 690.81) rotate(180)"/>
            <rect class="cls-6" x="335.45" y="344.31" width="2.18" height="2.18" transform="translate(673.08 690.81) rotate(180)"/>
            <rect class="cls-14" x="331.1" y="344.8" width="4.35" height="1.21" transform="translate(666.55 690.81) rotate(180)"/>
          </g>
          <g>
            <rect class="cls-12" x="328.24" y="348.13" width="2.86" height="2.86" transform="translate(659.33 699.12) rotate(180)"/>
            <rect class="cls-6" x="335.45" y="348.47" width="2.18" height="2.18" transform="translate(673.08 699.12) rotate(180)"/>
            <rect class="cls-14" x="331.1" y="348.95" width="4.35" height="1.21" transform="translate(666.55 699.12) rotate(180)"/>
          </g>
        </g>
      </g>
      <g>
        <rect class="cls-15" x="310.23" y="362.3" width="18.01" height="18.01"/>
        <g>
          <g>
            <rect class="cls-12" x="307.37" y="363.64" width="2.86" height="2.86"/>
            <rect class="cls-6" x="300.83" y="363.98" width="2.18" height="2.18"/>
            <rect class="cls-14" x="303.02" y="364.47" width="4.35" height="1.21"/>
          </g>
          <g>
            <rect class="cls-12" x="307.37" y="367.79" width="2.86" height="2.86"/>
            <rect class="cls-6" x="300.83" y="368.13" width="2.18" height="2.18"/>
            <rect class="cls-14" x="303.02" y="368.62" width="4.35" height="1.21"/>
          </g>
          <g>
            <rect class="cls-12" x="307.37" y="371.94" width="2.86" height="2.86"/>
            <rect class="cls-6" x="300.83" y="372.28" width="2.18" height="2.18"/>
            <rect class="cls-14" x="303.02" y="372.77" width="4.35" height="1.21"/>
          </g>
          <g>
            <rect class="cls-12" x="307.37" y="376.1" width="2.86" height="2.86"/>
            <rect class="cls-6" x="300.83" y="376.44" width="2.18" height="2.18"/>
            <rect class="cls-14" x="303.02" y="376.92" width="4.35" height="1.21"/>
          </g>
        </g>
        <g>
          <g>
            <rect class="cls-12" x="328.24" y="363.64" width="2.86" height="2.86" transform="translate(659.33 730.14) rotate(180)"/>
            <rect class="cls-6" x="335.45" y="363.98" width="2.18" height="2.18" transform="translate(673.08 730.14) rotate(180)"/>
            <rect class="cls-14" x="331.1" y="364.47" width="4.35" height="1.21" transform="translate(666.55 730.14) rotate(180)"/>
          </g>
          <g>
            <rect class="cls-12" x="328.24" y="367.79" width="2.86" height="2.86" transform="translate(659.33 738.45) rotate(180)"/>
            <rect class="cls-6" x="335.45" y="368.13" width="2.18" height="2.18" transform="translate(673.08 738.45) rotate(180)"/>
            <rect class="cls-14" x="331.1" y="368.62" width="4.35" height="1.21" transform="translate(666.55 738.45) rotate(180)"/>
          </g>
          <g>
            <rect class="cls-12" x="328.24" y="371.94" width="2.86" height="2.86" transform="translate(659.33 746.75) rotate(180)"/>
            <rect class="cls-6" x="335.45" y="372.28" width="2.18" height="2.18" transform="translate(673.08 746.75) rotate(180)"/>
            <rect class="cls-14" x="331.1" y="372.77" width="4.35" height="1.21" transform="translate(666.55 746.75) rotate(180)"/>
          </g>
          <g>
            <rect class="cls-12" x="328.24" y="376.1" width="2.86" height="2.86" transform="translate(659.33 755.06) rotate(180)"/>
            <rect class="cls-6" x="335.45" y="376.44" width="2.18" height="2.18" transform="translate(673.08 755.06) rotate(180)"/>
            <rect class="cls-14" x="331.1" y="376.92" width="4.35" height="1.21" transform="translate(666.55 755.06) rotate(180)"/>
          </g>
        </g>
      </g>
      <g>
        <rect class="cls-15" x="52.1" y="384.75" width="18.01" height="18.01" transform="translate(454.86 332.65) rotate(90)"/>
        <g>
          <g>
            <rect class="cls-12" x="65.9" y="381.89" width="2.86" height="2.86" transform="translate(450.65 315.98) rotate(90)"/>
            <rect class="cls-6" x="66.24" y="375.35" width="2.18" height="2.18" transform="translate(443.78 309.11) rotate(90)"/>
            <rect class="cls-14" x="65.16" y="379.11" width="4.35" height="1.21" transform="translate(447.05 312.38) rotate(90)"/>
          </g>
          <g>
            <rect class="cls-12" x="61.75" y="381.89" width="2.86" height="2.86" transform="translate(446.5 320.14) rotate(90)"/>
            <rect class="cls-6" x="62.09" y="375.35" width="2.18" height="2.18" transform="translate(439.62 313.26) rotate(90)"/>
            <rect class="cls-14" x="61.01" y="379.11" width="4.35" height="1.21" transform="translate(442.89 316.53) rotate(90)"/>
          </g>
          <g>
            <rect class="cls-12" x="57.6" y="381.89" width="2.86" height="2.86" transform="translate(442.35 324.29) rotate(90)"/>
            <rect class="cls-6" x="57.94" y="375.35" width="2.18" height="2.18" transform="translate(435.47 317.41) rotate(90)"/>
            <rect class="cls-14" x="56.85" y="379.11" width="4.35" height="1.21" transform="translate(438.74 320.68) rotate(90)"/>
          </g>
          <g>
            <rect class="cls-12" x="53.45" y="381.89" width="2.86" height="2.86" transform="translate(438.2 328.44) rotate(90)"/>
            <rect class="cls-6" x="53.79" y="375.35" width="2.18" height="2.18" transform="translate(431.32 321.57) rotate(90)"/>
            <rect class="cls-14" x="52.7" y="379.11" width="4.35" height="1.21" transform="translate(434.59 324.83) rotate(90)"/>
          </g>
        </g>
        <g>
          <g>
            <rect class="cls-12" x="65.9" y="402.75" width="2.86" height="2.86" transform="translate(-336.85 471.52) rotate(-90)"/>
            <rect class="cls-6" x="66.24" y="409.97" width="2.18" height="2.18" transform="translate(-343.73 478.39) rotate(-90)"/>
            <rect class="cls-14" x="65.16" y="407.19" width="4.35" height="1.21" transform="translate(-340.46 475.13) rotate(-90)"/>
          </g>
          <g>
            <rect class="cls-12" x="61.75" y="402.75" width="2.86" height="2.86" transform="translate(-341 467.37) rotate(-90)"/>
            <rect class="cls-6" x="62.09" y="409.97" width="2.18" height="2.18" transform="translate(-347.88 474.24) rotate(-90)"/>
            <rect class="cls-14" x="61.01" y="407.19" width="4.35" height="1.21" transform="translate(-344.61 470.97) rotate(-90)"/>
          </g>
          <g>
            <rect class="cls-12" x="57.6" y="402.75" width="2.86" height="2.86" transform="translate(-345.16 463.21) rotate(-90)"/>
            <rect class="cls-6" x="57.94" y="409.97" width="2.18" height="2.18" transform="translate(-352.03 470.09) rotate(-90)"/>
            <rect class="cls-14" x="56.85" y="407.19" width="4.35" height="1.21" transform="translate(-348.76 466.82) rotate(-90)"/>
          </g>
          <g>
            <rect class="cls-12" x="53.45" y="402.75" width="2.86" height="2.86" transform="translate(-349.31 459.06) rotate(-90)"/>
            <rect class="cls-6" x="53.79" y="409.97" width="2.18" height="2.18" transform="translate(-356.18 465.94) rotate(-90)"/>
            <rect class="cls-14" x="52.7" y="407.19" width="4.35" height="1.21" transform="translate(-352.91 462.67) rotate(-90)"/>
          </g>
        </g>
      </g>
      <rect class="cls-12" x="286.45" y="365.07" width="3.26" height="7.21"/>
      <rect class="cls-12" x="55.97" y="359.35" width="3.26" height="7.21"/>
      <rect class="cls-12" x="57.4" y="414.97" width="3.26" height="7.21"/>
      <rect class="cls-12" x="48.15" y="366.31" width="3.26" height="7.21"/>
      <rect class="cls-12" x="39.9" y="375.35" width="3.26" height="7.21"/>
      <rect class="cls-12" x="33.05" y="375.35" width="3.26" height="7.21"/>
      <rect class="cls-12" x="61.75" y="359.35" width="3.26" height="7.21"/>
      <rect class="cls-12" x="58.83" y="367.35" width="3.26" height="7.21" transform="translate(431.42 310.5) rotate(90)"/>
      <rect class="cls-12" x="235.16" y="341.6" width="3.26" height="7.21" transform="translate(582 108.41) rotate(90)"/>
      <rect class="cls-12" x="261.64" y="328.31" width="3.26" height="7.21" transform="translate(595.18 68.65) rotate(90)"/>
      <rect class="cls-12" x="274.79" y="326.68" width="3.26" height="7.21" transform="translate(606.7 53.87) rotate(90)"/>
      <rect class="cls-12" x="271.8" y="310.07" width="3.26" height="7.21" transform="translate(546.87 627.36) rotate(180)"/>
      <rect class="cls-12" x="279.6" y="308.16" width="4.99" height="11.05" transform="translate(564.19 627.36) rotate(180)"/>
      <rect class="cls-12" x="287.21" y="308.16" width="4.99" height="11.05" transform="translate(579.42 627.36) rotate(180)"/>
      <rect class="cls-12" x="249.59" y="331.32" width="3.26" height="7.21" transform="translate(502.44 669.85) rotate(180)"/>
      <rect class="cls-12" x="281.7" y="320.49" width="3.26" height="7.21" transform="translate(607.43 40.77) rotate(90)"/>
      <rect class="cls-12" x="109.69" y="241.8" width="3.26" height="7.21" transform="translate(356.72 134.08) rotate(90)"/>
      <rect class="cls-12" x="121.96" y="241.8" width="3.26" height="7.21" transform="translate(247.17 490.81) rotate(180)"/>
      <rect class="cls-12" x="119.24" y="206.39" width="3.26" height="7.21" transform="translate(241.74 419.99) rotate(180)"/>
      <rect class="cls-12" x="128.56" y="247.75" width="3.26" height="7.21" transform="translate(260.37 502.71) rotate(180)"/>
      <rect class="cls-12" x="134.64" y="247.75" width="3.26" height="7.21" transform="translate(272.54 502.71) rotate(180)"/>
      <rect class="cls-12" x="4.57" y="222.45" width="3.26" height="7.21" transform="translate(12.41 452.1) rotate(180)"/>
      <rect class="cls-12" x="23.54" y="222.45" width="3.26" height="7.21" transform="translate(50.35 452.1) rotate(180)"/>
      <rect class="cls-12" x="47.36" y="298.53" width="3.26" height="7.21" transform="translate(97.99 604.27) rotate(180)"/>
      <rect class="cls-12" x="47.36" y="309.89" width="3.26" height="7.21" transform="translate(97.99 627) rotate(180)"/>
      <rect class="cls-12" x="54.97" y="298.53" width="3.26" height="7.21" transform="translate(113.19 604.27) rotate(180)"/>
      <rect class="cls-12" x="33.21" y="222.45" width="3.26" height="7.21" transform="translate(69.68 452.1) rotate(180)"/>
      <rect class="cls-12" x="52.57" y="222.45" width="3.26" height="7.21" transform="translate(108.39 452.1) rotate(180)"/>
      <rect class="cls-12" x="6.2" y="233.61" width="3.26" height="7.21" transform="translate(-229.38 245.04) rotate(-90)"/>
      <rect class="cls-12" x="4.21" y="243.38" width="3.26" height="7.21"/>
      <rect class="cls-12" x="21.91" y="243.38" width="3.26" height="7.21"/>
      <rect class="cls-12" x="8.98" y="254.23" width="3.26" height="7.21" transform="translate(-247.22 268.44) rotate(-90)"/>
      <rect class="cls-12" x="19.94" y="254.23" width="3.26" height="7.21" transform="translate(-236.27 279.4) rotate(-90)"/>
      <rect class="cls-12" x="20.5" y="233.61" width="3.26" height="7.21" transform="translate(-215.09 259.34) rotate(-90)"/>
      <rect class="cls-12" x="34.79" y="233.61" width="3.26" height="7.21" transform="translate(-200.79 273.63) rotate(-90)"/>
      <rect class="cls-12" x="47.97" y="233.61" width="3.26" height="7.21" transform="translate(-187.61 286.81) rotate(-90)"/>
      <rect class="cls-12" x="160.12" y="236.91" width="3.26" height="7.21" transform="translate(323.5 481.02) rotate(180)"/>
      <rect class="cls-12" x="109.69" y="235.65" width="3.26" height="7.21" transform="translate(350.58 127.94) rotate(90)"/>
      <rect class="cls-12" x="131.03" y="238.54" width="3.26" height="7.21" transform="translate(374.8 109.48) rotate(90)"/>
      <rect class="cls-12" x="109.69" y="229.5" width="3.26" height="7.21" transform="translate(344.43 121.79) rotate(90)"/>
      <rect class="cls-12" x="109.69" y="223.36" width="3.26" height="7.21" transform="translate(338.28 115.64) rotate(90)"/>
      <rect class="cls-12" x="109.69" y="217.21" width="3.26" height="7.21" transform="translate(332.13 109.5) rotate(90)"/>
      <rect class="cls-12" x="109.69" y="211.06" width="3.26" height="7.21" transform="translate(325.99 103.35) rotate(90)"/>
      <rect class="cls-12" x="33.21" y="145.25" width="3.26" height="7.21" transform="translate(183.7 114.02) rotate(90)"/>
      <rect class="cls-16" x="81.08" y="185.47" width="9.5" height="21.01" transform="translate(281.8 110.14) rotate(90)"/>
      <rect class="cls-16" x="81.08" y="204.24" width="9.5" height="21.01" transform="translate(300.57 128.91) rotate(90)"/>
      <rect class="cls-12" x="34.02" y="133.6" width="3.26" height="7.21" transform="translate(172.86 101.56) rotate(90)"/>
      <rect class="cls-12" x="34.02" y="127.55" width="3.26" height="7.21" transform="translate(166.81 95.51) rotate(90)"/>
      <rect class="cls-12" x="281.7" y="300.16" width="3.26" height="7.21" transform="translate(587.1 20.43) rotate(90)"/>
      <rect class="cls-12" x="286.45" y="375.35" width="3.26" height="7.21"/>
      <rect class="cls-12" x="293.64" y="365.07" width="3.26" height="7.21"/>
      <rect class="cls-12" x="340.91" y="337.04" width="3.26" height="7.21"/>
      <rect class="cls-12" x="340.91" y="365.07" width="3.26" height="7.21"/>
      <g>
        <rect class="cls-6" x="186.93" y="286.56" width="8.27" height="16.2" transform="translate(485.72 103.59) rotate(90)"/>
        <rect class="cls-12" x="188.44" y="288.13" width="5.24" height="13.05" rx=".88" ry=".88" transform="translate(485.72 103.59) rotate(90)"/>
      </g>
      <g>
        <rect class="cls-6" x="324.1" y="138.75" width="8.27" height="16.2" transform="translate(475.08 -181.39) rotate(90)"/>
        <rect class="cls-12" x="325.61" y="140.32" width="5.24" height="13.05" rx=".88" ry=".88" transform="translate(475.08 -181.39) rotate(90)"/>
      </g>
      <g>
        <rect class="cls-6" x="324.1" y="128.9" width="8.27" height="16.2" transform="translate(465.24 -191.23) rotate(90)"/>
        <rect class="cls-12" x="325.61" y="130.48" width="5.24" height="13.05" rx=".88" ry=".88" transform="translate(465.24 -191.23) rotate(90)"/>
      </g>
      <g>
        <rect class="cls-6" x="324.1" y="119.06" width="8.27" height="16.2" transform="translate(455.39 -201.08) rotate(90)"/>
        <rect class="cls-12" x="325.61" y="120.63" width="5.24" height="13.05" rx=".88" ry=".88" transform="translate(455.39 -201.08) rotate(90)"/>
      </g>
      <g>
        <rect class="cls-6" x="144.46" y="286.56" width="8.27" height="16.2" transform="translate(443.25 146.06) rotate(90)"/>
        <rect class="cls-12" x="145.98" y="288.13" width="5.24" height="13.05" rx=".88" ry=".88" transform="translate(443.25 146.06) rotate(90)"/>
      </g>
      <g>
        <rect class="cls-6" x="272.41" y="362.46" width="9.02" height="17.67" transform="translate(553.85 742.6) rotate(-180)"/>
        <rect class="cls-12" x="274.06" y="364.18" width="5.72" height="14.24" rx=".96" ry=".96" transform="translate(553.85 742.6) rotate(-180)"/>
      </g>
      <g>
        <rect class="cls-6" x="149.71" y="313.97" width="8.27" height="16.2"/>
        <rect class="cls-12" x="151.22" y="315.54" width="5.24" height="13.05" rx=".88" ry=".88"/>
      </g>
      <g>
        <rect class="cls-6" x="160.81" y="313.97" width="8.27" height="16.2"/>
        <rect class="cls-12" x="162.33" y="315.54" width="5.24" height="13.05" rx=".88" ry=".88"/>
      </g>
      <g>
        <rect class="cls-6" x="171.92" y="313.97" width="8.27" height="16.2"/>
        <rect class="cls-12" x="173.43" y="315.54" width="5.24" height="13.05" rx=".88" ry=".88"/>
      </g>
      <g>
        <rect class="cls-6" x="183.03" y="313.97" width="8.27" height="16.2"/>
        <rect class="cls-12" x="184.54" y="315.54" width="5.24" height="13.05" rx=".88" ry=".88"/>
      </g>
      <g>
        <rect class="cls-15" x="228.38" y="300.24" width="9.82" height="17.05"/>
        <g>
          <rect class="cls-12" x="226.19" y="302.13" width="2.2" height="2.84"/>
          <rect class="cls-14" x="219.46" y="302.78" width="6.73" height="1.55"/>
        </g>
        <g>
          <rect class="cls-12" x="226.19" y="307.34" width="2.2" height="2.84"/>
          <rect class="cls-14" x="219.46" y="307.99" width="6.73" height="1.55"/>
        </g>
        <g>
          <rect class="cls-12" x="226.19" y="312.55" width="2.2" height="2.84"/>
          <rect class="cls-14" x="219.46" y="313.2" width="6.73" height="1.55"/>
        </g>
        <g>
          <rect class="cls-12" x="238.2" y="302.13" width="2.2" height="2.84" transform="translate(478.6 607.1) rotate(180)"/>
          <rect class="cls-14" x="240.4" y="302.78" width="6.73" height="1.55" transform="translate(487.52 607.1) rotate(180)"/>
        </g>
        <g>
          <rect class="cls-12" x="238.2" y="312.55" width="2.2" height="2.84" transform="translate(478.6 627.94) rotate(180)"/>
          <rect class="cls-14" x="240.4" y="313.2" width="6.73" height="1.55" transform="translate(487.52 627.94) rotate(180)"/>
        </g>
      </g>
      <g>
        <rect class="cls-15" x="254.57" y="304.67" width="9.82" height="17.05" transform="translate(572.68 53.72) rotate(90)"/>
        <g>
          <rect class="cls-12" x="263.59" y="305.77" width="2.2" height="2.84" transform="translate(571.88 42.5) rotate(90)"/>
          <rect class="cls-14" x="261.32" y="301.96" width="6.73" height="1.55" transform="translate(567.42 38.04) rotate(90)"/>
        </g>
        <g>
          <rect class="cls-12" x="258.38" y="305.77" width="2.2" height="2.84" transform="translate(566.67 47.71) rotate(90)"/>
          <rect class="cls-14" x="256.11" y="301.96" width="6.73" height="1.55" transform="translate(562.21 43.25) rotate(90)"/>
        </g>
        <g>
          <rect class="cls-12" x="253.17" y="305.77" width="2.2" height="2.84" transform="translate(561.46 52.92) rotate(90)"/>
          <rect class="cls-14" x="250.9" y="301.96" width="6.73" height="1.55" transform="translate(557 48.46) rotate(90)"/>
        </g>
        <g>
          <rect class="cls-12" x="263.59" y="317.79" width="2.2" height="2.84" transform="translate(-54.52 583.89) rotate(-90)"/>
          <rect class="cls-14" x="261.32" y="322.9" width="6.73" height="1.55" transform="translate(-58.98 588.36) rotate(-90)"/>
        </g>
        <g>
          <rect class="cls-12" x="253.17" y="317.79" width="2.2" height="2.84" transform="translate(-64.94 573.47) rotate(-90)"/>
          <rect class="cls-14" x="250.9" y="322.9" width="6.73" height="1.55" transform="translate(-69.4 577.94) rotate(-90)"/>
        </g>
      </g>
      <rect class="cls-6" x="225.73" y="325.37" width="19.63" height="15.28"/>
      <g>
        <rect class="cls-15" x="11.83" y="224.4" width="7.11" height="5.44"/>
        <rect class="cls-12" x="12.49" y="222.45" width="1.95" height="1.95"/>
        <rect class="cls-12" x="16.29" y="222.45" width="1.95" height="1.95"/>
        <rect class="cls-12" x="14.41" y="229.83" width="1.95" height="1.95"/>
      </g>
      <g>
        <rect class="cls-15" x="10.85" y="244.92" width="7.11" height="5.44"/>
        <rect class="cls-12" x="11.52" y="242.96" width="1.95" height="1.95"/>
        <rect class="cls-12" x="15.32" y="242.96" width="1.95" height="1.95"/>
        <rect class="cls-12" x="13.43" y="250.35" width="1.95" height="1.95"/>
      </g>
      <g>
        <rect class="cls-15" x="40.55" y="224.4" width="7.11" height="5.44"/>
        <rect class="cls-12" x="41.22" y="222.45" width="1.95" height="1.95"/>
        <rect class="cls-12" x="45.01" y="222.45" width="1.95" height="1.95"/>
        <rect class="cls-12" x="43.13" y="229.83" width="1.95" height="1.95"/>
      </g>
      <rect class="cls-12" x="71.95" y="71.33" width="3.26" height="7.21"/>
      <rect class="cls-12" x="78.48" y="71.33" width="3.26" height="7.21"/>
      <rect class="cls-12" x="85.01" y="71.33" width="3.26" height="7.21"/>
      <rect class="cls-12" x="91.55" y="71.33" width="3.26" height="7.21"/>
      <rect class="cls-12" x="251.61" y="72.08" width="3.26" height="7.21" transform="translate(328.93 -177.55) rotate(90)"/>
      <rect class="cls-12" x="274.94" y="55.1" width="3.26" height="7.21" transform="translate(335.27 -217.87) rotate(90)"/>
      <rect class="cls-12" x="266.83" y="86.45" width="3.26" height="7.21" transform="translate(358.52 -178.4) rotate(90)"/>
      <rect class="cls-12" x="322.11" y="116.21" width="3.26" height="7.21" transform="translate(443.56 -203.93) rotate(90)"/>
      <rect class="cls-12" x="322.11" y="111.37" width="3.26" height="7.21" transform="translate(438.72 -208.77) rotate(90)"/>
      <rect class="cls-12" x="340.33" y="115.01" width="3.26" height="7.21" transform="translate(460.58 -223.35) rotate(90)"/>
      <g>
        <rect class="cls-9" x="53.48" y="53.15" width="10.72" height="7.62" rx="3.81" ry="3.81"/>
        <rect class="cls-9" x="56.18" y="55.21" width="5.32" height="3.49" rx="1.75" ry="1.75"/>
      </g>
      <g>
        <rect class="cls-9" x="102.18" y="53.15" width="10.72" height="7.62" rx="3.81" ry="3.81"/>
        <rect class="cls-9" x="104.88" y="55.21" width="5.32" height="3.49" rx="1.75" ry="1.75"/>
      </g>
      <g>
        <rect class="cls-9" x="53.48" y="70.13" width="10.72" height="7.62" rx="3.81" ry="3.81"/>
        <rect class="cls-9" x="56.18" y="72.2" width="5.32" height="3.49" rx="1.75" ry="1.75"/>
      </g>
      <g>
        <rect class="cls-9" x="102.18" y="70.13" width="10.72" height="7.62" rx="3.81" ry="3.81"/>
        <rect class="cls-9" x="104.88" y="72.2" width="5.32" height="3.49" rx="1.75" ry="1.75"/>
      </g>
      <g>
        <rect class="cls-9" x="235.75" y="53.15" width="10.72" height="7.62" rx="3.81" ry="3.81"/>
        <rect class="cls-9" x="238.45" y="55.21" width="5.32" height="3.49" rx="1.75" ry="1.75"/>
      </g>
      <g>
        <rect class="cls-9" x="284.45" y="53.15" width="10.72" height="7.62" rx="3.81" ry="3.81"/>
        <rect class="cls-9" x="287.15" y="55.21" width="5.32" height="3.49" rx="1.75" ry="1.75"/>
      </g>
      <g>
        <rect class="cls-9" x="235.75" y="70.13" width="10.72" height="7.62" rx="3.81" ry="3.81"/>
        <rect class="cls-9" x="238.45" y="72.2" width="5.32" height="3.49" rx="1.75" ry="1.75"/>
      </g>
      <g>
        <rect class="cls-9" x="284.45" y="70.13" width="10.72" height="7.62" rx="3.81" ry="3.81"/>
        <rect class="cls-9" x="287.15" y="72.2" width="5.32" height="3.49" rx="1.75" ry="1.75"/>
      </g>
      <rect class="cls-10" x="271.47" y="98.44" width="34.37" height="81.4"/>
      <rect class="cls-16" x="61.5" y="98.44" width="209.97" height="81.4"/>
      <rect class="cls-11" x="176.61" y="179.84" width="77.66" height="59.42"/>
      <text class="cls-3" transform="translate(279.56 104.26) rotate(90)"><tspan x="0" y="0">GND</tspan></text>
      <g>
        <circle class="cls-18" cx="296.6" cy="111.79" r="6.28"/>
        <circle class="cls-12" cx="296.6" cy="111.79" r="2.09"/>
      </g>
      <text class="cls-7" transform="translate(279.56 122.76) rotate(90)"><tspan class="cls-17" x="0" y="0">V</tspan><tspan class="cls-13" x="4.02" y="0">C</tspan><tspan class="cls-2" x="8.04" y="0">C</tspan></text>
      <g>
        <circle class="cls-18" cx="296.6" cy="129.17" r="6.28"/>
        <circle class="cls-12" cx="296.6" cy="129.17" r="2.09"/>
      </g>
      <text class="cls-3" transform="translate(279.56 140.77) rotate(90)"><tspan x="0" y="0">SCL</tspan></text>
      <g>
        <circle class="cls-18" cx="296.6" cy="146.55" r="6.28"/>
        <circle class="cls-12" cx="296.6" cy="146.55" r="2.09"/>
      </g>
      <text class="cls-7" transform="translate(279.56 157.28) rotate(90)"><tspan class="cls-2" x="0" y="0">S</tspan><tspan class="cls-1" x="3.48" y="0">D</tspan><tspan class="cls-2" x="8.27" y="0">A</tspan></text>
      <g>
        <circle class="cls-18" cx="296.6" cy="163.93" r="6.28"/>
        <circle class="cls-12" cx="296.6" cy="163.93" r="2.09"/>
      </g>
      <g>
        <circle class="cls-18" cx="24.7" cy="370.96" r="5.13"/>
        <circle class="cls-12" cx="24.7" cy="370.96" r="1.71"/>
      </g>
      <g>
        <circle class="cls-18" cx="24.7" cy="385.79" r="5.13"/>
        <circle class="cls-12" cx="24.7" cy="385.79" r="1.71"/>
      </g>
      <g>
        <circle class="cls-18" cx="24.7" cy="400.62" r="5.13"/>
        <circle class="cls-12" cx="24.7" cy="400.62" r="1.71"/>
      </g>
      <g>
        <circle class="cls-18" cx="24.7" cy="415.45" r="5.13"/>
        <circle class="cls-12" cx="24.7" cy="415.45" r="1.71"/>
      </g>
      <g>
        <rect class="cls-15" x="69.77" y="60.05" width="6.6" height="4.32"/>
        <rect class="cls-12" x="66.94" y="61.18" width="2.83" height="2.07"/>
        <rect class="cls-12" x="76.37" y="61.18" width="2.83" height="2.07"/>
      </g>
      <g>
        <rect class="cls-12" x="246.47" y="44.3" width="2.83" height="2.07"/>
        <rect class="cls-12" x="255.9" y="41.67" width="2.83" height="2.07"/>
        <rect class="cls-12" x="255.9" y="47" width="2.83" height="2.07"/>
        <rect class="cls-15" x="249.3" y="40.34" width="6.6" height="9.98"/>
      </g>
      <path class="cls-8" d="M57.6,416.57h-4.82l-13.72,13.72h-17.02l-7.32-7.32s-.59-13,0-13,6.04-6.04,6.04-6.04"/>
      <polyline class="cls-8" points="20.2 383.32 13.86 376.98 13.86 347.39"/>
      <rect class="cls-8" x="5.32" y="331.7" width="16.67" height="15.68"/>
      <rect class="cls-8" x="39.03" y="331.7" width="16.67" height="15.68"/>
      <polyline class="cls-8" points="24.7 365.83 24.7 362.25 39.29 347.65"/>
      <polyline class="cls-8" points="57.4 359.35 57.4 356.03 63.84 349.59 108.68 349.59 123.39 334.88 137.88 334.88"/>
      <polyline class="cls-8" points="63.38 359.35 63.38 356.7 66.46 353.63 109.73 353.63 125.24 338.11 137.88 338.11"/>
      <circle class="cls-19" cx="137.88" cy="338.2" r="1.2"/>
      <circle class="cls-19" cx="137.88" cy="334.87" r="1.2"/>
      <circle class="cls-19" cx="121.82" cy="331.38" r="1.2"/>
      <circle class="cls-19" cx="125.71" cy="347.53" r="1.2"/>
      <circle class="cls-19" cx="125.71" cy="354.69" r="1.2"/>
      <circle class="cls-19" cx="73.21" cy="397.71" r="1.2"/>
      <circle class="cls-19" cx="129.46" cy="320.87" r="1.2"/>
      <circle class="cls-19" cx="56.31" cy="308.22" r="1.2"/>
      <circle class="cls-19" cx="22.13" cy="148.23" r="1.2"/>
      <circle class="cls-19" cx="41.59" cy="148.23" r="1.2"/>
      <circle class="cls-19" cx="47.16" cy="150.49" r="1.2"/>
      <circle class="cls-19" cx="75.21" cy="83.9" r="1.2"/>
      <circle class="cls-19" cx="73.36" cy="67.85" r="1.2"/>
      <circle class="cls-19" cx="80.11" cy="67.85" r="1.2"/>
      <circle class="cls-19" cx="93.6" cy="67.85" r="1.2"/>
      <circle class="cls-19" cx="79.69" cy="83.9" r="1.2"/>
      <circle class="cls-19" cx="84.6" cy="83.9" r="1.2"/>
      <circle class="cls-19" cx="88.95" cy="83.9" r="1.2"/>
      <circle class="cls-19" cx="42.79" cy="136.01" r="1.2"/>
      <circle class="cls-19" cx="42.79" cy="131.16" r="1.2"/>
      <circle class="cls-19" cx="137.1" cy="317.02" r="1.2"/>
      <circle class="cls-19" cx="211.48" cy="315.81" r="1.2"/>
      <circle class="cls-19" cx="219.89" cy="345.21" r="1.2"/>
      <circle class="cls-19" cx="234.31" cy="349.63" r="1.2"/>
      <circle class="cls-19" cx="265.46" cy="365.07" r="1.2"/>
      <circle class="cls-19" cx="265.46" cy="360.28" r="1.2"/>
      <circle class="cls-19" cx="268.84" cy="355.78" r="1.2"/>
      <circle class="cls-19" cx="274.06" cy="355.78" r="1.2"/>
      <circle class="cls-19" cx="279.29" cy="355.78" r="1.2"/>
      <circle class="cls-19" cx="260.25" cy="336.5" r="1.2"/>
      <circle class="cls-19" cx="266.11" cy="336.5" r="1.2"/>
      <circle class="cls-19" cx="294.07" cy="350.16" r="1.2"/>
      <circle class="cls-19" cx="289.71" cy="324.1" r="1.2"/>
      <circle class="cls-19" cx="292.44" cy="295.23" r="1.2"/>
      <circle class="cls-19" cx="292.44" cy="277.54" r="1.2"/>
      <circle class="cls-19" cx="315.9" cy="163.93" r="1.2"/>
      <circle class="cls-19" cx="239.9" cy="95.56" r="1.2"/>
      <circle class="cls-19" cx="244.97" cy="95.56" r="1.2"/>
      <circle class="cls-19" cx="244.97" cy="91.03" r="1.2"/>
      <circle class="cls-19" cx="248.93" cy="87.88" r="1.2"/>
      <circle class="cls-19" cx="258.05" cy="86.67" r="1.2"/>
      <circle class="cls-19" cx="266.65" cy="84.27" r="1.2"/>
      <circle class="cls-19" cx="263.65" cy="69.53" r="1.2"/>
      <circle class="cls-19" cx="260.41" cy="65.66" r="1.2"/>
      <circle class="cls-19" cx="266.06" cy="51.52" r="1.2"/>
      <circle class="cls-19" cx="262.15" cy="49.07" r="1.2"/>
      <circle class="cls-19" cx="270.26" cy="84.27" r="1.2"/>
      <circle class="cls-19" cx="320.83" cy="163.93" r="1.2"/>
      <circle class="cls-19" cx="325.76" cy="163.93" r="1.2"/>
      <circle class="cls-19" cx="341.19" cy="134.78" r="1.2"/>
      <circle class="cls-19" cx="341.19" cy="129.78" r="1.2"/>
      <circle class="cls-19" cx="341.19" cy="139.79" r="1.2"/>
      <circle class="cls-19" cx="341.19" cy="144.8" r="1.2"/>
      <circle class="cls-19" cx="283.66" cy="295.23" r="1.2"/>
      <circle class="cls-19" cx="279.6" cy="285.12" r="1.2"/>
      <circle class="cls-19" cx="275.06" cy="292.37" r="1.2"/>
      <circle class="cls-19" cx="270.8" cy="296.43" r="1.2"/>
      <circle class="cls-19" cx="263.91" cy="296.43" r="1.2"/>
      <circle class="cls-19" cx="258.7" cy="296.43" r="1.2"/>
      <circle class="cls-19" cx="254.7" cy="291.16" r="1.2"/>
      <circle class="cls-19" cx="258.7" cy="279.14" r="1.2"/>
      <circle class="cls-19" cx="310.23" cy="324.1" r="1.2"/>
      <circle class="cls-19" cx="341.33" cy="331.49" r="1.2"/>
      <circle class="cls-19" cx="341.33" cy="348.96" r="1.2"/>
      <circle class="cls-19" cx="341.33" cy="360.28" r="1.2"/>
      <circle class="cls-19" cx="341.33" cy="377.08" r="1.2"/>
      <circle class="cls-19" cx="239.19" cy="349.63" r="1.2"/>
      <circle class="cls-19" cx="216" cy="358.19" r="1.2"/>
      <g>
        <circle class="cls-19" cx="201.2" cy="321.68" r="1.2"/>
        <circle class="cls-19" cx="224.03" cy="321.68" r="1.2"/>
        <line class="cls-8" x1="224.03" y1="321.68" x2="201.2" y2="321.68"/>
      </g>
      <g>
        <g>
          <rect class="cls-18" x="170.25" y="264.28" width="3.9" height="17.49"/>
          <rect class="cls-18" x="123.02" y="264.28" width="3.9" height="17.49"/>
          <rect class="cls-11" x="126.91" y="259.46" width="43.42" height="27.11"/>
        </g>
        <g>
          <circle class="cls-6" cx="115.8" cy="267.35" r="1.87"/>
          <circle class="cls-6" cx="115.8" cy="273.36" r="1.87"/>
          <circle class="cls-6" cx="115.8" cy="279.37" r="1.87"/>
        </g>
      </g>
      <line class="cls-9" x1="125.25" y1="199.48" x2="128.56" y2="199.48"/>
      <line class="cls-9" x1="125.25" y1="202.48" x2="128.56" y2="202.48"/>
      <line class="cls-9" x1="125.25" y1="205.48" x2="128.56" y2="205.48"/>
      <line class="cls-9" x1="125.25" y1="208.48" x2="128.56" y2="208.48"/>
      <line class="cls-9" x1="125.25" y1="211.48" x2="128.56" y2="211.48"/>
      <line class="cls-9" x1="125.25" y1="214.48" x2="128.56" y2="214.48"/>
      <line class="cls-9" x1="125.25" y1="217.48" x2="128.56" y2="217.48"/>
      <line class="cls-9" x1="125.25" y1="220.48" x2="128.56" y2="220.48"/>
      <line class="cls-9" x1="125.25" y1="223.48" x2="128.56" y2="223.48"/>
      <line class="cls-9" x1="125.25" y1="226.47" x2="128.56" y2="226.47"/>
      <line class="cls-9" x1="125.25" y1="229.47" x2="128.56" y2="229.47"/>
      <line class="cls-9" x1="125.25" y1="232.47" x2="128.56" y2="232.47"/>
      <line class="cls-9" x1="131.4" y1="238.89" x2="131.4" y2="235.58"/>
      <line class="cls-9" x1="134.21" y1="238.89" x2="134.21" y2="235.58"/>
      <line class="cls-9" x1="137.03" y1="238.89" x2="137.03" y2="235.58"/>
      <line class="cls-9" x1="139.84" y1="238.89" x2="139.84" y2="235.58"/>
      <line class="cls-9" x1="142.65" y1="238.89" x2="142.65" y2="235.58"/>
      <line class="cls-9" x1="145.47" y1="238.89" x2="145.47" y2="235.58"/>
      <line class="cls-9" x1="148.28" y1="238.89" x2="148.28" y2="235.58"/>
      <line class="cls-9" x1="151.09" y1="238.89" x2="151.09" y2="235.58"/>
      <line class="cls-9" x1="153.9" y1="238.89" x2="153.9" y2="235.58"/>
      <rect class="cls-12" x="75.33" y="179.84" width="9.85" height="6.86"/>
      <rect class="cls-12" x="90.74" y="179.84" width="9.85" height="6.86"/>
      <rect class="cls-12" x="106.16" y="179.84" width="9.85" height="6.86"/>
      <rect class="cls-12" x="121.57" y="179.84" width="9.85" height="6.86"/>
      <rect class="cls-12" x="152.95" y="179.84" width="14.59" height="6.86"/>
      <g>
        <circle class="cls-19" cx="202.4" cy="349.06" r="1.2"/>
        <polyline class="cls-8" points="293.64 338.53 268 338.53 251.62 354.92 232.53 354.92 226.68 349.06 202.4 349.06"/>
      </g>
      <polyline class="cls-8" points="28.62 412.15 33.83 406.94 42.13 406.94 52.1 396.97"/>
      <g>
        <rect class="cls-12" x="72.01" y="377.05" width="3.26" height="7.21"/>
        <line class="cls-8" x1="75.27" y1="378.92" x2="78.84" y2="378.92"/>
        <line class="cls-8" x1="75.27" y1="382.62" x2="78.84" y2="382.62"/>
        <circle class="cls-12" cx="78.84" cy="378.92" r="1.2"/>
        <circle class="cls-12" cx="78.84" cy="382.62" r="1.2"/>
      </g>
      <polyline class="cls-8" points="53.79 376.44 51.41 376.44 49.83 374.86 49.83 373.52"/>
      <polyline class="cls-8" points="126.91 260.63 113.91 260.63 113.91 247.03"/>
      <polyline class="cls-8" points="336.71 264.28 336.71 228.76 287.92 179.97"/>
      <line class="cls-8" x1="54.1" y1="316.4" x2="50.62" y2="316.4"/>
      <polyline class="cls-8" points="33.25 119.12 33.25 89.32 46.79 75.78 46.79 51.07 53.96 43.9 83.76 43.9"/>
      <polyline class="cls-8" points="37.6 120.32 37.6 89.41 48.53 78.48 48.53 51.62 54.53 45.61 83.76 45.61"/>
      <polyline class="cls-8" points="41.59 117.42 41.59 89.07 50.15 80.5 50.15 52.47 55.2 47.43 83.76 47.43"/>
      <circle class="cls-19" cx="58.84" cy="65.66" r="2.66"/>
      <circle class="cls-19" cx="107.54" cy="65.66" r="2.66"/>
      <circle class="cls-19" cx="241.11" cy="65.66" r="2.66"/>
      <circle class="cls-19" cx="289.81" cy="65.66" r="2.66"/>
      <line class="cls-8" x1="157.69" y1="211.67" x2="164.5" y2="211.67"/>
      <line class="cls-8" x1="157.69" y1="215.94" x2="164.5" y2="215.94"/>
      <polyline class="cls-8" points="157.69 218.83 161.75 218.83 164.26 221.35"/>
      <rect class="cls-14" x="164.26" y="210.63" width="4.27" height="2.09"/>
      <rect class="cls-14" x="164.26" y="214.89" width="4.27" height="2.09"/>
      <rect class="cls-14" x="164.26" y="220.2" width="4.27" height="2.09"/>
      <path class="cls-8" d="M79.2,62.21h0c3.21,0,5.81-2.6,5.81-5.81v-6.11"/>
      <path class="cls-8" d="M86.64,71.33v-2.67c0-2.99,2.43-5.42,5.42-5.42h3.31"/>
      <g>
        <rect class="cls-14" x="126.49" y="37.1" width="95.75" height="61.34"/>
        <g>
          <path class="cls-6" d="M126.49,47.4h-10.49v-1.59l1.69-.04c.88-.22,1.5-1.01,1.5-1.92h0c0-.93-.64-1.73-1.55-1.93h-1.64s0-1.57,0-1.57h10.49v7.06Z"/>
          <path class="cls-6" d="M126.49,56.67h-10.49v-1.59l1.69-.04c.88-.22,1.5-1.01,1.5-1.92h0c0-.93-.64-1.73-1.55-1.93h-1.64s0-1.57,0-1.57h10.49v7.06Z"/>
          <path class="cls-6" d="M126.49,65.95h-10.49v-1.59l1.69-.04c.88-.22,1.5-1.01,1.5-1.92h0c0-.93-.64-1.73-1.55-1.93h-1.64s0-1.57,0-1.57h10.49v7.06Z"/>
          <path class="cls-6" d="M126.49,75.22h-10.49v-1.59l1.69-.04c.88-.22,1.5-1.01,1.5-1.92h0c0-.93-.64-1.73-1.55-1.93h-1.64s0-1.57,0-1.57h10.49v7.06Z"/>
          <path class="cls-6" d="M126.49,84.49h-10.49v-1.59l1.69-.04c.88-.22,1.5-1.01,1.5-1.92h0c0-.93-.64-1.73-1.55-1.93h-1.64s0-1.57,0-1.57h10.49v7.06Z"/>
          <path class="cls-6" d="M126.49,93.77h-10.49v-1.59l1.69-.04c.88-.22,1.5-1.01,1.5-1.92h0c0-.93-.64-1.73-1.55-1.93h-1.64s0-1.57,0-1.57h10.49v7.06Z"/>
        </g>
        <g>
          <path class="cls-6" d="M222.28,47.4h10.49v-1.59l-1.69-.04c-.88-.22-1.5-1.01-1.5-1.92h0c0-.93.64-1.73,1.55-1.93h1.64s0-1.57,0-1.57h-10.49v7.06Z"/>
          <path class="cls-6" d="M222.28,56.67h10.49v-1.59l-1.69-.04c-.88-.22-1.5-1.01-1.5-1.92h0c0-.93.64-1.73,1.55-1.93h1.64s0-1.57,0-1.57h-10.49v7.06Z"/>
          <path class="cls-6" d="M222.28,65.94h10.49v-1.59l-1.69-.04c-.88-.22-1.5-1.01-1.5-1.92h0c0-.93.64-1.73,1.55-1.93h1.64s0-1.57,0-1.57h-10.49v7.06Z"/>
          <path class="cls-6" d="M222.28,75.22h10.49v-1.59l-1.69-.04c-.88-.22-1.5-1.01-1.5-1.92h0c0-.93.64-1.73,1.55-1.93h1.64s0-1.57,0-1.57h-10.49v7.06Z"/>
          <path class="cls-6" d="M222.28,84.49h10.49v-1.59l-1.69-.04c-.88-.22-1.5-1.01-1.5-1.92h0c0-.93.64-1.73,1.55-1.93h1.64s0-1.57,0-1.57h-10.49v7.06Z"/>
          <path class="cls-6" d="M222.28,93.76h10.49v-1.59l-1.69-.04c-.88-.22-1.5-1.01-1.5-1.92h0c0-.93.64-1.73,1.55-1.93h1.64s0-1.57,0-1.57h-10.49v7.06Z"/>
        </g>
      </g>
      <g>
        <polygon class="cls-5" points="179.95 282.52 177.94 282.52 176.94 284.25 177.94 285.99 179.95 285.99 180.95 284.25 179.95 282.52"/>
        <polygon class="cls-5" points="182.98 280.78 180.97 280.78 179.96 282.52 180.97 284.25 182.98 284.25 183.98 282.52 182.98 280.78"/>
        <polygon class="cls-5" points="182.98 277.3 180.97 277.3 179.96 279.04 180.97 280.78 182.98 280.78 183.98 279.04 182.98 277.3"/>
        <polygon class="cls-5" points="182.98 273.82 180.97 273.82 179.96 275.56 180.97 277.3 182.98 277.3 183.98 275.56 182.98 273.82"/>
        <polygon class="cls-5" points="182.98 270.35 180.97 270.35 179.96 272.08 180.97 273.82 182.98 273.82 183.98 272.08 182.98 270.35"/>
        <polygon class="cls-5" points="182.98 266.87 180.97 266.87 179.96 268.61 180.97 270.35 182.98 270.35 183.98 268.61 182.98 266.87"/>
        <polygon class="cls-5" points="179.95 279.04 177.94 279.04 176.94 280.78 177.94 282.52 179.95 282.52 180.95 280.78 179.95 279.04"/>
        <polygon class="cls-5" points="179.95 275.56 177.94 275.56 176.94 277.3 177.94 279.04 179.95 279.04 180.95 277.3 179.95 275.56"/>
        <polygon class="cls-5" points="179.95 272.08 177.94 272.08 176.94 273.82 177.94 275.56 179.95 275.56 180.95 273.82 179.95 272.08"/>
        <polygon class="cls-5" points="179.95 268.61 177.94 268.61 176.94 270.35 177.94 272.08 179.95 272.08 180.95 270.35 179.95 268.61"/>
        <polygon class="cls-5" points="185.99 268.63 183.98 268.63 182.97 270.36 183.98 272.1 185.99 272.1 186.99 270.36 185.99 268.63"/>
        <polygon class="cls-5" points="185.99 272.08 183.98 272.08 182.97 273.82 183.98 275.56 185.99 275.56 186.99 273.82 185.99 272.08"/>
        <polygon class="cls-5" points="185.99 275.54 183.98 275.54 182.97 277.28 183.98 279.02 185.99 279.02 186.99 277.28 185.99 275.54"/>
        <polygon class="cls-5" points="179.95 265.13 177.94 265.13 176.94 266.87 177.94 268.61 179.95 268.61 180.95 266.87 179.95 265.13"/>
      </g>
      <g>
        <polygon class="cls-5" points="178.21 259.92 176.2 259.92 175.2 261.65 176.2 263.39 178.21 263.39 179.21 261.65 178.21 259.92"/>
        <polygon class="cls-5" points="179.1 254.29 177.1 254.29 176.09 256.03 177.1 257.76 179.1 257.76 180.11 256.03 179.1 254.29"/>
        <polygon class="cls-5" points="184.51 257.21 182.5 257.21 181.49 258.95 182.5 260.69 184.51 260.69 185.51 258.95 184.51 257.21"/>
        <polygon class="cls-5" points="190.7 259.67 188.7 259.67 187.69 261.41 188.7 263.15 190.7 263.15 191.71 261.41 190.7 259.67"/>
        <polygon class="cls-5" points="190.7 253.73 188.7 253.73 187.69 255.47 188.7 257.21 190.7 257.21 191.71 255.47 190.7 253.73"/>
        <polygon class="cls-5" points="197.63 260.51 195.62 260.51 194.62 262.24 195.62 263.98 197.63 263.98 198.64 262.24 197.63 260.51"/>
      </g>
      <g>
        <polygon class="cls-5" points="155.16 301.05 153.42 302.06 153.42 304.06 155.16 305.07 156.89 304.06 156.89 302.06 155.16 301.05"/>
        <polygon class="cls-5" points="158.61 301.05 156.87 302.06 156.87 304.06 158.61 305.07 160.35 304.06 160.35 302.06 158.61 301.05"/>
        <polygon class="cls-5" points="162.06 301.05 160.32 302.06 160.32 304.06 162.06 305.07 163.8 304.06 163.8 302.06 162.06 301.05"/>
        <polygon class="cls-5" points="163.78 298.06 162.05 299.07 162.05 301.08 163.78 302.08 165.52 301.08 165.52 299.07 163.78 298.06"/>
        <polygon class="cls-5" points="165.51 295.08 163.77 296.08 163.77 298.09 165.51 299.09 167.25 298.09 167.25 296.08 165.51 295.08"/>
        <polygon class="cls-5" points="168.96 295.08 167.22 296.08 167.22 298.09 168.96 299.09 170.7 298.09 170.7 296.08 168.96 295.08"/>
        <polygon class="cls-5" points="172.41 295.08 170.68 296.08 170.68 298.09 172.41 299.09 174.15 298.09 174.15 296.08 172.41 295.08"/>
        <polygon class="cls-5" points="167.24 298.06 165.5 299.07 165.5 301.08 167.24 302.08 168.97 301.08 168.97 299.07 167.24 298.06"/>
        <polygon class="cls-5" points="170.69 298.06 168.95 299.07 168.95 301.08 170.69 302.08 172.43 301.08 172.43 299.07 170.69 298.06"/>
        <polygon class="cls-5" points="174.14 298.06 172.4 299.07 172.4 301.08 174.14 302.08 175.88 301.08 175.88 299.07 174.14 298.06"/>
        <polygon class="cls-5" points="163.78 292.04 162.05 293.04 162.05 295.05 163.78 296.05 165.52 295.05 165.52 293.04 163.78 292.04"/>
        <polygon class="cls-5" points="167.24 292.04 165.5 293.04 165.5 295.05 167.24 296.05 168.97 295.05 168.97 293.04 167.24 292.04"/>
        <polygon class="cls-5" points="170.69 292.04 168.95 293.04 168.95 295.05 170.69 296.05 172.43 295.05 172.43 293.04 170.69 292.04"/>
        <polygon class="cls-5" points="174.14 292.04 172.4 293.04 172.4 295.05 174.14 296.05 175.88 295.05 175.88 293.04 174.14 292.04"/>
        <polygon class="cls-5" points="165.51 301.05 163.77 302.06 163.77 304.06 165.51 305.07 167.25 304.06 167.25 302.06 165.51 301.05"/>
        <polygon class="cls-5" points="168.96 301.05 167.22 302.06 167.22 304.06 168.96 305.07 170.7 304.06 170.7 302.06 168.96 301.05"/>
        <polygon class="cls-5" points="172.41 301.05 170.68 302.06 170.68 304.06 172.41 305.07 174.15 304.06 174.15 302.06 172.41 301.05"/>
        <polygon class="cls-5" points="175.87 301.05 174.13 302.06 174.13 304.06 175.87 305.07 177.6 304.06 177.6 302.06 175.87 301.05"/>
        <polygon class="cls-5" points="162.06 289.05 160.32 290.05 160.32 292.06 162.06 293.06 163.8 292.06 163.8 290.05 162.06 289.05"/>
        <polygon class="cls-5" points="165.51 289.05 163.77 290.05 163.77 292.06 165.51 293.06 167.25 292.06 167.25 290.05 165.51 289.05"/>
        <polygon class="cls-5" points="168.96 289.05 167.22 290.05 167.22 292.06 168.96 293.06 170.7 292.06 170.7 290.05 168.96 289.05"/>
        <polygon class="cls-5" points="172.41 289.05 170.68 290.05 170.68 292.06 172.41 293.06 174.15 292.06 174.15 290.05 172.41 289.05"/>
        <polygon class="cls-5" points="175.87 289.05 174.13 290.05 174.13 292.06 175.87 293.06 177.6 292.06 177.6 290.05 175.87 289.05"/>
        <polygon class="cls-5" points="179.32 301.05 177.58 302.06 177.58 304.06 179.32 305.07 181.06 304.06 181.06 302.06 179.32 301.05"/>
        <polygon class="cls-5" points="182.77 301.05 181.03 302.06 181.03 304.06 182.77 305.07 184.51 304.06 184.51 302.06 182.77 301.05"/>
      </g>
      <g>
        <polygon class="cls-5" points="220.24 287.95 218.5 288.95 218.5 290.96 220.24 291.97 221.97 290.96 221.97 288.95 220.24 287.95"/>
        <polygon class="cls-5" points="223.69 287.95 221.95 288.95 221.95 290.96 223.69 291.97 225.43 290.96 225.43 288.95 223.69 287.95"/>
        <polygon class="cls-5" points="227.14 287.95 225.4 288.95 225.4 290.96 227.14 291.97 228.88 290.96 228.88 288.95 227.14 287.95"/>
        <polygon class="cls-5" points="230.59 287.95 228.85 288.95 228.85 290.96 230.59 291.97 232.33 290.96 232.33 288.95 230.59 287.95"/>
        <polygon class="cls-5" points="234.04 287.95 232.3 288.95 232.3 290.96 234.04 291.97 235.78 290.96 235.78 288.95 234.04 287.95"/>
        <polygon class="cls-5" points="237.49 287.95 235.76 288.95 235.76 290.96 237.49 291.97 239.23 290.96 239.23 288.95 237.49 287.95"/>
        <polygon class="cls-5" points="240.95 287.95 239.21 288.95 239.21 290.96 240.95 291.97 242.69 290.96 242.69 288.95 240.95 287.95"/>
        <polygon class="cls-5" points="244.4 287.95 242.66 288.95 242.66 290.96 244.4 291.97 246.14 290.96 246.14 288.95 244.4 287.95"/>
        <polygon class="cls-5" points="247.85 287.95 246.11 288.95 246.11 290.96 247.85 291.97 249.59 290.96 249.59 288.95 247.85 287.95"/>
      </g>
      <rect class="cls-11" x="203.61" y="259.46" width="41.37" height="26.53"/>
      <rect class="cls-18" x="200" y="263.39" width="3.61" height="19.12"/>
      <rect class="cls-18" x="244.97" y="263.39" width="3.61" height="19.12"/>
      <rect class="cls-16" x="120.37" width="108.01" height="37.1"/>
      <rect class="cls-16" x="128.56" y="193.26" width="29.14" height="42.32"/>
      <circle class="cls-19" cx="33.25" cy="119.12" r="1.2"/>
      <circle class="cls-19" cx="37.6" cy="120.32" r="1.2"/>
      <circle class="cls-19" cx="41.59" cy="117.42" r="1.2"/>
      <rect class="cls-12" x="293.64" y="337.04" width="3.26" height="7.21"/>
      <circle class="cls-19" cx="54.1" cy="316.4" r="1.2"/>
    </g>
  </g>
</svg>