<?xml version="1.0" encoding="UTF-8"?>
<svg id="Layer_2" data-name="Layer 2" xmlns="http://www.w3.org/2000/svg" viewBox="0 0 882.7 839.97">
  <defs>
    <style>
      .cls-1 {
        fill: #001733;
      }

      .cls-2 {
        fill: #5ca1f4;
        font-family: Inter-Black, Inter;
        font-size: 72px;
        font-variation-settings: 'wght' 900, 'slnt' 0;
        font-weight: 800;
      }

      .cls-3 {
        fill: #001733;
        stroke: #001733;
      }

      .cls-3, .cls-4 {
        stroke-miterlimit: 10;
        stroke-width: 5px;
      }

      .cls-4 {
        fill: none;
        stroke: #001733;
      }
    </style>
  </defs>
  <g id="Layer_2-2" data-name="Layer 2">
    <g>
      <path class="cls-1" d="M213.58,401.09H27.5c-15.16,0-27.5,12.34-27.5,27.5v383.88c0,15.16,12.34,27.5,27.5,27.5h186.08c15.16,0,27.5-12.34,27.5-27.5v-383.88c0-15.16-12.34-27.5-27.5-27.5ZM236.08,812.47c0,12.41-10.09,22.5-22.5,22.5H27.5c-12.41,0-22.5-10.09-22.5-22.5v-383.88c0-12.41,10.09-22.5,22.5-22.5h186.08c12.41,0,22.5,10.09,22.5,22.5v383.88Z"/>
      <g>
        <rect class="cls-4" x="53.13" y="520.88" width="134.82" height="199.3" rx="10" ry="10"/>
        <rect class="cls-4" x="104.27" y="572.46" width="32.54" height="94.3" rx="5" ry="5"/>
        <rect class="cls-3" x="86.16" y="620.61" width="68.77" height="29.5" rx="5" ry="5"/>
      </g>
      <g>
        <rect class="cls-4" x="374.52" y="520.88" width="134.82" height="199.3" rx="10" ry="10"/>
        <rect class="cls-4" x="425.66" y="572.46" width="32.54" height="94.3" rx="5" ry="5"/>
        <rect class="cls-3" x="407.55" y="620.61" width="68.77" height="29.5" rx="5" ry="5"/>
      </g>
      <g>
        <rect class="cls-4" x="694.75" y="520.88" width="134.82" height="199.3" rx="10" ry="10"/>
        <rect class="cls-4" x="745.89" y="572.46" width="32.54" height="94.3" rx="5" ry="5"/>
        <rect class="cls-3" x="727.78" y="620.61" width="68.77" height="29.5" rx="5" ry="5"/>
      </g>
      <path class="cls-1" d="M534.39,401.09h-186.08c-15.16,0-27.5,12.34-27.5,27.5v383.88c0,15.16,12.34,27.5,27.5,27.5h186.08c15.16,0,27.5-12.34,27.5-27.5v-383.88c0-15.16-12.34-27.5-27.5-27.5ZM556.89,812.47c0,12.41-10.09,22.5-22.5,22.5h-186.08c-12.41,0-22.5-10.09-22.5-22.5v-383.88c0-12.41,10.09-22.5,22.5-22.5h186.08c12.41,0,22.5,10.09,22.5,22.5v383.88Z"/>
      <path class="cls-1" d="M855.2,401.09h-186.08c-15.17,0-27.5,12.34-27.5,27.5v383.88c0,15.16,12.33,27.5,27.5,27.5h186.08c15.16,0,27.5-12.34,27.5-27.5v-383.88c0-15.16-12.34-27.5-27.5-27.5ZM877.7,812.47c0,12.4-10.1,22.5-22.5,22.5h-186.08c-12.41,0-22.5-10.1-22.5-22.5v-383.88c0-12.4,10.09-22.5,22.5-22.5h186.08c12.4,0,22.5,10.1,22.5,22.5v383.88Z"/>
      <path class="cls-1" d="M165.41,0h-89.74c-12.41,0-22.5,10.09-22.5,22.5v89.74c0,12.41,10.09,22.5,22.5,22.5h89.74c12.4,0,22.5-10.09,22.5-22.5V22.5c0-12.41-10.1-22.5-22.5-22.5ZM182.91,112.24c0,9.65-7.85,17.5-17.5,17.5h-89.74c-9.65,0-17.5-7.85-17.5-17.5V22.5c0-9.65,7.85-17.5,17.5-17.5h89.74c9.65,0,17.5,7.85,17.5,17.5v89.74Z"/>
      <path class="cls-1" d="M486.22,0h-89.74c-12.41,0-22.5,10.09-22.5,22.5v89.74c0,12.38,10.04,22.45,22.41,22.5h89.83c12.41,0,22.5-10.09,22.5-22.5V22.5c0-12.41-10.09-22.5-22.5-22.5ZM503.72,112.24c0,9.65-7.85,17.5-17.5,17.5h-89.74c-9.65,0-17.5-7.85-17.5-17.5V22.5c0-9.65,7.85-17.5,17.5-17.5h89.74c9.65,0,17.5,7.85,17.5,17.5v89.74Z"/>
      <path class="cls-1" d="M807.03,0h-89.74c-12.41,0-22.5,10.09-22.5,22.5v89.74c0,12.41,10.09,22.5,22.5,22.5h89.74c1.03,0,2.05-.07,3.04-.21,10.97-1.48,19.46-10.91,19.46-22.29V22.5c0-12.41-10.1-22.5-22.5-22.5ZM824.53,112.24c0,9.65-7.86,17.5-17.5,17.5h-89.74c-9.65,0-17.5-7.85-17.5-17.5V22.5c0-9.65,7.85-17.5,17.5-17.5h89.74c9.64,0,17.5,7.85,17.5,17.5v89.74Z"/>
      <path class="cls-1" d="M58.17,403.59h-5v-172.01c0-6.89,5.61-12.5,12.5-12.5h323.22c4.14,0,7.5-3.36,7.5-7.5v-79.34h5v79.34c0,6.89-5.61,12.5-12.5,12.5H65.67c-4.14,0-7.5,3.36-7.5,7.5v172.01Z"/>
      <path class="cls-1" d="M175.36,265.42h270.34c1.38,0,2.5,1.12,2.5,2.5h0c0,1.38-1.12,2.5-2.5,2.5H175.36c-4.14,0-7.5,3.36-7.5,7.5v125.67h-5v-125.67c0-6.89,5.6-12.5,12.5-12.5Z"/>
      <rect class="cls-1" x="475.52" y="265.42" width="211.53" height="5" rx="2.5" ry="2.5"/>
      <path class="cls-1" d="M729.21,132.24v125.68c0,6.9-5.6,12.5-12.5,12.5h-7.93c-1.38,0-2.5-1.12-2.5-2.5h0c0-1.38,1.12-2.5,2.5-2.5h7.93c4.13,0,7.5-3.36,7.5-7.5v-125.68h5Z"/>
      <rect class="cls-1" x="805.07" y="132.24" width="5" height="271.35"/>
      <path class="cls-1" d="M466.03,267.92c0,.85-.05,1.68-.14,2.5-.16,1.51-.47,2.98-.91,4.39-2.4,7.65-8.66,13.59-16.49,15.53-1.37.34-2.37,1.52-2.37,2.94v110.31h-6.38v-115.95c0-1.69,1.41-3.01,3.11-3h.08c1.09,0,2.16-.1,3.19-.31,5.37-1.04,9.84-4.66,12.04-9.52.63-1.37,1.07-2.85,1.3-4.39.13-.81.19-1.65.19-2.5s-.06-1.69-.19-2.5c-.23-1.57-.69-3.06-1.33-4.45-2.21-4.83-6.66-8.43-12.01-9.47-1.03-.2-2.1-.31-3.19-.31h-.08c-1.7.01-3.11-1.3-3.11-3v-115.95h6.38v110.32c0,1.41,1,2.6,2.37,2.94,7.81,1.93,14.07,7.85,16.47,15.47.45,1.43.77,2.92.93,4.45.09.82.14,1.65.14,2.5Z"/>
      <rect class="cls-1" x="439.74" y="403.59" width="6.38" height=".01"/>
      <path class="cls-1" d="M526.54,308.63h158.01c1.38,0,2.5,1.12,2.5,2.5h0c0,1.38-1.12,2.5-2.5,2.5h-158.01c-4.14,0-7.5,3.37-7.5,7.5v82.46h-5v-82.46c0-6.89,5.6-12.5,12.5-12.5Z"/>
      <path class="cls-1" d="M769.66,132.24v168.89c0,6.9-5.6,12.5-12.5,12.5h-48.38c-1.38,0-2.5-1.12-2.5-2.5h0c0-1.38,1.12-2.5,2.5-2.5h48.38c4.14,0,7.5-3.36,7.5-7.5v-168.89h5Z"/>
      <text class="cls-2" transform="translate(94.51 94.73)"><tspan x="0" y="0">N</tspan></text>
      <text class="cls-2" transform="translate(403.83 94.73)"><tspan x="0" y="0">L1</tspan></text>
      <text class="cls-2" transform="translate(718.33 94.73)"><tspan x="0" y="0">L2</tspan></text>
      <path class="cls-1" d="M681,289.47v-.25c10.66-1.24,18.95-10.32,18.95-21.3,0-10.3-7.29-18.92-16.99-20.98-1.14-.24-1.96-1.22-1.96-2.38v-14.61c0-6.89-5.6-12.5-12.5-12.5h-176.61c-4.14,0-7.5-3.36-7.5-7.5v-77.71h-5v77.71c0,6.9,5.6,12.5,12.5,12.5h176.61c4.14,0,7.5,3.37,7.5,7.5v19.1c0,1.36,1.12,2.42,2.47,2.42,0,0,.02,0,.03,0,.85,0,1.69.06,2.5.19,7.89,1.21,13.95,8.04,13.95,16.26s-6.06,15.05-13.95,16.26c-.81.13-1.65.19-2.5.19,0,0-.02,0-.03,0-1.36,0-2.47,1.06-2.47,2.42v5.13c0,1.36,1.12,2.41,2.47,2.41,0,0,.02,0,.03,0,.85,0,1.69.07,2.5.19,7.89,1.21,13.95,8.04,13.95,16.26s-6.06,15.05-13.95,16.26c-.81.12-1.65.19-2.5.19,0,0-.02,0-.03,0-1.36,0-2.47,1.05-2.47,2.41v73.97h5v-69.47c0-1.16.83-2.14,1.96-2.38,9.7-2.06,16.99-10.69,16.99-20.98,0-10.98-8.29-20.06-18.95-21.3Z"/>
    </g>
  </g>
</svg>