<?xml version="1.0" encoding="UTF-8"?>
<svg id="Layer_2" data-name="Layer 2" xmlns="http://www.w3.org/2000/svg" viewBox="0 0 882.7 839.97">
  <defs>
    <style>
      .cls-1 {
        fill: #001733;
      }

      .cls-2 {
        fill: #5ca1f4;
        font-family: Inter-Black, Inter;
        font-size: 72px;
        font-variation-settings: 'wght' 900, 'slnt' 0;
        font-weight: 800;
      }

      .cls-3 {
        fill: #001733;
        stroke: #001733;
      }

      .cls-3, .cls-4 {
        stroke-miterlimit: 10;
        stroke-width: 5px;
      }

      .cls-4 {
        fill: none;
        stroke: #001733;
      }
    </style>
  </defs>
  <g id="Layer_2-2" data-name="Layer 2">
    <g>
      <path class="cls-1" d="M213.58,401.09H27.5c-15.16,0-27.5,12.34-27.5,27.5v383.88c0,15.16,12.34,27.5,27.5,27.5h186.08c15.17,0,27.5-12.34,27.5-27.5v-383.88c0-15.16-12.33-27.5-27.5-27.5ZM236.08,812.47c0,12.4-10.09,22.5-22.5,22.5H27.5c-12.4,0-22.5-10.1-22.5-22.5v-383.88c0-12.4,10.1-22.5,22.5-22.5h186.08c12.41,0,22.5,10.1,22.5,22.5v383.88Z"/>
      <path class="cls-1" d="M534.39,401.09h-186.08c-15.16,0-27.5,12.34-27.5,27.5v383.88c0,15.16,12.34,27.5,27.5,27.5h186.08c15.17,0,27.5-12.34,27.5-27.5v-383.88c0-15.16-12.33-27.5-27.5-27.5ZM556.89,812.47c0,12.4-10.09,22.5-22.5,22.5h-186.08c-12.4,0-22.5-10.1-22.5-22.5v-383.88c0-12.4,10.1-22.5,22.5-22.5h186.08c12.41,0,22.5,10.1,22.5,22.5v383.88Z"/>
      <path class="cls-1" d="M855.2,401.09h-186.08c-15.16,0-27.5,12.34-27.5,27.5v383.88c0,15.16,12.34,27.5,27.5,27.5h186.08c15.16,0,27.5-12.34,27.5-27.5v-383.88c0-15.16-12.34-27.5-27.5-27.5ZM877.7,812.47c0,12.4-10.09,22.5-22.5,22.5h-186.08c-12.4,0-22.5-10.1-22.5-22.5v-383.88c0-12.4,10.1-22.5,22.5-22.5h186.08c12.41,0,22.5,10.1,22.5,22.5v383.88Z"/>
      <path class="cls-1" d="M160.21,0h-89.74c-12.4,0-22.5,10.09-22.5,22.5v89.74c0,11.23,8.26,20.55,19.02,22.23,1.13.18,2.3.27,3.48.27h89.74c12.41,0,22.5-10.09,22.5-22.5V22.5c0-12.41-10.09-22.5-22.5-22.5ZM177.71,112.24c0,9.65-7.85,17.5-17.5,17.5h-89.74c-9.65,0-17.5-7.85-17.5-17.5V22.5c0-9.65,7.85-17.5,17.5-17.5h89.74c9.65,0,17.5,7.85,17.5,17.5v89.74Z"/>
      <path class="cls-1" d="M447.33,0h-89.74c-12.4,0-22.5,10.09-22.5,22.5v89.74c0,12.41,10.1,22.5,22.5,22.5h89.74c12.41,0,22.5-10.09,22.5-22.5V22.5c0-12.41-10.09-22.5-22.5-22.5ZM464.83,112.24c0,9.65-7.85,17.5-17.5,17.5h-89.74c-9.64,0-17.5-7.85-17.5-17.5V22.5c0-9.65,7.86-17.5,17.5-17.5h89.74c9.65,0,17.5,7.85,17.5,17.5v89.74Z"/>
      <path class="cls-1" d="M650.33,0h-89.74c-12.4,0-22.5,10.09-22.5,22.5v89.74c0,12.41,10.1,22.5,22.5,22.5h89.74c12.41,0,22.5-10.09,22.5-22.5V22.5c0-12.41-10.09-22.5-22.5-22.5ZM667.83,112.24c0,9.65-7.85,17.5-17.5,17.5h-89.74c-9.65,0-17.5-7.85-17.5-17.5V22.5c0-9.65,7.85-17.5,17.5-17.5h89.74c9.65,0,17.5,7.85,17.5,17.5v89.74Z"/>
      <text class="cls-2" transform="translate(89.76 94.73)"><tspan x="0" y="0">N</tspan></text>
      <text class="cls-2" transform="translate(364.95 94.73)"><tspan x="0" y="0">L1</tspan></text>
      <text class="cls-2" transform="translate(561.64 94.73)"><tspan x="0" y="0">L2</tspan></text>
      <path class="cls-1" d="M847.01,0h-89.74c-12.41,0-22.5,10.09-22.5,22.5v89.74c0,12.41,10.09,22.5,22.5,22.5h89.74c12.41,0,22.5-10.09,22.5-22.5V22.5c0-12.41-10.09-22.5-22.5-22.5ZM864.51,112.24c0,9.65-7.85,17.5-17.5,17.5h-89.74c-9.65,0-17.5-7.85-17.5-17.5V22.5c0-9.65,7.85-17.5,17.5-17.5h89.74c9.65,0,17.5,7.85,17.5,17.5v89.74Z"/>
      <text class="cls-2" transform="translate(757.29 94.73)"><tspan x="0" y="0">L3</tspan></text>
      <rect class="cls-1" x="66.99" y="132.24" width="5" height="271.36"/>
      <path class="cls-1" d="M369.27,277.92v3.08c0,1.38-1.12,2.5-2.5,2.5-.69,0-1.31-.28-1.77-.73-.45-.46-.73-1.08-.73-1.77v-3.08c0-4.14-3.36-7.5-7.5-7.5H113.93c-6.9,0-12.5-5.6-12.5-12.5v-125.68h5v125.68c0,4.14,3.36,7.5,7.5,7.5h242.84c6.9,0,12.5,5.6,12.5,12.5Z"/>
      <path class="cls-1" d="M366.77,300.9h0c1.38,0,2.5,1.12,2.5,2.5v100.19h-5v-100.19c0-1.38,1.12-2.5,2.5-2.5Z"/>
      <path class="cls-1" d="M157.06,218.39h246.46c1.76,0,3.19,1.43,3.19,3.19h0c0,1.76-1.43,3.19-3.19,3.19h-252.85c-5.52,0-10-4.48-10-10v-82.53h6.39v76.15c0,9.33.16,10,10,10Z"/>
      <rect class="cls-1" x="434.17" y="218.39" width="177.29" height="6.38" rx="3.19" ry="3.19"/>
      <path class="cls-1" d="M703.12,228.39v175.2h-6.38v-168.82c0-9.64-.89-10-10-10h-45.63c-1.76,0-3.19-1.43-3.19-3.19h0c0-1.76,1.43-3.19,3.19-3.19h52.01c5.53,0,10,4.48,10,10Z"/>
      <path class="cls-1" d="M424.79,221.69c0,1.05-.07,2.08-.21,3.08-.19,1.36-.5,2.69-.93,3.96-2.38,7.15-8.27,12.69-15.61,14.58-1.39.36-2.39,1.57-2.39,3v58.01c0,6.64-1.5,10-10,10h-10.97c-1.17,0-2.06-.96-1.99-2.13.02-.36.03-.7.03-1.06,0-1.1-.11-2.16-.32-3.19-1.15-5.62-5.26-10.18-10.64-11.96-.8-.27-1.63-.47-2.49-.6-.81-.13-1.65-.2-2.5-.2s-1.69.07-2.5.2c-.51.08-1,.18-1.49.31-5.86,1.51-10.42,6.29-11.64,12.25-.21,1.03-.32,2.09-.32,3.19v.2c0,1.64-1.35,2.99-2.99,2.99H117.12c-9.46,0-10,1.14-10,10v76.77h-6.38v-83.15c0-5.52,4.48-10,10-10h231.53c1.37,0,2.51-.96,2.85-2.28,2.13-8.41,9.04-14.94,17.66-16.5.49-.09.98-.16,1.49-.21.82-.1,1.65-.15,2.5-.15s1.68.05,2.5.15c.85.08,1.68.23,2.49.41,8.39,1.93,14.99,8.59,16.83,17.02.2.91,1.01,1.56,1.94,1.56h6.74c1.11,0,2-.9,2-2v-65.23c0-1.73,1.43-3.07,3.16-3.07h.03c1.1,0,2.16-.12,3.19-.32,4.89-1,8.97-4.24,11.12-8.59.61-1.24,1.07-2.57,1.34-3.96.2-1,.3-2.03.3-3.08,0-1.13-.12-2.24-.35-3.3-.17-.79-.39-1.56-.67-2.31-1.9-5.07-6.32-8.91-11.74-10.03-1.03-.2-2.09-.31-3.19-.31h-.04c-1.73,0-3.15-1.34-3.15-3.07v-67.93h6.38v62.32c0,1.43,1,2.64,2.39,3,7.83,2.02,14,8.2,16.04,16.02.19.76.35,1.53.47,2.31.16,1.08.24,2.18.24,3.3Z"/>
      <rect class="cls-1" x="399.27" y="132.24" width="6.38" height="2.5"/>
      <rect class="cls-1" x="100.74" y="401.09" width="6.38" height="2.51"/>
      <rect class="cls-1" x="799.64" y="132.24" width="5" height="271.35"/>
      <path class="cls-1" d="M627.8,221.69c0,1.05-.07,2.08-.22,3.08-.18,1.37-.5,2.69-.93,3.96-2.38,7.17-8.32,12.74-15.72,14.61-1.35.34-2.27,1.6-2.27,3v14.77c0,5.52-4.48,10-10,10h-144.11c-8.19,0-10,.71-10,10v119.98h-6.38v-126.36c0-5.52,4.48-10,10-10h144.1c10.05,0,10-2.6,10-10v-14.02c0-1.73,1.43-3.08,3.16-3.07h.04c1.09,0,2.15-.12,3.19-.32,4.88-1,8.96-4.24,11.12-8.59.61-1.24,1.07-2.57,1.34-3.96.2-1,.3-2.03.3-3.08,0-1.13-.12-2.24-.35-3.3-.16-.8-.39-1.57-.67-2.31-1.91-5.07-6.33-8.91-11.74-10.03-1.04-.2-2.1-.31-3.19-.31h-.04c-1.73,0-3.16-1.35-3.16-3.08v-67.92h6.39v62.29c0,1.4.92,2.66,2.27,3,7.88,2,14.12,8.19,16.15,16.05.2.76.36,1.53.47,2.31.17,1.08.25,2.18.25,3.3Z"/>
      <rect class="cls-1" x="438.17" y="401.09" width="6.38" height="2.51"/>
      <rect class="cls-1" x="602.27" y="132.24" width="6.39" height="2.5"/>
      <g>
        <rect class="cls-4" x="53.66" y="520.35" width="134.82" height="199.3" rx="10" ry="10"/>
        <rect class="cls-4" x="104.8" y="571.93" width="32.54" height="94.3" rx="5" ry="5"/>
        <rect class="cls-3" x="86.69" y="620.08" width="68.77" height="29.5" rx="5" ry="5"/>
      </g>
      <g>
        <rect class="cls-4" x="373.94" y="520.35" width="134.82" height="199.3" rx="10" ry="10"/>
        <rect class="cls-4" x="425.08" y="571.93" width="32.54" height="94.3" rx="5" ry="5"/>
        <rect class="cls-3" x="406.97" y="620.08" width="68.77" height="29.5" rx="5" ry="5"/>
      </g>
      <g>
        <rect class="cls-4" x="694.22" y="520.35" width="134.82" height="199.3" rx="10" ry="10"/>
        <rect class="cls-4" x="745.36" y="571.93" width="32.54" height="94.3" rx="5" ry="5"/>
        <rect class="cls-3" x="727.24" y="620.08" width="68.77" height="29.5" rx="5" ry="5"/>
      </g>
    </g>
  </g>
</svg>