<?xml version="1.0" encoding="UTF-8"?>
<svg id="Layer_2" data-name="Layer 2" xmlns="http://www.w3.org/2000/svg" viewBox="0 0 882.7 839.97">
  <defs>
    <style>
      .cls-1 {
        fill: #001733;
      }

      .cls-2 {
        fill: #5ca1f4;
        font-family: Inter-Black, Inter;
        font-size: 72px;
        font-variation-settings: 'wght' 900, 'slnt' 0;
        font-weight: 800;
      }

      .cls-3 {
        fill: #001733;
        stroke: #001733;
      }

      .cls-3, .cls-4 {
        stroke-miterlimit: 10;
        stroke-width: 5px;
      }

      .cls-4 {
        fill: none;
        stroke: #001733;
      }
    </style>
  </defs>
  <g id="Layer_2-2" data-name="Layer 2">
    <g>
      <path class="cls-1" d="M213.58,401.09H27.5c-15.16,0-27.5,12.34-27.5,27.5v383.88c0,15.16,12.34,27.5,27.5,27.5h186.08c15.16,0,27.5-12.34,27.5-27.5v-383.88c0-15.16-12.34-27.5-27.5-27.5ZM236.08,812.47c0,12.4-10.09,22.5-22.5,22.5H27.5c-12.41,0-22.5-10.1-22.5-22.5v-383.88c0-12.4,10.09-22.5,22.5-22.5h186.08c12.41,0,22.5,10.1,22.5,22.5v383.88Z"/>
      <path class="cls-1" d="M534.39,401.09h-186.08c-15.16,0-27.5,12.34-27.5,27.5v383.88c0,15.16,12.34,27.5,27.5,27.5h186.08c15.16,0,27.5-12.34,27.5-27.5v-383.88c0-15.16-12.34-27.5-27.5-27.5ZM556.89,812.47c0,12.4-10.09,22.5-22.5,22.5h-186.08c-12.41,0-22.5-10.1-22.5-22.5v-383.88c0-12.4,10.09-22.5,22.5-22.5h186.08c12.41,0,22.5,10.1,22.5,22.5v383.88Z"/>
      <path class="cls-1" d="M855.2,401.09h-186.08c-15.16,0-27.5,12.34-27.5,27.5v383.88c0,15.16,12.34,27.5,27.5,27.5h186.08c15.16,0,27.5-12.34,27.5-27.5v-383.88c0-15.16-12.34-27.5-27.5-27.5ZM877.7,812.47c0,12.4-10.1,22.5-22.5,22.5h-186.08c-12.41,0-22.5-10.1-22.5-22.5v-383.88c0-12.4,10.09-22.5,22.5-22.5h186.08c12.4,0,22.5,10.1,22.5,22.5v383.88Z"/>
      <path class="cls-1" d="M177.34,0h-89.74c-12.41,0-22.5,10.09-22.5,22.5v89.74c0,12.41,10.09,22.5,22.5,22.5h89.74c12.41,0,22.5-10.09,22.5-22.5V22.5c0-12.41-10.09-22.5-22.5-22.5ZM194.84,112.24c0,9.65-7.85,17.5-17.5,17.5h-89.74c-9.65,0-17.5-7.85-17.5-17.5V22.5c0-9.65,7.85-17.5,17.5-17.5h89.74c9.65,0,17.5,7.85,17.5,17.5v89.74Z"/>
      <path class="cls-1" d="M373.61,0h-89.74c-12.4,0-22.5,10.09-22.5,22.5v89.74c0,12.41,10.1,22.5,22.5,22.5h89.74c12.41,0,22.5-10.09,22.5-22.5V22.5c0-12.41-10.09-22.5-22.5-22.5ZM391.11,112.24c0,9.65-7.85,17.5-17.5,17.5h-89.74c-9.65,0-17.5-7.85-17.5-17.5V22.5c0-9.65,7.85-17.5,17.5-17.5h89.74c9.65,0,17.5,7.85,17.5,17.5v89.74Z"/>
      <path class="cls-1" d="M576.61,0h-89.74c-12.4,0-22.5,10.09-22.5,22.5v89.74c0,12.41,10.1,22.5,22.5,22.5h89.74c12.41,0,22.5-10.09,22.5-22.5V22.5c0-12.41-10.09-22.5-22.5-22.5ZM594.11,112.24c0,9.65-7.85,17.5-17.5,17.5h-89.74c-9.65,0-17.5-7.85-17.5-17.5V22.5c0-9.65,7.85-17.5,17.5-17.5h89.74c9.65,0,17.5,7.85,17.5,17.5v89.74Z"/>
      <text class="cls-2" transform="translate(106.09 94.73)"><tspan x="0" y="0">N</tspan></text>
      <text class="cls-2" transform="translate(292.04 94.73)"><tspan x="0" y="0">L1</tspan></text>
      <text class="cls-2" transform="translate(487.92 94.73)"><tspan x="0" y="0">L2</tspan></text>
      <path class="cls-1" d="M773.29,0h-89.74c-12.41,0-22.5,10.09-22.5,22.5v89.74c0,12.41,10.09,22.5,22.5,22.5h89.74c12.4,0,22.5-10.09,22.5-22.5V22.5c0-12.41-10.1-22.5-22.5-22.5ZM790.79,112.24c0,9.65-7.85,17.5-17.5,17.5h-89.74c-9.65,0-17.5-7.85-17.5-17.5V22.5c0-9.65,7.85-17.5,17.5-17.5h89.74c9.65,0,17.5,7.85,17.5,17.5v89.74Z"/>
      <text class="cls-2" transform="translate(685.51 94.73)"><tspan x="0" y="0">L3</tspan></text>
      <path class="cls-1" d="M47.23,403.59h-5v-172.01c0-6.89,5.61-12.5,12.5-12.5h225.12c4.14,0,7.5-3.36,7.5-7.5v-79.34h5v79.34c0,6.89-5.61,12.5-12.5,12.5H54.73c-4.14,0-7.5,3.36-7.5,7.5v172.01Z"/>
      <path class="cls-1" d="M349.25,264.73c1.73,0,3.08,1.43,3.08,3.16,0,.01,0,.02,0,.03s0,.02,0,.03c0,1.73-1.34,3.16-3.08,3.16h-203.59c-8.52,0-10,.91-10,10v122.49h-6.38v-128.87c0-5.52,4.48-10,10-10h209.97Z"/>
      <path class="cls-1" d="M495.05,132.24v128.87c0,5.52-4.48,10-10,10h-97.74c-1.73,0-3.08-1.43-3.08-3.16,0-.01,0-.02,0-.03s0-.02,0-.03c0-1.73,1.34-3.16,3.08-3.16h91.36c5.52,0,10-4.48,10-10v-122.49h6.38Z"/>
      <path class="cls-1" d="M370.77,132.24v103.94c0,1.38-1.12,2.5-2.5,2.5h0c-1.38,0-2.5-1.12-2.5-2.5v-103.94h5Z"/>
      <path class="cls-1" d="M368.27,259.37h0c1.38,0,2.5,1.12,2.5,2.5v141.72h-5v-141.72c0-1.38,1.12-2.5,2.5-2.5Z"/>
      <path class="cls-1" d="M532.15,308.63h154.6c1.38,0,2.5,1.12,2.5,2.5h0c0,1.38-1.12,2.5-2.5,2.5h-154.6c-4.14,0-7.5,3.37-7.5,7.5v82.46h-5v-82.46c0-6.9,5.6-12.5,12.5-12.5Z"/>
      <path class="cls-1" d="M712.4,308.63h22.94c1.46,0,2.64,1.12,2.64,2.5h0c0,1.38-1.18,2.5-2.64,2.5h-22.94c-1.46,0-2.64-1.12-2.64-2.5h0c0-1.38,1.18-2.5,2.64-2.5Z"/>
      <path class="cls-1" d="M771.01,132.24v168.12c0,7.33-5.94,13.27-13.27,13.27h0c-.43,0-.77-.34-.77-.77v-3.46c0-.43.34-.77.77-.77h1c4.02,0,7.27-3.25,7.27-7.27v-169.12h5Z"/>
      <g>
        <path class="cls-1" d="M703.71,311.54c0,.71-.03,1.4-.1,2.09-.11,1.2-.32,2.37-.62,3.51-2.03,7.86-8.26,14.05-16.14,16.05-1.36.34-2.28,1.6-2.28,3v64.9h-6.38v-70.53c0-1.73,1.43-3.08,3.16-3.07h.03c1.1,0,2.16-.12,3.19-.32,5.42-1.11,9.84-4.96,11.74-10.03.43-1.12.72-2.29.88-3.51.09-.68.14-1.38.14-2.09,0-.99-.09-1.97-.27-2.91-.2-1.09-.51-2.13-.92-3.13-1.99-4.85-6.31-8.52-11.57-9.6-1.03-.2-2.09-.31-3.19-.31h-.03c-1.73,0-3.16-1.35-3.16-3.08v-57.74c0-9.56-.83-10-10-10h-101.99c-5.53,0-10-4.47-10-10v-80.03h6.38v73.65c0,9.02.21,10,10,10h101.99c5.53,0,10,4.48,10,10v58.49c0,1.4.92,2.66,2.28,3.01,7.74,1.95,13.88,7.95,16.02,15.61.29,1.01.51,2.06.65,3.13.13.95.19,1.92.19,2.91Z"/>
        <rect class="cls-1" x="556.2" y="132.24" width="6.38" height="2.5"/>
        <rect class="cls-1" x="678.19" y="401.09" width="6.38" height="2.51"/>
        <path class="cls-1" d="M750.75,311.54c0,.71-.03,1.4-.1,2.09-.11,1.2-.32,2.37-.62,3.51-2.03,7.86-8.26,14.05-16.14,16.05-1.36.34-2.28,1.6-2.28,3v64.9h-6.38v-70.53c0-1.73,1.43-3.08,3.16-3.07h.03c1.1,0,2.16-.12,3.19-.32,5.41-1.11,9.83-4.96,11.74-10.03.43-1.12.72-2.29.88-3.51.09-.68.14-1.38.14-2.09,0-.99-.09-1.97-.27-2.91-.2-1.09-.51-2.13-.92-3.13-1.99-4.85-6.32-8.52-11.57-9.6-1.03-.2-2.09-.31-3.19-.31h-.03c-1.73,0-3.16-1.35-3.16-3.08v-157.77h6.38v152.14c0,1.4.92,2.66,2.28,3.01,7.74,1.95,13.88,7.95,16.02,15.61.29,1.01.51,2.06.65,3.13.13.95.19,1.92.19,2.91Z"/>
        <rect class="cls-1" x="725.23" y="132.24" width="6.38" height="2.5"/>
        <rect class="cls-1" x="725.23" y="401.09" width="6.38" height="2.51"/>
      </g>
      <path class="cls-1" d="M390.38,264.73c-1.56-10.81-10.87-19.14-22.1-19.14h-.01c-11.23,0-20.54,8.33-22.09,19.14-.16,1.03-.23,2.11-.23,3.19v.19c.01,1.67,1.41,3,3.08,3h.22c1.73,0,3.08-1.43,3.08-3.16v-.06c0-1.09.11-2.14.32-3.16,1.48-7.26,7.91-12.76,15.62-12.76h.01c7.71,0,14.15,5.5,15.63,12.76.2,1.02.32,2.07.32,3.16v.06c0,1.73,1.34,3.16,3.08,3.16h.22c1.67,0,3.07-1.33,3.08-3v-.19c0-1.08-.08-2.16-.23-3.19Z"/>
      <g>
        <rect class="cls-4" x="53.13" y="520.88" width="134.82" height="199.3" rx="10" ry="10"/>
        <rect class="cls-4" x="104.27" y="572.46" width="32.54" height="94.3" rx="5" ry="5"/>
        <rect class="cls-3" x="86.16" y="620.61" width="68.77" height="29.5" rx="5" ry="5"/>
      </g>
      <g>
        <rect class="cls-4" x="373.94" y="520.88" width="134.82" height="199.3" rx="10" ry="10"/>
        <rect class="cls-4" x="425.08" y="572.46" width="32.54" height="94.3" rx="5" ry="5"/>
        <rect class="cls-3" x="406.97" y="620.61" width="68.77" height="29.5" rx="5" ry="5"/>
      </g>
      <g>
        <rect class="cls-4" x="694.75" y="520.88" width="134.82" height="199.3" rx="10" ry="10"/>
        <rect class="cls-4" x="745.89" y="572.46" width="32.54" height="94.3" rx="5" ry="5"/>
        <rect class="cls-3" x="727.78" y="620.61" width="68.77" height="29.5" rx="5" ry="5"/>
      </g>
    </g>
  </g>
</svg>