<?xml version="1.0" encoding="UTF-8"?><svg id="uuid-41949011-2af0-499b-84de-40f68909cebd" xmlns="http://www.w3.org/2000/svg" width="709.78" height="81.74" viewBox="0 0 709.78 81.74"><g id="uuid-c5bf7981-ea28-4995-8bc3-21cd73d0610a"><g><rect y="0" width="254.24" height="81.67" style="fill:none;"/><path d="m39.28.5H0v25.93h13.1v-12.96h26.18v12.96h13.1V.5h-13.1Z" style="fill:#007ee7;"/><path d="m28.66,19.94h-4.94c-2.25,0-4.08,1.81-4.08,4.04v17.86c0,2.23,1.83,4.04,4.08,4.04h4.94c2.25,0,4.08-1.81,4.08-4.04v-17.86c0-2.23-1.83-4.04-4.08-4.04Z" style="fill:#007ee7;"/><path d="m39.28,48.09l-13.27,13.14-12.91-12.78v-15.55H0v20.97h.06l25.95,25.68,26.32-26.05h.05v-20.61h-13.1v15.18Z" style="fill:#007ee7;"/><path d="m72.11,37.59V.54h13.5c2.04-.06,4.07.29,5.97,1.02s3.63,1.83,5.1,3.24c1.47,1.42,2.63,3.12,3.39,5,.76,1.88,1.12,3.9,1.05,5.93v6.66c.07,2.02-.29,4.04-1.06,5.92-.76,1.88-1.92,3.58-3.39,4.99-1.46,1.41-3.19,2.52-5.1,3.25-1.9.74-3.93,1.09-5.97,1.04h-13.5Zm8.71-30.42v23.81h4.21c1.03.05,2.05-.13,2.99-.54.94-.41,1.77-1.03,2.43-1.81,1.38-1.78,2.07-3.99,1.96-6.22v-6.71c.11-2.23-.58-4.42-1.96-6.18-.66-.78-1.49-1.4-2.43-1.8-.94-.41-1.96-.59-2.99-.54h-4.21Z" style="fill:#808285;"/><path d="m112.64,37.59h-8.68V.54h8.66l.02,37.04Z" style="fill:#808285;"/><path d="m145.66,32.47c-1.54,1.69-3.43,3.03-5.53,3.94-2.87,1.23-5.98,1.81-9.1,1.7-2.07.08-4.14-.25-6.07-.97-1.94-.73-3.71-1.83-5.2-3.25-1.45-1.43-2.58-3.15-3.32-5.04-.75-1.89-1.09-3.91-1.01-5.93v-7.73c-.07-2.01.26-4.02.99-5.9.73-1.88,1.83-3.6,3.24-5.05,1.42-1.41,3.12-2.52,4.99-3.25s3.88-1.07,5.89-1c4.82,0,8.43,1.1,10.82,3.31,2.49,2.39,3.95,5.65,4.08,9.08l-.05.15h-8.15c-.13-1.65-.8-3.22-1.9-4.47-.62-.53-1.33-.94-2.11-1.19-.78-.25-1.59-.35-2.41-.28-.95-.02-1.89.18-2.74.59-.85.41-1.59,1.03-2.15,1.79-1.3,1.79-1.95,3.95-1.85,6.15v7.78c-.11,2.22.53,4.41,1.83,6.22.59.77,1.37,1.39,2.25,1.8.89.41,1.86.6,2.84.55,1.26.04,2.53-.09,3.76-.37.78-.19,1.51-.54,2.15-1.01v-5.89h-5.88v-5.66h14.6v13.91Z" style="fill:#808285;"/><path d="m157.57,37.59h-8.66V.54h8.66v37.04Z" style="fill:#808285;"/><path d="m188.35,7.16h-9.88v30.42h-8.71V7.16h-9.75V.54h28.38l-.04,6.62Z" style="fill:#808285;"/><path d="m206.71,30.38h-11.79l-2.11,7.2h-8.74L196.15.54h9.33l12.11,37.04h-8.73l-2.14-7.2Zm-9.87-6.61h7.94l-3.9-13.26h-.1l-3.93,13.26Z" style="fill:#808285;"/><path d="m227.95,30.97h16.11v6.62h-24.83V.54h8.71v30.42Z" style="fill:#808285;"/><path d="m91.97,71.32c.03-.57-.07-1.14-.3-1.66-.23-.52-.57-.99-1.01-1.36-1.44-.99-3.03-1.75-4.71-2.26-4.76-1.47-8.26-3.05-10.51-4.74-1.13-.85-2.04-1.96-2.63-3.24s-.87-2.68-.79-4.08c-.02-1.49.35-2.97,1.06-4.28.71-1.32,1.75-2.43,3.02-3.24,3.05-2.02,6.68-3.02,10.34-2.88,3.67-.16,7.27.96,10.19,3.17,1.26.95,2.27,2.19,2.94,3.61.67,1.42.98,2.98.9,4.54v.15h-8.48c.02-.67-.11-1.34-.37-1.95s-.65-1.17-1.15-1.63c-1.17-.97-2.67-1.47-4.19-1.38-1.45-.07-2.88.33-4.08,1.15-.46.32-.83.74-1.09,1.23-.26.49-.39,1.03-.4,1.59,0,.53.14,1.05.4,1.51.26.46.65.84,1.11,1.11,1.79,1.01,3.68,1.83,5.64,2.45,3.48.88,6.75,2.46,9.6,4.63,1.08.94,1.93,2.11,2.49,3.41.56,1.31.81,2.72.75,4.14.05,1.49-.28,2.97-.96,4.3-.68,1.33-1.68,2.47-2.92,3.32-2.57,1.87-5.97,2.81-10.19,2.81-3.92.09-7.77-1.01-11.03-3.17-1.5-.98-2.7-2.34-3.5-3.94-.79-1.59-1.15-3.37-1.03-5.14l.05-.15h8.46c0,2.14.58,3.67,1.74,4.58,1.57,1,3.44,1.45,5.3,1.29,1.42.1,2.84-.27,4.02-1.07.43-.33.77-.76,1-1.25.23-.49.34-1.02.32-1.56Z" style="fill:#808285;"/><path d="m133.94,81.15h-8.66v-14.91h-13.86v14.91h-8.71v-37.04h8.71v15.52h13.86v-15.52h8.66v37.04Z" style="fill:#808285;"/><path d="m168.16,65.95c.07,2.08-.28,4.15-1.03,6.08s-1.89,3.71-3.35,5.2c-1.49,1.49-3.29,2.67-5.26,3.44-1.98.77-4.09,1.13-6.22,1.04-2.11.09-4.23-.25-6.2-1.01-1.97-.76-3.77-1.91-5.27-3.39-1.5-1.48-2.67-3.25-3.45-5.2-.77-1.95-1.13-4.04-1.04-6.13v-6.71c-.07-2.07.29-4.14,1.04-6.08.76-1.94,1.9-3.7,3.36-5.19,3.13-2.86,7.23-4.45,11.49-4.45s8.36,1.59,11.49,4.45c1.47,1.49,2.62,3.25,3.38,5.18.76,1.94,1.12,4.01,1.06,6.08v6.67Zm-8.66-6.72c.1-2.31-.57-4.6-1.9-6.51-.65-.79-1.46-1.43-2.39-1.87-.93-.44-1.94-.67-2.97-.67s-2.04.23-2.97.67c-.93.44-1.74,1.08-2.39,1.87-1.31,1.92-1.97,4.2-1.87,6.52v6.72c-.1,2.33.56,4.64,1.88,6.57.62.83,1.44,1.5,2.38,1.95.94.44,1.99.65,3.03.6,1.03.05,2.05-.16,2.98-.61.93-.44,1.72-1.11,2.32-1.94,1.32-1.93,1.98-4.24,1.88-6.57v-6.73Z" style="fill:#808285;"/><path d="m183.45,71.1l.25,1.34h.15l.26-1.24,7.42-27.1h9.1l-12.13,37.04h-9.39l-12.12-37.04h9.07l7.37,27Z" style="fill:#808285;"/><path d="m225.06,65.3h-14.69v9.23h17.33v6.62h-26.04v-37.04h26.07v6.61h-17.33v7.97h14.69l-.03,6.62Z" style="fill:#808285;"/><path d="m238.12,74.53h16.11v6.62h-24.83v-37.04h8.71v30.42Z" style="fill:#808285;"/></g><path d="m327.34,52.7l15.99-11.02-15.44-10.71h3.5l10.5,7.31c1.23.86,2.18,1.62,2.84,2.3h.55c.72-.68,1.7-1.45,2.95-2.31l10.7-7.3h3.42l-15.52,10.65,16.07,11.08h-3.78l-11.33-7.89c-.75-.52-1.28-.89-1.57-1.12-.28-.23-.59-.5-.94-.82h-.55c-.31.3-.61.56-.88.78-.26.21-.76.57-1.52,1.1l-11.3,7.95h-3.69Z"/><g><path d="m467.51,25.69c2.89-.09,5.77-.01,8.67-.04-5.51,5.87-11.48,11.48-17.14,17.27-5.2,5.19-10.39,10.38-15.59,15.57-.12.12-.24.24-.36.37-.09.09-.01.15.05.2,1.51-.01,3.04.12,4.54-.03,2.33-.15,4.68-1.29,6.22-3.05,17.7-17.76,35.61-35.32,53.28-53.12.68-.79,2.01-.07,2.15.82.44,1.63.92,3.3,1.18,4.95.51.57.16.98-.29,1.31-.77.58-1.24,1.44-1.95,2.07-.61.55-1.2,1.12-1.7,1.79-.28.37-.64.67-.99.98-.73.64-1.21,1.53-1.98,2.14-1.47,1.48-2.82,3.08-4.3,4.56-.86.7-1.38,1.7-2.27,2.37-.27.21-.53.45-.71.73-12.65,13.57-25.51,27.05-38.25,40.6-1.64,1.75-3.75,3.08-6.16,3.37-.15-.02-.3-.04-.42.08-5.78.11-11.56.1-17.34,0-.13-.12-.28-.11-.43-.08-.6,0-1.16-.18-1.69-.42-.5-.22-1.07-.26-1.52-.66-1.12-.8-2.3-1.55-3.04-2.75-.63-.8-1.17-1.67-1.85-2.43-.16-.18-.08-.29.05-.34.25-.1.48-.24.7-.37,2.25-1.24,4.57-2.36,6.49-4.11,3.06-3,6.21-5.92,9.23-8.95,4.71-4.79,9.57-9.42,14.32-14.17,1.49-1.42,3-2.84,4.44-4.31,1.79-1.85,3.6-4.13,6.37-4.34.11.02.22.06.31-.04Z" style="fill:#241f20;"/><path d="m701.84,79.1c-.58.08-1.16.05-1.74.01-.21-.13-.45-.11-.68-.09-3.9.09-6.06-3.73-8.44-6.26-3-3.59-6.11-7.08-9.15-10.64-2.2-2.57-4.42-5.12-6.64-7.68-.22-.26-.45-.52-.77-.65-.19-.13-.38-.14-.57,0-.42.2-.57.54-.56.98,0,.77,0,1.53,0,2.3,0,5.79,0,11.57,0,17.36.13,1.9-1.25,3.9-3.23,3.94-1.97,0-3.94-.07-5.9.02-.23-9.04,0-18.2-.08-27.28-.25-6.12,3.62-9.02,9.51-8.37.18.09.37.11.56.09,4.41.5,6.62,4.78,9.33,7.76,4.55,5.37,8.99,10.86,13.59,16.19,1.07.72,1.49-.39,1.39-1.31,0-6.07.01-12.13,0-18.2-.08-1.79,1.21-3.63,3.06-3.77,1.91-.12,3.83-.03,5.75-.05.48-.06.31.46.34.76,0,8.98,0,17.97,0,26.95.26,3.44-1.57,7.39-5.33,7.85-.15-.02-.3-.05-.43.07Z" style="fill:#241f20;"/><path d="m655.65,2.63c4.28,0,8.56,0,12.84,0,.67,0,.62-.06.62.62,0,1.68,0,3.36,0,5.04.03,1.92-1.47,3.46-3.36,3.64-3.02-.03-6.05,0-9.07,0-4.24.03-8.48-.06-12.71.04-2.16.08-2.99,3.1-1.26,4.34.74.52,1.66.41,2.51.44,4.03,0,8.05,0,12.08,0,1.45,0,2.9.06,4.3.46,3.01.86,5.24,2.67,6.59,5.51,1.91,4.04,1.28,7.79-1.47,11.19-2.18,2.8-5.8,3.8-9.25,3.72-7.77,0-15.55,0-23.32,0-.75,0-.69.06-.69-.68.13-3.47-1.06-8.45,4.06-8.28,6.45,0,12.91,0,19.36,0,2.58.03,3.44-3.66,1.1-4.83-.36-.21-.73-.28-1.15-.28-4.2.01-8.39.01-12.59,0-1.51,0-3.02-.1-4.5-.46-8.54-2.03-10.56-13.5-3.37-18.45,2.45-1.85,5.63-2.02,8.6-2.01,3.56,0,7.11,0,10.67,0Z" style="fill:#23b852;"/><path d="m606.93,37.6c-5.57.26-11.27-.36-15.61-4.21-4.88-4.03-6.91-10.6-5.73-16.75,1.78-9,10.08-14.57,19.05-14.02,5.53-.04,11.39-.39,16.14,2.95,5.07,3.33,8.12,9.36,7.76,15.41-.81,12.13-10.83,17.52-21.61,16.65v-.02Zm.03-9.19c2.61-.04,5.45.23,7.85-1.06,5.61-2.96,5.67-10.51.89-13.85-1.36-.95-2.88-1.47-4.53-1.53-2.85-.09-5.7-.09-8.55,0-6.45.15-10.33,7.86-6.37,13.02,2.46,3.53,6.82,3.5,10.72,3.42Z" style="fill:#23b852;"/><path d="m612.52,78.36c-.25.01-.49.02-.74.03-2.82-.02-5.64-.01-8.46,0-.25-.01-.49-.02-.74-.03-.29-.14-.61-.1-.92-.1-.16-.01-.32-.03-.48-.04-.12-.12-.27-.1-.42-.08-.12-.01-.23-.03-.35-.04-.12-.13-.27-.11-.41-.09-19.69-4.07-18.26-32.18,1.67-34.38.36.02.71-.03,1.07-.1,3.21-.1,6.42-.1,9.63,0,.35.07.71.12,1.07.1.11.01.22.02.33.03.18.08.37.11.57.09,19.7,3.2,19.78,31.24,0,34.39-.19-.02-.38-.03-.54.09-.12,0-.24.02-.36.03-.31,0-.62-.05-.92.1Zm-9.55-9.2c3.06.09,6.11.09,9.17,0,.15.01.3.03.44-.07,9.89-1.44,9.37-15.27-.4-16.28-.34-.17-.7-.11-1.06-.09-2.38,0-4.75,0-7.13,0-.36-.01-.72-.09-1.06.09-3.74.28-6.74,3.07-7.57,6.65-.65,4.88,2.51,9.09,7.18,9.63.13.1.28.08.43.07Z" style="fill:#241f20;"/><path d="m453.62,79.09c.63-.95,1.65-1.45,2.25-2.42.49-.72,1.31-1.15,1.82-1.85.86-1.14,2.03-1.96,2.88-3.11.75-.88,1.75-1.54,2.39-2.53.74-.85,1.71-1.51,2.35-2.48.67-.81,1.6-1.38,2.18-2.29.61-.86,1.6-1.4,2.21-2.28.72-.94,1.73-1.62,2.44-2.57.71-.9,1.68-1.54,2.34-2.49.27-.39.6-.72.95-1.02.9-.69,1.45-1.71,2.31-2.43,1.28-1.26,2.51-2.56,3.72-3.89.73-.91,1.7-1.57,2.37-2.54.25-.34.54-.66.86-.94.55-.47,1.06-.96,1.47-1.56,1.51-1.48,2.67-2.93,3.96-4.09.35-.29.69-.63.91-1.05.88-.9,1.84-1.75,2.62-2.76.42-.5,1-.86,1.4-1.38.91-1.21,2.17-2.08,3.05-3.3.75-.82,1.67-1.49,2.31-2.44.25-.36.64-.61.95-.93,2.05-2.14,4.11-4.27,6.07-6.47.74-.82,1.68-1.49,2.31-2.44.28-.4.69-.68,1.05-1.01.58-.53,1.07-1.15,1.57-1.75.09-.11.17-.27.35-.24.19.04.17.22.2.36.57,3.15,2.4,6.92-.23,9.61-2.67,2.98-5.29,6.01-7.98,8.97-1.48,1.62-2.02,3.5-1.73,5.65.09.67.15,1.36.28,2.02.07.36-.03.59-.28.84-2.42,2.48-4.83,4.98-7.25,7.47-5.17,5.39-10.44,10.64-15.54,16.06-1.89,1.74-3.53,3.72-5.39,5.46-1.55,1.76-3.14,3.6-5.28,4.64-1.43.72-2.97,1.18-4.58,1.2-3.78-.02-7.56.15-11.32-.04Z" style="fill:#23b852;"/><path d="m559.1,52.81c-9.97,1.12-10.14,15.05-.14,16.31.09.1.2.06.3.05,6.25.14,12.5-.04,18.74.08.09.09.2.05.3.04,2.21.25,3.64,2.31,3.52,4.44,0,1.36,0,2.71,0,4.07,0,.2.07.42-.08.61-7.08-.06-14.18-.06-21.26,0-.58-.02-1.15-.04-1.73-.05-.25-.13-.53-.11-.8-.09-6.26-.24-11.94-4.65-14.4-10.32-4.53-10.32,2.08-22.76,13.39-24.2.1.01.21.05.29-.05.33-.04.65-.07.97-.11.28.03.55-.02.83-.07,7.36-.14,14.72-.02,22.08-.06.81,0,.7-.1.71.71,0,1.53.03,3.06-.01,4.59,0,2.27-2.05,4.03-4.28,3.95-5.83-.02-11.66-.02-17.49,0-.32-.03-.64-.07-.94.09Z" style="fill:#241f20;"/><path d="m538.47,2.69c2.29-.19,4.69-.02,7.01-.06,2.14.01,3.8.93,5.01,2.69,3.37,7.28,6.33,14.77,9.56,22.13.31.81.76,1.71,1.77,1.64.67-.02,1.1-.37,1.36-.97.57-1.33,1.15-2.65,1.71-3.99,1.35-3.17,2.7-6.34,4.04-9.51,1.18-2.78,2.38-5.55,3.54-8.34.65-1.69,2.04-2.93,3.78-3.41.52-.14,1.03-.25,1.57-.24,2.35.03,4.69-.06,7.04.03-.01.52-.24.96-.44,1.4-1.76,3.92-3.53,7.83-5.3,11.75-2.38,5.27-4.76,10.54-7.15,15.81-1.3,3.09-3.83,5.79-7.24,6.41-7.43,1.41-11.91-1.86-14.34-8.76-2.28-4.73-4.23-9.66-6.62-14.31-1.28-3.32-2.93-6.49-4.35-9.76-.3-.83-.91-1.62-.94-2.52Z" style="fill:#23b852;"/><path d="m478.3,79.02c12.75-13.35,25.28-26.92,38-40.28.32.08.29.39.32.52.63,2.95,2.94,6.39.62,9.14-4.39,4.63-8.88,9.19-13.32,13.78-1.6,1.61-2.7,3.8-2.34,6.11.3,2.01.62,4.01.97,6.01.07.37-.01.65-.27.91-1.25,1.25-2.5,2.49-3.75,3.75-.2.24-.48.21-.76.2-6.47,0-12.94,0-19.41,0l-.06-.13Z" style="fill:#241f20;"/><path d="m709.78,37.36c-2.43,0-4.75-.03-7.16,0-1.24-.05-2.62-.12-3.62-.9-1.42-.79-2.14-2.3-3.43-3.27-1.8-2.05-3.77-4.01-5.61-6.05-2.66-3.03-7.43-6.13-4.22-10.53,3.9-4.13,7.95-8.13,11.91-12.2,1.15-1.18,2.56-1.89,4.26-1.89,2.6.02,5.19-.07,7.79.03-1.52,1.69-3.02,3.27-4.63,4.85-1.01.94-1.8,2.09-2.82,3.02-2.24,2.37-4.49,4.72-6.74,7.07-.79.82-1.15,1.77-1.01,2.9.27,1.83,2.05,2.87,3.14,4.22,4.05,4.26,8.11,8.45,12.14,12.74Z" style="fill:#23b852;"/><path d="m642.34,78.4c-.24-10.25,0-20.64-.09-30.93,0-1.78.79-3.02,2.41-3.75,2.1-.55,4.37-.13,6.54-.25.48,0,.49.01.49.49,0,10.13,0,20.26,0,30.38.02,1.03-.29,2.1-1.06,2.81-.62.78-1.49,1.13-2.43,1.35-.07.02-.16-.04-.24-.06-1.84-.17-3.76,0-5.62-.04Z" style="fill:#241f20;"/><path d="m673.6,20.15c0-5.68,0-11.36,0-17.04.01-.46.01-.48.45-.48,2.72,0,5.45,0,8.17,0,.56-.04.4.45.42.83,0,11.13,0,22.25,0,33.38,0,.93.11.8-.83.8-2.64,0-5.28,0-7.92,0-.22,0-.3-.1-.3-.31,0-5.72,0-11.45,0-17.17Z" style="fill:#23b852;"/></g></g></svg>