<?xml version="1.0" encoding="UTF-8"?><svg id="uuid-aaa8f796-3fa9-4fbc-8cdc-7cb0a6774466" xmlns="http://www.w3.org/2000/svg" width="1691.67" height="310.71" viewBox="0 0 1691.67 310.71"><g id="uuid-6e2b5c91-18b3-4407-85c9-f46d926c85c7"><g><path d="M1026.25,94.96V39.21l-40.48,55.75h-12.33l-40.6-55.64v55.64h-13.91V15.35h14.02l47.27,65.02,47.04-65.02h12.89V94.96h-13.91Z" style="fill:#102648;"/><path d="M1078.05,94.96V15.35h15.04V94.96h-15.04Z" style="fill:#102648;"/><path d="M1229.02,94.96l-84.92-61.97v61.97h-13.12V15.35h13l79.27,59.14V15.35h13.12V94.96h-7.35Z" style="fill:#102648;"/><path d="M1274.26,94.96V15.35h15.04V94.96h-15.04Z" style="fill:#102648;"/><path d="M1342.22,65.56v29.4h-15.04V15.35h65.25c18.09,0,24.99,7.8,24.99,19.22v11.76c0,11.42-6.9,19.22-24.99,19.22h-50.21Zm60.16-31.1c0-4.75-3.17-7.35-9.95-7.35h-50.21v26.69h50.21c6.79,0,9.95-2.6,9.95-7.35v-11.99Z" style="fill:#102648;"/><path d="M1474.99,94.96c-18.09,0-24.99-7.8-24.99-19.22V34.58c0-11.42,6.9-19.22,24.99-19.22h52.58c18.09,0,24.99,7.8,24.99,19.22v41.16c0,11.42-6.9,19.22-24.99,19.22h-52.58Zm62.53-60.5c0-4.75-3.17-7.35-9.95-7.35h-52.58c-6.79,0-9.95,2.6-9.95,7.35v41.39c0,4.75,3.17,7.35,9.95,7.35h52.58c6.79,0,9.95-2.6,9.95-7.35V34.46Z" style="fill:#102648;"/><path d="M1589.32,94.96V15.35h72.94c22.5,0,29.4,7.8,29.4,23.52v33.36c0,14.93-6.9,22.73-29.4,22.73h-72.94Zm87.3-56.09c0-9.16-3.17-11.76-14.36-11.76h-57.9v56.09h57.9c11.2,0,14.36-2.6,14.36-11.08V38.87Z" style="fill:#102648;"/></g><g><g><path d="M920.49,264.89v-6.9h-11.1v-5.82h19.02c2.1,0,3-.72,3-2.04v-2.1c0-1.26-.9-2.04-3-2.04h-9.9c-7.38,0-10.14-3.24-10.14-7.98v-1.68c0-4.68,2.76-7.92,10.14-7.92h1.98v-5.76h6.3v5.76h10.02v5.82h-18.3c-2.16,0-3.12,.72-3.12,2.04v1.8c0,1.32,.96,2.1,3.12,2.1h9.9c7.32,0,10.08,3.24,10.08,7.92v1.98c0,4.68-2.76,7.92-10.08,7.92h-1.62v6.9h-6.3Z" style="fill:#102648;"/><path d="M946.05,264.89v-15.42c0-6.06,3.66-10.2,13.26-10.2h17.16c3.6,0,5.28-1.38,5.28-3.9v-2.58c0-2.52-1.68-3.9-5.28-3.9h-28.14v-6.24h28.14c9.6,0,13.26,4.14,13.26,10.2v2.46c0,6.06-3.66,10.2-13.26,10.2h-17.16c-3.6,0-5.28,1.38-5.28,3.9v9.24h35.7v6.24h-43.68Z" style="fill:#102648;"/><path d="M999.21,264.89v-6.24h30.18c3.6,0,5.28-1.38,5.28-3.9v-7.56c0-2.52-1.68-3.9-5.28-3.9h-30.18v-20.64h42.06v6.24h-34.08v8.16h22.2c9.6,0,13.26,4.14,13.26,10.2v7.44c0,6.06-3.66,10.2-13.26,10.2h-30.18Z" style="fill:#102648;"/><path d="M1051.65,269.27v-12.18h8.22v3.6l-5.04,8.58h-3.18Z" style="fill:#102648;"/><path d="M1082.3,264.89c-9.6,0-13.26-4.14-13.26-10.2v-21.84c0-6.06,3.66-10.2,13.26-10.2h19.86c9.6,0,13.26,4.14,13.26,10.2v21.84c0,6.06-3.66,10.2-13.26,10.2h-19.86Zm25.14-32.1c0-2.52-1.68-3.9-5.28-3.9h-19.86c-3.6,0-5.28,1.38-5.28,3.9v21.96c0,2.52,1.68,3.9,5.28,3.9h19.86c3.6,0,5.28-1.38,5.28-3.9v-21.96Z" style="fill:#102648;"/><path d="M1138.28,264.89c-9.6,0-13.26-4.14-13.26-10.2v-21.84c0-6.06,3.66-10.2,13.26-10.2h19.86c9.6,0,13.26,4.14,13.26,10.2v21.84c0,6.06-3.66,10.2-13.26,10.2h-19.86Zm25.14-32.1c0-2.52-1.68-3.9-5.28-3.9h-19.86c-3.6,0-5.28,1.38-5.28,3.9v21.96c0,2.52,1.68,3.9,5.28,3.9h19.86c3.6,0,5.28-1.38,5.28-3.9v-21.96Z" style="fill:#102648;"/><path d="M1194.26,264.89c-9.6,0-13.26-4.14-13.26-10.2v-21.84c0-6.06,3.66-10.2,13.26-10.2h19.86c9.6,0,13.26,4.14,13.26,10.2v21.84c0,6.06-3.66,10.2-13.26,10.2h-19.86Zm25.14-32.1c0-2.52-1.68-3.9-5.28-3.9h-19.86c-3.6,0-5.28,1.38-5.28,3.9v21.96c0,2.52,1.68,3.9,5.28,3.9h19.86c3.6,0,5.28-1.38,5.28-3.9v-21.96Z" style="fill:#102648;"/></g><g><g><path d="M922.88,201.08v-6.67h-10.73v-5.63h18.39c2.03,0,2.9-.7,2.9-1.97v-2.03c0-1.22-.87-1.97-2.9-1.97h-9.57c-7.13,0-9.8-3.13-9.8-7.71v-1.62c0-4.52,2.67-7.66,9.8-7.66h1.91v-5.57h6.09v5.57h9.69v5.62h-17.69c-2.09,0-3.02,.7-3.02,1.97v1.74c0,1.28,.93,2.03,3.02,2.03h9.57c7.08,0,9.74,3.13,9.74,7.66v1.91c0,4.52-2.67,7.66-9.74,7.66h-1.57v6.67h-6.09Z" style="fill:#2a7de1;"/><path d="M982.85,201.08v-6.96h-36.83v-4.87l21.58-29h8.35l-20.76,27.84h27.67v-27.84h7.71v27.84h4.29v6.03h-4.29v6.96h-7.71Z" style="fill:#2a7de1;"/><path d="M1015.39,201.08c-9.28,0-12.82-4-12.82-9.86v-21.11c0-5.86,3.54-9.86,12.82-9.86h19.2c9.28,0,12.82,4,12.82,9.86v21.11c0,5.86-3.54,9.86-12.82,9.86h-19.2Zm24.3-31.03c0-2.44-1.62-3.77-5.1-3.77h-19.2c-3.48,0-5.1,1.33-5.1,3.77v21.23c0,2.44,1.62,3.77,5.1,3.77h19.2c3.48,0,5.1-1.33,5.1-3.77v-21.23Z" style="fill:#2a7de1;"/><path d="M1056.16,205.31v-11.77h7.95v3.48l-4.87,8.29h-3.07Z" style="fill:#2a7de1;"/><path d="M1086.38,201.08c-9.28,0-12.82-4-12.82-9.86v-21.11c0-5.86,3.54-9.86,12.82-9.86h19.2c9.28,0,12.82,4,12.82,9.86v21.11c0,5.86-3.54,9.86-12.82,9.86h-19.2Zm24.3-31.03c0-2.44-1.62-3.77-5.1-3.77h-19.2c-3.48,0-5.1,1.33-5.1,3.77v21.23c0,2.44,1.62,3.77,5.1,3.77h19.2c3.48,0,5.1-1.33,5.1-3.77v-21.23Z" style="fill:#2a7de1;"/><path d="M1141.07,201.08c-9.28,0-12.82-4-12.82-9.86v-21.11c0-5.86,3.54-9.86,12.82-9.86h19.2c9.28,0,12.82,4,12.82,9.86v21.11c0,5.86-3.54,9.86-12.82,9.86h-19.2Zm24.3-31.03c0-2.44-1.62-3.77-5.1-3.77h-19.2c-3.48,0-5.1,1.33-5.1,3.77v21.23c0,2.44,1.62,3.77,5.1,3.77h19.2c3.48,0,5.1-1.33,5.1-3.77v-21.23Z" style="fill:#2a7de1;"/><path d="M1195.77,201.08c-9.28,0-12.82-4-12.82-9.86v-21.11c0-5.86,3.54-9.86,12.82-9.86h19.2c9.28,0,12.82,4,12.82,9.86v21.11c0,5.86-3.54,9.86-12.82,9.86h-19.2Zm24.3-31.03c0-2.44-1.62-3.77-5.1-3.77h-19.2c-3.48,0-5.1,1.33-5.1,3.77v21.23c0,2.44,1.62,3.77,5.1,3.77h19.2c3.48,0,5.1-1.33,5.1-3.77v-21.23Z" style="fill:#2a7de1;"/></g><polygon points="1240.26 164.17 904.85 204.22 904.15 197.34 1239.56 157.28 1240.26 164.17" style="fill:#102648; fill-rule:evenodd;"/></g></g><g><rect x="1262.57" y="157.28" width="429.1" height="111.37" rx="53.45" ry="53.45" style="fill:#102648;"/><g><path d="M1348.34,229.61v-6.23h-32.95v-4.36l19.3-25.95h7.47l-18.58,24.91h24.75v-24.91h6.9v24.91h3.84v5.4h-3.84v6.23h-6.9Z" style="fill:#fff;"/><path d="M1377.46,229.61c-8.3,0-11.47-3.58-11.47-8.82v-18.89c0-5.24,3.17-8.82,11.47-8.82h17.18c8.3,0,11.47,3.58,11.47,8.82v18.89c0,5.24-3.17,8.82-11.47,8.82h-17.18Zm21.74-27.76c0-2.18-1.45-3.37-4.57-3.37h-17.18c-3.11,0-4.57,1.19-4.57,3.37v18.99c0,2.18,1.45,3.37,4.57,3.37h17.18c3.11,0,4.57-1.19,4.57-3.37v-18.99Z" style="fill:#fff;"/><path d="M1420.63,210.82c-4.15,0-5.71-1.76-5.71-4.41v-9.44c0-2.59,1.56-4.41,5.71-4.41h8.61c4.15,0,5.71,1.82,5.71,4.41v9.44c0,2.65-1.56,4.41-5.71,4.41h-8.61Zm-3.22,20.34l37.52-40.17h4.31l-37.57,40.17h-4.26Zm14.12-34.2c0-1.09-.73-1.71-2.28-1.71h-8.61c-1.56,0-2.28,.62-2.28,1.71v9.5c0,1.09,.73,1.66,2.28,1.66h8.61c1.56,0,2.28-.57,2.28-1.66v-9.5Zm15.88,33.16c-4.15,0-5.71-1.76-5.71-4.41v-9.44c0-2.59,1.56-4.41,5.71-4.41h8.61c4.15,0,5.71,1.82,5.71,4.41v9.44c0,2.65-1.56,4.41-5.71,4.41h-8.61Zm10.9-13.86c0-1.09-.73-1.71-2.28-1.71h-8.61c-1.56,0-2.28,.62-2.28,1.71v9.5c0,1.09,.73,1.66,2.28,1.66h8.61c1.56,0,2.28-.57,2.28-1.66v-9.5Z" style="fill:#fff;"/><path d="M1510.56,229.61c-8.3,0-11.47-3.58-11.47-8.82v-18.89c0-5.24,3.17-8.82,11.47-8.82h24.13c8.3,0,11.47,3.58,11.47,8.82v18.89c0,5.24-3.17,8.82-11.47,8.82h-24.13Zm28.7-27.76c0-2.18-1.45-3.37-4.57-3.37h-24.13c-3.11,0-4.57,1.19-4.57,3.37v18.99c0,2.18,1.45,3.37,4.57,3.37h24.13c3.11,0,4.57-1.19,4.57-3.37v-18.99Z" style="fill:#fff;"/><path d="M1562.14,214.56v15.05h-6.9v-36.53h37.57v5.4h-30.67v10.69h28.59v5.4h-28.59Z" style="fill:#fff;"/><path d="M1606.05,214.56v15.05h-6.9v-36.53h37.57v5.4h-30.67v10.69h28.59v5.4h-28.59Z" style="fill:#fff;"/></g></g><g><g><path d="M187.11,116.97V17.1h73.08c19.51,0,32.42,8.79,32.42,25.83,0,12.64-6.46,18.96-13.87,21.29,9.07,2.88,15.66,10.85,15.66,22.53,0,18.27-12.64,30.22-32.15,30.22h-75.14Zm30.09-43.41v-14.7h43.14c9.89,0,14.56-3.43,14.56-12.09,0-10.58-8.38-12.23-21.29-12.23h-49.04V99.66h50.55c12.5,0,21.57-3.43,21.57-13.19,0-8.24-5.36-12.91-15.11-12.91h-44.37Z" style="fill:#102648;"/><path d="M316.52,116.97V17.1h17.45V99.52h67.18v17.45h-84.62Z" style="fill:#102648;"/><path d="M524.64,116.97l-14.97-25.14h-47.26l8.24-14.15h30.63l-22.25-37.37-45.33,76.66h-19.92l57.42-95.61c2.06-3.43,4.67-5.63,8.52-5.63s6.32,2.2,8.38,5.63l57.56,95.61h-21.02Z" style="fill:#102648;"/><path d="M595.54,116.97c-27.89,0-48.49-21.98-48.49-50.97s20.61-48.91,48.49-48.91h54.13v17.45h-54.13c-17.86,0-31.05,13.33-31.05,32.28s13.05,32.69,31.05,32.69h54.13v17.45h-54.13Z" style="fill:#102648;"/><path d="M670.68,116.97V17.1h17.45V116.97h-17.45Zm82.29,0l-55.91-43.96c-3.02-2.34-3.57-4.53-3.57-7.28,0-3.02,.82-5.22,4.4-7.97l52.89-40.66h26.79l-65.39,48.77,67.45,51.1h-26.65Z" style="fill:#102648;"/><path d="M186.78,247.08v-94.51h80.21v16.51h-63.83v78h-16.38Zm28.47-39.13v-14.43h47.84v14.43h-47.84Z" style="fill:#102648;"/><path d="M372.69,247.08l-23.92-26.26h-35.36v-14.56h39.39c11.83,0,18.07-6.76,18.07-18.98s-6.76-18.2-18.07-18.2h-51.48v78h-16.38v-94.51h67.86c21.58,0,34.32,13.39,34.32,34.45,0,15.6-7.28,26.65-19.5,31.33l28.47,28.73h-23.4Z" style="fill:#102648;"/><path d="M412.07,247.08v-94.51h16.51v94.51h-16.51Z" style="fill:#102648;"/><path d="M452.37,247.08v-94.51h54.73c26.65,0,46.02,18.85,46.02,46.28s-19.37,48.23-46.02,48.23h-54.73Zm54.73-16.51c17.03,0,29.51-13.13,29.51-30.94s-12.48-30.55-29.51-30.55h-38.35v61.49h38.35Z" style="fill:#102648;"/><path d="M659.08,247.08l-14.17-23.79h-44.72l7.8-13.39h28.99l-21.06-35.36-42.9,72.54h-18.85l54.34-90.48c1.95-3.25,4.42-5.33,8.06-5.33s5.98,2.08,7.93,5.33l54.47,90.48h-19.89Z" style="fill:#102648;"/><path d="M712.11,247.08v-35.88l-50.18-58.63h22.23l36.79,43.55,36.92-43.55h21.06l-50.31,58.63v35.88h-16.51Z" style="fill:#102648;"/></g><g><path d="M809.22,97.56c-1.23,2.01-3.26,3.19-5.58,4.12-.63,.1-1.25,.15-1.86,.27-.09,.02-.24,.53-.21,.54,1.07,.29,1.66-.38,2.21-1.09,.33,1.23,1.07,2.47,2.56,2.44,6.99-.15,12.82,3.08,20.03,2.25,1.7-.2,2.66,1.3,2.45,3.23-.1,.88-1.19,2.08-2.05,2.19-2.2,.27-4.41,.43-6.61,.77-2.2,.34-4.51,.51-6.56,1.31-7.83,3.05-15.16,6.95-21.54,12.2-.5,.41-1,1.34-.82,1.72,.34,.73,1.05,1.74,1.83,1.77,3.24,.15,6.55-.05,9.83-.06,2.29-.01,4.35,.48,5.21,2.3,1.06,2.24,2.71,4.01,4.81,5.52,2.89,2.1,2.27,3.61-1.29,4.41-9.17,2.05-18.38,4.01-27.49,3.21-1.85-.16-2.17-.98-.89-2.38,.48-.53,1.13-.96,1.57-1.51,.94-1.17,.37-2.85-1.03-2.9-1.78-.06-3.61-.18-5.41,.09-8.12,1.21-16.24,2.61-24.36,3.82-2.93,.43-5.87,.53-8.8,.74-.29,.02-.81-.31-.77-.43,.16-.51,.4-1.32,.77-1.44,3.58-1.17,7.09-2.26,10.18-4.65,2.12-1.64,2.38-3.33,2.45-5.19,.02-.5-.49-1.3-.94-1.33-2.53-.17-5.11,.12-7.63,1.2-1.92,.82-2.84,2.27-3.61,3.81l.15,.1c-2.22-.62-4.34-1.67-6.68-1.73-2.02-.05-4.28,1.03-6.44,1.58-.71,.18-1.64,.07-2.14,.44-4.9,3.57-10.62,3.4-16,4.57-10.19,2.21-20.42,4.14-30.63,6.26-.49,.1-.91,.85-1.37,1.29,.29,.14,.58,.42,.88,.39,5.47-.47,10.94-.98,16.41-1.45,.32-.03,.81,.13,.9,.34,.25,.62-.19,1.09-1.11,1.36-.72,.21-1.46,.41-2.13,.73-1.17,.54-1.63,1.4-1.47,2.4,.1,.6,.27,1.17,.41,1.76l.13,.02c-15.47,2.99-30.94,5.98-46.41,8.97-1.11,.21-2.25,.32-3.31,.7-7.58,2.71-15.35,3.79-23.09,5.27-4.41,.84-8.79,2.1-13.19,3.14-8.07,1.91-16.13,3.87-24.21,5.7-21.3,4.81-42.66,9.14-63.88,14.54-2.19,.56-4.43,.95-6.63,1.17-6.69,.67-13.27,2.14-19.85,3.98-2.15,.6-4.38,.77-6.58,1.09-.22,.03-.61-.24-.62-.42-.02-.23,.2-.62,.44-.78,2.14-1.39,4.97-2.2,5.39-4.98,.06-.43,.99-1.12,1.61-1.3,13.45-3.84,26.95-7.4,40.55-10.43,7.72-1.72,15.42-3.53,23.13-5.34,1.83-.43,3.66-.95,5.44-1.57,9.37-3.25,18.93-5.32,28.54-7.01,4.8-.85,9.61-1.57,14.41-2.22,3.33-.46,6.61-1.05,9.92-1.97,3.25-.91,6.62-1.37,9.94-1.86,4.11-.61,8.09-1.72,11.94-3.41,.59-.26,.98-.97,1.46-1.47-.54-.28-1.09-.88-1.6-.79-3.69,.62-7.37,1.38-11.05,2.09-9.95,1.92-19.89,3.88-29.84,5.74-1.83,.34-3.69,.31-5.53,.49-1.84,.18-3.7,.25-5.52,.66-16.89,3.83-33.79,7.58-50.64,11.66-11.35,2.75-22.64,5.94-33.94,9.05-13.85,3.82-27.68,7.69-41.49,11.68-8.72,2.52-17.38,5.32-26.07,7.96-3.26,.99-6.55,1.88-9.82,2.84-4.72,1.39-9.44,2.81-13.79,5.24-.88,.49-.93,1.45-.02,2.3,.44,.41,.98,.76,1.47,1.13-.63,.26-1.27,.7-1.88,.74-3.68,.25-7.35,.34-11.03,.63-4.44,.35-8.83,1.1-13.14,2.94-5.26,2.25-10.77,3.67-16.3,4.86-4.04,.87-8.09,1.67-12.14,2.5-3.25,2.44-7.15,2.14-10.72,3.21-3.25,.98-6.65,1.98-9.53,3.63-3.44,1.97-6.93,3.1-10.65,3.48-4.78,.49-9.47,2.42-14.34,2.12-3.42-.21-6.41,1.95-9.25,3.82-1.05,.69-.78,2.78,.45,3.13,2.94,.85,5.9,1.65,8.87,2.44,.02-.03,.22-.26,.22-.26-3.65,.22-7.3,.44-10.96,.65-4.39,.25-8.77,.4-13.17,.77-3.66,.3-7.25,.86-10.76,2.78-2.23,1.22-4.95,1.65-7.4,2.57-.58,.22-1.45,1.12-1.36,1.44,.2,.76,.74,1.89,1.42,1.95,3.52,.34,8.76,3.23-.45,3.82-1.1,.07-2.24,.09-3.32,.37-4,1-8,2.06-11.98,3.22-.38,.11-.67,1.01-.83,1.56-.07,.24,.19,.58,.43,.76,1.36,1.03,3.25,1.03,5.05,1,7.7-.15-13.58,6.47-24.32,8.26-5.89,.98-11.8,1.5-17.7,2.26-.24,.03-.73,.5-.69,.65,.13,.51,.27,1.23,.7,1.37,.94,.31,2.04,.43,3.11,.42,4.39-.04-1.85,3.95-16.6,4.97-4.04,.28-8.13,1.04-12.19,1.4-4.59,.41-8.74,1.56-12.5,4.58-1.35,1.08-3.41,1.54-5.18,2.18-2.85,1.03-5.78,1.85-8.57,2.99-1.94,.79-3.5,.64-5.28,.29-1.29-.25-2.89,.22-4.33,.23-.68,0-1.31-.31-1.93-.53-1.8-.63-2.13-2.79-.54-3.8,4.13-2.61,8.3-5.15,12.44-7.75,2.54-1.6,5.07-3.21,7.56-4.88,.59-.4,1.1-1.01,1.43-1.59,.32-.56,.7-1.43,.44-1.76-.52-.63-1.37-1.26-2.28-1.38-1.8-.25-3.7,.24-5.36,1.27-4.95,3.07-10.68,3.53-15.98,5.45-1.33,.48-2.93,.27-4.39,.25-.54,0-1.01-.36-1.52-.56,.22-.27,.38-.59,.66-.81,.86-.7,1.67-1.54,2.66-2.03,8.14-4.02,15.43-9.52,24.22-12.45,1.41-.47,2.83-1.2,4.02-2.05,.8-.58,1.49-1.58,1.69-2.42,.22-.95-.48-1.66-1.72-1.79-.69-.08-1.4-.18-2.01-.4-.95-.35-.95-1.67-.28-2.41,1.54-1.68,.91-10.77-10.52-4.66-5.99,3.2-12.46,5.63-18.75,8.34-5.94,2.56-11.76,5.28-17.45,8.36-10.32,5.59-20.87,10.82-31.33,16.19-.67,.35-1.36,.71-2.07,.95-9.81,3.35-18.44,8.78-27.3,13.81-2.61,1.49-5.45,2.65-8.2,3.92-.25,.11-.64-.06-1.34-.15,2.38-1.57,4.45-3.13,6.73-4.39,6.95-3.84,14.07-7.43,20.96-11.35,9.22-5.24,18.99-9.51,28.27-14.63,1.99-1.1,4.03-2.12,6.1-3.07,6.9-3.18,13.87-6.2,20.46-9.99,3.58-2.06,7.6-3.46,11.4-5.21,8.96-4.15,17.41-12.19,12.87-10.23-9.07,3.93-18.15,7.82-26.87,12.5-4.65,2.5-9.68,4.4-14.6,6.44-7.03,2.92-13.95,5.96-20.55,9.77-6.87,3.96-14.09,7.41-21.11,11.14-6.36,3.38-12.66,6.85-18.99,10.27-3.33,1.8-6.62,3.68-10.03,5.33-4.84,2.34-9.12,5.23-12.72,8.92l.07-.06c.55-2.42,2.6-4.06,4.81-5.48,4.1-2.64,8.31-5.15,12.47-7.72,4.17-2.57,8.33-5.15,12.49-7.73,2.24-1.39,4.38-2.93,6.72-4.14,3.42-1.77,6.45-3.94,9.23-6.37,3.64-3.18,7.46-6.09,11.96-8.28,4.24-2.06,7.05-5.4,10.04-8.55,.35-.36,.18-1.1,.12-1.63,0-.09-.72-.16-1.03-.04-3.88,1.5-7.77,2.99-11.62,4.56-4.22,1.72-8.37,3.45-12.98,3.75-2.12,.14-4.44,.95-6.46,1.87-4.48,2.05-8.89,4.27-13.21,6.62-7.33,4-14.72,7.82-22.73,10.4-3.66,1.18-7.03,2.81-10.18,4.95-3.1,2.1-6.25,4.16-9.43,6.15-1.26,.79-2.74,1.92-4,1.97-6.29,.25-10.37,3.94-14.62,7.54-.46,.39-1.31,.51-1.99,.62-.27,.05-.62-.22-.81-.43-.2-.21-.42-.55-.33-.79,.23-.61,.49-1.29,.98-1.78,1.55-1.53,3-3.24,4.85-4.44,7.58-4.89,15.02-9.9,22.37-15.08,7.31-5.15,15.43-9.4,23.2-14.03,11.02-6.56,22.11-13.04,33.06-19.7,3.2-1.94,6.09-4.32,9.04-6.57,3.27-2.5,6.62-4.87,10.45-6.63,7.27-3.33,14.02-7.41,20.62-11.77,2.48-1.64,5.35-2.81,8.02-4.23,.99-.53,2.01-1.11,2.82-1.83,.43-.39,.56-1.14,.59-1.7,.04-.75-.56-1.15-1.43-.97-1.81,.39-3.68,.7-5.41,1.37-7.45,2.89-14.74,6.11-21.77,9.88-2.33,1.25-4.71,2.45-7.12,3.56-2.05,.95-4.19,1.73-6.93,2.85,1.71-2.91,4.19-4.24,6.72-5.6,6.33-3.4,12.61-6.86,18.89-10.33,.2-.11,.28-.64,.2-.9-.05-.18-.52-.38-.73-.31-2.86,.92-5.74,1.8-8.55,2.85-10.34,3.84-20.5,7.98-30.1,13.47-4.89,2.79-10.31,4.82-15.49,7.17-2.42,1.1-4.9,2.12-6.61,4.14l.08-.02c.59-1.19,.79-2.55,2.31-3.35,6.36-3.37,12.73-6.71,19.08-10.09,8.03-4.27,16.08-8.49,24.32-12.41,4.76-2.27,9.43-4.9,12.68-8.99,1-1.26,1.35-2.38,.46-2.48-.66-.08-1.39-.31-2-.12-3.97,1.26-7.91,2.63-11.87,3.92-.31,.1-.7-.07-1.05-.11,.14-.3,.2-.73,.44-.87,3.62-2.03,7.18-4.2,10.94-5.98,8.23-3.92,16.54-7.66,24.57-11.98,4.99-2.68,10.41-4.65,15.59-7.03,5.17-2.38,10.27-4.9,15.42-7.33,3.78-1.78,7.55-3.59,11.38-5.26,26.84-11.72,54.03-22.61,81.24-33.47,12-4.79,23.81-10.04,35.7-15.1,.3-.13,.48-.52,.72-.79-.54-.21-1.11-.7-1.6-.58-6.24,1.47-12.5,2.69-18.61,5-8.88,3.37-17.91,6.35-26.82,9.66-15.67,5.81-31.27,11.83-47.17,16.99-6.84,2.22-13.46,5.25-20.17,7.94-19.06,7.65-38.14,15.26-57.15,23.02-9.86,4.02-19.61,8.31-29.4,12.51-1.74,.75-3.53,1.51-5.11,2.5-6.13,3.86-13.07,6.05-19.58,9.14,7.53-4.19,14.72-8.87,22.74-12.32,4.14-1.78,8.12-4.2,11.75-6.79,3.74-2.67,7.8-4.53,11.95-6.44,6.55-3.02,13.03-6.2,19.54-9.32,1.03-.49,1.99-1.1,3.03-1.58,13.42-6.27,26.71-12.86,40.32-18.72,18.15-7.82,36.09-16.17,54.59-23.21,8.53-3.25,16.98-6.69,25.44-10.12,2.44-.99,4.81-2.2,7.13-3.44,.41-.22,.69-1.19,.54-1.63-.15-.43-1.01-1-1.42-.88-3.25,.94-6.53,1.86-9.68,3.1-13.8,5.44-27.56,10.99-41.33,16.5-2.11,.84-4.2,1.72-6.97,2.85,.77-.74,.94-1.01,1.18-1.11,7-2.97,13.98-6.01,21.03-8.86,20.1-8.12,40.24-16.16,60.37-24.22,5.65-2.26,11.31-4.48,17.21-5.97,2.55-.64,5.04-1.68,7.55-2.56,1.79-.63,3.54-1.53,5.36-1.93,9.25-2.06,18.1-5.57,27.08-8.6,5.75-1.94,11.55-3.74,17.33-5.58,2.53-.8,5.07-1.55,7.61-2.33,3.99-1.22,7.98-2.4,11.96-3.67,8.31-2.65,16.64-5.1,25.2-6.4,2.92-.44,5.88-1.34,8.74-2.29,9.01-2.99,18-6.04,27.26-8.02,2.92-.62,5.79-1.78,8.66-2.77,3.95-1.36,7.89-2.74,11.8-4.2,3.99-1.49,7.94-2.32,12.04-2,3.25,.25,6.59-.5,9.93-1.27,21.69-4.96,43.38-9.88,65.08-14.72,7.73-1.73,15.48-3.24,23.22-4.81,11.06-2.24,22.12-4.44,33.18-6.66,2.58-.52,5.15-1.16,7.73-1.54,12.95-1.94,25.9-3.87,38.84-5.68,4.81-.67,9.62-1.15,14.42-1.5,8.17-.6,16.18-2.3,24.29-4.39,8.4-2.16,16.62-5.36,25.18-6.59,1.47-.21,2.95-.64,4.42-.77,6.64-.56,13.28-1.03,19.92-1.56,3.92-.31,7.13,.2,8.71,3.48,.43,.9,2.08,1.62,3.36,1.7,5.75,.35,11.56,.47,17.36,.61,1.41,.04,2.92-.28,4.29-.14,.71,.08,.58,.9-.09,1.55-.74,.2-1.58,.19-2.15,.55-1.27,.8-.87,.93,.55,.4,.64-.24,1.17-.8,1.74-1.22,.78,1.47,2.28,2.16,4.2,2.11,4.77-.15,9.55-.4,14.32-.64,1.1-.06,2.21-.26,3.32-.36,1.41-.13,3.02,.59,2.5,1.02-.53,.44-1.22,.96-1.85,1.06-4.44,.71-8.88,1.27-13.31,1.98-1.91,.31-3.88,1.17-4.83,2.64-2.86,4.42-7.19,6.03-12.33,6.48-.7,.06-1.44,.42-2.13,.72-.3,.13-.73,.54-.7,.73,.07,.51,.19,1.32,.57,1.41,3.38,.77,6.78,1.56,10.28,2.02,1.7,.23,3.64-.1,5.47-.39,6.66-1.04,13.31-2.21,19.96-3.25,2.96-.46,5.92-.8,8.68,0,3.14,.91,6.45,.29,9.77-.72,4.38-1.33,8.79-2.15,13.23-2.28,.34,0,.72,.09,.97,.26,.61,.4,.37,.85-.61,1.29-5.67,2.54-11.53,3.62-17.49,3.97-8.13,.48-16.22,2.04-24.28,4.1-.3,.08-.81,.5-.79,.65,.07,.48,.2,1.21,.58,1.31,1.32,.36,2.74,.55,4.15,.71,3.54,.42,7.1,.77,10.63,1.21,1.05,.13,2.02,.49,3.01,.78,1.1,.33,1.56,1.12,1.47,2.09-.17,1.88-.49,3.77-.75,5.66-.53,3.82-.42,7.46,2.05,10.47,.46,.56,.29,1.1-.41,1.69-1.8,1.52-1.41,2.89-.28,4.15,1.99,2.21,4.71,3.25,8.34,2.83,2.2-.25,4.4-.51,6.59-.71,.23-.02,.63,.3,.61,.49-.03,.26-.32,.63-.6,.8-1.72,1.02-3.56,.98-5.41,1.2-2.18,.26-4.38,.8-6.53,1.39-.5,.14-1.06,1-1.21,1.55-.15,.58-.05,1.32,.3,1.76,2.1,2.6,1.42,5.05-1.6,7.59-.8,.67-1.55,1.71-1.69,2.56-.41,2.5-.78,4.69-3.34,6.92-2.11,1.83-1.66,4.89-3.66,7.13-.22,.24,.2,1.28,.62,1.39,2.3,.61,4.7,1.05,7.2,1.58-.06,1.51-1.96,1.35-3,2-.95,.6-2.04,1.01-3.07,1.51-.51-.21-.99-.62-1.54-.62-.83,0-1.19,.55-.83,1.13,.09,.15,.62,.2,.86,.1,.58-.25,1.11-.62,1.67-.94Zm-45.14,35.21c-.21-.17-.39-.47-.64-.47-.2,0-.49,.32-.74,.5,.21,.17,.39,.47,.63,.48,.21,0,.49-.33,.74-.51Z" style="fill:#ed1c24;"/><g><path d="M213.35,231.51c-10.25,4.33-21.46-.86-24.55-11.59-3.19-11.04,2.87-22.13,13.35-26.39,8.41-3.46,12.62-5.18,21.04-8.56,.78,2.66,1.18,3.99,1.96,6.65-8.42,3.38-12.63,5.09-21.04,8.54-6.94,2.85-10.56,10.05-8.44,17.25,2.11,7.15,8.73,10.32,15.73,7.46,8.42-3.43,12.63-5.13,21.05-8.48,.78,2.66,1.18,3.99,1.96,6.65-8.43,3.35-12.64,5.04-21.05,8.47Z" style="fill:#fff;"/><path d="M260.57,212.81c-1.71-5.8-2.56-8.7-4.26-14.5-9.18-5.22-18.38-10.41-27.61-15.55,3.66-1.46,5.48-2.19,9.14-3.63,8.12,4.64,12.19,6.97,20.32,11.68,4.01-9.39,6.02-14.07,10.03-23.44,3.47-1.32,5.21-1.98,8.68-3.28-4.59,10.53-9.18,21.07-13.76,31.6,1.71,5.8,2.56,8.71,4.27,14.51-2.72,1.04-4.08,1.56-6.8,2.61Z" style="fill:#fff;"/><path d="M294.81,199.91c-3.75-12.78-7.5-25.56-11.25-38.34,9.49-3.55,19-7.03,28.53-10.45,7.62-2.74,13.66-1.13,15.58,5.44,1.43,4.87-.39,8.2-3.02,10.13,3.87-.14,7.35,2.03,8.66,6.53,2.06,7.05-1.53,13.38-9.16,16.08-9.81,3.47-19.59,7.01-29.35,10.62Zm6.86-20.99c-.66-2.26-.99-3.39-1.66-5.65,6.74-2.46,10.11-3.68,16.85-6.09,3.86-1.38,5.3-3.35,4.33-6.69-1.19-4.08-4.65-3.55-9.7-1.73-7.66,2.76-11.49,4.16-19.15,6.98,2.93,10,4.4,15,7.34,25.01,7.89-2.89,11.84-4.32,19.75-7.14,4.89-1.74,8.04-4.32,6.94-8.08-.93-3.18-3.55-4.24-7.36-2.88-6.94,2.48-10.4,3.73-17.33,6.26Z" style="fill:#fff;"/><path d="M345.37,181.88c-3.75-12.85-7.51-25.7-11.27-38.56,11.6-4.05,23.23-8.02,34.88-11.9,.79,2.7,1.18,4.06,1.97,6.76-9.39,3.12-18.76,6.29-28.11,9.53,2.93,10.04,4.4,15.06,7.33,25.1,9.37-3.22,18.76-6.37,28.18-9.47,.79,2.71,1.18,4.06,1.97,6.77-11.68,3.84-23.33,7.76-34.95,11.77Zm6.87-20.81c-.66-2.27-1-3.41-1.66-5.68,8.66-2.96,13-4.42,21.67-7.3,.66,2.28,1,3.42,1.66,5.7-8.67,2.87-13,4.33-21.67,7.29Z" style="fill:#fff;"/><path d="M425.22,155.81c-5.22-3.1-7.83-4.65-13.05-7.73-5.86,1.84-8.79,2.77-14.64,4.64-.7-2.39-1.04-3.59-1.74-5.98,6.52-2.1,9.79-3.13,16.31-5.18,4.9-1.54,6.68-5.12,5.22-10.15-1.46-5.03-4.98-6.62-9.66-5.14-8.53,2.69-12.79,4.06-21.31,6.83,3.1,10.67,6.21,21.34,9.31,32.01-2.71,.87-4.07,1.31-6.78,2.19-3.76-12.92-7.52-25.83-11.28-38.75,9.34-3.08,18.71-6.11,28.09-9.07,8.94-2.83,15.82,1.06,18.33,9.74,1.86,6.42,.17,11.9-4.34,15.4,6.09,3.27,9.14,4.91,15.23,8.21-3.88,1.18-5.82,1.77-9.7,2.97Z" style="fill:#fff;"/><path d="M508.51,131.74c-5.14-8.52-10.29-17.03-15.44-25.54-1.25,9.53-2.5,19.07-3.76,28.6-.27,1.88-1.09,3.1-2.76,3.57-1.62,.45-3.07-.13-4.25-1.6-6.12-7.44-12.26-14.88-18.41-22.3,.15,9.88,.3,19.77,.45,29.65-2.7,.78-4.04,1.18-6.74,1.97-.18-13.24-.37-26.47-.55-39.71-.06-2.02,.76-3.25,2.59-3.79,1.46-.42,3.04,0,4.12,1.31,6.7,8.06,13.39,16.14,20.07,24.23,1.36-10.36,2.72-20.73,4.09-31.09,.21-1.69,1.17-2.83,2.62-3.23,1.67-.46,3.02,.16,4.1,1.9,6.9,11.4,13.79,22.81,20.67,34.23-2.72,.73-4.08,1.09-6.8,1.83Z" style="fill:#fff;"/><path d="M538.29,123.9c-11.17,2.78-21.67-4.42-24.82-15.1-3.13-10.63,2.58-21.56,13.51-24.3,3.82-1,5.73-1.49,9.55-2.47,11.07-2.95,21.67,3.71,24.75,14.5,3.04,10.66-2.26,22.14-13.44,24.94-3.82,.96-5.73,1.45-9.55,2.43Zm7.58-9.32c7.23-1.83,10.79-8.58,8.66-16.02-2.13-7.44-8.78-11.49-16.01-9.64-3.82,.98-5.73,1.47-9.55,2.46-7.01,1.83-10.68,8.45-8.54,15.92,2.13,7.41,8.83,11.53,15.9,9.71,3.82-.98,5.73-1.47,9.55-2.44Z" style="fill:#fff;"/><path d="M573.4,84.22c2.76,9.66,5.52,19.31,8.28,28.97-2.61,.62-3.92,.93-6.53,1.56-3.42-11.97-6.84-23.94-10.27-35.91-.73-2.56,.17-4.46,2.33-4.99,1.03-.25,2-.08,3.32,.71,11.91,7.03,23.78,14.12,35.61,21.29-2.76-9.68-5.52-19.37-8.28-29.05,2.61-.6,3.92-.9,6.53-1.49,3.46,12.13,6.91,24.27,10.36,36.4,.75,2.62-.22,4.47-2.22,4.91-1.13,.25-2.3,0-3.55-.77-11.83-7.25-23.68-14.48-35.58-21.62Z" style="fill:#fff;"/><path d="M625.12,103.31c-3.77-13.26-7.54-26.52-11.31-39.77,9.09-2.02,13.63-3,22.72-4.92,11.24-2.36,21.55,4.88,24.64,15.6,3.01,10.46-2.06,21.97-13.33,24.27-9.09,1.88-13.63,2.85-22.72,4.82Zm20.74-11.79c7.07-1.47,10.68-8.06,8.54-15.59-2.13-7.52-8.83-11.85-15.9-10.35-6.37,1.34-9.55,2.03-15.92,3.41,2.94,10.36,4.42,15.53,7.36,25.9,6.37-1.37,9.55-2.04,15.92-3.37Z" style="fill:#fff;"/><path d="M710.88,86.31c-3.49-3.62-5.23-5.43-8.72-9.04-7.42,1.36-11.13,2.05-18.55,3.47,.65-2.52,.98-3.78,1.63-6.29,4.81-.92,7.22-1.37,12.03-2.26-5.19-5.36-7.78-8.03-12.97-13.36-3.04,11.39-6.08,22.77-9.12,34.16-3.13,.61-4.69,.92-7.82,1.54,3.91-14.24,7.81-28.48,11.72-42.71,.42-1.53,1.2-2.61,2.71-2.9,1.51-.29,2.73,.41,3.93,1.63,11.17,11.4,22.31,22.83,33.41,34.3-3.3,.58-4.95,.87-8.25,1.46Z" style="fill:#fff;"/><path d="M732.87,82.48c-1.72-6.11-2.57-9.17-4.29-15.28-9.24-7.12-18.52-14.2-27.81-21.25,3.69-.67,5.53-1.01,9.22-1.67,8.19,6.31,12.28,9.49,20.46,15.87,4.04-8.46,6.06-12.69,10.1-21.12,3.49-.58,5.24-.86,8.73-1.42-4.62,9.48-9.23,18.95-13.84,28.44,1.72,6.12,2.57,9.18,4.29,15.3-2.74,.45-4.11,.68-6.84,1.15Z" style="fill:#fff;"/></g></g></g></g></svg>