<svg width="385" height="275" viewBox="0 0 385 275" fill="none" xmlns="http://www.w3.org/2000/svg">
<g clip-path="url(#clip0_2200_28370)">
<g clip-path="url(#clip1_2200_28370)">
<g clip-path="url(#clip2_2200_28370)">
<g filter="url(#filter0_f_2200_28370)">
<path d="M120 168.5L20.5 229L74 259.5L178.5 198L120 168.5Z" fill="#E6E7E8"/>
</g>
<g filter="url(#filter1_f_2200_28370)">
<path d="M125.5 180L45 228.5L75.5 246L158.5 197.5L125.5 180Z" fill="#929497"/>
</g>
</g>
<path d="M118.946 170.36C118.946 170.442 118.946 170.518 118.939 170.6C125.152 170.174 129.431 174.31 129.492 181.941C137.894 175.954 144.391 164.834 144.391 155.991C144.357 138.573 122.103 145.792 113.396 164.366C116.634 163.836 118.953 166.107 118.953 170.353L118.946 170.36Z" fill="#4D4D4D"/>
<path d="M92.8548 206.894C95.7075 224.828 123.667 208.388 126.513 187.103C127.574 179.113 123.802 174.358 117.914 174.544C116.914 179.251 113.54 184.212 109.87 186.353C106.638 194.555 100.196 202.634 92.8616 206.894H92.8548Z" fill="#4D4D4D"/>
<path d="M75.2642 196.62C75.3588 214.478 98.5321 206.447 106.86 186.951C106.867 186.951 106.867 186.938 106.867 186.931C102.101 188.328 99.3568 183.29 101.358 176.883C96.1323 177.592 92.1169 175.239 90.5688 170.387C81.9769 176.299 75.2642 187.633 75.2642 196.62Z" fill="#4D4D4D"/>
<path d="M92.6775 163.017C92.7045 170.325 97.0444 173.842 103.135 172.865C104.805 169.3 107.637 166.107 110.429 164.744C113.999 156.645 120.279 149.598 126.464 145.93C129.236 119.422 93.5022 138.126 92.6775 163.017Z" fill="#4D4D4D"/>
<path d="M46.6483 228.881L75.2972 245.713L157.215 197.576L128.613 180.71L46.6483 228.881Z" fill="#B3B3B3"/>
<path d="M128.39 180.765L157.215 197.576V101.963L128.39 85.0275V180.765Z" fill="#CCCCCC"/>
<path d="M82.7412 197.707L95.5717 205.208L133.164 183.18L120.334 175.679L82.7412 197.707Z" fill="#CCCCCC"/>
<path d="M82.7412 184.343L95.5717 191.844L133.164 169.816L120.334 162.315L82.7412 184.343Z" fill="#CCCCCC"/>
<path d="M82.7412 170.986L95.5717 178.48L133.164 156.452L120.334 148.951L82.7412 170.986Z" fill="#CCCCCC"/>
<path d="M82.7412 157.622L95.5717 165.116L133.164 143.088L120.334 135.594L82.7412 157.622Z" fill="#CCCCCC"/>
<path d="M82.7412 144.258L95.5717 151.759L133.164 129.724L120.334 122.23L82.7412 144.258Z" fill="#CCCCCC"/>
<path d="M82.7412 130.894L95.5717 138.395L133.164 116.366L120.334 108.865L82.7412 130.894Z" fill="#CCCCCC"/>
<path d="M82.7412 117.529L95.5717 125.03L133.164 103.002L120.334 95.5013L82.7412 117.529Z" fill="#CCCCCC"/>
<path d="M43.085 220.616L55.9155 228.11L93.5078 206.082L80.6773 198.588L43.085 220.616Z" fill="#CCCCCC"/>
<path d="M43.085 207.252L55.9155 214.753L93.5078 192.718L80.6773 185.224L43.085 207.252Z" fill="#CCCCCC"/>
<path d="M43.085 193.888L55.9155 201.389L93.5078 179.361L80.6773 171.86L43.085 193.888Z" fill="#CCCCCC"/>
<path d="M43.085 180.524L55.9155 188.025L93.5078 165.997L80.6773 158.496L43.085 180.524Z" fill="#CCCCCC"/>
<path d="M43.085 167.167L55.9155 174.661L93.5078 152.633L80.6773 145.132L43.085 167.167Z" fill="#CCCCCC"/>
<path d="M43.085 153.802L55.9155 161.297L93.5078 139.268L80.6773 131.774L43.085 153.802Z" fill="#CCCCCC"/>
<path d="M43.085 140.438L55.9155 147.939L93.5078 125.904L80.6773 118.41L43.085 140.438Z" fill="#CCCCCC"/>
<path d="M46.4332 228.805L75.2578 245.748V150.004L46.4332 133.068V228.805Z" fill="url(#paint0_linear_2200_28370)"/>
<path d="M46.6077 133.171L75.2566 150.004L157.215 101.832L128.573 85L46.6077 133.171Z" fill="#F2F2F2"/>
<path d="M75.2566 245.748L157.215 197.576V101.839L75.2566 150.011V245.748Z" fill="url(#paint1_linear_2200_28370)"/>
</g>
<g clip-path="url(#clip3_2200_28370)">
<path d="M170.5 86L233.95 49.26H297.5" stroke="#002159" stroke-miterlimit="10" stroke-linecap="round" stroke-dasharray="2 2"/>
<path d="M297.26 53.02C299.337 53.02 301.02 51.3366 301.02 49.26C301.02 47.1834 299.337 45.5 297.26 45.5C295.183 45.5 293.5 47.1834 293.5 49.26C293.5 51.3366 295.183 53.02 297.26 53.02Z" fill="white"/>
<path d="M297.26 53.52C294.91 53.52 293 51.61 293 49.26C293 46.91 294.91 45 297.26 45C299.61 45 301.52 46.91 301.52 49.26C301.52 51.61 299.61 53.52 297.26 53.52C299.61 53.52 294.91 53.52 297.26 53.52ZM297.26 46C295.46 46 294 47.46 294 49.26C294 51.06 295.46 52.52 297.26 52.52C299.06 52.52 300.52 51.06 300.52 49.26C300.52 47.46 299.06 46 297.26 46C299.06 46 295.46 46 297.26 46Z" fill="#002159"/>
</g>
<path d="M315.716 24V19.9545L324.205 12.5227C324.841 11.947 325.383 11.4205 325.83 10.9432C326.277 10.4583 326.617 9.97348 326.852 9.48864C327.087 8.99621 327.205 8.46212 327.205 7.88636C327.205 7.24242 327.064 6.69318 326.784 6.23864C326.504 5.77651 326.117 5.42045 325.625 5.17045C325.133 4.92045 324.568 4.79545 323.932 4.79545C323.288 4.79545 322.723 4.92803 322.239 5.19318C321.754 5.45076 321.375 5.82576 321.102 6.31818C320.837 6.81061 320.705 7.40909 320.705 8.11364H315.375C315.375 6.5303 315.731 5.16288 316.443 4.01136C317.155 2.85985 318.155 1.97348 319.443 1.35227C320.739 0.723484 322.242 0.40909 323.955 0.40909C325.72 0.40909 327.254 0.704545 328.557 1.29545C329.86 1.88636 330.867 2.71212 331.58 3.77273C332.299 4.82576 332.659 6.04924 332.659 7.44318C332.659 8.32955 332.481 9.20833 332.125 10.0795C331.769 10.9508 331.129 11.9129 330.205 12.9659C329.288 14.0189 327.985 15.2803 326.295 16.75L323.511 19.3182V19.4659H332.943V24H315.716ZM340.255 6.54545L343.13 12.2955L346.107 6.54545H351.709L346.834 15.2727L351.891 24H346.334L343.13 18.2045L340.005 24H334.369L339.437 15.2727L334.619 6.54545H340.255Z" fill="#002159"/>
<path d="M316.409 46V34.3636H323.386V35.6136H317.818V39.5455H322.864V40.7955H317.818V46H316.409ZM328.316 46.1818C327.475 46.1818 326.75 45.9962 326.14 45.625C325.534 45.25 325.066 44.7273 324.737 44.0568C324.411 43.3826 324.248 42.5985 324.248 41.7045C324.248 40.8106 324.411 40.0227 324.737 39.3409C325.066 38.6553 325.525 38.1212 326.112 37.7386C326.703 37.3523 327.392 37.1591 328.18 37.1591C328.635 37.1591 329.083 37.2348 329.527 37.3864C329.97 37.5379 330.373 37.7841 330.737 38.125C331.1 38.4621 331.39 38.9091 331.606 39.4659C331.822 40.0227 331.93 40.7083 331.93 41.5227V42.0909H325.203V40.9318H330.566C330.566 40.4394 330.468 40 330.271 39.6136C330.078 39.2273 329.801 38.9223 329.441 38.6989C329.085 38.4754 328.665 38.3636 328.18 38.3636C327.646 38.3636 327.184 38.4962 326.794 38.7614C326.407 39.0227 326.11 39.3636 325.902 39.7841C325.693 40.2045 325.589 40.6553 325.589 41.1364V41.9091C325.589 42.5682 325.703 43.1269 325.93 43.5852C326.161 44.0398 326.481 44.3864 326.89 44.625C327.299 44.8598 327.775 44.9773 328.316 44.9773C328.669 44.9773 328.987 44.928 329.271 44.8295C329.559 44.7273 329.807 44.5758 330.015 44.375C330.224 44.1705 330.385 43.9167 330.498 43.6136L331.794 43.9773C331.657 44.4167 331.428 44.803 331.106 45.1364C330.784 45.4659 330.386 45.7235 329.913 45.9091C329.439 46.0909 328.907 46.1818 328.316 46.1818ZM336.218 46.2045C335.665 46.2045 335.163 46.1004 334.712 45.892C334.262 45.6799 333.904 45.375 333.638 44.9773C333.373 44.5758 333.241 44.0909 333.241 43.5227C333.241 43.0227 333.339 42.6174 333.536 42.3068C333.733 41.9924 333.996 41.7462 334.326 41.5682C334.655 41.3902 335.019 41.2576 335.417 41.1705C335.818 41.0795 336.222 41.0076 336.627 40.9545C337.157 40.8864 337.587 40.8352 337.917 40.8011C338.25 40.7633 338.493 40.7008 338.644 40.6136C338.799 40.5265 338.877 40.375 338.877 40.1591V40.1136C338.877 39.553 338.724 39.1174 338.417 38.8068C338.114 38.4962 337.654 38.3409 337.036 38.3409C336.396 38.3409 335.894 38.4811 335.53 38.7614C335.167 39.0417 334.911 39.3409 334.763 39.6591L333.491 39.2045C333.718 38.6742 334.021 38.2614 334.4 37.9659C334.782 37.6667 335.199 37.4583 335.65 37.3409C336.104 37.2197 336.551 37.1591 336.991 37.1591C337.271 37.1591 337.593 37.1932 337.957 37.2614C338.324 37.3258 338.678 37.4602 339.019 37.6648C339.364 37.8693 339.65 38.178 339.877 38.5909C340.104 39.0038 340.218 39.5568 340.218 40.25V46H338.877V44.8182H338.809C338.718 45.0076 338.566 45.2102 338.354 45.4261C338.142 45.642 337.86 45.8258 337.508 45.9773C337.155 46.1288 336.726 46.2045 336.218 46.2045ZM336.423 45C336.953 45 337.4 44.8958 337.763 44.6875C338.131 44.4792 338.407 44.2102 338.593 43.8807C338.782 43.5511 338.877 43.2045 338.877 42.8409V41.6136C338.82 41.6818 338.695 41.7443 338.502 41.8011C338.313 41.8542 338.093 41.9015 337.843 41.9432C337.597 41.9811 337.356 42.0152 337.121 42.0455C336.89 42.072 336.703 42.0947 336.559 42.1136C336.21 42.1591 335.885 42.233 335.582 42.3352C335.282 42.4337 335.04 42.5833 334.854 42.7841C334.673 42.9811 334.582 43.25 334.582 43.5909C334.582 44.0568 334.754 44.4091 335.099 44.6477C335.447 44.8826 335.888 45 336.423 45ZM346.141 37.2727V38.4091H341.618V37.2727H346.141ZM342.936 35.1818H344.277V43.5C344.277 43.8788 344.332 44.1629 344.442 44.3523C344.556 44.5379 344.7 44.6629 344.874 44.7273C345.052 44.7879 345.239 44.8182 345.436 44.8182C345.584 44.8182 345.705 44.8106 345.8 44.7955C345.895 44.7765 345.97 44.7614 346.027 44.75L346.3 45.9545C346.209 45.9886 346.082 46.0227 345.919 46.0568C345.756 46.0947 345.55 46.1136 345.3 46.1136C344.921 46.1136 344.55 46.0322 344.186 45.8693C343.826 45.7064 343.527 45.4583 343.289 45.125C343.054 44.7917 342.936 44.3712 342.936 43.8636V35.1818ZM353.338 42.4318V37.2727H354.679V46H353.338V44.5227H353.247C353.042 44.9659 352.724 45.3428 352.292 45.6534C351.861 45.9602 351.315 46.1136 350.656 46.1136C350.111 46.1136 349.626 45.9943 349.202 45.7557C348.777 45.5133 348.444 45.1496 348.202 44.6648C347.959 44.1761 347.838 43.5606 347.838 42.8182V37.2727H349.179V42.7273C349.179 43.3636 349.357 43.8712 349.713 44.25C350.073 44.6288 350.531 44.8182 351.088 44.8182C351.421 44.8182 351.76 44.733 352.105 44.5625C352.453 44.392 352.745 44.1307 352.98 43.7784C353.219 43.4261 353.338 42.9773 353.338 42.4318ZM356.815 46V37.2727H358.11V38.5909H358.201C358.36 38.1591 358.648 37.8087 359.065 37.5398C359.481 37.2708 359.951 37.1364 360.474 37.1364C360.572 37.1364 360.695 37.1383 360.843 37.142C360.991 37.1458 361.103 37.1515 361.178 37.1591V38.5227C361.133 38.5114 361.029 38.4943 360.866 38.4716C360.707 38.4451 360.538 38.4318 360.36 38.4318C359.936 38.4318 359.557 38.5208 359.224 38.6989C358.894 38.8731 358.633 39.1155 358.44 39.4261C358.25 39.733 358.156 40.0833 358.156 40.4773V46H356.815ZM365.841 46.1818C365 46.1818 364.275 45.9962 363.665 45.625C363.059 45.25 362.591 44.7273 362.262 44.0568C361.936 43.3826 361.773 42.5985 361.773 41.7045C361.773 40.8106 361.936 40.0227 362.262 39.3409C362.591 38.6553 363.05 38.1212 363.637 37.7386C364.228 37.3523 364.917 37.1591 365.705 37.1591C366.16 37.1591 366.608 37.2348 367.052 37.3864C367.495 37.5379 367.898 37.7841 368.262 38.125C368.625 38.4621 368.915 38.9091 369.131 39.4659C369.347 40.0227 369.455 40.7083 369.455 41.5227V42.0909H362.728V40.9318H368.091C368.091 40.4394 367.993 40 367.796 39.6136C367.603 39.2273 367.326 38.9223 366.966 38.6989C366.61 38.4754 366.19 38.3636 365.705 38.3636C365.171 38.3636 364.709 38.4962 364.319 38.7614C363.932 39.0227 363.635 39.3636 363.427 39.7841C363.218 40.2045 363.114 40.6553 363.114 41.1364V41.9091C363.114 42.5682 363.228 43.1269 363.455 43.5852C363.686 44.0398 364.006 44.3864 364.415 44.625C364.824 44.8598 365.3 44.9773 365.841 44.9773C366.194 44.9773 366.512 44.928 366.796 44.8295C367.084 44.7273 367.332 44.5758 367.54 44.375C367.749 44.1705 367.91 43.9167 368.023 43.6136L369.319 43.9773C369.182 44.4167 368.953 44.803 368.631 45.1364C368.309 45.4659 367.911 45.7235 367.438 45.9091C366.964 46.0909 366.432 46.1818 365.841 46.1818ZM379.264 46.1591C378.514 46.1591 377.845 46.0303 377.258 45.7727C376.675 45.5152 376.211 45.1572 375.866 44.6989C375.525 44.2367 375.34 43.7008 375.309 43.0909H376.741C376.771 43.4659 376.9 43.7898 377.127 44.0625C377.355 44.3314 377.652 44.5398 378.02 44.6875C378.387 44.8352 378.794 44.9091 379.241 44.9091C379.741 44.9091 380.184 44.822 380.571 44.6477C380.957 44.4735 381.26 44.2311 381.48 43.9205C381.699 43.6098 381.809 43.25 381.809 42.8409C381.809 42.4129 381.703 42.036 381.491 41.7102C381.279 41.3807 380.968 41.1231 380.559 40.9375C380.15 40.7519 379.65 40.6591 379.059 40.6591H378.127V39.4091H379.059C379.521 39.4091 379.927 39.3258 380.275 39.1591C380.627 38.9924 380.902 38.7576 381.099 38.4545C381.3 38.1515 381.4 37.7955 381.4 37.3864C381.4 36.9924 381.313 36.6496 381.139 36.358C380.965 36.0663 380.718 35.839 380.4 35.6761C380.086 35.5133 379.715 35.4318 379.287 35.4318C378.885 35.4318 378.506 35.5057 378.15 35.6534C377.798 35.7973 377.51 36.0076 377.287 36.2841C377.063 36.5568 376.942 36.8864 376.923 37.2727H375.559C375.582 36.6629 375.766 36.1288 376.11 35.6705C376.455 35.2083 376.906 34.8485 377.463 34.5909C378.023 34.3333 378.639 34.2045 379.309 34.2045C380.029 34.2045 380.646 34.3504 381.162 34.642C381.677 34.9299 382.073 35.3106 382.349 35.7841C382.626 36.2576 382.764 36.7689 382.764 37.3182C382.764 37.9735 382.592 38.5322 382.247 38.9943C381.906 39.4564 381.442 39.7765 380.855 39.9545V40.0455C381.59 40.1667 382.163 40.4792 382.576 40.983C382.989 41.483 383.196 42.1023 383.196 42.8409C383.196 43.4735 383.023 44.0417 382.679 44.5455C382.338 45.0455 381.872 45.4394 381.281 45.7273C380.69 46.0152 380.018 46.1591 379.264 46.1591Z" fill="#002159"/>
<path d="M318.392 65.1364C317.847 65.1364 317.365 64.9986 316.947 64.723C316.53 64.4446 316.203 64.0526 315.967 63.5469C315.732 63.0384 315.614 62.4375 315.614 61.7443C315.614 61.0568 315.732 60.4602 315.967 59.9545C316.203 59.4489 316.531 59.0582 316.952 58.7827C317.372 58.5071 317.858 58.3693 318.409 58.3693C318.835 58.3693 319.172 58.4403 319.419 58.5824C319.669 58.7216 319.859 58.8807 319.99 59.0597C320.124 59.2358 320.227 59.3807 320.301 59.4943H320.386V56.2727H321.392V65H320.42V63.9943H320.301C320.227 64.1136 320.122 64.2642 319.986 64.446C319.849 64.625 319.655 64.7855 319.402 64.9276C319.149 65.0668 318.813 65.1364 318.392 65.1364ZM318.528 64.233C318.932 64.233 319.273 64.1278 319.551 63.9176C319.83 63.7045 320.041 63.4105 320.186 63.0355C320.331 62.6577 320.403 62.2216 320.403 61.7273C320.403 61.2386 320.332 60.8111 320.19 60.4446C320.048 60.0753 319.838 59.7884 319.56 59.5838C319.281 59.3764 318.938 59.2727 318.528 59.2727C318.102 59.2727 317.747 59.3821 317.463 59.6009C317.182 59.8168 316.97 60.1108 316.828 60.483C316.689 60.8523 316.619 61.267 316.619 61.7273C316.619 62.1932 316.69 62.6165 316.832 62.9972C316.977 63.375 317.19 63.6761 317.472 63.9006C317.756 64.1222 318.108 64.233 318.528 64.233ZM325.878 65.1364C325.247 65.1364 324.703 64.9972 324.246 64.7188C323.791 64.4375 323.44 64.0455 323.193 63.5426C322.949 63.0369 322.827 62.4489 322.827 61.7784C322.827 61.108 322.949 60.517 323.193 60.0057C323.44 59.4915 323.784 59.0909 324.224 58.804C324.668 58.5142 325.185 58.3693 325.776 58.3693C326.117 58.3693 326.453 58.4261 326.786 58.5398C327.118 58.6534 327.421 58.8381 327.693 59.0938C327.966 59.3466 328.183 59.6818 328.345 60.0994C328.507 60.517 328.588 61.0312 328.588 61.642V62.0682H323.543V61.1989H327.565C327.565 60.8295 327.492 60.5 327.344 60.2102C327.199 59.9205 326.992 59.6918 326.722 59.5241C326.455 59.3565 326.139 59.2727 325.776 59.2727C325.375 59.2727 325.028 59.3722 324.736 59.571C324.446 59.767 324.223 60.0227 324.067 60.3381C323.911 60.6534 323.832 60.9915 323.832 61.3523V61.9318C323.832 62.4261 323.918 62.8452 324.088 63.1889C324.261 63.5298 324.501 63.7898 324.808 63.9688C325.115 64.1449 325.472 64.233 325.878 64.233C326.142 64.233 326.381 64.196 326.594 64.1222C326.81 64.0455 326.996 63.9318 327.152 63.7812C327.308 63.6278 327.429 63.4375 327.514 63.2102L328.486 63.483C328.384 63.8125 328.212 64.1023 327.97 64.3523C327.729 64.5994 327.43 64.7926 327.075 64.9318C326.72 65.0682 326.321 65.1364 325.878 65.1364ZM334.514 59.9205L333.611 60.1761C333.554 60.0256 333.47 59.8793 333.359 59.7372C333.252 59.5923 333.104 59.473 332.916 59.3793C332.729 59.2855 332.489 59.2386 332.196 59.2386C331.796 59.2386 331.462 59.331 331.195 59.5156C330.931 59.6974 330.798 59.929 330.798 60.2102C330.798 60.4602 330.889 60.6577 331.071 60.8026C331.253 60.9474 331.537 61.0682 331.923 61.1648L332.895 61.4034C333.48 61.5455 333.916 61.7628 334.203 62.0554C334.49 62.3452 334.634 62.7187 334.634 63.1761C334.634 63.5511 334.526 63.8864 334.31 64.1818C334.097 64.4773 333.798 64.7102 333.415 64.8807C333.031 65.0511 332.585 65.1364 332.077 65.1364C331.409 65.1364 330.857 64.9915 330.419 64.7017C329.982 64.4119 329.705 63.9886 329.588 63.4318L330.543 63.1932C330.634 63.5455 330.806 63.8097 331.058 63.9858C331.314 64.1619 331.648 64.25 332.06 64.25C332.529 64.25 332.901 64.1506 333.176 63.9517C333.455 63.75 333.594 63.5085 333.594 63.2273C333.594 63 333.514 62.8097 333.355 62.6562C333.196 62.5 332.952 62.3835 332.622 62.3068L331.531 62.0511C330.932 61.9091 330.492 61.6889 330.21 61.3906C329.932 61.0895 329.793 60.7131 329.793 60.2614C329.793 59.892 329.896 59.5653 330.104 59.2812C330.314 58.9972 330.6 58.7741 330.96 58.6122C331.324 58.4503 331.736 58.3693 332.196 58.3693C332.844 58.3693 333.352 58.5114 333.722 58.7955C334.094 59.0795 334.358 59.4545 334.514 59.9205ZM338.567 65.1364C337.953 65.1364 337.425 64.9915 336.981 64.7017C336.538 64.4119 336.197 64.0128 335.959 63.5043C335.72 62.9957 335.601 62.4148 335.601 61.7614C335.601 61.0966 335.723 60.5099 335.967 60.0014C336.214 59.4901 336.558 59.0909 336.998 58.804C337.442 58.5142 337.959 58.3693 338.55 58.3693C339.01 58.3693 339.425 58.4545 339.794 58.625C340.163 58.7955 340.466 59.0341 340.702 59.3409C340.937 59.6477 341.084 60.0057 341.14 60.4148H340.135C340.058 60.1165 339.888 59.8523 339.623 59.6222C339.362 59.3892 339.01 59.2727 338.567 59.2727C338.175 59.2727 337.831 59.375 337.535 59.5795C337.243 59.7812 337.014 60.0668 336.849 60.4361C336.687 60.8026 336.606 61.233 336.606 61.7273C336.606 62.233 336.686 62.6733 336.845 63.0483C337.007 63.4233 337.234 63.7145 337.527 63.9219C337.822 64.1293 338.169 64.233 338.567 64.233C338.828 64.233 339.065 64.1875 339.278 64.0966C339.491 64.0057 339.672 63.875 339.819 63.7045C339.967 63.5341 340.072 63.3295 340.135 63.0909H341.14C341.084 63.4773 340.943 63.8253 340.719 64.1349C340.497 64.4418 340.203 64.6861 339.836 64.8679C339.473 65.0469 339.05 65.1364 338.567 65.1364ZM342.371 65V58.4545H343.342V59.4432H343.41C343.53 59.1193 343.746 58.8565 344.058 58.6548C344.371 58.4531 344.723 58.3523 345.115 58.3523C345.189 58.3523 345.281 58.3537 345.392 58.3565C345.503 58.3594 345.587 58.3636 345.643 58.3693V59.392C345.609 59.3835 345.531 59.3707 345.409 59.3537C345.29 59.3338 345.163 59.3239 345.03 59.3239C344.712 59.3239 344.427 59.3906 344.177 59.5241C343.93 59.6548 343.734 59.8366 343.589 60.0696C343.447 60.2997 343.376 60.5625 343.376 60.858V65H342.371ZM346.595 65V58.4545H347.601V65H346.595ZM347.107 57.3636C346.911 57.3636 346.742 57.2969 346.6 57.1634C346.461 57.0298 346.391 56.8693 346.391 56.6818C346.391 56.4943 346.461 56.3338 346.6 56.2003C346.742 56.0668 346.911 56 347.107 56C347.303 56 347.47 56.0668 347.61 56.2003C347.752 56.3338 347.823 56.4943 347.823 56.6818C347.823 56.8693 347.752 57.0298 347.61 57.1634C347.47 57.2969 347.303 57.3636 347.107 57.3636ZM349.203 67.4545V58.4545H350.175V59.4943H350.294C350.368 59.3807 350.47 59.2358 350.601 59.0597C350.734 58.8807 350.925 58.7216 351.172 58.5824C351.422 58.4403 351.76 58.3693 352.186 58.3693C352.737 58.3693 353.223 58.5071 353.643 58.7827C354.064 59.0582 354.392 59.4489 354.628 59.9545C354.864 60.4602 354.982 61.0568 354.982 61.7443C354.982 62.4375 354.864 63.0384 354.628 63.5469C354.392 64.0526 354.065 64.4446 353.648 64.723C353.23 64.9986 352.749 65.1364 352.203 65.1364C351.783 65.1364 351.446 65.0668 351.193 64.9276C350.94 64.7855 350.746 64.625 350.609 64.446C350.473 64.2642 350.368 64.1136 350.294 63.9943H350.209V67.4545H349.203ZM350.192 61.7273C350.192 62.2216 350.264 62.6577 350.409 63.0355C350.554 63.4105 350.766 63.7045 351.044 63.9176C351.322 64.1278 351.663 64.233 352.067 64.233C352.487 64.233 352.838 64.1222 353.119 63.9006C353.403 63.6761 353.616 63.375 353.759 62.9972C353.903 62.6165 353.976 62.1932 353.976 61.7273C353.976 61.267 353.905 60.8523 353.763 60.483C353.624 60.1108 353.412 59.8168 353.128 59.6009C352.847 59.3821 352.493 59.2727 352.067 59.2727C351.658 59.2727 351.314 59.3764 351.035 59.5838C350.757 59.7884 350.547 60.0753 350.405 60.4446C350.263 60.8111 350.192 61.2386 350.192 61.7273ZM359.122 58.4545V59.3068H355.73V58.4545H359.122ZM356.719 56.8864H357.724V63.125C357.724 63.4091 357.766 63.6222 357.848 63.7642C357.933 63.9034 358.041 63.9972 358.172 64.0455C358.305 64.0909 358.446 64.1136 358.594 64.1136C358.705 64.1136 358.795 64.108 358.867 64.0966C358.938 64.0824 358.994 64.071 359.037 64.0625L359.242 64.9659C359.173 64.9915 359.078 65.017 358.956 65.0426C358.834 65.071 358.679 65.0852 358.492 65.0852C358.207 65.0852 357.929 65.0241 357.656 64.902C357.386 64.7798 357.162 64.5938 356.983 64.3438C356.807 64.0938 356.719 63.7784 356.719 63.3977V56.8864ZM360.395 65V58.4545H361.401V65H360.395ZM360.906 57.3636C360.71 57.3636 360.541 57.2969 360.399 57.1634C360.26 57.0298 360.19 56.8693 360.19 56.6818C360.19 56.4943 360.26 56.3338 360.399 56.2003C360.541 56.0668 360.71 56 360.906 56C361.102 56 361.27 56.0668 361.409 56.2003C361.551 56.3338 361.622 56.4943 361.622 56.6818C361.622 56.8693 361.551 57.0298 361.409 57.1634C361.27 57.2969 361.102 57.3636 360.906 57.3636ZM365.662 65.1364C365.071 65.1364 364.552 64.9957 364.106 64.7145C363.663 64.4332 363.317 64.0398 363.067 63.5341C362.819 63.0284 362.696 62.4375 362.696 61.7614C362.696 61.0795 362.819 60.4844 363.067 59.9759C363.317 59.4673 363.663 59.0724 364.106 58.7912C364.552 58.5099 365.071 58.3693 365.662 58.3693C366.253 58.3693 366.77 58.5099 367.213 58.7912C367.659 59.0724 368.005 59.4673 368.253 59.9759C368.503 60.4844 368.628 61.0795 368.628 61.7614C368.628 62.4375 368.503 63.0284 368.253 63.5341C368.005 64.0398 367.659 64.4332 367.213 64.7145C366.77 64.9957 366.253 65.1364 365.662 65.1364ZM365.662 64.233C366.111 64.233 366.48 64.1179 366.77 63.8878C367.059 63.6577 367.274 63.3551 367.413 62.9801C367.552 62.6051 367.622 62.1989 367.622 61.7614C367.622 61.3239 367.552 60.9162 367.413 60.5384C367.274 60.1605 367.059 59.8551 366.77 59.6222C366.48 59.3892 366.111 59.2727 365.662 59.2727C365.213 59.2727 364.844 59.3892 364.554 59.6222C364.264 59.8551 364.05 60.1605 363.91 60.5384C363.771 60.9162 363.702 61.3239 363.702 61.7614C363.702 62.1989 363.771 62.6051 363.91 62.9801C364.05 63.3551 364.264 63.6577 364.554 63.8878C364.844 64.1179 365.213 64.233 365.662 64.233ZM370.928 61.0625V65H369.923V58.4545H370.894V59.4773H370.98C371.133 59.1449 371.366 58.8778 371.678 58.6761C371.991 58.4716 372.394 58.3693 372.889 58.3693C373.332 58.3693 373.72 58.4602 374.052 58.642C374.384 58.821 374.643 59.0938 374.828 59.4602C375.012 59.8239 375.105 60.2841 375.105 60.8409V65H374.099V60.9091C374.099 60.3949 373.965 59.9943 373.698 59.7074C373.431 59.4176 373.065 59.2727 372.599 59.2727C372.278 59.2727 371.991 59.3423 371.738 59.4815C371.488 59.6207 371.291 59.8239 371.146 60.0909C371.001 60.358 370.928 60.6818 370.928 61.0625Z" fill="#307FE2"/>
<g clip-path="url(#clip4_2200_28370)">
<path d="M297.641 192.26H295.641" stroke="#002159" stroke-miterlimit="10" stroke-linecap="round"/>
<path d="M292 192L174 192" stroke="#002159" stroke-miterlimit="10" stroke-linecap="round" stroke-dasharray="2 2"/>
<path d="M297.42 196.02C299.497 196.02 301.18 194.337 301.18 192.26C301.18 190.183 299.497 188.5 297.42 188.5C295.344 188.5 293.66 190.183 293.66 192.26C293.66 194.337 295.344 196.02 297.42 196.02Z" fill="white"/>
<path d="M297.42 188C295.07 188 293.16 189.91 293.16 192.26C293.16 194.61 295.07 196.52 297.42 196.52C299.77 196.52 301.68 194.61 301.68 192.26C301.68 189.91 299.77 188 297.42 188C299.77 188 295.07 188 297.42 188ZM297.42 195.52C295.62 195.52 294.16 194.06 294.16 192.26C294.16 190.46 295.62 189 297.42 189C299.22 189 300.68 190.46 300.68 192.26C300.68 194.06 299.22 195.52 297.42 195.52C299.22 195.52 295.62 195.52 297.42 195.52Z" fill="#002159"/>
</g>
<path d="M324.807 173.318C322.996 173.318 321.379 173.03 319.955 172.455C318.538 171.871 317.424 171.083 316.614 170.091C315.811 169.091 315.409 167.962 315.409 166.705C315.409 165.742 315.64 164.86 316.102 164.057C316.564 163.254 317.189 162.587 317.977 162.057C318.773 161.519 319.659 161.174 320.636 161.023V160.841C319.356 160.606 318.307 160.011 317.489 159.057C316.678 158.102 316.273 156.985 316.273 155.705C316.273 154.492 316.64 153.413 317.375 152.466C318.117 151.519 319.129 150.773 320.409 150.227C321.697 149.682 323.163 149.409 324.807 149.409C326.451 149.409 327.913 149.682 329.193 150.227C330.481 150.773 331.492 151.519 332.227 152.466C332.97 153.413 333.341 154.492 333.341 155.705C333.341 156.992 332.928 158.114 332.102 159.068C331.284 160.015 330.242 160.606 328.977 160.841V161.023C329.947 161.174 330.826 161.519 331.614 162.057C332.409 162.587 333.038 163.254 333.5 164.057C333.97 164.86 334.205 165.742 334.205 166.705C334.205 167.962 333.799 169.091 332.989 170.091C332.178 171.083 331.064 171.871 329.648 172.455C328.239 173.03 326.625 173.318 324.807 173.318ZM324.807 169.33C325.496 169.33 326.102 169.201 326.625 168.943C327.148 168.678 327.557 168.311 327.852 167.841C328.155 167.371 328.307 166.841 328.307 166.25C328.307 165.644 328.155 165.106 327.852 164.636C327.549 164.167 327.133 163.799 326.602 163.534C326.08 163.261 325.481 163.125 324.807 163.125C324.14 163.125 323.542 163.261 323.011 163.534C322.481 163.799 322.064 164.167 321.761 164.636C321.458 165.106 321.307 165.644 321.307 166.25C321.307 166.841 321.455 167.371 321.75 167.841C322.053 168.303 322.466 168.667 322.989 168.932C323.519 169.197 324.125 169.33 324.807 169.33ZM324.807 159.159C325.398 159.159 325.92 159.038 326.375 158.795C326.837 158.553 327.197 158.216 327.455 157.784C327.72 157.352 327.852 156.864 327.852 156.318C327.852 155.773 327.72 155.292 327.455 154.875C327.197 154.458 326.841 154.133 326.386 153.898C325.932 153.655 325.405 153.534 324.807 153.534C324.216 153.534 323.689 153.655 323.227 153.898C322.765 154.133 322.405 154.458 322.148 154.875C321.89 155.292 321.761 155.773 321.761 156.318C321.761 156.864 321.89 157.352 322.148 157.784C322.413 158.208 322.777 158.545 323.239 158.795C323.701 159.038 324.223 159.159 324.807 159.159ZM341.474 155.545L344.349 161.295L347.326 155.545H352.928L348.053 164.273L353.11 173H347.553L344.349 167.205L341.224 173H335.587L340.655 164.273L335.837 155.545H341.474Z" fill="#002159"/>
<path d="M316.409 195V183.364H323.386V184.614H317.818V188.545H322.864V189.795H317.818V195H316.409ZM328.316 195.182C327.475 195.182 326.75 194.996 326.14 194.625C325.534 194.25 325.066 193.727 324.737 193.057C324.411 192.383 324.248 191.598 324.248 190.705C324.248 189.811 324.411 189.023 324.737 188.341C325.066 187.655 325.525 187.121 326.112 186.739C326.703 186.352 327.392 186.159 328.18 186.159C328.635 186.159 329.083 186.235 329.527 186.386C329.97 186.538 330.373 186.784 330.737 187.125C331.1 187.462 331.39 187.909 331.606 188.466C331.822 189.023 331.93 189.708 331.93 190.523V191.091H325.203V189.932H330.566C330.566 189.439 330.468 189 330.271 188.614C330.078 188.227 329.801 187.922 329.441 187.699C329.085 187.475 328.665 187.364 328.18 187.364C327.646 187.364 327.184 187.496 326.794 187.761C326.407 188.023 326.11 188.364 325.902 188.784C325.693 189.205 325.589 189.655 325.589 190.136V190.909C325.589 191.568 325.703 192.127 325.93 192.585C326.161 193.04 326.481 193.386 326.89 193.625C327.299 193.86 327.775 193.977 328.316 193.977C328.669 193.977 328.987 193.928 329.271 193.83C329.559 193.727 329.807 193.576 330.015 193.375C330.224 193.17 330.385 192.917 330.498 192.614L331.794 192.977C331.657 193.417 331.428 193.803 331.106 194.136C330.784 194.466 330.386 194.723 329.913 194.909C329.439 195.091 328.907 195.182 328.316 195.182ZM336.218 195.205C335.665 195.205 335.163 195.1 334.712 194.892C334.262 194.68 333.904 194.375 333.638 193.977C333.373 193.576 333.241 193.091 333.241 192.523C333.241 192.023 333.339 191.617 333.536 191.307C333.733 190.992 333.996 190.746 334.326 190.568C334.655 190.39 335.019 190.258 335.417 190.17C335.818 190.08 336.222 190.008 336.627 189.955C337.157 189.886 337.587 189.835 337.917 189.801C338.25 189.763 338.493 189.701 338.644 189.614C338.799 189.527 338.877 189.375 338.877 189.159V189.114C338.877 188.553 338.724 188.117 338.417 187.807C338.114 187.496 337.654 187.341 337.036 187.341C336.396 187.341 335.894 187.481 335.53 187.761C335.167 188.042 334.911 188.341 334.763 188.659L333.491 188.205C333.718 187.674 334.021 187.261 334.4 186.966C334.782 186.667 335.199 186.458 335.65 186.341C336.104 186.22 336.551 186.159 336.991 186.159C337.271 186.159 337.593 186.193 337.957 186.261C338.324 186.326 338.678 186.46 339.019 186.665C339.364 186.869 339.65 187.178 339.877 187.591C340.104 188.004 340.218 188.557 340.218 189.25V195H338.877V193.818H338.809C338.718 194.008 338.566 194.21 338.354 194.426C338.142 194.642 337.86 194.826 337.508 194.977C337.155 195.129 336.726 195.205 336.218 195.205ZM336.423 194C336.953 194 337.4 193.896 337.763 193.688C338.131 193.479 338.407 193.21 338.593 192.881C338.782 192.551 338.877 192.205 338.877 191.841V190.614C338.82 190.682 338.695 190.744 338.502 190.801C338.313 190.854 338.093 190.902 337.843 190.943C337.597 190.981 337.356 191.015 337.121 191.045C336.89 191.072 336.703 191.095 336.559 191.114C336.21 191.159 335.885 191.233 335.582 191.335C335.282 191.434 335.04 191.583 334.854 191.784C334.673 191.981 334.582 192.25 334.582 192.591C334.582 193.057 334.754 193.409 335.099 193.648C335.447 193.883 335.888 194 336.423 194ZM346.141 186.273V187.409H341.618V186.273H346.141ZM342.936 184.182H344.277V192.5C344.277 192.879 344.332 193.163 344.442 193.352C344.556 193.538 344.7 193.663 344.874 193.727C345.052 193.788 345.239 193.818 345.436 193.818C345.584 193.818 345.705 193.811 345.8 193.795C345.895 193.777 345.97 193.761 346.027 193.75L346.3 194.955C346.209 194.989 346.082 195.023 345.919 195.057C345.756 195.095 345.55 195.114 345.3 195.114C344.921 195.114 344.55 195.032 344.186 194.869C343.826 194.706 343.527 194.458 343.289 194.125C343.054 193.792 342.936 193.371 342.936 192.864V184.182ZM353.338 191.432V186.273H354.679V195H353.338V193.523H353.247C353.042 193.966 352.724 194.343 352.292 194.653C351.861 194.96 351.315 195.114 350.656 195.114C350.111 195.114 349.626 194.994 349.202 194.756C348.777 194.513 348.444 194.15 348.202 193.665C347.959 193.176 347.838 192.561 347.838 191.818V186.273H349.179V191.727C349.179 192.364 349.357 192.871 349.713 193.25C350.073 193.629 350.531 193.818 351.088 193.818C351.421 193.818 351.76 193.733 352.105 193.562C352.453 193.392 352.745 193.131 352.98 192.778C353.219 192.426 353.338 191.977 353.338 191.432ZM356.815 195V186.273H358.11V187.591H358.201C358.36 187.159 358.648 186.809 359.065 186.54C359.481 186.271 359.951 186.136 360.474 186.136C360.572 186.136 360.695 186.138 360.843 186.142C360.991 186.146 361.103 186.152 361.178 186.159V187.523C361.133 187.511 361.029 187.494 360.866 187.472C360.707 187.445 360.538 187.432 360.36 187.432C359.936 187.432 359.557 187.521 359.224 187.699C358.894 187.873 358.633 188.116 358.44 188.426C358.25 188.733 358.156 189.083 358.156 189.477V195H356.815ZM365.841 195.182C365 195.182 364.275 194.996 363.665 194.625C363.059 194.25 362.591 193.727 362.262 193.057C361.936 192.383 361.773 191.598 361.773 190.705C361.773 189.811 361.936 189.023 362.262 188.341C362.591 187.655 363.05 187.121 363.637 186.739C364.228 186.352 364.917 186.159 365.705 186.159C366.16 186.159 366.608 186.235 367.052 186.386C367.495 186.538 367.898 186.784 368.262 187.125C368.625 187.462 368.915 187.909 369.131 188.466C369.347 189.023 369.455 189.708 369.455 190.523V191.091H362.728V189.932H368.091C368.091 189.439 367.993 189 367.796 188.614C367.603 188.227 367.326 187.922 366.966 187.699C366.61 187.475 366.19 187.364 365.705 187.364C365.171 187.364 364.709 187.496 364.319 187.761C363.932 188.023 363.635 188.364 363.427 188.784C363.218 189.205 363.114 189.655 363.114 190.136V190.909C363.114 191.568 363.228 192.127 363.455 192.585C363.686 193.04 364.006 193.386 364.415 193.625C364.824 193.86 365.3 193.977 365.841 193.977C366.194 193.977 366.512 193.928 366.796 193.83C367.084 193.727 367.332 193.576 367.54 193.375C367.749 193.17 367.91 192.917 368.023 192.614L369.319 192.977C369.182 193.417 368.953 193.803 368.631 194.136C368.309 194.466 367.911 194.723 367.438 194.909C366.964 195.091 366.432 195.182 365.841 195.182ZM375.059 192.614V191.455L380.173 183.364H381.014V185.159H380.446L376.582 191.273V191.364H383.468V192.614H375.059ZM380.537 195V192.261V191.722V183.364H381.877V195H380.537Z" fill="#002159"/>
<path d="M318.392 214.136C317.847 214.136 317.365 213.999 316.947 213.723C316.53 213.445 316.203 213.053 315.967 212.547C315.732 212.038 315.614 211.438 315.614 210.744C315.614 210.057 315.732 209.46 315.967 208.955C316.203 208.449 316.531 208.058 316.952 207.783C317.372 207.507 317.858 207.369 318.409 207.369C318.835 207.369 319.172 207.44 319.419 207.582C319.669 207.722 319.859 207.881 319.99 208.06C320.124 208.236 320.227 208.381 320.301 208.494H320.386V205.273H321.392V214H320.42V212.994H320.301C320.227 213.114 320.122 213.264 319.986 213.446C319.849 213.625 319.655 213.786 319.402 213.928C319.149 214.067 318.813 214.136 318.392 214.136ZM318.528 213.233C318.932 213.233 319.273 213.128 319.551 212.918C319.83 212.705 320.041 212.411 320.186 212.036C320.331 211.658 320.403 211.222 320.403 210.727C320.403 210.239 320.332 209.811 320.19 209.445C320.048 209.075 319.838 208.788 319.56 208.584C319.281 208.376 318.938 208.273 318.528 208.273C318.102 208.273 317.747 208.382 317.463 208.601C317.182 208.817 316.97 209.111 316.828 209.483C316.689 209.852 316.619 210.267 316.619 210.727C316.619 211.193 316.69 211.616 316.832 211.997C316.977 212.375 317.19 212.676 317.472 212.901C317.756 213.122 318.108 213.233 318.528 213.233ZM325.878 214.136C325.247 214.136 324.703 213.997 324.246 213.719C323.791 213.438 323.44 213.045 323.193 212.543C322.949 212.037 322.827 211.449 322.827 210.778C322.827 210.108 322.949 209.517 323.193 209.006C323.44 208.491 323.784 208.091 324.224 207.804C324.668 207.514 325.185 207.369 325.776 207.369C326.117 207.369 326.453 207.426 326.786 207.54C327.118 207.653 327.421 207.838 327.693 208.094C327.966 208.347 328.183 208.682 328.345 209.099C328.507 209.517 328.588 210.031 328.588 210.642V211.068H323.543V210.199H327.565C327.565 209.83 327.492 209.5 327.344 209.21C327.199 208.92 326.992 208.692 326.722 208.524C326.455 208.357 326.139 208.273 325.776 208.273C325.375 208.273 325.028 208.372 324.736 208.571C324.446 208.767 324.223 209.023 324.067 209.338C323.911 209.653 323.832 209.991 323.832 210.352V210.932C323.832 211.426 323.918 211.845 324.088 212.189C324.261 212.53 324.501 212.79 324.808 212.969C325.115 213.145 325.472 213.233 325.878 213.233C326.142 213.233 326.381 213.196 326.594 213.122C326.81 213.045 326.996 212.932 327.152 212.781C327.308 212.628 327.429 212.437 327.514 212.21L328.486 212.483C328.384 212.812 328.212 213.102 327.97 213.352C327.729 213.599 327.43 213.793 327.075 213.932C326.72 214.068 326.321 214.136 325.878 214.136ZM334.514 208.92L333.611 209.176C333.554 209.026 333.47 208.879 333.359 208.737C333.252 208.592 333.104 208.473 332.916 208.379C332.729 208.286 332.489 208.239 332.196 208.239C331.796 208.239 331.462 208.331 331.195 208.516C330.931 208.697 330.798 208.929 330.798 209.21C330.798 209.46 330.889 209.658 331.071 209.803C331.253 209.947 331.537 210.068 331.923 210.165L332.895 210.403C333.48 210.545 333.916 210.763 334.203 211.055C334.49 211.345 334.634 211.719 334.634 212.176C334.634 212.551 334.526 212.886 334.31 213.182C334.097 213.477 333.798 213.71 333.415 213.881C333.031 214.051 332.585 214.136 332.077 214.136C331.409 214.136 330.857 213.991 330.419 213.702C329.982 213.412 329.705 212.989 329.588 212.432L330.543 212.193C330.634 212.545 330.806 212.81 331.058 212.986C331.314 213.162 331.648 213.25 332.06 213.25C332.529 213.25 332.901 213.151 333.176 212.952C333.455 212.75 333.594 212.509 333.594 212.227C333.594 212 333.514 211.81 333.355 211.656C333.196 211.5 332.952 211.384 332.622 211.307L331.531 211.051C330.932 210.909 330.492 210.689 330.21 210.391C329.932 210.089 329.793 209.713 329.793 209.261C329.793 208.892 329.896 208.565 330.104 208.281C330.314 207.997 330.6 207.774 330.96 207.612C331.324 207.45 331.736 207.369 332.196 207.369C332.844 207.369 333.352 207.511 333.722 207.795C334.094 208.08 334.358 208.455 334.514 208.92ZM338.567 214.136C337.953 214.136 337.425 213.991 336.981 213.702C336.538 213.412 336.197 213.013 335.959 212.504C335.72 211.996 335.601 211.415 335.601 210.761C335.601 210.097 335.723 209.51 335.967 209.001C336.214 208.49 336.558 208.091 336.998 207.804C337.442 207.514 337.959 207.369 338.55 207.369C339.01 207.369 339.425 207.455 339.794 207.625C340.163 207.795 340.466 208.034 340.702 208.341C340.937 208.648 341.084 209.006 341.14 209.415H340.135C340.058 209.116 339.888 208.852 339.623 208.622C339.362 208.389 339.01 208.273 338.567 208.273C338.175 208.273 337.831 208.375 337.535 208.58C337.243 208.781 337.014 209.067 336.849 209.436C336.687 209.803 336.606 210.233 336.606 210.727C336.606 211.233 336.686 211.673 336.845 212.048C337.007 212.423 337.234 212.714 337.527 212.922C337.822 213.129 338.169 213.233 338.567 213.233C338.828 213.233 339.065 213.188 339.278 213.097C339.491 213.006 339.672 212.875 339.819 212.705C339.967 212.534 340.072 212.33 340.135 212.091H341.14C341.084 212.477 340.943 212.825 340.719 213.135C340.497 213.442 340.203 213.686 339.836 213.868C339.473 214.047 339.05 214.136 338.567 214.136ZM342.371 214V207.455H343.342V208.443H343.41C343.53 208.119 343.746 207.857 344.058 207.655C344.371 207.453 344.723 207.352 345.115 207.352C345.189 207.352 345.281 207.354 345.392 207.357C345.503 207.359 345.587 207.364 345.643 207.369V208.392C345.609 208.384 345.531 208.371 345.409 208.354C345.29 208.334 345.163 208.324 345.03 208.324C344.712 208.324 344.427 208.391 344.177 208.524C343.93 208.655 343.734 208.837 343.589 209.07C343.447 209.3 343.376 209.562 343.376 209.858V214H342.371ZM346.595 214V207.455H347.601V214H346.595ZM347.107 206.364C346.911 206.364 346.742 206.297 346.6 206.163C346.461 206.03 346.391 205.869 346.391 205.682C346.391 205.494 346.461 205.334 346.6 205.2C346.742 205.067 346.911 205 347.107 205C347.303 205 347.47 205.067 347.61 205.2C347.752 205.334 347.823 205.494 347.823 205.682C347.823 205.869 347.752 206.03 347.61 206.163C347.47 206.297 347.303 206.364 347.107 206.364ZM349.203 216.455V207.455H350.175V208.494H350.294C350.368 208.381 350.47 208.236 350.601 208.06C350.734 207.881 350.925 207.722 351.172 207.582C351.422 207.44 351.76 207.369 352.186 207.369C352.737 207.369 353.223 207.507 353.643 207.783C354.064 208.058 354.392 208.449 354.628 208.955C354.864 209.46 354.982 210.057 354.982 210.744C354.982 211.438 354.864 212.038 354.628 212.547C354.392 213.053 354.065 213.445 353.648 213.723C353.23 213.999 352.749 214.136 352.203 214.136C351.783 214.136 351.446 214.067 351.193 213.928C350.94 213.786 350.746 213.625 350.609 213.446C350.473 213.264 350.368 213.114 350.294 212.994H350.209V216.455H349.203ZM350.192 210.727C350.192 211.222 350.264 211.658 350.409 212.036C350.554 212.411 350.766 212.705 351.044 212.918C351.322 213.128 351.663 213.233 352.067 213.233C352.487 213.233 352.838 213.122 353.119 212.901C353.403 212.676 353.616 212.375 353.759 211.997C353.903 211.616 353.976 211.193 353.976 210.727C353.976 210.267 353.905 209.852 353.763 209.483C353.624 209.111 353.412 208.817 353.128 208.601C352.847 208.382 352.493 208.273 352.067 208.273C351.658 208.273 351.314 208.376 351.035 208.584C350.757 208.788 350.547 209.075 350.405 209.445C350.263 209.811 350.192 210.239 350.192 210.727ZM359.122 207.455V208.307H355.73V207.455H359.122ZM356.719 205.886H357.724V212.125C357.724 212.409 357.766 212.622 357.848 212.764C357.933 212.903 358.041 212.997 358.172 213.045C358.305 213.091 358.446 213.114 358.594 213.114C358.705 213.114 358.795 213.108 358.867 213.097C358.938 213.082 358.994 213.071 359.037 213.062L359.242 213.966C359.173 213.991 359.078 214.017 358.956 214.043C358.834 214.071 358.679 214.085 358.492 214.085C358.207 214.085 357.929 214.024 357.656 213.902C357.386 213.78 357.162 213.594 356.983 213.344C356.807 213.094 356.719 212.778 356.719 212.398V205.886ZM360.395 214V207.455H361.401V214H360.395ZM360.906 206.364C360.71 206.364 360.541 206.297 360.399 206.163C360.26 206.03 360.19 205.869 360.19 205.682C360.19 205.494 360.26 205.334 360.399 205.2C360.541 205.067 360.71 205 360.906 205C361.102 205 361.27 205.067 361.409 205.2C361.551 205.334 361.622 205.494 361.622 205.682C361.622 205.869 361.551 206.03 361.409 206.163C361.27 206.297 361.102 206.364 360.906 206.364ZM365.662 214.136C365.071 214.136 364.552 213.996 364.106 213.714C363.663 213.433 363.317 213.04 363.067 212.534C362.819 212.028 362.696 211.437 362.696 210.761C362.696 210.08 362.819 209.484 363.067 208.976C363.317 208.467 363.663 208.072 364.106 207.791C364.552 207.51 365.071 207.369 365.662 207.369C366.253 207.369 366.77 207.51 367.213 207.791C367.659 208.072 368.005 208.467 368.253 208.976C368.503 209.484 368.628 210.08 368.628 210.761C368.628 211.437 368.503 212.028 368.253 212.534C368.005 213.04 367.659 213.433 367.213 213.714C366.77 213.996 366.253 214.136 365.662 214.136ZM365.662 213.233C366.111 213.233 366.48 213.118 366.77 212.888C367.059 212.658 367.274 212.355 367.413 211.98C367.552 211.605 367.622 211.199 367.622 210.761C367.622 210.324 367.552 209.916 367.413 209.538C367.274 209.161 367.059 208.855 366.77 208.622C366.48 208.389 366.111 208.273 365.662 208.273C365.213 208.273 364.844 208.389 364.554 208.622C364.264 208.855 364.05 209.161 363.91 209.538C363.771 209.916 363.702 210.324 363.702 210.761C363.702 211.199 363.771 211.605 363.91 211.98C364.05 212.355 364.264 212.658 364.554 212.888C364.844 213.118 365.213 213.233 365.662 213.233ZM370.928 210.062V214H369.923V207.455H370.894V208.477H370.98C371.133 208.145 371.366 207.878 371.678 207.676C371.991 207.472 372.394 207.369 372.889 207.369C373.332 207.369 373.72 207.46 374.052 207.642C374.384 207.821 374.643 208.094 374.828 208.46C375.012 208.824 375.105 209.284 375.105 209.841V214H374.099V209.909C374.099 209.395 373.965 208.994 373.698 208.707C373.431 208.418 373.065 208.273 372.599 208.273C372.278 208.273 371.991 208.342 371.738 208.482C371.488 208.621 371.291 208.824 371.146 209.091C371.001 209.358 370.928 209.682 370.928 210.062Z" fill="#307FE2"/>
</g>
<defs>
<filter id="filter0_f_2200_28370" x="0.5" y="148.5" width="198" height="131" filterUnits="userSpaceOnUse" color-interpolation-filters="sRGB">
<feFlood flood-opacity="0" result="BackgroundImageFix"/>
<feBlend mode="normal" in="SourceGraphic" in2="BackgroundImageFix" result="shape"/>
<feGaussianBlur stdDeviation="10" result="effect1_foregroundBlur_2200_28370"/>
</filter>
<filter id="filter1_f_2200_28370" x="40" y="175" width="123.5" height="76" filterUnits="userSpaceOnUse" color-interpolation-filters="sRGB">
<feFlood flood-opacity="0" result="BackgroundImageFix"/>
<feBlend mode="normal" in="SourceGraphic" in2="BackgroundImageFix" result="shape"/>
<feGaussianBlur stdDeviation="2.5" result="effect1_foregroundBlur_2200_28370"/>
</filter>
<linearGradient id="paint0_linear_2200_28370" x1="61.2308" y1="134.1" x2="60.18" y2="279.275" gradientUnits="userSpaceOnUse">
<stop stop-color="#F2F2F2"/>
<stop offset="1" stop-color="#B5B5B5"/>
</linearGradient>
<linearGradient id="paint1_linear_2200_28370" x1="59.1746" y1="102.094" x2="158.719" y2="222.802" gradientUnits="userSpaceOnUse">
<stop stop-color="#F2F2F2"/>
<stop offset="1" stop-color="#B5B5B5"/>
</linearGradient>
<clipPath id="clip0_2200_28370">
<rect width="385" height="275" fill="white"/>
</clipPath>
<clipPath id="clip1_2200_28370">
<rect width="199" height="194" fill="white" transform="matrix(-1 0 0 1 199 81)"/>
</clipPath>
<clipPath id="clip2_2200_28370">
<rect width="199" height="132" fill="white" transform="matrix(-1 0 0 1 199 148)"/>
</clipPath>
<clipPath id="clip3_2200_28370">
<rect width="132" height="42" fill="white" transform="translate(170 45)"/>
</clipPath>
<clipPath id="clip4_2200_28370">
<rect width="129" height="9" fill="white" transform="translate(173 188)"/>
</clipPath>
</defs>
</svg>
