<svg width="363" height="275" viewBox="0 0 363 275" fill="none" xmlns="http://www.w3.org/2000/svg">
<g clip-path="url(#clip0_2200_28394)">
<g clip-path="url(#clip1_2200_28394)">
<g clip-path="url(#clip2_2200_28394)">
<g clip-path="url(#clip3_2200_28394)">
<g filter="url(#filter0_f_2200_28394)">
<path d="M243 176.5L347 235.5L293.5 266L184.5 206L243 176.5Z" fill="#E6E7E8"/>
</g>
<g filter="url(#filter1_f_2200_28394)">
<path d="M237 184.5L322.5 232.5L291.5 251.5L206 202L237 184.5Z" fill="#929497"/>
</g>
</g>
<path d="M321.425 233.882L291.894 250.944L207.387 202.115L236.924 185.052L321.425 233.882Z" fill="#999999"/>
<path d="M321.426 233.882L236.926 185.052V88L321.426 136.83V233.882Z" fill="#E6E6E6"/>
<path d="M237.113 184.948L207.395 202.122V105.069L236.925 88L237.113 184.948Z" fill="#CCCCCC"/>
<path d="M321.425 233.882L291.895 250.944V153.892L321.425 136.829V233.882Z" fill="url(#paint0_linear_2200_28394)"/>
<path d="M321.425 136.83L291.894 153.892L207.387 105.062L236.924 88L321.425 136.83Z" fill="url(#paint1_linear_2200_28394)"/>
<path d="M209.129 201.103V108.09L290.152 154.903V247.924L209.129 201.103Z" fill="#808080"/>
<path d="M210.872 111.11L288.409 155.915V244.903L210.872 200.099V111.11ZM207.387 105.069V202.115L291.894 250.944V153.899L207.387 105.069Z" fill="#CCCCCC"/>
<path d="M288.409 229.989L275.18 237.586L198.012 192.997L211.24 185.401L288.409 229.989Z" fill="url(#paint2_linear_2200_28394)"/>
<path d="M288.409 215.173L275.18 222.769L198.012 178.181L211.24 170.585L288.409 215.173Z" fill="url(#paint3_linear_2200_28394)"/>
<path d="M288.409 200.357L275.18 207.953L198.012 163.365L211.24 155.768L288.409 200.357Z" fill="url(#paint4_linear_2200_28394)"/>
<path d="M288.409 185.54L275.18 193.137L198.012 148.549L211.24 140.952L288.409 185.54Z" fill="url(#paint5_linear_2200_28394)"/>
<path d="M288.409 170.724L275.18 178.321L198.012 133.732L211.24 126.129L288.409 170.724Z" fill="url(#paint6_linear_2200_28394)"/>
<path d="M288.409 155.908L275.18 163.504L198.012 118.916L211.24 111.313L288.409 155.908Z" fill="url(#paint7_linear_2200_28394)"/>
</g>
</g>
<path d="M28.726 0.727272V24H23.1124V5.97727H22.976L17.7715 9.15909V4.29545L23.5101 0.727272H28.726ZM33.2309 24V19.9545L41.7195 12.5227C42.3559 11.947 42.8976 11.4205 43.3445 10.9432C43.7915 10.4583 44.1324 9.97348 44.3673 9.48864C44.6021 8.99621 44.7195 8.46212 44.7195 7.88636C44.7195 7.24242 44.5794 6.69318 44.2991 6.23864C44.0188 5.77651 43.6324 5.42045 43.14 5.17045C42.6476 4.92045 42.0832 4.79545 41.4468 4.79545C40.8029 4.79545 40.2385 4.92803 39.7536 5.19318C39.2688 5.45076 38.89 5.82576 38.6173 6.31818C38.3521 6.81061 38.2195 7.40909 38.2195 8.11364H32.89C32.89 6.5303 33.2461 5.16288 33.9582 4.01136C34.6703 2.85985 35.6703 1.97348 36.9582 1.35227C38.2536 0.723484 39.7574 0.40909 41.4695 0.40909C43.2347 0.40909 44.7688 0.704545 46.0718 1.29545C47.3748 1.88636 48.3824 2.71212 49.0945 3.77273C49.8142 4.82576 50.1741 6.04924 50.1741 7.44318C50.1741 8.32955 49.9961 9.20833 49.64 10.0795C49.2839 10.9508 48.6438 11.9129 47.7195 12.9659C46.8029 14.0189 45.4998 15.2803 43.8105 16.75L41.0264 19.3182V19.4659H50.4582V24H33.2309ZM57.7699 6.54545L60.6449 12.2955L63.6222 6.54545H69.2244L64.3494 15.2727L69.4062 24H63.8494L60.6449 18.2045L57.5199 24H51.8835L56.9517 15.2727L52.1335 6.54545H57.7699Z" fill="#002159"/>
<path d="M4.84409 46V34.3636H11.8214V35.6136H6.25318V39.5455H11.2986V40.7955H6.25318V46H4.84409ZM16.7514 46.1818C15.9105 46.1818 15.1851 45.9962 14.5752 45.625C13.9692 45.25 13.5014 44.7273 13.1718 44.0568C12.8461 43.3826 12.6832 42.5985 12.6832 41.7045C12.6832 40.8106 12.8461 40.0227 13.1718 39.3409C13.5014 38.6553 13.9597 38.1212 14.5468 37.7386C15.1377 37.3523 15.8271 37.1591 16.615 37.1591C17.0695 37.1591 17.5184 37.2348 17.9616 37.3864C18.4048 37.5379 18.8082 37.7841 19.1718 38.125C19.5355 38.4621 19.8252 38.9091 20.0411 39.4659C20.257 40.0227 20.365 40.7083 20.365 41.5227V42.0909H13.6377V40.9318H19.0014C19.0014 40.4394 18.9029 40 18.7059 39.6136C18.5127 39.2273 18.2362 38.9223 17.8764 38.6989C17.5203 38.4754 17.0998 38.3636 16.615 38.3636C16.0809 38.3636 15.6188 38.4962 15.2286 38.7614C14.8423 39.0227 14.5449 39.3636 14.3366 39.7841C14.1283 40.2045 14.0241 40.6553 14.0241 41.1364V41.9091C14.0241 42.5682 14.1377 43.1269 14.365 43.5852C14.5961 44.0398 14.9161 44.3864 15.3252 44.625C15.7343 44.8598 16.2097 44.9773 16.7514 44.9773C17.1036 44.9773 17.4218 44.928 17.7059 44.8295C17.9938 44.7273 18.2419 44.5758 18.4502 44.375C18.6586 44.1705 18.8195 43.9167 18.9332 43.6136L20.2286 43.9773C20.0923 44.4167 19.8631 44.803 19.5411 45.1364C19.2192 45.4659 18.8214 45.7235 18.348 45.9091C17.8745 46.0909 17.3423 46.1818 16.7514 46.1818ZM24.653 46.2045C24.0999 46.2045 23.598 46.1004 23.1473 45.892C22.6965 45.6799 22.3386 45.375 22.0734 44.9773C21.8083 44.5758 21.6757 44.0909 21.6757 43.5227C21.6757 43.0227 21.7742 42.6174 21.9711 42.3068C22.1681 41.9924 22.4314 41.7462 22.7609 41.5682C23.0905 41.3902 23.4541 41.2576 23.8518 41.1705C24.2533 41.0795 24.6567 41.0076 25.062 40.9545C25.5923 40.8864 26.0223 40.8352 26.3518 40.8011C26.6851 40.7633 26.9276 40.7008 27.0791 40.6136C27.2344 40.5265 27.312 40.375 27.312 40.1591V40.1136C27.312 39.553 27.1586 39.1174 26.8518 38.8068C26.5488 38.4962 26.0886 38.3409 25.4711 38.3409C24.831 38.3409 24.3291 38.4811 23.9655 38.7614C23.6018 39.0417 23.3461 39.3409 23.1984 39.6591L21.9257 39.2045C22.153 38.6742 22.456 38.2614 22.8348 37.9659C23.2173 37.6667 23.634 37.4583 24.0848 37.3409C24.5393 37.2197 24.9863 37.1591 25.4257 37.1591C25.706 37.1591 26.028 37.1932 26.3916 37.2614C26.759 37.3258 27.1132 37.4602 27.4541 37.6648C27.7988 37.8693 28.0848 38.178 28.312 38.5909C28.5393 39.0038 28.653 39.5568 28.653 40.25V46H27.312V44.8182H27.2439C27.153 45.0076 27.0014 45.2102 26.7893 45.4261C26.5772 45.642 26.295 45.8258 25.9427 45.9773C25.5905 46.1288 25.1605 46.2045 24.653 46.2045ZM24.8575 45C25.3878 45 25.8348 44.8958 26.1984 44.6875C26.5658 44.4792 26.8423 44.2102 27.028 43.8807C27.2173 43.5511 27.312 43.2045 27.312 42.8409V41.6136C27.2552 41.6818 27.1302 41.7443 26.937 41.8011C26.7476 41.8542 26.528 41.9015 26.278 41.9432C26.0317 41.9811 25.7912 42.0152 25.5564 42.0455C25.3253 42.072 25.1378 42.0947 24.9939 42.1136C24.6454 42.1591 24.3196 42.233 24.0166 42.3352C23.7173 42.4337 23.4749 42.5833 23.2893 42.7841C23.1075 42.9811 23.0166 43.25 23.0166 43.5909C23.0166 44.0568 23.1889 44.4091 23.5336 44.6477C23.8821 44.8826 24.3234 45 24.8575 45ZM34.5759 37.2727V38.4091H30.0531V37.2727H34.5759ZM31.3713 35.1818H32.7122V43.5C32.7122 43.8788 32.7671 44.1629 32.877 44.3523C32.9906 44.5379 33.1346 44.6629 33.3088 44.7273C33.4868 44.7879 33.6743 44.8182 33.8713 44.8182C34.019 44.8182 34.1402 44.8106 34.2349 44.7955C34.3296 44.7765 34.4054 44.7614 34.4622 44.75L34.7349 45.9545C34.644 45.9886 34.5171 46.0227 34.3543 46.0568C34.1914 46.0947 33.9849 46.1136 33.7349 46.1136C33.3562 46.1136 32.9849 46.0322 32.6213 45.8693C32.2615 45.7064 31.9622 45.4583 31.7236 45.125C31.4887 44.7917 31.3713 44.3712 31.3713 43.8636V35.1818ZM41.7729 42.4318V37.2727H43.1138V46H41.7729V44.5227H41.682C41.4774 44.9659 41.1593 45.3428 40.7274 45.6534C40.2956 45.9602 39.7502 46.1136 39.0911 46.1136C38.5456 46.1136 38.0608 45.9943 37.6365 45.7557C37.2123 45.5133 36.879 45.1496 36.6365 44.6648C36.3941 44.1761 36.2729 43.5606 36.2729 42.8182V37.2727H37.6138V42.7273C37.6138 43.3636 37.7918 43.8712 38.1479 44.25C38.5077 44.6288 38.9661 44.8182 39.5229 44.8182C39.8562 44.8182 40.1952 44.733 40.5399 44.5625C40.8884 44.392 41.1801 44.1307 41.4149 43.7784C41.6536 43.4261 41.7729 42.9773 41.7729 42.4318ZM45.2498 46V37.2727H46.5452V38.5909H46.6361C46.7952 38.1591 47.0831 37.8087 47.4998 37.5398C47.9164 37.2708 48.3861 37.1364 48.9089 37.1364C49.0073 37.1364 49.1305 37.1383 49.2782 37.142C49.4259 37.1458 49.5377 37.1515 49.6134 37.1591V38.5227C49.568 38.5114 49.4638 38.4943 49.3009 38.4716C49.1418 38.4451 48.9733 38.4318 48.7952 38.4318C48.371 38.4318 47.9922 38.5208 47.6589 38.6989C47.3293 38.8731 47.068 39.1155 46.8748 39.4261C46.6854 39.733 46.5907 40.0833 46.5907 40.4773V46H45.2498ZM54.2764 46.1818C53.4355 46.1818 52.7101 45.9962 52.1002 45.625C51.4942 45.25 51.0264 44.7273 50.6968 44.0568C50.3711 43.3826 50.2082 42.5985 50.2082 41.7045C50.2082 40.8106 50.3711 40.0227 50.6968 39.3409C51.0264 38.6553 51.4847 38.1212 52.0718 37.7386C52.6627 37.3523 53.3521 37.1591 54.14 37.1591C54.5945 37.1591 55.0434 37.2348 55.4866 37.3864C55.9298 37.5379 56.3332 37.7841 56.6968 38.125C57.0605 38.4621 57.3502 38.9091 57.5661 39.4659C57.782 40.0227 57.89 40.7083 57.89 41.5227V42.0909H51.1627V40.9318H56.5264C56.5264 40.4394 56.4279 40 56.2309 39.6136C56.0377 39.2273 55.7612 38.9223 55.4014 38.6989C55.0453 38.4754 54.6248 38.3636 54.14 38.3636C53.6059 38.3636 53.1438 38.4962 52.7536 38.7614C52.3673 39.0227 52.0699 39.3636 51.8616 39.7841C51.6533 40.2045 51.5491 40.6553 51.5491 41.1364V41.9091C51.5491 42.5682 51.6627 43.1269 51.89 43.5852C52.1211 44.0398 52.4411 44.3864 52.8502 44.625C53.2593 44.8598 53.7347 44.9773 54.2764 44.9773C54.6286 44.9773 54.9468 44.928 55.2309 44.8295C55.5188 44.7273 55.7669 44.5758 55.9752 44.375C56.1836 44.1705 56.3445 43.9167 56.4582 43.6136L57.7536 43.9773C57.6173 44.4167 57.3881 44.803 57.0661 45.1364C56.7442 45.4659 56.3464 45.7235 55.873 45.9091C55.3995 46.0909 54.8673 46.1818 54.2764 46.1818ZM67.858 34.3636V46H66.4489V35.8409H66.3807L63.5398 37.7273V36.2955L66.4489 34.3636H67.858Z" fill="#002159"/>
<path d="M12.3702 65.1364C11.8247 65.1364 11.3432 64.9986 10.9256 64.723C10.508 64.4446 10.1813 64.0526 9.94546 63.5469C9.70966 63.0384 9.59176 62.4375 9.59176 61.7443C9.59176 61.0568 9.70966 60.4602 9.94546 59.9545C10.1813 59.4489 10.5094 59.0582 10.9298 58.7827C11.3503 58.5071 11.8361 58.3693 12.3872 58.3693C12.8134 58.3693 13.15 58.4403 13.3972 58.5824C13.6472 58.7216 13.8375 58.8807 13.9682 59.0597C14.1017 59.2358 14.2054 59.3807 14.2793 59.4943H14.3645V56.2727H15.3702V65H14.3986V63.9943H14.2793C14.2054 64.1136 14.1003 64.2642 13.9639 64.446C13.8276 64.625 13.633 64.7855 13.3801 64.9276C13.1273 65.0668 12.7906 65.1364 12.3702 65.1364ZM12.5065 64.233C12.9099 64.233 13.2509 64.1278 13.5293 63.9176C13.8077 63.7045 14.0193 63.4105 14.1642 63.0355C14.3091 62.6577 14.3815 62.2216 14.3815 61.7273C14.3815 61.2386 14.3105 60.8111 14.1685 60.4446C14.0264 60.0753 13.8162 59.7884 13.5378 59.5838C13.2594 59.3764 12.9156 59.2727 12.5065 59.2727C12.0804 59.2727 11.7253 59.3821 11.4412 59.6009C11.1599 59.8168 10.9483 60.1108 10.8063 60.483C10.667 60.8523 10.5974 61.267 10.5974 61.7273C10.5974 62.1932 10.6685 62.6165 10.8105 62.9972C10.9554 63.375 11.1685 63.6761 11.4497 63.9006C11.7338 64.1222 12.0861 64.233 12.5065 64.233ZM19.856 65.1364C19.2253 65.1364 18.6813 64.9972 18.2239 64.7188C17.7694 64.4375 17.4185 64.0455 17.1714 63.5426C16.927 63.0369 16.8049 62.4489 16.8049 61.7784C16.8049 61.108 16.927 60.517 17.1714 60.0057C17.4185 59.4915 17.7623 59.0909 18.2026 58.804C18.6458 58.5142 19.1628 58.3693 19.7538 58.3693C20.0947 58.3693 20.4313 58.4261 20.7637 58.5398C21.0961 58.6534 21.3986 58.8381 21.6714 59.0938C21.9441 59.3466 22.1614 59.6818 22.3234 60.0994C22.4853 60.517 22.5663 61.0312 22.5663 61.642V62.0682H17.5208V61.1989H21.5435C21.5435 60.8295 21.4697 60.5 21.3219 60.2102C21.177 59.9205 20.9697 59.6918 20.6998 59.5241C20.4327 59.3565 20.1174 59.2727 19.7538 59.2727C19.3532 59.2727 19.0066 59.3722 18.714 59.571C18.4242 59.767 18.2012 60.0227 18.0449 60.3381C17.8887 60.6534 17.8106 60.9915 17.8106 61.3523V61.9318C17.8106 62.4261 17.8958 62.8452 18.0663 63.1889C18.2395 63.5298 18.4796 63.7898 18.7864 63.9688C19.0932 64.1449 19.4498 64.233 19.856 64.233C20.1202 64.233 20.3589 64.196 20.5719 64.1222C20.7878 64.0455 20.9739 63.9318 21.1302 63.7812C21.2864 63.6278 21.4072 63.4375 21.4924 63.2102L22.464 63.483C22.3617 63.8125 22.1898 64.1023 21.9484 64.3523C21.7069 64.5994 21.4086 64.7926 21.0535 64.9318C20.6984 65.0682 20.2992 65.1364 19.856 65.1364ZM28.4924 59.9205L27.589 60.1761C27.5322 60.0256 27.4484 59.8793 27.3376 59.7372C27.2297 59.5923 27.0819 59.473 26.8944 59.3793C26.7069 59.2855 26.4669 59.2386 26.1743 59.2386C25.7737 59.2386 25.4399 59.331 25.1728 59.5156C24.9086 59.6974 24.7765 59.929 24.7765 60.2102C24.7765 60.4602 24.8674 60.6577 25.0493 60.8026C25.2311 60.9474 25.5152 61.0682 25.9015 61.1648L26.8731 61.4034C27.4584 61.5455 27.8944 61.7628 28.1814 62.0554C28.4683 62.3452 28.6118 62.7187 28.6118 63.1761C28.6118 63.5511 28.5038 63.8864 28.2879 64.1818C28.0748 64.4773 27.7765 64.7102 27.393 64.8807C27.0095 65.0511 26.5635 65.1364 26.0549 65.1364C25.3873 65.1364 24.8348 64.9915 24.3973 64.7017C23.9598 64.4119 23.6828 63.9886 23.5663 63.4318L24.5209 63.1932C24.6118 63.5455 24.7836 63.8097 25.0365 63.9858C25.2922 64.1619 25.626 64.25 26.0379 64.25C26.5066 64.25 26.8788 64.1506 27.1544 63.9517C27.4328 63.75 27.572 63.5085 27.572 63.2273C27.572 63 27.4924 62.8097 27.3334 62.6562C27.1743 62.5 26.9299 62.3835 26.6004 62.3068L25.5095 62.0511C24.9101 61.9091 24.4697 61.6889 24.1885 61.3906C23.9101 61.0895 23.7709 60.7131 23.7709 60.2614C23.7709 59.892 23.8745 59.5653 24.0819 59.2812C24.2922 58.9972 24.5777 58.7741 24.9385 58.6122C25.3021 58.4503 25.714 58.3693 26.1743 58.3693C26.822 58.3693 27.3305 58.5114 27.6998 58.7955C28.072 59.0795 28.3362 59.4545 28.4924 59.9205ZM32.5447 65.1364C31.9311 65.1364 31.4027 64.9915 30.9595 64.7017C30.5163 64.4119 30.1754 64.0128 29.9367 63.5043C29.6981 62.9957 29.5788 62.4148 29.5788 61.7614C29.5788 61.0966 29.701 60.5099 29.9453 60.0014C30.1924 59.4901 30.5362 59.0909 30.9765 58.804C31.4197 58.5142 31.9367 58.3693 32.5277 58.3693C32.9879 58.3693 33.4027 58.4545 33.772 58.625C34.1413 58.7955 34.4439 59.0341 34.6796 59.3409C34.9154 59.6477 35.0617 60.0057 35.1186 60.4148H34.1129C34.0362 60.1165 33.8657 59.8523 33.6015 59.6222C33.3402 59.3892 32.9879 59.2727 32.5447 59.2727C32.1527 59.2727 31.8089 59.375 31.5135 59.5795C31.2208 59.7812 30.9921 60.0668 30.8274 60.4361C30.6654 60.8026 30.5845 61.233 30.5845 61.7273C30.5845 62.233 30.664 62.6733 30.8231 63.0483C30.985 63.4233 31.2123 63.7145 31.5049 63.9219C31.8004 64.1293 32.147 64.233 32.5447 64.233C32.8061 64.233 33.0433 64.1875 33.2564 64.0966C33.4694 64.0057 33.6498 63.875 33.7975 63.7045C33.9453 63.5341 34.0504 63.3295 34.1129 63.0909H35.1186C35.0617 63.4773 34.9211 63.8253 34.6967 64.1349C34.4751 64.4418 34.1811 64.6861 33.8146 64.8679C33.451 65.0469 33.0277 65.1364 32.5447 65.1364ZM36.3487 65V58.4545H37.3203V59.4432H37.3885C37.5078 59.1193 37.7237 58.8565 38.0362 58.6548C38.3487 58.4531 38.701 58.3523 39.0931 58.3523C39.1669 58.3523 39.2592 58.3537 39.37 58.3565C39.4808 58.3594 39.5646 58.3636 39.6215 58.3693V59.392C39.5874 59.3835 39.5092 59.3707 39.3871 59.3537C39.2678 59.3338 39.1414 59.3239 39.0078 59.3239C38.6896 59.3239 38.4056 59.3906 38.1556 59.5241C37.9084 59.6548 37.7124 59.8366 37.5675 60.0696C37.4254 60.2997 37.3544 60.5625 37.3544 60.858V65H36.3487ZM40.5736 65V58.4545H41.5793V65H40.5736ZM41.0849 57.3636C40.8889 57.3636 40.7199 57.2969 40.5778 57.1634C40.4386 57.0298 40.369 56.8693 40.369 56.6818C40.369 56.4943 40.4386 56.3338 40.5778 56.2003C40.7199 56.0668 40.8889 56 41.0849 56C41.281 56 41.4486 56.0668 41.5878 56.2003C41.7298 56.3338 41.8009 56.4943 41.8009 56.6818C41.8009 56.8693 41.7298 57.0298 41.5878 57.1634C41.4486 57.2969 41.281 57.3636 41.0849 57.3636ZM43.1812 67.4545V58.4545H44.1528V59.4943H44.2721C44.346 59.3807 44.4483 59.2358 44.579 59.0597C44.7125 58.8807 44.9028 58.7216 45.15 58.5824C45.4 58.4403 45.7381 58.3693 46.1642 58.3693C46.7153 58.3693 47.2011 58.5071 47.6216 58.7827C48.042 59.0582 48.3702 59.4489 48.606 59.9545C48.8418 60.4602 48.9596 61.0568 48.9596 61.7443C48.9596 62.4375 48.8418 63.0384 48.606 63.5469C48.3702 64.0526 48.0435 64.4446 47.6258 64.723C47.2082 64.9986 46.7267 65.1364 46.1812 65.1364C45.7608 65.1364 45.4241 65.0668 45.1713 64.9276C44.9185 64.7855 44.7239 64.625 44.5875 64.446C44.4511 64.2642 44.346 64.1136 44.2721 63.9943H44.1869V67.4545H43.1812ZM44.1699 61.7273C44.1699 62.2216 44.2423 62.6577 44.3872 63.0355C44.5321 63.4105 44.7437 63.7045 45.0221 63.9176C45.3006 64.1278 45.6415 64.233 46.0449 64.233C46.4653 64.233 46.8162 64.1222 47.0974 63.9006C47.3815 63.6761 47.5946 63.375 47.7366 62.9972C47.8815 62.6165 47.954 62.1932 47.954 61.7273C47.954 61.267 47.8829 60.8523 47.7409 60.483C47.6017 60.1108 47.39 59.8168 47.106 59.6009C46.8247 59.3821 46.471 59.2727 46.0449 59.2727C45.6358 59.2727 45.292 59.3764 45.0136 59.5838C44.7352 59.7884 44.525 60.0753 44.3829 60.4446C44.2409 60.8111 44.1699 61.2386 44.1699 61.7273ZM53.1003 58.4545V59.3068H49.7083V58.4545H53.1003ZM50.6969 56.8864H51.7026V63.125C51.7026 63.4091 51.7438 63.6222 51.8262 63.7642C51.9114 63.9034 52.0194 63.9972 52.15 64.0455C52.2836 64.0909 52.4242 64.1136 52.5719 64.1136C52.6827 64.1136 52.7736 64.108 52.8446 64.0966C52.9157 64.0824 52.9725 64.071 53.0151 64.0625L53.2196 64.9659C53.1515 64.9915 53.0563 65.017 52.9341 65.0426C52.812 65.071 52.6571 65.0852 52.4696 65.0852C52.1856 65.0852 51.9071 65.0241 51.6344 64.902C51.3645 64.7798 51.1401 64.5938 50.9611 64.3438C50.785 64.0938 50.6969 63.7784 50.6969 63.3977V56.8864ZM54.3731 65V58.4545H55.3788V65H54.3731ZM54.8845 57.3636C54.6885 57.3636 54.5194 57.2969 54.3774 57.1634C54.2382 57.0298 54.1686 56.8693 54.1686 56.6818C54.1686 56.4943 54.2382 56.3338 54.3774 56.2003C54.5194 56.0668 54.6885 56 54.8845 56C55.0805 56 55.2481 56.0668 55.3873 56.2003C55.5294 56.3338 55.6004 56.4943 55.6004 56.6818C55.6004 56.8693 55.5294 57.0298 55.3873 57.1634C55.2481 57.2969 55.0805 57.3636 54.8845 57.3636ZM59.6399 65.1364C59.049 65.1364 58.5305 64.9957 58.0845 64.7145C57.6413 64.4332 57.2947 64.0398 57.0447 63.5341C56.7975 63.0284 56.674 62.4375 56.674 61.7614C56.674 61.0795 56.7975 60.4844 57.0447 59.9759C57.2947 59.4673 57.6413 59.0724 58.0845 58.7912C58.5305 58.5099 59.049 58.3693 59.6399 58.3693C60.2308 58.3693 60.7478 58.5099 61.191 58.7912C61.637 59.0724 61.9836 59.4673 62.2308 59.9759C62.4808 60.4844 62.6058 61.0795 62.6058 61.7614C62.6058 62.4375 62.4808 63.0284 62.2308 63.5341C61.9836 64.0398 61.637 64.4332 61.191 64.7145C60.7478 64.9957 60.2308 65.1364 59.6399 65.1364ZM59.6399 64.233C60.0887 64.233 60.458 64.1179 60.7478 63.8878C61.0376 63.6577 61.2521 63.3551 61.3913 62.9801C61.5305 62.6051 61.6001 62.1989 61.6001 61.7614C61.6001 61.3239 61.5305 60.9162 61.3913 60.5384C61.2521 60.1605 61.0376 59.8551 60.7478 59.6222C60.458 59.3892 60.0887 59.2727 59.6399 59.2727C59.191 59.2727 58.8217 59.3892 58.5319 59.6222C58.2421 59.8551 58.0276 60.1605 57.8884 60.5384C57.7492 60.9162 57.6796 61.3239 57.6796 61.7614C57.6796 62.1989 57.7492 62.6051 57.8884 62.9801C58.0276 63.3551 58.2421 63.6577 58.5319 63.8878C58.8217 64.1179 59.191 64.233 59.6399 64.233ZM64.9066 61.0625V65H63.9009V58.4545H64.8725V59.4773H64.9577C65.1112 59.1449 65.3441 58.8778 65.6566 58.6761C65.9691 58.4716 66.3725 58.3693 66.8668 58.3693C67.31 58.3693 67.6978 58.4602 68.0302 58.642C68.3626 58.821 68.6211 59.0938 68.8058 59.4602C68.9904 59.8239 69.0827 60.2841 69.0827 60.8409V65H68.0771V60.9091C68.0771 60.3949 67.9435 59.9943 67.6765 59.7074C67.4094 59.4176 67.043 59.2727 66.5771 59.2727C66.256 59.2727 65.9691 59.3423 65.7163 59.4815C65.4663 59.6207 65.2688 59.8239 65.1239 60.0909C64.979 60.358 64.9066 60.6818 64.9066 61.0625Z" fill="#307FE2"/>
<g clip-path="url(#clip4_2200_28394)">
<path d="M187.5 66.5L136.4 39.26H92.9898" stroke="#002159" stroke-miterlimit="10" stroke-linecap="round" stroke-dasharray="2 2"/>
<path d="M91.0508 39.26H89.0508" stroke="#002159" stroke-miterlimit="10" stroke-linecap="round"/>
<path d="M89.2595 43.02C87.1829 43.02 85.4995 41.3366 85.4995 39.26C85.4995 37.1834 87.1829 35.5 89.2595 35.5C91.3361 35.5 93.0195 37.1834 93.0195 39.26C93.0195 41.3366 91.3361 43.02 89.2595 43.02Z" fill="white"/>
<path d="M89.2595 43.52C91.6095 43.52 93.5195 41.61 93.5195 39.26C93.5195 36.91 91.6095 35 89.2595 35C86.9095 35 84.9995 36.91 84.9995 39.26C84.9995 41.61 86.9095 43.52 89.2595 43.52C86.9095 43.52 91.6095 43.52 89.2595 43.52ZM89.2595 36C91.0595 36 92.5195 37.46 92.5195 39.26C92.5195 41.06 91.0595 42.52 89.2595 42.52C87.4595 42.52 85.9995 41.06 85.9995 39.26C85.9995 37.46 87.4595 36 89.2595 36C87.4595 36 91.0595 36 89.2595 36Z" fill="#002159"/>
</g>
<path d="M47.4923 144.727V168H41.8786V149.977H41.7423L36.5377 153.159V148.295L42.2764 144.727H47.4923ZM56.7699 150.545L59.6449 156.295L62.6222 150.545H68.2244L63.3494 159.273L68.4062 168H62.8494L59.6449 162.205L56.5199 168H50.8835L55.9517 159.273L51.1335 150.545H56.7699Z" fill="#002159"/>
<path d="M1.59409 190V178.364H8.57136V179.614H3.00318V183.545H8.04863V184.795H3.00318V190H1.59409ZM13.5014 190.182C12.6605 190.182 11.9351 189.996 11.3252 189.625C10.7192 189.25 10.2514 188.727 9.92182 188.057C9.59606 187.383 9.43318 186.598 9.43318 185.705C9.43318 184.811 9.59606 184.023 9.92182 183.341C10.2514 182.655 10.7097 182.121 11.2968 181.739C11.8877 181.352 12.5771 181.159 13.365 181.159C13.8195 181.159 14.2684 181.235 14.7116 181.386C15.1548 181.538 15.5582 181.784 15.9218 182.125C16.2855 182.462 16.5752 182.909 16.7911 183.466C17.007 184.023 17.115 184.708 17.115 185.523V186.091H10.3877V184.932H15.7514C15.7514 184.439 15.6529 184 15.4559 183.614C15.2627 183.227 14.9862 182.922 14.6264 182.699C14.2703 182.475 13.8498 182.364 13.365 182.364C12.8309 182.364 12.3688 182.496 11.9786 182.761C11.5923 183.023 11.2949 183.364 11.0866 183.784C10.8783 184.205 10.7741 184.655 10.7741 185.136V185.909C10.7741 186.568 10.8877 187.127 11.115 187.585C11.3461 188.04 11.6661 188.386 12.0752 188.625C12.4843 188.86 12.9597 188.977 13.5014 188.977C13.8536 188.977 14.1718 188.928 14.4559 188.83C14.7438 188.727 14.9919 188.576 15.2002 188.375C15.4086 188.17 15.5695 187.917 15.6832 187.614L16.9786 187.977C16.8423 188.417 16.6131 188.803 16.2911 189.136C15.9692 189.466 15.5714 189.723 15.098 189.909C14.6245 190.091 14.0923 190.182 13.5014 190.182ZM21.403 190.205C20.8499 190.205 20.348 190.1 19.8973 189.892C19.4465 189.68 19.0886 189.375 18.8234 188.977C18.5583 188.576 18.4257 188.091 18.4257 187.523C18.4257 187.023 18.5242 186.617 18.7211 186.307C18.9181 185.992 19.1814 185.746 19.5109 185.568C19.8405 185.39 20.2041 185.258 20.6018 185.17C21.0033 185.08 21.4067 185.008 21.812 184.955C22.3423 184.886 22.7723 184.835 23.1018 184.801C23.4351 184.763 23.6776 184.701 23.8291 184.614C23.9844 184.527 24.062 184.375 24.062 184.159V184.114C24.062 183.553 23.9086 183.117 23.6018 182.807C23.2988 182.496 22.8386 182.341 22.2211 182.341C21.581 182.341 21.0791 182.481 20.7155 182.761C20.3518 183.042 20.0961 183.341 19.9484 183.659L18.6757 183.205C18.903 182.674 19.206 182.261 19.5848 181.966C19.9673 181.667 20.384 181.458 20.8348 181.341C21.2893 181.22 21.7363 181.159 22.1757 181.159C22.456 181.159 22.778 181.193 23.1416 181.261C23.509 181.326 23.8632 181.46 24.2041 181.665C24.5488 181.869 24.8348 182.178 25.062 182.591C25.2893 183.004 25.403 183.557 25.403 184.25V190H24.062V188.818H23.9939C23.903 189.008 23.7514 189.21 23.5393 189.426C23.3272 189.642 23.045 189.826 22.6927 189.977C22.3405 190.129 21.9105 190.205 21.403 190.205ZM21.6075 189C22.1378 189 22.5848 188.896 22.9484 188.688C23.3158 188.479 23.5923 188.21 23.778 187.881C23.9673 187.551 24.062 187.205 24.062 186.841V185.614C24.0052 185.682 23.8802 185.744 23.687 185.801C23.4976 185.854 23.278 185.902 23.028 185.943C22.7817 185.981 22.5412 186.015 22.3064 186.045C22.0753 186.072 21.8878 186.095 21.7439 186.114C21.3954 186.159 21.0696 186.233 20.7666 186.335C20.4673 186.434 20.2249 186.583 20.0393 186.784C19.8575 186.981 19.7666 187.25 19.7666 187.591C19.7666 188.057 19.9389 188.409 20.2836 188.648C20.6321 188.883 21.0734 189 21.6075 189ZM31.3259 181.273V182.409H26.8031V181.273H31.3259ZM28.1213 179.182H29.4622V187.5C29.4622 187.879 29.5171 188.163 29.627 188.352C29.7406 188.538 29.8846 188.663 30.0588 188.727C30.2368 188.788 30.4243 188.818 30.6213 188.818C30.769 188.818 30.8902 188.811 30.9849 188.795C31.0796 188.777 31.1554 188.761 31.2122 188.75L31.4849 189.955C31.394 189.989 31.2671 190.023 31.1043 190.057C30.9414 190.095 30.7349 190.114 30.4849 190.114C30.1062 190.114 29.7349 190.032 29.3713 189.869C29.0115 189.706 28.7122 189.458 28.4736 189.125C28.2387 188.792 28.1213 188.371 28.1213 187.864V179.182ZM38.5229 186.432V181.273H39.8638V190H38.5229V188.523H38.432C38.2274 188.966 37.9093 189.343 37.4774 189.653C37.0456 189.96 36.5002 190.114 35.8411 190.114C35.2956 190.114 34.8108 189.994 34.3865 189.756C33.9623 189.513 33.629 189.15 33.3865 188.665C33.1441 188.176 33.0229 187.561 33.0229 186.818V181.273H34.3638V186.727C34.3638 187.364 34.5418 187.871 34.8979 188.25C35.2577 188.629 35.7161 188.818 36.2729 188.818C36.6062 188.818 36.9452 188.733 37.2899 188.562C37.6384 188.392 37.9301 188.131 38.1649 187.778C38.4036 187.426 38.5229 186.977 38.5229 186.432ZM41.9998 190V181.273H43.2952V182.591H43.3861C43.5452 182.159 43.8331 181.809 44.2498 181.54C44.6664 181.271 45.1361 181.136 45.6589 181.136C45.7573 181.136 45.8805 181.138 46.0282 181.142C46.1759 181.146 46.2877 181.152 46.3634 181.159V182.523C46.318 182.511 46.2138 182.494 46.0509 182.472C45.8918 182.445 45.7233 182.432 45.5452 182.432C45.121 182.432 44.7422 182.521 44.4089 182.699C44.0793 182.873 43.818 183.116 43.6248 183.426C43.4354 183.733 43.3407 184.083 43.3407 184.477V190H41.9998ZM51.0264 190.182C50.1855 190.182 49.4601 189.996 48.8502 189.625C48.2442 189.25 47.7764 188.727 47.4468 188.057C47.1211 187.383 46.9582 186.598 46.9582 185.705C46.9582 184.811 47.1211 184.023 47.4468 183.341C47.7764 182.655 48.2347 182.121 48.8218 181.739C49.4127 181.352 50.1021 181.159 50.89 181.159C51.3445 181.159 51.7934 181.235 52.2366 181.386C52.6798 181.538 53.0832 181.784 53.4468 182.125C53.8105 182.462 54.1002 182.909 54.3161 183.466C54.532 184.023 54.64 184.708 54.64 185.523V186.091H47.9127V184.932H53.2764C53.2764 184.439 53.1779 184 52.9809 183.614C52.7877 183.227 52.5112 182.922 52.1514 182.699C51.7953 182.475 51.3748 182.364 50.89 182.364C50.3559 182.364 49.8938 182.496 49.5036 182.761C49.1173 183.023 48.8199 183.364 48.6116 183.784C48.4033 184.205 48.2991 184.655 48.2991 185.136V185.909C48.2991 186.568 48.4127 187.127 48.64 187.585C48.8711 188.04 49.1911 188.386 49.6002 188.625C50.0093 188.86 50.4847 188.977 51.0264 188.977C51.3786 188.977 51.6968 188.928 51.9809 188.83C52.2688 188.727 52.5169 188.576 52.7252 188.375C52.9336 188.17 53.0945 187.917 53.2082 187.614L54.5036 187.977C54.3673 188.417 54.1381 188.803 53.8161 189.136C53.4942 189.466 53.0964 189.723 52.623 189.909C52.1495 190.091 51.6173 190.182 51.0264 190.182ZM60.517 190V188.977L64.358 184.773C64.8087 184.28 65.1799 183.852 65.4716 183.489C65.7633 183.121 65.9792 182.777 66.1193 182.455C66.2633 182.129 66.3352 181.788 66.3352 181.432C66.3352 181.023 66.2367 180.669 66.0398 180.369C65.8466 180.07 65.5814 179.839 65.2443 179.676C64.9072 179.513 64.5284 179.432 64.108 179.432C63.661 179.432 63.2708 179.525 62.9375 179.71C62.608 179.892 62.3523 180.148 62.1705 180.477C61.9924 180.807 61.9034 181.193 61.9034 181.636H60.5625C60.5625 180.955 60.7197 180.356 61.0341 179.841C61.3485 179.326 61.7765 178.924 62.3182 178.636C62.8636 178.348 63.4754 178.205 64.1534 178.205C64.8352 178.205 65.4394 178.348 65.9659 178.636C66.4924 178.924 66.9053 179.312 67.2045 179.801C67.5038 180.29 67.6534 180.833 67.6534 181.432C67.6534 181.86 67.5758 182.278 67.4205 182.688C67.2689 183.093 67.0038 183.545 66.625 184.045C66.25 184.542 65.7292 185.148 65.0625 185.864L62.4489 188.659V188.75H67.858V190H60.517Z" fill="#002159"/>
<path d="M11.3702 209.136C10.8247 209.136 10.3432 208.999 9.92557 208.723C9.50796 208.445 9.18125 208.053 8.94546 207.547C8.70966 207.038 8.59176 206.438 8.59176 205.744C8.59176 205.057 8.70966 204.46 8.94546 203.955C9.18125 203.449 9.50938 203.058 9.92983 202.783C10.3503 202.507 10.8361 202.369 11.3872 202.369C11.8134 202.369 12.15 202.44 12.3972 202.582C12.6472 202.722 12.8375 202.881 12.9682 203.06C13.1017 203.236 13.2054 203.381 13.2793 203.494H13.3645V200.273H14.3702V209H13.3986V207.994H13.2793C13.2054 208.114 13.1003 208.264 12.9639 208.446C12.8276 208.625 12.633 208.786 12.3801 208.928C12.1273 209.067 11.7906 209.136 11.3702 209.136ZM11.5065 208.233C11.9099 208.233 12.2509 208.128 12.5293 207.918C12.8077 207.705 13.0193 207.411 13.1642 207.036C13.3091 206.658 13.3815 206.222 13.3815 205.727C13.3815 205.239 13.3105 204.811 13.1685 204.445C13.0264 204.075 12.8162 203.788 12.5378 203.584C12.2594 203.376 11.9156 203.273 11.5065 203.273C11.0804 203.273 10.7253 203.382 10.4412 203.601C10.1599 203.817 9.9483 204.111 9.80625 204.483C9.66705 204.852 9.59744 205.267 9.59744 205.727C9.59744 206.193 9.66847 206.616 9.81051 206.997C9.9554 207.375 10.1685 207.676 10.4497 207.901C10.7338 208.122 11.0861 208.233 11.5065 208.233ZM18.856 209.136C18.2253 209.136 17.6813 208.997 17.2239 208.719C16.7694 208.438 16.4185 208.045 16.1714 207.543C15.927 207.037 15.8049 206.449 15.8049 205.778C15.8049 205.108 15.927 204.517 16.1714 204.006C16.4185 203.491 16.7623 203.091 17.2026 202.804C17.6458 202.514 18.1628 202.369 18.7538 202.369C19.0947 202.369 19.4313 202.426 19.7637 202.54C20.0961 202.653 20.3986 202.838 20.6714 203.094C20.9441 203.347 21.1614 203.682 21.3234 204.099C21.4853 204.517 21.5663 205.031 21.5663 205.642V206.068H16.5208V205.199H20.5435C20.5435 204.83 20.4697 204.5 20.3219 204.21C20.177 203.92 19.9697 203.692 19.6998 203.524C19.4327 203.357 19.1174 203.273 18.7538 203.273C18.3532 203.273 18.0066 203.372 17.714 203.571C17.4242 203.767 17.2012 204.023 17.0449 204.338C16.8887 204.653 16.8106 204.991 16.8106 205.352V205.932C16.8106 206.426 16.8958 206.845 17.0663 207.189C17.2395 207.53 17.4796 207.79 17.7864 207.969C18.0932 208.145 18.4498 208.233 18.856 208.233C19.1202 208.233 19.3589 208.196 19.5719 208.122C19.7878 208.045 19.9739 207.932 20.1302 207.781C20.2864 207.628 20.4072 207.437 20.4924 207.21L21.464 207.483C21.3617 207.812 21.1898 208.102 20.9484 208.352C20.7069 208.599 20.4086 208.793 20.0535 208.932C19.6984 209.068 19.2992 209.136 18.856 209.136ZM27.4924 203.92L26.589 204.176C26.5322 204.026 26.4484 203.879 26.3376 203.737C26.2297 203.592 26.0819 203.473 25.8944 203.379C25.7069 203.286 25.4669 203.239 25.1743 203.239C24.7737 203.239 24.4399 203.331 24.1728 203.516C23.9086 203.697 23.7765 203.929 23.7765 204.21C23.7765 204.46 23.8674 204.658 24.0493 204.803C24.2311 204.947 24.5152 205.068 24.9015 205.165L25.8731 205.403C26.4584 205.545 26.8944 205.763 27.1814 206.055C27.4683 206.345 27.6118 206.719 27.6118 207.176C27.6118 207.551 27.5038 207.886 27.2879 208.182C27.0748 208.477 26.7765 208.71 26.393 208.881C26.0095 209.051 25.5635 209.136 25.0549 209.136C24.3873 209.136 23.8348 208.991 23.3973 208.702C22.9598 208.412 22.6828 207.989 22.5663 207.432L23.5209 207.193C23.6118 207.545 23.7836 207.81 24.0365 207.986C24.2922 208.162 24.626 208.25 25.0379 208.25C25.5066 208.25 25.8788 208.151 26.1544 207.952C26.4328 207.75 26.572 207.509 26.572 207.227C26.572 207 26.4924 206.81 26.3334 206.656C26.1743 206.5 25.9299 206.384 25.6004 206.307L24.5095 206.051C23.9101 205.909 23.4697 205.689 23.1885 205.391C22.9101 205.089 22.7709 204.713 22.7709 204.261C22.7709 203.892 22.8745 203.565 23.0819 203.281C23.2922 202.997 23.5777 202.774 23.9385 202.612C24.3021 202.45 24.714 202.369 25.1743 202.369C25.822 202.369 26.3305 202.511 26.6998 202.795C27.072 203.08 27.3362 203.455 27.4924 203.92ZM31.5447 209.136C30.9311 209.136 30.4027 208.991 29.9595 208.702C29.5163 208.412 29.1754 208.013 28.9367 207.504C28.6981 206.996 28.5788 206.415 28.5788 205.761C28.5788 205.097 28.701 204.51 28.9453 204.001C29.1924 203.49 29.5362 203.091 29.9765 202.804C30.4197 202.514 30.9367 202.369 31.5277 202.369C31.9879 202.369 32.4027 202.455 32.772 202.625C33.1413 202.795 33.4439 203.034 33.6796 203.341C33.9154 203.648 34.0617 204.006 34.1186 204.415H33.1129C33.0362 204.116 32.8657 203.852 32.6015 203.622C32.3402 203.389 31.9879 203.273 31.5447 203.273C31.1527 203.273 30.8089 203.375 30.5135 203.58C30.2208 203.781 29.9921 204.067 29.8274 204.436C29.6654 204.803 29.5845 205.233 29.5845 205.727C29.5845 206.233 29.664 206.673 29.8231 207.048C29.985 207.423 30.2123 207.714 30.5049 207.922C30.8004 208.129 31.147 208.233 31.5447 208.233C31.8061 208.233 32.0433 208.188 32.2564 208.097C32.4694 208.006 32.6498 207.875 32.7975 207.705C32.9453 207.534 33.0504 207.33 33.1129 207.091H34.1186C34.0617 207.477 33.9211 207.825 33.6967 208.135C33.4751 208.442 33.1811 208.686 32.8146 208.868C32.451 209.047 32.0277 209.136 31.5447 209.136ZM35.3487 209V202.455H36.3203V203.443H36.3885C36.5078 203.119 36.7237 202.857 37.0362 202.655C37.3487 202.453 37.701 202.352 38.0931 202.352C38.1669 202.352 38.2592 202.354 38.37 202.357C38.4808 202.359 38.5646 202.364 38.6215 202.369V203.392C38.5874 203.384 38.5092 203.371 38.3871 203.354C38.2678 203.334 38.1414 203.324 38.0078 203.324C37.6896 203.324 37.4056 203.391 37.1556 203.524C36.9084 203.655 36.7124 203.837 36.5675 204.07C36.4254 204.3 36.3544 204.562 36.3544 204.858V209H35.3487ZM39.5736 209V202.455H40.5793V209H39.5736ZM40.0849 201.364C39.8889 201.364 39.7199 201.297 39.5778 201.163C39.4386 201.03 39.369 200.869 39.369 200.682C39.369 200.494 39.4386 200.334 39.5778 200.2C39.7199 200.067 39.8889 200 40.0849 200C40.281 200 40.4486 200.067 40.5878 200.2C40.7298 200.334 40.8009 200.494 40.8009 200.682C40.8009 200.869 40.7298 201.03 40.5878 201.163C40.4486 201.297 40.281 201.364 40.0849 201.364ZM42.1812 211.455V202.455H43.1528V203.494H43.2721C43.346 203.381 43.4483 203.236 43.579 203.06C43.7125 202.881 43.9028 202.722 44.15 202.582C44.4 202.44 44.7381 202.369 45.1642 202.369C45.7153 202.369 46.2011 202.507 46.6216 202.783C47.042 203.058 47.3702 203.449 47.606 203.955C47.8418 204.46 47.9596 205.057 47.9596 205.744C47.9596 206.438 47.8418 207.038 47.606 207.547C47.3702 208.053 47.0435 208.445 46.6258 208.723C46.2082 208.999 45.7267 209.136 45.1812 209.136C44.7608 209.136 44.4241 209.067 44.1713 208.928C43.9185 208.786 43.7239 208.625 43.5875 208.446C43.4511 208.264 43.346 208.114 43.2721 207.994H43.1869V211.455H42.1812ZM43.1699 205.727C43.1699 206.222 43.2423 206.658 43.3872 207.036C43.5321 207.411 43.7437 207.705 44.0221 207.918C44.3006 208.128 44.6415 208.233 45.0449 208.233C45.4653 208.233 45.8162 208.122 46.0974 207.901C46.3815 207.676 46.5946 207.375 46.7366 206.997C46.8815 206.616 46.954 206.193 46.954 205.727C46.954 205.267 46.8829 204.852 46.7409 204.483C46.6017 204.111 46.39 203.817 46.106 203.601C45.8247 203.382 45.471 203.273 45.0449 203.273C44.6358 203.273 44.292 203.376 44.0136 203.584C43.7352 203.788 43.525 204.075 43.3829 204.445C43.2409 204.811 43.1699 205.239 43.1699 205.727ZM52.1003 202.455V203.307H48.7083V202.455H52.1003ZM49.6969 200.886H50.7026V207.125C50.7026 207.409 50.7438 207.622 50.8262 207.764C50.9114 207.903 51.0194 207.997 51.15 208.045C51.2836 208.091 51.4242 208.114 51.5719 208.114C51.6827 208.114 51.7736 208.108 51.8446 208.097C51.9157 208.082 51.9725 208.071 52.0151 208.062L52.2196 208.966C52.1515 208.991 52.0563 209.017 51.9341 209.043C51.812 209.071 51.6571 209.085 51.4696 209.085C51.1856 209.085 50.9071 209.024 50.6344 208.902C50.3645 208.78 50.1401 208.594 49.9611 208.344C49.785 208.094 49.6969 207.778 49.6969 207.398V200.886ZM53.3731 209V202.455H54.3788V209H53.3731ZM53.8845 201.364C53.6885 201.364 53.5194 201.297 53.3774 201.163C53.2382 201.03 53.1686 200.869 53.1686 200.682C53.1686 200.494 53.2382 200.334 53.3774 200.2C53.5194 200.067 53.6885 200 53.8845 200C54.0805 200 54.2481 200.067 54.3873 200.2C54.5294 200.334 54.6004 200.494 54.6004 200.682C54.6004 200.869 54.5294 201.03 54.3873 201.163C54.2481 201.297 54.0805 201.364 53.8845 201.364ZM58.6399 209.136C58.049 209.136 57.5305 208.996 57.0845 208.714C56.6413 208.433 56.2947 208.04 56.0447 207.534C55.7975 207.028 55.674 206.437 55.674 205.761C55.674 205.08 55.7975 204.484 56.0447 203.976C56.2947 203.467 56.6413 203.072 57.0845 202.791C57.5305 202.51 58.049 202.369 58.6399 202.369C59.2308 202.369 59.7478 202.51 60.191 202.791C60.637 203.072 60.9836 203.467 61.2308 203.976C61.4808 204.484 61.6058 205.08 61.6058 205.761C61.6058 206.437 61.4808 207.028 61.2308 207.534C60.9836 208.04 60.637 208.433 60.191 208.714C59.7478 208.996 59.2308 209.136 58.6399 209.136ZM58.6399 208.233C59.0887 208.233 59.458 208.118 59.7478 207.888C60.0376 207.658 60.2521 207.355 60.3913 206.98C60.5305 206.605 60.6001 206.199 60.6001 205.761C60.6001 205.324 60.5305 204.916 60.3913 204.538C60.2521 204.161 60.0376 203.855 59.7478 203.622C59.458 203.389 59.0887 203.273 58.6399 203.273C58.191 203.273 57.8217 203.389 57.5319 203.622C57.2421 203.855 57.0276 204.161 56.8884 204.538C56.7492 204.916 56.6796 205.324 56.6796 205.761C56.6796 206.199 56.7492 206.605 56.8884 206.98C57.0276 207.355 57.2421 207.658 57.5319 207.888C57.8217 208.118 58.191 208.233 58.6399 208.233ZM63.9066 205.062V209H62.9009V202.455H63.8725V203.477H63.9577C64.1112 203.145 64.3441 202.878 64.6566 202.676C64.9691 202.472 65.3725 202.369 65.8668 202.369C66.31 202.369 66.6978 202.46 67.0302 202.642C67.3626 202.821 67.6211 203.094 67.8058 203.46C67.9904 203.824 68.0827 204.284 68.0827 204.841V209H67.0771V204.909C67.0771 204.395 66.9435 203.994 66.6765 203.707C66.4094 203.418 66.043 203.273 65.5771 203.273C65.256 203.273 64.9691 203.342 64.7163 203.482C64.4663 203.621 64.2688 203.824 64.1239 204.091C63.979 204.358 63.9066 204.682 63.9066 205.062Z" fill="#307FE2"/>
<g clip-path="url(#clip5_2200_28394)">
<path d="M88.5 186L183.5 186" stroke="#002159" stroke-miterlimit="10" stroke-linecap="round" stroke-dasharray="2 2"/>
</g>
<path d="M90.7972 190.262C88.6831 190.262 86.9694 188.528 86.9694 186.389C86.9694 184.249 88.6831 182.515 90.7972 182.515C92.9112 182.515 94.625 184.249 94.625 186.389C94.625 188.528 92.9112 190.262 90.7972 190.262Z" fill="white"/>
<path d="M90.796 182C93.1884 182 95.1328 183.968 95.1328 186.389C95.1328 188.81 93.1884 190.777 90.796 190.777C88.4036 190.777 86.4591 188.81 86.4591 186.389C86.4591 183.968 88.4036 182 90.796 182C88.4036 182 93.1884 182 90.796 182ZM90.796 189.747C92.6284 189.747 94.1148 188.243 94.1148 186.389C94.1148 184.534 92.6284 183.03 90.796 183.03C88.9635 183.03 87.4772 184.534 87.4772 186.389C87.4772 188.243 88.9635 189.747 90.796 189.747C88.9635 189.747 92.6284 189.747 90.796 189.747Z" fill="#002159"/>
</g>
<defs>
<filter id="filter0_f_2200_28394" x="164.5" y="156.5" width="202.5" height="129.5" filterUnits="userSpaceOnUse" color-interpolation-filters="sRGB">
<feFlood flood-opacity="0" result="BackgroundImageFix"/>
<feBlend mode="normal" in="SourceGraphic" in2="BackgroundImageFix" result="shape"/>
<feGaussianBlur stdDeviation="10" result="effect1_foregroundBlur_2200_28394"/>
</filter>
<filter id="filter1_f_2200_28394" x="201" y="179.5" width="126.5" height="77" filterUnits="userSpaceOnUse" color-interpolation-filters="sRGB">
<feFlood flood-opacity="0" result="BackgroundImageFix"/>
<feBlend mode="normal" in="SourceGraphic" in2="BackgroundImageFix" result="shape"/>
<feGaussianBlur stdDeviation="2.5" result="effect1_foregroundBlur_2200_28394"/>
</filter>
<linearGradient id="paint0_linear_2200_28394" x1="306.872" y1="99.0215" x2="306.237" y2="382.644" gradientUnits="userSpaceOnUse">
<stop stop-color="#F2F2F2"/>
<stop offset="1" stop-color="#B5B5B5"/>
</linearGradient>
<linearGradient id="paint1_linear_2200_28394" x1="271.808" y1="108.39" x2="236.147" y2="168.821" gradientUnits="userSpaceOnUse">
<stop stop-color="#F2F2F2"/>
<stop offset="1" stop-color="#B5B5B5"/>
</linearGradient>
<linearGradient id="paint2_linear_2200_28394" x1="237.941" y1="218.933" x2="247.138" y2="205.972" gradientUnits="userSpaceOnUse">
<stop stop-color="#E6E6E6"/>
<stop offset="1" stop-color="#9E9E9E"/>
</linearGradient>
<linearGradient id="paint3_linear_2200_28394" x1="239.21" y1="203.454" x2="246.928" y2="190.401" gradientUnits="userSpaceOnUse">
<stop stop-color="#E6E6E6"/>
<stop offset="1" stop-color="#9E9E9E"/>
</linearGradient>
<linearGradient id="paint4_linear_2200_28394" x1="238.666" y1="188.938" x2="246.502" y2="176.764" gradientUnits="userSpaceOnUse">
<stop stop-color="#E6E6E6"/>
<stop offset="1" stop-color="#9E9E9E"/>
</linearGradient>
<linearGradient id="paint5_linear_2200_28394" x1="238.652" y1="174.268" x2="246.733" y2="161.481" gradientUnits="userSpaceOnUse">
<stop stop-color="#E6E6E6"/>
<stop offset="1" stop-color="#9E9E9E"/>
</linearGradient>
<linearGradient id="paint6_linear_2200_28394" x1="239.272" y1="158.991" x2="245.7" y2="147.981" gradientUnits="userSpaceOnUse">
<stop stop-color="#E6E6E6"/>
<stop offset="1" stop-color="#9E9E9E"/>
</linearGradient>
<linearGradient id="paint7_linear_2200_28394" x1="247.392" y1="130.433" x2="235.257" y2="150.646" gradientUnits="userSpaceOnUse">
<stop stop-color="#F2F2F2"/>
<stop offset="1" stop-color="#B5B5B5"/>
</linearGradient>
<clipPath id="clip0_2200_28394">
<rect width="363" height="275" fill="white"/>
</clipPath>
<clipPath id="clip1_2200_28394">
<rect width="203" height="195" fill="white" transform="translate(160 80)"/>
</clipPath>
<clipPath id="clip2_2200_28394">
<rect width="203" height="195" fill="white" transform="translate(160 80)"/>
</clipPath>
<clipPath id="clip3_2200_28394">
<rect width="203" height="130" fill="white" transform="translate(164 156)"/>
</clipPath>
<clipPath id="clip4_2200_28394">
<rect width="135" height="52" fill="white" transform="matrix(-1 0 0 1 220 35)"/>
</clipPath>
<clipPath id="clip5_2200_28394">
<rect width="96" height="2" fill="white" transform="matrix(-1 0 0 1 184 185)"/>
</clipPath>
</defs>
</svg>
