<svg width="238" height="201" viewBox="0 0 238 201" fill="none" xmlns="http://www.w3.org/2000/svg">
<path d="M9 5.5C9 2.73858 11.2386 0.5 14 0.5H54.9438C57.0908 0.5 59.1808 1.19098 60.9046 2.47075L72.433 11.0293C74.1568 12.309 76.2468 13 78.3938 13H201C203.761 13 206 15.2386 206 18V40C206 42.7614 203.761 45 201 45H14C11.2386 45 9 42.7614 9 40V5.5Z" fill="#2163B3"/>
<path d="M0.804269 47.7463C0.370141 41.9457 4.95949 37 10.7764 37H204.224C210.04 37 214.63 41.9457 214.196 47.7463L205.065 169.746C204.675 174.965 200.326 179 195.093 179H19.907C14.6737 179 10.3255 174.965 9.93489 169.746L0.804269 47.7463Z" fill="#2A7DE1"/>
<path d="M28 25C28 23.8954 28.8954 23 30 23H184C185.105 23 186 23.8954 186 25V29H28V25Z" fill="#CCE3FF"/>
<path d="M23 31C23 29.8954 23.8954 29 25 29H189C190.105 29 191 29.8954 191 31V37H23V31Z" fill="#F0F7FF"/>
<circle cx="206" cy="169" r="26.1818" fill="#CCE3FF"/>
<rect x="203.091" y="154.455" width="5.81818" height="29.0909" rx="1.93939" fill="#2A7DE1"/>
<rect x="220.545" y="166.091" width="5.81818" height="29.0909" rx="1.93939" transform="rotate(90 220.545 166.091)" fill="#2A7DE1"/>
</svg>
