<svg width="537" height="397" viewBox="0 0 537 397" fill="none" xmlns="http://www.w3.org/2000/svg">
<g clip-path="url(#clip0_2132_26229)">
<g filter="url(#filter0_f_2132_26229)">
<path d="M133.724 216.727L7.82925 284.822L170.552 374.868L296.918 307.755L133.724 216.727Z" fill="#E6E7E8"/>
</g>
<g filter="url(#filter1_f_2132_26229)">
<path d="M133.964 226.668L25.4619 283.868L170.051 364.466L279.375 303.967L133.964 226.668Z" fill="#929497"/>
</g>
<path d="M25.463 283.868L134.286 223.577L134.271 102.98L193.59 70.4714V30L25.463 123.087V283.868Z" fill="#666666"/>
<path d="M196.02 31.406V69.1372L136.918 101.517V64.2451L196.02 31.406Z" fill="url(#paint0_linear_2132_26229)"/>
<path d="M193.59 30L196.02 31.406L136.918 64.245L134.287 62.7888L193.59 30Z" fill="#F2F2F2"/>
<g filter="url(#filter2_f_2132_26229)">
<path d="M183.281 69.4526L183.079 50.4292L146.685 70.629L146.476 89.6596L183.281 69.4526Z" fill="#4D4D4D"/>
</g>
<path d="M183.453 50.0132L328.551 130.411L292.269 150.503L147.179 70.1126L183.453 50.0132Z" fill="#A6A8AB"/>
<path d="M328.551 130.411L328.536 149.276L292.269 169.376V150.503L328.551 130.411Z" fill="#4D4D4D"/>
<path d="M147.18 88.9853L292.27 169.376V150.503L147.18 70.1125V88.9853Z" fill="#4D4D4D"/>
<g filter="url(#filter3_f_2132_26229)">
<path d="M173.96 78.1179L272.573 132.713L296.918 119.228L198.268 66.0095L173.96 78.1179Z" fill="#4D4D4D"/>
</g>
<path d="M222.643 105.089L246.98 91.6035V85.8865L222.643 99.3721V105.089Z" fill="#4D4D4D"/>
<path d="M222.643 99.3722L173.96 72.4009V78.1179L222.643 105.089V99.3722Z" fill="#808080"/>
<path d="M173.961 72.4008L198.298 58.9152L246.98 85.8865L222.643 99.3722L173.961 72.4008Z" fill="#4D4D4D"/>
<path d="M272.572 126.996L223.897 100.025V105.742L272.572 132.713V126.996Z" fill="#808080"/>
<path d="M223.898 100.025L248.236 86.5393L296.918 113.511L272.573 126.996L223.898 100.025Z" fill="#4D4D4D"/>
<path d="M272.573 132.713L296.918 119.228V113.511L272.573 126.996V132.713Z" fill="#666666"/>
<path d="M222.643 98.6979L246.98 85.2122V79.5023L222.643 92.988V98.6979Z" fill="#4D4D4D"/>
<path d="M222.643 92.988L173.96 66.0095V71.7266L222.643 98.6979V92.988Z" fill="#808080"/>
<path d="M173.961 66.0095L198.298 52.5238L246.98 79.5023L222.643 92.988L173.961 66.0095Z" fill="#F2F2F2"/>
<path d="M272.572 120.612L223.897 93.6337V99.3507L272.572 126.322V120.612Z" fill="#808080"/>
<path d="M223.898 93.6336L248.236 80.1479L296.918 107.119L272.573 120.612L223.898 93.6336Z" fill="#F2F2F2"/>
<path d="M272.573 126.322L296.918 112.836V107.119L272.573 120.612V126.322Z" fill="#666666"/>
<path d="M334 113.059L331.212 111.517L276.737 141.716L279.375 143.179L334 113.059Z" fill="#F2F2F2"/>
<path d="M170.559 364.251V362.092L25.4611 281.73V283.868L170.559 364.251Z" fill="url(#paint1_linear_2132_26229)"/>
<path d="M170.559 362.121L277.648 302.956L132.529 222.587L25.4619 281.73L170.559 362.121Z" fill="url(#paint2_linear_2132_26229)"/>
<path d="M188.887 339.195L224.115 319.698L78.9953 239.329L43.7898 258.812L188.887 339.195Z" fill="url(#paint3_linear_2132_26229)"/>
<path d="M188.887 319.476L224.115 299.979L78.9953 219.61L43.7898 239.085L188.887 319.476Z" fill="url(#paint4_linear_2132_26229)"/>
<path d="M188.887 300.287L224.115 280.783L78.9953 200.415L43.7898 219.897L188.887 300.287Z" fill="url(#paint5_linear_2132_26229)"/>
<path d="M188.887 281.099L224.115 261.595L78.9953 181.226L43.7898 200.709L188.887 281.099Z" fill="url(#paint6_linear_2132_26229)"/>
<path d="M188.887 262.441L224.115 242.937L78.9953 162.568L43.7898 182.051L188.887 262.441Z" fill="url(#paint7_linear_2132_26229)"/>
<path d="M188.887 243.253L224.115 223.749L78.9953 143.38L43.7898 162.862L188.887 243.253Z" fill="url(#paint8_linear_2132_26229)"/>
<path d="M188.887 224.058L224.115 204.561L78.9953 124.192L43.7898 143.674L188.887 224.058Z" fill="url(#paint9_linear_2132_26229)"/>
<g filter="url(#filter4_d_2132_26229)">
<path d="M183.953 196.555V354.711L176.262 350.457V334.934L169.206 331.025V346.548L164.684 344.044V328.5L157.627 324.59V340.135L152.365 337.215V321.678L145.309 317.769V333.306L139.778 330.243V314.72L132.73 310.811V326.341L127.288 323.321V307.819L120.232 303.91V319.411L115.486 316.786V301.263L108.429 297.354V312.877L101.725 309.161V293.602L94.6687 289.693V305.251L90.1465 302.748V287.175L83.0905 283.265V298.839L77.8284 295.926V280.353L70.7723 276.444V292.017L65.2336 288.947V273.388L58.185 269.479V285.037L52.7435 282.024V266.494L45.6874 262.585V278.115L38.8556 274.328V116.165L183.953 196.555ZM169.206 327.481L174.019 330.15L176.262 331.391V315.846L169.206 311.937V327.481ZM169.206 308.4L176.262 312.31V296.773L169.206 292.863V308.4ZM169.206 289.32L176.262 293.229V277.692L169.206 273.782V289.32ZM169.206 270.239L176.262 274.148V258.611L169.206 254.702V270.239ZM169.206 251.158L176.262 255.067V239.53L169.206 235.628V251.158ZM169.206 232.077L176.262 235.987V220.449L169.206 216.54V232.077ZM169.206 213.004L176.262 216.913V201.369L169.206 197.466V213.004ZM157.627 321.047L164.684 324.956V309.419L157.627 305.51V321.047ZM157.627 301.973L164.684 305.883V290.338L157.627 286.429V301.973ZM157.627 282.892L164.684 286.802V271.257L157.627 267.348V282.892ZM157.627 263.812L164.684 267.721V252.177L157.627 248.267V263.812ZM157.627 244.731L164.684 248.64V233.103L157.627 229.194V244.731ZM157.627 225.65L164.684 229.559V214.022L157.627 210.113V225.65ZM157.627 206.569L164.684 210.486V194.941L157.627 191.032V206.569ZM145.309 314.225L152.365 318.135V302.597L145.309 298.688V314.225ZM145.309 295.152L152.365 299.061V283.517L145.309 279.607V295.152ZM145.309 276.071L152.365 279.98V264.443L145.309 260.526V276.071ZM145.309 256.99L152.365 260.899V245.355L145.309 241.446V256.99ZM145.309 237.909L152.365 241.819V226.281L145.309 222.372V237.909ZM145.309 218.828L152.365 222.738V207.193L145.309 203.284V218.828ZM145.309 199.755L152.365 203.657V188.12L145.309 184.21V199.755ZM132.73 307.267L139.778 311.169V295.632L132.73 291.723V307.267ZM132.73 288.186L139.778 292.096V276.558L132.73 272.649V288.186ZM132.73 269.105L139.778 273.015V257.478L132.73 253.568V269.105ZM132.73 250.025L139.778 253.934V238.397L132.73 234.487V250.025ZM132.73 230.944L139.778 234.853V219.316L132.73 215.414V230.944ZM132.73 211.863L139.778 215.773V200.235L132.73 196.326V211.863ZM132.73 192.789L139.778 196.699V181.155L132.73 177.245V192.789ZM120.232 300.366L127.288 304.276V288.731L120.232 284.829V300.366ZM120.232 281.293L127.288 285.202V269.658L120.232 265.748V281.293ZM120.232 262.212L127.288 266.121V250.577L120.232 246.675V262.212ZM120.232 243.131L127.288 247.041V231.496L120.232 227.587V243.131ZM120.232 224.05L127.288 227.96V212.423L120.232 208.513V224.05ZM120.232 204.97L127.288 208.879V193.335L120.232 189.425V204.97ZM120.232 185.889L127.288 189.798V174.261L120.232 170.352V185.889ZM108.429 293.81L115.486 297.72V282.175L108.429 278.273V293.81ZM108.429 274.736L115.486 278.639V263.101L108.429 259.192V274.736ZM108.429 255.656L115.486 259.565V244.021L108.429 240.118V255.656ZM108.429 236.575L115.486 240.484V224.94L108.429 221.03V236.575ZM108.429 217.494L115.486 221.403V205.866L111.928 203.901L108.429 201.957V217.494ZM108.429 198.413L115.134 202.129L115.486 202.323V186.778L108.429 182.869V198.413ZM108.429 179.333L115.486 183.242V167.705L108.429 163.795V179.333ZM94.6687 286.149L101.725 290.059V274.521L94.6687 270.612V286.149ZM94.6687 267.075L101.725 270.985V255.44L94.6687 251.531V267.075ZM94.6687 247.995L101.725 251.904V236.36L94.6687 232.45V247.995ZM94.6687 228.914L101.725 232.823V217.286L94.721 213.405L94.6687 213.377V228.914ZM94.6687 209.84L97.9127 211.641L101.725 213.75V198.205L94.6687 194.296V209.84ZM94.6687 190.752L101.725 194.662V179.124L94.6687 175.215V190.752ZM94.6687 171.679L101.725 175.588V160.044L94.6687 156.134V171.679ZM83.0905 279.722L90.1465 283.638V268.094L83.0905 264.185V279.722ZM83.0905 260.641L90.1465 264.55V249.013L83.0905 245.104V260.641ZM83.0905 241.567L90.1465 245.477V229.932L83.0905 226.023V241.567ZM83.0905 222.479L90.1465 226.389V210.859L83.0905 206.942V222.479ZM83.0905 203.406L90.1465 207.315V191.778L83.0905 187.861V203.406ZM83.0905 184.325L90.1465 188.234V172.697L83.0905 168.781V184.325ZM83.0905 165.244L90.1465 169.154V153.616L83.0905 149.707V165.244ZM70.7723 272.9L77.8284 276.81V261.272L70.7723 257.363V272.9ZM70.7723 253.819L77.8284 257.736V242.192L70.7723 238.282V253.819ZM70.7723 234.746L77.8284 238.655V223.111L77.4845 222.924L70.7723 219.201V234.746ZM70.7723 215.658L77.8284 219.574V204.037L70.7723 200.128V215.658ZM70.7723 196.584L77.8284 200.494V184.956L70.7723 181.04V196.584ZM70.7723 177.496L77.8284 181.406V165.876L70.7723 161.966V177.496ZM70.7723 158.423L77.8284 162.332V146.795L70.7723 142.878V158.423ZM58.185 265.935L65.2336 269.844V254.307L58.185 250.398V265.935ZM58.185 246.861L65.2336 250.771V235.226L60.2331 232.457L58.185 231.317V246.861ZM58.185 227.781L63.4247 230.693L65.2336 231.69V216.146L58.185 212.236V227.781ZM58.185 208.7L65.2336 212.609V197.072L58.185 193.162V208.7ZM58.185 189.626L65.2336 193.535V177.991L58.185 174.082V189.626ZM58.185 170.538L65.2336 174.448V158.91L58.185 155.001V170.538ZM58.185 151.465L65.2336 155.367V139.83L58.185 135.92V151.465ZM45.6874 259.041L52.7435 262.951V247.414L45.6874 243.504V259.041ZM45.6874 239.968L46.1584 240.226L52.7435 243.87V228.333L45.6874 224.423V239.968ZM45.6874 220.887L52.7435 224.789V209.252L45.6874 205.343V220.887ZM45.6874 201.806L52.7435 205.708V190.171L45.6874 186.262V201.806ZM45.6874 182.725L52.7435 186.635V171.098L45.6874 167.188V182.725ZM45.6874 163.637L52.7435 167.547V152.017L45.6874 148.107V163.637ZM45.6874 144.564L52.7435 148.473V132.929L45.6874 129.027V144.564Z" fill="url(#paint10_linear_2132_26229)"/>
</g>
<path d="M279.375 143.179L334 113.059L333.993 153.186L279.375 183.378V303.967L170.56 364.251L170.552 203.477L279.375 143.179Z" fill="url(#paint11_linear_2132_26229)"/>
<path d="M329.994 122.542V146.515C329.994 146.974 329.478 147.827 329.067 148.057L284.257 172.883C283.876 173.091 283.636 172.962 283.636 172.539V148.566C283.636 148.107 284.152 147.253 284.563 147.024L329.374 122.197C329.755 121.989 329.994 122.118 329.994 122.542Z" fill="#A6A8AB"/>
<path d="M326.726 147.117C326.398 146.933 326.401 146.344 326.732 145.8C327.064 145.256 327.598 144.964 327.926 145.148C328.254 145.332 328.251 145.922 327.92 146.466C327.588 147.01 327.054 147.301 326.726 147.117Z" fill="#808080"/>
<path d="M318.508 151.768C318.18 151.584 318.182 150.994 318.514 150.45C318.845 149.906 319.379 149.614 319.707 149.798C320.035 149.982 320.032 150.572 319.701 151.116C319.37 151.66 318.835 151.952 318.508 151.768Z" fill="#808080"/>
<path d="M310.281 156.414C309.953 156.23 309.956 155.64 310.287 155.097C310.618 154.553 311.153 154.261 311.481 154.445C311.808 154.629 311.806 155.219 311.474 155.763C311.143 156.307 310.609 156.598 310.281 156.414Z" fill="#808080"/>
<path d="M302.054 161.057C301.727 160.873 301.729 160.283 302.061 159.74C302.392 159.196 302.926 158.904 303.254 159.088C303.582 159.272 303.579 159.862 303.248 160.406C302.917 160.95 302.382 161.241 302.054 161.057Z" fill="#808080"/>
<path d="M293.834 165.708C293.506 165.524 293.509 164.934 293.84 164.39C294.171 163.846 294.705 163.554 295.033 163.738C295.361 163.922 295.358 164.512 295.027 165.056C294.696 165.6 294.162 165.891 293.834 165.708Z" fill="#808080"/>
<path d="M285.605 170.348C285.277 170.164 285.28 169.574 285.611 169.03C285.943 168.487 286.477 168.195 286.805 168.379C287.133 168.563 287.13 169.153 286.799 169.696C286.467 170.24 285.933 170.532 285.605 170.348Z" fill="#808080"/>
<path d="M326.773 127.164C326.445 126.98 326.448 126.39 326.779 125.846C327.111 125.302 327.645 125.01 327.973 125.194C328.301 125.378 328.298 125.968 327.967 126.512C327.635 127.056 327.101 127.348 326.773 127.164Z" fill="#808080"/>
<path d="M318.547 131.81C318.219 131.626 318.221 131.036 318.553 130.493C318.884 129.949 319.418 129.657 319.746 129.841C320.074 130.025 320.071 130.615 319.74 131.159C319.409 131.703 318.874 131.994 318.547 131.81Z" fill="#808080"/>
<path d="M310.328 136.461C310 136.277 310.003 135.687 310.334 135.143C310.665 134.599 311.2 134.307 311.527 134.491C311.855 134.675 311.853 135.265 311.521 135.809C311.19 136.353 310.656 136.645 310.328 136.461Z" fill="#808080"/>
<path d="M302.101 141.104C301.773 140.92 301.776 140.33 302.107 139.786C302.439 139.242 302.973 138.95 303.301 139.134C303.629 139.318 303.626 139.908 303.295 140.452C302.963 140.996 302.429 141.288 302.101 141.104Z" fill="#808080"/>
<path d="M293.875 145.75C293.547 145.566 293.55 144.976 293.881 144.433C294.212 143.889 294.746 143.597 295.074 143.781C295.402 143.965 295.399 144.555 295.068 145.099C294.737 145.642 294.203 145.934 293.875 145.75Z" fill="#808080"/>
<path d="M285.648 150.401C285.32 150.217 285.323 149.627 285.654 149.083C285.986 148.539 286.52 148.247 286.848 148.431C287.176 148.615 287.173 149.205 286.842 149.749C286.51 150.293 285.976 150.584 285.648 150.401Z" fill="#808080"/>
<path d="M105.486 150.883V311.255L97.7501 315.538V154.764L105.486 150.89V150.883ZM99.7309 309.426L103.498 307.224V301.636L99.7309 303.716V309.426ZM99.7309 300.223L103.498 298.021V292.433L99.7309 294.513V300.223ZM99.7309 291.02L103.498 288.817V283.229L99.7309 285.31V291.02ZM99.7309 281.816L103.498 279.614V274.026L99.7309 276.106V281.816ZM99.7309 272.613L103.498 270.411V264.823L99.7309 266.903V272.613ZM99.7309 263.41L103.498 261.208V255.62L99.7309 257.7V263.41ZM99.7309 254.207L103.498 252.004V246.416L99.7309 248.497V254.207ZM99.7309 245.003L103.498 242.801V237.213L99.7309 239.293V245.003ZM99.7309 235.8L103.498 233.598V228.01L99.7309 230.09V235.8ZM99.7309 226.597L103.498 224.395V218.807L99.7309 220.887V226.597ZM99.7309 217.393L103.498 215.191V209.603L99.7309 211.684V217.393ZM99.7309 208.19L103.498 205.988V200.4L99.7309 202.48V208.19ZM99.7309 198.987L103.498 196.785V191.197L99.7309 193.277V198.987ZM99.7309 189.784L103.498 187.582V181.994L99.7309 184.074V189.784ZM99.7309 180.58L103.498 178.378V172.79L99.7309 174.871V180.58ZM99.7309 171.377L103.498 169.175V163.587L99.7309 165.667V171.377ZM99.7309 162.174L103.498 159.972V154.384L99.7309 156.464V162.174Z" fill="#808080"/>
<path d="M170.552 203.478L279.375 143.179L134.285 62.7891L25.4619 123.087L170.552 203.478Z" fill="#F2F2F2"/>
<path d="M150.004 134.069L106.621 158.064L105.41 157.397L148.711 133.352L150.004 134.069Z" fill="url(#paint12_linear_2132_26229)"/>
<path d="M197.684 107.607L155.811 130.791L154.6 130.131L196.39 106.89L197.684 107.607Z" fill="url(#paint13_linear_2132_26229)"/>
<path d="M155.146 136.924L111.771 160.912L110.553 160.252L153.853 136.207L155.146 136.924Z" fill="url(#paint14_linear_2132_26229)"/>
<path d="M202.826 110.462L160.961 133.646L159.742 132.979L201.533 109.745L202.826 110.462Z" fill="url(#paint15_linear_2132_26229)"/>
<path d="M222.059 120.412L129.754 170.882L128.521 170.201L220.765 119.694L222.059 120.412Z" fill="url(#paint16_linear_2132_26229)"/>
<path d="M250.268 136.028L157.963 186.498L156.73 185.817L248.967 135.31L250.268 136.028Z" fill="url(#paint17_linear_2132_26229)"/>
<path d="M237.016 128.689L144.711 179.16L143.478 178.479L235.723 127.972L237.016 128.689Z" fill="url(#paint18_linear_2132_26229)"/>
<path d="M262.258 142.641L169.961 193.119L168.728 192.431L260.965 141.924L262.258 142.641Z" fill="url(#paint19_linear_2132_26229)"/>
<path d="M137.768 73.6994L45.4634 124.177L44.2301 123.496L136.474 72.9893L137.768 73.6994Z" fill="url(#paint20_linear_2132_26229)"/>
<path d="M166.201 89.4231L73.897 139.894L72.6637 139.213L164.908 88.7058L166.201 89.4231Z" fill="url(#paint21_linear_2132_26229)"/>
<path d="M152.904 82.0849L60.6001 132.556L59.3668 131.874L151.611 81.3676L152.904 82.0849Z" fill="url(#paint22_linear_2132_26229)"/>
<path d="M179.051 96.5891L86.7466 147.06L85.5133 146.379L177.758 95.8718L179.051 96.5891Z" fill="url(#paint23_linear_2132_26229)"/>
</g>
<g clip-path="url(#clip1_2132_26229)">
<path d="M304.5 93L367.95 56.26H411.36" stroke="#002159" stroke-miterlimit="10" stroke-linecap="round" stroke-dasharray="2 2"/>
<path d="M413.301 56.26H415.301" stroke="#002159" stroke-miterlimit="10" stroke-linecap="round"/>
<path d="M415.09 60.02C417.167 60.02 418.85 58.3366 418.85 56.26C418.85 54.1834 417.167 52.5 415.09 52.5C413.013 52.5 411.33 54.1834 411.33 56.26C411.33 58.3366 413.013 60.02 415.09 60.02Z" fill="white"/>
<path d="M415.09 60.52C412.74 60.52 410.83 58.61 410.83 56.26C410.83 53.91 412.74 52 415.09 52C417.44 52 419.35 53.91 419.35 56.26C419.35 58.61 417.44 60.52 415.09 60.52C417.44 60.52 412.74 60.52 415.09 60.52ZM415.09 53C413.29 53 411.83 54.46 411.83 56.26C411.83 58.06 413.29 59.52 415.09 59.52C416.89 59.52 418.35 58.06 418.35 56.26C418.35 54.46 416.89 53 415.09 53C416.89 53 413.29 53 415.09 53Z" fill="#002159"/>
</g>
<path d="M431.716 31V26.9545L440.205 19.5227C440.841 18.947 441.383 18.4205 441.83 17.9432C442.277 17.4583 442.617 16.9735 442.852 16.4886C443.087 15.9962 443.205 15.4621 443.205 14.8864C443.205 14.2424 443.064 13.6932 442.784 13.2386C442.504 12.7765 442.117 12.4205 441.625 12.1705C441.133 11.9205 440.568 11.7955 439.932 11.7955C439.288 11.7955 438.723 11.928 438.239 12.1932C437.754 12.4508 437.375 12.8258 437.102 13.3182C436.837 13.8106 436.705 14.4091 436.705 15.1136H431.375C431.375 13.5303 431.731 12.1629 432.443 11.0114C433.155 9.85985 434.155 8.97348 435.443 8.35227C436.739 7.72348 438.242 7.40909 439.955 7.40909C441.72 7.40909 443.254 7.70454 444.557 8.29545C445.86 8.88636 446.867 9.71212 447.58 10.7727C448.299 11.8258 448.659 13.0492 448.659 14.4432C448.659 15.3295 448.481 16.2083 448.125 17.0795C447.769 17.9508 447.129 18.9129 446.205 19.9659C445.288 21.0189 443.985 22.2803 442.295 23.75L439.511 26.3182V26.4659H448.943V31H431.716ZM456.255 13.5455L459.13 19.2955L462.107 13.5455H467.709L462.834 22.2727L467.891 31H462.334L459.13 25.2045L456.005 31H450.369L455.437 22.2727L450.619 13.5455H456.255Z" fill="#002159"/>
<path d="M441.636 39.3636V51H440.273L433.932 41.8636H433.818V51H432.409V39.3636H433.773L440.136 48.5227H440.25V39.3636H441.636ZM447.613 51.1818C446.772 51.1818 446.047 50.9962 445.437 50.625C444.831 50.25 444.363 49.7273 444.034 49.0568C443.708 48.3826 443.545 47.5985 443.545 46.7045C443.545 45.8106 443.708 45.0227 444.034 44.3409C444.363 43.6553 444.822 43.1212 445.409 42.7386C446 42.3523 446.689 42.1591 447.477 42.1591C447.931 42.1591 448.38 42.2348 448.823 42.3864C449.267 42.5379 449.67 42.7841 450.034 43.125C450.397 43.4621 450.687 43.9091 450.903 44.4659C451.119 45.0227 451.227 45.7083 451.227 46.5227V47.0909H444.5V45.9318H449.863C449.863 45.4394 449.765 45 449.568 44.6136C449.375 44.2273 449.098 43.9223 448.738 43.6989C448.382 43.4754 447.962 43.3636 447.477 43.3636C446.943 43.3636 446.481 43.4962 446.091 43.7614C445.704 44.0227 445.407 44.3636 445.198 44.7841C444.99 45.2045 444.886 45.6553 444.886 46.1364V46.9091C444.886 47.5682 445 48.1269 445.227 48.5852C445.458 49.0398 445.778 49.3864 446.187 49.625C446.596 49.8598 447.072 49.9773 447.613 49.9773C447.966 49.9773 448.284 49.928 448.568 49.8295C448.856 49.7273 449.104 49.5758 449.312 49.375C449.52 49.1705 449.681 48.9167 449.795 48.6136L451.091 48.9773C450.954 49.4167 450.725 49.803 450.403 50.1364C450.081 50.4659 449.683 50.7235 449.21 50.9091C448.736 51.0909 448.204 51.1818 447.613 51.1818ZM456.742 42.2727V43.4091H452.219V42.2727H456.742ZM453.538 40.1818H454.878V48.5C454.878 48.8788 454.933 49.1629 455.043 49.3523C455.157 49.5379 455.301 49.6629 455.475 49.7273C455.653 49.7879 455.841 49.8182 456.038 49.8182C456.185 49.8182 456.306 49.8106 456.401 49.7955C456.496 49.7765 456.572 49.7614 456.628 49.75L456.901 50.9545C456.81 50.9886 456.683 51.0227 456.521 51.0568C456.358 51.0947 456.151 51.1136 455.901 51.1136C455.522 51.1136 455.151 51.0322 454.788 50.8693C454.428 50.7064 454.128 50.4583 453.89 50.125C453.655 49.7917 453.538 49.3712 453.538 48.8636V40.1818ZM460.416 51L457.757 42.2727H459.166L461.053 48.9545H461.144L463.007 42.2727H464.439L466.28 48.9318H466.371L468.257 42.2727H469.666L467.007 51H465.689L463.78 44.2955H463.644L461.735 51H460.416ZM474.368 51.1818C473.58 51.1818 472.889 50.9943 472.294 50.6193C471.703 50.2443 471.241 49.7197 470.908 49.0455C470.578 48.3712 470.413 47.5833 470.413 46.6818C470.413 45.7727 470.578 44.9792 470.908 44.3011C471.241 43.6231 471.703 43.0966 472.294 42.7216C472.889 42.3466 473.58 42.1591 474.368 42.1591C475.156 42.1591 475.845 42.3466 476.436 42.7216C477.031 43.0966 477.493 43.6231 477.822 44.3011C478.156 44.9792 478.322 45.7727 478.322 46.6818C478.322 47.5833 478.156 48.3712 477.822 49.0455C477.493 49.7197 477.031 50.2443 476.436 50.6193C475.845 50.9943 475.156 51.1818 474.368 51.1818ZM474.368 49.9773C474.966 49.9773 475.459 49.8239 475.845 49.517C476.231 49.2102 476.517 48.8068 476.703 48.3068C476.889 47.8068 476.981 47.2652 476.981 46.6818C476.981 46.0985 476.889 45.5549 476.703 45.0511C476.517 44.5473 476.231 44.1402 475.845 43.8295C475.459 43.5189 474.966 43.3636 474.368 43.3636C473.769 43.3636 473.277 43.5189 472.89 43.8295C472.504 44.1402 472.218 44.5473 472.033 45.0511C471.847 45.5549 471.754 46.0985 471.754 46.6818C471.754 47.2652 471.847 47.8068 472.033 48.3068C472.218 48.8068 472.504 49.2102 472.89 49.517C473.277 49.8239 473.769 49.9773 474.368 49.9773ZM480.049 51V42.2727H481.345V43.5909H481.436C481.595 43.1591 481.882 42.8087 482.299 42.5398C482.716 42.2708 483.186 42.1364 483.708 42.1364C483.807 42.1364 483.93 42.1383 484.078 42.142C484.225 42.1458 484.337 42.1515 484.413 42.1591V43.5227C484.367 43.5114 484.263 43.4943 484.1 43.4716C483.941 43.4451 483.773 43.4318 483.595 43.4318C483.17 43.4318 482.792 43.5208 482.458 43.6989C482.129 43.8731 481.867 44.1155 481.674 44.4261C481.485 44.733 481.39 45.0833 481.39 45.4773V51H480.049ZM486.932 47.8182L486.91 46.1591H487.182L491 42.2727H492.66L488.591 46.3864H488.478L486.932 47.8182ZM485.682 51V39.3636H487.023V51H485.682ZM491.228 51L487.819 46.6818L488.773 45.75L492.932 51H491.228ZM438.773 61.2727C438.705 60.697 438.428 60.25 437.943 59.9318C437.458 59.6136 436.864 59.4545 436.159 59.4545C435.644 59.4545 435.193 59.5379 434.807 59.7045C434.424 59.8712 434.125 60.1004 433.909 60.392C433.697 60.6837 433.591 61.0152 433.591 61.3864C433.591 61.697 433.665 61.964 433.812 62.1875C433.964 62.4072 434.157 62.5909 434.392 62.7386C434.627 62.8826 434.873 63.0019 435.131 63.0966C435.388 63.1875 435.625 63.2614 435.841 63.3182L437.023 63.6364C437.326 63.7159 437.663 63.8258 438.034 63.9659C438.409 64.1061 438.767 64.2973 439.108 64.5398C439.453 64.7784 439.737 65.0852 439.96 65.4602C440.184 65.8352 440.295 66.2955 440.295 66.8409C440.295 67.4697 440.131 68.0379 439.801 68.5455C439.475 69.053 438.998 69.4564 438.369 69.7557C437.744 70.0549 436.985 70.2045 436.091 70.2045C435.258 70.2045 434.536 70.0701 433.926 69.8011C433.32 69.5322 432.843 69.1572 432.494 68.6761C432.15 68.1951 431.955 67.6364 431.909 67H433.364C433.402 67.4394 433.549 67.803 433.807 68.0909C434.068 68.375 434.398 68.5871 434.795 68.7273C435.197 68.8636 435.629 68.9318 436.091 68.9318C436.629 68.9318 437.112 68.8447 437.54 68.6705C437.968 68.4924 438.307 68.2462 438.557 67.9318C438.807 67.6136 438.932 67.2424 438.932 66.8182C438.932 66.4318 438.824 66.1174 438.608 65.875C438.392 65.6326 438.108 65.4356 437.756 65.2841C437.403 65.1326 437.023 65 436.614 64.8864L435.182 64.4773C434.273 64.2159 433.553 63.8428 433.023 63.358C432.492 62.8731 432.227 62.2386 432.227 61.4545C432.227 60.803 432.403 60.2348 432.756 59.75C433.112 59.2614 433.589 58.8826 434.188 58.6136C434.79 58.3409 435.462 58.2045 436.205 58.2045C436.955 58.2045 437.621 58.339 438.205 58.608C438.788 58.8731 439.25 59.2367 439.591 59.6989C439.936 60.161 440.117 60.6856 440.136 61.2727H438.773ZM444.088 70L441.429 61.2727H442.838L444.724 67.9545H444.815L446.679 61.2727H448.11L449.951 67.9318H450.042L451.929 61.2727H453.338L450.679 70H449.36L447.451 63.2955H447.315L445.406 70H444.088ZM454.79 70V61.2727H456.131V70H454.79ZM455.472 59.8182C455.211 59.8182 454.985 59.7292 454.796 59.5511C454.61 59.3731 454.518 59.1591 454.518 58.9091C454.518 58.6591 454.61 58.4451 454.796 58.267C454.985 58.089 455.211 58 455.472 58C455.734 58 455.957 58.089 456.143 58.267C456.332 58.4451 456.427 58.6591 456.427 58.9091C456.427 59.1591 456.332 59.3731 456.143 59.5511C455.957 59.7292 455.734 59.8182 455.472 59.8182ZM462.063 61.2727V62.4091H457.54V61.2727H462.063ZM458.858 59.1818H460.199V67.5C460.199 67.8788 460.254 68.1629 460.364 68.3523C460.478 68.5379 460.621 68.6629 460.796 68.7273C460.974 68.7879 461.161 68.8182 461.358 68.8182C461.506 68.8182 461.627 68.8106 461.722 68.7955C461.817 68.7765 461.892 68.7614 461.949 68.75L462.222 69.9545C462.131 69.9886 462.004 70.0227 461.841 70.0568C461.678 70.0947 461.472 70.1136 461.222 70.1136C460.843 70.1136 460.472 70.0322 460.108 69.8693C459.748 69.7064 459.449 69.4583 459.21 69.125C458.976 68.7917 458.858 68.3712 458.858 67.8636V59.1818ZM467.211 70.1818C466.393 70.1818 465.689 69.9886 465.098 69.6023C464.507 69.2159 464.052 68.6837 463.734 68.0057C463.416 67.3277 463.257 66.553 463.257 65.6818C463.257 64.7955 463.42 64.0133 463.746 63.3352C464.075 62.6534 464.533 62.1212 465.121 61.7386C465.711 61.3523 466.401 61.1591 467.189 61.1591C467.802 61.1591 468.355 61.2727 468.848 61.5C469.34 61.7273 469.744 62.0455 470.058 62.4545C470.372 62.8636 470.568 63.3409 470.643 63.8864H469.302C469.2 63.4886 468.973 63.1364 468.621 62.8295C468.272 62.5189 467.802 62.3636 467.211 62.3636C466.689 62.3636 466.23 62.5 465.836 62.7727C465.446 63.0417 465.141 63.4223 464.922 63.9148C464.706 64.4034 464.598 64.9773 464.598 65.6364C464.598 66.3106 464.704 66.8977 464.916 67.3977C465.132 67.8977 465.435 68.286 465.825 68.5625C466.219 68.839 466.681 68.9773 467.211 68.9773C467.56 68.9773 467.876 68.9167 468.16 68.7955C468.444 68.6742 468.685 68.5 468.882 68.2727C469.079 68.0455 469.219 67.7727 469.302 67.4545H470.643C470.568 67.9697 470.38 68.4337 470.081 68.8466C469.785 69.2557 469.393 69.5814 468.905 69.8239C468.42 70.0625 467.855 70.1818 467.211 70.1818ZM473.624 64.75V70H472.284V58.3636H473.624V62.6364H473.738C473.943 62.1856 474.249 61.8277 474.659 61.5625C475.071 61.2936 475.621 61.1591 476.306 61.1591C476.901 61.1591 477.422 61.2784 477.869 61.517C478.316 61.7519 478.662 62.1136 478.909 62.6023C479.159 63.0871 479.284 63.7045 479.284 64.4545V70H477.943V64.5455C477.943 63.8523 477.763 63.3163 477.403 62.9375C477.047 62.5549 476.552 62.3636 475.92 62.3636C475.48 62.3636 475.087 62.4564 474.738 62.642C474.393 62.8277 474.121 63.0985 473.92 63.4545C473.723 63.8106 473.624 64.2424 473.624 64.75ZM485.076 70.1818C484.235 70.1818 483.509 69.9962 482.9 69.625C482.294 69.25 481.826 68.7273 481.496 68.0568C481.17 67.3826 481.008 66.5985 481.008 65.7045C481.008 64.8106 481.17 64.0227 481.496 63.3409C481.826 62.6553 482.284 62.1212 482.871 61.7386C483.462 61.3523 484.151 61.1591 484.939 61.1591C485.394 61.1591 485.843 61.2348 486.286 61.3864C486.729 61.5379 487.133 61.7841 487.496 62.125C487.86 62.4621 488.15 62.9091 488.366 63.4659C488.581 64.0227 488.689 64.7083 488.689 65.5227V66.0909H481.962V64.9318H487.326C487.326 64.4394 487.227 64 487.03 63.6136C486.837 63.2273 486.561 62.9223 486.201 62.6989C485.845 62.4754 485.424 62.3636 484.939 62.3636C484.405 62.3636 483.943 62.4962 483.553 62.7614C483.167 63.0227 482.869 63.3636 482.661 63.7841C482.453 64.2045 482.348 64.6553 482.348 65.1364V65.9091C482.348 66.5682 482.462 67.1269 482.689 67.5852C482.92 68.0398 483.241 68.3864 483.65 68.625C484.059 68.8598 484.534 68.9773 485.076 68.9773C485.428 68.9773 485.746 68.928 486.03 68.8295C486.318 68.7273 486.566 68.5758 486.775 68.375C486.983 68.1705 487.144 67.9167 487.258 67.6136L488.553 67.9773C488.417 68.4167 488.187 68.803 487.866 69.1364C487.544 69.4659 487.146 69.7235 486.672 69.9091C486.199 70.0909 485.667 70.1818 485.076 70.1818ZM496.591 63.2273L495.386 63.5682C495.311 63.3674 495.199 63.1723 495.051 62.983C494.907 62.7898 494.71 62.6307 494.46 62.5057C494.21 62.3807 493.89 62.3182 493.5 62.3182C492.966 62.3182 492.521 62.4413 492.165 62.6875C491.813 62.9299 491.636 63.2386 491.636 63.6136C491.636 63.947 491.758 64.2102 492 64.4034C492.242 64.5966 492.621 64.7576 493.136 64.8864L494.432 65.2045C495.212 65.3939 495.794 65.6837 496.176 66.0739C496.559 66.4602 496.75 66.9583 496.75 67.5682C496.75 68.0682 496.606 68.5152 496.318 68.9091C496.034 69.303 495.636 69.6136 495.125 69.8409C494.614 70.0682 494.019 70.1818 493.341 70.1818C492.451 70.1818 491.714 69.9886 491.131 69.6023C490.547 69.2159 490.178 68.6515 490.023 67.9091L491.296 67.5909C491.417 68.0606 491.646 68.4129 491.983 68.6477C492.324 68.8826 492.769 69 493.318 69C493.943 69 494.439 68.8674 494.807 68.6023C495.178 68.3333 495.364 68.0114 495.364 67.6364C495.364 67.3333 495.258 67.0795 495.046 66.875C494.833 66.6667 494.508 66.5114 494.068 66.4091L492.614 66.0682C491.814 65.8788 491.227 65.5852 490.852 65.1875C490.481 64.786 490.296 64.2841 490.296 63.6818C490.296 63.1894 490.434 62.7538 490.71 62.375C490.991 61.9962 491.371 61.6989 491.852 61.483C492.337 61.267 492.886 61.1591 493.5 61.1591C494.364 61.1591 495.042 61.3485 495.534 61.7273C496.03 62.1061 496.383 62.6061 496.591 63.2273Z" fill="#002159"/>
<path d="M434.929 80.1534C435.406 80.1534 435.862 80.2315 436.297 80.3878C436.732 80.5412 437.119 80.7869 437.46 81.125C437.801 81.4602 438.07 81.902 438.266 82.4503C438.462 82.9986 438.56 83.6676 438.56 84.4574C438.563 85.1847 438.477 85.8366 438.304 86.4134C438.131 86.9872 437.882 87.4759 437.558 87.8793C437.237 88.2827 436.851 88.5909 436.399 88.804C435.947 89.0142 435.443 89.1193 434.886 89.1193C434.273 89.1193 433.732 89.0014 433.263 88.7656C432.797 88.527 432.423 88.206 432.142 87.8026C431.864 87.3991 431.697 86.9474 431.643 86.4474H433.719C433.784 86.7372 433.922 86.956 434.132 87.1037C434.342 87.2486 434.594 87.321 434.886 87.321C435.42 87.321 435.82 87.0895 436.084 86.6264C436.348 86.1634 436.48 85.5341 436.48 84.7386H436.429C436.307 85 436.134 85.2244 435.909 85.4119C435.688 85.5994 435.43 85.7429 435.138 85.8423C434.845 85.9418 434.537 85.9915 434.213 85.9915C433.69 85.9915 433.229 85.8722 432.828 85.6335C432.43 85.3949 432.118 85.0668 431.891 84.6491C431.666 84.2315 431.553 83.7543 431.55 83.2173C431.547 82.6151 431.688 82.0838 431.972 81.6236C432.256 81.1605 432.652 80.7997 433.161 80.5412C433.669 80.2798 434.259 80.1506 434.929 80.1534ZM434.942 81.7727C434.68 81.7727 434.447 81.8338 434.243 81.956C434.041 82.0781 433.882 82.2429 433.766 82.4503C433.649 82.6577 433.592 82.8906 433.595 83.1491C433.598 83.4077 433.656 83.6406 433.77 83.848C433.886 84.0554 434.044 84.2202 434.243 84.3423C434.445 84.4645 434.675 84.5256 434.933 84.5256C435.126 84.5256 435.305 84.4901 435.47 84.419C435.635 84.348 435.778 84.25 435.901 84.125C436.023 83.9972 436.118 83.8494 436.186 83.6818C436.257 83.5142 436.291 83.3352 436.288 83.1449C436.286 82.892 436.226 82.6619 436.109 82.4545C435.993 82.2472 435.832 82.0824 435.628 81.9602C435.426 81.8352 435.197 81.7727 434.942 81.7727ZM442.976 89.1193C442.499 89.1193 442.042 89.0426 441.604 88.8892C441.167 88.733 440.777 88.4858 440.436 88.1477C440.096 87.8068 439.827 87.3608 439.631 86.8097C439.435 86.2557 439.338 85.581 439.341 84.7855C439.344 84.0668 439.432 83.4219 439.606 82.8509C439.779 82.277 440.026 81.7898 440.347 81.3892C440.671 80.9886 441.057 80.6832 441.506 80.473C441.958 80.2599 442.462 80.1534 443.019 80.1534C443.63 80.1534 444.168 80.2727 444.634 80.5114C445.103 80.7472 445.478 81.0653 445.759 81.4659C446.04 81.8636 446.206 82.3068 446.258 82.7955H444.182C444.12 82.5199 443.982 82.3111 443.769 82.169C443.559 82.0241 443.309 81.9517 443.019 81.9517C442.485 81.9517 442.086 82.1832 441.821 82.6463C441.56 83.1094 441.427 83.7287 441.421 84.5043H441.476C441.596 84.2429 441.767 84.0185 441.992 83.831C442.216 83.6435 442.473 83.5 442.763 83.4006C443.056 83.2983 443.365 83.2472 443.692 83.2472C444.215 83.2472 444.677 83.3679 445.077 83.6094C445.478 83.8509 445.792 84.1818 446.019 84.6023C446.246 85.0199 446.358 85.4986 446.356 86.0384C446.358 86.6463 446.216 87.1832 445.929 87.6491C445.642 88.1122 445.245 88.473 444.736 88.7315C444.231 88.9901 443.644 89.1193 442.976 89.1193ZM442.963 87.5C443.222 87.5 443.454 87.4389 443.658 87.3168C443.863 87.1946 444.023 87.0284 444.14 86.8182C444.256 86.608 444.313 86.3707 444.31 86.1065C444.313 85.8395 444.256 85.6023 444.14 85.3949C444.026 85.1875 443.867 85.0227 443.662 84.9006C443.461 84.7784 443.229 84.7173 442.968 84.7173C442.777 84.7173 442.6 84.7528 442.435 84.8239C442.27 84.8949 442.127 84.9943 442.005 85.1222C441.885 85.2472 441.792 85.3949 441.723 85.5653C441.655 85.733 441.62 85.9148 441.617 86.1108C441.62 86.3693 441.679 86.6037 441.796 86.8139C441.912 87.0241 442.071 87.1918 442.273 87.3168C442.475 87.4389 442.705 87.5 442.963 87.5ZM449.102 82.4545L450.18 84.6108L451.296 82.4545H453.397L451.569 85.7273L453.465 89H451.382L450.18 86.8267L449.008 89H446.894L448.795 85.7273L446.988 82.4545H449.102ZM456.977 91.4545V82.4545H458.494V83.5369H458.584C458.663 83.3778 458.775 83.2088 458.92 83.0298C459.065 82.848 459.261 82.6932 459.508 82.5653C459.756 82.4347 460.071 82.3693 460.454 82.3693C460.96 82.3693 461.416 82.4986 461.822 82.7571C462.231 83.0128 462.555 83.392 462.794 83.8949C463.035 84.3949 463.156 85.0085 463.156 85.7358C463.156 86.4545 463.038 87.0653 462.802 87.5682C462.567 88.071 462.246 88.4545 461.839 88.7188C461.433 88.983 460.973 89.1151 460.459 89.1151C460.084 89.1151 459.773 89.0526 459.525 88.9276C459.278 88.8026 459.079 88.652 458.929 88.4759C458.781 88.2969 458.666 88.1278 458.584 87.9688H458.52V91.4545H456.977ZM458.49 85.7273C458.49 86.1506 458.55 86.5213 458.669 86.8395C458.791 87.1577 458.966 87.4062 459.193 87.5852C459.423 87.7614 459.702 87.8494 460.028 87.8494C460.369 87.8494 460.655 87.7585 460.885 87.5767C461.115 87.392 461.288 87.1406 461.405 86.8224C461.524 86.5014 461.584 86.1364 461.584 85.7273C461.584 85.321 461.525 84.9602 461.409 84.6449C461.292 84.3295 461.119 84.0824 460.889 83.9034C460.659 83.7244 460.372 83.6349 460.028 83.6349C459.699 83.6349 459.419 83.7216 459.189 83.8949C458.959 84.0682 458.784 84.3111 458.665 84.6236C458.548 84.9361 458.49 85.304 458.49 85.7273ZM467.092 89.1278C466.453 89.1278 465.899 88.9872 465.43 88.706C464.962 88.4247 464.598 88.0312 464.339 87.5256C464.084 87.0199 463.956 86.429 463.956 85.7528C463.956 85.0767 464.084 84.4844 464.339 83.9759C464.598 83.4673 464.962 83.0724 465.43 82.7912C465.899 82.5099 466.453 82.3693 467.092 82.3693C467.731 82.3693 468.285 82.5099 468.754 82.7912C469.223 83.0724 469.585 83.4673 469.841 83.9759C470.099 84.4844 470.229 85.0767 470.229 85.7528C470.229 86.429 470.099 87.0199 469.841 87.5256C469.585 88.0312 469.223 88.4247 468.754 88.706C468.285 88.9872 467.731 89.1278 467.092 89.1278ZM467.101 87.892C467.447 87.892 467.737 87.7969 467.97 87.6065C468.203 87.4134 468.376 87.1548 468.49 86.831C468.606 86.5071 468.665 86.1463 468.665 85.7486C468.665 85.348 468.606 84.9858 468.49 84.6619C468.376 84.3352 468.203 84.0753 467.97 83.8821C467.737 83.6889 467.447 83.5923 467.101 83.5923C466.746 83.5923 466.45 83.6889 466.214 83.8821C465.981 84.0753 465.807 84.3352 465.69 84.6619C465.577 84.9858 465.52 85.348 465.52 85.7486C465.52 86.1463 465.577 86.5071 465.69 86.831C465.807 87.1548 465.981 87.4134 466.214 87.6065C466.45 87.7969 466.746 87.892 467.101 87.892ZM471.298 89V82.4545H472.794V83.5455H472.862C472.981 83.1676 473.186 82.8764 473.475 82.6719C473.768 82.4645 474.102 82.3608 474.477 82.3608C474.562 82.3608 474.657 82.3651 474.762 82.3736C474.87 82.3793 474.96 82.3892 475.031 82.4034V83.8224C474.966 83.7997 474.862 83.7798 474.72 83.7628C474.581 83.7429 474.446 83.733 474.315 83.733C474.034 83.733 473.781 83.794 473.556 83.9162C473.335 84.0355 473.16 84.2017 473.032 84.4148C472.904 84.6278 472.841 84.8736 472.841 85.152V89H471.298ZM479.436 82.4545V83.6477H475.673V82.4545H479.436ZM476.602 80.8864H478.145V87.0312C478.145 87.2386 478.176 87.3977 478.238 87.5085C478.304 87.6165 478.389 87.6903 478.494 87.7301C478.599 87.7699 478.716 87.7898 478.843 87.7898C478.94 87.7898 479.028 87.7827 479.108 87.7685C479.19 87.7543 479.253 87.7415 479.295 87.7301L479.555 88.9361C479.473 88.9645 479.355 88.9957 479.201 89.0298C479.051 89.0639 478.866 89.0838 478.647 89.0895C478.261 89.1009 477.913 89.0426 477.603 88.9148C477.294 88.7841 477.048 88.5824 476.866 88.3097C476.687 88.0369 476.599 87.696 476.602 87.2869V80.8864ZM485.565 84.1847L484.159 84.3381C484.119 84.196 484.05 84.0625 483.95 83.9375C483.854 83.8125 483.723 83.7116 483.558 83.6349C483.394 83.5582 483.192 83.5199 482.953 83.5199C482.632 83.5199 482.362 83.5895 482.144 83.7287C481.928 83.8679 481.821 84.0483 481.824 84.2699C481.821 84.4602 481.891 84.6151 482.033 84.7344C482.178 84.8537 482.416 84.9517 482.749 85.0284L483.865 85.267C484.484 85.4006 484.945 85.6122 485.246 85.902C485.55 86.1918 485.703 86.571 485.706 87.0398C485.703 87.4517 485.582 87.8153 485.344 88.1307C485.108 88.4432 484.78 88.6875 484.359 88.8636C483.939 89.0398 483.456 89.1278 482.911 89.1278C482.109 89.1278 481.465 88.9602 480.976 88.625C480.487 88.2869 480.196 87.8168 480.102 87.2145L481.607 87.0696C481.675 87.3651 481.82 87.5881 482.041 87.7386C482.263 87.8892 482.551 87.9645 482.906 87.9645C483.273 87.9645 483.567 87.8892 483.788 87.7386C484.013 87.5881 484.125 87.402 484.125 87.1804C484.125 86.9929 484.053 86.8381 483.908 86.7159C483.766 86.5937 483.544 86.5 483.243 86.4347L482.127 86.2003C481.499 86.0696 481.034 85.8494 480.733 85.5398C480.432 85.2273 480.283 84.8324 480.286 84.3551C480.283 83.9517 480.392 83.6023 480.614 83.3068C480.838 83.0085 481.149 82.7784 481.547 82.6165C481.948 82.4517 482.409 82.3693 482.932 82.3693C483.699 82.3693 484.303 82.5327 484.743 82.8594C485.186 83.1861 485.46 83.6278 485.565 84.1847Z" fill="#307FE2"/>
<g clip-path="url(#clip2_2132_26229)">
<path d="M414.641 253.26H412.641" stroke="#002159" stroke-miterlimit="10" stroke-linecap="round"/>
<path d="M409 253L291 253" stroke="#002159" stroke-miterlimit="10" stroke-linecap="round" stroke-dasharray="2 2"/>
<path d="M414.42 257.02C416.497 257.02 418.18 255.337 418.18 253.26C418.18 251.183 416.497 249.5 414.42 249.5C412.344 249.5 410.66 251.183 410.66 253.26C410.66 255.337 412.344 257.02 414.42 257.02Z" fill="white"/>
<path d="M414.42 249C412.07 249 410.16 250.91 410.16 253.26C410.16 255.61 412.07 257.52 414.42 257.52C416.77 257.52 418.68 255.61 418.68 253.26C418.68 250.91 416.77 249 414.42 249C416.77 249 412.07 249 414.42 249ZM414.42 256.52C412.62 256.52 411.16 255.06 411.16 253.26C411.16 251.46 412.62 250 414.42 250C416.22 250 417.68 251.46 417.68 253.26C417.68 255.06 416.22 256.52 414.42 256.52C416.22 256.52 412.62 256.52 414.42 256.52Z" fill="#002159"/>
</g>
<path d="M440.807 234.318C438.996 234.318 437.379 234.03 435.955 233.455C434.538 232.871 433.424 232.083 432.614 231.091C431.811 230.091 431.409 228.962 431.409 227.705C431.409 226.742 431.64 225.86 432.102 225.057C432.564 224.254 433.189 223.587 433.977 223.057C434.773 222.519 435.659 222.174 436.636 222.023V221.841C435.356 221.606 434.307 221.011 433.489 220.057C432.678 219.102 432.273 217.985 432.273 216.705C432.273 215.492 432.64 214.413 433.375 213.466C434.117 212.519 435.129 211.773 436.409 211.227C437.697 210.682 439.163 210.409 440.807 210.409C442.451 210.409 443.913 210.682 445.193 211.227C446.481 211.773 447.492 212.519 448.227 213.466C448.97 214.413 449.341 215.492 449.341 216.705C449.341 217.992 448.928 219.114 448.102 220.068C447.284 221.015 446.242 221.606 444.977 221.841V222.023C445.947 222.174 446.826 222.519 447.614 223.057C448.409 223.587 449.038 224.254 449.5 225.057C449.97 225.86 450.205 226.742 450.205 227.705C450.205 228.962 449.799 230.091 448.989 231.091C448.178 232.083 447.064 232.871 445.648 233.455C444.239 234.03 442.625 234.318 440.807 234.318ZM440.807 230.33C441.496 230.33 442.102 230.201 442.625 229.943C443.148 229.678 443.557 229.311 443.852 228.841C444.155 228.371 444.307 227.841 444.307 227.25C444.307 226.644 444.155 226.106 443.852 225.636C443.549 225.167 443.133 224.799 442.602 224.534C442.08 224.261 441.481 224.125 440.807 224.125C440.14 224.125 439.542 224.261 439.011 224.534C438.481 224.799 438.064 225.167 437.761 225.636C437.458 226.106 437.307 226.644 437.307 227.25C437.307 227.841 437.455 228.371 437.75 228.841C438.053 229.303 438.466 229.667 438.989 229.932C439.519 230.197 440.125 230.33 440.807 230.33ZM440.807 220.159C441.398 220.159 441.92 220.038 442.375 219.795C442.837 219.553 443.197 219.216 443.455 218.784C443.72 218.352 443.852 217.864 443.852 217.318C443.852 216.773 443.72 216.292 443.455 215.875C443.197 215.458 442.841 215.133 442.386 214.898C441.932 214.655 441.405 214.534 440.807 214.534C440.216 214.534 439.689 214.655 439.227 214.898C438.765 215.133 438.405 215.458 438.148 215.875C437.89 216.292 437.761 216.773 437.761 217.318C437.761 217.864 437.89 218.352 438.148 218.784C438.413 219.208 438.777 219.545 439.239 219.795C439.701 220.038 440.223 220.159 440.807 220.159ZM457.474 216.545L460.349 222.295L463.326 216.545H468.928L464.053 225.273L469.11 234H463.553L460.349 228.205L457.224 234H451.587L456.655 225.273L451.837 216.545H457.474Z" fill="#002159"/>
<path d="M438.773 245.273C438.705 244.697 438.428 244.25 437.943 243.932C437.458 243.614 436.864 243.455 436.159 243.455C435.644 243.455 435.193 243.538 434.807 243.705C434.424 243.871 434.125 244.1 433.909 244.392C433.697 244.684 433.591 245.015 433.591 245.386C433.591 245.697 433.665 245.964 433.812 246.188C433.964 246.407 434.157 246.591 434.392 246.739C434.627 246.883 434.873 247.002 435.131 247.097C435.388 247.187 435.625 247.261 435.841 247.318L437.023 247.636C437.326 247.716 437.663 247.826 438.034 247.966C438.409 248.106 438.767 248.297 439.108 248.54C439.453 248.778 439.737 249.085 439.96 249.46C440.184 249.835 440.295 250.295 440.295 250.841C440.295 251.47 440.131 252.038 439.801 252.545C439.475 253.053 438.998 253.456 438.369 253.756C437.744 254.055 436.985 254.205 436.091 254.205C435.258 254.205 434.536 254.07 433.926 253.801C433.32 253.532 432.843 253.157 432.494 252.676C432.15 252.195 431.955 251.636 431.909 251H433.364C433.402 251.439 433.549 251.803 433.807 252.091C434.068 252.375 434.398 252.587 434.795 252.727C435.197 252.864 435.629 252.932 436.091 252.932C436.629 252.932 437.112 252.845 437.54 252.67C437.968 252.492 438.307 252.246 438.557 251.932C438.807 251.614 438.932 251.242 438.932 250.818C438.932 250.432 438.824 250.117 438.608 249.875C438.392 249.633 438.108 249.436 437.756 249.284C437.403 249.133 437.023 249 436.614 248.886L435.182 248.477C434.273 248.216 433.553 247.843 433.023 247.358C432.492 246.873 432.227 246.239 432.227 245.455C432.227 244.803 432.403 244.235 432.756 243.75C433.112 243.261 433.589 242.883 434.188 242.614C434.79 242.341 435.462 242.205 436.205 242.205C436.955 242.205 437.621 242.339 438.205 242.608C438.788 242.873 439.25 243.237 439.591 243.699C439.936 244.161 440.117 244.686 440.136 245.273H438.773ZM443.451 248.75V254H442.11V242.364H443.451V246.636H443.565C443.769 246.186 444.076 245.828 444.485 245.562C444.898 245.294 445.448 245.159 446.133 245.159C446.728 245.159 447.249 245.278 447.696 245.517C448.143 245.752 448.489 246.114 448.735 246.602C448.985 247.087 449.11 247.705 449.11 248.455V254H447.769V248.545C447.769 247.852 447.59 247.316 447.23 246.938C446.874 246.555 446.379 246.364 445.747 246.364C445.307 246.364 444.913 246.456 444.565 246.642C444.22 246.828 443.948 247.098 443.747 247.455C443.55 247.811 443.451 248.242 443.451 248.75ZM454.903 254.182C454.062 254.182 453.336 253.996 452.726 253.625C452.12 253.25 451.653 252.727 451.323 252.057C450.997 251.383 450.834 250.598 450.834 249.705C450.834 248.811 450.997 248.023 451.323 247.341C451.653 246.655 452.111 246.121 452.698 245.739C453.289 245.352 453.978 245.159 454.766 245.159C455.221 245.159 455.67 245.235 456.113 245.386C456.556 245.538 456.959 245.784 457.323 246.125C457.687 246.462 457.976 246.909 458.192 247.466C458.408 248.023 458.516 248.708 458.516 249.523V250.091H451.789V248.932H457.153C457.153 248.439 457.054 248 456.857 247.614C456.664 247.227 456.387 246.922 456.028 246.699C455.672 246.475 455.251 246.364 454.766 246.364C454.232 246.364 453.77 246.496 453.38 246.761C452.994 247.023 452.696 247.364 452.488 247.784C452.28 248.205 452.175 248.655 452.175 249.136V249.909C452.175 250.568 452.289 251.127 452.516 251.585C452.747 252.04 453.067 252.386 453.476 252.625C453.886 252.86 454.361 252.977 454.903 252.977C455.255 252.977 455.573 252.928 455.857 252.83C456.145 252.727 456.393 252.576 456.601 252.375C456.81 252.17 456.971 251.917 457.084 251.614L458.38 251.977C458.244 252.417 458.014 252.803 457.692 253.136C457.37 253.466 456.973 253.723 456.499 253.909C456.026 254.091 455.494 254.182 454.903 254.182ZM461.577 242.364V254H460.236V242.364H461.577ZM470.849 245.273L467.622 254H466.258L463.031 245.273H464.486L466.895 252.227H466.986L469.395 245.273H470.849ZM475.646 254.182C474.805 254.182 474.079 253.996 473.47 253.625C472.864 253.25 472.396 252.727 472.066 252.057C471.74 251.383 471.578 250.598 471.578 249.705C471.578 248.811 471.74 248.023 472.066 247.341C472.396 246.655 472.854 246.121 473.441 245.739C474.032 245.352 474.721 245.159 475.509 245.159C475.964 245.159 476.413 245.235 476.856 245.386C477.299 245.538 477.703 245.784 478.066 246.125C478.43 246.462 478.72 246.909 478.936 247.466C479.151 248.023 479.259 248.708 479.259 249.523V250.091H472.532V248.932H477.896C477.896 248.439 477.797 248 477.6 247.614C477.407 247.227 477.131 246.922 476.771 246.699C476.415 246.475 475.994 246.364 475.509 246.364C474.975 246.364 474.513 246.496 474.123 246.761C473.737 247.023 473.439 247.364 473.231 247.784C473.023 248.205 472.918 248.655 472.918 249.136V249.909C472.918 250.568 473.032 251.127 473.259 251.585C473.49 252.04 473.811 252.386 474.22 252.625C474.629 252.86 475.104 252.977 475.646 252.977C475.998 252.977 476.316 252.928 476.6 252.83C476.888 252.727 477.136 252.576 477.345 252.375C477.553 252.17 477.714 251.917 477.828 251.614L479.123 251.977C478.987 252.417 478.757 252.803 478.436 253.136C478.114 253.466 477.716 253.723 477.242 253.909C476.769 254.091 476.237 254.182 475.646 254.182ZM487.161 247.227L485.956 247.568C485.881 247.367 485.769 247.172 485.621 246.983C485.477 246.79 485.28 246.631 485.03 246.506C484.78 246.381 484.46 246.318 484.07 246.318C483.536 246.318 483.091 246.441 482.735 246.688C482.383 246.93 482.206 247.239 482.206 247.614C482.206 247.947 482.328 248.21 482.57 248.403C482.812 248.597 483.191 248.758 483.706 248.886L485.002 249.205C485.782 249.394 486.364 249.684 486.746 250.074C487.129 250.46 487.32 250.958 487.32 251.568C487.32 252.068 487.176 252.515 486.888 252.909C486.604 253.303 486.206 253.614 485.695 253.841C485.184 254.068 484.589 254.182 483.911 254.182C483.021 254.182 482.284 253.989 481.701 253.602C481.117 253.216 480.748 252.652 480.593 251.909L481.866 251.591C481.987 252.061 482.216 252.413 482.553 252.648C482.894 252.883 483.339 253 483.888 253C484.513 253 485.009 252.867 485.377 252.602C485.748 252.333 485.934 252.011 485.934 251.636C485.934 251.333 485.828 251.08 485.616 250.875C485.403 250.667 485.078 250.511 484.638 250.409L483.184 250.068C482.384 249.879 481.797 249.585 481.422 249.188C481.051 248.786 480.866 248.284 480.866 247.682C480.866 247.189 481.004 246.754 481.28 246.375C481.561 245.996 481.941 245.699 482.422 245.483C482.907 245.267 483.456 245.159 484.07 245.159C484.934 245.159 485.612 245.348 486.104 245.727C486.6 246.106 486.953 246.606 487.161 247.227Z" fill="#002159"/>
<path d="M435.053 272.119C434.374 272.119 433.767 272.011 433.233 271.795C432.702 271.577 432.284 271.281 431.98 270.909C431.679 270.534 431.528 270.111 431.528 269.639C431.528 269.278 431.615 268.947 431.788 268.646C431.962 268.345 432.196 268.095 432.491 267.896C432.79 267.695 433.122 267.565 433.489 267.509V267.44C433.009 267.352 432.615 267.129 432.308 266.771C432.004 266.413 431.852 265.994 431.852 265.514C431.852 265.06 431.99 264.655 432.266 264.3C432.544 263.945 432.923 263.665 433.403 263.46C433.886 263.256 434.436 263.153 435.053 263.153C435.669 263.153 436.217 263.256 436.697 263.46C437.18 263.665 437.56 263.945 437.835 264.3C438.114 264.655 438.253 265.06 438.253 265.514C438.253 265.997 438.098 266.418 437.788 266.776C437.482 267.131 437.091 267.352 436.616 267.44V267.509C436.98 267.565 437.31 267.695 437.605 267.896C437.903 268.095 438.139 268.345 438.312 268.646C438.489 268.947 438.577 269.278 438.577 269.639C438.577 270.111 438.425 270.534 438.121 270.909C437.817 271.281 437.399 271.577 436.868 271.795C436.339 272.011 435.734 272.119 435.053 272.119ZM435.053 270.624C435.311 270.624 435.538 270.575 435.734 270.479C435.93 270.379 436.084 270.241 436.195 270.065C436.308 269.889 436.365 269.69 436.365 269.469C436.365 269.241 436.308 269.04 436.195 268.864C436.081 268.687 435.925 268.55 435.726 268.45C435.53 268.348 435.305 268.297 435.053 268.297C434.803 268.297 434.578 268.348 434.379 268.45C434.18 268.55 434.024 268.687 433.911 268.864C433.797 269.04 433.74 269.241 433.74 269.469C433.74 269.69 433.795 269.889 433.906 270.065C434.02 270.239 434.175 270.375 434.371 270.474C434.57 270.574 434.797 270.624 435.053 270.624ZM435.053 266.81C435.274 266.81 435.47 266.764 435.641 266.673C435.814 266.582 435.949 266.456 436.045 266.294C436.145 266.132 436.195 265.949 436.195 265.744C436.195 265.54 436.145 265.359 436.045 265.203C435.949 265.047 435.815 264.925 435.645 264.837C435.474 264.746 435.277 264.7 435.053 264.7C434.831 264.7 434.634 264.746 434.46 264.837C434.287 264.925 434.152 265.047 434.055 265.203C433.959 265.359 433.911 265.54 433.911 265.744C433.911 265.949 433.959 266.132 434.055 266.294C434.155 266.453 434.291 266.58 434.464 266.673C434.638 266.764 434.834 266.81 435.053 266.81ZM442.854 272.119C442.217 272.119 441.652 272.004 441.158 271.774C440.663 271.544 440.273 271.227 439.986 270.824C439.702 270.42 439.554 269.957 439.543 269.435H441.588C441.605 269.756 441.736 270.014 441.98 270.21C442.224 270.403 442.516 270.5 442.854 270.5C443.118 270.5 443.352 270.442 443.557 270.325C443.761 270.209 443.922 270.045 444.038 269.835C444.155 269.622 444.212 269.378 444.209 269.102C444.212 268.821 444.153 268.575 444.034 268.365C443.918 268.155 443.756 267.991 443.548 267.875C443.344 267.756 443.108 267.696 442.841 267.696C442.588 267.693 442.348 267.749 442.121 267.862C441.896 267.976 441.726 268.131 441.609 268.327L439.747 267.977L440.126 263.273H445.726V264.973H441.861L441.661 267.031H441.712C441.857 266.79 442.09 266.591 442.411 266.435C442.734 266.276 443.102 266.196 443.514 266.196C444.037 266.196 444.503 266.318 444.912 266.562C445.324 266.804 445.648 267.139 445.884 267.568C446.122 267.997 446.242 268.489 446.242 269.043C446.242 269.642 446.099 270.173 445.815 270.636C445.534 271.099 445.139 271.463 444.631 271.727C444.125 271.989 443.533 272.119 442.854 272.119ZM448.911 263.273V264.244C448.911 264.514 448.857 264.787 448.749 265.062C448.644 265.335 448.506 265.591 448.336 265.83C448.165 266.068 447.985 266.27 447.795 266.435L446.908 265.949C447.039 265.733 447.155 265.49 447.258 265.22C447.36 264.947 447.411 264.624 447.411 264.249V263.273H448.911ZM451.037 263.273V264.244C451.037 264.514 450.983 264.787 450.875 265.062C450.77 265.335 450.633 265.591 450.462 265.83C450.292 266.068 450.111 266.27 449.921 266.435L449.035 265.949C449.165 265.733 449.282 265.49 449.384 265.22C449.486 264.947 449.537 264.624 449.537 264.249V263.273H451.037ZM456.359 272L454.51 265.455H456.082L457.233 270.057H457.292L458.469 265.455H460.024L461.2 270.031H461.264L462.398 265.455H463.974L462.121 272H460.514L459.287 267.577H459.197L457.97 272H456.359ZM464.811 272V265.455H466.354V272H464.811ZM465.587 264.526C465.343 264.526 465.132 264.445 464.956 264.283C464.78 264.118 464.692 263.92 464.692 263.69C464.692 263.457 464.78 263.26 464.956 263.098C465.132 262.933 465.343 262.851 465.587 262.851C465.834 262.851 466.044 262.933 466.218 263.098C466.394 263.26 466.482 263.457 466.482 263.69C466.482 263.92 466.394 264.118 466.218 264.283C466.044 264.445 465.834 264.526 465.587 264.526ZM470.129 272.115C469.615 272.115 469.155 271.983 468.749 271.719C468.342 271.455 468.021 271.071 467.785 270.568C467.55 270.065 467.432 269.455 467.432 268.736C467.432 268.009 467.551 267.395 467.79 266.895C468.031 266.392 468.357 266.013 468.766 265.757C469.175 265.499 469.631 265.369 470.134 265.369C470.517 265.369 470.832 265.435 471.08 265.565C471.327 265.693 471.523 265.848 471.668 266.03C471.812 266.209 471.925 266.378 472.004 266.537H472.068V263.273H473.615V272H472.098V270.969H472.004C471.925 271.128 471.81 271.297 471.659 271.476C471.509 271.652 471.31 271.803 471.062 271.928C470.815 272.053 470.504 272.115 470.129 272.115ZM470.56 270.849C470.886 270.849 471.165 270.761 471.395 270.585C471.625 270.406 471.8 270.158 471.919 269.839C472.038 269.521 472.098 269.151 472.098 268.727C472.098 268.304 472.038 267.936 471.919 267.624C471.803 267.311 471.629 267.068 471.399 266.895C471.172 266.722 470.892 266.635 470.56 266.635C470.216 266.635 469.929 266.724 469.699 266.903C469.469 267.082 469.295 267.33 469.179 267.645C469.062 267.96 469.004 268.321 469.004 268.727C469.004 269.136 469.062 269.501 469.179 269.822C469.298 270.141 469.473 270.392 469.703 270.577C469.936 270.759 470.222 270.849 470.56 270.849ZM477.917 272.128C477.26 272.128 476.694 271.991 476.216 271.719C475.742 271.443 475.377 271.054 475.121 270.551C474.865 270.045 474.738 269.45 474.738 268.766C474.738 268.092 474.865 267.501 475.121 266.993C475.38 266.482 475.74 266.084 476.204 265.8C476.667 265.513 477.211 265.369 477.836 265.369C478.239 265.369 478.62 265.435 478.978 265.565C479.338 265.693 479.657 265.892 479.932 266.162C480.211 266.432 480.429 266.776 480.588 267.193C480.748 267.608 480.827 268.102 480.827 268.676V269.149H475.462V268.109H479.348C479.346 267.814 479.282 267.551 479.157 267.321C479.032 267.088 478.857 266.905 478.632 266.771C478.411 266.638 478.152 266.571 477.857 266.571C477.542 266.571 477.265 266.648 477.026 266.801C476.787 266.952 476.601 267.151 476.468 267.398C476.337 267.642 476.27 267.911 476.267 268.203V269.111C476.267 269.491 476.337 269.818 476.476 270.091C476.615 270.361 476.81 270.568 477.06 270.713C477.31 270.855 477.603 270.926 477.938 270.926C478.162 270.926 478.365 270.895 478.547 270.832C478.729 270.767 478.887 270.672 479.02 270.547C479.154 270.422 479.255 270.267 479.323 270.082L480.763 270.244C480.672 270.625 480.499 270.957 480.243 271.241C479.99 271.523 479.667 271.741 479.272 271.898C478.877 272.051 478.425 272.128 477.917 272.128ZM488.191 262.864L485.379 273.312H484.028L486.84 262.864H488.191ZM495.559 263.273V272H493.453V265.241H493.402L491.451 266.435V264.611L493.603 263.273H495.559ZM501.283 263.273V272H499.178V265.241H499.127L497.175 266.435V264.611L499.327 263.273H501.283ZM503.716 272.124C503.409 272.124 503.147 272.016 502.928 271.8C502.712 271.584 502.605 271.322 502.608 271.016C502.605 270.714 502.712 270.457 502.928 270.244C503.147 270.028 503.409 269.92 503.716 269.92C504.006 269.92 504.262 270.028 504.483 270.244C504.708 270.457 504.821 270.714 504.824 271.016C504.821 271.22 504.767 271.406 504.662 271.574C504.56 271.741 504.425 271.875 504.257 271.974C504.093 272.074 503.912 272.124 503.716 272.124ZM505.939 272L509.459 265.028V264.973H505.343V263.273H511.641V264.986L508.108 272H505.939ZM514.311 263.273V264.244C514.311 264.514 514.257 264.787 514.149 265.062C514.043 265.335 513.906 265.591 513.735 265.83C513.565 266.068 513.384 266.27 513.194 266.435L512.308 265.949C512.438 265.733 512.555 265.49 512.657 265.22C512.759 264.947 512.811 264.624 512.811 264.249V263.273H514.311ZM516.437 263.273V264.244C516.437 264.514 516.383 264.787 516.275 265.062C516.17 265.335 516.032 265.591 515.862 265.83C515.691 266.068 515.511 266.27 515.32 266.435L514.434 265.949C514.565 265.733 514.681 265.49 514.784 265.22C514.886 264.947 514.937 264.624 514.937 264.249V263.273H516.437ZM523.676 265.455V266.648H519.914V265.455H523.676ZM520.843 263.886H522.385V270.031C522.385 270.239 522.416 270.398 522.479 270.509C522.544 270.616 522.63 270.69 522.735 270.73C522.84 270.77 522.956 270.79 523.084 270.79C523.181 270.79 523.269 270.783 523.348 270.768C523.431 270.754 523.493 270.741 523.536 270.73L523.796 271.936C523.713 271.964 523.595 271.996 523.442 272.03C523.291 272.064 523.107 272.084 522.888 272.089C522.502 272.101 522.154 272.043 521.844 271.915C521.534 271.784 521.289 271.582 521.107 271.31C520.928 271.037 520.84 270.696 520.843 270.287V263.886ZM526.61 272.132C526.195 272.132 525.822 272.058 525.489 271.911C525.16 271.76 524.898 271.538 524.705 271.246C524.515 270.953 524.42 270.592 524.42 270.163C524.42 269.794 524.488 269.489 524.624 269.247C524.761 269.006 524.947 268.812 525.182 268.668C525.418 268.523 525.684 268.413 525.979 268.339C526.278 268.263 526.586 268.207 526.904 268.173C527.288 268.134 527.599 268.098 527.837 268.067C528.076 268.033 528.249 267.982 528.357 267.913C528.468 267.842 528.523 267.733 528.523 267.585V267.56C528.523 267.239 528.428 266.99 528.238 266.814C528.048 266.638 527.773 266.55 527.415 266.55C527.038 266.55 526.738 266.632 526.516 266.797C526.298 266.962 526.15 267.156 526.073 267.381L524.633 267.176C524.746 266.778 524.934 266.446 525.195 266.179C525.457 265.909 525.776 265.707 526.154 265.574C526.532 265.438 526.95 265.369 527.407 265.369C527.722 265.369 528.036 265.406 528.349 265.48C528.661 265.554 528.947 265.676 529.205 265.847C529.464 266.014 529.671 266.243 529.827 266.533C529.986 266.822 530.066 267.185 530.066 267.619V272H528.583V271.101H528.532C528.438 271.283 528.306 271.453 528.136 271.612C527.968 271.768 527.756 271.895 527.501 271.991C527.248 272.085 526.951 272.132 526.61 272.132ZM527.011 270.999C527.32 270.999 527.589 270.937 527.816 270.815C528.043 270.69 528.218 270.526 528.34 270.321C528.465 270.116 528.528 269.893 528.528 269.652V268.881C528.479 268.92 528.397 268.957 528.28 268.991C528.167 269.026 528.039 269.055 527.897 269.081C527.755 269.107 527.614 269.129 527.475 269.149C527.336 269.169 527.215 269.186 527.113 269.2C526.883 269.232 526.677 269.283 526.495 269.354C526.313 269.425 526.17 269.524 526.065 269.652C525.959 269.777 525.907 269.939 525.907 270.138C525.907 270.422 526.011 270.636 526.218 270.781C526.425 270.926 526.69 270.999 527.011 270.999ZM532.92 263.273V272H531.377V263.273H532.92ZM535.809 263.273V272H534.266V263.273H535.809Z" fill="#307FE2"/>
<defs>
<filter id="filter0_f_2132_26229" x="-6.16992" y="202.727" width="317.088" height="186.141" filterUnits="userSpaceOnUse" color-interpolation-filters="sRGB">
<feFlood flood-opacity="0" result="BackgroundImageFix"/>
<feBlend mode="normal" in="SourceGraphic" in2="BackgroundImageFix" result="shape"/>
<feGaussianBlur stdDeviation="7" result="effect1_foregroundBlur_2132_26229"/>
</filter>
<filter id="filter1_f_2132_26229" x="17.4609" y="218.668" width="269.914" height="153.798" filterUnits="userSpaceOnUse" color-interpolation-filters="sRGB">
<feFlood flood-opacity="0" result="BackgroundImageFix"/>
<feBlend mode="normal" in="SourceGraphic" in2="BackgroundImageFix" result="shape"/>
<feGaussianBlur stdDeviation="4" result="effect1_foregroundBlur_2132_26229"/>
</filter>
<filter id="filter2_f_2132_26229" x="144.477" y="48.4292" width="40.8047" height="43.2303" filterUnits="userSpaceOnUse" color-interpolation-filters="sRGB">
<feFlood flood-opacity="0" result="BackgroundImageFix"/>
<feBlend mode="normal" in="SourceGraphic" in2="BackgroundImageFix" result="shape"/>
<feGaussianBlur stdDeviation="1" result="effect1_foregroundBlur_2132_26229"/>
</filter>
<filter id="filter3_f_2132_26229" x="169.961" y="62.0095" width="130.957" height="74.7039" filterUnits="userSpaceOnUse" color-interpolation-filters="sRGB">
<feFlood flood-opacity="0" result="BackgroundImageFix"/>
<feBlend mode="normal" in="SourceGraphic" in2="BackgroundImageFix" result="shape"/>
<feGaussianBlur stdDeviation="2" result="effect1_foregroundBlur_2132_26229"/>
</filter>
<filter id="filter4_d_2132_26229" x="38.8555" y="115.165" width="147.098" height="240.546" filterUnits="userSpaceOnUse" color-interpolation-filters="sRGB">
<feFlood flood-opacity="0" result="BackgroundImageFix"/>
<feColorMatrix in="SourceAlpha" type="matrix" values="0 0 0 0 0 0 0 0 0 0 0 0 0 0 0 0 0 0 127 0" result="hardAlpha"/>
<feOffset dx="1"/>
<feGaussianBlur stdDeviation="0.5"/>
<feColorMatrix type="matrix" values="0 0 0 0 0 0 0 0 0 0 0 0 0 0 0 0 0 0 0.4 0"/>
<feBlend mode="normal" in2="BackgroundImageFix" result="effect1_dropShadow_2132_26229"/>
<feBlend mode="normal" in="SourceGraphic" in2="effect1_dropShadow_2132_26229" result="shape"/>
</filter>
<linearGradient id="paint0_linear_2132_26229" x1="196.02" y1="66.4616" x2="136.918" y2="66.4616" gradientUnits="userSpaceOnUse">
<stop stop-color="#D0D2D3"/>
<stop offset="0.94" stop-color="#BBBDBF"/>
</linearGradient>
<linearGradient id="paint1_linear_2132_26229" x1="170.559" y1="322.99" x2="25.4611" y2="322.99" gradientUnits="userSpaceOnUse">
<stop stop-color="#D0D2D3"/>
<stop offset="0.94" stop-color="#BBBDBF"/>
</linearGradient>
<linearGradient id="paint2_linear_2132_26229" x1="157.875" y1="281.02" x2="129.964" y2="335.324" gradientUnits="userSpaceOnUse">
<stop stop-color="#808080"/>
<stop offset="0.74" stop-color="white"/>
</linearGradient>
<linearGradient id="paint3_linear_2132_26229" x1="164.699" y1="241.316" x2="128.446" y2="302.689" gradientUnits="userSpaceOnUse">
<stop offset="0.43" stop-color="#808080"/>
<stop offset="0.97" stop-color="white"/>
</linearGradient>
<linearGradient id="paint4_linear_2132_26229" x1="163.489" y1="220.915" x2="127.03" y2="286.071" gradientUnits="userSpaceOnUse">
<stop offset="0.43" stop-color="#808080"/>
<stop offset="0.96" stop-color="white"/>
</linearGradient>
<linearGradient id="paint5_linear_2132_26229" x1="162.928" y1="201.433" x2="127.641" y2="266.107" gradientUnits="userSpaceOnUse">
<stop offset="0.43" stop-color="#808080"/>
<stop offset="0.94" stop-color="white"/>
</linearGradient>
<linearGradient id="paint6_linear_2132_26229" x1="163.526" y1="182.553" x2="126.714" y2="248.238" gradientUnits="userSpaceOnUse">
<stop offset="0.43" stop-color="#808080"/>
<stop offset="0.92" stop-color="white"/>
</linearGradient>
<linearGradient id="paint7_linear_2132_26229" x1="164.699" y1="164.555" x2="125.73" y2="230.525" gradientUnits="userSpaceOnUse">
<stop offset="0.43" stop-color="#808080"/>
<stop offset="0.93" stop-color="white"/>
</linearGradient>
<linearGradient id="paint8_linear_2132_26229" x1="164.699" y1="145.367" x2="126.701" y2="209.687" gradientUnits="userSpaceOnUse">
<stop offset="0.43" stop-color="#808080"/>
<stop offset="0.93" stop-color="white"/>
</linearGradient>
<linearGradient id="paint9_linear_2132_26229" x1="164.699" y1="126.179" x2="127.116" y2="189.802" gradientUnits="userSpaceOnUse">
<stop offset="0.75" stop-color="#808080"/>
<stop offset="0.81" stop-color="#A9A9A9"/>
<stop offset="0.86" stop-color="#CECECE"/>
<stop offset="0.92" stop-color="#E9E9E9"/>
<stop offset="0.96" stop-color="#F9F9F9"/>
<stop offset="1" stop-color="white"/>
</linearGradient>
<linearGradient id="paint10_linear_2132_26229" x1="183.953" y1="235.442" x2="38.8557" y2="235.442" gradientUnits="userSpaceOnUse">
<stop stop-color="#D0D2D3"/>
<stop offset="0.94" stop-color="#BBBDBF"/>
</linearGradient>
<linearGradient id="paint11_linear_2132_26229" x1="334" y1="238.655" x2="170.552" y2="238.655" gradientUnits="userSpaceOnUse">
<stop stop-color="#D0D2D3"/>
<stop offset="0.94" stop-color="#BBBDBF"/>
</linearGradient>
<linearGradient id="paint12_linear_2132_26229" x1="105.582" y1="145.417" x2="149.831" y2="146.048" gradientUnits="userSpaceOnUse">
<stop stop-color="#D0D2D3"/>
<stop offset="0.94" stop-color="#BBBDBF"/>
</linearGradient>
<linearGradient id="paint13_linear_2132_26229" x1="154.764" y1="118.561" x2="197.518" y2="119.176" gradientUnits="userSpaceOnUse">
<stop stop-color="#D0D2D3"/>
<stop offset="0.94" stop-color="#BBBDBF"/>
</linearGradient>
<linearGradient id="paint14_linear_2132_26229" x1="110.725" y1="148.272" x2="154.974" y2="148.903" gradientUnits="userSpaceOnUse">
<stop stop-color="#D0D2D3"/>
<stop offset="0.94" stop-color="#BBBDBF"/>
</linearGradient>
<linearGradient id="paint15_linear_2132_26229" x1="159.907" y1="121.416" x2="202.661" y2="122.031" gradientUnits="userSpaceOnUse">
<stop stop-color="#D0D2D3"/>
<stop offset="0.94" stop-color="#BBBDBF"/>
</linearGradient>
<linearGradient id="paint16_linear_2132_26229" x1="128.887" y1="144.679" x2="221.691" y2="146.003" gradientUnits="userSpaceOnUse">
<stop stop-color="#D0D2D3"/>
<stop offset="0.94" stop-color="#BBBDBF"/>
</linearGradient>
<linearGradient id="paint17_linear_2132_26229" x1="157.096" y1="160.295" x2="249.9" y2="161.619" gradientUnits="userSpaceOnUse">
<stop stop-color="#D0D2D3"/>
<stop offset="0.94" stop-color="#BBBDBF"/>
</linearGradient>
<linearGradient id="paint18_linear_2132_26229" x1="143.844" y1="152.964" x2="236.648" y2="154.288" gradientUnits="userSpaceOnUse">
<stop stop-color="#D0D2D3"/>
<stop offset="0.94" stop-color="#BBBDBF"/>
</linearGradient>
<linearGradient id="paint19_linear_2132_26229" x1="169.094" y1="166.915" x2="261.898" y2="168.24" gradientUnits="userSpaceOnUse">
<stop stop-color="#D0D2D3"/>
<stop offset="0.94" stop-color="#BBBDBF"/>
</linearGradient>
<linearGradient id="paint20_linear_2132_26229" x1="44.5963" y1="97.9736" x2="137.4" y2="99.2977" gradientUnits="userSpaceOnUse">
<stop stop-color="#D0D2D3"/>
<stop offset="0.94" stop-color="#BBBDBF"/>
</linearGradient>
<linearGradient id="paint21_linear_2132_26229" x1="73.0299" y1="113.697" x2="165.833" y2="115.021" gradientUnits="userSpaceOnUse">
<stop stop-color="#D0D2D3"/>
<stop offset="0.94" stop-color="#BBBDBF"/>
</linearGradient>
<linearGradient id="paint22_linear_2132_26229" x1="59.733" y1="106.352" x2="152.537" y2="107.676" gradientUnits="userSpaceOnUse">
<stop stop-color="#D0D2D3"/>
<stop offset="0.94" stop-color="#BBBDBF"/>
</linearGradient>
<linearGradient id="paint23_linear_2132_26229" x1="85.8795" y1="120.856" x2="178.683" y2="122.18" gradientUnits="userSpaceOnUse">
<stop stop-color="#D0D2D3"/>
<stop offset="0.94" stop-color="#BBBDBF"/>
</linearGradient>
<clipPath id="clip0_2132_26229">
<rect width="326.17" height="344.868" fill="white" transform="matrix(-1 0 0 1 334 30)"/>
</clipPath>
<clipPath id="clip1_2132_26229">
<rect width="125.35" height="47.37" fill="white" transform="translate(294 52)"/>
</clipPath>
<clipPath id="clip2_2132_26229">
<rect width="129" height="9" fill="white" transform="translate(290 249)"/>
</clipPath>
</defs>
</svg>
