<svg width="246" height="238" viewBox="0 0 246 238" fill="none" xmlns="http://www.w3.org/2000/svg">
<path d="M187.307 219.739H72.7535C67.7249 219.739 63.6484 223.827 63.6484 228.87C63.6484 233.912 67.7249 238 72.7535 238H187.307C192.335 238 196.412 233.912 196.412 228.87C196.412 223.827 192.335 219.739 187.307 219.739Z" fill="#307FE2"/>
<path d="M238.106 49.5423H21.9362C17.5866 49.5423 14.0605 53.0817 14.0605 57.4477V185.471C14.0605 189.837 17.5866 193.376 21.9362 193.376H238.106C242.456 193.376 245.982 189.837 245.982 185.471V57.4477C245.982 53.0817 242.456 49.5423 238.106 49.5423Z" fill="#307FE2"/>
<path d="M230.623 61.4003H29.4377C27.0661 61.4003 25.1436 63.3301 25.1436 65.7107V177.19C25.1436 179.57 27.0661 181.5 29.4377 181.5H230.623C232.994 181.5 234.917 179.57 234.917 177.19V65.7107C234.917 63.3301 232.994 61.4003 230.623 61.4003Z" fill="white"/>
<path d="M169.436 193.376H90.6436V219.739H169.436V193.376Z" fill="#2163B3"/>
<path d="M131.999 72.0957H103.668C101.513 72.0957 99.7656 73.8494 99.7656 76.0126V114.305C99.7656 116.468 101.513 118.222 103.668 118.222H131.999C134.154 118.222 135.901 116.468 135.901 114.305V76.0126C135.901 73.8494 134.154 72.0957 131.999 72.0957Z" fill="#CCD8E5"/>
<path d="M175.136 72.0957H146.806C144.65 72.0957 142.903 73.8494 142.903 76.0126V114.305C142.903 116.468 144.65 118.222 146.806 118.222H175.136C177.292 118.222 179.039 116.468 179.039 114.305V76.0126C179.039 73.8494 177.292 72.0957 175.136 72.0957Z" fill="#CCD8E5"/>
<path d="M218.257 72.0957H189.926C187.771 72.0957 186.023 73.8494 186.023 76.0126V114.305C186.023 116.468 187.771 118.222 189.926 118.222H218.257C220.412 118.222 222.159 116.468 222.159 114.305V76.0126C222.159 73.8494 220.412 72.0957 218.257 72.0957Z" fill="#CCD8E5"/>
<path d="M131.999 125.412H103.668C101.513 125.412 99.7656 127.166 99.7656 129.329V167.621C99.7656 169.784 101.513 171.538 103.668 171.538H131.999C134.154 171.538 135.901 169.784 135.901 167.621V129.329C135.901 127.166 134.154 125.412 131.999 125.412Z" fill="#CCD8E5"/>
<path d="M175.136 125.412H146.806C144.65 125.412 142.903 127.166 142.903 129.329V167.621C142.903 169.784 144.65 171.538 146.806 171.538H175.136C177.292 171.538 179.039 169.784 179.039 167.621V129.329C179.039 127.166 177.292 125.412 175.136 125.412Z" fill="#CCD8E5"/>
<path d="M218.257 125.412H189.926C187.771 125.412 186.023 127.166 186.023 129.329V167.621C186.023 169.784 187.771 171.538 189.926 171.538H218.257C220.412 171.538 222.159 169.784 222.159 167.621V129.329C222.159 127.166 220.412 125.412 218.257 125.412Z" fill="#CCD8E5"/>
<path d="M29.4377 61.4003H87.1687V181.518H29.4377C27.0679 181.518 25.1436 179.587 25.1436 177.208V65.7107C25.1436 63.3319 27.0679 61.4003 29.4377 61.4003Z" fill="#CCD8E5"/>
<path d="M75.1947 109.244H5.70375C2.95975 109.244 0.803748 106.901 1.01757 104.164L6.57684 29.6181C6.75502 27.1499 8.80411 25.2541 11.263 25.2541H69.6354C72.0943 25.2541 74.1434 27.1678 74.3216 29.6181L79.8808 104.182C80.0768 106.918 77.9208 109.261 75.1947 109.261V109.244Z" fill="#092649"/>
<path d="M69.493 109.244H11.4057C9.12498 109.244 7.30752 106.901 7.4857 104.164L12.1541 29.6181C12.3144 27.1499 14.025 25.2541 16.0741 25.2541H64.8424C66.8915 25.2541 68.6021 27.1678 68.7624 29.6181L73.413 104.182C73.5912 106.918 71.7737 109.261 69.493 109.261V109.244Z" fill="#0C3464"/>
<path d="M79.3819 97.2425C78.5979 98.7449 77.0299 99.8001 75.2124 99.8001H5.70369C3.86841 99.8001 2.31823 98.7627 1.53423 97.2425L0.999687 104.164C0.803687 106.901 2.95969 109.244 5.68587 109.244H75.1946C77.9386 109.244 80.0946 106.901 79.8808 104.164L79.3641 97.2425H79.3819Z" fill="#092649"/>
<path d="M24.9648 42.1021C27.366 42.1021 29.3125 40.1482 29.3125 37.738C29.3125 35.3279 27.366 33.374 24.9648 33.374C22.5637 33.374 20.6172 35.3279 20.6172 37.738C20.6172 40.1482 22.5637 42.1021 24.9648 42.1021Z" fill="#092649"/>
<path d="M55.9512 42.1021C58.3523 42.1021 60.2988 40.1482 60.2988 37.738C60.2988 35.3279 58.3523 33.374 55.9512 33.374C53.55 33.374 51.6035 35.3279 51.6035 37.738C51.6035 40.1482 53.55 42.1021 55.9512 42.1021Z" fill="#092649"/>
<path d="M55.9509 40.0989C54.6502 40.0989 53.5989 39.0437 53.5989 37.738V17.9032C53.5989 10.6239 47.7011 4.72173 40.4669 4.72173C33.2327 4.72173 27.3349 10.6418 27.3349 17.9032V37.738C27.3349 39.0437 26.2836 40.0989 24.9829 40.0989C23.6822 40.0989 22.6309 39.0437 22.6309 37.738V17.9032C22.6131 8.03051 30.6134 0 40.4491 0C50.2847 0 58.2851 8.03051 58.2851 17.9032V37.738C58.2851 39.0437 57.2338 40.0989 55.9331 40.0989H55.9509Z" fill="#307FE2"/>
<path d="M40.4488 2.36086C31.8961 2.36086 24.9648 9.31825 24.9648 17.9032V40.0989C26.2656 40.0989 27.3168 39.0437 27.3168 37.738V17.9032C27.3168 10.6239 33.2147 4.72173 40.4488 4.72173C47.683 4.72173 53.5808 10.6418 53.5808 17.9032V37.738C53.5808 39.0437 54.6321 40.0989 55.9328 40.0989V17.9032C55.9328 9.31825 49.0016 2.36086 40.4488 2.36086Z" fill="#2163B3"/>
<path d="M2.08691 91.6265H78.8298L78.6694 87.7812H2.24728L2.08691 91.6265Z" fill="#092649"/>
<path d="M50.7765 57.6164C50.5441 57.3288 50.2024 57.1507 49.8334 57.1507H31.7099L30.9308 53.9178C30.7942 53.3836 30.3158 53 29.7554 53H26.2018C25.5321 53 24.999 53.5342 24.999 54.2055C24.999 54.8767 25.5321 55.411 26.2018 55.411H28.7987L29.5504 58.5342C29.5504 58.6027 29.5777 58.6712 29.6051 58.726L32.0516 68.863C32.1883 69.3973 32.6667 69.7808 33.227 69.7808H47.3322C47.4142 69.7808 47.4825 69.7808 47.5509 69.7534C47.5782 69.7534 47.6056 69.7534 47.6192 69.7397C47.6602 69.7397 47.7149 69.7123 47.7559 69.6986C47.7832 69.6986 47.8106 69.6712 47.8379 69.6575C47.8789 69.6438 47.9199 69.6164 47.9472 69.589C47.9746 69.5753 48.0019 69.5616 48.0156 69.5479C48.0566 69.5205 48.0839 69.4932 48.1249 69.4658C48.1386 69.4521 48.1659 69.4247 48.1796 69.411C48.2206 69.3699 48.2479 69.3288 48.2753 69.2877C48.2753 69.274 48.3026 69.2603 48.3163 69.2466C48.3573 69.1918 48.3846 69.1233 48.4256 69.0548C48.4256 69.0411 48.4256 69.0137 48.4393 69C48.453 68.9589 48.4803 68.9041 48.4803 68.863L50.9678 58.6301C51.0498 58.274 50.9678 57.8904 50.7491 57.6027L50.7765 57.6164ZM46.4028 67.3836H34.1838L32.2976 59.5616H48.3026L46.4028 67.3836ZM37.054 73.137C37.054 74.1644 36.2203 75 35.1952 75C34.1701 75 33.3364 74.1644 33.3364 73.137C33.3364 72.1096 34.1701 71.274 35.1952 71.274C36.2203 71.274 37.054 72.1096 37.054 73.137ZM48.0293 73.137C48.0293 74.1644 47.1955 75 46.1704 75C45.1454 75 44.3116 74.1644 44.3116 73.137C44.3116 72.1096 45.1454 71.274 46.1704 71.274C47.1955 71.274 48.0293 72.1096 48.0293 73.137Z" fill="#ECF1F9"/>
<path d="M211.754 83.3098V106.579C211.754 106.847 211.54 107.062 211.273 107.062H196.003C195.735 107.062 195.521 106.847 195.521 106.579V83.3098C195.521 83.3098 195.557 83.3098 195.575 83.3098C195.7 83.2741 195.842 83.2562 195.985 83.2562H211.308C211.451 83.2562 211.576 83.2741 211.718 83.3098C211.736 83.3098 211.754 83.3098 211.772 83.3098H211.754Z" fill="#2163B3"/>
<path d="M219.077 88.3893L212.128 83.5066C212.003 83.4171 211.879 83.3635 211.754 83.3098V91.1436L215.371 93.6833C215.585 93.8443 215.888 93.7906 216.048 93.5581L219.184 89.051C219.344 88.8364 219.291 88.5323 219.059 88.3714L219.077 88.3893Z" fill="#307FE2"/>
<path d="M216.921 92.1094L212.787 89.212L211.754 88.4787V91.1615L215.371 93.7012C215.585 93.8622 215.888 93.8085 216.048 93.576L217.028 92.1631C217.028 92.1631 216.957 92.1273 216.921 92.1094Z" fill="#2163B3"/>
<path d="M188.199 88.3893L195.148 83.5066C195.273 83.4171 195.398 83.3635 195.522 83.3098V91.1436L191.905 93.6833C191.691 93.8443 191.389 93.7906 191.228 93.5581L188.092 89.051C187.932 88.8364 187.985 88.5323 188.217 88.3714L188.199 88.3893Z" fill="#307FE2"/>
<path d="M190.355 92.1094L194.489 89.212L195.522 88.4787V91.1615L191.905 93.7012C191.691 93.8622 191.388 93.8085 191.228 93.576L190.248 92.1631C190.248 92.1631 190.319 92.1273 190.355 92.1094Z" fill="#2163B3"/>
<path d="M209.313 106.579V83.2383H197.963V106.579C197.963 106.847 198.105 107.062 198.301 107.062H208.975C209.153 107.062 209.313 106.847 209.313 106.579Z" fill="#307FE2"/>
<path d="M207.709 83.2383C207.709 85.4918 205.892 87.3161 203.647 87.3161C201.401 87.3161 199.584 85.4918 199.584 83.2383H207.727H207.709Z" fill="#124C92"/>
<path d="M199.566 83.2383C199.566 83.4708 199.584 83.6854 199.62 83.9H207.656C207.691 83.6854 207.709 83.4708 207.709 83.2383H199.566Z" fill="#2163B3"/>
<path d="M169.079 83.3098V106.579C169.079 106.847 168.865 107.062 168.598 107.062H153.328C153.06 107.062 152.847 106.847 152.847 106.579V83.3098C152.847 83.3098 152.882 83.3098 152.9 83.3098C153.025 83.2741 153.167 83.2562 153.31 83.2562H168.634C168.776 83.2562 168.901 83.2741 169.043 83.3098C169.061 83.3098 169.079 83.3098 169.097 83.3098H169.079Z" fill="#092649"/>
<path d="M176.402 88.3893L169.453 83.5066C169.329 83.4171 169.204 83.3635 169.079 83.3098V91.1436L172.696 93.6833C172.91 93.8443 173.213 93.7906 173.373 93.5581L176.509 89.051C176.67 88.8364 176.616 88.5323 176.385 88.3714L176.402 88.3893Z" fill="#0C3464"/>
<path d="M174.264 92.1094L170.13 89.212L169.097 88.4787V91.1615L172.714 93.7012C172.928 93.8622 173.231 93.8085 173.391 93.576L174.371 92.1631C174.371 92.1631 174.3 92.1273 174.264 92.1094Z" fill="#092649"/>
<path d="M145.541 88.3893L152.49 83.5066C152.615 83.4171 152.739 83.3635 152.864 83.3098V91.1436L149.247 93.6833C149.033 93.8443 148.73 93.7906 148.57 93.5581L145.434 89.051C145.274 88.8364 145.327 88.5323 145.559 88.3714L145.541 88.3893Z" fill="#0C3464"/>
<path d="M147.679 92.1094L151.813 89.212L152.846 88.4787V91.1615L149.229 93.7012C149.016 93.8622 148.713 93.8085 148.552 93.576L147.572 92.1631C147.572 92.1631 147.644 92.1273 147.679 92.1094Z" fill="#092649"/>
<path d="M166.638 106.579V83.2383H155.288V106.579C155.288 106.847 155.431 107.062 155.627 107.062H166.3C166.478 107.062 166.638 106.847 166.638 106.579Z" fill="#0C3464"/>
<path d="M165.034 83.2383C165.034 85.4918 163.217 87.3161 160.972 87.3161C158.727 87.3161 156.909 85.4918 156.909 83.2383H165.052H165.034Z" fill="#092649"/>
<path d="M156.909 83.2383C156.909 83.4708 156.927 83.6854 156.963 83.9H164.999C165.034 83.6854 165.052 83.4708 165.052 83.2383H156.909Z" fill="#092649"/>
<path d="M163.145 145.908C163.145 145.908 161.898 146.803 160.972 146.785C160.027 146.785 158.798 145.908 158.798 145.908V149.843C160.009 148.627 161.952 148.627 163.145 149.843V145.908Z" fill="white"/>
<path d="M160.972 146.785C160.027 146.785 158.798 145.908 158.798 145.908V146.177C158.798 146.177 160.045 147.035 160.972 147.053C161.898 147.053 163.145 146.177 163.145 146.177V145.908C163.145 145.908 161.898 146.803 160.972 146.785Z" fill="white"/>
<path d="M158.798 149.378V149.843C160.009 148.627 161.952 148.627 163.145 149.843V149.378C161.934 148.162 159.992 148.162 158.798 149.378Z" fill="white"/>
<path d="M148.767 146.177L145.916 146.445C145.72 146.463 145.577 146.624 145.577 146.821V148.895C145.577 149.056 145.684 149.199 145.827 149.253L147.894 150.004L148.767 146.159V146.177Z" fill="white"/>
<path d="M147.43 150.773C149.016 156.979 151.261 155.728 155.164 155.495C159.066 155.262 160.598 147.84 159.101 146.785C156.108 144.692 145.649 143.78 147.43 150.773Z" fill="white"/>
<path d="M147.43 150.112C149.016 156.318 151.261 155.066 155.164 154.833C159.066 154.601 160.598 147.178 159.101 146.123C156.108 144.03 145.649 143.118 147.43 150.112Z" fill="white"/>
<path d="M148.767 145.712L145.916 145.98C145.72 145.998 145.577 146.159 145.577 146.356V148.43C145.577 148.591 145.684 148.734 145.827 148.788L147.894 149.539L148.767 145.694V145.712Z" fill="white"/>
<path d="M145.933 146.195L148.731 145.926L148.784 145.712L145.933 145.98C145.737 145.998 145.595 146.159 145.595 146.356V146.57C145.595 146.373 145.737 146.213 145.933 146.195Z" fill="white"/>
<path d="M147.074 147.214H145.595V146.606H147.074C147.234 146.606 147.377 146.749 147.377 146.91C147.377 147.071 147.234 147.214 147.074 147.214Z" fill="white"/>
<path d="M147.074 148.234H145.595V147.625H147.074C147.234 147.625 147.377 147.769 147.377 147.929C147.377 148.09 147.234 148.234 147.074 148.234Z" fill="white"/>
<path d="M148.393 149.951C149.693 155.048 151.546 154.028 154.736 153.832C157.943 153.635 159.19 147.536 157.961 146.678C155.502 144.961 146.914 144.209 148.393 149.951Z" fill="#0C3464"/>
<path d="M154.736 153.224C151.529 153.42 149.693 154.44 148.393 149.342C148.304 149.021 148.268 148.716 148.232 148.43C148.197 148.877 148.232 149.378 148.393 149.951C149.693 155.048 151.547 154.028 154.736 153.832C157.248 153.689 158.549 149.915 158.424 147.876C158.3 149.968 157.017 153.08 154.736 153.224Z" fill="#0C3464"/>
<path d="M157.979 146.964C158.264 147.16 158.424 147.661 158.442 148.305C158.46 147.518 158.317 146.91 157.979 146.678C155.68 145.068 148.072 144.317 148.232 148.877C148.392 144.639 155.733 145.408 157.979 146.964Z" fill="#0C3464"/>
<path d="M159.101 146.373C159.457 146.624 159.653 147.268 159.671 148.073C159.689 147.143 159.511 146.409 159.101 146.123C156.321 144.174 147.092 143.261 147.234 148.752C147.359 143.53 156.357 144.46 159.101 146.373Z" fill="white"/>
<path d="M173.178 146.177L176.029 146.445C176.225 146.463 176.367 146.624 176.367 146.821V148.895C176.367 149.056 176.26 149.199 176.118 149.253L174.051 150.004L173.178 146.159V146.177Z" fill="white"/>
<path d="M174.497 150.773C172.911 156.979 170.666 155.727 166.764 155.495C162.861 155.262 161.329 147.84 162.826 146.785C165.819 144.692 176.279 143.78 174.497 150.773Z" fill="white"/>
<path d="M174.496 150.112C172.91 156.318 170.665 155.066 166.763 154.833C162.86 154.601 161.328 147.178 162.825 146.123C165.818 144.03 176.278 143.118 174.496 150.112Z" fill="white"/>
<path d="M173.178 145.712L176.029 145.98C176.225 145.998 176.367 146.159 176.367 146.356V148.43C176.367 148.591 176.26 148.734 176.118 148.788L174.051 149.539L173.178 145.694V145.712Z" fill="white"/>
<path d="M176.011 146.195L173.214 145.926L173.16 145.712L176.011 145.98C176.207 145.998 176.35 146.159 176.35 146.356V146.57C176.35 146.373 176.207 146.213 176.011 146.195Z" fill="white"/>
<path d="M174.87 147.214H176.349V146.606H174.87C174.71 146.606 174.567 146.749 174.567 146.91C174.567 147.071 174.71 147.214 174.87 147.214Z" fill="white"/>
<path d="M174.87 148.234H176.349V147.625H174.87C174.71 147.625 174.567 147.769 174.567 147.929C174.567 148.09 174.71 148.234 174.87 148.234Z" fill="white"/>
<path d="M173.552 149.951C172.251 155.048 170.398 154.028 167.209 153.832C164.001 153.635 162.754 147.536 163.984 146.678C166.442 144.961 175.031 144.209 173.552 149.951Z" fill="#0C3464"/>
<path d="M167.191 153.224C170.398 153.42 172.233 154.44 173.534 149.342C173.623 149.021 173.659 148.716 173.694 148.43C173.73 148.877 173.694 149.378 173.534 149.951C172.233 155.048 170.38 154.028 167.191 153.832C164.678 153.689 163.378 149.915 163.502 147.876C163.627 149.968 164.91 153.08 167.191 153.224Z" fill="#0C3464"/>
<path d="M163.966 146.964C163.681 147.16 163.52 147.661 163.502 148.305C163.485 147.518 163.627 146.91 163.966 146.678C166.264 145.068 173.873 144.317 173.712 148.877C173.552 144.639 166.211 145.408 163.966 146.964Z" fill="#0C3464"/>
<path d="M162.825 146.373C162.469 146.624 162.273 147.268 162.255 148.073C162.237 147.143 162.415 146.409 162.825 146.123C165.605 144.174 174.835 143.261 174.692 148.752C174.567 143.53 165.569 144.46 162.825 146.373Z" fill="white"/>
<path d="M121.95 140.883L118.387 141.383C118.03 141.437 117.656 141.437 117.3 141.383L113.736 140.883C111.331 140.543 109.175 142.439 109.175 144.871V152.633H126.53V144.871C126.53 142.421 124.374 140.543 121.968 140.883H121.95Z" fill="#2163B3"/>
<path d="M121.433 140.954L118.404 141.366C118.048 141.419 117.674 141.419 117.317 141.366L114.288 140.954C113.166 141.383 112.328 142.957 112.328 144.871V152.633H123.429V144.871C123.429 142.939 122.574 141.366 121.469 140.954H121.433Z" fill="#307FE2"/>
<path d="M132.641 154.404H103.045C102.546 154.404 102.154 154.011 102.154 153.51C102.154 153.009 102.546 152.615 103.045 152.615H132.641C133.14 152.615 133.532 153.009 133.532 153.51C133.532 154.011 133.14 154.404 132.641 154.404Z" fill="#307FE2"/>
<path d="M132.641 153.528H103.045C102.724 153.528 102.422 153.349 102.279 153.08C102.208 153.206 102.154 153.367 102.154 153.528C102.154 154.028 102.546 154.422 103.045 154.422H132.641C133.14 154.422 133.532 154.028 133.532 153.528C133.532 153.367 133.496 153.206 133.407 153.08C133.247 153.349 132.962 153.528 132.641 153.528Z" fill="#2163B3"/>
<path d="M126.53 148.538H109.175V152.615H126.53V148.538Z" fill="white"/>
<path d="M123.394 148.538H112.293V152.615H123.394V148.538Z" fill="white"/>
<path d="M208.76 140.793L205.196 141.294C204.84 141.348 204.466 141.348 204.109 141.294L200.546 140.793C198.14 140.453 195.984 142.349 195.984 144.782V152.544H213.339V144.782C213.339 142.331 211.183 140.453 208.778 140.793H208.76Z" fill="#092649"/>
<path d="M208.225 140.865L205.196 141.276C204.84 141.33 204.466 141.33 204.109 141.276L201.08 140.865C199.958 141.294 199.12 142.868 199.12 144.782V152.544H210.221V144.782C210.221 142.85 209.366 141.276 208.261 140.865H208.225Z" fill="#0C3464"/>
<path d="M219.451 154.332H189.855C189.356 154.332 188.964 153.939 188.964 153.438C188.964 152.937 189.356 152.544 189.855 152.544H219.451C219.95 152.544 220.342 152.937 220.342 153.438C220.342 153.939 219.95 154.332 219.451 154.332Z" fill="#0C3464"/>
<path d="M219.451 153.438H189.855C189.534 153.438 189.231 153.259 189.089 152.991C189.017 153.116 188.964 153.277 188.964 153.438C188.964 153.939 189.356 154.332 189.855 154.332H219.451C219.95 154.332 220.342 153.939 220.342 153.438C220.342 153.277 220.306 153.116 220.217 152.991C220.057 153.259 219.772 153.438 219.451 153.438Z" fill="#092649"/>
<path d="M213.339 148.466H195.984V152.544H213.339V148.466Z" fill="white"/>
<path d="M210.203 148.466H199.103V152.544H210.203V148.466Z" fill="white"/>
<path d="M72.0418 119.653H37.5636C35.5955 119.653 34 121.254 34 123.23C34 125.205 35.5955 126.807 37.5636 126.807H72.0418C74.01 126.807 75.6055 125.205 75.6055 123.23C75.6055 121.254 74.01 119.653 72.0418 119.653Z" fill="white"/>
<path d="M72.0418 139H37.5636C35.5955 139 34 140.602 34 142.577C34 144.553 35.5955 146.154 37.5636 146.154H72.0418C74.01 146.154 75.6055 144.553 75.6055 142.577C75.6055 140.602 74.01 139 72.0418 139Z" fill="white"/>
<path d="M72.0418 158H37.5636C35.5955 158 34 159.602 34 161.577C34 163.553 35.5955 165.154 37.5636 165.154H72.0418C74.01 165.154 75.6055 163.553 75.6055 161.577C75.6055 159.602 74.01 158 72.0418 158Z" fill="white"/>
<path d="M117.666 90.607V87.2267C117.666 86.3146 118.397 85.5813 119.305 85.5813H127.68C128.589 85.5813 129.319 86.3146 129.319 87.2267V105.023H104.035V101.195C104.035 97.8148 106.761 95.0784 110.129 95.0784H113.229C115.688 95.0784 117.684 93.0752 117.684 90.607H117.666Z" fill="#0C3464"/>
<path d="M125.543 85.5992H127.663C128.572 85.5992 129.303 86.3324 129.303 87.2446V105.04H127.182V87.2446C127.182 86.3324 126.452 85.5992 125.543 85.5992Z" fill="#092649"/>
<path d="M110.111 95.0784H113.212C115.67 95.0784 117.666 93.0752 117.666 90.607V87.2267C117.666 86.3146 118.397 85.5813 119.305 85.5813H127.68C128.589 85.5813 129.319 86.3146 129.319 87.2267V88.2283H123.546C122.637 88.2283 121.907 88.9616 121.907 89.8737V93.2541C121.907 95.7222 119.911 97.7254 117.452 97.7254H114.352C110.984 97.7254 108.258 100.462 108.258 103.842V105.023H104.035V101.195C104.035 97.8148 106.761 95.0784 110.129 95.0784H110.111Z" fill="#092649"/>
<path d="M104.018 101.195C104.018 98.0831 106.352 95.5076 109.345 95.132C111.733 96.8132 113.283 99.6034 113.283 102.751C113.283 103.538 113.194 104.307 112.998 105.04H104V101.213L104.018 101.195Z" fill="white"/>
<path d="M113.301 102.751C113.301 103.538 113.212 104.307 113.016 105.04H104.018V101.213C104.018 101.034 104.018 100.837 104.035 100.659H113.051C113.212 101.338 113.283 102.036 113.283 102.751H113.301Z" fill="#092649"/>
<path d="M122.245 105.04C122.013 104.325 121.889 103.556 121.889 102.751C121.889 98.6376 125.203 95.3109 129.301 95.3109V105.04H122.245Z" fill="white"/>
<path d="M129.301 105.04H122.245C122.013 104.325 121.889 103.556 121.889 102.751C121.889 101.946 121.996 101.32 122.192 100.659H129.301V105.04Z" fill="#092649"/>
<path d="M122.282 107.187H127.68C128.589 107.187 129.32 106.453 129.32 105.541V102.751H119.502L120.749 106.114C120.981 106.757 121.604 107.187 122.282 107.187Z" fill="white"/>
<path d="M115.207 107.187H105.657C104.748 107.187 104.018 106.453 104.018 105.541V102.751L118.165 105.04L116.312 106.757C116.009 107.044 115.617 107.187 115.207 107.187Z" fill="white"/>
<path d="M129.302 102.751H104.018V105.04H129.302V102.751Z" fill="#092649"/>
<path d="M129.587 90.4282H121.908V85.5813H129.587C130.496 85.5813 131.227 86.3146 131.227 87.2267V88.7827C131.227 89.6949 130.496 90.4282 129.587 90.4282Z" fill="white"/>
<path d="M131.208 87.1909V88.7827C131.208 89.6949 130.477 90.4282 129.568 90.4282H121.889V88.7827H129.568C130.459 88.7827 131.172 88.0673 131.208 87.1909Z" fill="#092649"/>
<path d="M115.065 97.0458C115.368 96.9563 115.529 96.6344 115.439 96.3482L114.851 94.4166C114.762 94.1126 114.442 93.9516 114.157 94.041C113.854 94.1305 113.693 94.4524 113.782 94.7386L114.37 96.6702C114.459 96.9742 114.78 97.1352 115.065 97.0458Z" fill="white"/>
<path d="M117.881 95.4182C118.13 95.2214 118.166 94.8816 117.988 94.6312L116.758 93.0394C116.562 92.789 116.224 92.7533 115.974 92.9321C115.725 93.1289 115.689 93.4687 115.867 93.7191L117.097 95.3109C117.293 95.5613 117.631 95.597 117.881 95.4182Z" fill="white"/>
<path d="M119.876 92.485C120.001 92.1988 119.876 91.859 119.591 91.7338L117.756 90.9111C117.471 90.7859 117.132 90.9111 117.007 91.1973C116.883 91.4834 117.007 91.8232 117.292 91.9484L119.128 92.7712C119.413 92.8964 119.751 92.7712 119.876 92.485Z" fill="white"/>
<path d="M120.268 89.3014C120.304 88.9974 120.072 88.7112 119.769 88.6754L117.774 88.4429C117.471 88.4071 117.186 88.6397 117.15 88.9437C117.114 89.2478 117.346 89.5339 117.649 89.5697L119.645 89.8022C119.948 89.838 120.233 89.6055 120.268 89.3014Z" fill="white"/>
</svg>
