<svg width="244" height="210" viewBox="0 0 244 210" fill="none" xmlns="http://www.w3.org/2000/svg">
<g opacity="0.3" filter="url(#filter0_f_1082_13599)">
<path fill-rule="evenodd" clip-rule="evenodd" d="M20.5 94.5L79.8118 67L222 147L163.5 181L20.5 94.5Z" fill="#494C50"/>
</g>
<g opacity="0.3" filter="url(#filter1_f_1082_13599)">
<path fill-rule="evenodd" clip-rule="evenodd" d="M20 94.5L77.8137 65L224 148L164 190L73 132.5L20 94.5Z" fill="#494C50"/>
</g>
<path d="M77.121 0.996582L217.817 82.9597V145.55L163.433 176.84L22.4487 92.9694L22.7474 32.2863L77.121 0.996582Z" fill="#AFB2B6"/>
<path fill-rule="evenodd" clip-rule="evenodd" d="M161.261 116.41V174.35L21.8462 92.9692V35.0337L161.261 116.41Z" fill="#C9CCCF"/>
<path fill-rule="evenodd" clip-rule="evenodd" d="M161.261 116.41V124.717L109.059 94.8336V86.5317L161.261 116.41Z" fill="#C9CCCF"/>
<path d="M117.757 150.943V92.6733H119.935V150.943H117.757ZM128.639 157.418V99.1435H130.81V157.418H128.639ZM139.514 163.894V105.619H141.686V163.894H139.514ZM150.39 170.364V112.095H152.562V170.364H150.39Z" fill="#E4E5E7"/>
<path d="M111.231 146.627V88.3579H113.408V146.627H111.231ZM122.107 153.103V94.8281H124.284V153.103H122.107ZM132.983 159.579V101.304H135.16V159.579H132.983ZM143.864 166.054V107.785H146.036V166.054H143.864ZM154.74 172.53V114.26H156.912V172.53H154.74Z" fill="#94999E"/>
<path fill-rule="evenodd" clip-rule="evenodd" d="M109.711 86.7308V95.0381L57.5142 65.1491V56.8525L109.711 86.7308Z" fill="#C9CCCF"/>
<path d="M66.2075 121.264V62.9941H68.3849V121.264H66.2075ZM77.0888 127.739V69.4643H79.2607V127.739H77.0888ZM87.9646 134.215V75.9399H90.1365V134.215H87.9646ZM98.8404 140.685V82.4155H101.012V140.685H98.8404Z" fill="#E4E5E7"/>
<path d="M59.686 116.943V58.6792H61.8634V116.949H59.686V116.943ZM70.5619 123.419V65.1494H72.7392V123.424H70.5619V123.419ZM81.4377 129.895V71.6196H83.615V129.895H81.4377ZM92.3189 136.37V78.1006H94.4908V136.37H92.3189ZM103.195 142.846V84.5762H105.367V142.846H103.195Z" fill="#94999E"/>
<path fill-rule="evenodd" clip-rule="evenodd" d="M58.2147 57.4774V65.7793L21.2217 44.9411V36.6392L58.2147 57.4774Z" fill="#C9CCCF"/>
<path d="M25.5874 95.4959V40.2109H27.7593V95.4959H25.5874ZM36.4632 101.971V46.6865H38.6351V101.971H36.4632ZM47.339 108.442V53.1621H49.511V108.442H47.339Z" fill="#E4E5E7"/>
<path d="M29.9365 97.9205V42.3662H32.1139V97.9205H29.9365ZM40.8178 104.396V48.8472H42.9897V104.396H40.8178ZM51.6936 110.872V55.3228H53.8655V110.877H51.6936V110.872Z" fill="#94999E"/>
<path fill-rule="evenodd" clip-rule="evenodd" d="M22.4487 92.9692V88.988L161.261 170.369V174.351L22.4487 92.9692ZM22.4487 35.998L161.261 116.41V120.396L22.4487 39.9793V35.998Z" fill="#94999E"/>
<path fill-rule="evenodd" clip-rule="evenodd" d="M167.505 114.228L115.569 84.6513L165.898 56.0176L217.828 85.5887L167.505 114.228Z" fill="#FAFAFA"/>
<path d="M153.203 110.037L152.117 108.194L202.733 79.3882L203.814 81.236L153.203 110.037ZM142.17 103.998L141.084 102.155L191.7 73.3489L192.78 75.1968L142.17 103.998ZM131.131 97.9583L130.05 96.1159L180.661 67.3097L181.747 69.1576L131.131 97.9583ZM120.098 91.9191L119.017 90.0767L169.633 61.2705L170.714 63.1184L120.103 91.9191H120.098Z" fill="#E4E5E7"/>
<path d="M160.197 113.447L159.111 111.599L209.727 82.798L210.807 84.6405L160.197 113.447ZM149.163 107.407L148.083 105.56L198.694 76.7588L199.78 78.6066L149.163 107.407ZM138.13 101.368L137.044 99.5203L187.655 70.7195L188.741 72.5674L138.13 101.368ZM127.091 95.3289L126.011 93.4865L176.627 64.6803L177.708 66.5282L127.097 95.3289H127.091ZM116.058 89.2897L114.978 87.4473L165.588 58.6411L166.674 60.489L116.058 89.2897Z" fill="#FAFAFA"/>
<path d="M159.111 111.594L158.03 109.751L208.641 80.9449L209.722 82.7928L159.105 111.594H159.111ZM148.077 105.554L146.991 103.712L197.608 74.9057L198.688 76.7536L148.077 105.554ZM137.044 99.5151L135.958 97.6726L186.574 68.8665L187.655 70.7144L137.044 99.5151ZM126.005 93.4813L124.925 91.6334L175.536 62.8273L176.622 64.6751L126.005 93.4813ZM114.972 87.4421L113.892 85.5942L164.508 56.7935L165.588 58.6359L114.978 87.4421H114.972Z" fill="#C9CCCF"/>
<path fill-rule="evenodd" clip-rule="evenodd" d="M216.541 87.5551L164.611 57.984L168.07 56.0176L220 85.5887L216.541 87.5551ZM169.677 114.228L117.747 84.6513L121.205 82.6849L173.136 112.261L169.677 114.228Z" fill="#C9CCCF"/>
<path fill-rule="evenodd" clip-rule="evenodd" d="M115.336 84.8992L63.3999 55.3227L113.728 26.689L165.659 56.2601L115.336 84.8992Z" fill="#FAFAFA"/>
<path d="M101.029 80.7077L99.9426 78.8652L150.559 50.0591L151.639 51.9069L101.029 80.7077ZM89.9953 74.6685L88.9093 72.826L139.526 44.0198L140.606 45.8677L89.9953 74.6685ZM78.9566 68.6292L77.8761 66.7868L128.487 37.9806L129.573 39.8285L78.9566 68.6292ZM67.9233 62.59L66.8428 60.7476L117.459 31.9414L118.54 33.7893L67.9287 62.59H67.9233Z" fill="#E4E5E7"/>
<path d="M108.027 84.118L106.941 82.2701L157.558 53.4694L158.638 55.3118L108.027 84.118ZM96.9939 78.0788L95.9134 76.2309L146.524 47.4301L147.61 49.278L96.9939 78.0788ZM85.9606 72.0396L84.8747 70.1917L135.486 41.3909L136.571 43.2388L85.9606 72.0396ZM74.9219 66.0003L73.8414 64.1579L124.458 35.3517L125.538 37.1996L74.9273 66.0003H74.9219ZM63.8886 59.9611L62.8081 58.1186L113.419 29.3125L114.505 31.1604L63.8886 59.9611Z" fill="#FAFAFA"/>
<path d="M106.941 82.2703L105.861 80.4278L156.472 51.6217L157.552 53.4695L106.936 82.2703H106.941ZM95.908 76.2311L94.822 74.3886L145.438 45.5825L146.519 47.4303L95.908 76.2311ZM84.8747 70.1919L83.7887 68.3494L134.405 39.5433L135.486 41.3911L84.8747 70.1919ZM73.836 64.158L72.7555 62.3102L123.366 33.504L124.452 35.3519L73.836 64.158ZM62.8027 58.1188L61.7222 56.271L112.338 27.4702L113.419 29.3127L62.8081 58.1188H62.8027Z" fill="#C9CCCF"/>
<path fill-rule="evenodd" clip-rule="evenodd" d="M164.676 58.0488L112.746 28.4776L116.204 26.5112L168.135 56.0824L164.676 58.0488ZM117.812 84.7215L65.8813 55.145L69.3401 53.1786L121.27 82.7551L117.812 84.7215Z" fill="#C9CCCF"/>
<path fill-rule="evenodd" clip-rule="evenodd" d="M63.6986 55.3979L24.626 32.4209L74.9545 3.78711L114.022 26.7588L63.6986 55.3979Z" fill="#FAFAFA"/>
<path d="M49.3913 51.2065L48.3053 49.3641L98.9216 20.5579L100.002 22.4058L49.3913 51.2065ZM38.358 45.1673L37.2721 43.3249L87.8883 14.5187L88.9689 16.3666L38.358 45.1673ZM27.3193 39.1281L26.2388 37.2856L76.855 8.47949L77.941 10.3274L27.3193 39.1281Z" fill="#E4E5E7"/>
<path d="M55.3045 52.7692L54.2239 50.9267L104.835 22.1206L105.915 23.9684L55.299 52.7692H55.3045ZM44.2712 46.73L43.1852 44.8875L93.8015 16.0814L94.882 17.9292L44.2712 46.73ZM33.2379 40.6908L32.1519 38.8483L82.7682 10.0421L83.8487 11.89L33.2379 40.6908ZM22.1992 34.6569L21.1187 32.8091L71.7295 4.00293L72.8155 5.85079L22.1992 34.6569Z" fill="#C9CCCF"/>
<path fill-rule="evenodd" clip-rule="evenodd" d="M113.115 28.7253L76.502 7.17048L79.9608 5.2041L116.579 26.7643L113.12 28.7306L113.115 28.7253ZM66.2506 55.398L29.6377 33.8379L33.0965 31.8715L69.7148 53.437L66.256 55.4034L66.2506 55.398Z" fill="#C9CCCF"/>
<path fill-rule="evenodd" clip-rule="evenodd" d="M165.61 116.41L217.817 86.5317V144.467L165.61 174.351V116.41Z" fill="#94999E"/>
<path fill-rule="evenodd" clip-rule="evenodd" d="M165.61 157.084V155.258L217.812 125.38V127.206L165.61 157.084ZM165.61 137.992L217.812 108.108V109.934L165.61 139.818V137.992Z" fill="#FAFAFA"/>
<path fill-rule="evenodd" clip-rule="evenodd" d="M165.61 150.614V148.788L217.812 118.904V120.73L165.61 150.614ZM165.61 131.521L217.812 101.643V103.469L165.61 133.348V131.521Z" fill="#AFB2B6"/>
<path fill-rule="evenodd" clip-rule="evenodd" d="M165.61 155.258V150.943L217.812 121.064V125.046L165.61 155.258ZM165.61 133.676L217.812 103.792V107.779L165.61 137.657V133.676Z" fill="#797F86"/>
<path fill-rule="evenodd" clip-rule="evenodd" d="M167.782 114.255H169.964V172.53H167.782V114.255Z" fill="#AFB2B6"/>
<path fill-rule="evenodd" clip-rule="evenodd" d="M213.462 88.3579H215.64V146.627H213.462V88.3579Z" fill="#FAFAFA"/>
<path fill-rule="evenodd" clip-rule="evenodd" d="M189.539 103.464L191.711 102.22V159.579L189.539 160.823V103.464Z" fill="#94999E"/>
<path fill-rule="evenodd" clip-rule="evenodd" d="M191.711 101.304L193.888 100.059V157.418L191.711 158.663V101.304Z" fill="#AFB2B6"/>
<path fill-rule="evenodd" clip-rule="evenodd" d="M165.61 174.351V170.37L217.812 140.491V144.473L165.61 174.351ZM165.61 116.415L217.812 86.5371V90.5184L165.61 120.402V116.415Z" fill="#797F86"/>
<path fill-rule="evenodd" clip-rule="evenodd" d="M20 93.6859L20.2606 32.3779L163.433 114.255V179L20 93.6859ZM159.089 118.575L23.8443 39.6024V91.4017L159.083 170.364V118.57L159.089 118.575Z" fill="#FAFAFA"/>
<path fill-rule="evenodd" clip-rule="evenodd" d="M163.433 179V114.255L219.989 81.8823V146.622L163.433 179ZM215.64 90.5128L167.782 118.57V170.364L215.64 142.312V90.5128Z" fill="#94999E"/>
<path fill-rule="evenodd" clip-rule="evenodd" d="M163.433 114.255L20.2607 32.378L76.8118 0L219.995 81.8877L163.438 114.26L163.433 114.255ZM32.0976 32.2594L163.438 107.779L209.119 81.8823L77.7728 6.35707L32.0976 32.2594Z" fill="#E4E5E7"/>
<path fill-rule="evenodd" clip-rule="evenodd" d="M202.587 152.187V96.994L204.764 95.7495V150.948L202.587 152.193V152.187ZM180.835 109.94L183.007 108.695V163.894L180.835 165.139V109.94Z" fill="#797F86"/>
<path fill-rule="evenodd" clip-rule="evenodd" d="M200.415 150.943V95.7441L202.587 96.9886V152.182L200.415 150.938V150.943ZM178.658 108.695L180.835 109.94V165.139L178.658 163.894V108.695Z" fill="#C9CCCF"/>
<path fill-rule="evenodd" clip-rule="evenodd" d="M202.587 96.9938L200.697 95.911L202.587 94.8335L204.471 95.911L202.587 96.9938ZM178.951 108.857L180.835 107.779L182.719 108.857L180.835 109.934L178.951 108.857Z" fill="#FAFAFA"/>
<defs>
<filter id="filter0_f_1082_13599" x="17.5" y="64" width="207.5" height="120" filterUnits="userSpaceOnUse" color-interpolation-filters="sRGB">
<feFlood flood-opacity="0" result="BackgroundImageFix"/>
<feBlend mode="normal" in="SourceGraphic" in2="BackgroundImageFix" result="shape"/>
<feGaussianBlur stdDeviation="1.5" result="effect1_foregroundBlur_1082_13599"/>
</filter>
<filter id="filter1_f_1082_13599" x="0" y="45" width="244" height="165" filterUnits="userSpaceOnUse" color-interpolation-filters="sRGB">
<feFlood flood-opacity="0" result="BackgroundImageFix"/>
<feBlend mode="normal" in="SourceGraphic" in2="BackgroundImageFix" result="shape"/>
<feGaussianBlur stdDeviation="10" result="effect1_foregroundBlur_1082_13599"/>
</filter>
</defs>
</svg>
