<svg xmlns="http://www.w3.org/2000/svg" xmlns:xlink="http://www.w3.org/1999/xlink" width="511" height="387" fill="none" xmlns:v="https://vecta.io/nano"><style><![CDATA[.B{fill:#315b90}.C{fill:#2a7de1}.D{color-interpolation-filters:sRGB}.E{flood-opacity:0}.F{fill:#757679}.G{fill:#8f9194}.H{fill:#4f4f51}.I{fill:#3d6ead}.J{fill:#2163b3}.K{stroke-dasharray:6 6}]]></style><path d="M416.405 26.239c-1.227 0-2.318-.21-3.273-.631-.949-.421-1.699-1.006-2.25-1.756s-.843-1.616-.878-2.599h3.205a2.12 2.12 0 0 0 .469 1.236c.284.347.662.616 1.133.81s1 .29 1.585.29c.625 0 1.179-.108 1.662-.324.483-.222.861-.528 1.134-.92s.406-.844.401-1.355c.005-.528-.131-.994-.41-1.398s-.681-.719-1.21-.946c-.523-.227-1.153-.341-1.892-.341h-1.542v-2.437h1.542c.608 0 1.139-.105 1.594-.315s.821-.506 1.082-.886c.262-.386.389-.832.384-1.338.005-.494-.105-.923-.333-1.287a2.24 2.24 0 0 0-.946-.861c-.403-.205-.877-.307-1.423-.307-.534 0-1.028.097-1.483.29s-.821.469-1.099.827c-.279.352-.426.773-.443 1.261h-3.043c.023-.977.304-1.835.844-2.574.545-.744 1.272-1.324 2.181-1.739.91-.42 1.929-.631 3.06-.631 1.165 0 2.176.219 3.034.656.864.432 1.531 1.014 2.003 1.747s.707 1.543.707 2.429c.006.983-.284 1.807-.869 2.472-.579.665-1.341 1.099-2.284 1.304v.136c1.227.17 2.168.625 2.821 1.364.659.733.986 1.645.98 2.736 0 .977-.278 1.852-.835 2.625-.551.767-1.313 1.369-2.284 1.807s-2.074.656-3.324.656zm10.965-13.33l2.642 4.832 2.685-4.832h3.264l-3.946 6.545L436.03 26h-3.248l-2.77-4.713L427.268 26h-3.273l3.989-6.546-3.886-6.545h3.272zM442.807 26h-1.662l4.807-13.091h1.636L452.395 26h-1.662l-3.912-11.02h-.102L442.807 26zm.614-5.114h6.699v1.406h-6.699v-1.406zM455.044 26l-2.992-9.818h1.585l2.123 7.517h.102l2.096-7.517h1.611l2.071 7.492h.103l2.122-7.492h1.585L462.458 26h-1.482l-2.148-7.543h-.154L456.527 26h-1.483zm13.729-5.906V26h-1.509v-9.818h1.458v1.534h.127a2.81 2.81 0 0 1 1.049-1.202c.469-.307 1.074-.46 1.815-.46.665 0 1.247.136 1.745.409s.887.677 1.164 1.227.415 1.236.415 2.071V26h-1.509v-6.136c0-.771-.2-1.372-.6-1.803s-.951-.652-1.65-.652c-.481 0-.911.104-1.291.313s-.671.514-.888.914-.326.886-.326 1.457zM477.614 26v-9.818h1.508V26h-1.508zm.767-11.454c-.294 0-.548-.1-.761-.301s-.313-.441-.313-.722.104-.522.313-.722.467-.3.761-.3a1.05 1.05 0 0 1 .754.3c.213.2.319.441.319.722s-.106.522-.319.722a1.05 1.05 0 0 1-.754.301zm4.833 5.548V26h-1.509v-9.818h1.457v1.534h.128c.23-.499.58-.899 1.049-1.202s1.073-.46 1.815-.46c.665 0 1.246.136 1.745.409s.886.677 1.163 1.227.416 1.236.416 2.071V26h-1.509v-6.136c0-.771-.2-1.372-.601-1.803s-.95-.652-1.649-.652c-.481 0-.912.104-1.291.313s-.671.514-.888.914-.326.886-.326 1.457zm12.803 9.793c-.728 0-1.355-.094-1.879-.281s-.961-.426-1.31-.729-.62-.618-.825-.959l1.202-.844a9.39 9.39 0 0 0 .518.614c.208.234.494.437.856.607s.846.262 1.438.262c.793 0 1.447-.192 1.963-.575s.773-.984.773-1.803v-1.994h-.128a7.84 7.84 0 0 1-.473.665c-.2.26-.49.492-.869.697s-.882.3-1.521.3c-.793 0-1.505-.187-2.135-.562s-1.123-.92-1.49-1.636-.543-1.585-.543-2.608c0-1.006.177-1.881.531-2.627s.846-1.329 1.476-1.739 1.36-.62 2.186-.62c.639 0 1.147.107 1.522.32s.669.447.869.716l.473.652h.153v-1.56h1.458v10.099c0 .844-.192 1.53-.576 2.058a3.27 3.27 0 0 1-1.534 1.17c-.639.252-1.351.377-2.135.377zm-.051-5.395c.605 0 1.117-.138 1.534-.415s.735-.675.953-1.195.326-1.142.326-1.867c0-.707-.107-1.332-.32-1.873s-.528-.965-.946-1.272-.933-.46-1.547-.46c-.639 0-1.172.162-1.598.486s-.739.759-.952 1.304-.313 1.151-.313 1.815c0 .682.106 1.285.319 1.809s.537.929.959 1.227.955.441 1.585.441zm13.832-6.111l-1.355.383a2.52 2.52 0 0 0-.378-.658 1.83 1.83 0 0 0-.664-.537c-.282-.141-.642-.211-1.081-.211-.6 0-1.101.138-1.502.415-.396.273-.594.62-.594 1.042 0 .375.136.671.409.889s.699.398 1.278.543l1.458.358c.877.213 1.532.539 1.962.978s.646.995.646 1.681a2.49 2.49 0 0 1-.486 1.509c-.32.443-.767.793-1.343 1.048s-1.244.383-2.007.383c-1.001 0-1.83-.217-2.486-.652s-1.072-1.07-1.247-1.905l1.432-.358c.137.528.394.925.774 1.189s.884.396 1.502.396c.703 0 1.261-.149 1.675-.447s.626-.665.626-1.087a1.14 1.14 0 0 0-.358-.857c-.239-.234-.605-.409-1.099-.524l-1.637-.384c-.899-.213-1.559-.543-1.981-.991s-.627-1.016-.627-1.694c0-.554.156-1.044.467-1.47s.743-.761 1.285-1.004 1.163-.364 1.853-.364c.972 0 1.735.213 2.289.639a3.45 3.45 0 0 1 1.189 1.688zM395.84 37.909V51h-1.585V37.909h1.585zm4.302 7.185V51h-1.508v-9.818h1.457v1.534h.128a2.8 2.8 0 0 1 1.048-1.202c.469-.307 1.074-.46 1.816-.46.664 0 1.246.136 1.745.409s.886.678 1.163 1.227.415 1.236.415 2.071V51h-1.508v-6.136c0-.771-.2-1.372-.601-1.802s-.95-.652-1.649-.652a2.63 2.63 0 0 0-1.291.313 2.24 2.24 0 0 0-.889.914c-.217.401-.326.886-.326 1.457zm13.111-3.912v1.278h-5.088v-1.278h5.088zm-3.605-2.352h1.508v9.358c0 .426.062.746.186.959s.289.349.485.422.412.102.633.102c.166 0 .303-.009.409-.026l.256-.051.307 1.355c-.102.038-.245.077-.428.115s-.416.064-.697.064c-.426 0-.844-.092-1.253-.275s-.742-.462-1.01-.837-.396-.848-.396-1.419V38.83zm8.583 12.401c-.622 0-1.187-.117-1.694-.352s-.91-.582-1.208-1.029-.447-.997-.447-1.636c0-.562.111-1.018.332-1.368a2.35 2.35 0 0 1 .889-.831 4.65 4.65 0 0 1 1.227-.447l1.361-.243 1.451-.173c.375-.043.648-.113.819-.211s.262-.268.262-.511v-.051c0-.631-.173-1.121-.518-1.47s-.859-.524-1.553-.524c-.721 0-1.285.158-1.694.473s-.697.652-.863 1.01l-1.432-.511c.256-.597.597-1.061 1.023-1.394a3.83 3.83 0 0 1 1.406-.703 5.84 5.84 0 0 1 1.509-.204c.315 0 .677.038 1.086.115a3.47 3.47 0 0 1 1.195.454c.388.23.71.577.966 1.042s.383 1.087.383 1.866V51h-1.508v-1.33h-.077c-.102.213-.273.441-.511.684s-.557.45-.953.62-.88.256-1.451.256zm.23-1.355c.597 0 1.1-.117 1.509-.352s.724-.537.933-.908.32-.761.32-1.17v-1.381c-.064.077-.205.147-.422.211s-.46.113-.742.16l-.811.115-.633.077a5.78 5.78 0 0 0-1.1.249c-.336.111-.609.279-.818.505s-.307.524-.307.908c0 .524.194.92.582 1.189s.888.396 1.489.396zm8.25-2.455l-.026-1.866h.307l4.296-4.372h1.866l-4.577 4.628h-.128l-1.738 1.611zM425.305 51V37.909h1.508V51h-1.508zm6.238 0l-3.835-4.858 1.074-1.048L433.461 51h-1.918zm7.085.205c-.946 0-1.762-.209-2.448-.626s-1.208-1.01-1.579-1.764-.55-1.641-.55-2.646.183-1.892.55-2.659.886-1.372 1.547-1.802 1.44-.652 2.326-.652a4.65 4.65 0 0 1 1.515.256 3.75 3.75 0 0 1 1.362.831c.409.379.735.882.978 1.508s.364 1.398.364 2.314v.639h-7.568v-1.304h6.034c0-.554-.111-1.048-.332-1.483a2.51 2.51 0 0 0-.934-1.029c-.4-.251-.873-.377-1.419-.377-.6 0-1.12.149-1.559.447s-.769.678-1.004 1.151-.351.98-.351 1.521v.869c0 .742.127 1.37.383 1.886s.62.901 1.08 1.17.995.396 1.605.396c.396 0 .754-.055 1.074-.166s.603-.285.837-.511a2.33 2.33 0 0 0 .543-.857l1.458.409a3.24 3.24 0 0 1-.774 1.304c-.362.371-.809.66-1.342.869s-1.131.307-1.796.307zm18.426-10.023c-.077-.648-.388-1.151-.933-1.509s-1.215-.537-2.007-.537c-.58 0-1.087.094-1.522.281s-.767.445-1.01.773-.358.701-.358 1.119c0 .349.084.65.25.901a2.21 2.21 0 0 0 .652.62c.264.162.541.296.831.403l.799.249 1.329.358a11.64 11.64 0 0 1 1.138.371 5.24 5.24 0 0 1 1.208.646 3.28 3.28 0 0 1 .959 1.036c.251.422.377.94.377 1.553 0 .707-.185 1.347-.556 1.918s-.903 1.025-1.611 1.361-1.557.505-2.563.505c-.938 0-1.749-.151-2.435-.454s-1.219-.724-1.611-1.266-.607-1.17-.659-1.886h1.637c.042.494.209.903.498 1.227a2.7 2.7 0 0 0 1.113.716c.451.153.937.23 1.457.23.605 0 1.148-.098 1.63-.294s.863-.477 1.144-.831a1.97 1.97 0 0 0 .422-1.253c0-.435-.121-.788-.364-1.061s-.563-.494-.959-.665a10.06 10.06 0 0 0-1.285-.447l-1.611-.46c-1.023-.294-1.832-.714-2.429-1.259s-.895-1.259-.895-2.141c0-.733.199-1.372.595-1.918a3.94 3.94 0 0 1 1.611-1.279c.677-.307 1.434-.46 2.269-.46.844 0 1.594.151 2.25.454s1.176.707 1.559 1.227c.388.52.593 1.11.614 1.771h-1.534zm4.906 13.5a3.3 3.3 0 0 1-.683-.064c-.201-.038-.339-.077-.416-.115l.384-1.33c.366.094.69.128.971.102s.531-.151.748-.377.424-.582.607-1.08l.282-.767-3.631-9.869h1.636l2.71 7.824h.103l2.71-7.824h1.636l-4.167 11.25c-.188.507-.42.927-.697 1.259s-.599.586-.965.748-.772.243-1.228.243zm15.823-11.301l-1.355.384c-.085-.226-.211-.445-.377-.658s-.384-.396-.665-.537-.641-.211-1.08-.211c-.601 0-1.102.138-1.502.415s-.595.62-.595 1.042c0 .375.136.671.409.889s.699.398 1.279.543l1.457.358c.878.213 1.532.539 1.962.978s.646.995.646 1.681a2.49 2.49 0 0 1-.486 1.508c-.319.443-.767.793-1.342 1.048s-1.245.384-2.007.384c-1.002 0-1.831-.217-2.487-.652s-1.072-1.07-1.246-1.905l1.432-.358c.136.528.394.925.773 1.189.384.264.884.396 1.502.396.703 0 1.261-.149 1.675-.447s.626-.665.626-1.087a1.14 1.14 0 0 0-.358-.856c-.238-.234-.605-.409-1.099-.524l-1.636-.383c-.9-.213-1.56-.543-1.982-.991s-.626-1.016-.626-1.694c0-.554.155-1.044.466-1.47.316-.426.744-.761 1.285-1.004s1.163-.364 1.854-.364c.971 0 1.734.213 2.288.639s.955.989 1.189 1.688zm6.54-2.199v1.278h-5.088v-1.278h5.088zm-3.606-2.352h1.509v9.358c0 .426.062.746.185.959s.29.349.486.422.411.102.633.102c.166 0 .303-.009.409-.026l.256-.051.307 1.355c-.103.038-.245.077-.429.115s-.415.064-.696.064c-.427 0-.844-.092-1.253-.275s-.742-.462-1.01-.837-.397-.848-.397-1.419V38.83zm9.706 12.375c-.946 0-1.762-.209-2.448-.626s-1.208-1.01-1.579-1.764-.55-1.641-.55-2.646.183-1.892.55-2.659.886-1.372 1.547-1.802 1.44-.652 2.326-.652a4.65 4.65 0 0 1 1.515.256 3.75 3.75 0 0 1 1.362.831c.409.379.735.882.978 1.508s.364 1.398.364 2.314v.639h-7.568v-1.304h6.034c0-.554-.111-1.048-.332-1.483a2.51 2.51 0 0 0-.934-1.029c-.4-.251-.873-.377-1.419-.377-.601 0-1.12.149-1.559.447s-.769.678-1.004 1.151-.351.98-.351 1.521v.869c0 .742.127 1.37.383 1.886s.62.901 1.08 1.17.995.396 1.605.396c.396 0 .754-.055 1.074-.166a2.3 2.3 0 0 0 .837-.511 2.33 2.33 0 0 0 .543-.857l1.458.409a3.24 3.24 0 0 1-.774 1.304c-.362.371-.809.66-1.342.869s-1.131.307-1.796.307zm6.18-.205v-9.818h1.457v1.534h.128a2.47 2.47 0 0 1 .991-1.221c.456-.294 1.003-.441 1.643-.441.647 0 1.186.147 1.617.441s.773.697 1.016 1.221h.102c.252-.507.629-.91 1.132-1.208s1.106-.454 1.809-.454c.878 0 1.596.275 2.154.825s.837 1.395.837 2.55V51h-1.508v-6.571c0-.724-.198-1.242-.595-1.553s-.863-.467-1.4-.467c-.69 0-1.225.209-1.604.626s-.569.938-.569 1.572V51h-1.534v-6.724c0-.558-.181-1.008-.543-1.349s-.829-.518-1.4-.518a2.07 2.07 0 0 0-1.1.313c-.336.209-.609.499-.818.869s-.307.791-.307 1.272V51h-1.508z" fill="#092649"/><g stroke="#092649"><path d="M308 45l34.5-26H377" class="K"/><circle cx="381" cy="19" r="3.5"/></g><path d="M423.392 352.761v-2.514l7.406-11.702h2.096v3.58h-1.278l-4.986 7.901v.136h10.338v2.599h-13.576zm8.326 3.239v-4.006l.034-1.125v-12.324h2.983V356h-3.017zm9.57-13.091l2.642 4.832 2.685-4.832h3.264l-3.946 6.546 4.014 6.545H446.7l-2.77-4.713-2.744 4.713h-3.273l3.989-6.545-3.887-6.546h3.273zm19.272 0V356h-1.585v-11.429h-.077l-3.196 2.122v-1.611l3.273-2.173h1.585zm7.676 13.27c-.75 0-1.426-.149-2.026-.447s-1.083-.708-1.445-1.228-.56-1.112-.594-1.777h1.534c.059.593.328 1.083.805 1.47.482.384 1.057.576 1.726.576.537 0 1.014-.126 1.432-.377a2.66 2.66 0 0 0 .99-1.036c.243-.443.365-.944.365-1.502 0-.571-.126-1.08-.377-1.528s-.588-.807-1.023-1.067-.931-.392-1.489-.397c-.401-.004-.812.058-1.234.186-.422.123-.769.283-1.042.479l-1.483-.179.793-6.443h6.801v1.406h-5.472l-.46 3.861h.077c.268-.213.605-.39 1.01-.53s.826-.211 1.265-.211c.801 0 1.515.191 2.142.575s1.125.899 1.483 1.56.543 1.414.543 2.262c0 .836-.188 1.581-.563 2.238a4.1 4.1 0 0 1-1.534 1.546c-.652.375-1.393.563-2.224.563zm8.463-1.969l-.102.691c-.072.485-.183 1.005-.332 1.559l-.454 1.566-.39 1.17h-1.15l.217-1.08.268-1.502.23-1.688.077-.716h1.636zm6.403 1.969c-.963 0-1.784-.262-2.461-.786s-1.196-1.294-1.554-2.295c-.357-1.006-.536-2.22-.536-3.643 0-1.415.179-2.623.536-3.625.363-1.005.883-1.772 1.56-2.301.682-.533 1.5-.799 2.455-.799s1.77.266 2.448.799 1.202 1.296 1.56 2.301.543 2.21.543 3.625c0 1.423-.179 2.637-.537 3.643-.358 1.001-.876 1.766-1.553 2.295s-1.498.786-2.461.786zm0-1.406c.954 0 1.696-.461 2.224-1.381s.793-2.233.793-3.937c0-1.134-.122-2.099-.365-2.896s-.583-1.404-1.035-1.822a2.29 2.29 0 0 0-1.617-.626c-.946 0-1.686.466-2.218 1.4-.533.929-.799 2.243-.799 3.944 0 1.133.119 2.096.358 2.889s.581 1.395 1.029 1.809a2.33 2.33 0 0 0 1.63.62zm11.07 1.406c-.963 0-1.784-.262-2.461-.786s-1.196-1.294-1.554-2.295c-.357-1.006-.536-2.22-.536-3.643 0-1.415.179-2.623.536-3.625.363-1.005.883-1.772 1.56-2.301.682-.533 1.5-.799 2.455-.799s1.77.266 2.448.799 1.202 1.296 1.56 2.301.543 2.21.543 3.625c0 1.423-.179 2.637-.537 3.643-.358 1.001-.876 1.766-1.553 2.295s-1.498.786-2.461.786zm0-1.406c.954 0 1.696-.461 2.224-1.381s.793-2.233.793-3.937c0-1.134-.122-2.099-.365-2.896s-.583-1.404-1.035-1.822a2.29 2.29 0 0 0-1.617-.626c-.946 0-1.686.466-2.218 1.4-.533.929-.799 2.243-.799 3.944 0 1.133.119 2.096.358 2.889s.581 1.395 1.029 1.809a2.33 2.33 0 0 0 1.63.62zm11.07 1.406c-.963 0-1.784-.262-2.461-.786s-1.196-1.294-1.554-2.295c-.357-1.006-.536-2.22-.536-3.643 0-1.415.179-2.623.536-3.625.363-1.005.883-1.772 1.56-2.301.682-.533 1.5-.799 2.455-.799s1.77.266 2.448.799 1.202 1.296 1.56 2.301.543 2.21.543 3.625c0 1.423-.179 2.637-.537 3.643-.358 1.001-.876 1.766-1.553 2.295s-1.498.786-2.461.786zm0-1.406c.954 0 1.696-.461 2.224-1.381s.793-2.233.793-3.937c0-1.134-.122-2.099-.365-2.896s-.583-1.404-1.035-1.822a2.29 2.29 0 0 0-1.617-.626c-.946 0-1.686.466-2.218 1.4-.533.929-.799 2.243-.799 3.944 0 1.133.119 2.096.358 2.889s.581 1.395 1.029 1.809a2.33 2.33 0 0 0 1.63.62zM438.869 372h-1.585c-.094-.456-.258-.857-.492-1.202a3.28 3.28 0 0 0-.844-.869 3.57 3.57 0 0 0-1.093-.537 4.38 4.38 0 0 0-1.253-.179c-.793 0-1.511.2-2.154.601s-1.149.991-1.528 1.771-.562 1.736-.562 2.87.187 2.09.562 2.87.889 1.37 1.528 1.77 1.361.601 2.154.601a4.38 4.38 0 0 0 1.253-.179 3.67 3.67 0 0 0 1.093-.53c.332-.239.614-.531.844-.876s.398-.75.492-1.202h1.585c-.119.669-.337 1.268-.652 1.796s-.707.978-1.176 1.349-.995.646-1.579.837-1.199.288-1.86.288c-1.116 0-2.109-.273-2.979-.818s-1.553-1.321-2.052-2.327-.747-2.199-.747-3.579.249-2.574.747-3.58 1.183-1.781 2.052-2.327 1.863-.818 2.979-.818c.661 0 1.281.096 1.86.288s1.11.473 1.579.844c.469.366.861.813 1.176 1.342s.533 1.123.652 1.796zm2.382 9v-13.091h7.849v1.406h-6.264v4.424h5.676v1.406h-5.676V381h-1.585zm10.384-13.091h1.892l4.449 10.867h.153l4.449-10.867h1.892V381h-1.483v-9.946h-.127L458.769 381h-1.432l-4.091-9.946h-.128V381h-1.483v-13.091zM472.351 381v-13.091h7.85v1.406h-6.264v4.424h5.676v1.406h-5.676V381h-1.586zm13.069.23c-.622 0-1.186-.117-1.693-.351a2.91 2.91 0 0 1-1.209-1.03c-.298-.451-.447-.997-.447-1.636 0-.562.111-1.018.332-1.368s.518-.631.889-.831.78-.349 1.227-.447l1.362-.243 1.451-.173c.375-.042.647-.113.818-.211s.262-.268.262-.511v-.051c0-.631-.173-1.121-.518-1.47s-.859-.524-1.553-.524c-.72 0-1.285.157-1.694.473s-.697.652-.863 1.009l-1.432-.511c.256-.596.597-1.061 1.023-1.393s.899-.571 1.406-.703 1.014-.205 1.509-.205c.315 0 .677.038 1.086.115.414.072.812.224 1.196.454s.709.577.965 1.042.383 1.086.383 1.866V381h-1.508v-1.33h-.077c-.102.214-.273.442-.511.684s-.556.45-.953.62-.88.256-1.451.256zm.231-1.355c.596 0 1.099-.117 1.508-.352a2.39 2.39 0 0 0 .933-.907c.213-.371.32-.761.32-1.17v-1.381c-.064.077-.205.147-.422.211s-.46.113-.741.16l-.812.115-.633.077c-.392.051-.759.134-1.099.249s-.61.279-.819.505-.306.524-.306.908c0 .524.193.92.581 1.189s.889.396 1.49.396zm8.351-4.781V381h-1.508v-9.818h1.457v1.534h.128c.23-.499.58-.899 1.048-1.202s1.074-.46 1.816-.46c.664 0 1.246.136 1.745.409s.886.678 1.163 1.227.416 1.236.416 2.071V381h-1.509v-6.136c0-.772-.2-1.373-.601-1.803s-.95-.652-1.649-.652c-.482 0-.912.104-1.291.313a2.25 2.25 0 0 0-.889.914c-.217.401-.326.887-.326 1.458zm15.796-1.713l-1.355.383c-.086-.226-.211-.445-.378-.658-.162-.218-.383-.396-.664-.537s-.642-.211-1.081-.211c-.6 0-1.101.138-1.502.415-.396.273-.594.62-.594 1.042 0 .375.136.672.409.889s.699.398 1.278.543l1.458.358c.877.213 1.532.539 1.962.978s.646.995.646 1.681a2.49 2.49 0 0 1-.486 1.509c-.32.443-.767.792-1.343 1.048s-1.244.384-2.007.384c-1.001 0-1.83-.218-2.486-.652s-1.072-1.07-1.247-1.905l1.432-.358c.137.528.394.924.774 1.189s.884.396 1.502.396c.703 0 1.261-.149 1.675-.447s.626-.665.626-1.087a1.14 1.14 0 0 0-.358-.857c-.239-.234-.605-.409-1.099-.524l-1.637-.383c-.899-.213-1.559-.544-1.981-.991s-.627-1.016-.627-1.694c0-.554.156-1.044.467-1.47s.743-.761 1.285-1.004 1.163-.364 1.853-.364c.972 0 1.735.213 2.289.639a3.45 3.45 0 0 1 1.189 1.688z" fill="#092649"/><circle cx="406" cy="355" r="3.5" stroke="#092649"/><path d="M141.5 324l36 31H402" stroke="#000" class="K"/><g clip-path="url(#I)"><g filter="url(#A)"><path d="M325.225 243.289l-114.291 66.137-26.575 15.381a19.91 19.91 0 0 1-9.76 2.45 15.33 15.33 0 0 1-7.518-1.726l-28.816-16.708L22.742 241.99c-2.009-1.161-2.991-2.72-2.991-4.344 0-1.968 1.435-4.038 4.232-5.653l140.82-81.527c5.12-2.961 12.852-3.286 17.278-.724l144.347 83.541c4.464 2.58 3.908 7.045-1.203 10.006z" fill="#eaeaea"/></g><g filter="url(#B)"><path d="M94.074 282.22l-57.884-34.4 17.988-10.754 57.885 34.401-17.989 10.753z" fill="#cacaca"/></g><g filter="url(#C)"><path d="M155.307 321.41l-66.738-40.835 17.998-10.744 66.737 40.835-17.997 10.744z" fill="#cacaca"/></g><g filter="url(#D)"><path d="M307.713 240.738L207.096 297.93l-25.957 15.023c-2.921 1.601-6.203 2.425-9.532 2.393-2.552.073-5.079-.507-7.344-1.686l-28.146-16.319-100.766-56.603c-1.963-1.133-2.921-2.656-2.921-4.243 0-1.922 1.402-3.944 4.133-5.521l135.043-78.927c5.002-2.892 12.554-3.209 16.877-.707l120.406 79.625c4.359 2.52 3.816 6.881-1.176 9.773z" fill="#888"/></g><path d="M290.424 246.553l-121.747-70.446v-38.395l121.747 70.446v38.395z" class="B"/><path d="M368.471 186.05l-121.746-70.438v-9.827l121.746 70.438v9.827z" class="I"/><path d="M290.424 208.158l78.047-31.935v9.827l-78.047 60.503v-38.395z" class="J"/><path d="M246.725 105.785l-78.048 31.927 121.746 70.446 78.048-31.935-121.746-70.438z" class="C"/><path d="M290.424 200.288l-121.747-70.446V91.447l121.747 70.446v38.395z" class="B"/><path d="M368.471 139.785L246.725 69.339v-9.827l121.746 70.446v9.827z" class="I"/><path d="M290.424 161.893l78.047-31.935v9.827l-78.047 60.503v-38.395z" class="J"/><path d="M246.725 59.512l-78.048 31.935 121.746 70.446 78.048-31.935-121.746-70.446z" class="C"/><path d="M290.424 156.768L168.677 86.33V47.935l121.747 70.438v38.395z" class="B"/><path d="M368.471 96.273L246.725 25.827V16l121.746 70.438v9.835z" class="I"/><path d="M290.424 118.373l78.047-31.935v9.835l-78.047 60.495v-38.395z" class="J"/><path d="M246.725 16l-78.048 31.935 121.746 70.438 78.048-31.935L246.725 16z" class="C"/><path d="M120.684 58.143c-.101-.617-.343-1.203-.706-1.712s-.838-.928-1.388-1.223L81.495 33.746l-.712-.406c-.778-.448-1.456-.481-1.812-.158l3.393-1.766c.745-.381 2.358.788 3.153 1.252l35.168 20.085c.55.296 1.025.714 1.388 1.223s.604 1.095.705 1.712l-2.093 2.455z" fill="#4f89c8"/><path d="M120.684 58.143v88.044a.93.93 0 0 1-.124.497l1.87-2.197a1.28 1.28 0 0 0 .285-.498 1.26 1.26 0 0 0 .037-.572V55.656l-2.068 2.488z" class="B"/><path d="M78.665 33.813v88.085a4.15 4.15 0 0 0 .717 1.704c.364.507.837.925 1.385 1.223l37.808 21.876c.902.522 1.655.497 1.961 0a.96.96 0 0 0 .124-.506V58.143c-.101-.617-.342-1.203-.705-1.712a4.07 4.07 0 0 0-1.389-1.223L81.47 33.746l-.712-.406c-.778-.448-1.456-.481-1.812-.158l-.075.091c-.126.152-.199.341-.207.539h0z" class="C"/><path d="M306.195 111.217L204.06 170.294l-23.749 13.741a17.8 17.8 0 0 1-8.721 2.189c-2.334.066-4.647-.464-6.719-1.543l-25.751-14.926-103.236-59.708c-1.796-1.036-2.681-2.429-2.681-3.881 0-1.758 1.291-3.607 3.79-5.05L162.885 28.29c4.576-2.645 11.485-2.936 15.432-.647l129.003 74.634c3.939 2.305 3.443 6.286-1.125 8.94z" fill="#f1f2f2"/><path d="M171.607 186.224v127.765a13.71 13.71 0 0 1-6.72-1.542L35.901 237.813c-1.796-1.037-2.673-2.43-2.673-3.881V106.166c0 1.452.877 2.845 2.673 3.881l103.235 59.708 25.751 14.926a13.71 13.71 0 0 0 6.72 1.543h0z" fill="url(#F)"/><path d="M309.977 106.158v127.79c0 1.758-1.283 3.599-3.782 5.042L180.312 311.8c-2.673 1.464-5.676 2.218-8.722 2.189V186.224c3.046.029 6.049-.725 8.722-2.189l23.748-13.741 102.135-59.077c2.499-1.452 3.782-3.317 3.782-5.059z" fill="url(#G)"/><path d="M269.497 156.909l27.149-15.756c.362-.235.664-.553.88-.928a2.75 2.75 0 0 0 .361-1.228v-10.639c0-.788-.554-1.112-1.241-.714l-27.149 15.707a2.76 2.76 0 0 0-.877.93c-.216.374-.34.794-.364 1.226v10.681c0 .788.546 1.111 1.241.721z" fill="#a7a9ac"/><g fill="#939598"><path d="M296.492 139.778c.205-.352.205-.735 0-.855s-.538.068-.743.419-.205.735 0 .855.538-.067.743-.419zm-6.561 3.796c.206-.352.206-.735 0-.855s-.537.067-.743.419-.205.735 0 .855.538-.068.743-.419zm-6.572 3.803c.205-.352.205-.735 0-.855s-.538.068-.743.419-.206.735-.001.855.538-.067.744-.419zm-6.561 3.796c.206-.352.206-.735 0-.855s-.537.067-.743.419-.205.735 0 .855.538-.068.743-.419zm-6.56 3.796c.205-.352.205-.735 0-.855s-.538.067-.743.419-.205.735 0 .855.538-.067.743-.419zm26.257-24.556c.206-.352.206-.735.001-.855s-.538.068-.743.42-.206.734-.001.854.538-.067.743-.419zm-6.568 3.796c.205-.352.205-.735 0-.855s-.538.068-.743.419-.205.735 0 .855.538-.067.743-.419zm-6.565 3.803c.206-.352.206-.735.001-.855s-.538.068-.744.42-.205.734 0 .855.538-.068.743-.42zm-6.56 3.796c.205-.352.205-.735 0-.855s-.538.068-.743.42-.205.734 0 .854.538-.067.743-.419zm-6.568 3.796c.205-.352.205-.735 0-.855s-.538.068-.743.419-.206.735-.001.855.538-.067.744-.419z"/></g><path d="M269.232 253.129l2.4 1.709c.827.597 1.903.116 3.252-.672l22.267-12.754c4.137-2.438 4.816-2.853 4.816-7.464v-83.217c0-1.26.256-4.362-2.036-4.362a6.17 6.17 0 0 0-2.325.34c.627.725 1.125 1.553 1.473 2.447.056.295.081.595.074.895v81.567c0 4.337-.877 5.1-4.476 7.298l-20.455 12.099-1.986 1.21c-.469.271-.97.482-1.49.631-.761.165-.968.597-1.514.273z" fill="#e6e7e8"/><path d="M270.771 253.071l26.347-15.25c.669-.48 1.217-1.11 1.599-1.84s.588-1.54.602-2.364v-85.042c0-1.658-.985-2.363-2.201-1.658l-26.347 15.25a5.24 5.24 0 0 0-1.602 1.838 5.26 5.26 0 0 0-.599 2.366v85.033c0 1.617.985 2.364 2.201 1.667z" fill="url(#H)"/><path d="M310.572 188.123c-.096-.614-.331-1.197-.687-1.706s-.822-.929-1.365-1.23l-37.095-21.461-.712-.415c-.769-.439-1.448-.472-1.804-.149l3.393-1.766c.736-.39 2.35.787 3.144 1.243l35.176 20.135a4.08 4.08 0 0 1 1.351 1.222c.352.504.587 1.081.685 1.689l-2.069 2.438" fill="#4f89c8"/><g filter="url(#E)"><path d="M308.52 282.62l-37.095-21.461-.712-.415c-.613-.35-1.118-.536-1.478-.434l-.247.137a.61.61 0 0 1 .247-.137l2.874-1.593c.736-.39 2.543.899 3.337 1.355l35.695 20.804-2.621 1.744z" fill="#dedede"/></g><path d="M310.572 188.106v88.085c.005.173-.035.345-.115.498l1.861-2.198c.132-.143.23-.315.286-.502a1.29 1.29 0 0 0 .037-.576v-87.736l-2.069 2.429z" class="B"/><path d="M268.57 163.817v88.085c0 .945.951 2.256 2.102 2.927l37.848 21.876c.911.523 1.655.498 1.97 0 .08-.156.12-.33.116-.505v-88.077a4.1 4.1 0 0 0-.702-1.711 4.08 4.08 0 0 0-1.384-1.225l-37.095-21.461-.712-.415c-.77-.439-1.448-.472-1.804-.149l-.083.091c-.149.152-.24.352-.256.564z" class="C"/><path d="M85.855 271.854l-53.281-30.65v-47.915l53.281 30.65v47.915z" class="F"/><path d="M85.855 223.939l-53.281-30.666 16.558-9.587 53.281 30.667-16.558 9.586z" class="G"/><g class="H"><path d="M102.413 262.276l-16.557 9.578v-47.915l16.557-9.586v47.923zm-28.564 4.636L52.31 255.219l8.283-4.793 21.539 11.692-8.283 4.794zm-22.458-12.39l-21.539-11.701 8.283-4.784 21.539 11.692-8.283 4.793z"/><path d="M73.849 261.455L52.31 249.754l8.283-4.793 21.539 11.701-8.283 4.793zm-22.458-12.397l-21.539-11.693 8.283-4.793 21.539 11.701-8.283 4.785z"/><path d="M73.849 255.99L52.31 244.298l8.283-4.794 21.539 11.693-8.283 4.793zm-22.458-12.389L29.852 231.9l8.283-4.793 21.539 11.701-8.283 4.793z"/><path d="M73.849 250.534L52.31 238.833l8.283-4.793 21.539 11.701-8.283 4.793zm-22.458-12.398l-21.539-11.693 8.283-4.793 21.539 11.701-8.283 4.785z"/><path d="M73.849 245.069L52.31 233.376l8.283-4.793 21.539 11.693-8.283 4.793z"/><use xlink:href="#J"/><path d="M73.849 239.604L52.31 227.911l8.283-4.793 21.539 11.701-8.283 4.785zm-22.458-12.389l-21.539-11.693 8.283-4.793 21.539 11.692-8.283 4.794z"/><path d="M73.849 234.147L52.31 222.455l8.283-4.794 21.539 11.693-8.283 4.793zm-22.458-12.389l-21.539-11.701 8.283-4.793 21.539 11.701-8.283 4.793z"/><path d="M73.849 228.682L52.31 216.99l8.283-4.793 21.539 11.692-8.283 4.793zm-22.458-12.389L29.852 204.6l8.283-4.793L59.674 211.5l-8.283 4.793z"/></g><path d="M85.855 218.068l-53.281-30.65v-47.915l53.281 30.65v47.915z" class="F"/><path d="M85.855 170.153l-53.281-30.667 16.558-9.586 53.281 30.666-16.558 9.587z" class="G"/><g class="H"><path d="M102.413 208.49l-16.557 9.578v-47.915l16.557-9.587v47.924zm-28.564 4.635L52.31 201.433l8.283-4.793 21.539 11.692-8.283 4.793zm-22.458-12.389l-21.539-11.701 8.283-4.793 21.539 11.701-8.283 4.793z"/><path d="M73.849 207.669L52.31 195.968l8.283-4.793 21.539 11.701-8.283 4.793zm-22.458-12.398l-21.539-11.692 8.283-4.794 21.539 11.693-8.283 4.793z"/><path d="M73.849 202.204L52.31 190.511l8.283-4.793 21.539 11.693-8.283 4.793zm-22.458-12.389l-21.539-11.701 8.283-4.794 21.539 11.701-8.283 4.794z"/><path d="M73.849 196.739L52.31 185.046l8.283-4.793 21.539 11.701-8.283 4.785zM51.391 184.35l-21.539-11.693 8.283-4.793 21.539 11.693-8.283 4.793z"/><path d="M73.849 191.282L52.31 179.581l8.283-4.784 21.539 11.692-8.283 4.793zm-22.458-12.389l-21.539-11.701 8.283-4.793L59.674 174.1l-8.283 4.793z"/><path d="M73.849 185.818L52.31 174.125l8.283-4.793 21.539 11.692-8.283 4.794zm-22.458-12.39l-21.539-11.692 8.283-4.794 21.539 11.693-8.283 4.793z"/><path d="M73.849 180.361L52.31 168.66l8.283-4.793 21.539 11.701-8.283 4.793zm-22.458-12.398l-21.539-11.692 8.283-4.793 21.539 11.701-8.283 4.784z"/><path d="M73.849 174.896L52.31 163.203l8.283-4.793 21.539 11.693-8.283 4.793zm-22.458-12.389l-21.539-11.701 8.283-4.785 21.539 11.693-8.283 4.793z"/></g><path d="M141.851 303.657l-53.281-30.65v-47.924l53.281 30.658v47.916z" class="F"/><path d="M141.851 255.741L88.57 225.075l16.566-9.586 53.281 30.666-16.566 9.586z" class="G"/><g class="H"><path d="M158.417 294.07l-16.566 9.586v-47.915l16.566-9.586v47.915zm-28.565 4.644l-21.547-11.701 8.283-4.785 21.547 11.693-8.283 4.793z"/><use xlink:href="#K"/><path d="M129.852 293.249l-21.547-11.692 8.283-4.794 21.547 11.701-8.283 4.785z"/><use xlink:href="#L"/><path d="M129.852 287.793l-21.547-11.701 8.283-4.785 21.547 11.692-8.283 4.794zm-22.457-12.39l-21.539-11.701 8.283-4.793 21.54 11.701-8.283 4.793z"/><path d="M129.852 282.328l-21.547-11.693 8.283-4.793 21.547 11.692-8.283 4.794zm-22.457-12.389l-21.539-11.693 8.283-4.793 21.54 11.692-8.283 4.794z"/><use xlink:href="#M"/><path d="M107.395 264.474l-21.539-11.693 8.283-4.793 21.54 11.701-8.283 4.785z"/><path d="M129.852 271.406l-21.547-11.692 8.283-4.794 21.547 11.693-8.283 4.793zm-22.457-12.389l-21.539-11.701 8.283-4.785 21.54 11.693-8.283 4.793z"/><path d="M129.852 265.95l-21.547-11.701 8.283-4.793 21.547 11.701-8.283 4.793zm-22.457-12.398l-21.539-11.693 8.283-4.793 21.54 11.701-8.283 4.785z"/><use xlink:href="#N"/><path d="M107.395 248.096l-21.539-11.701 8.283-4.794 21.54 11.701-8.283 4.794z"/></g><path d="M141.851 249.87L88.57 219.221v-47.924l53.281 30.65v47.923z" class="F"/><path d="M141.851 201.947L88.57 171.28l16.566-9.578 53.281 30.667-16.566 9.578z" class="G"/><g class="H"><path d="M158.417 240.284l-16.566 9.586v-47.923l16.566-9.578v47.915zm-28.565 4.644l-21.547-11.701 8.283-4.793 21.547 11.701-8.283 4.793zm-22.457-12.39l-21.539-11.701 8.283-4.793 21.54 11.701-8.283 4.793z"/><path d="M129.852 239.463l-21.547-11.693 8.283-4.793 21.547 11.693-8.283 4.793zm-22.457-12.389l-21.539-11.701 8.283-4.785 21.54 11.692-8.283 4.794z"/><path d="M129.852 234.006l-21.547-11.701 8.283-4.793 21.547 11.701-8.283 4.793zm-22.457-12.397l-21.539-11.693 8.283-4.793 21.54 11.693-8.283 4.793z"/><path d="M129.852 228.541l-21.547-11.692 8.283-4.793 21.547 11.692-8.283 4.793zm-22.457-12.389l-21.539-11.701 8.283-4.793 21.54 11.701-8.283 4.793z"/><path d="M129.852 223.085l-21.547-11.701 8.283-4.793 21.547 11.701-8.283 4.793zm-22.457-12.398l-21.539-11.692 8.283-4.794 21.54 11.693-8.283 4.793z"/><path d="M129.852 217.62l-21.547-11.693 8.283-4.793 21.547 11.693-8.283 4.793zm-22.457-12.389L85.856 193.53l8.283-4.793 21.54 11.701-8.283 4.793z"/><path d="M129.852 212.155l-21.547-11.693 8.283-4.793 21.547 11.701-8.283 4.785zm-22.457-12.389l-21.539-11.693 8.283-4.793 21.54 11.693-8.283 4.793z"/><path d="M129.852 206.699l-21.547-11.701 8.283-4.794 21.547 11.701-8.283 4.794zm-22.457-12.39l-21.539-11.701 8.283-4.793 21.54 11.701-8.283 4.793z"/></g></g><defs><filter id="A" x="-2.249" y="126.014" width="353.696" height="223.25" filterUnits="userSpaceOnUse" class="D"><feFlood class="E"/><feBlend in="SourceGraphic"/><feGaussianBlur stdDeviation="11"/></filter><filter id="B" x="18.19" y="219.066" width="111.873" height="81.154" filterUnits="userSpaceOnUse" class="D"><feFlood class="E"/><feBlend in="SourceGraphic"/><feGaussianBlur stdDeviation="9"/></filter><filter id="C" x="70.569" y="251.831" width="120.735" height="87.579" filterUnits="userSpaceOnUse" class="D"><feFlood class="E"/><feBlend in="SourceGraphic"/><feGaussianBlur stdDeviation="9"/></filter><filter id="D" x="26.43" y="143.652" width="291.407" height="177.7" filterUnits="userSpaceOnUse" class="D"><feFlood class="E"/><feBlend in="SourceGraphic"/><feGaussianBlur stdDeviation="3"/></filter><filter id="E" x="260.988" y="250.644" width="58.152" height="39.976" filterUnits="userSpaceOnUse" class="D"><feFlood class="E"/><feBlend in="SourceGraphic"/><feGaussianBlur stdDeviation="4"/></filter><linearGradient id="F" x1="128.909" y1="156.437" x2="57.174" y2="301.054" gradientUnits="userSpaceOnUse"><stop stop-color="#d1d3d4"/><stop offset=".94" stop-color="#bcbec0"/></linearGradient><linearGradient id="G" x1="222.703" y1="133.308" x2="259.877" y2="290.493" gradientUnits="userSpaceOnUse"><stop offset=".42" stop-color="#d1d3d4"/><stop offset="1" stop-color="#bcbec0"/></linearGradient><linearGradient id="H" x1="232.417" y1="266.459" x2="204.042" y2="212.346" gradientUnits="userSpaceOnUse"><stop stop-color="#bcbec0"/><stop offset="1" stop-color="#6d6e71"/></linearGradient><clipPath id="I"><path fill="#fff" transform="translate(0 16)" d="M0 0h368.916v331H0z"/></clipPath><path id="J" d="M51.391 232.679l-21.539-11.701 8.283-4.793 21.539 11.701-8.283 4.793z"/><path id="K" d="M107.395 286.325l-21.539-11.701 8.283-4.793 21.54 11.701-8.283 4.793z"/><path id="L" d="M107.395 280.86l-21.539-11.693 8.283-4.793 21.54 11.693-8.283 4.793z"/><path id="M" d="M129.852 276.871l-21.547-11.701 8.283-4.793 21.547 11.701-8.283 4.793z"/><path id="N" d="M129.852 260.485l-21.547-11.693 8.283-4.793 21.547 11.693-8.283 4.793z"/></defs></svg>