<svg xmlns="http://www.w3.org/2000/svg" width="99.53" height="84.03" xmlns:xlink="http://www.w3.org/1999/xlink"><defs><linearGradient id="a" x1="-24.34" y1="12.63" x2="-42.25" y2="48.82" gradientTransform="matrix(-1 0 0 1 2.57 0)" gradientUnits="userSpaceOnUse"><stop offset="0" stop-color="#d0d2d3"/><stop offset=".94" stop-color="#bbbdbf"/></linearGradient><linearGradient id="d" x1="-60.69" y1="33.29" x2="-78.6" y2="69.48" xlink:href="#a"/><linearGradient id="e" x1="-36.49" y1="27.07" x2="-27.15" y2="66.64" gradientTransform="matrix(-1 0 0 1 2.57 0)" gradientUnits="userSpaceOnUse"><stop offset=".42" stop-color="#d0d2d3"/><stop offset="1" stop-color="#bbbdbf"/></linearGradient><linearGradient id="f" x1="-48.55" y1="65.86" x2="-65.18" y2="50.29" gradientTransform="matrix(-1 0 0 1 2.57 0)" gradientUnits="userSpaceOnUse"><stop offset="0" stop-color="#bbbdbf"/><stop offset="1" stop-color="#6d6e70"/></linearGradient><linearGradient id="g" x1="-75.92" y1="28.13" x2="-59.56" y2="28.13" xlink:href="#a"/><linearGradient id="h" x1="-57.72" y1="36.31" x2="-49.41" y2="36.31" xlink:href="#a"/><linearGradient id="i" x1="-81.73" y1="21.28" x2="-77.45" y2="21.28" xlink:href="#a"/><linearGradient id="j" x1="-73.59" y1="26.86" x2="-57.23" y2="26.86" xlink:href="#a"/><linearGradient id="k" x1="-55.39" y1="35.05" x2="-47.08" y2="35.05" xlink:href="#a"/><linearGradient id="l" x1="-79.4" y1="20.02" x2="-75.12" y2="20.02" xlink:href="#a"/><linearGradient id="m" x1="-71.26" y1="25.6" x2="-54.9" y2="25.6" xlink:href="#a"/><linearGradient id="n" x1="-53.06" y1="33.78" x2="-44.75" y2="33.78" xlink:href="#a"/><linearGradient id="o" x1="-77.07" y1="18.76" x2="-72.79" y2="18.76" xlink:href="#a"/><linearGradient id="p" x1="-68.94" y1="24.33" x2="-52.57" y2="24.33" xlink:href="#a"/><linearGradient id="q" x1="-50.74" y1="32.52" x2="-42.42" y2="32.52" xlink:href="#a"/><linearGradient id="r" x1="-74.75" y1="17.49" x2="-70.46" y2="17.49" xlink:href="#a"/><linearGradient id="s" x1="-66.61" y1="23.07" x2="-50.24" y2="23.07" xlink:href="#a"/><linearGradient id="t" x1="-48.41" y1="31.25" x2="-40.09" y2="31.25" xlink:href="#a"/><linearGradient id="u" x1="-72.42" y1="16.23" x2="-68.13" y2="16.23" xlink:href="#a"/><linearGradient id="v" x1="-64.28" y1="21.8" x2="-47.91" y2="21.8" xlink:href="#a"/><linearGradient id="w" x1="-46.08" y1="29.99" x2="-37.77" y2="29.99" xlink:href="#a"/><linearGradient id="x" x1="-70.09" y1="14.96" x2="-65.8" y2="14.96" xlink:href="#a"/><linearGradient id="y" x1="-61.95" y1="20.54" x2="-45.58" y2="20.54" xlink:href="#a"/><linearGradient id="z" x1="-43.75" y1="28.72" x2="-35.44" y2="28.72" xlink:href="#a"/><linearGradient id="A" x1="-67.76" y1="13.7" x2="-63.47" y2="13.7" xlink:href="#a"/><linearGradient id="B" x1="-59.62" y1="19.28" x2="-43.25" y2="19.28" xlink:href="#a"/><linearGradient id="C" x1="-41.42" y1="27.46" x2="-33.11" y2="27.46" xlink:href="#a"/><linearGradient id="D" x1="-65.43" y1="12.43" x2="-61.14" y2="12.43" xlink:href="#a"/><linearGradient id="E" x1="-57.29" y1="18.01" x2="-40.92" y2="18.01" xlink:href="#a"/><linearGradient id="F" x1="-39.09" y1="26.2" x2="-30.78" y2="26.2" xlink:href="#a"/><linearGradient id="G" x1="-63.1" y1="11.17" x2="-58.82" y2="11.17" xlink:href="#a"/><linearGradient id="H" x1="-54.96" y1="16.75" x2="-38.6" y2="16.75" xlink:href="#a"/><linearGradient id="I" x1="-36.76" y1="24.93" x2="-28.45" y2="24.93" xlink:href="#a"/><linearGradient id="J" x1="-60.77" y1="9.91" x2="-56.49" y2="9.91" xlink:href="#a"/><linearGradient id="K" x1="-52.63" y1="15.48" x2="-36.27" y2="15.48" xlink:href="#a"/><linearGradient id="L" x1="-34.43" y1="23.67" x2="-26.12" y2="23.67" xlink:href="#a"/><linearGradient id="M" x1="-58.44" y1="8.64" x2="-54.16" y2="8.64" xlink:href="#a"/><linearGradient id="N" x1="-50.3" y1="14.22" x2="-33.94" y2="14.22" xlink:href="#a"/><linearGradient id="O" x1="-32.1" y1="22.4" x2="-23.79" y2="22.4" xlink:href="#a"/><linearGradient id="P" x1="-56.11" y1="7.38" x2="-51.83" y2="7.38" xlink:href="#a"/><linearGradient id="Q" x1="-47.97" y1="12.95" x2="-31.61" y2="12.95" xlink:href="#a"/><linearGradient id="R" x1="-29.77" y1="21.14" x2="-21.46" y2="21.14" xlink:href="#a"/><linearGradient id="S" x1="-53.78" y1="6.11" x2="-49.5" y2="6.11" xlink:href="#a"/><linearGradient id="T" x1="-45.64" y1="11.69" x2="-29.28" y2="11.69" xlink:href="#a"/><linearGradient id="U" x1="-27.44" y1="19.87" x2="-19.13" y2="19.87" xlink:href="#a"/><linearGradient id="V" x1="-51.45" y1="4.85" x2="-47.17" y2="4.85" xlink:href="#a"/><linearGradient id="W" x1="-43.32" y1="10.43" x2="-26.95" y2="10.43" xlink:href="#a"/><linearGradient id="X" x1="-25.11" y1="18.61" x2="-16.8" y2="18.61" xlink:href="#a"/><linearGradient id="Y" x1="-49.13" y1="3.58" x2="-44.84" y2="3.58" xlink:href="#a"/><filter id="b"><feGaussianBlur stdDeviation="2"/></filter><filter id="c"><feGaussianBlur stdDeviation="2"/></filter><filter id="Z"><feGaussianBlur stdDeviation="1"/></filter><filter id="aa"><feGaussianBlur stdDeviation="2"/></filter><filter id="ab"><feGaussianBlur stdDeviation="1"/></filter><filter id="ac"><feGaussianBlur stdDeviation="1"/></filter></defs><path d="M25.83 15.63c0-.24-.23-.57-.52-.73l-9.29-5.37-.18-.1c-.19-.12-.36-.12-.45-.04l.85-.44c.19-.1.59.2.79.31l8.81 5.03c.29.17.52.5.52.73l-.52.61" style="fill:#4e88c7"/><path d="M25.83 15.63v22.02c0 .05-.01.09-.03.13l.47-.55c.07-.08.08-.11.08-.27V15.02l-.52.61" style="fill:#315b8f"/><path d="M15.3 9.56v22.02c0 .24.24.57.53.73l9.47 5.47c.23.13.42.13.49 0s.03-.08.03-.13V15.63c0-.24-.23-.57-.52-.73l-9.29-5.37-.18-.1c-.19-.12-.36-.12-.45-.04l-.02.02s-.04.09-.04.15Z" style="fill:#2a7de1"/><g style="filter:url(#b)"><path d="m55.24 76.15 35.73-20.63c.78-.45.78-1.57 0-2.02L53.16 31.67c-.36-.21-.81-.21-1.17 0L13.94 53.64c-.78.45-.78 1.57 0 2.02l35.48 20.48c1.8 1.04 4.03 1.04 5.83 0Z" style="fill:#e6e7e8"/></g><g style="filter:url(#c)"><path d="m54.21 72.45 32.9-18.99c.72-.41.72-1.45 0-1.86L52.29 31.5c-.33-.19-.74-.19-1.07 0L16.17 51.74c-.72.41-.72 1.45 0 1.86l32.66 18.86c1.66.96 3.71.96 5.37 0Z" style="fill:#929497"/></g><path d="M16.21 20.08v31.94c.63 0 1.23-.13 1.68-.39l32.32-18.66c.45-.26.67-.61.67-.97V.07c0 .36-34.67 20.02-34.67 20.02Z" style="fill:url(#a)"/><path style="fill:#4e4f51" d="m86.75 36.95 1.38-.8-5.51-3.18-1.38.8 5.51 3.18zM80.34 33.24l1.39-.8-5.51-3.19-1.39.81 5.51 3.18z"/><path style="fill:#4e4f51" d="m86.75 38.22 1.38-.8-5.51-3.19-1.38.8 5.51 3.19zM80.34 34.5l1.39-.8-5.51-3.18-1.39.8 5.51 3.18z"/><path style="fill:#4e4f51" d="m86.75 39.48 1.38-.8-5.51-3.18-1.38.8 5.51 3.18zM80.34 35.77l1.39-.8-5.51-3.19-1.39.8 5.51 3.19z"/><path style="fill:#4e4f51" d="m86.75 40.74 1.38-.8-5.51-3.18-1.38.8 5.51 3.18zM80.34 37.03l1.39-.8-5.51-3.18-1.39.8 5.51 3.18z"/><path style="fill:#4e4f51" d="m86.75 42.01 1.38-.8-5.51-3.18-1.38.8 5.51 3.18zM80.34 38.29l1.39-.8-5.51-3.18-1.39.8 5.51 3.18z"/><path style="fill:#4e4f51" d="m86.75 43.27 1.38-.8-5.51-3.18-1.38.8 5.51 3.18zM80.34 39.56l1.39-.8-5.51-3.18-1.39.8 5.51 3.18z"/><path style="fill:#4e4f51" d="m86.75 44.54 1.38-.8-5.51-3.19-1.38.81 5.51 3.18zM80.34 40.82l1.39-.8-5.51-3.18-1.39.8 5.51 3.18z"/><path style="fill:#4e4f51" d="m86.75 45.8 1.38-.8-5.51-3.18-1.38.8 5.51 3.18zM80.34 42.09l1.39-.8-5.51-3.19-1.39.81 5.51 3.18z"/><path style="fill:#4e4f51" d="m86.75 47.07 1.38-.8-5.51-3.19-1.38.8 5.51 3.19zM80.34 43.35l1.39-.8-5.51-3.18-1.39.8 5.51 3.18z"/><path style="fill:#4e4f51" d="m86.75 48.33 1.38-.8-5.51-3.18-1.38.8 5.51 3.18zM80.34 44.62l1.39-.8-5.51-3.19-1.39.8 5.51 3.19z"/><path style="fill:#4e4f51" d="m86.75 49.6 1.38-.81-5.51-3.18-1.38.8 5.51 3.19zM80.34 45.88l1.39-.8-5.51-3.18-1.39.8 5.51 3.18z"/><path style="fill:#4e4f51" d="m86.75 50.86 1.38-.8-5.51-3.18-1.38.8 5.51 3.18zM80.34 47.15l1.39-.81-5.51-3.18-1.39.8 5.51 3.19z"/><path style="fill:#4e4f51" d="m86.75 52.12 1.38-.8-5.51-3.18-1.38.8 5.51 3.18zM80.34 48.41l1.39-.8-5.51-3.18-1.39.8 5.51 3.18z"/><g><path style="fill:#58595b" d="m73.06 44.61 13.87 8.01V36.7l-13.87-8v15.91z"/><path style="fill:#4e4f51" d="m70.14 46.43 13.87 8.01V38.53l-13.87-8.01v15.91z"/><path style="fill:#757779" d="m86.93 36.7-2.92 1.83v15.91l2.92-1.82V36.7z"/><path style="fill:#8e9093" d="m73.06 28.7-2.92 1.82 13.87 8.01 2.92-1.83-13.87-8z"/></g><g><path style="fill:#4e4f51" d="m70.83 8.94 1.38-.8-5.51-3.18-1.39.8 5.52 3.18zM64.42 5.23l1.39-.8-5.51-3.19-1.39.81 5.51 3.18z"/><path style="fill:#4e4f51" d="m70.83 10.21 1.38-.8-5.51-3.19-1.39.8 5.52 3.19zM64.42 6.49l1.39-.8-5.51-3.18-1.39.8 5.51 3.18z"/><path style="fill:#4e4f51" d="m70.83 11.47 1.38-.8-5.51-3.18-1.39.8 5.52 3.18zM64.42 7.76l1.39-.8-5.51-3.19-1.39.8 5.51 3.19z"/><path style="fill:#4e4f51" d="m70.83 12.73 1.38-.8-5.51-3.18-1.39.8 5.52 3.18zM64.42 9.02l1.39-.8-5.51-3.18-1.39.8 5.51 3.18z"/><path style="fill:#4e4f51" d="m70.83 14 1.38-.8-5.51-3.18-1.39.8L70.83 14zM64.42 10.29l1.39-.81L60.3 6.3l-1.39.8 5.51 3.19z"/><path style="fill:#4e4f51" d="m70.83 15.26 1.38-.8-5.51-3.18-1.39.8 5.52 3.18zM64.42 11.55l1.39-.8-5.51-3.18-1.39.8 5.51 3.18z"/><path style="fill:#4e4f51" d="m70.83 16.53 1.38-.8-5.51-3.19-1.39.81 5.52 3.18zM64.42 12.81l1.39-.8-5.51-3.18-1.39.8 5.51 3.18z"/><path style="fill:#4e4f51" d="m70.83 17.79 1.38-.8-5.51-3.18-1.39.8 5.52 3.18zM64.42 14.08l1.39-.8-5.51-3.19-1.39.81 5.51 3.18z"/><path style="fill:#4e4f51" d="m70.83 19.06 1.38-.8-5.51-3.19-1.39.8 5.52 3.19zM64.42 15.34l1.39-.8-5.51-3.18-1.39.8 5.51 3.18z"/><path style="fill:#4e4f51" d="m70.83 20.32 1.38-.8-5.51-3.18-1.39.8 5.52 3.18zM64.42 16.61l1.39-.8-5.51-3.19-1.39.8 5.51 3.19z"/><path style="fill:#4e4f51" d="m70.83 21.59 1.38-.81-5.51-3.18-1.39.8 5.52 3.19zM64.42 17.87l1.39-.8-5.51-3.18-1.39.8 5.51 3.18z"/><path style="fill:#4e4f51" d="m70.83 22.85 1.38-.8-5.51-3.18-1.39.8 5.52 3.18zM64.42 19.14l1.39-.81-5.51-3.18-1.39.8 5.51 3.19z"/><path style="fill:#4e4f51" d="m70.83 24.11 1.38-.8-5.51-3.18-1.39.8 5.52 3.18zM64.42 20.4l1.39-.8-5.51-3.18-1.39.8 5.51 3.18z"/><g><path style="fill:#58595b" d="M57.14 16.6 71 24.61V8.69l-13.86-8V16.6z"/><path style="fill:#4e4f51" d="m54.22 18.42 13.87 8.01V10.52L54.22 2.51v15.91z"/><path style="fill:#757779" d="m71 8.69-2.91 1.83v15.91L71 24.61V8.69z"/><path style="fill:#8e9093" d="m57.14.69-2.92 1.82 13.87 8.01L71 8.69l-13.86-8z"/></g></g><g><path style="fill:#4e4f51" d="m86.75 18 1.38-.8-5.51-3.18-1.38.8L86.75 18zM80.34 14.29l1.39-.81-5.51-3.18-1.39.8 5.51 3.19z"/><path style="fill:#4e4f51" d="m86.75 19.26 1.38-.8-5.51-3.18-1.38.8 5.51 3.18zM80.34 15.55l1.39-.8-5.51-3.18-1.39.8 5.51 3.18z"/><path style="fill:#4e4f51" d="m86.75 20.53 1.38-.8-5.51-3.19-1.38.81 5.51 3.18zM80.34 16.81l1.39-.8-5.51-3.18-1.39.8 5.51 3.18z"/><path style="fill:#4e4f51" d="m86.75 21.79 1.38-.8-5.51-3.18-1.38.8 5.51 3.18zM80.34 18.08l1.39-.8-5.51-3.18-1.39.8 5.51 3.18z"/><path style="fill:#4e4f51" d="m86.75 23.06 1.38-.8-5.51-3.19-1.38.8 5.51 3.19zM80.34 19.34l1.39-.8-5.51-3.18-1.39.8 5.51 3.18z"/><path style="fill:#4e4f51" d="m86.75 24.32 1.38-.8-5.51-3.18-1.38.8 5.51 3.18zM80.34 20.61l1.39-.8-5.51-3.19-1.39.8 5.51 3.19z"/><path style="fill:#4e4f51" d="m86.75 25.59 1.38-.81-5.51-3.18-1.38.8 5.51 3.19zM80.34 21.87l1.39-.8-5.51-3.18-1.39.8 5.51 3.18z"/><path style="fill:#4e4f51" d="m86.75 26.85 1.38-.8-5.51-3.18-1.38.8 5.51 3.18zM80.34 23.14l1.39-.81-5.51-3.18-1.39.8 5.51 3.19z"/><path style="fill:#4e4f51" d="m86.75 28.11 1.38-.8-5.51-3.18-1.38.8 5.51 3.18zM80.34 24.4l1.39-.8-5.51-3.18-1.39.8 5.51 3.18z"/><path style="fill:#4e4f51" d="m86.75 29.38 1.38-.8-5.51-3.18-1.38.8 5.51 3.18zM80.34 25.66l1.39-.8-5.51-3.18-1.39.8 5.51 3.18z"/><path style="fill:#4e4f51" d="m86.75 30.64 1.38-.8-5.51-3.18-1.38.8 5.51 3.18zM80.34 26.93l1.39-.8-5.51-3.18-1.39.8 5.51 3.18z"/><path style="fill:#4e4f51" d="m86.75 31.91 1.38-.8-5.51-3.19-1.38.8 5.51 3.19zM80.34 28.19l1.39-.8-5.51-3.18-1.39.8 5.51 3.18z"/><path style="fill:#4e4f51" d="m86.75 33.17 1.38-.8-5.51-3.18-1.38.8 5.51 3.18zM80.34 29.46l1.39-.8-5.51-3.19-1.39.8 5.51 3.19z"/><g><path style="fill:#58595b" d="m73.06 25.66 13.87 8V17.75l-13.87-8v15.91z"/><path style="fill:#4e4f51" d="m70.14 27.48 13.87 8.01V19.57l-13.87-8v15.91z"/><path style="fill:#757779" d="m86.93 17.75-2.92 1.82v15.92l2.92-1.83V17.75z"/><path style="fill:#8e9093" d="m73.06 9.75-2.92 1.82 13.87 8 2.92-1.82-13.87-8z"/></g></g><g><path d="M18.83 53.53 44.42 68.3l5.95 3.44c.62.36 1.43.55 2.19.55.63 0 1.23-.13 1.68-.39l6.45-3.73 25.87-14.93c.45-.26.67-.61.67-.97 0-.44-.32-.9-.95-1.26L54.74 32.8c-1.15-.66-2.88-.73-3.87-.16L18.55 51.29c-.99.57-.87 1.57.28 2.24Z" style="fill:#666"/></g><g><path style="fill:#a6a8ab" d="M50.89.07v33.14l36.34 19.57V20.72L50.89.07z"/></g><g><path style="fill:#929497" d="m60.05 37-26.5-15.43.07-7.11L60 29.91l.05 7.09z"/><path style="fill:#a6a8ab" d="M60 29.92 33.62 14.46l.44-.26 26.38 15.45-.44.27z"/><path style="fill:#6d6e70" d="m60.44 36.77-.39.23-.05-7.09.44-.26v7.12z"/><path style="fill:#929497" d="m34.03 16.49 27.14 15.75.13 7.22-27.15-15.75"/><path style="fill:#a6a8ab" d="m34.03 16.49 27.14 15.75.45-.26-27.15-15.73"/><path style="fill:#6d6e70" d="m61.68 39.23-.38.23-.13-7.22.45-.26.06 7.25z"/><g><path style="fill:#929497" d="M56.87 38.46 31.28 23.82l-.12-7.22 25.59 14.64.12 7.22z"/><path style="fill:#a6a8ab" d="M56.75 31.24 31.16 16.6l.44-.24 25.59 14.62-.44.26z"/><path style="fill:#6d6e70" d="m57.25 38.23-.38.23-.12-7.22.44-.26.06 7.25z"/></g><g><path style="fill:#929497" d="M30.86 18.54 58 34.3l.13 7.22-27.15-15.75"/><path style="fill:#a6a8ab" d="M30.86 18.54 58 34.3l.45-.27L31.3 18.31"/><path style="fill:#6d6e70" d="m58.51 41.29-.38.23L58 34.3l.45-.27.06 7.26z"/></g></g><g><path d="M52.56 40.74v31.94c.63 0 1.23-.13 1.68-.39l32.32-18.66c.45-.26.67-.61.67-.97V20.72c0 .36-.22.71-.67.97L60.69 36.62l-6.45 3.73c-.45.26-1.05.39-1.68.39Z" style="fill:url(#d)"/></g><g><path d="M16.44 20.1v31.94c0 .44.32.9.95 1.26l32.99 18.84c.62.36 1.43.55 2.19.55V40.75c-.76 0-1.56-.18-2.19-.55l-5.95-3.44-27.04-15.4c-.63-.36-.95-.82-.95-1.26Z" style="fill:url(#e)"/></g><g><path d="m61.18 66.27.6.43c.21.15.48.03.81-.17l5.58-3.2c1.03-.61 1.21-.71 1.21-1.87V40.67c0-.32.06-1.09-.51-1.09-.39 0-.58.08-.58.08s.33.4.37.61c.01.07.02.14.02.22v20.39c0 1.09-.22 1.28-1.12 1.83l-5.13 3.02-.5.3c-.11.06-.27.13-.37.16-.19.05-.24.15-.38.07Z" style="fill:#e6e7e8"/><path d="m61.57 66.25 6.6-3.81c.3-.18.55-.65.55-1.05V40.13c0-.41-.25-.59-.55-.42l-6.6 3.81c-.3.18-.55.65-.55 1.05v21.26c0 .41.25.59.55.42Z" style="fill:url(#f)"/></g><g><path d="m61.47 42.36 6.8-3.93c.17-.1.31-.34.31-.54l-.02-3.73c0-.2-.14-.28-.31-.18l-6.8 3.93c-.17.1-.31.34-.31.54l.02 3.73c0 .2.14.28.31.18Z" style="fill:#a6a8ab"/><ellipse cx="68.14" cy="38.02" rx=".19" ry=".11" transform="rotate(-59.69 68.1427 38.0195)" style="fill:#929497"/><ellipse cx="66.49" cy="38.97" rx=".19" ry=".11" transform="rotate(-59.69 66.4948 38.9737)" style="fill:#929497"/><ellipse cx="64.85" cy="39.92" rx=".19" ry=".11" transform="rotate(-59.69 64.852 39.9192)" style="fill:#929497"/><ellipse cx="63.2" cy="40.87" rx=".19" ry=".11" transform="rotate(-59.69 63.204 40.8734)" style="fill:#929497"/><ellipse cx="61.56" cy="41.82" rx=".19" ry=".11" transform="rotate(-59.69 61.5611 41.8189)" style="fill:#929497"/><ellipse cx="68.14" cy="34.62" rx=".19" ry=".11" transform="rotate(-59.69 68.135 34.6212)" style="fill:#929497"/><ellipse cx="66.49" cy="35.57" rx=".19" ry=".11" transform="rotate(-59.69 66.5007 35.5716)" style="fill:#929497"/><ellipse cx="64.85" cy="36.52" rx=".19" ry=".11" transform="rotate(-59.69 64.8529 36.5258)" style="fill:#929497"/><ellipse cx="63.2" cy="37.47" rx=".19" ry=".11" transform="rotate(-59.69 63.21 37.4713)" style="fill:#929497"/><ellipse cx="61.56" cy="38.42" rx=".19" ry=".11" transform="rotate(-59.69 61.562 38.4255)" style="fill:#929497"/></g><g><path d="M79.91 45.96c0-.24-.23-.57-.52-.73l-9.29-5.37-.18-.1c-.19-.12-.36-.12-.45-.04l.85-.44c.19-.1.59.2.79.31l8.81 5.03c.29.17.52.5.52.73l-.52.61" style="fill:#4e88c7"/><path d="M79.91 45.95v22.02c0 .05-.01.09-.03.13l.47-.55c.07-.08.08-.11.08-.27V45.34l-.52.61" style="fill:#315b8f"/><path d="M69.38 39.88V61.9c0 .24.24.57.53.73l9.47 5.47c.23.13.42.13.49 0s.03-.08.03-.13V45.95c0-.24-.23-.57-.52-.73l-9.29-5.37-.18-.1c-.19-.12-.36-.12-.45-.04l-.02.02s-.04.09-.04.15Z" style="fill:#2a7de1"/></g><g><path d="m17.16 21.38 27.26 15.38 5.95 3.44c.62.36 1.43.55 2.19.55.63 0 1.23-.13 1.68-.39l6.45-3.73L86.56 21.7c.45-.26.67-.61.67-.97 0-.44-.32-.9-.95-1.26L53.09.55c-1.15-.66-2.88-.73-3.87-.16L16.88 19.14c-.99.57-.87 1.57.28 2.24Z" style="fill:#f1f1f2"/><path style="fill:url(#g)" d="m62.12 32.7.26.15 16.11-9.3-.26-.15-16.11 9.3z"/><path style="fill:url(#h)" d="m51.98 38.56.26.15 8.05-4.65-.26-.15-8.05 4.65z"/><path style="fill:url(#i)" d="m80.01 22.37.26.15 4.03-2.32-.26-.15-4.03 2.32z"/><path style="fill:url(#j)" d="m59.8 31.44.25.15 16.11-9.3-.26-.15-16.1 9.3z"/><path style="fill:url(#k)" d="m49.65 37.3.26.14 8.05-4.65-.26-.14-8.05 4.65z"/><path style="fill:url(#l)" d="m77.69 21.11.25.15 4.03-2.33-.26-.15-4.02 2.33z"/><path style="fill:url(#m)" d="m57.47 30.17.25.15 16.11-9.3-.26-.15-16.1 9.3z"/><path style="fill:url(#n)" d="m47.32 36.03.26.15 8.05-4.65-.26-.15-8.05 4.65z"/><path style="fill:url(#o)" d="m75.36 19.84.25.15 4.03-2.32-.26-.15-4.02 2.32z"/><path style="fill:url(#p)" d="m55.14 28.91.26.15 16.1-9.3-.26-.15-16.1 9.3z"/><path style="fill:url(#q)" d="m44.99 34.77.26.15 8.05-4.65-.26-.15-8.05 4.65z"/><path style="fill:url(#r)" d="m73.03 18.58.26.15 4.02-2.33-.26-.15-4.02 2.33z"/><path style="fill:url(#s)" d="m52.81 27.64.26.15 16.1-9.3-.26-.14-16.1 9.29z"/><path style="fill:url(#t)" d="m42.66 33.5.26.15L50.97 29l-.26-.15-8.05 4.65z"/><path style="fill:url(#u)" d="m70.7 17.32.26.14 4.02-2.32-.25-.15-4.03 2.33z"/><path style="fill:url(#v)" d="m50.48 26.38.26.15 16.1-9.3-.25-.15-16.11 9.3z"/><path style="fill:url(#w)" d="m40.33 32.24.26.15 8.05-4.65-.25-.15-8.06 4.65z"/><path style="fill:url(#x)" d="m68.37 16.05.26.15 4.02-2.32-.25-.15-4.03 2.32z"/><path style="fill:url(#y)" d="m48.15 25.12.26.14 16.1-9.29-.25-.15-16.11 9.3z"/><path style="fill:url(#z)" d="m38 30.97.26.15 8.05-4.65-.25-.15L38 30.97z"/><path style="fill:url(#A)" d="m66.04 14.79.26.15 4.03-2.33-.26-.15-4.03 2.33z"/><path style="fill:url(#B)" d="m45.82 23.85.26.15 16.11-9.3-.26-.15-16.11 9.3z"/><path style="fill:url(#C)" d="m35.67 29.71.26.15 8.06-4.65-.26-.15-8.06 4.65z"/><path style="fill:url(#D)" d="m63.71 13.52.26.15L68 11.35l-.26-.15-4.03 2.32z"/><path style="fill:url(#E)" d="m43.49 22.59.26.15 16.11-9.3-.26-.15-16.11 9.3z"/><path style="fill:url(#F)" d="m33.34 28.45.26.14 8.06-4.65-.26-.14-8.06 4.65z"/><path style="fill:url(#G)" d="m61.38 12.26.26.15 4.03-2.33-.26-.15-4.03 2.33z"/><path style="fill:url(#H)" d="m41.16 21.32.26.15 16.11-9.3-.26-.15-16.11 9.3z"/><path style="fill:url(#I)" d="m31.02 27.18.25.15 8.06-4.65-.26-.15-8.05 4.65z"/><path style="fill:url(#J)" d="m59.05 10.99.26.15 4.03-2.32-.26-.15-4.03 2.32z"/><path style="fill:url(#K)" d="m38.83 20.06.26.15 16.11-9.3-.26-.15-16.11 9.3z"/><path style="fill:url(#L)" d="m28.69 25.92.25.15L37 21.42l-.26-.15-8.05 4.65z"/><path style="fill:url(#M)" d="m56.72 9.73.26.15 4.03-2.33-.26-.15-4.03 2.33z"/><path style="fill:url(#N)" d="m36.5 18.79.26.15 16.11-9.3-.26-.15-16.11 9.3z"/><path style="fill:url(#O)" d="m26.36 24.65.26.15 8.05-4.65-.26-.15-8.05 4.65z"/><path style="fill:url(#P)" d="m54.39 8.47.26.14 4.03-2.32-.26-.15-4.03 2.33z"/><path style="fill:url(#Q)" d="m34.18 17.53.25.15 16.11-9.3-.26-.15-16.1 9.3z"/><path style="fill:url(#R)" d="m24.03 23.39.26.15 8.05-4.65-.26-.15-8.05 4.65z"/><path style="fill:url(#S)" d="m52.07 7.2.25.15 4.03-2.33-.26-.14-4.02 2.32z"/><path style="fill:url(#T)" d="m31.85 16.27.25.14 16.11-9.29-.26-.15-16.1 9.3z"/><path style="fill:url(#U)" d="m21.7 22.12.26.15 8.05-4.65-.26-.15-8.05 4.65z"/><path style="fill:url(#V)" d="m49.74 5.94.25.15 4.03-2.33-.26-.15-4.02 2.33z"/><path style="fill:url(#W)" d="m29.52 15 .26.15 16.1-9.3-.26-.15-16.1 9.3z"/><path style="fill:url(#X)" d="m19.37 20.86.26.15 8.05-4.65-.26-.15-8.05 4.65z"/><path style="fill:url(#Y)" d="m47.41 4.67.26.15 4.02-2.32-.26-.15-4.02 2.32z"/></g><g><g style="filter:url(#Z)"><path style="fill:#babcbe" d="M20.47 55.62 4.3 64.99l28.59 16.52L47.3 71.1 20.47 55.62z"/></g><g style="filter:url(#aa)"><path d="m21.08 54.69 25.18 14.33c.47.27.85-.02.85-.64V42.67c0-.62-.38-1.35-.85-1.62L21.08 26.72c-.47-.27-.85.02-.85.64v25.71c0 .62.38 1.35.85 1.62Z" style="fill:#929497"/></g><path style="fill:#1752a0" d="m20.65 53.28 26.46 15.28v-7.59L20.65 45.69v7.59z"/><path style="fill:#164a8b" d="M20.65 45.69 4.89 62.86v1.9l15.76-11.48v-7.59z"/><path style="fill:#1a428a" d="m4.89 64.76 26.45 15.28v-1.9L4.89 62.86v1.9z"/><path style="fill:#164a8b" d="M47.11 60.97 31.34 78.14v1.9l15.77-11.48v-7.59z"/><path style="fill:#2a7de1" d="m31.34 78.14 15.77-17.17-26.46-15.28L4.89 62.86l26.45 15.28z"/><g style="filter:url(#ab)"><path style="fill:#164a8b" d="M19.39 49.54 8.63 62.04 30.7 74.29l15.5-13.84-26.81-10.91z"/></g><path style="fill:none;stroke:#1a428a;stroke-linecap:round;stroke-miterlimit:10;stroke-width:.22px" d="M29.53 76.14 43.8 60.6M27.2 74.78l14.27-15.53M10.13 65.05 24.4 49.51M7.81 63.69l14.27-15.54"/><path style="fill:none;stroke:#1a428a;stroke-linecap:round;stroke-miterlimit:10;stroke-width:.24px" d="m39.1 58.26-4.78 5.1-3.2-1.85 2.71-2.7-6.13-3.58-2.59 2.42-3.1-1.75 4.69-4.8 12.4 7.16z"/><path d="m31.03 59.26-3.83 3.78c-.09.09-.23.12-.35.07l-2.52-1.4c-.2-.09-.25-.36-.1-.51l3.85-3.72c.09-.09.23-.12.35-.07l2.49 1.34c.2.09.25.36.1.51Z" style="fill:none;stroke:#1a428a;stroke-linecap:round;stroke-miterlimit:10;stroke-width:.24px"/><path style="fill:none;stroke:#1a428a;stroke-linecap:round;stroke-miterlimit:10;stroke-width:.24px" d="m21.68 61.12.26 4.27 5.71-.54 2.66-2.3 3.1 1.79-3.24 3.14-11.86 1.35-.74-8.34 3.59-3.55 3.19 1.75-2.67 2.43z"/><g><path style="fill:#1752a0" d="m20.65 43.61 26.46 15.28V51.3L20.65 36.02v7.59z"/><path style="fill:#164a8b" d="M20.65 36.02 4.89 53.2v1.89l15.76-11.48v-7.59z"/><path style="fill:#1a428a" d="m4.89 55.09 26.45 15.28v-1.9L4.89 53.2v1.89z"/><path style="fill:#164a8b" d="M47.11 51.3 31.34 68.47v1.9l15.77-11.48V51.3z"/><path style="fill:#2a7de1" d="M31.34 68.47 47.11 51.3 20.65 36.02 4.89 53.2l26.45 15.27z"/><g style="filter:url(#ac)"><path style="fill:#164a8b" d="M19.39 39.42 8.63 51.92 30.7 64.18l15.5-13.85-26.81-10.91z"/></g><path style="fill:none;stroke:#1a428a;stroke-linecap:round;stroke-miterlimit:10;stroke-width:.22px" d="M29.53 66.24 43.8 50.7M27.2 64.88l14.27-15.53M10.13 55.15 24.4 39.61M7.81 53.79l14.27-15.54"/><path style="fill:none;stroke:#1a428a;stroke-linecap:round;stroke-miterlimit:10;stroke-width:.24px" d="m39.1 48.36-4.78 5.1-3.2-1.85 2.71-2.7-6.13-3.58-2.59 2.42-3.1-1.75 4.69-4.8 12.4 7.16z"/><path d="m31.03 49.36-3.83 3.78c-.09.09-.23.12-.35.07l-2.52-1.4c-.2-.09-.25-.36-.1-.51l3.85-3.72c.09-.09.23-.12.35-.07l2.49 1.34c.2.09.25.36.1.51Z" style="fill:none;stroke:#1a428a;stroke-linecap:round;stroke-miterlimit:10;stroke-width:.24px"/><path style="fill:none;stroke:#1a428a;stroke-linecap:round;stroke-miterlimit:10;stroke-width:.24px" d="m21.68 51.22.26 4.27 5.71-.54 2.66-2.3 3.1 1.79-3.24 3.14-11.86 1.35-.74-8.34 3.59-3.55 3.19 1.75-2.67 2.43z"/></g><g><path style="fill:#1752a0" d="m20.65 33.94 26.46 15.28v-7.59L20.65 26.36v7.58z"/><path style="fill:#164a8b" d="M20.65 26.36 4.89 43.53v1.89l15.76-11.48v-7.58z"/><path style="fill:#1a428a" d="M4.89 45.42 31.34 60.7v-1.9L4.89 43.53v1.89z"/><path style="fill:#164a8b" d="M47.11 41.63 31.34 58.8v1.9l15.77-11.48v-7.59z"/><path style="fill:#2a7de1" d="m31.34 58.8 15.77-17.17-26.46-15.27L4.89 43.53 31.34 58.8z"/><path style="fill:none;stroke:#1a428a;stroke-linecap:round;stroke-miterlimit:10;stroke-width:.22px" d="M29.53 56.33 43.8 40.8M27.2 54.98l14.27-15.54M10.13 45.24 24.4 29.7M7.81 43.88l14.27-15.54"/><path style="fill:none;stroke:#1a428a;stroke-linecap:round;stroke-miterlimit:10;stroke-width:.24px" d="m39.1 38.45-4.78 5.1-3.2-1.85 2.71-2.7-6.13-3.58-2.59 2.42-3.1-1.75 4.69-4.8 12.4 7.16z"/><path d="m31.03 39.45-3.83 3.78c-.09.09-.23.12-.35.07l-2.52-1.4c-.2-.09-.25-.36-.1-.51l3.85-3.72c.09-.09.23-.12.35-.07l2.49 1.34c.2.09.25.36.1.51Z" style="fill:none;stroke:#1a428a;stroke-linecap:round;stroke-miterlimit:10;stroke-width:.24px"/><path style="fill:none;stroke:#1a428a;stroke-linecap:round;stroke-miterlimit:10;stroke-width:.24px" d="m21.68 41.31.26 4.27 5.71-.54 2.66-2.3 3.1 1.79-3.24 3.14-11.86 1.35-.74-8.33 3.59-3.56 3.19 1.75-2.67 2.43z"/></g></g></svg>