<svg width="215" height="191" viewBox="0 0 215 191" fill="none" xmlns="http://www.w3.org/2000/svg">
<g filter="url(#filter0_f_1082_13447)">
<path d="M190.96 122.594L127.492 159.707L112.734 168.338C111.073 169.258 109.208 169.732 107.315 169.714C105.864 169.755 104.427 169.422 103.139 168.745L87.1373 159.369L22.9851 121.865C21.8693 121.214 21.3242 120.339 21.3242 119.427C21.3242 118.323 22.1212 117.161 23.6741 116.255L101.874 70.5057C104.718 68.8441 109.012 68.6618 111.469 70.0994L191.629 116.979C194.107 118.427 193.799 120.933 190.96 122.594Z" fill="#EAEAEA"/>
</g>
<g opacity="0.5" filter="url(#filter1_f_1082_13447)">
<path d="M182.927 120.891L125.9 154.238L112.64 161.993C111.147 162.819 109.471 163.245 107.77 163.228C106.467 163.266 105.175 162.966 104.018 162.358L89.6401 153.933L31.9982 120.236C30.9956 119.651 30.5059 118.864 30.5059 118.045C30.5059 117.053 31.222 116.009 32.6173 115.195L102.882 74.0883C105.437 72.5953 109.295 72.4315 111.503 73.7232L183.528 115.845C185.755 117.147 185.477 119.398 182.927 120.891Z" fill="#888888"/>
</g>
<g opacity="0.3" filter="url(#filter2_f_1082_13447)">
<path fill-rule="evenodd" clip-rule="evenodd" d="M27.6973 117.295L52.1943 103.709L191.349 118.447L107.588 168.648L56.8313 138.251L27.6973 117.295Z" fill="#494C50"/>
</g>
<path d="M165.153 38.4106C165.21 38.0624 165.345 37.732 165.547 37.4448C165.75 37.1576 166.015 36.9212 166.322 36.7538L187.034 24.646L187.432 24.412C187.866 24.1593 188.245 24.1405 188.443 24.3231L186.549 23.3262C186.138 23.1109 185.237 23.7708 184.793 24.0329L165.153 35.3918C164.846 35.5593 164.581 35.7957 164.379 36.0829C164.176 36.3701 164.041 36.7004 163.984 37.0487L165.139 38.42" fill="#4F89C8"/>
<path d="M165.153 38.4016V88.1152C165.151 88.2143 165.173 88.3124 165.217 88.4007L164.178 87.1558C164.104 87.0757 164.05 86.9797 164.019 86.8751C163.987 86.7704 163.98 86.6599 163.998 86.552V37.0303L165.153 38.4016Z" fill="#315B90"/>
<path d="M188.605 24.6932V74.4068C188.605 74.9403 188.074 75.6798 187.431 76.0636L166.322 88.4054C165.813 88.7049 165.398 88.6909 165.222 88.4054C165.178 88.3188 165.155 88.2222 165.157 88.1246V38.411C165.214 38.0627 165.349 37.7324 165.552 37.4452C165.755 37.158 166.02 36.9216 166.326 36.7542L187.039 24.6464L187.436 24.4123C187.87 24.1596 188.249 24.1409 188.448 24.3234L188.494 24.3749C188.566 24.465 188.605 24.5773 188.605 24.6932Z" fill="#2A7DE1"/>
<path d="M28.9669 81.8575L25.876 80.0509L38.1611 72.8667L41.2475 74.6733L28.9669 81.8575Z" fill="#4F4F51"/>
<path d="M43.2343 73.4751L40.1479 71.6686L52.4285 64.4844L55.5194 66.291L43.2343 73.4751Z" fill="#4F4F51"/>
<path d="M28.9669 84.7124L25.876 82.9059L38.1611 75.7217L41.2475 77.5283L28.9669 84.7124Z" fill="#4F4F51"/>
<path d="M43.2343 76.3301L40.1479 74.5235L52.4285 67.3394L55.5194 69.1459L43.2343 76.3301Z" fill="#4F4F51"/>
<path d="M28.9669 87.5674L25.876 85.7609L38.1611 78.5767L41.2475 80.3832L28.9669 87.5674Z" fill="#4F4F51"/>
<path d="M43.2343 79.1854L40.1479 77.3741L52.4285 70.1899L55.5194 72.0012L43.2343 79.1854Z" fill="#4F4F51"/>
<path d="M28.9669 90.4224L25.876 88.6158L38.1611 81.4316L41.2475 83.2382L28.9669 90.4224Z" fill="#4F4F51"/>
<path d="M43.2343 82.0357L40.1479 80.2291L52.4285 73.0449L55.5194 74.8515L43.2343 82.0357Z" fill="#4F4F51"/>
<path d="M28.9669 93.273L25.876 91.4664L38.1611 84.2822L41.2475 86.0888L28.9669 93.273Z" fill="#4F4F51"/>
<path d="M43.2343 84.8907L40.1479 83.0841L52.4285 75.8999L55.5194 77.7065L43.2343 84.8907Z" fill="#4F4F51"/>
<path d="M28.9669 96.128L25.876 94.3214L38.1611 87.1372L41.2475 88.9438L28.9669 96.128Z" fill="#4F4F51"/>
<path d="M43.2343 87.7456L40.1479 85.9391L52.4285 78.7549L55.5194 80.5615L43.2343 87.7456Z" fill="#4F4F51"/>
<path d="M28.9669 98.9829L25.876 97.1764L38.1611 89.9922L41.2475 91.7988L28.9669 98.9829Z" fill="#4F4F51"/>
<path d="M43.2343 90.6006L40.1479 88.7941L52.4285 81.6099L55.5194 83.4164L43.2343 90.6006Z" fill="#4F4F51"/>
<path d="M28.9669 101.837L25.876 100.031L38.1611 92.8467L41.2475 94.6533L28.9669 101.837Z" fill="#4F4F51"/>
<path d="M43.2343 93.4554L40.1479 91.6441L52.4285 84.46L55.5194 86.2665L43.2343 93.4554Z" fill="#4F4F51"/>
<path d="M28.9669 104.693L25.876 102.881L38.1611 95.6973L41.2475 97.5085L28.9669 104.693Z" fill="#4F4F51"/>
<path d="M43.2343 96.3057L40.1479 94.4991L52.4285 87.3149L55.5194 89.1215L43.2343 96.3057Z" fill="#4F4F51"/>
<path d="M28.9669 107.543L25.876 105.736L38.1611 98.5522L41.2475 100.363L28.9669 107.543Z" fill="#4F4F51"/>
<path d="M43.2343 99.1607L40.1479 97.3541L52.4285 90.1699L55.5194 91.9765L43.2343 99.1607Z" fill="#4F4F51"/>
<path d="M28.9669 110.398L25.876 108.591L38.1611 101.407L41.2475 103.214L28.9669 110.398Z" fill="#4F4F51"/>
<path d="M43.2343 102.016L40.1479 100.209L52.4285 93.0249L55.5194 94.8315L43.2343 102.016Z" fill="#4F4F51"/>
<path d="M28.9669 113.253L25.876 111.446L38.1611 104.262L41.2475 106.069L28.9669 113.253Z" fill="#4F4F51"/>
<path d="M43.2343 104.87L40.1479 103.064L52.4285 95.875L55.5194 97.6863L43.2343 104.87Z" fill="#4F4F51"/>
<path d="M28.9669 116.108L25.876 114.301L38.1611 107.117L41.2475 108.924L28.9669 116.108Z" fill="#4F4F51"/>
<path d="M43.2343 107.721L40.1479 105.914L52.4285 98.73L55.5194 100.537L43.2343 107.721Z" fill="#4F4F51"/>
<path d="M59.4694 99.1465L28.5693 117.222V81.3007L59.4694 63.2256V99.1465Z" fill="#58595B"/>
<path d="M65.9748 103.26L35.0747 121.331V85.4098L65.9748 67.3394V103.26Z" fill="#4F4F51"/>
<path d="M28.5693 81.3008L35.0746 85.41V121.331L28.5693 117.222V81.3008Z" fill="#757679"/>
<path d="M59.4694 63.2256L65.9747 67.3395L35.0746 85.41L28.5693 81.3007L59.4694 63.2256Z" fill="#8F9194"/>
<path d="M64.4454 18.6319L61.3545 16.8253L73.6397 9.64111L76.726 11.4477L64.4454 18.6319Z" fill="#4F4F51"/>
<path d="M78.713 10.2498L75.6221 8.43858L87.9072 1.25439L90.9982 3.06565L78.713 10.2498Z" fill="#4F4F51"/>
<path d="M64.4454 21.4869L61.3545 19.6803L73.6397 12.4961L76.726 14.3027L64.4454 21.4869Z" fill="#4F4F51"/>
<path d="M78.713 13.1001L75.6221 11.2936L87.9072 4.10938L90.9982 5.91595L78.713 13.1001Z" fill="#4F4F51"/>
<path d="M64.4454 24.3421L61.3545 22.5309L73.6397 15.3467L76.726 17.1579L64.4454 24.3421Z" fill="#4F4F51"/>
<path d="M78.713 15.9551L75.6221 14.1485L87.9072 6.96436L90.9982 8.77093L78.713 15.9551Z" fill="#4F4F51"/>
<path d="M64.4454 27.1924L61.3545 25.3858L73.6397 18.2017L76.726 20.0082L64.4454 27.1924Z" fill="#4F4F51"/>
<path d="M78.713 18.8101L75.6221 17.0035L87.9072 9.81934L90.9982 11.6259L78.713 18.8101Z" fill="#4F4F51"/>
<path d="M64.4454 30.0474L61.3545 28.2408L73.6397 21.0566L76.726 22.8632L64.4454 30.0474Z" fill="#4F4F51"/>
<path d="M78.713 21.6651L75.6221 19.8585L87.9072 12.6743L90.9982 14.4809L78.713 21.6651Z" fill="#4F4F51"/>
<path d="M64.4454 32.9024L61.3545 31.0958L73.6397 23.9116L76.726 25.7182L64.4454 32.9024Z" fill="#4F4F51"/>
<path d="M78.713 24.5152L75.6221 22.7086L87.9072 15.5244L90.9982 17.3357L78.713 24.5152Z" fill="#4F4F51"/>
<path d="M64.4454 35.7569L61.3545 33.9503L73.6397 26.7661L76.726 28.5727L64.4454 35.7569Z" fill="#4F4F51"/>
<path d="M78.713 27.3702L75.6221 25.5636L87.9072 18.3794L90.9982 20.186L78.713 27.3702Z" fill="#4F4F51"/>
<path d="M64.4454 38.6121L61.3545 36.8009L73.6397 29.6167L76.726 31.4233L64.4454 38.6121Z" fill="#4F4F51"/>
<path d="M78.713 30.2251L75.6221 28.4186L87.9072 21.2344L90.9982 23.041L78.713 30.2251Z" fill="#4F4F51"/>
<path d="M64.4454 41.4624L61.3545 39.6559L73.6397 32.4717L76.726 34.2783L64.4454 41.4624Z" fill="#4F4F51"/>
<path d="M78.713 33.0801L75.6221 31.2735L87.9072 24.0894L90.9982 25.8959L78.713 33.0801Z" fill="#4F4F51"/>
<path d="M64.4454 44.3174L61.3545 42.5108L73.6397 35.3267L76.726 37.1332L64.4454 44.3174Z" fill="#4F4F51"/>
<path d="M78.713 35.9351L75.6221 34.1285L87.9072 26.9443L90.9982 28.7509L78.713 35.9351Z" fill="#4F4F51"/>
<path d="M64.4454 47.1724L61.3545 45.3658L73.6397 38.1816L76.726 39.9882L64.4454 47.1724Z" fill="#4F4F51"/>
<path d="M78.713 38.7899L75.6221 36.9786L87.9072 29.7944L90.9982 31.6057L78.713 38.7899Z" fill="#4F4F51"/>
<path d="M64.4454 50.0272L61.3545 48.2206L73.6397 41.0317L76.726 42.843L64.4454 50.0272Z" fill="#4F4F51"/>
<path d="M78.713 41.6402L75.6221 39.8336L87.9072 32.6494L90.9982 34.456L78.713 41.6402Z" fill="#4F4F51"/>
<path d="M64.4454 52.8775L61.3545 51.0709L73.6397 43.8867L76.726 45.698L64.4454 52.8775Z" fill="#4F4F51"/>
<path d="M78.713 44.4952L75.6221 42.6886L87.9072 35.5044L90.9982 37.311L78.713 44.4952Z" fill="#4F4F51"/>
<path d="M94.9484 35.9209L64.0483 53.9914V18.0751L94.9484 0V35.9209Z" fill="#58595B"/>
<path d="M101.454 40.0303L70.5537 58.1054V22.1845L101.454 4.10938V40.0303Z" fill="#4F4F51"/>
<path d="M64.0483 18.0752L70.5536 22.1845V58.1054L64.0483 53.9914V18.0752Z" fill="#757679"/>
<path d="M94.9484 0L101.454 4.10926L70.5536 22.1844L64.0483 18.0751L94.9484 0Z" fill="#8F9194"/>
<path d="M28.9669 39.0804L25.876 37.2691L38.1611 30.085L41.2475 31.8915L28.9669 39.0804Z" fill="#4F4F51"/>
<path d="M43.2343 30.6934L40.1479 28.8868L52.4285 21.7026L55.5194 23.5092L43.2343 30.6934Z" fill="#4F4F51"/>
<path d="M28.9669 41.9307L25.876 40.1241L38.1611 32.9399L41.2475 34.7465L28.9669 41.9307Z" fill="#4F4F51"/>
<path d="M43.2343 33.5484L40.1479 31.7418L52.4285 24.5576L55.5194 26.3642L43.2343 33.5484Z" fill="#4F4F51"/>
<path d="M28.9669 44.7857L25.876 42.9791L38.1611 35.7949L41.2475 37.6015L28.9669 44.7857Z" fill="#4F4F51"/>
<path d="M43.2343 36.4032L40.1479 34.5966L52.4285 27.4077L55.5194 29.219L43.2343 36.4032Z" fill="#4F4F51"/>
<path d="M28.9669 47.6407L25.876 45.8341L38.1611 38.6499L41.2475 40.4565L28.9669 47.6407Z" fill="#4F4F51"/>
<path d="M43.2343 39.2581L40.1479 37.4469L52.4285 30.2627L55.5194 32.0739L43.2343 39.2581Z" fill="#4F4F51"/>
<path d="M28.9669 50.4954L25.876 48.6889L38.1611 41.5L41.2475 43.3113L28.9669 50.4954Z" fill="#4F4F51"/>
<path d="M43.2343 42.1084L40.1479 40.3019L52.4285 33.1177L55.5194 34.9243L43.2343 42.1084Z" fill="#4F4F51"/>
<path d="M28.9669 53.3457L25.876 51.5392L38.1611 44.355L41.2475 46.1662L28.9669 53.3457Z" fill="#4F4F51"/>
<path d="M43.2343 44.9634L40.1479 43.1568L52.4285 35.9727L55.5194 37.7792L43.2343 44.9634Z" fill="#4F4F51"/>
<path d="M28.9669 56.2007L25.876 54.3941L38.1611 47.21L41.2475 49.0165L28.9669 56.2007Z" fill="#4F4F51"/>
<path d="M43.2343 47.8184L40.1479 46.0118L52.4285 38.8276L55.5194 40.6342L43.2343 47.8184Z" fill="#4F4F51"/>
<path d="M28.9669 59.0557L25.876 57.2491L38.1611 50.0649L41.2475 51.8715L28.9669 59.0557Z" fill="#4F4F51"/>
<path d="M43.2343 50.6734L40.1479 48.8668L52.4285 41.6826L55.5194 43.4892L43.2343 50.6734Z" fill="#4F4F51"/>
<path d="M28.9669 61.9107L25.876 60.1041L38.1611 52.9199L41.2475 54.7265L28.9669 61.9107Z" fill="#4F4F51"/>
<path d="M43.2343 53.5235L40.1479 51.7169L52.4285 44.5327L55.5194 46.3393L43.2343 53.5235Z" fill="#4F4F51"/>
<path d="M28.9669 64.7657L25.876 62.9544L38.1611 55.7749L41.2475 57.5815L28.9669 64.7657Z" fill="#4F4F51"/>
<path d="M43.2343 56.3785L40.1479 54.5719L52.4285 47.3877L55.5194 49.1943L43.2343 56.3785Z" fill="#4F4F51"/>
<path d="M28.9669 67.6158L25.876 65.8092L38.1611 58.625L41.2475 60.4316L28.9669 67.6158Z" fill="#4F4F51"/>
<path d="M43.2343 59.2334L40.1479 57.4269L52.4285 50.2427L55.5194 52.0493L43.2343 59.2334Z" fill="#4F4F51"/>
<path d="M28.9669 70.4707L25.876 68.6642L38.1611 61.48L41.2475 63.2866L28.9669 70.4707Z" fill="#4F4F51"/>
<path d="M43.2343 62.0884L40.1479 60.2818L52.4285 53.0977L55.5194 54.9042L43.2343 62.0884Z" fill="#4F4F51"/>
<path d="M28.9669 73.3257L25.876 71.5191L38.1611 64.335L41.2475 66.1415L28.9669 73.3257Z" fill="#4F4F51"/>
<path d="M43.2343 64.9434L40.1479 63.1321L52.4285 55.9526L55.5194 57.7592L43.2343 64.9434Z" fill="#4F4F51"/>
<path d="M59.4694 56.3645L28.5693 74.4396V38.5187L59.4694 20.4482V56.3645Z" fill="#58595B"/>
<path d="M65.9748 60.4785L35.0747 78.549V42.6281L65.9748 24.5576V60.4785Z" fill="#4F4F51"/>
<path d="M28.5693 38.5186L35.0746 42.6278V78.5487L28.5693 74.4395V38.5186Z" fill="#757679"/>
<path d="M59.4694 20.4482L65.9747 24.5575L35.0746 42.628L28.5693 38.5187L59.4694 20.4482Z" fill="#8F9194"/>
<path d="M182.927 48.1222L125.899 81.469L112.639 89.2242C111.147 90.0506 109.47 90.476 107.769 90.4598C106.466 90.4973 105.175 90.1977 104.018 89.5892L89.6396 81.1648L31.9977 47.467C30.9951 46.882 30.5054 46.0957 30.5054 45.2766C30.5054 44.2844 31.2215 43.2407 32.6168 42.4263L102.881 1.31971C105.436 -0.173291 109.294 -0.337099 111.502 0.95465L183.527 43.0769C185.754 44.378 185.477 46.6292 182.927 48.1222Z" fill="#F1F2F2"/>
<path d="M107.783 90.46V162.569C106.48 162.606 105.189 162.307 104.031 161.698L32.0114 119.576C31.0088 118.991 30.519 118.204 30.519 117.385V45.2769C30.519 46.0959 31.0088 46.8822 32.0114 47.4672L89.6533 81.165L104.031 89.5895C105.189 90.1979 106.48 90.4975 107.783 90.46Z" fill="url(#paint0_linear_1082_13447)"/>
<path d="M185.043 45.272V117.39C185.043 118.382 184.326 119.421 182.931 120.236L112.644 161.333C111.151 162.159 109.475 162.585 107.774 162.568V90.4598C109.475 90.476 111.151 90.0506 112.644 89.2242L125.904 81.469L182.931 48.1222C184.326 47.3079 185.043 46.2501 185.043 45.272Z" fill="url(#paint1_linear_1082_13447)"/>
<g opacity="0.5" filter="url(#filter3_f_1082_13447)">
<path d="M121.813 150.833L170.408 122.509L197.494 140.355L146.163 169.701L121.813 150.833Z" fill="#888888"/>
</g>
<path d="M199.315 137.876L149.204 167.183V163.542L199.315 134.234V137.876Z" fill="#315B90"/>
<g filter="url(#filter4_f_1082_13447)">
<path d="M170.819 120.351L123.826 149.21V133.639L171.537 106.337L170.819 120.351Z" fill="#888888"/>
</g>
<g filter="url(#filter5_f_1082_13447)">
<path d="M171.274 99.2261L124.281 128.085V112.514L171.992 85.2119L171.274 99.2261Z" fill="#888888"/>
</g>
<g filter="url(#filter6_f_1082_13447)">
<path d="M171.274 77.4912L124.281 106.35V90.7787L171.992 63.4771L171.274 77.4912Z" fill="#888888"/>
</g>
<path d="M124.726 133.603L149.204 163.542V167.183L124.726 148.167V133.603Z" fill="#2163B3"/>
<path d="M174.836 104.286L199.314 134.225V137.862L174.836 118.846V104.286Z" fill="#234572"/>
<path d="M124.726 133.603L174.837 104.295L199.314 134.234L149.204 163.542L124.726 133.603Z" fill="#2A7DE1"/>
<path d="M149.203 163.542L199.314 134.234V137.862L149.203 167.183V163.542Z" fill="#124C92"/>
<g filter="url(#filter7_f_1082_13447)">
<path d="M135.435 133.292L171.156 112.4L188.605 133.742L152.884 154.634L135.435 133.292Z" fill="#2163B3"/>
</g>
<path d="M199.314 116.486L149.203 145.794V142.153L199.314 112.845V116.486Z" fill="#315B90"/>
<path d="M124.726 112.213L149.204 142.153V145.794L124.726 126.778V112.213Z" fill="#2163B3"/>
<path d="M174.836 82.8965L199.314 112.836V116.477L174.836 97.4614V82.8965Z" fill="#234572"/>
<path d="M124.726 112.214L174.837 82.9106L199.314 112.846L149.204 142.153L124.726 112.214Z" fill="#2A7DE1"/>
<path d="M149.203 142.153L199.314 112.845V116.477L149.203 145.794V142.153Z" fill="#124C92"/>
<g filter="url(#filter8_f_1082_13447)">
<path d="M135.435 112.106L171.156 91.2144L188.605 112.556L152.884 133.448L135.435 112.106Z" fill="#2163B3"/>
</g>
<path d="M124.726 105.39L174.837 76.073V61.5127L124.726 90.8298V105.39Z" fill="#112F54"/>
<path d="M199.314 95.098L149.203 124.406V120.769L199.314 91.4614V95.098Z" fill="#315B90"/>
<path d="M124.726 90.8296L149.204 120.769V124.406L124.726 105.39V90.8296Z" fill="#2163B3"/>
<path d="M174.836 61.5127L199.314 91.4476V95.0888L174.836 76.073V61.5127Z" fill="#234572"/>
<path d="M124.726 90.8297L174.837 61.522L199.314 91.4615L149.204 120.769L124.726 90.8297Z" fill="#2A7DE1"/>
<path d="M149.203 120.769L199.314 91.4614V95.0886L149.203 124.406V120.769Z" fill="#124C92"/>
<g filter="url(#filter9_f_1082_13447)">
<path d="M83.0932 150.572L62.3807 162.684L60.981 161.349L80.8524 149.959C81.2959 149.697 82.3734 149.014 82.7846 149.229L84.3451 150.16C84.4054 150.181 84.4583 150.212 84.5024 150.253L84.3451 150.16C84.133 150.086 83.8286 150.141 83.4905 150.338L83.0932 150.572Z" fill="#C1C1C1"/>
</g>
<path d="M102.937 155.08L101.597 156.04C101.135 156.381 100.534 156.11 99.7811 155.665L87.3481 148.448C85.0379 147.072 84.6591 146.838 84.6591 144.236V97.2883C84.6591 96.5769 84.5159 94.8265 85.7957 94.8265C86.2366 94.8058 86.6773 94.8709 87.094 95.0184C86.743 95.427 86.4648 95.8941 86.2715 96.3991C86.2429 96.5644 86.229 96.732 86.23 96.8999V142.935C86.23 145.387 86.7197 145.818 88.7295 147.058L100.155 153.896L101.264 154.579C101.525 154.735 101.804 154.856 102.096 154.94C102.516 155.029 102.632 155.258 102.937 155.08Z" fill="#E6E7E8"/>
<path d="M102.077 155.043L87.3667 146.44C86.993 146.17 86.6871 145.814 86.4737 145.402C86.2603 144.99 86.1452 144.533 86.1377 144.067V96.0715C86.1377 95.1355 86.6875 94.733 87.3667 95.1355L102.077 103.738C102.452 104.009 102.758 104.365 102.971 104.778C103.185 105.191 103.3 105.649 103.306 106.115V154.107C103.306 155.019 102.757 155.44 102.077 155.043Z" fill="url(#paint2_linear_1082_13447)"/>
<path d="M102.304 101.103L87.1403 92.2339C86.9392 92.1009 86.7717 91.922 86.6513 91.7114C86.5309 91.5009 86.461 91.2646 86.4473 91.0217V84.9936C86.4473 84.5255 86.7614 84.3617 87.1403 84.5864L102.304 93.4555C102.506 93.5889 102.673 93.7686 102.794 93.98C102.914 94.1914 102.984 94.4286 102.997 94.6723V100.7C102.997 101.145 102.683 101.328 102.304 101.103Z" fill="#A7A9AC"/>
<path d="M87.6425 91.6706C87.757 91.6028 87.757 91.3868 87.6424 91.1882C87.5278 90.9896 87.342 90.8836 87.2274 90.9514C87.1129 91.0192 87.1129 91.2352 87.2275 91.4338C87.3421 91.6324 87.5279 91.7384 87.6425 91.6706Z" fill="#939598"/>
<path d="M91.309 93.8127C91.4235 93.7449 91.4235 93.5289 91.3089 93.3302C91.1943 93.1316 91.0085 93.0256 90.8939 93.0935C90.7794 93.1613 90.7794 93.3773 90.894 93.5759C91.0087 93.7745 91.1944 93.8805 91.309 93.8127Z" fill="#939598"/>
<path d="M94.977 95.9567C95.0915 95.8889 95.0915 95.6729 94.9769 95.4743C94.8622 95.2757 94.6765 95.1697 94.5619 95.2375C94.4474 95.3054 94.4474 95.5214 94.562 95.72C94.6766 95.9186 94.8624 96.0246 94.977 95.9567Z" fill="#939598"/>
<path d="M98.6415 98.1052C98.7561 98.0373 98.756 97.8213 98.6414 97.6227C98.5268 97.4241 98.341 97.3181 98.2265 97.386C98.1119 97.4538 98.112 97.6698 98.2266 97.8684C98.3412 98.067 98.527 98.173 98.6415 98.1052Z" fill="#939598"/>
<path d="M102.308 100.247C102.423 100.179 102.423 99.9634 102.308 99.7648C102.193 99.5662 102.008 99.4602 101.893 99.528C101.778 99.5959 101.778 99.8119 101.893 100.01C102.008 100.209 102.193 100.315 102.308 100.247Z" fill="#939598"/>
<path d="M87.6415 86.3791C87.7561 86.3113 87.756 86.0953 87.6414 85.8967C87.5268 85.6981 87.341 85.5921 87.2265 85.6599C87.1119 85.7277 87.112 85.9437 87.2266 86.1423C87.3412 86.3409 87.527 86.4469 87.6415 86.3791Z" fill="#939598"/>
<path d="M91.3124 88.5212C91.427 88.4533 91.4269 88.2373 91.3123 88.0387C91.1977 87.8401 91.0119 87.7341 90.8974 87.802C90.7828 87.8698 90.7828 88.0858 90.8975 88.2844C91.0121 88.483 91.1979 88.589 91.3124 88.5212Z" fill="#939598"/>
<path d="M94.9755 90.6657C95.09 90.5979 95.09 90.3819 94.9754 90.1833C94.8608 89.9847 94.675 89.8787 94.5604 89.9465C94.4459 90.0143 94.4459 90.2303 94.5606 90.4289C94.6752 90.6275 94.8609 90.7335 94.9755 90.6657Z" fill="#939598"/>
<path d="M98.6376 92.8102C98.7522 92.7424 98.7521 92.5264 98.6375 92.3278C98.5229 92.1292 98.3371 92.0232 98.2226 92.091C98.108 92.1589 98.1081 92.3749 98.2227 92.5735C98.3373 92.7721 98.5231 92.8781 98.6376 92.8102Z" fill="#939598"/>
<path d="M102.309 94.9523C102.424 94.8845 102.423 94.6685 102.309 94.4699C102.194 94.2713 102.008 94.1653 101.894 94.2331C101.779 94.301 101.779 94.517 101.894 94.7156C102.009 94.9142 102.194 95.0202 102.309 94.9523Z" fill="#939598"/>
<path d="M61.2119 109.232C61.2689 108.885 61.404 108.555 61.6066 108.269C61.8093 107.982 62.0742 107.747 62.3808 107.58L83.0932 95.4678L83.4906 95.2338C83.9249 94.981 84.3037 94.9623 84.5024 95.1495L82.6081 94.1479C82.1969 93.9327 81.296 94.5926 80.8524 94.8547L61.2119 106.218C60.9052 106.385 60.6404 106.62 60.4377 106.907C60.2351 107.193 60.1 107.523 60.043 107.87L61.198 109.242" fill="#4F89C8"/>
<path d="M61.2115 109.228V158.937C61.2089 159.036 61.2311 159.134 61.2762 159.222L60.2367 157.977C60.1628 157.897 60.1082 157.801 60.0769 157.697C60.0457 157.592 60.0387 157.481 60.0565 157.373V107.856L61.2115 109.228Z" fill="#315B90"/>
<path d="M84.6639 95.5193V145.228C84.6016 145.576 84.4624 145.905 84.2567 146.19C84.0511 146.475 83.7843 146.71 83.4765 146.876L62.3667 159.217C61.8585 159.517 61.4426 159.503 61.2671 159.217C61.2219 159.131 61.1997 159.034 61.2024 158.937V109.232C61.2594 108.885 61.3945 108.555 61.5971 108.269C61.7998 107.982 62.0647 107.747 62.3713 107.58L83.0838 95.4678L83.4811 95.2338C83.9154 94.981 84.2943 94.9623 84.4929 95.1495L84.5391 95.1963C84.616 95.2863 84.66 95.4003 84.6639 95.5193Z" fill="#2A7DE1"/>
<defs>
<filter id="filter0_f_1082_13447" x="0.476051" y="48.2817" width="213.677" height="142.284" filterUnits="userSpaceOnUse" color-interpolation-filters="sRGB">
<feFlood flood-opacity="0" result="BackgroundImageFix"/>
<feBlend mode="normal" in="SourceGraphic" in2="BackgroundImageFix" result="shape"/>
<feGaussianBlur stdDeviation="10.4241" result="effect1_foregroundBlur_1082_13447"/>
</filter>
<filter id="filter1_f_1082_13447" x="24.82" y="67.1662" width="165.9" height="101.751" filterUnits="userSpaceOnUse" color-interpolation-filters="sRGB">
<feFlood flood-opacity="0" result="BackgroundImageFix"/>
<feBlend mode="normal" in="SourceGraphic" in2="BackgroundImageFix" result="shape"/>
<feGaussianBlur stdDeviation="2.84293" result="effect1_foregroundBlur_1082_13447"/>
</filter>
<filter id="filter2_f_1082_13447" x="8.74438" y="84.7561" width="201.557" height="102.845" filterUnits="userSpaceOnUse" color-interpolation-filters="sRGB">
<feFlood flood-opacity="0" result="BackgroundImageFix"/>
<feBlend mode="normal" in="SourceGraphic" in2="BackgroundImageFix" result="shape"/>
<feGaussianBlur stdDeviation="9.47644" result="effect1_foregroundBlur_1082_13447"/>
</filter>
<filter id="filter3_f_1082_13447" x="104.756" y="105.451" width="109.795" height="81.3071" filterUnits="userSpaceOnUse" color-interpolation-filters="sRGB">
<feFlood flood-opacity="0" result="BackgroundImageFix"/>
<feBlend mode="normal" in="SourceGraphic" in2="BackgroundImageFix" result="shape"/>
<feGaussianBlur stdDeviation="8.5288" result="effect1_foregroundBlur_1082_13447"/>
</filter>
<filter id="filter4_f_1082_13447" x="120.036" y="102.546" width="55.2921" height="50.4542" filterUnits="userSpaceOnUse" color-interpolation-filters="sRGB">
<feFlood flood-opacity="0" result="BackgroundImageFix"/>
<feBlend mode="normal" in="SourceGraphic" in2="BackgroundImageFix" result="shape"/>
<feGaussianBlur stdDeviation="1.89529" result="effect1_foregroundBlur_1082_13447"/>
</filter>
<filter id="filter5_f_1082_13447" x="120.491" y="81.4213" width="55.2921" height="50.4542" filterUnits="userSpaceOnUse" color-interpolation-filters="sRGB">
<feFlood flood-opacity="0" result="BackgroundImageFix"/>
<feBlend mode="normal" in="SourceGraphic" in2="BackgroundImageFix" result="shape"/>
<feGaussianBlur stdDeviation="1.89529" result="effect1_foregroundBlur_1082_13447"/>
</filter>
<filter id="filter6_f_1082_13447" x="120.491" y="59.6865" width="55.2921" height="50.4542" filterUnits="userSpaceOnUse" color-interpolation-filters="sRGB">
<feFlood flood-opacity="0" result="BackgroundImageFix"/>
<feBlend mode="normal" in="SourceGraphic" in2="BackgroundImageFix" result="shape"/>
<feGaussianBlur stdDeviation="1.89529" result="effect1_foregroundBlur_1082_13447"/>
</filter>
<filter id="filter7_f_1082_13447" x="112.692" y="89.6569" width="98.6563" height="87.7203" filterUnits="userSpaceOnUse" color-interpolation-filters="sRGB">
<feFlood flood-opacity="0" result="BackgroundImageFix"/>
<feBlend mode="normal" in="SourceGraphic" in2="BackgroundImageFix" result="shape"/>
<feGaussianBlur stdDeviation="11.3717" result="effect1_foregroundBlur_1082_13447"/>
</filter>
<filter id="filter8_f_1082_13447" x="112.692" y="68.4709" width="98.6563" height="87.7203" filterUnits="userSpaceOnUse" color-interpolation-filters="sRGB">
<feFlood flood-opacity="0" result="BackgroundImageFix"/>
<feBlend mode="normal" in="SourceGraphic" in2="BackgroundImageFix" result="shape"/>
<feGaussianBlur stdDeviation="11.3717" result="effect1_foregroundBlur_1082_13447"/>
</filter>
<filter id="filter9_f_1082_13447" x="49.6092" y="137.816" width="46.2649" height="36.24" filterUnits="userSpaceOnUse" color-interpolation-filters="sRGB">
<feFlood flood-opacity="0" result="BackgroundImageFix"/>
<feBlend mode="normal" in="SourceGraphic" in2="BackgroundImageFix" result="shape"/>
<feGaussianBlur stdDeviation="5.68586" result="effect1_foregroundBlur_1082_13447"/>
</filter>
<linearGradient id="paint0_linear_1082_13447" x1="83.9381" y1="73.6485" x2="43.1944" y2="154.915" gradientUnits="userSpaceOnUse">
<stop stop-color="#D1D3D4"/>
<stop offset="0.94" stop-color="#BCBEC0"/>
</linearGradient>
<linearGradient id="paint1_linear_1082_13447" x1="136.313" y1="60.5904" x2="157.495" y2="149.206" gradientUnits="userSpaceOnUse">
<stop offset="0.42" stop-color="#D1D3D4"/>
<stop offset="1" stop-color="#BCBEC0"/>
</linearGradient>
<linearGradient id="paint2_linear_1082_13447" x1="104.674" y1="157.768" x2="120.785" y2="127.37" gradientUnits="userSpaceOnUse">
<stop stop-color="#BCBEC0"/>
<stop offset="1" stop-color="#6D6E71"/>
</linearGradient>
</defs>
</svg>
