<svg width="511" height="387" viewBox="0 0 511 387" fill="none" xmlns="http://www.w3.org/2000/svg">
<path d="M416.405 26.2386C415.178 26.2386 414.087 26.0284 413.132 25.608C412.183 25.1875 411.433 24.6023 410.882 23.8523C410.331 23.1023 410.039 22.2358 410.004 21.2528H413.209C413.237 21.7244 413.394 22.1364 413.678 22.4886C413.962 22.8352 414.34 23.1051 414.811 23.2983C415.283 23.4915 415.811 23.5881 416.396 23.5881C417.021 23.5881 417.575 23.4801 418.058 23.2642C418.541 23.0426 418.919 22.7358 419.192 22.3438C419.465 21.9517 419.598 21.5 419.593 20.9886C419.598 20.4602 419.462 19.9943 419.183 19.5909C418.905 19.1875 418.502 18.8722 417.973 18.6449C417.45 18.4176 416.82 18.304 416.081 18.304H414.539V15.8665H416.081C416.689 15.8665 417.22 15.7614 417.675 15.5511C418.135 15.3409 418.496 15.0455 418.757 14.6648C419.019 14.2784 419.146 13.8324 419.141 13.3267C419.146 12.8324 419.036 12.4034 418.808 12.0398C418.587 11.6705 418.271 11.3835 417.862 11.179C417.459 10.9744 416.985 10.8722 416.439 10.8722C415.905 10.8722 415.411 10.9687 414.956 11.1619C414.502 11.3551 414.135 11.6307 413.857 11.9886C413.578 12.3409 413.431 12.7614 413.414 13.25H410.371C410.394 12.2727 410.675 11.4148 411.215 10.6761C411.76 9.93182 412.487 9.35227 413.396 8.9375C414.306 8.51705 415.325 8.30682 416.456 8.30682C417.621 8.30682 418.632 8.52557 419.49 8.96307C420.354 9.39489 421.021 9.97727 421.493 10.7102C421.965 11.4432 422.2 12.2528 422.2 13.1392C422.206 14.1222 421.916 14.946 421.331 15.6108C420.752 16.2756 419.99 16.7102 419.047 16.9148V17.0511C420.274 17.2216 421.215 17.6761 421.868 18.4148C422.527 19.1477 422.854 20.0597 422.848 21.1506C422.848 22.1278 422.57 23.0028 422.013 23.7756C421.462 24.5426 420.7 25.1449 419.729 25.5824C418.763 26.0199 417.655 26.2386 416.405 26.2386ZM427.37 12.9091L430.012 17.7415L432.697 12.9091H435.961L432.015 19.4545L436.03 26H432.782L430.012 21.2869L427.268 26H423.995L427.984 19.4545L424.098 12.9091H427.37ZM442.807 26H441.145L445.952 12.9091H447.588L452.395 26H450.733L446.821 14.9801H446.719L442.807 26ZM443.421 20.8864H450.12V22.2926H443.421V20.8864ZM455.044 26L452.052 16.1818H453.637L455.76 23.6989H455.862L457.958 16.1818H459.569L461.64 23.6733H461.743L463.865 16.1818H465.45L462.458 26H460.976L458.828 18.4574H458.674L456.527 26H455.044ZM468.773 20.0938V26H467.264V16.1818H468.722V17.7159H468.849C469.08 17.2173 469.429 16.8168 469.898 16.5142C470.367 16.2074 470.972 16.054 471.713 16.054C472.378 16.054 472.96 16.1903 473.458 16.4631C473.957 16.7315 474.345 17.1406 474.622 17.6903C474.898 18.2358 475.037 18.9261 475.037 19.7614V26H473.528V19.8636C473.528 19.0923 473.328 18.4915 472.928 18.0611C472.527 17.6264 471.977 17.4091 471.278 17.4091C470.797 17.4091 470.367 17.5135 469.987 17.7223C469.612 17.9311 469.316 18.2358 469.099 18.6364C468.881 19.0369 468.773 19.5227 468.773 20.0938ZM477.614 26V16.1818H479.122V26H477.614ZM478.381 14.5455C478.087 14.5455 477.833 14.4453 477.62 14.245C477.411 14.0447 477.307 13.804 477.307 13.5227C477.307 13.2415 477.411 13.0007 477.62 12.8004C477.833 12.6001 478.087 12.5 478.381 12.5C478.675 12.5 478.926 12.6001 479.135 12.8004C479.348 13.0007 479.454 13.2415 479.454 13.5227C479.454 13.804 479.348 14.0447 479.135 14.245C478.926 14.4453 478.675 14.5455 478.381 14.5455ZM483.214 20.0938V26H481.705V16.1818H483.162V17.7159H483.29C483.52 17.2173 483.87 16.8168 484.339 16.5142C484.807 16.2074 485.412 16.054 486.154 16.054C486.819 16.054 487.4 16.1903 487.899 16.4631C488.397 16.7315 488.785 17.1406 489.062 17.6903C489.339 18.2358 489.478 18.9261 489.478 19.7614V26H487.969V19.8636C487.969 19.0923 487.769 18.4915 487.368 18.0611C486.968 17.6264 486.418 17.4091 485.719 17.4091C485.238 17.4091 484.807 17.5135 484.428 17.7223C484.053 17.9311 483.757 18.2358 483.54 18.6364C483.322 19.0369 483.214 19.5227 483.214 20.0938ZM496.017 29.8864C495.289 29.8864 494.662 29.7926 494.138 29.6051C493.614 29.4219 493.177 29.179 492.828 28.8764C492.483 28.5781 492.208 28.2585 492.003 27.9176L493.205 27.0739C493.341 27.2528 493.514 27.4574 493.723 27.6875C493.931 27.9219 494.217 28.1243 494.579 28.2947C494.946 28.4695 495.425 28.5568 496.017 28.5568C496.81 28.5568 497.464 28.3651 497.98 27.9815C498.495 27.598 498.753 26.9972 498.753 26.179V24.1847H498.625C498.515 24.3636 498.357 24.5852 498.152 24.8494C497.952 25.1094 497.662 25.3416 497.283 25.5462C496.908 25.7464 496.401 25.8466 495.762 25.8466C494.969 25.8466 494.257 25.6591 493.627 25.2841C493 24.9091 492.504 24.3636 492.137 23.6477C491.775 22.9318 491.594 22.0625 491.594 21.0398C491.594 20.0341 491.771 19.1584 492.125 18.4126C492.478 17.6626 492.971 17.0831 493.601 16.674C494.232 16.2607 494.961 16.054 495.787 16.054C496.426 16.054 496.934 16.1605 497.309 16.3736C497.688 16.5824 497.978 16.821 498.178 17.0895C498.382 17.3537 498.54 17.571 498.651 17.7415H498.804V16.1818H500.262V26.2812C500.262 27.125 500.07 27.8111 499.686 28.3395C499.307 28.8722 498.796 29.2621 498.152 29.5092C497.513 29.7607 496.801 29.8864 496.017 29.8864ZM495.966 24.4915C496.571 24.4915 497.083 24.353 497.5 24.076C497.918 23.799 498.235 23.4006 498.453 22.8807C498.67 22.3608 498.779 21.7386 498.779 21.0142C498.779 20.3068 498.672 19.6825 498.459 19.1413C498.246 18.6001 497.931 18.1761 497.513 17.8693C497.096 17.5625 496.58 17.4091 495.966 17.4091C495.327 17.4091 494.794 17.571 494.368 17.8949C493.946 18.2187 493.629 18.6534 493.416 19.1989C493.207 19.7443 493.103 20.3494 493.103 21.0142C493.103 21.696 493.209 22.299 493.422 22.8232C493.64 23.343 493.959 23.7521 494.381 24.0504C494.807 24.3445 495.336 24.4915 495.966 24.4915ZM509.798 18.3807L508.443 18.7642C508.357 18.5384 508.232 18.3189 508.065 18.1058C507.903 17.8885 507.682 17.7095 507.401 17.5689C507.119 17.4283 506.759 17.358 506.32 17.358C505.72 17.358 505.219 17.4964 504.818 17.7734C504.422 18.0462 504.224 18.3935 504.224 18.8153C504.224 19.1903 504.36 19.4865 504.633 19.7038C504.906 19.9212 505.332 20.1023 505.911 20.2472L507.369 20.6051C508.246 20.8182 508.901 21.1442 509.331 21.5831C509.761 22.0178 509.977 22.5781 509.977 23.2642C509.977 23.8267 509.815 24.3295 509.491 24.7727C509.171 25.2159 508.724 25.5653 508.148 25.821C507.573 26.0767 506.904 26.2045 506.141 26.2045C505.14 26.2045 504.311 25.9872 503.655 25.5526C502.999 25.1179 502.583 24.483 502.408 23.6477L503.84 23.2898C503.977 23.8182 504.234 24.2145 504.614 24.4787C504.997 24.7429 505.498 24.875 506.116 24.875C506.819 24.875 507.377 24.7259 507.791 24.4276C508.208 24.125 508.417 23.7628 508.417 23.3409C508.417 23 508.298 22.7145 508.059 22.4844C507.82 22.25 507.454 22.0753 506.96 21.9602L505.323 21.5767C504.424 21.3636 503.764 21.0334 503.342 20.5859C502.924 20.1342 502.715 19.5696 502.715 18.892C502.715 18.3381 502.871 17.848 503.182 17.4219C503.497 16.9957 503.925 16.6612 504.467 16.4183C505.012 16.1754 505.63 16.054 506.32 16.054C507.292 16.054 508.055 16.267 508.609 16.6932C509.167 17.1193 509.563 17.6818 509.798 18.3807ZM395.84 37.9091V51H394.255V37.9091H395.84ZM400.142 45.0938V51H398.634V41.1818H400.091V42.7159H400.219C400.449 42.2173 400.798 41.8168 401.267 41.5142C401.736 41.2074 402.341 41.054 403.083 41.054C403.747 41.054 404.329 41.1903 404.828 41.4631C405.326 41.7315 405.714 42.1406 405.991 42.6903C406.268 43.2358 406.406 43.9261 406.406 44.7614V51H404.898V44.8636C404.898 44.0923 404.698 43.4915 404.297 43.0611C403.896 42.6264 403.347 42.4091 402.648 42.4091C402.166 42.4091 401.736 42.5135 401.357 42.7223C400.982 42.9311 400.685 43.2358 400.468 43.6364C400.251 44.0369 400.142 44.5227 400.142 45.0938ZM413.253 41.1818V42.4602H408.165V41.1818H413.253ZM409.648 38.8295H411.156V48.1875C411.156 48.6136 411.218 48.9332 411.342 49.1463C411.469 49.3551 411.631 49.4957 411.827 49.5682C412.028 49.6364 412.239 49.6705 412.46 49.6705C412.626 49.6705 412.763 49.6619 412.869 49.6449C412.976 49.6236 413.061 49.6065 413.125 49.5938L413.432 50.9489C413.33 50.9872 413.187 51.0256 413.004 51.0639C412.82 51.1065 412.588 51.1278 412.307 51.1278C411.881 51.1278 411.463 51.0362 411.054 50.853C410.649 50.6697 410.312 50.3906 410.044 50.0156C409.78 49.6406 409.648 49.1676 409.648 48.5966V38.8295ZM418.231 51.2301C417.609 51.2301 417.044 51.1129 416.537 50.8786C416.03 50.6399 415.627 50.2969 415.329 49.8494C415.031 49.3977 414.882 48.8523 414.882 48.2131C414.882 47.6506 414.993 47.1946 415.214 46.8452C415.436 46.4915 415.732 46.2145 416.103 46.0142C416.473 45.8139 416.882 45.6648 417.33 45.5668C417.782 45.4645 418.235 45.3835 418.691 45.3239C419.288 45.2472 419.772 45.1896 420.142 45.1513C420.517 45.1087 420.79 45.0384 420.961 44.9403C421.135 44.8423 421.223 44.6719 421.223 44.429V44.3778C421.223 43.7472 421.05 43.2571 420.705 42.9077C420.364 42.5582 419.846 42.3835 419.152 42.3835C418.431 42.3835 417.867 42.5412 417.458 42.8565C417.049 43.1719 416.761 43.5085 416.595 43.8665L415.163 43.3551C415.419 42.7585 415.76 42.294 416.186 41.9616C416.616 41.625 417.085 41.3906 417.592 41.2585C418.103 41.1222 418.606 41.054 419.101 41.054C419.416 41.054 419.778 41.0923 420.187 41.169C420.601 41.2415 420.999 41.3928 421.382 41.6229C421.77 41.853 422.092 42.2003 422.348 42.6648C422.603 43.1293 422.731 43.7514 422.731 44.5312V51H421.223V49.6705H421.146C421.044 49.8835 420.873 50.1115 420.635 50.3544C420.396 50.5973 420.078 50.804 419.682 50.9744C419.286 51.1449 418.802 51.2301 418.231 51.2301ZM418.461 49.875C419.058 49.875 419.561 49.7578 419.97 49.5234C420.383 49.2891 420.694 48.9865 420.903 48.6158C421.116 48.245 421.223 47.8551 421.223 47.446V46.0653C421.159 46.142 421.018 46.2124 420.801 46.2763C420.588 46.3359 420.341 46.3892 420.059 46.4361C419.782 46.4787 419.512 46.517 419.248 46.5511C418.988 46.581 418.777 46.6065 418.615 46.6278C418.223 46.679 417.856 46.7621 417.515 46.8771C417.179 46.9879 416.906 47.1562 416.697 47.3821C416.493 47.6037 416.39 47.9062 416.39 48.2898C416.39 48.8139 416.584 49.2102 416.972 49.4787C417.364 49.7429 417.86 49.875 418.461 49.875ZM426.711 47.4205L426.685 45.554H426.992L431.288 41.1818H433.154L428.577 45.8097H428.449L426.711 47.4205ZM425.305 51V37.9091H426.813V51H425.305ZM431.543 51L427.708 46.142L428.782 45.0938L433.461 51H431.543ZM438.628 51.2045C437.682 51.2045 436.866 50.9957 436.18 50.5781C435.498 50.1562 434.972 49.5682 434.601 48.8139C434.234 48.0554 434.051 47.1733 434.051 46.1676C434.051 45.1619 434.234 44.2756 434.601 43.5085C434.972 42.7372 435.487 42.1364 436.148 41.706C436.812 41.2713 437.588 41.054 438.474 41.054C438.986 41.054 439.491 41.1392 439.989 41.3097C440.488 41.4801 440.942 41.7571 441.351 42.1406C441.76 42.5199 442.086 43.0227 442.329 43.6491C442.572 44.2756 442.693 45.0469 442.693 45.9631V46.6023H435.125V45.2983H441.159C441.159 44.7443 441.048 44.25 440.827 43.8153C440.609 43.3807 440.298 43.0376 439.893 42.7862C439.493 42.5348 439.02 42.4091 438.474 42.4091C437.874 42.4091 437.354 42.5582 436.915 42.8565C436.48 43.1506 436.146 43.5341 435.911 44.0071C435.677 44.4801 435.56 44.9872 435.56 45.5284V46.3977C435.56 47.1392 435.687 47.7678 435.943 48.2834C436.203 48.7947 436.563 49.1847 437.023 49.4531C437.484 49.7173 438.018 49.8494 438.628 49.8494C439.024 49.8494 439.382 49.794 439.702 49.6832C440.026 49.5682 440.305 49.3977 440.539 49.1719C440.773 48.9418 440.954 48.6562 441.082 48.3153L442.54 48.7244C442.386 49.2188 442.128 49.6534 441.766 50.0284C441.404 50.3991 440.957 50.6889 440.424 50.8977C439.891 51.1023 439.293 51.2045 438.628 51.2045ZM457.054 41.1818C456.977 40.5341 456.666 40.0312 456.121 39.6733C455.575 39.3153 454.906 39.1364 454.114 39.1364C453.534 39.1364 453.027 39.2301 452.592 39.4176C452.162 39.6051 451.825 39.8629 451.582 40.1911C451.344 40.5192 451.224 40.892 451.224 41.3097C451.224 41.6591 451.308 41.9595 451.474 42.2109C451.644 42.4581 451.862 42.6648 452.126 42.831C452.39 42.9929 452.667 43.1271 452.957 43.2337C453.246 43.3359 453.513 43.419 453.756 43.483L455.085 43.8409C455.426 43.9304 455.805 44.054 456.223 44.2116C456.645 44.3693 457.048 44.5845 457.431 44.8572C457.819 45.1257 458.139 45.4709 458.39 45.8928C458.641 46.3146 458.767 46.8324 458.767 47.446C458.767 48.1534 458.582 48.7926 458.211 49.3636C457.844 49.9347 457.308 50.3885 456.6 50.7251C455.897 51.0618 455.043 51.2301 454.037 51.2301C453.099 51.2301 452.288 51.0788 451.602 50.7763C450.92 50.4737 450.383 50.0518 449.991 49.5107C449.603 48.9695 449.384 48.3409 449.332 47.625H450.969C451.011 48.1193 451.178 48.5284 451.467 48.8523C451.761 49.1719 452.132 49.4105 452.58 49.5682C453.031 49.7216 453.517 49.7983 454.037 49.7983C454.642 49.7983 455.185 49.7003 455.667 49.5043C456.148 49.304 456.53 49.027 456.811 48.6733C457.092 48.3153 457.233 47.8977 457.233 47.4205C457.233 46.9858 457.112 46.6321 456.869 46.3594C456.626 46.0866 456.306 45.8651 455.91 45.6946C455.514 45.5241 455.085 45.375 454.625 45.2472L453.014 44.7869C451.991 44.4929 451.182 44.0732 450.585 43.5277C449.989 42.9822 449.69 42.2685 449.69 41.3864C449.69 40.6534 449.889 40.0142 450.285 39.4688C450.685 38.919 451.222 38.4929 451.896 38.1903C452.573 37.8835 453.33 37.7301 454.165 37.7301C455.009 37.7301 455.759 37.8814 456.415 38.1839C457.071 38.4822 457.591 38.8913 457.974 39.4112C458.362 39.9311 458.567 40.5213 458.588 41.1818H457.054ZM461.96 54.6818C461.705 54.6818 461.477 54.6605 461.277 54.6179C461.076 54.5795 460.938 54.5412 460.861 54.5028L461.245 53.1733C461.611 53.267 461.935 53.3011 462.216 53.2756C462.497 53.25 462.747 53.1243 462.964 52.8984C463.186 52.6768 463.388 52.3168 463.571 51.8182L463.853 51.0511L460.222 41.1818H461.858L464.568 49.0057H464.671L467.381 41.1818H469.017L464.85 52.4318C464.662 52.9389 464.43 53.3587 464.153 53.6911C463.876 54.0277 463.554 54.277 463.188 54.4389C462.826 54.6009 462.416 54.6818 461.96 54.6818ZM477.783 43.3807L476.428 43.7642C476.343 43.5384 476.217 43.3189 476.051 43.1058C475.889 42.8885 475.667 42.7095 475.386 42.5689C475.105 42.4283 474.745 42.358 474.306 42.358C473.705 42.358 473.204 42.4964 472.804 42.7734C472.407 43.0462 472.209 43.3935 472.209 43.8153C472.209 44.1903 472.345 44.4865 472.618 44.7038C472.891 44.9212 473.317 45.1023 473.897 45.2472L475.354 45.6051C476.232 45.8182 476.886 46.1442 477.316 46.5831C477.747 47.0178 477.962 47.5781 477.962 48.2642C477.962 48.8267 477.8 49.3295 477.476 49.7727C477.157 50.2159 476.709 50.5653 476.134 50.821C475.559 51.0767 474.889 51.2045 474.127 51.2045C473.125 51.2045 472.296 50.9872 471.64 50.5526C470.984 50.1179 470.568 49.483 470.394 48.6477L471.826 48.2898C471.962 48.8182 472.22 49.2145 472.599 49.4787C472.983 49.7429 473.483 49.875 474.101 49.875C474.804 49.875 475.362 49.7259 475.776 49.4276C476.193 49.125 476.402 48.7628 476.402 48.3409C476.402 48 476.283 47.7145 476.044 47.4844C475.806 47.25 475.439 47.0753 474.945 46.9602L473.309 46.5767C472.409 46.3636 471.749 46.0334 471.327 45.5859C470.909 45.1342 470.701 44.5696 470.701 43.892C470.701 43.3381 470.856 42.848 471.167 42.4219C471.483 41.9957 471.911 41.6612 472.452 41.4183C472.997 41.1754 473.615 41.054 474.306 41.054C475.277 41.054 476.04 41.267 476.594 41.6932C477.152 42.1193 477.549 42.6818 477.783 43.3807ZM484.323 41.1818V42.4602H479.235V41.1818H484.323ZM480.717 38.8295H482.226V48.1875C482.226 48.6136 482.288 48.9332 482.411 49.1463C482.539 49.3551 482.701 49.4957 482.897 49.5682C483.097 49.6364 483.308 49.6705 483.53 49.6705C483.696 49.6705 483.833 49.6619 483.939 49.6449C484.046 49.6236 484.131 49.6065 484.195 49.5938L484.502 50.9489C484.399 50.9872 484.257 51.0256 484.073 51.0639C483.89 51.1065 483.658 51.1278 483.377 51.1278C482.95 51.1278 482.533 51.0362 482.124 50.853C481.719 50.6697 481.382 50.3906 481.114 50.0156C480.85 49.6406 480.717 49.1676 480.717 48.5966V38.8295ZM490.423 51.2045C489.477 51.2045 488.661 50.9957 487.975 50.5781C487.293 50.1562 486.767 49.5682 486.396 48.8139C486.029 48.0554 485.846 47.1733 485.846 46.1676C485.846 45.1619 486.029 44.2756 486.396 43.5085C486.767 42.7372 487.282 42.1364 487.943 41.706C488.607 41.2713 489.383 41.054 490.269 41.054C490.781 41.054 491.286 41.1392 491.784 41.3097C492.283 41.4801 492.737 41.7571 493.146 42.1406C493.555 42.5199 493.881 43.0227 494.124 43.6491C494.367 44.2756 494.488 45.0469 494.488 45.9631V46.6023H486.92V45.2983H492.954C492.954 44.7443 492.843 44.25 492.622 43.8153C492.404 43.3807 492.093 43.0376 491.688 42.7862C491.288 42.5348 490.815 42.4091 490.269 42.4091C489.668 42.4091 489.149 42.5582 488.71 42.8565C488.275 43.1506 487.941 43.5341 487.706 44.0071C487.472 44.4801 487.355 44.9872 487.355 45.5284V46.3977C487.355 47.1392 487.482 47.7678 487.738 48.2834C487.998 48.7947 488.358 49.1847 488.818 49.4531C489.279 49.7173 489.813 49.8494 490.423 49.8494C490.819 49.8494 491.177 49.794 491.497 49.6832C491.82 49.5682 492.1 49.3977 492.334 49.1719C492.568 48.9418 492.749 48.6562 492.877 48.3153L494.335 48.7244C494.181 49.2188 493.923 49.6534 493.561 50.0284C493.199 50.3991 492.752 50.6889 492.219 50.8977C491.686 51.1023 491.088 51.2045 490.423 51.2045ZM496.603 51V41.1818H498.06V42.7159H498.188C498.393 42.1918 498.723 41.7848 499.179 41.495C499.635 41.201 500.182 41.054 500.822 41.054C501.469 41.054 502.008 41.201 502.439 41.495C502.873 41.7848 503.212 42.1918 503.455 42.7159H503.557C503.809 42.2088 504.186 41.8061 504.689 41.5078C505.192 41.2053 505.795 41.054 506.498 41.054C507.376 41.054 508.094 41.3288 508.652 41.8786C509.21 42.424 509.489 43.2741 509.489 44.429V51H507.981V44.429C507.981 43.7045 507.783 43.1868 507.386 42.8757C506.99 42.5646 506.523 42.4091 505.986 42.4091C505.296 42.4091 504.761 42.6179 504.382 43.0355C504.003 43.4489 503.813 43.973 503.813 44.608V51H502.279V44.2756C502.279 43.7173 502.098 43.2678 501.736 42.9268C501.373 42.5817 500.907 42.4091 500.336 42.4091C499.944 42.4091 499.577 42.5135 499.236 42.7223C498.9 42.9311 498.627 43.2209 498.418 43.5916C498.214 43.9581 498.111 44.3821 498.111 44.8636V51H496.603Z" fill="#092649"/>
<path d="M308 44.9999L342.5 19L377 19" stroke="#092649" stroke-dasharray="6 6"/>
<circle cx="381" cy="19" r="3.5" stroke="#092649"/>
<path d="M423.392 352.761V350.247L430.798 338.545H432.894V342.125H431.616L426.63 350.026V350.162H436.968V352.761H423.392ZM431.718 356V351.994L431.752 350.869V338.545H434.735V356H431.718ZM441.288 342.909L443.93 347.741L446.615 342.909H449.879L445.933 349.455L449.947 356H446.7L443.93 351.287L441.186 356H437.913L441.902 349.455L438.015 342.909H441.288ZM460.56 342.909V356H458.975V344.571H458.898L455.702 346.693V345.082L458.975 342.909H460.56ZM468.236 356.179C467.486 356.179 466.81 356.03 466.21 355.732C465.609 355.433 465.127 355.024 464.765 354.504C464.403 353.984 464.205 353.392 464.171 352.727H465.705C465.764 353.32 466.033 353.81 466.51 354.197C466.992 354.581 467.567 354.773 468.236 354.773C468.773 354.773 469.25 354.647 469.668 354.396C470.09 354.144 470.42 353.799 470.658 353.36C470.901 352.917 471.023 352.416 471.023 351.858C471.023 351.287 470.897 350.778 470.646 350.33C470.398 349.879 470.058 349.523 469.623 349.263C469.188 349.003 468.692 348.871 468.134 348.866C467.733 348.862 467.322 348.924 466.9 349.052C466.478 349.175 466.131 349.335 465.858 349.531L464.375 349.352L465.168 342.909H471.969V344.315H466.497L466.037 348.176H466.114C466.382 347.963 466.719 347.786 467.124 347.646C467.528 347.505 467.95 347.435 468.389 347.435C469.19 347.435 469.904 347.626 470.531 348.01C471.161 348.389 471.656 348.909 472.014 349.57C472.376 350.23 472.557 350.984 472.557 351.832C472.557 352.668 472.369 353.413 471.994 354.07C471.624 354.722 471.112 355.237 470.46 355.616C469.808 355.991 469.067 356.179 468.236 356.179ZM476.699 354.21L476.597 354.901C476.525 355.386 476.414 355.906 476.265 356.46C476.12 357.014 475.969 357.536 475.811 358.026C475.653 358.516 475.523 358.906 475.421 359.196H474.271C474.326 358.923 474.398 358.563 474.488 358.116C474.577 357.668 474.667 357.168 474.756 356.614C474.85 356.064 474.927 355.501 474.986 354.926L475.063 354.21H476.699ZM483.102 356.179C482.139 356.179 481.318 355.917 480.641 355.393C479.963 354.864 479.445 354.099 479.087 353.098C478.73 352.092 478.551 350.878 478.551 349.455C478.551 348.04 478.73 346.832 479.087 345.83C479.45 344.825 479.97 344.058 480.647 343.529C481.329 342.996 482.147 342.73 483.102 342.73C484.056 342.73 484.872 342.996 485.55 343.529C486.232 344.058 486.752 344.825 487.11 345.83C487.472 346.832 487.653 348.04 487.653 349.455C487.653 350.878 487.474 352.092 487.116 353.098C486.758 354.099 486.24 354.864 485.563 355.393C484.885 355.917 484.065 356.179 483.102 356.179ZM483.102 354.773C484.056 354.773 484.798 354.312 485.326 353.392C485.855 352.472 486.119 351.159 486.119 349.455C486.119 348.321 485.997 347.356 485.754 346.559C485.516 345.762 485.171 345.155 484.719 344.737C484.271 344.32 483.732 344.111 483.102 344.111C482.156 344.111 481.416 344.577 480.884 345.511C480.351 346.44 480.085 347.754 480.085 349.455C480.085 350.588 480.204 351.551 480.443 352.344C480.681 353.136 481.024 353.739 481.472 354.153C481.923 354.566 482.467 354.773 483.102 354.773ZM494.172 356.179C493.209 356.179 492.388 355.917 491.711 355.393C491.033 354.864 490.515 354.099 490.157 353.098C489.8 352.092 489.621 350.878 489.621 349.455C489.621 348.04 489.8 346.832 490.157 345.83C490.52 344.825 491.04 344.058 491.717 343.529C492.399 342.996 493.217 342.73 494.172 342.73C495.126 342.73 495.942 342.996 496.62 343.529C497.302 344.058 497.822 344.825 498.18 345.83C498.542 346.832 498.723 348.04 498.723 349.455C498.723 350.878 498.544 352.092 498.186 353.098C497.828 354.099 497.31 354.864 496.633 355.393C495.955 355.917 495.135 356.179 494.172 356.179ZM494.172 354.773C495.126 354.773 495.868 354.312 496.396 353.392C496.925 352.472 497.189 351.159 497.189 349.455C497.189 348.321 497.067 347.356 496.824 346.559C496.586 345.762 496.241 345.155 495.789 344.737C495.341 344.32 494.802 344.111 494.172 344.111C493.226 344.111 492.486 344.577 491.954 345.511C491.421 346.44 491.155 347.754 491.155 349.455C491.155 350.588 491.274 351.551 491.513 352.344C491.751 353.136 492.094 353.739 492.542 354.153C492.993 354.566 493.537 354.773 494.172 354.773ZM505.242 356.179C504.279 356.179 503.458 355.917 502.781 355.393C502.103 354.864 501.585 354.099 501.227 353.098C500.87 352.092 500.691 350.878 500.691 349.455C500.691 348.04 500.87 346.832 501.227 345.83C501.59 344.825 502.11 344.058 502.787 343.529C503.469 342.996 504.287 342.73 505.242 342.73C506.196 342.73 507.012 342.996 507.69 343.529C508.372 344.058 508.892 344.825 509.25 345.83C509.612 346.832 509.793 348.04 509.793 349.455C509.793 350.878 509.614 352.092 509.256 353.098C508.898 354.099 508.38 354.864 507.703 355.393C507.025 355.917 506.205 356.179 505.242 356.179ZM505.242 354.773C506.196 354.773 506.938 354.312 507.466 353.392C507.995 352.472 508.259 351.159 508.259 349.455C508.259 348.321 508.137 347.356 507.894 346.559C507.656 345.762 507.311 345.155 506.859 344.737C506.411 344.32 505.872 344.111 505.242 344.111C504.296 344.111 503.556 344.577 503.024 345.511C502.491 346.44 502.225 347.754 502.225 349.455C502.225 350.588 502.344 351.551 502.583 352.344C502.821 353.136 503.164 353.739 503.612 354.153C504.063 354.566 504.607 354.773 505.242 354.773ZM438.869 372H437.284C437.19 371.544 437.026 371.143 436.792 370.798C436.562 370.453 436.28 370.163 435.948 369.929C435.62 369.69 435.255 369.511 434.855 369.392C434.454 369.273 434.037 369.213 433.602 369.213C432.809 369.213 432.091 369.413 431.448 369.814C430.809 370.214 430.299 370.805 429.92 371.585C429.545 372.364 429.358 373.321 429.358 374.455C429.358 375.588 429.545 376.545 429.92 377.325C430.299 378.104 430.809 378.695 431.448 379.095C432.091 379.496 432.809 379.696 433.602 379.696C434.037 379.696 434.454 379.636 434.855 379.517C435.255 379.398 435.62 379.221 435.948 378.987C436.28 378.748 436.562 378.456 436.792 378.111C437.026 377.761 437.19 377.361 437.284 376.909H438.869C438.75 377.578 438.532 378.177 438.217 378.705C437.902 379.234 437.51 379.683 437.041 380.054C436.572 380.42 436.046 380.7 435.462 380.891C434.883 381.083 434.263 381.179 433.602 381.179C432.486 381.179 431.493 380.906 430.623 380.361C429.754 379.815 429.07 379.04 428.571 378.034C428.073 377.028 427.824 375.835 427.824 374.455C427.824 373.074 428.073 371.881 428.571 370.875C429.07 369.869 429.754 369.094 430.623 368.548C431.493 368.003 432.486 367.73 433.602 367.73C434.263 367.73 434.883 367.826 435.462 368.018C436.046 368.21 436.572 368.491 437.041 368.862C437.51 369.228 437.902 369.675 438.217 370.204C438.532 370.728 438.75 371.327 438.869 372ZM441.251 381V367.909H449.1V369.315H442.836V373.739H448.512V375.145H442.836V381H441.251ZM451.635 367.909H453.527L457.976 378.776H458.129L462.578 367.909H464.47V381H462.987V371.054H462.86L458.769 381H457.337L453.246 371.054H453.118V381H451.635V367.909ZM472.351 381V367.909H480.201V369.315H473.937V373.739H479.613V375.145H473.937V381H472.351ZM485.42 381.23C484.798 381.23 484.234 381.113 483.727 380.879C483.219 380.64 482.817 380.297 482.518 379.849C482.22 379.398 482.071 378.852 482.071 378.213C482.071 377.651 482.182 377.195 482.403 376.845C482.625 376.491 482.921 376.214 483.292 376.014C483.663 375.814 484.072 375.665 484.519 375.567C484.971 375.464 485.425 375.384 485.881 375.324C486.477 375.247 486.961 375.19 487.332 375.151C487.707 375.109 487.979 375.038 488.15 374.94C488.325 374.842 488.412 374.672 488.412 374.429V374.378C488.412 373.747 488.239 373.257 487.894 372.908C487.553 372.558 487.035 372.384 486.341 372.384C485.621 372.384 485.056 372.541 484.647 372.857C484.238 373.172 483.95 373.509 483.784 373.866L482.352 373.355C482.608 372.759 482.949 372.294 483.375 371.962C483.805 371.625 484.274 371.391 484.781 371.259C485.293 371.122 485.795 371.054 486.29 371.054C486.605 371.054 486.967 371.092 487.376 371.169C487.79 371.241 488.188 371.393 488.572 371.623C488.959 371.853 489.281 372.2 489.537 372.665C489.793 373.129 489.92 373.751 489.92 374.531V381H488.412V379.67H488.335C488.233 379.884 488.062 380.112 487.824 380.354C487.585 380.597 487.268 380.804 486.871 380.974C486.475 381.145 485.991 381.23 485.42 381.23ZM485.651 379.875C486.247 379.875 486.75 379.758 487.159 379.523C487.572 379.289 487.883 378.987 488.092 378.616C488.305 378.245 488.412 377.855 488.412 377.446V376.065C488.348 376.142 488.207 376.212 487.99 376.276C487.777 376.336 487.53 376.389 487.249 376.436C486.972 376.479 486.701 376.517 486.437 376.551C486.177 376.581 485.966 376.607 485.804 376.628C485.412 376.679 485.045 376.762 484.705 376.877C484.368 376.988 484.095 377.156 483.886 377.382C483.682 377.604 483.58 377.906 483.58 378.29C483.58 378.814 483.773 379.21 484.161 379.479C484.553 379.743 485.05 379.875 485.651 379.875ZM494.002 375.094V381H492.494V371.182H493.951V372.716H494.079C494.309 372.217 494.659 371.817 495.127 371.514C495.596 371.207 496.201 371.054 496.943 371.054C497.607 371.054 498.189 371.19 498.688 371.463C499.186 371.732 499.574 372.141 499.851 372.69C500.128 373.236 500.267 373.926 500.267 374.761V381H498.758V374.864C498.758 374.092 498.558 373.491 498.157 373.061C497.757 372.626 497.207 372.409 496.508 372.409C496.026 372.409 495.596 372.513 495.217 372.722C494.842 372.931 494.546 373.236 494.328 373.636C494.111 374.037 494.002 374.523 494.002 375.094ZM509.798 373.381L508.443 373.764C508.357 373.538 508.232 373.319 508.065 373.106C507.903 372.888 507.682 372.71 507.401 372.569C507.119 372.428 506.759 372.358 506.32 372.358C505.72 372.358 505.219 372.496 504.818 372.773C504.422 373.046 504.224 373.393 504.224 373.815C504.224 374.19 504.36 374.487 504.633 374.704C504.906 374.921 505.332 375.102 505.911 375.247L507.369 375.605C508.246 375.818 508.901 376.144 509.331 376.583C509.761 377.018 509.977 377.578 509.977 378.264C509.977 378.827 509.815 379.33 509.491 379.773C509.171 380.216 508.724 380.565 508.148 380.821C507.573 381.077 506.904 381.205 506.141 381.205C505.14 381.205 504.311 380.987 503.655 380.553C502.999 380.118 502.583 379.483 502.408 378.648L503.84 378.29C503.977 378.818 504.234 379.214 504.614 379.479C504.997 379.743 505.498 379.875 506.116 379.875C506.819 379.875 507.377 379.726 507.791 379.428C508.208 379.125 508.417 378.763 508.417 378.341C508.417 378 508.298 377.714 508.059 377.484C507.82 377.25 507.454 377.075 506.96 376.96L505.323 376.577C504.424 376.364 503.764 376.033 503.342 375.586C502.924 375.134 502.715 374.57 502.715 373.892C502.715 373.338 502.871 372.848 503.182 372.422C503.497 371.996 503.925 371.661 504.467 371.418C505.012 371.175 505.63 371.054 506.32 371.054C507.292 371.054 508.055 371.267 508.609 371.693C509.167 372.119 509.563 372.682 509.798 373.381Z" fill="#092649"/>
<circle cx="406" cy="355" r="3.5" stroke="#092649"/>
<path d="M141.5 324L177.5 355H402" stroke="black" stroke-dasharray="6 6"/>
<g clip-path="url(#clip0_877_15459)">
<g filter="url(#filter0_f_877_15459)">
<path d="M325.225 243.289L210.934 309.426L184.359 324.807C181.368 326.446 178.008 327.29 174.599 327.257C171.987 327.332 169.4 326.738 167.081 325.531L138.265 308.823L22.7423 241.99C20.733 240.829 19.7515 239.27 19.7515 237.646C19.7515 235.678 21.1867 233.608 23.9831 231.993L164.803 150.466C169.923 147.505 177.655 147.18 182.081 149.742L326.428 233.283C330.892 235.863 330.336 240.328 325.225 243.289Z" fill="#EAEAEA"/>
</g>
<g filter="url(#filter1_f_877_15459)">
<path d="M94.0742 282.22L36.1897 247.82L54.178 237.066L112.063 271.467L94.0742 282.22Z" fill="#CACACA"/>
</g>
<g filter="url(#filter2_f_877_15459)">
<path d="M155.307 321.41L88.5693 280.575L106.567 269.831L173.304 310.666L155.307 321.41Z" fill="#CACACA"/>
</g>
<g filter="url(#filter3_f_877_15459)">
<path d="M307.713 240.738L207.096 297.93L181.139 312.953C178.218 314.554 174.936 315.378 171.607 315.346C169.055 315.419 166.528 314.839 164.263 313.66L136.117 297.341L35.3514 240.738C33.3888 239.605 32.4302 238.082 32.4302 236.495C32.4302 234.573 33.832 232.551 36.5634 230.974L171.606 152.047C176.608 149.155 184.16 148.838 188.483 151.34L308.889 230.965C313.248 233.485 312.705 237.846 307.713 240.738Z" fill="#888888"/>
</g>
<path d="M290.424 246.553L168.677 176.107V137.712L290.424 208.158V246.553Z" fill="#315B90"/>
<path d="M368.471 186.05L246.725 115.612V105.785L368.471 176.223V186.05Z" fill="#3D6EAD"/>
<path d="M290.424 208.158L368.471 176.223V186.05L290.424 246.553V208.158Z" fill="#2163B3"/>
<path d="M246.725 105.785L168.677 137.712L290.423 208.158L368.471 176.223L246.725 105.785Z" fill="#2A7DE1"/>
<path d="M290.424 200.288L168.677 129.842V91.4468L290.424 161.893V200.288Z" fill="#315B90"/>
<path d="M368.471 139.785L246.725 69.3385V59.5117L368.471 129.958V139.785Z" fill="#3D6EAD"/>
<path d="M290.424 161.893L368.471 129.958V139.785L290.424 200.288V161.893Z" fill="#2163B3"/>
<path d="M246.725 59.5117L168.677 91.4468L290.423 161.893L368.471 129.958L246.725 59.5117Z" fill="#2A7DE1"/>
<path d="M290.424 156.768L168.677 86.3302V47.9351L290.424 118.373V156.768Z" fill="#315B90"/>
<path d="M368.471 96.2732L246.725 25.8268V16L368.471 86.438V96.2732Z" fill="#3D6EAD"/>
<path d="M290.424 118.373L368.471 86.438V96.2731L290.424 156.768V118.373Z" fill="#2163B3"/>
<path d="M246.725 16L168.677 47.9351L290.423 118.373L368.471 86.438L246.725 16Z" fill="#2A7DE1"/>
<path d="M120.684 58.1434C120.583 57.526 120.341 56.9401 119.978 56.4311C119.615 55.922 119.14 55.5035 118.59 55.2078L81.4945 33.7463L80.7829 33.34C80.0051 32.8922 79.3265 32.859 78.9707 33.1824L82.3634 31.4161C83.1081 31.0346 84.7217 32.2039 85.516 32.6683L120.684 52.7532C121.234 53.0488 121.709 53.4674 122.072 53.9764C122.435 54.4854 122.676 55.0713 122.777 55.6888L120.684 58.1434Z" fill="#4F89C8"/>
<path d="M120.684 58.1434V146.187C120.69 146.361 120.647 146.534 120.56 146.684L122.43 144.487C122.561 144.345 122.659 144.175 122.715 143.989C122.771 143.804 122.784 143.608 122.752 143.417V55.6556L120.684 58.1434Z" fill="#315B90"/>
<path d="M78.6646 33.8126V121.898C78.7723 122.513 79.0173 123.095 79.3812 123.602C79.7452 124.109 80.2187 124.527 80.7663 124.825L118.574 146.701C119.476 147.223 120.229 147.198 120.535 146.701C120.622 146.547 120.665 146.372 120.659 146.195V58.1434C120.558 57.5259 120.317 56.9401 119.954 56.431C119.591 55.922 119.116 55.5035 118.565 55.2078L81.4697 33.7463L80.7581 33.34C79.9802 32.8921 79.3017 32.859 78.9459 33.1824L78.8714 33.2736C78.745 33.4255 78.6722 33.615 78.6646 33.8126V33.8126Z" fill="#2A7DE1"/>
<path d="M306.195 111.217L204.06 170.294L180.311 184.035C177.639 185.499 174.636 186.253 171.59 186.224C169.256 186.29 166.943 185.76 164.871 184.681L139.12 169.755L35.8841 110.047C34.0885 109.011 33.2031 107.618 33.2031 106.166C33.2031 104.408 34.494 102.559 36.9929 101.116L162.885 28.2897C167.461 25.6444 174.37 25.3541 178.317 27.6429L307.32 102.277C311.259 104.582 310.763 108.563 306.195 111.217Z" fill="#F1F2F2"/>
<path d="M171.607 186.224V313.989C169.272 314.056 166.96 313.525 164.887 312.447L35.9008 237.813C34.1052 236.776 33.228 235.383 33.228 233.932V106.166C33.228 107.618 34.1052 109.011 35.9008 110.047L139.136 169.755L164.887 184.681C166.96 185.76 169.272 186.29 171.607 186.224V186.224Z" fill="url(#paint0_linear_877_15459)"/>
<path d="M309.977 106.158V233.948C309.977 235.706 308.694 237.547 306.195 238.99L180.312 311.8C177.639 313.264 174.636 314.018 171.59 313.989V186.224C174.636 186.253 177.639 185.499 180.312 184.035L204.06 170.294L306.195 111.217C308.694 109.765 309.977 107.9 309.977 106.158Z" fill="url(#paint1_linear_877_15459)"/>
<path d="M269.497 156.909L296.646 141.153C297.008 140.918 297.31 140.6 297.526 140.225C297.741 139.85 297.865 139.429 297.887 138.997V128.358C297.887 127.57 297.333 127.246 296.646 127.644L269.497 143.351C269.136 143.588 268.836 143.906 268.62 144.281C268.404 144.655 268.28 145.075 268.256 145.507V156.188C268.256 156.976 268.802 157.299 269.497 156.909Z" fill="#A7A9AC"/>
<path d="M296.492 139.778C296.697 139.426 296.697 139.043 296.492 138.923C296.287 138.803 295.954 138.991 295.749 139.342C295.544 139.694 295.544 140.077 295.749 140.197C295.954 140.317 296.287 140.13 296.492 139.778Z" fill="#939598"/>
<path d="M289.931 143.574C290.137 143.222 290.137 142.839 289.931 142.719C289.726 142.599 289.394 142.786 289.188 143.138C288.983 143.49 288.983 143.873 289.188 143.993C289.393 144.113 289.726 143.925 289.931 143.574Z" fill="#939598"/>
<path d="M283.359 147.377C283.564 147.025 283.564 146.642 283.359 146.522C283.154 146.402 282.821 146.59 282.616 146.941C282.41 147.293 282.41 147.676 282.615 147.796C282.821 147.916 283.153 147.729 283.359 147.377Z" fill="#939598"/>
<path d="M276.798 151.173C277.004 150.821 277.004 150.438 276.798 150.318C276.593 150.198 276.261 150.385 276.055 150.737C275.85 151.089 275.85 151.472 276.055 151.592C276.26 151.712 276.593 151.524 276.798 151.173Z" fill="#939598"/>
<path d="M270.238 154.969C270.443 154.617 270.443 154.234 270.238 154.114C270.033 153.994 269.7 154.181 269.495 154.533C269.29 154.885 269.29 155.268 269.495 155.388C269.7 155.508 270.033 155.321 270.238 154.969Z" fill="#939598"/>
<path d="M296.495 130.413C296.701 130.061 296.701 129.678 296.496 129.558C296.291 129.438 295.958 129.626 295.753 129.978C295.547 130.329 295.547 130.712 295.752 130.832C295.957 130.953 296.29 130.765 296.495 130.413Z" fill="#939598"/>
<path d="M289.927 134.209C290.132 133.857 290.132 133.474 289.927 133.354C289.722 133.234 289.389 133.422 289.184 133.773C288.979 134.125 288.979 134.508 289.184 134.628C289.389 134.748 289.722 134.561 289.927 134.209Z" fill="#939598"/>
<path d="M283.362 138.012C283.568 137.66 283.568 137.277 283.363 137.157C283.157 137.037 282.825 137.225 282.619 137.577C282.414 137.929 282.414 138.311 282.619 138.432C282.824 138.552 283.157 138.364 283.362 138.012Z" fill="#939598"/>
<path d="M276.802 141.808C277.007 141.456 277.007 141.073 276.802 140.953C276.597 140.833 276.264 141.021 276.059 141.373C275.854 141.724 275.854 142.107 276.059 142.227C276.264 142.348 276.597 142.16 276.802 141.808Z" fill="#939598"/>
<path d="M270.234 145.604C270.439 145.252 270.439 144.869 270.234 144.749C270.029 144.629 269.696 144.817 269.491 145.168C269.285 145.52 269.285 145.903 269.49 146.023C269.696 146.143 270.028 145.956 270.234 145.604Z" fill="#939598"/>
<path d="M269.232 253.129L271.632 254.838C272.459 255.435 273.535 254.954 274.884 254.166L297.151 241.412C301.288 238.974 301.967 238.559 301.967 233.948V150.731C301.967 149.471 302.223 146.369 299.931 146.369C299.142 146.332 298.352 146.448 297.606 146.709C298.233 147.434 298.731 148.262 299.079 149.156C299.135 149.451 299.16 149.751 299.153 150.051V231.618C299.153 235.955 298.276 236.718 294.677 238.916L274.222 251.015L272.236 252.225C271.767 252.496 271.266 252.707 270.746 252.856C269.985 253.021 269.778 253.453 269.232 253.129Z" fill="#E6E7E8"/>
<path d="M270.771 253.071L297.118 237.821C297.787 237.341 298.335 236.711 298.717 235.981C299.099 235.251 299.305 234.441 299.319 233.617V148.575C299.319 146.917 298.334 146.212 297.118 146.917L270.771 162.167C270.1 162.645 269.551 163.275 269.169 164.005C268.787 164.736 268.581 165.546 268.57 166.371V251.404C268.57 253.021 269.555 253.768 270.771 253.071Z" fill="url(#paint2_linear_877_15459)"/>
<path d="M310.572 188.123C310.476 187.509 310.241 186.926 309.885 186.417C309.53 185.908 309.063 185.488 308.52 185.187L271.425 163.726L270.713 163.311C269.944 162.872 269.265 162.839 268.909 163.162L272.302 161.396C273.038 161.006 274.652 162.183 275.446 162.639L310.622 182.774C311.159 183.074 311.62 183.492 311.973 183.996C312.325 184.5 312.56 185.077 312.658 185.685L310.589 188.123" fill="#4F89C8"/>
<g filter="url(#filter4_f_877_15459)">
<path d="M308.52 282.62L271.425 261.159L270.713 260.744C270.1 260.394 269.595 260.208 269.235 260.31L268.988 260.447C269.061 260.381 269.143 260.336 269.235 260.31L272.109 258.717C272.845 258.327 274.652 259.616 275.446 260.072L311.141 280.876L308.52 282.62Z" fill="#DEDEDE"/>
</g>
<path d="M310.572 188.106V276.191C310.577 276.364 310.537 276.536 310.457 276.689L312.318 274.491C312.45 274.348 312.548 274.176 312.604 273.989C312.66 273.803 312.672 273.606 312.641 273.413V185.677L310.572 188.106Z" fill="#315B90"/>
<path d="M268.57 163.817V251.902C268.57 252.847 269.521 254.158 270.672 254.829L308.52 276.705C309.431 277.228 310.175 277.203 310.49 276.705C310.57 276.549 310.61 276.375 310.606 276.2V188.123C310.505 187.506 310.265 186.921 309.904 186.412C309.542 185.903 309.069 185.484 308.52 185.187L271.425 163.726L270.713 163.311C269.943 162.872 269.265 162.839 268.909 163.162L268.826 163.253C268.677 163.405 268.586 163.605 268.57 163.817Z" fill="#2A7DE1"/>
<path d="M85.8553 271.854L32.5742 241.204V193.289L85.8553 223.939V271.854Z" fill="#757679"/>
<path d="M85.8553 223.939L32.5742 193.273L49.132 183.686L102.413 214.353L85.8553 223.939Z" fill="#8F9194"/>
<path d="M102.413 262.276L85.8555 271.854V223.939L102.413 214.353V262.276Z" fill="#4F4F51"/>
<path d="M73.8487 266.912L52.3096 255.219L60.5926 250.426L82.1317 262.118L73.8487 266.912Z" fill="#4F4F51"/>
<path d="M51.3912 254.522L29.8521 242.821L38.1351 238.037L59.6742 249.729L51.3912 254.522Z" fill="#4F4F51"/>
<path d="M73.8487 261.455L52.3096 249.754L60.5926 244.961L82.1317 256.662L73.8487 261.455Z" fill="#4F4F51"/>
<path d="M51.3912 249.058L29.8521 237.365L38.1351 232.572L59.6742 244.273L51.3912 249.058Z" fill="#4F4F51"/>
<path d="M73.8487 255.99L52.3096 244.298L60.5926 239.504L82.1317 251.197L73.8487 255.99Z" fill="#4F4F51"/>
<path d="M51.3912 243.601L29.8521 231.9L38.1351 227.107L59.6742 238.808L51.3912 243.601Z" fill="#4F4F51"/>
<path d="M73.8487 250.534L52.3096 238.833L60.5926 234.04L82.1317 245.741L73.8487 250.534Z" fill="#4F4F51"/>
<path d="M51.3912 238.136L29.8521 226.443L38.1351 221.65L59.6742 233.351L51.3912 238.136Z" fill="#4F4F51"/>
<path d="M73.8487 245.069L52.3096 233.376L60.5926 228.583L82.1317 240.276L73.8487 245.069Z" fill="#4F4F51"/>
<path d="M51.3912 232.679L29.8521 220.978L38.1351 216.185L59.6742 227.886L51.3912 232.679Z" fill="#4F4F51"/>
<path d="M73.8487 239.604L52.3096 227.911L60.5926 223.118L82.1317 234.819L73.8487 239.604Z" fill="#4F4F51"/>
<path d="M51.3912 227.215L29.8521 215.522L38.1351 210.729L59.6742 222.421L51.3912 227.215Z" fill="#4F4F51"/>
<path d="M73.8487 234.147L52.3096 222.455L60.5926 217.661L82.1317 229.354L73.8487 234.147Z" fill="#4F4F51"/>
<path d="M51.3912 221.758L29.8521 210.057L38.1351 205.264L59.6742 216.965L51.3912 221.758Z" fill="#4F4F51"/>
<path d="M73.8487 228.682L52.3096 216.99L60.5926 212.197L82.1317 223.889L73.8487 228.682Z" fill="#4F4F51"/>
<path d="M51.3912 216.293L29.8521 204.6L38.1351 199.807L59.6742 211.5L51.3912 216.293Z" fill="#4F4F51"/>
<path d="M85.8553 218.068L32.5742 187.418V139.503L85.8553 170.153V218.068Z" fill="#757679"/>
<path d="M85.8553 170.153L32.5742 139.486L49.132 129.9L102.413 160.566L85.8553 170.153Z" fill="#8F9194"/>
<path d="M102.413 208.49L85.8555 218.068V170.153L102.413 160.566V208.49Z" fill="#4F4F51"/>
<path d="M73.8487 213.125L52.3096 201.433L60.5926 196.64L82.1317 208.332L73.8487 213.125Z" fill="#4F4F51"/>
<path d="M51.3912 200.736L29.8521 189.035L38.1351 184.242L59.6742 195.943L51.3912 200.736Z" fill="#4F4F51"/>
<path d="M73.8487 207.669L52.3096 195.968L60.5926 191.175L82.1317 202.876L73.8487 207.669Z" fill="#4F4F51"/>
<path d="M51.3912 195.271L29.8521 183.579L38.1351 178.785L59.6742 190.478L51.3912 195.271Z" fill="#4F4F51"/>
<path d="M73.8487 202.204L52.3096 190.511L60.5926 185.718L82.1317 197.411L73.8487 202.204Z" fill="#4F4F51"/>
<path d="M51.3912 189.815L29.8521 178.114L38.1351 173.32L59.6742 185.021L51.3912 189.815Z" fill="#4F4F51"/>
<path d="M73.8487 196.739L52.3096 185.046L60.5926 180.253L82.1317 191.954L73.8487 196.739Z" fill="#4F4F51"/>
<path d="M51.3912 184.35L29.8521 172.657L38.1351 167.864L59.6742 179.557L51.3912 184.35Z" fill="#4F4F51"/>
<path d="M73.8487 191.282L52.3096 179.581L60.5926 174.797L82.1317 186.489L73.8487 191.282Z" fill="#4F4F51"/>
<path d="M51.3912 178.893L29.8521 167.192L38.1351 162.399L59.6742 174.1L51.3912 178.893Z" fill="#4F4F51"/>
<path d="M73.8487 185.818L52.3096 174.125L60.5926 169.332L82.1317 181.024L73.8487 185.818Z" fill="#4F4F51"/>
<path d="M51.3912 173.428L29.8521 161.736L38.1351 156.942L59.6742 168.635L51.3912 173.428Z" fill="#4F4F51"/>
<path d="M73.8487 180.361L52.3096 168.66L60.5926 163.867L82.1317 175.568L73.8487 180.361Z" fill="#4F4F51"/>
<path d="M51.3912 167.963L29.8521 156.271L38.1351 151.478L59.6742 163.179L51.3912 167.963Z" fill="#4F4F51"/>
<path d="M73.8487 174.896L52.3096 163.203L60.5926 158.41L82.1317 170.103L73.8487 174.896Z" fill="#4F4F51"/>
<path d="M51.3912 162.507L29.8521 150.806L38.1351 146.021L59.6742 157.714L51.3912 162.507Z" fill="#4F4F51"/>
<path d="M141.851 303.657L88.5696 273.007V225.083L141.851 255.741V303.657Z" fill="#757679"/>
<path d="M141.851 255.741L88.5696 225.075L105.136 215.489L158.417 246.155L141.851 255.741Z" fill="#8F9194"/>
<path d="M158.417 294.07L141.851 303.656V255.741L158.417 246.155V294.07Z" fill="#4F4F51"/>
<path d="M129.852 298.714L108.305 287.013L116.588 282.228L138.135 293.921L129.852 298.714Z" fill="#4F4F51"/>
<path d="M107.395 286.325L85.8555 274.624L94.1385 269.831L115.678 281.532L107.395 286.325Z" fill="#4F4F51"/>
<path d="M129.852 293.249L108.305 281.557L116.588 276.763L138.135 288.464L129.852 293.249Z" fill="#4F4F51"/>
<path d="M107.395 280.86L85.8555 269.167L94.1385 264.374L115.678 276.067L107.395 280.86Z" fill="#4F4F51"/>
<path d="M129.852 287.793L108.305 276.092L116.588 271.307L138.135 282.999L129.852 287.793Z" fill="#4F4F51"/>
<path d="M107.395 275.403L85.8555 263.702L94.1385 258.909L115.678 270.61L107.395 275.403Z" fill="#4F4F51"/>
<path d="M129.852 282.328L108.305 270.635L116.588 265.842L138.135 277.534L129.852 282.328Z" fill="#4F4F51"/>
<path d="M107.395 269.939L85.8555 258.246L94.1385 253.453L115.678 265.145L107.395 269.939Z" fill="#4F4F51"/>
<path d="M129.852 276.871L108.305 265.17L116.588 260.377L138.135 272.078L129.852 276.871Z" fill="#4F4F51"/>
<path d="M107.395 264.474L85.8555 252.781L94.1385 247.988L115.678 259.689L107.395 264.474Z" fill="#4F4F51"/>
<path d="M129.852 271.406L108.305 259.714L116.588 254.92L138.135 266.613L129.852 271.406Z" fill="#4F4F51"/>
<path d="M107.395 259.017L85.8555 247.316L94.1385 242.531L115.678 254.224L107.395 259.017Z" fill="#4F4F51"/>
<path d="M129.852 265.95L108.305 254.249L116.588 249.456L138.135 261.157L129.852 265.95Z" fill="#4F4F51"/>
<path d="M107.395 253.552L85.8555 241.859L94.1385 237.066L115.678 248.767L107.395 253.552Z" fill="#4F4F51"/>
<path d="M129.852 260.485L108.305 248.792L116.588 243.999L138.135 255.692L129.852 260.485Z" fill="#4F4F51"/>
<path d="M107.395 248.096L85.8555 236.395L94.1385 231.601L115.678 243.302L107.395 248.096Z" fill="#4F4F51"/>
<path d="M141.851 249.87L88.5696 219.221V171.297L141.851 201.947V249.87Z" fill="#757679"/>
<path d="M141.851 201.947L88.5696 171.28L105.136 161.702L158.417 192.369L141.851 201.947Z" fill="#8F9194"/>
<path d="M158.417 240.284L141.851 249.87V201.947L158.417 192.369V240.284Z" fill="#4F4F51"/>
<path d="M129.852 244.928L108.305 233.227L116.588 228.434L138.135 240.135L129.852 244.928Z" fill="#4F4F51"/>
<path d="M107.395 232.538L85.8555 220.837L94.1385 216.044L115.678 227.745L107.395 232.538Z" fill="#4F4F51"/>
<path d="M129.852 239.463L108.305 227.77L116.588 222.977L138.135 234.67L129.852 239.463Z" fill="#4F4F51"/>
<path d="M107.395 227.074L85.8555 215.373L94.1385 210.588L115.678 222.28L107.395 227.074Z" fill="#4F4F51"/>
<path d="M129.852 234.006L108.305 222.305L116.588 217.512L138.135 229.213L129.852 234.006Z" fill="#4F4F51"/>
<path d="M107.395 221.609L85.8555 209.916L94.1385 205.123L115.678 216.816L107.395 221.609Z" fill="#4F4F51"/>
<path d="M129.852 228.541L108.305 216.849L116.588 212.056L138.135 223.748L129.852 228.541Z" fill="#4F4F51"/>
<path d="M107.395 216.152L85.8555 204.451L94.1385 199.658L115.678 211.359L107.395 216.152Z" fill="#4F4F51"/>
<path d="M129.852 223.085L108.305 211.384L116.588 206.591L138.135 218.292L129.852 223.085Z" fill="#4F4F51"/>
<path d="M107.395 210.687L85.8555 198.995L94.1385 194.201L115.678 205.894L107.395 210.687Z" fill="#4F4F51"/>
<path d="M129.852 217.62L108.305 205.927L116.588 201.134L138.135 212.827L129.852 217.62Z" fill="#4F4F51"/>
<path d="M107.395 205.231L85.8555 193.53L94.1385 188.737L115.678 200.438L107.395 205.231Z" fill="#4F4F51"/>
<path d="M129.852 212.155L108.305 200.462L116.588 195.669L138.135 207.37L129.852 212.155Z" fill="#4F4F51"/>
<path d="M107.395 199.766L85.8555 188.073L94.1385 183.28L115.678 194.973L107.395 199.766Z" fill="#4F4F51"/>
<path d="M129.852 206.699L108.305 194.998L116.588 190.204L138.135 201.905L129.852 206.699Z" fill="#4F4F51"/>
<path d="M107.395 194.309L85.8555 182.608L94.1385 177.815L115.678 189.516L107.395 194.309Z" fill="#4F4F51"/>
</g>
<defs>
<filter id="filter0_f_877_15459" x="-2.24854" y="126.014" width="353.696" height="223.25" filterUnits="userSpaceOnUse" color-interpolation-filters="sRGB">
<feFlood flood-opacity="0" result="BackgroundImageFix"/>
<feBlend mode="normal" in="SourceGraphic" in2="BackgroundImageFix" result="shape"/>
<feGaussianBlur stdDeviation="11" result="effect1_foregroundBlur_877_15459"/>
</filter>
<filter id="filter1_f_877_15459" x="18.1897" y="219.066" width="111.873" height="81.1542" filterUnits="userSpaceOnUse" color-interpolation-filters="sRGB">
<feFlood flood-opacity="0" result="BackgroundImageFix"/>
<feBlend mode="normal" in="SourceGraphic" in2="BackgroundImageFix" result="shape"/>
<feGaussianBlur stdDeviation="9" result="effect1_foregroundBlur_877_15459"/>
</filter>
<filter id="filter2_f_877_15459" x="70.5693" y="251.831" width="120.735" height="87.5791" filterUnits="userSpaceOnUse" color-interpolation-filters="sRGB">
<feFlood flood-opacity="0" result="BackgroundImageFix"/>
<feBlend mode="normal" in="SourceGraphic" in2="BackgroundImageFix" result="shape"/>
<feGaussianBlur stdDeviation="9" result="effect1_foregroundBlur_877_15459"/>
</filter>
<filter id="filter3_f_877_15459" x="26.4302" y="143.652" width="291.407" height="177.7" filterUnits="userSpaceOnUse" color-interpolation-filters="sRGB">
<feFlood flood-opacity="0" result="BackgroundImageFix"/>
<feBlend mode="normal" in="SourceGraphic" in2="BackgroundImageFix" result="shape"/>
<feGaussianBlur stdDeviation="3" result="effect1_foregroundBlur_877_15459"/>
</filter>
<filter id="filter4_f_877_15459" x="260.988" y="250.644" width="58.1523" height="39.9758" filterUnits="userSpaceOnUse" color-interpolation-filters="sRGB">
<feFlood flood-opacity="0" result="BackgroundImageFix"/>
<feBlend mode="normal" in="SourceGraphic" in2="BackgroundImageFix" result="shape"/>
<feGaussianBlur stdDeviation="4" result="effect1_foregroundBlur_877_15459"/>
</filter>
<linearGradient id="paint0_linear_877_15459" x1="128.909" y1="156.437" x2="57.1743" y2="301.054" gradientUnits="userSpaceOnUse">
<stop stop-color="#D1D3D4"/>
<stop offset="0.94" stop-color="#BCBEC0"/>
</linearGradient>
<linearGradient id="paint1_linear_877_15459" x1="222.703" y1="133.308" x2="259.877" y2="290.493" gradientUnits="userSpaceOnUse">
<stop offset="0.42" stop-color="#D1D3D4"/>
<stop offset="1" stop-color="#BCBEC0"/>
</linearGradient>
<linearGradient id="paint2_linear_877_15459" x1="232.417" y1="266.459" x2="204.042" y2="212.346" gradientUnits="userSpaceOnUse">
<stop stop-color="#BCBEC0"/>
<stop offset="1" stop-color="#6D6E71"/>
</linearGradient>
<clipPath id="clip0_877_15459">
<rect width="368.916" height="331" fill="white" transform="translate(0 16)"/>
</clipPath>
</defs>
</svg>
