<svg xmlns="http://www.w3.org/2000/svg" xmlns:xlink="http://www.w3.org/1999/xlink" width="514" height="439" fill="none" xmlns:v="https://vecta.io/nano"><style><![CDATA[.B{fill:#414042}.C{stroke:#e8bb65}.D{stroke-miterlimit:10}.E{stroke-width:.5}.F{fill:#e8bb65}.G{color-interpolation-filters:sRGB}.H{flood-opacity:0}.I{fill:#2a7de1}.J{fill:#4f4f51}.K{fill:#315b90}.L{fill:#2163b3}.M{stroke:#092649}.N{stroke-dasharray:6 6}.O{fill:#58595b}.P{fill:#757679}.Q{fill:#8f9194}.R{fill:#234572}.S{fill:#124c92}]]></style><g clip-path="url(#P)"><path d="M69.684 438.268c37.929 0 68.676-31.215 68.676-69.721s-30.747-69.72-68.676-69.72-68.676 31.215-68.676 69.72 30.747 69.721 68.676 69.721z" stroke-width="2" class="D M N"/><path d="M119.32 346.528l-37.665 22.113-8.758 5.143c-.986.548-2.093.83-3.216.819a5 5 0 0 1-2.478-.577l-9.496-5.587-38.071-22.346c-.662-.387-.986-.909-.986-1.452 0-.658.473-1.35 1.395-1.89l46.407-27.259c1.688-.99 4.236-1.099 5.694-.242l47.57 27.932c1.47.863 1.287 2.356-.397 3.346z" fill="#f1f2f2"/><path d="M69.69 374.603v47.817a5 5 0 0 1-2.478-.577L19.645 393.91c-.662-.388-.986-.909-.986-1.452v-47.817c0 .543.323 1.064.986 1.452l38.071 22.346 9.496 5.587a5 5 0 0 0 2.478.577z" fill="url(#K)"/><path d="M120.717 344.638v47.823c0 .658-.473 1.347-1.394 1.887L72.9 421.601c-.986.548-2.093.83-3.216.819v-47.817c1.123.011 2.231-.271 3.216-.819l8.758-5.143 37.665-22.113c.921-.54 1.394-1.241 1.394-1.89z" fill="url(#L)"/></g><path d="M137 356.498h44.501L279 298.5" class="M N"/><path d="M9.651 239.545V257H6.489v-14.378h-.102l-4.082 2.608v-2.898l4.338-2.787h3.009zm6.029 4.364l2.642 4.832 2.685-4.832h3.264l-3.946 6.546L24.338 257h-3.247l-2.77-4.713L15.577 257h-3.273l3.989-6.545-3.886-6.546h3.273zM30.579 257v-13.091h1.585v5.83h6.98v-5.83h1.585V257h-1.585v-5.855h-6.98V257h-1.585zm16.928.205c-.886 0-1.664-.211-2.333-.633s-1.185-1.012-1.56-1.771-.556-1.645-.556-2.659c0-1.023.185-1.915.556-2.678s.895-1.355 1.56-1.777 1.447-.633 2.333-.633 1.662.211 2.327.633 1.189 1.014 1.56 1.777.563 1.655.563 2.678c0 1.014-.187 1.901-.562 2.659s-.891 1.349-1.56 1.771-1.44.633-2.327.633zm0-1.356c.673 0 1.227-.172 1.662-.517a3.05 3.05 0 0 0 .965-1.362 5.21 5.21 0 0 0 .313-1.828 5.26 5.26 0 0 0-.313-1.834c-.209-.567-.53-1.025-.965-1.375s-.989-.524-1.662-.524-1.227.175-1.662.524-.756.808-.965 1.375a5.26 5.26 0 0 0-.313 1.834 5.21 5.21 0 0 0 .313 1.828 3.05 3.05 0 0 0 .965 1.362c.435.345.989.517 1.662.517zm10.841-8.667v1.278h-5.088v-1.278h5.088zm-3.605-2.352h1.509v9.358c0 .426.062.745.185.958s.29.35.486.422.411.102.633.102a2.69 2.69 0 0 0 .409-.025l.256-.051.307 1.355a3.07 3.07 0 0 1-.428.115 3.13 3.13 0 0 1-.697.064 3.04 3.04 0 0 1-1.253-.275c-.405-.183-.742-.462-1.01-.837s-.396-.848-.396-1.419v-9.767zM66.062 257H64.4l4.807-13.091h1.636L75.65 257h-1.662l-3.912-11.02h-.102L66.062 257zm.614-5.114h6.699v1.407h-6.699v-1.407zM77.41 257v-9.818h1.508V257H77.41zm.767-11.455c-.294 0-.548-.1-.761-.3s-.313-.441-.313-.722.104-.522.313-.723.467-.3.761-.3a1.05 1.05 0 0 1 .754.3c.213.201.32.441.32.723s-.106.522-.32.722a1.05 1.05 0 0 1-.754.3zm10.279 3.836l-1.355.383a2.51 2.51 0 0 0-.377-.658c-.162-.218-.384-.396-.665-.537s-.641-.211-1.08-.211c-.601 0-1.102.138-1.502.415s-.595.62-.595 1.042c0 .375.136.672.409.889s.699.398 1.278.543l1.457.358c.878.213 1.532.539 1.962.978s.646.995.646 1.681a2.49 2.49 0 0 1-.486 1.509c-.32.443-.767.792-1.342 1.048s-1.244.384-2.007.384c-1.002 0-1.83-.218-2.487-.652s-1.072-1.07-1.246-1.905l1.432-.358c.136.528.394.924.773 1.189s.884.396 1.502.396c.703 0 1.261-.149 1.675-.447s.626-.665.626-1.087a1.14 1.14 0 0 0-.358-.857c-.239-.234-.605-.409-1.099-.524l-1.636-.383c-.899-.213-1.56-.544-1.982-.991-.418-.452-.626-1.016-.626-1.694 0-.554.156-1.044.467-1.47s.744-.761 1.285-1.004 1.163-.364 1.854-.364c.972 0 1.734.213 2.288.639s.954.989 1.189 1.688zm3.778-5.472V257h-1.508v-13.091h1.508zm6.699 13.296c-.946 0-1.762-.209-2.448-.627s-1.208-1.01-1.579-1.764-.55-1.641-.55-2.646.183-1.892.55-2.659.886-1.373 1.547-1.803 1.44-.652 2.327-.652a4.64 4.64 0 0 1 1.515.256c.499.17.953.447 1.362.831s.735.882.978 1.508.364 1.398.364 2.314v.639h-7.568v-1.304h6.034c0-.554-.111-1.048-.332-1.483s-.529-.777-.934-1.029-.873-.377-1.419-.377c-.601 0-1.121.149-1.56.448a2.94 2.94 0 0 0-1.004 1.15 3.38 3.38 0 0 0-.352 1.521v.87c0 .741.128 1.37.384 1.885a2.76 2.76 0 0 0 1.08 1.17c.46.264.995.396 1.604.396.396 0 .754-.055 1.074-.166s.603-.285.837-.511a2.33 2.33 0 0 0 .543-.857l1.458.409c-.154.495-.412.929-.774 1.304s-.809.661-1.342.87c-.533.204-1.132.307-1.796.307zM13.119 273h-1.585c-.094-.456-.258-.857-.492-1.202s-.511-.635-.844-.869-.693-.418-1.093-.537-.818-.179-1.253-.179a3.99 3.99 0 0 0-2.154.601c-.639.4-1.148.991-1.528 1.771s-.562 1.736-.562 2.87.188 2.09.562 2.87.889 1.37 1.528 1.77a3.99 3.99 0 0 0 2.154.601c.435 0 .852-.06 1.253-.179s.765-.296 1.093-.53a3.38 3.38 0 0 0 .844-.876c.234-.35.398-.75.492-1.202h1.585c-.119.669-.337 1.268-.652 1.796s-.707.978-1.176 1.349-.995.646-1.579.837-1.2.288-1.86.288c-1.116 0-2.109-.273-2.979-.818s-1.553-1.321-2.052-2.327-.748-2.199-.748-3.579.249-2.574.748-3.58 1.183-1.781 2.052-2.327 1.862-.818 2.979-.818c.661 0 1.281.096 1.86.288s1.11.473 1.579.844c.469.366.861.813 1.176 1.342s.533 1.123.652 1.796zm6.166 9.205c-.886 0-1.664-.211-2.333-.633s-1.185-1.012-1.56-1.771-.556-1.645-.556-2.659c0-1.023.185-1.915.556-2.678s.895-1.355 1.56-1.777 1.447-.633 2.333-.633 1.662.211 2.327.633 1.189 1.014 1.56 1.777.563 1.655.563 2.678c0 1.014-.187 1.901-.562 2.659s-.891 1.349-1.56 1.771-1.44.633-2.327.633zm0-1.356c.673 0 1.227-.172 1.662-.517s.756-.799.965-1.362a5.21 5.21 0 0 0 .313-1.828 5.26 5.26 0 0 0-.313-1.834c-.209-.567-.531-1.025-.965-1.375s-.989-.524-1.662-.524-1.227.175-1.662.524-.756.808-.965 1.375a5.26 5.26 0 0 0-.313 1.834 5.21 5.21 0 0 0 .313 1.828 3.05 3.05 0 0 0 .965 1.362c.435.345.989.517 1.662.517zm8.08-4.755V282h-1.509v-9.818h1.457v1.534h.128c.23-.499.58-.899 1.048-1.202s1.074-.46 1.815-.46c.665 0 1.246.136 1.745.409s.886.678 1.163 1.227.415 1.236.415 2.071V282h-1.508v-6.136c0-.772-.2-1.373-.601-1.803s-.95-.652-1.649-.652a2.63 2.63 0 0 0-1.291.313c-.375.209-.671.514-.889.914s-.326.887-.326 1.458zm13.111-3.912v1.278h-5.088v-1.278h5.088zm-3.605-2.352h1.508v9.358c0 .426.062.745.185.958s.29.35.486.422.411.102.633.102a2.69 2.69 0 0 0 .409-.025l.256-.051.307 1.355a3.07 3.07 0 0 1-.428.115c-.183.043-.416.064-.697.064a3.04 3.04 0 0 1-1.253-.275c-.405-.183-.741-.462-1.01-.837s-.396-.848-.396-1.419v-9.767zm8.584 12.4c-.622 0-1.187-.117-1.694-.351-.507-.239-.91-.582-1.208-1.03s-.447-.997-.447-1.636c0-.562.111-1.018.332-1.368a2.34 2.34 0 0 1 .889-.831 4.68 4.68 0 0 1 1.227-.447l1.361-.243 1.451-.173c.375-.042.648-.113.818-.211s.262-.268.262-.511v-.051c0-.631-.173-1.121-.518-1.47s-.859-.524-1.553-.524c-.72 0-1.285.157-1.694.473s-.697.652-.863 1.009l-1.432-.511c.256-.596.597-1.061 1.023-1.393s.899-.571 1.406-.703a5.81 5.81 0 0 1 1.509-.205 5.95 5.95 0 0 1 1.087.115c.413.072.812.224 1.195.454s.709.577.965 1.042.383 1.086.383 1.866V282h-1.508v-1.33h-.077c-.102.214-.273.442-.511.684s-.556.45-.952.62-.88.256-1.451.256zm.23-1.355c.597 0 1.099-.117 1.508-.352s.724-.536.933-.907.32-.761.32-1.17v-1.381c-.064.077-.205.147-.422.211s-.46.113-.742.16l-.812.115-.633.077c-.392.051-.758.134-1.099.249s-.609.279-.818.505-.307.524-.307.908c0 .524.194.92.582 1.189s.889.396 1.489.396zM52.528 282v-9.818h1.508V282h-1.508zm.767-11.455c-.294 0-.548-.1-.761-.3s-.313-.441-.313-.722.104-.522.313-.723.467-.3.761-.3a1.05 1.05 0 0 1 .754.3c.213.201.32.441.32.723s-.107.522-.32.722a1.05 1.05 0 0 1-.754.3zm4.833 5.549V282h-1.509v-9.818h1.457v1.534h.128c.23-.499.579-.899 1.048-1.202s1.074-.46 1.815-.46c.665 0 1.246.136 1.745.409s.886.678 1.163 1.227.416 1.236.416 2.071V282h-1.509v-6.136c0-.772-.2-1.373-.601-1.803s-.95-.652-1.649-.652a2.63 2.63 0 0 0-1.291.313c-.375.209-.671.514-.889.914s-.326.887-.326 1.458zM66.968 282v-9.818h1.457v1.534h.128c.204-.524.535-.931.991-1.221s1.004-.441 1.643-.441c.648 0 1.187.147 1.617.441s.773.697 1.016 1.221h.102c.251-.507.629-.91 1.131-1.208s1.106-.454 1.809-.454c.878 0 1.596.275 2.154.825.558.545.837 1.395.837 2.55V282h-1.508v-6.571c0-.724-.198-1.242-.594-1.553a2.2 2.2 0 0 0-1.4-.467c-.69 0-1.225.209-1.604.627s-.569.937-.569 1.572V282h-1.534v-6.724c0-.559-.181-1.008-.543-1.349s-.829-.518-1.4-.518c-.392 0-.758.104-1.099.313s-.609.499-.818.87-.307.79-.307 1.272V282h-1.509zm19.581.205c-.946 0-1.762-.209-2.448-.627s-1.208-1.01-1.579-1.764c-.367-.759-.55-1.641-.55-2.646s.183-1.892.55-2.659.886-1.373 1.547-1.803 1.44-.652 2.327-.652a4.64 4.64 0 0 1 1.515.256 3.74 3.74 0 0 1 1.362.831c.409.379.735.882.978 1.508s.364 1.398.364 2.314v.639h-7.568v-1.304h6.034a3.22 3.22 0 0 0-.332-1.483 2.51 2.51 0 0 0-.933-1.029c-.401-.251-.874-.377-1.419-.377-.601 0-1.121.149-1.56.448a2.94 2.94 0 0 0-1.004 1.15 3.38 3.38 0 0 0-.352 1.521v.87c0 .741.128 1.37.383 1.885a2.76 2.76 0 0 0 1.08 1.17c.46.264.995.396 1.604.396.396 0 .754-.055 1.074-.166s.603-.285.837-.511.415-.516.543-.857l1.457.409c-.153.495-.411.929-.773 1.304a3.77 3.77 0 0 1-1.342.87 4.99 4.99 0 0 1-1.796.307zm7.689-6.111V282h-1.509v-9.818h1.457v1.534h.128c.23-.499.579-.899 1.048-1.202s1.074-.46 1.815-.46c.665 0 1.246.136 1.745.409s.886.678 1.164 1.227.415 1.236.415 2.071V282h-1.508v-6.136c0-.772-.2-1.373-.601-1.803s-.95-.652-1.649-.652a2.63 2.63 0 0 0-1.291.313c-.375.209-.671.514-.888.914s-.326.887-.326 1.458zm13.111-3.912v1.278h-5.088v-1.278h5.088zm-3.606-2.352h1.509v9.358c0 .426.062.745.185.958s.29.35.486.422.411.102.633.102c.166 0 .303-.008.409-.025l.256-.051.307 1.355c-.103.038-.245.077-.429.115s-.415.064-.696.064c-.427 0-.844-.092-1.253-.275a2.48 2.48 0 0 1-1.01-.837c-.264-.375-.397-.848-.397-1.419v-9.767zm17.941 2.352c-.077-.648-.388-1.151-.933-1.509s-1.215-.537-2.007-.537c-.58 0-1.087.094-1.522.282-.43.187-.767.445-1.01.773s-.358.701-.358 1.119a1.59 1.59 0 0 0 .25.901c.17.247.387.454.652.62s.541.296.831.403l.799.249 1.329.358a11.41 11.41 0 0 1 1.138.371 5.24 5.24 0 0 1 1.208.645 3.3 3.3 0 0 1 .959 1.036c.251.422.377.939.377 1.553 0 .707-.185 1.347-.556 1.918s-.904 1.024-1.611 1.361-1.557.505-2.563.505c-.938 0-1.749-.151-2.435-.454s-1.219-.724-1.611-1.265-.608-1.17-.659-1.886h1.637c.042.494.209.903.498 1.227.294.32.665.559 1.112.716s.938.23 1.458.23c.605 0 1.148-.098 1.63-.294s.863-.477 1.144-.831a1.97 1.97 0 0 0 .422-1.253c0-.434-.122-.788-.364-1.061a2.68 2.68 0 0 0-.959-.664 10.07 10.07 0 0 0-1.285-.448l-1.611-.46c-1.023-.294-1.832-.714-2.429-1.259s-.895-1.26-.895-2.142c0-.733.198-1.372.595-1.917s.937-.976 1.611-1.279 1.433-.46 2.269-.46c.843 0 1.593.151 2.25.454.656.298 1.176.707 1.559 1.227.388.52.593 1.11.614 1.771h-1.534zm4.906 13.5c-.255 0-.483-.021-.684-.064s-.338-.077-.415-.115l.383-1.33c.367.094.691.128.972.103s.531-.152.748-.378c.222-.221.424-.581.607-1.08l.281-.767-3.63-9.869h1.636l2.71 7.824h.103l2.71-7.824h1.636l-4.167 11.25c-.188.507-.42.927-.697 1.259-.277.337-.599.586-.965.748s-.772.243-1.228.243zm15.823-11.301l-1.355.383a2.51 2.51 0 0 0-.377-.658 1.83 1.83 0 0 0-.665-.537c-.281-.141-.641-.211-1.08-.211-.601 0-1.102.138-1.503.415-.396.273-.594.62-.594 1.042 0 .375.136.672.409.889s.699.398 1.279.543l1.457.358c.878.213 1.532.539 1.962.978s.646.995.646 1.681a2.49 2.49 0 0 1-.486 1.509c-.32.443-.767.792-1.342 1.048s-1.245.384-2.007.384c-1.002 0-1.831-.218-2.487-.652s-1.072-1.07-1.246-1.905l1.431-.358c.137.528.395.924.774 1.189s.884.396 1.502.396c.703 0 1.261-.149 1.675-.447s.626-.665.626-1.087a1.14 1.14 0 0 0-.358-.857c-.238-.234-.605-.409-1.099-.524l-1.637-.383c-.899-.213-1.559-.544-1.981-.991s-.627-1.016-.627-1.694c0-.554.156-1.044.467-1.47s.744-.761 1.285-1.004 1.163-.364 1.854-.364c.971 0 1.734.213 2.288.639s.955.989 1.189 1.688zm6.54-2.199v1.278h-5.089v-1.278h5.089zm-3.606-2.352h1.509v9.358c0 .426.062.745.185.958.128.209.29.35.486.422s.411.102.633.102c.166 0 .302-.008.409-.025l.256-.051.307 1.355c-.103.038-.246.077-.429.115s-.415.064-.696.064c-.427 0-.844-.092-1.253-.275a2.48 2.48 0 0 1-1.01-.837c-.264-.375-.397-.848-.397-1.419v-9.767zm9.706 12.375c-.946 0-1.762-.209-2.448-.627a4.2 4.2 0 0 1-1.579-1.764c-.367-.759-.55-1.641-.55-2.646s.183-1.892.55-2.659.886-1.373 1.547-1.803 1.44-.652 2.326-.652c.512 0 1.017.085 1.515.256s.953.447 1.362.831c.409.379.735.882.978 1.508s.364 1.398.364 2.314v.639h-7.568v-1.304h6.034c0-.554-.111-1.048-.332-1.483s-.529-.777-.934-1.029-.873-.377-1.419-.377c-.601 0-1.12.149-1.559.448-.435.294-.77.677-1.004 1.15s-.351.98-.351 1.521v.87c0 .741.127 1.37.383 1.885s.62.902 1.08 1.17.995.396 1.605.396c.396 0 .754-.055 1.074-.166s.603-.285.837-.511a2.33 2.33 0 0 0 .543-.857l1.458.409c-.154.495-.412.929-.774 1.304s-.809.661-1.342.87c-.533.204-1.132.307-1.796.307zm6.18-.205v-9.818h1.457v1.534h.128a2.47 2.47 0 0 1 .991-1.221c.456-.294 1.003-.441 1.643-.441.647 0 1.186.147 1.617.441a2.89 2.89 0 0 1 1.016 1.221h.102c.252-.507.629-.91 1.132-1.208s1.106-.454 1.809-.454c.878 0 1.596.275 2.154.825.558.545.837 1.395.837 2.55V282h-1.508v-6.571c0-.724-.199-1.242-.595-1.553a2.2 2.2 0 0 0-1.4-.467c-.69 0-1.225.209-1.604.627s-.569.937-.569 1.572V282h-1.534v-6.724c0-.559-.181-1.008-.543-1.349s-.829-.518-1.4-.518a2.07 2.07 0 0 0-1.1.313c-.336.209-.609.499-.818.87s-.307.79-.307 1.272V282h-1.508z" fill="#092649"/><g filter="url(#A)"><path d="M477.113 224.192l-115.918 67.87-26.953 15.783c-3.034 1.683-6.441 2.548-9.899 2.515-2.649.077-5.273-.533-7.625-1.772l-29.226-17.146-117.168-68.584c-2.038-1.191-3.033-2.791-3.033-4.458 0-2.019 1.456-4.143 4.292-5.801l142.824-83.663c5.194-3.039 13.036-3.372 17.525-.743l146.402 85.73c4.527 2.648 3.963 7.23-1.221 10.269z" fill="#eaeaea"/></g><g filter="url(#B)"><path d="M462.441 221.076l-104.154 60.983-24.218 14.182c-2.726 1.511-5.788 2.289-8.894 2.259a13.84 13.84 0 0 1-6.852-1.592l-26.26-15.406-105.277-61.624c-1.831-1.07-2.725-2.508-2.725-4.005 0-1.815 1.307-3.723 3.856-5.213l128.33-75.173c4.666-2.73 11.712-3.029 15.746-.667l131.545 77.03c4.068 2.379 3.561 6.496-1.097 9.226z" fill="#888"/></g><g opacity=".3" filter="url(#C)"><path fill-rule="evenodd" d="M178.931 214.502l44.741-24.846 254.15 26.951-152.979 91.804-92.702-55.587-53.21-38.322z" fill="#494c50"/></g><path d="M429.979 70.243c.104-.637.35-1.241.721-1.766a4.18 4.18 0 0 1 1.414-1.264l37.829-22.142.725-.428c.794-.462 1.485-.496 1.848-.163l-3.459-1.823c-.751-.394-2.397.813-3.207 1.292l-35.871 20.772a4.18 4.18 0 0 0-1.414 1.264 4.26 4.26 0 0 0-.721 1.766l2.109 2.508" fill="#4f89c8"/><path d="M429.979 70.226v90.913c-.004.181.037.36.118.522l-1.899-2.277c-.134-.146-.233-.322-.29-.513s-.071-.394-.039-.591V67.718l2.11 2.508z" class="K"/><path d="M472.812 45.157v90.913c0 .975-.971 2.328-2.144 3.029l-38.554 22.57c-.929.548-1.688.522-2.009 0-.081-.158-.122-.335-.118-.513V70.243a4.26 4.26 0 0 1 .721-1.766 4.19 4.19 0 0 1 1.414-1.264l37.829-22.142.726-.428c.793-.462 1.485-.496 1.848-.163l.084.094c.131.165.203.37.203.582h0z" class="I"/><g class="J"><use xlink:href="#R"/><use xlink:href="#S"/><use xlink:href="#R" y="5.221"/><use xlink:href="#S" y="5.221"/><use xlink:href="#R" y="10.442"/><path d="M207.308 144.808l-5.637-3.312 22.429-13.138 5.645 3.312-22.437 13.138zm-26.058 20.55l-5.645-3.304 22.438-13.137 5.636 3.303-22.429 13.138z"/><use xlink:href="#T"/><use xlink:href="#U"/><path d="M207.308 155.241l-5.637-3.303L224.1 138.8l5.645 3.304-22.437 13.137z"/><use xlink:href="#U" y="5.221"/><use xlink:href="#S" y="26.096"/><use xlink:href="#R" y="31.317"/><use xlink:href="#S" y="31.317"/><use xlink:href="#R" y="36.538"/><path d="M207.308 170.904l-5.637-3.312 22.429-13.138 5.645 3.304-22.437 13.146zm-26.058 20.55l-5.645-3.312 22.438-13.138 5.636 3.312-22.429 13.138z"/><use xlink:href="#T" y="26.096"/><path d="M181.25 196.667l-5.645-3.304 22.438-13.138 5.636 3.312-22.429 13.13z"/><use xlink:href="#T" y="31.317"/><use xlink:href="#U" y="31.317"/><use xlink:href="#T" y="36.538"/><use xlink:href="#U" y="36.538"/><path d="M207.308 191.779l-5.637-3.303 22.429-13.147 5.645 3.313-22.437 13.137zm-26.058 20.55l-5.645-3.303 22.438-13.138 5.636 3.304-22.429 13.137z"/><path d="M207.308 196.992l-5.637-3.304L224.1 180.55l5.645 3.304-22.437 13.138z"/></g><path d="M236.96 181.312l-56.436 33.054v-65.689l56.436-33.055v65.69z" class="O"/><path d="M248.841 188.835l-56.435 33.046v-65.689l56.435-33.046v65.689z" class="J"/><path d="M180.524 148.677l11.882 7.515v65.689l-11.882-7.514v-65.69z" class="P"/><path d="M236.96 115.622l11.881 7.524-56.435 33.046-11.882-7.515 56.436-33.055z" class="Q"/><g class="J"><use xlink:href="#U" x="64.798" y="-136.498"/><path d="M272.106 18.744l-5.645-3.312 22.437-13.138 5.645 3.312-22.437 13.138z"/><use xlink:href="#U" x="64.798" y="-131.277"/><use xlink:href="#V"/><path d="M246.048 44.515l-5.645-3.312 22.438-13.138 5.636 3.312-22.429 13.138z"/><use xlink:href="#V" y="5.221"/><use xlink:href="#U" x="64.798" y="-120.844"/><use xlink:href="#V" y="10.442"/><use xlink:href="#U" x="64.798" y="-115.623"/><use xlink:href="#V" y="15.663"/><use xlink:href="#U" x="64.798" y="-110.402"/><path d="M272.106 44.832l-5.645-3.304 22.437-13.138 5.645 3.312-22.437 13.129z"/><use xlink:href="#U" x="64.798" y="-105.181"/><use xlink:href="#V" y="26.097"/><path d="M246.048 70.611l-5.645-3.312 22.438-13.138 5.636 3.304-22.429 13.147z"/><use xlink:href="#V" y="31.318"/><use xlink:href="#U" x="64.798" y="-94.748"/><use xlink:href="#V" y="36.538"/><use xlink:href="#U" x="64.798" y="-89.527"/><use xlink:href="#V" y="41.759"/><use xlink:href="#U" x="64.798" y="-84.306"/><path d="M272.106 70.936l-5.645-3.312 22.437-13.138 5.645 3.312-22.437 13.138zm-26.058 20.55l-5.645-3.304 22.438-13.147 5.636 3.312-22.429 13.138z"/><use xlink:href="#V" y="52.193"/><path d="M246.048 96.699l-5.645-3.304 22.438-13.138 5.636 3.312-22.429 13.129z"/><use xlink:href="#V" y="57.414"/></g><path d="M301.758 65.69l-56.435 33.046V33.055L301.758 0v65.69z" class="O"/><path d="M313.639 73.204l-56.435 33.055v-65.69l56.435-33.055v65.69z" class="J"/><path d="M245.323 33.055l11.881 7.515v65.69l-11.881-7.523V33.055z" class="P"/><path d="M301.758 0l11.882 7.515-56.436 33.054-11.881-7.515L301.758 0z" class="Q"/><g class="J"><path d="M181.25 71.467l-5.645-3.312 22.438-13.138 5.636 3.304-22.429 13.146zm26.058-15.338l-5.637-3.304L224.1 39.688l5.645 3.304-22.437 13.138z"/><use xlink:href="#U" y="-93.892"/><path d="M207.308 61.35l-5.637-3.304L224.1 44.909l5.645 3.304-22.437 13.138zM181.25 81.9l-5.645-3.304 22.438-13.138 5.636 3.304L181.25 81.9z"/><path d="M207.308 66.571l-5.637-3.304L224.1 50.121l5.645 3.312-22.437 13.138z"/><use xlink:href="#U" y="-83.45"/><path d="M207.308 71.792l-5.637-3.312L224.1 55.342l5.645 3.312-22.437 13.138zm-26.058 20.55l-5.645-3.304 22.438-13.147 5.636 3.312-22.429 13.138z"/><path d="M207.308 77.005l-5.637-3.304L224.1 60.563l5.645 3.304-22.437 13.138zm-26.058 20.55l-5.645-3.304 22.438-13.138 5.636 3.312-22.429 13.129z"/><path d="M207.308 82.226l-5.637-3.304L224.1 65.784l5.645 3.304-22.437 13.138zm-26.058 20.549l-5.645-3.303 22.438-13.138 5.636 3.304-22.429 13.138z"/><path d="M207.308 87.446l-5.637-3.304L224.1 71.005l5.645 3.304-22.437 13.138zm-26.058 20.55l-5.645-3.303 22.438-13.138 5.636 3.304-22.429 13.138z"/><path d="M207.308 92.667l-5.637-3.304L224.1 76.226l5.645 3.304-22.437 13.138z"/><use xlink:href="#R" y="-36.478"/><path d="M207.308 97.88l-5.637-3.304L224.1 81.438l5.645 3.304-22.437 13.138zm-26.058 20.558l-5.645-3.312 22.438-13.129 5.636 3.303-22.429 13.138z"/><path d="M207.308 103.101l-5.637-3.304L224.1 86.659l5.645 3.304-22.437 13.138z"/><use xlink:href="#U" y="-46.92"/><path d="M207.308 108.322l-5.637-3.304L224.1 91.88l5.645 3.304-22.437 13.138z"/><use xlink:href="#U" y="-41.699"/><path d="M207.308 113.543l-5.637-3.304L224.1 97.101l5.645 3.304-22.437 13.138z"/><use xlink:href="#U" y="-36.478"/><path d="M207.308 118.763l-5.637-3.312 22.429-13.129 5.645 3.304-22.437 13.137z"/></g><path d="M236.96 103.075l-56.436 33.055V70.44l56.436-33.046v65.681z" class="O"/><path d="M248.841 110.598l-56.435 33.046V77.955l56.435-33.046v65.689z" class="J"/><path d="M180.524 70.44l11.882 7.515v65.69l-11.882-7.515V70.44z" class="P"/><path d="M236.96 37.394l11.881 7.515-56.435 33.046-11.882-7.515 56.436-33.046z" class="Q"/><path d="M462.441 88.003l-104.154 60.982-24.218 14.182c-2.726 1.511-5.788 2.289-8.894 2.26a13.86 13.86 0 0 1-6.852-1.592l-26.26-15.406-105.277-61.624c-1.831-1.07-2.726-2.508-2.726-4.005 0-1.815 1.308-3.723 3.857-5.212l128.33-75.173c4.666-2.73 11.712-3.03 15.746-.668l131.545 77.03c4.067 2.379 3.561 6.496-1.097 9.226z" fill="#f1f2f2"/><path d="M325.2 165.427v131.867a13.84 13.84 0 0 1-6.852-1.592l-131.537-77.03c-1.831-1.07-2.725-2.508-2.725-4.006V82.799c0 1.498.894 2.936 2.725 4.005l105.277 61.625 26.26 15.406a13.86 13.86 0 0 0 6.852 1.592z" fill="url(#M)"/><path d="M466.306 82.79v131.885c0 1.814-1.308 3.714-3.856 5.203l-128.373 75.156c-2.726 1.511-5.788 2.289-8.894 2.26V165.427c3.106.029 6.168-.749 8.894-2.26l24.218-14.182L462.45 88.003c2.548-1.489 3.856-3.424 3.856-5.212z" fill="url(#N)"/><g filter="url(#D)"><path d="M350.824 275.833l88.753-51.797 49.469 32.636-93.749 53.665-44.473-34.504z" fill="#888"/></g><path d="M492.372 252.137l-91.522 53.596v-6.659l91.522-53.596v6.659z" class="K"/><g filter="url(#E)"><path d="M440.328 220.089L354.5 272.864v-28.476l87.14-49.927-1.312 25.628z" fill="#888"/></g><g filter="url(#F)"><path d="M441.159 181.457l-85.827 52.775v-28.476l87.139-49.927-1.312 25.628z" fill="#888"/></g><g filter="url(#G)"><path d="M441.159 141.71l-85.827 52.775v-28.476l87.139-49.927-1.312 25.628z" fill="#888"/></g><path d="M356.143 244.323l44.707 54.751v6.659l-44.707-34.775v-26.635z" class="L"/><path d="M447.666 190.71l44.706 54.751v6.65l-44.706-34.775V190.71z" class="R"/><path d="M356.143 244.323l91.523-53.596 44.706 54.751-91.522 53.596-44.707-54.751z" class="I"/><path d="M400.85 299.074l91.522-53.596v6.633l-91.522 53.622v-6.659z" class="S"/><g filter="url(#H)" class="L"><path d="M375.703 243.755l65.241-38.205 31.868 39.028-65.24 38.205-31.869-39.028z"/></g><path d="M492.372 213.023l-91.522 53.596v-6.659l91.522-53.596v6.659z" class="K"/><path d="M356.143 205.208l44.707 54.752v6.659l-44.707-34.775v-26.636z" class="L"/><path d="M447.666 151.595l44.706 54.752v6.659l-44.706-34.775v-26.636z" class="R"/><path d="M356.143 205.208l91.523-53.587 44.706 54.743-91.522 53.596-44.707-54.752z" class="I"/><path d="M400.85 259.96l91.522-53.596v6.642l-91.522 53.613v-6.659z" class="S"/><g filter="url(#I)" class="L"><path d="M375.703 205.012l65.241-38.205 31.868 39.028-65.24 38.205-31.869-39.028z"/></g><path d="M356.143 192.73l91.523-53.613V112.49l-91.523 53.613v26.627z" fill="#112f54"/><path d="M492.372 173.908l-91.522 53.596v-6.65l91.522-53.596v6.65z" class="K"/><path d="M356.143 166.103l44.707 54.751v6.65l-44.707-34.774v-26.627z" class="L"/><path d="M447.666 112.49l44.706 54.743v6.658l-44.706-34.774V112.49z" class="R"/><path d="M356.143 166.103l91.523-53.596 44.706 54.751-91.522 53.596-44.707-54.751z" class="I"/><path d="M400.85 220.854l91.522-53.596v6.633l-91.522 53.613v-6.65z" class="S"/><g filter="url(#J)"><path d="M280.105 275.355l-37.829 22.151-2.556-2.443 36.293-20.829c.81-.479 2.778-1.728 3.529-1.334l2.85 1.702c.11.038.207.095.287.171l-.287-.171c-.388-.135-.944-.034-1.561.325l-.726.428z" fill="#c1c1c1"/></g><path d="M316.348 283.6l-2.447 1.754c-.844.625-1.941.129-3.316-.685l-22.708-13.197c-4.219-2.517-4.911-2.945-4.911-7.703v-85.855c0-1.301-.262-4.502 2.076-4.502.805-.038 1.61.081 2.371.351-.641.747-1.149 1.601-1.502 2.525-.052.302-.078.609-.076.916v84.185c0 4.485.895 5.272 4.565 7.541l20.868 12.504 2.025 1.25a6.42 6.42 0 0 0 1.519.659c.768.162.979.582 1.536.257z" fill="#e6e7e8"/><path d="M314.779 283.531L287.911 267.8c-.683-.495-1.241-1.146-1.631-1.899a5.51 5.51 0 0 1-.614-2.441v-87.771c0-1.712 1.004-2.448 2.245-1.712l26.868 15.731a5.43 5.43 0 0 1 1.632 1.903 5.5 5.5 0 0 1 .612 2.445v87.763c0 1.669-1.004 2.439-2.244 1.712z" fill="url(#O)"/><path d="M315.192 184.89l-27.695-16.22c-.367-.243-.673-.57-.893-.955s-.347-.817-.372-1.261V155.43c0-.856.573-1.156 1.265-.745l27.695 16.219a2.82 2.82 0 0 1 .895.96 2.87 2.87 0 0 1 .371 1.266v11.023c0 .814-.574 1.147-1.266.737z" fill="#a7a9ac"/><g fill="#939598"><use xlink:href="#W"/><path d="M295.112 171.558c.209-.124.209-.519 0-.883s-.549-.557-.758-.433-.209.519 0 .883.549.557.758.433zm6.697 3.921c.21-.124.21-.519 0-.882s-.548-.557-.758-.433-.209.519.001.882.548.557.757.433zm6.694 3.929c.21-.124.209-.519 0-.882s-.549-.557-.758-.433-.209.519 0 .882.549.557.758.433zm6.697 3.917c.209-.124.209-.519 0-.882s-.549-.557-.758-.433-.209.519 0 .882.549.558.758.433zm-26.788-25.361c.21-.124.21-.519 0-.882s-.548-.557-.758-.433-.209.519.001.882.548.557.757.433zm6.706 3.917c.209-.124.209-.519 0-.882s-.549-.557-.758-.433-.209.519 0 .882.549.558.758.433z"/><use xlink:href="#W" x="13.392" y="-1.837"/><path d="M308.497 169.725c.209-.124.209-.519 0-.883s-.549-.557-.758-.433-.209.519 0 .883.549.557.758.433z"/><use xlink:href="#W" x="26.787" y="6.002"/></g><path d="M240.141 199.756a4.26 4.26 0 0 1 .721-1.762c.371-.524.854-.955 1.414-1.259l37.829-22.15.726-.428c.793-.462 1.485-.497 1.848-.154l-3.46-1.832c-.751-.394-2.396.813-3.206 1.292l-35.872 20.782a4.16 4.16 0 0 0-1.413 1.258 4.23 4.23 0 0 0-.721 1.763l2.109 2.508" fill="#4f89c8"/><path d="M240.142 199.748v90.904c-.005.181.035.361.118.522l-1.899-2.277a1.3 1.3 0 0 1-.292-.513 1.31 1.31 0 0 1-.037-.591V197.24l2.11 2.508z" class="K"/><path d="M282.975 174.679v90.904a4.31 4.31 0 0 1-.744 1.759c-.376.521-.863.95-1.425 1.254l-38.555 22.57c-.928.547-1.688.522-2.008 0a1.04 1.04 0 0 1-.118-.514v-90.896c.104-.635.351-1.238.721-1.762s.854-.955 1.414-1.259l37.829-22.15.725-.428c.794-.463 1.486-.497 1.848-.154l.085.085a.96.96 0 0 1 .228.591h0z" class="I"/><g clip-path="url(#Q)"><path d="M114.77 68.2H18.462c-.792 0-1.434.652-1.434 1.456v128.179c0 .804.642 1.455 1.434 1.455h96.308c.792 0 1.434-.651 1.434-1.455V69.656c0-.804-.642-1.456-1.434-1.456z" class="I"/><path d="M54.482 78.808H22.165c-.792 0-1.434.652-1.434 1.456v24.251c0 .804.642 1.455 1.434 1.455h32.318c.792 0 1.434-.651 1.434-1.455V80.264c0-.804-.642-1.456-1.434-1.456z" class="B"/><g fill="#7bb677"><path d="M111.894 71.089H89.987a.72.72 0 0 0-.713.724v4.052a.72.72 0 0 0 .713.724h21.907a.72.72 0 0 0 .713-.724v-4.052a.72.72 0 0 0-.713-.724zm-87.787 0h-2.663a.72.72 0 0 0-.713.724v3.397a.72.72 0 0 0 .713.724h2.663a.72.72 0 0 0 .713-.724v-3.397a.72.72 0 0 0-.713-.724z"/></g><path d="M30.618 126.462h-4.826c-.239 0-.432.196-.432.439v30.66c0 .242.194.439.432.439h4.826c.239 0 .433-.197.433-.439v-30.66c0-.243-.194-.439-.433-.439z" class="B"/><g class="C F"><use xlink:href="#X"/><path d="M29.283 128.218c0 .127-.099.217-.206.217s-.206-.09-.206-.217.099-.216.206-.216.206.089.206.216z"/><use xlink:href="#Y"/><path d="M29.283 129.967c0 .126-.099.216-.206.216s-.206-.09-.206-.216.099-.217.206-.217.206.09.206.217z"/><use xlink:href="#Z"/><path d="M29.283 131.723c0 .127-.099.217-.206.217s-.206-.09-.206-.217.099-.216.206-.216.206.09.206.216z"/><use xlink:href="#a"/><path d="M29.283 133.472c0 .127-.099.216-.206.216s-.206-.089-.206-.216.099-.217.206-.217.206.09.206.217zm-1.722 1.749c0 .126-.099.216-.206.216s-.206-.09-.206-.216.099-.217.206-.217.206.09.206.217zm1.722 0c0 .126-.099.216-.206.216s-.206-.09-.206-.216.099-.217.206-.217.206.09.206.217z"/><use xlink:href="#b"/><path d="M29.283 136.977c0 .127-.099.216-.206.216s-.206-.089-.206-.216.099-.216.206-.216.206.089.206.216zm-1.722 1.749c0 .126-.099.216-.206.216s-.206-.09-.206-.216.099-.217.206-.217.206.09.206.217zm1.722 0c0 .126-.099.216-.206.216s-.206-.09-.206-.216.099-.217.206-.217.206.09.206.217zm-1.722 1.756c0 .127-.099.216-.206.216s-.206-.089-.206-.216.099-.216.206-.216.206.089.206.216zm1.722 0c0 .127-.099.216-.206.216s-.206-.089-.206-.216.099-.216.206-.216.206.089.206.216zm-1.722 1.749c0 .126-.099.216-.206.216s-.206-.09-.206-.216.099-.217.206-.217.206.09.206.217zm1.722 0c0 .126-.099.216-.206.216s-.206-.09-.206-.216.099-.217.206-.217.206.09.206.217zm-1.722 1.748c0 .127-.099.217-.206.217s-.206-.09-.206-.217.099-.216.206-.216.206.09.206.216zm1.722 0c0 .127-.099.217-.206.217s-.206-.09-.206-.217.099-.216.206-.216.206.09.206.216zm-1.722 1.757c0 .127-.099.216-.206.216s-.206-.089-.206-.216.099-.217.206-.217.206.09.206.217zm1.722 0c0 .127-.099.216-.206.216s-.206-.089-.206-.216.099-.217.206-.217.206.09.206.217zm-1.722 1.749c0 .126-.099.216-.206.216s-.206-.09-.206-.216.099-.217.206-.217.206.09.206.217zm1.722 0c0 .126-.099.216-.206.216s-.206-.09-.206-.216.099-.217.206-.217.206.09.206.217zm-1.722 1.756c0 .127-.099.216-.206.216s-.206-.089-.206-.216.099-.216.206-.216.206.089.206.216zm1.722 0c0 .127-.099.216-.206.216s-.206-.089-.206-.216.099-.216.206-.216.206.089.206.216zm-1.722 1.749c0 .126-.099.216-.206.216s-.206-.09-.206-.216.099-.217.206-.217.206.09.206.217zm1.722 0c0 .126-.099.216-.206.216s-.206-.09-.206-.216.099-.217.206-.217.206.09.206.217zm-1.722 1.748c0 .127-.099.217-.206.217s-.206-.09-.206-.217.099-.216.206-.216.206.09.206.216zm1.722 0c0 .127-.099.217-.206.217s-.206-.09-.206-.217.099-.216.206-.216.206.09.206.216zm-1.722 1.757c0 .126-.099.216-.206.216s-.206-.09-.206-.216.099-.217.206-.217.206.09.206.217zm1.722 0c0 .126-.099.216-.206.216s-.206-.09-.206-.216.099-.217.206-.217.206.09.206.217zm-1.722 1.748c0 .127-.099.217-.206.217s-.206-.09-.206-.217.099-.216.206-.216.206.09.206.216zm1.722 0c0 .127-.099.217-.206.217s-.206-.09-.206-.217.099-.216.206-.216.206.09.206.216z"/></g><path d="M96.187 94.2V90.91c0-.243-.194-.439-.433-.439H74.181c-.239 0-.432.196-.432.439V94.2c0 .242.194.439.432.439h21.573c.239 0 .433-.197.433-.439z" class="B"/><g class="C F"><path d="M94.943 91.935zm0 1.263zm-1.245-1.263zm0 1.263zm-1.244-1.263zm0 1.263zm-1.245-1.263zm0 1.263zm-1.244-1.263zm0 1.263zm-1.252-1.263zm0 1.263zm-1.245-1.263zm0 1.263zm-1.244-1.263zm0 1.263zm-1.245-1.263zm0 1.263zm-1.244-1.263zm0 1.263zm-1.252-1.263zm0 1.263zm-1.245-1.263zm0 1.263zm-1.244-1.263zm0 1.263zm-1.245-1.263zm0 1.263zm-1.244-1.263zm0 1.263zm-1.252-1.263zm0 1.263zm-1.245-1.263zm0 1.263z"/></g><use xlink:href="#c" class="B"/><g class="C F"><path d="M94.943 105.601zm0 1.263zm-1.245-1.263zm0 1.263zm-1.244-1.263zm0 1.263zm-1.245-1.263zm0 1.263zm-1.244-1.263zm0 1.263zm-1.252-1.263zm0 1.263zm-1.245-1.263zm0 1.263zm-1.244-1.263zm0 1.263zm-1.245-1.263zm0 1.263zm-1.244-1.263zm0 1.263zm-1.252-1.263zm0 1.263zm-1.245-1.263zm0 1.263zm-1.244-1.263zm0 1.263zm-1.245-1.263zm0 1.263zm-1.244-1.263zm0 1.263zm-1.252-1.263zm0 1.263zm-1.245-1.263zm0 1.263z"/></g><path d="M96.187 121.531v-3.289c0-.242-.194-.439-.433-.439H74.181c-.239 0-.433.197-.433.439v3.289c0 .243.194.44.433.44h21.573c.239 0 .433-.197.433-.44z" class="B"/><g class="C F"><path d="M94.943 119.267zm0 1.263zm-1.245-1.263zm0 1.263zm-1.244-1.263zm0 1.263zm-1.245-1.263zm0 1.263zm-1.244-1.263zm0 1.263zm-1.252-1.263zm0 1.263zm-1.245-1.263zm0 1.263zm-1.244-1.263zm0 1.263zm-1.245-1.263zm0 1.263zm-1.244-1.263zm0 1.263zm-1.252-1.263zm0 1.263zm-1.245-1.263zm0 1.263zm-1.244-1.263zm0 1.263zm-1.245-1.263zm0 1.263zm-1.244-1.263zm0 1.263zm-1.252-1.263zm0 1.263zm-1.245-1.263zm0 1.263z"/></g><path d="M96.187 135.197v-3.289c0-.242-.194-.439-.433-.439H74.181c-.239 0-.433.197-.433.439v3.289c0 .243.194.44.433.44h21.573c.239 0 .433-.197.433-.44z" class="B"/><g class="C F"><path d="M94.943 132.933zm0 1.263zm-1.245-1.263zm0 1.263zm-1.244-1.263zm0 1.263zm-1.245-1.263zm0 1.263zm-1.244-1.263zm0 1.263zm-1.252-1.263zm0 1.263zm-1.245-1.263zm0 1.263zm-1.244-1.263zm0 1.263zm-1.245-1.263zm0 1.263zm-1.244-1.263zm0 1.263zm-1.252-1.263zm0 1.263zm-1.245-1.263zm0 1.263zm-1.244-1.263zm0 1.263zm-1.245-1.263zm0 1.263zm-1.244-1.263zm0 1.263zm-1.252-1.263zm0 1.263zm-1.245-1.263zm0 1.263z"/></g><use xlink:href="#d" class="B"/><g class="C F"><path d="M94.943 146.599zm0 1.263zm-1.245-1.263zm0 1.263zm-1.244-1.263zm0 1.263zm-1.245-1.263zm0 1.263zm-1.244-1.263zm0 1.263zm-1.252-1.263zm0 1.263zm-1.245-1.263zm0 1.263zm-1.244-1.263zm0 1.263zm-1.245-1.263zm0 1.263zm-1.244-1.263zm0 1.263zm-1.252-1.263zm0 1.263zm-1.245-1.263zm0 1.263zm-1.244-1.263zm0 1.263zm-1.245-1.263zm0 1.263zm-1.244-1.263zm0 1.263zm-1.252-1.263zm0 1.263zm-1.245-1.263zm0 1.263z"/></g><path d="M96.187 162.529v-3.289c0-.243-.194-.439-.433-.439H74.181c-.239 0-.433.196-.433.439v3.289c0 .243.194.44.433.44h21.573c.239 0 .433-.197.433-.44z" class="B"/><g class="C F"><path d="M94.943 160.265zm0 1.263zm-1.245-1.263zm0 1.263zm-1.244-1.263zm0 1.263zm-1.245-1.263zm0 1.263zm-1.244-1.263zm0 1.263zm-1.252-1.263zm0 1.263zm-1.245-1.263zm0 1.263zm-1.244-1.263zm0 1.263zm-1.245-1.263zm0 1.263zm-1.244-1.263zm0 1.263zm-1.252-1.263zm0 1.263zm-1.245-1.263zm0 1.263zm-1.244-1.263zm0 1.263zm-1.245-1.263zm0 1.263zm-1.244-1.263zm0 1.263zm-1.252-1.263zm0 1.263zm-1.245-1.263zm0 1.263z"/></g><path d="M20.723 162.76v29.99a.72.72 0 0 0 .713.724h6.92a.72.72 0 0 0 .713-.724v-29.99a.72.72 0 0 0-.713-.724h-6.92a.72.72 0 0 0-.713.724z" class="B"/><g fill="#d1d3d4"><use xlink:href="#e"/><path d="M24.904 174.177c1.14 0 2.064-.938 2.064-2.095s-.924-2.096-2.064-2.096-2.064.939-2.064 2.096.924 2.095 2.064 2.095z"/><use xlink:href="#f"/><path d="M24.904 185.031c1.14 0 2.064-.938 2.064-2.095s-.924-2.095-2.064-2.095-2.064.938-2.064 2.095.924 2.095 2.064 2.095zm0 5.424c1.14 0 2.064-.939 2.064-2.096s-.924-2.095-2.064-2.095-2.064.938-2.064 2.095.924 2.096 2.064 2.096z"/></g><use xlink:href="#g" class="B"/><g class="C F"><path d="M49.384 128.079c0 .127-.099.217-.206.217s-.206-.09-.206-.217.099-.216.206-.216.206.09.206.216zm-1.722 0c0 .127-.099.217-.206.217s-.206-.09-.206-.217.099-.216.206-.216.206.09.206.216zm-1.731 0c0 .127-.099.217-.206.217s-.206-.09-.206-.217.099-.216.206-.216.206.09.206.216zm-1.722 0c0 .127-.099.217-.206.217s-.206-.09-.206-.217.099-.216.206-.216.206.09.206.216zm-1.722 0c0 .127-.099.217-.206.217s-.206-.09-.206-.217.099-.216.206-.216.206.09.206.216zm-1.731 0c0 .127-.099.217-.206.217s-.206-.09-.206-.217.099-.216.206-.216.206.09.206.216zm-1.722 0c0 .127-.099.217-.206.217s-.206-.09-.206-.217.099-.216.206-.216.206.09.206.216z"/></g><path d="M50.43 131.138H37.584a.29.29 0 0 0-.288.293v2.65a.29.29 0 0 0 .288.292H50.43a.29.29 0 0 0 .288-.292v-2.65a.29.29 0 0 0-.288-.293z" class="B"/><g class="C F"><path d="M49.384 132.763c0 .127-.099.217-.206.217s-.206-.09-.206-.217.099-.216.206-.216.206.09.206.216zm-1.722 0c0 .127-.099.217-.206.217s-.206-.09-.206-.217.099-.216.206-.216.206.09.206.216zm-1.731 0c0 .127-.099.217-.206.217s-.206-.09-.206-.217.099-.216.206-.216.206.09.206.216zm-1.722 0c0 .127-.099.217-.206.217s-.206-.09-.206-.217.099-.216.206-.216.206.09.206.216zm-1.722 0c0 .127-.099.217-.206.217s-.206-.09-.206-.217.099-.216.206-.216.206.09.206.216zm-1.731 0c0 .127-.099.217-.206.217s-.206-.09-.206-.217.099-.216.206-.216.206.09.206.216zm-1.722 0c0 .127-.099.217-.206.217s-.206-.09-.206-.217.099-.216.206-.216.206.09.206.216z"/></g><path d="M50.43 135.822H37.584a.29.29 0 0 0-.288.292v2.65a.29.29 0 0 0 .288.293H50.43a.29.29 0 0 0 .288-.293v-2.65a.29.29 0 0 0-.288-.292z" class="B"/><g class="C F"><path d="M49.384 137.439c0 .127-.099.217-.206.217s-.206-.09-.206-.217.099-.216.206-.216.206.09.206.216zm-1.722 0c0 .127-.099.217-.206.217s-.206-.09-.206-.217.099-.216.206-.216.206.09.206.216zm-1.731 0c0 .127-.099.217-.206.217s-.206-.09-.206-.217.099-.216.206-.216.206.09.206.216zm-1.722 0c0 .127-.099.217-.206.217s-.206-.09-.206-.217.099-.216.206-.216.206.09.206.216zm-1.722 0c0 .127-.099.217-.206.217s-.206-.09-.206-.217.099-.216.206-.216.206.09.206.216zm-1.731 0c0 .127-.099.217-.206.217s-.206-.09-.206-.217.099-.216.206-.216.206.09.206.216zm-1.722 0c0 .127-.099.217-.206.217s-.206-.09-.206-.217.099-.216.206-.216.206.09.206.216z"/></g><path d="M37.076 70.588h-1.829c-.239 0-.432.197-.432.439v5.269c0 .242.194.439.432.439h1.829c.239 0 .433-.197.433-.439v-5.269c0-.243-.194-.439-.433-.439z" class="B"/><g class="C F"><path d="M36.37 71.798c0 .127-.099.217-.206.217s-.206-.09-.206-.217.099-.216.206-.216.206.09.206.216z"/><use xlink:href="#h"/><path d="M36.37 75.303c0 .127-.099.216-.206.216s-.206-.09-.206-.216.099-.216.206-.216.206.09.206.216z"/></g><path d="M40.399 70.588H38.57c-.239 0-.432.197-.432.439v5.269c0 .242.194.439.432.439h1.829c.239 0 .432-.197.432-.439v-5.269c0-.243-.194-.439-.432-.439z" class="B"/><g class="C F"><path d="M39.694 71.798c0 .127-.099.217-.206.217s-.206-.09-.206-.217.099-.216.206-.216.206.09.206.216zm0 1.756c0 .127-.099.216-.206.216s-.206-.09-.206-.216.099-.216.206-.216.206.09.206.216zm0 1.749c0 .127-.099.216-.206.216s-.206-.09-.206-.216.099-.216.206-.216.206.09.206.216z"/></g><path d="M47.752 69.834H43.45a.29.29 0 0 0-.288.293v7.195a.29.29 0 0 0 .288.293h4.302a.29.29 0 0 0 .288-.293v-7.195a.29.29 0 0 0-.288-.293z" class="B"/><path d="M45.605 71.382v2.342" stroke="#e9e9ea" class="D E"/><path d="M46.454 73.192h-1.7c-.08 0-.144.066-.144.146v2.319c0 .081.065.146.144.146h1.7c.08 0 .144-.066.144-.146v-2.319c0-.081-.064-.146-.144-.146z" fill="#e9e9ea"/><path d="M53.86 69.834h-4.302a.29.29 0 0 0-.288.293v7.195a.29.29 0 0 0 .288.293h4.302a.29.29 0 0 0 .288-.293v-7.195a.29.29 0 0 0-.288-.293z" class="B"/><path d="M52.563 73.192h-1.7c-.08 0-.144.066-.144.146v2.319c0 .081.064.146.144.146h1.7c.08 0 .144-.066.144-.146v-2.319c0-.081-.065-.146-.144-.146z" fill="#e9e9ea"/><g class="D E"><path d="M51.713 71.382v2.342" stroke="#e9e9ea"/><g class="C"><path d="M82.87 173.969v-4.66m1.191 4.66v-4.66m1.191 4.66v-4.66"/></g></g><use xlink:href="#i" class="B"/><g class="C D E"><path d="M62.23 185.347v-4.66m1.184 4.66v-4.66m1.191 4.66v-4.66"/></g><path d="M65.667 181.973h-4.629a.29.29 0 0 0-.288.293v1.371a.29.29 0 0 0 .288.293h4.629a.29.29 0 0 0 .288-.293v-1.371a.29.29 0 0 0-.288-.293z" class="B"/><g class="C D E"><path d="M99.814 162.892v-4.661m1.184 4.661v-4.661m1.191 4.661v-4.661"/></g><use xlink:href="#j" class="B"/><g class="C D E"><path d="M99.814 147.354v-4.669m1.184 4.669v-4.669m1.191 4.669v-4.669"/></g><path d="M103.251 143.979h-4.628c-.159 0-.288.132-.288.293v1.371a.29.29 0 0 0 .288.293h4.628a.29.29 0 0 0 .289-.293v-1.371c0-.161-.129-.293-.289-.293z" class="B"/><g class="C D E"><path d="M99.814 131.816v-4.669m1.184 4.669v-4.669m1.191 4.669v-4.669"/></g><path d="M103.251 128.442h-4.628a.29.29 0 0 0-.288.292v1.371a.29.29 0 0 0 .288.293h4.628a.29.29 0 0 0 .289-.293v-1.371a.29.29 0 0 0-.289-.292z" class="B"/><g class="C D E"><path d="M99.814 94.885v-4.661m1.184 4.661v-4.661m1.191 4.661v-4.661"/></g><path d="M103.251 91.511h-4.628a.29.29 0 0 0-.288.293v1.371a.29.29 0 0 0 .288.293h4.628a.29.29 0 0 0 .289-.293v-1.371a.29.29 0 0 0-.289-.293z" class="B"/><g class="C D E"><path d="M67.951 83.985h-4.598m4.598-1.21h-4.598m4.598-1.201h-4.598"/></g><use xlink:href="#k" class="B"/><g class="C D E"><path d="M67.951 99.7h-4.598m4.598-1.21h-4.598m4.598-1.201h-4.598"/></g><path d="M64.628 96.21v4.699a.29.29 0 0 0 .288.293h1.351a.29.29 0 0 0 .288-.293V96.21a.29.29 0 0 0-.288-.293h-1.351a.29.29 0 0 0-.288.293z" class="B"/><g class="C D E"><path d="M67.951 115.415h-4.598m4.598-1.209h-4.598m4.598-1.202h-4.598"/></g><path d="M64.628 111.925v4.699a.29.29 0 0 0 .288.293h1.351a.29.29 0 0 0 .288-.293v-4.699a.29.29 0 0 0-.288-.292h-1.351a.29.29 0 0 0-.288.292z" class="B"/><g class="C D E"><path d="M67.951 131.13h-4.598m4.598-1.209h-4.598m4.598-1.202h-4.598"/></g><use xlink:href="#l" class="B"/><g class="C D E"><path d="M60.507 131.13h-4.591m4.591-1.209h-4.591m4.591-1.202h-4.591"/></g><path d="M57.184 127.633v4.699a.29.29 0 0 0 .288.293h1.351a.29.29 0 0 0 .288-.293v-4.699a.29.29 0 0 0-.288-.293h-1.351a.29.29 0 0 0-.288.293z" class="B"/><g class="C D E"><path d="M67.951 146.845h-4.598m4.598-1.209h-4.598m4.598-1.202h-4.598"/></g><path d="M64.628 143.355v4.7a.29.29 0 0 0 .288.292h1.351a.29.29 0 0 0 .288-.292v-4.7a.29.29 0 0 0-.288-.292h-1.351a.29.29 0 0 0-.288.292z" class="B"/><g class="C D E"><path d="M67.951 162.56h-4.598m4.598-1.209h-4.598m4.598-1.202h-4.598"/></g><path d="M64.628 159.071v4.699a.29.29 0 0 0 .288.292h1.351a.29.29 0 0 0 .288-.292v-4.699a.29.29 0 0 0-.288-.293h-1.351a.29.29 0 0 0-.288.293z" class="B"/><g fill="#d1d3d4"><path d="M65.652 77.075c1.14 0 2.064-.938 2.064-2.095s-.924-2.095-2.064-2.095-2.064.938-2.064 2.095.924 2.095 2.064 2.095zm0 15.715c1.14 0 2.064-.938 2.064-2.095s-.924-2.095-2.064-2.095-2.064.938-2.064 2.095.924 2.095 2.064 2.095z"/><use xlink:href="#m"/><path d="M65.652 124.22c1.14 0 2.064-.938 2.064-2.095s-.924-2.096-2.064-2.096-2.064.938-2.064 2.096.924 2.095 2.064 2.095zm0 15.715c1.14 0 2.064-.938 2.064-2.095s-.924-2.095-2.064-2.095-2.064.938-2.064 2.095.924 2.095 2.064 2.095zm0 15.715c1.14 0 2.064-.938 2.064-2.095s-.924-2.095-2.064-2.095-2.064.938-2.064 2.095.924 2.095 2.064 2.095zm0 15.715c1.14 0 2.064-.938 2.064-2.095s-.924-2.095-2.064-2.095-2.064.938-2.064 2.095.924 2.095 2.064 2.095zm-35.315-62.329h-8.893a.72.72 0 0 0-.713.725v9.028a.72.72 0 0 0 .713.724h8.893a.72.72 0 0 0 .713-.724v-9.028a.72.72 0 0 0-.713-.725z"/></g><path d="M64.628 199.213c35.689 0 64.62-29.371 64.62-65.602s-28.931-65.603-64.62-65.603S.008 97.379.008 133.611s28.932 65.602 64.62 65.602z" stroke-width="2" class="D M N"/></g><g class="M"><path d="M128.439 140.006h97.388" class="N"/><circle cx="232.5" cy="139.38" r="6"/></g><path d="M1.551 28v-2.284l6.06-5.94 1.449-1.56c.386-.455.676-.895.869-1.321s.29-.881.29-1.364c0-.551-.125-1.023-.375-1.415-.25-.398-.594-.705-1.031-.921s-.935-.324-1.491-.324c-.574 0-1.077.119-1.509.358-.432.233-.767.565-1.006.997-.233.432-.349.946-.349 1.543H1.449c0-1.108.253-2.071.759-2.889s1.202-1.452 2.088-1.901c.892-.449 1.915-.673 3.068-.673 1.17 0 2.199.219 3.085.656s1.574 1.037 2.063 1.798c.494.761.741 1.631.741 2.608 0 .653-.125 1.295-.375 1.926s-.69 1.329-1.321 2.096c-.625.767-1.503 1.696-2.634 2.787l-3.009 3.06v.119h7.602V28H1.551zm16.503-13.091l2.642 4.832 2.685-4.832h3.264l-3.946 6.545L26.713 28h-3.247l-2.77-4.713L17.952 28h-3.273l3.989-6.546-3.886-6.545h3.273zm22.17 3.273c-.077-.648-.388-1.151-.933-1.508s-1.215-.537-2.007-.537c-.58 0-1.087.094-1.521.281s-.767.445-1.01.773-.358.701-.358 1.119c0 .349.083.65.249.901a2.21 2.21 0 0 0 .652.62c.264.162.541.296.831.403l.799.249 1.329.358c.341.089.72.213 1.138.371s.825.373 1.208.646.707.614.959 1.036.377.94.377 1.553c0 .707-.185 1.347-.556 1.918s-.903 1.025-1.611 1.361-1.558.505-2.563.505c-.937 0-1.749-.151-2.435-.454s-1.219-.724-1.611-1.266a3.61 3.61 0 0 1-.658-1.886h1.636c.043.494.209.903.498 1.227a2.7 2.7 0 0 0 1.112.716c.452.153.938.23 1.457.23a4.29 4.29 0 0 0 1.63-.294c.482-.2.863-.477 1.144-.831a1.97 1.97 0 0 0 .422-1.253c0-.435-.122-.788-.364-1.061s-.562-.494-.959-.665-.825-.32-1.285-.447l-1.611-.46c-1.023-.294-1.832-.714-2.429-1.259s-.895-1.259-.895-2.141c0-.733.198-1.372.594-1.918s.938-.976 1.611-1.279 1.434-.46 2.269-.46c.844 0 1.594.151 2.25.454s1.176.707 1.56 1.227.592 1.11.614 1.771h-1.534zM44.159 28v-9.818h1.457v1.534h.128c.205-.524.535-.931.991-1.221s1.004-.441 1.643-.441c.648 0 1.187.147 1.617.441s.773.697 1.016 1.221h.102a2.86 2.86 0 0 1 1.131-1.208c.503-.302 1.106-.454 1.809-.454.878 0 1.596.275 2.154.825s.837 1.396.837 2.55V28h-1.508v-6.571c0-.724-.198-1.242-.594-1.553a2.2 2.2 0 0 0-1.4-.467c-.69 0-1.225.209-1.604.626s-.569.938-.569 1.573V28h-1.534v-6.724c0-.558-.181-1.008-.543-1.349s-.829-.518-1.4-.518c-.392 0-.758.104-1.099.313s-.609.499-.818.869-.307.791-.307 1.272V28h-1.508zm18.354.23a3.99 3.99 0 0 1-1.694-.352c-.507-.239-.91-.582-1.208-1.029s-.447-.997-.447-1.636c0-.562.111-1.018.332-1.368s.518-.631.889-.831.78-.349 1.227-.447l1.361-.243 1.451-.173c.375-.043.648-.113.818-.211s.262-.268.262-.511v-.051c0-.631-.173-1.121-.518-1.47s-.859-.524-1.553-.524c-.72 0-1.285.158-1.694.473s-.697.652-.863 1.01l-1.432-.511c.256-.597.597-1.061 1.023-1.393s.899-.571 1.406-.703a5.84 5.84 0 0 1 1.508-.205c.315 0 .678.038 1.087.115a3.48 3.48 0 0 1 1.195.454c.388.23.709.577.965 1.042s.383 1.087.383 1.866V28h-1.508v-1.329h-.077c-.102.213-.273.441-.511.684s-.556.45-.952.62-.88.256-1.451.256zm.23-1.355c.597 0 1.099-.117 1.508-.352s.724-.537.933-.908.32-.761.32-1.17v-1.381c-.064.077-.205.147-.422.211s-.46.113-.742.16l-.812.115-.633.077c-.392.051-.758.134-1.099.249s-.609.279-.818.505-.307.524-.307.908c0 .524.194.92.582 1.189s.888.396 1.489.396zM69.586 28v-9.818h1.457v1.483h.102c.179-.486.503-.88.972-1.183a2.86 2.86 0 0 1 1.585-.454l.415.006.377.019v1.534c-.051-.013-.168-.032-.352-.058s-.369-.045-.569-.045a2.67 2.67 0 0 0-1.278.3c-.371.196-.665.469-.882.818s-.32.739-.32 1.183V28h-1.508zm11.402-9.818v1.278H75.9v-1.278h5.088zm-3.605-2.352h1.508v9.358c0 .426.062.746.185.959s.29.349.486.422a1.95 1.95 0 0 0 .633.102 2.68 2.68 0 0 0 .409-.026l.256-.051.307 1.355a3.07 3.07 0 0 1-.428.115c-.183.043-.415.064-.697.064-.426 0-.844-.092-1.253-.275a2.49 2.49 0 0 1-1.01-.837c-.264-.375-.396-.848-.396-1.419V15.83zM88.164 28V14.909h4.423c1.027 0 1.867.185 2.519.556a3.48 3.48 0 0 1 1.457 1.489c.315.627.473 1.325.473 2.097s-.158 1.472-.473 2.103-.793 1.134-1.445 1.509-1.487.556-2.506.556h-3.171v-1.406h3.119c.703 0 1.268-.121 1.694-.364s.735-.571.927-.984.294-.889.294-1.413-.098-.993-.294-1.406-.503-.737-.933-.972-1.001-.358-1.713-.358H89.75V28h-1.585zm14.925.204c-.887 0-1.664-.211-2.333-.633s-1.185-1.012-1.56-1.771-.556-1.645-.556-2.659c0-1.023.185-1.915.556-2.678s.895-1.355 1.56-1.777 1.446-.633 2.333-.633 1.662.211 2.326.633 1.189 1.014 1.56 1.777.563 1.656.563 2.678c0 1.014-.188 1.901-.563 2.659s-.891 1.349-1.56 1.771-1.44.633-2.326.633zm0-1.355c.673 0 1.227-.173 1.662-.518s.756-.799.965-1.362.313-1.172.313-1.828-.104-1.268-.313-1.834-.531-1.025-.965-1.374-.989-.524-1.662-.524-1.228.175-1.662.524-.757.808-.965 1.374-.314 1.178-.314 1.834.105 1.266.314 1.828.53 1.016.965 1.362.988.518 1.662.518zM111.551 28l-2.992-9.818h1.585l2.123 7.517h.102l2.097-7.517h1.61l2.071 7.492h.103l2.122-7.492h1.585L118.966 28h-1.483l-2.148-7.543h-.154L113.034 28h-1.483zm16.003.204c-.946 0-1.762-.209-2.448-.626s-1.208-1.01-1.579-1.764-.55-1.641-.55-2.646.183-1.892.55-2.659.886-1.372 1.547-1.803 1.44-.652 2.326-.652a4.65 4.65 0 0 1 1.515.256 3.75 3.75 0 0 1 1.362.831c.409.379.735.882.978 1.509s.364 1.398.364 2.314v.639h-7.568v-1.304h6.034c0-.554-.111-1.048-.332-1.483a2.51 2.51 0 0 0-.934-1.029c-.4-.251-.873-.377-1.419-.377-.6 0-1.12.149-1.559.447s-.769.678-1.004 1.151-.351.98-.351 1.521v.869c0 .741.127 1.37.383 1.886s.62.901 1.08 1.17.995.396 1.605.396c.396 0 .754-.055 1.074-.166s.603-.285.837-.511.416-.516.543-.857l1.458.409a3.23 3.23 0 0 1-.774 1.304c-.362.371-.809.66-1.342.869s-1.131.307-1.796.307zm6.18-.204v-9.818h1.457v1.483h.103c.179-.486.502-.88.971-1.183a2.86 2.86 0 0 1 1.585-.454l.416.006.377.019v1.534a4.42 4.42 0 0 0-.352-.058c-.179-.03-.368-.045-.568-.045-.478 0-.904.1-1.279.3a2.26 2.26 0 0 0-.882.818c-.213.345-.32.739-.32 1.183V28h-1.508zM5.625 53h-4.04V39.909h4.219c1.27 0 2.357.262 3.26.786s1.596 1.268 2.077 2.244.722 2.135.722 3.49c0 1.364-.243 2.538-.729 3.522a5.19 5.19 0 0 1-2.122 2.263c-.929.524-2.058.786-3.388.786zM3.17 51.594h2.352c1.082 0 1.979-.209 2.691-.626a3.86 3.86 0 0 0 1.592-1.783c.349-.771.524-1.69.524-2.755 0-1.057-.172-1.967-.518-2.729s-.861-1.355-1.547-1.764-1.54-.62-2.563-.62H3.17v10.279zM14.138 53v-9.818h1.508V53h-1.508zm.767-11.455a1.07 1.07 0 0 1-.761-.3c-.209-.2-.313-.441-.313-.722s.104-.522.313-.722a1.07 1.07 0 0 1 .761-.3 1.05 1.05 0 0 1 .754.3c.213.2.32.441.32.722s-.107.522-.32.722a1.05 1.05 0 0 1-.754.3zm10.279 3.835l-1.355.384c-.085-.226-.211-.445-.377-.658s-.384-.396-.665-.537-.641-.211-1.08-.211c-.601 0-1.102.138-1.502.415s-.594.62-.594 1.042c0 .375.136.671.409.889s.699.398 1.278.543l1.457.358c.878.213 1.532.539 1.962.978s.646.995.646 1.681a2.49 2.49 0 0 1-.486 1.508c-.32.443-.767.793-1.342 1.048s-1.244.384-2.007.384c-1.001 0-1.83-.217-2.486-.652s-1.072-1.07-1.246-1.905l1.432-.358c.136.528.394.925.773 1.189s.884.396 1.502.396c.703 0 1.261-.149 1.675-.447s.626-.665.626-1.087a1.14 1.14 0 0 0-.358-.856c-.239-.234-.605-.409-1.099-.524l-1.636-.383c-.899-.213-1.56-.543-1.982-.991s-.626-1.016-.626-1.694c0-.554.156-1.044.467-1.47s.744-.761 1.285-1.004 1.163-.364 1.854-.364c.972 0 1.734.213 2.288.639s.954.989 1.189 1.688zm6.54-2.199v1.278h-5.088v-1.278h5.088zm-3.605-2.352h1.509v9.358c0 .426.062.746.185.959s.29.349.486.422a1.95 1.95 0 0 0 .633.102 2.68 2.68 0 0 0 .409-.026l.256-.051.307 1.355a3.07 3.07 0 0 1-.428.115c-.183.043-.415.064-.697.064-.426 0-.844-.092-1.253-.275a2.49 2.49 0 0 1-1.01-.837c-.264-.375-.396-.848-.396-1.419V40.83zM33.813 53v-9.818h1.457v1.483h.102c.179-.486.503-.88.972-1.183a2.86 2.86 0 0 1 1.585-.454l.416.006.377.019v1.534a4.47 4.47 0 0 0-.351-.058c-.179-.03-.369-.045-.569-.045a2.67 2.67 0 0 0-1.278.3c-.371.196-.665.469-.882.818s-.32.739-.32 1.183V53h-1.508zm6.517 0v-9.818h1.508V53H40.33zm.767-11.455a1.07 1.07 0 0 1-.761-.3c-.209-.2-.313-.441-.313-.722s.104-.522.313-.722a1.07 1.07 0 0 1 .761-.3 1.05 1.05 0 0 1 .754.3c.213.2.32.441.32.722s-.106.522-.32.722a1.05 1.05 0 0 1-.754.3zM44.626 53V39.909h1.508v4.832h.128l.46-.652c.2-.269.486-.507.856-.716s.882-.32 1.521-.32c.827 0 1.555.207 2.186.62s1.123.999 1.477 1.758.531 1.653.531 2.685c0 1.04-.177 1.941-.531 2.704s-.844 1.347-1.47 1.764-1.349.62-2.167.62c-.631 0-1.136-.104-1.515-.313s-.671-.454-.876-.722l-.473-.677h-.179V53h-1.457zm1.483-4.909c0 .742.109 1.396.326 1.962s.535 1.004.952 1.323.929.473 1.534.473c.631 0 1.157-.166 1.579-.498s.746-.788.959-1.355.326-1.206.326-1.905c0-.69-.107-1.312-.32-1.866s-.526-.999-.952-1.323-.952-.492-1.592-.492c-.614 0-1.129.155-1.547.467s-.733.737-.946 1.291-.32 1.191-.32 1.924zm15.5.895v-5.804h1.508V53h-1.508v-1.662h-.102c-.23.498-.588.923-1.074 1.272s-1.099.518-1.841.518c-.614 0-1.159-.134-1.636-.403s-.852-.682-1.125-1.227-.409-1.242-.409-2.077v-6.239h1.508v6.136c0 .716.2 1.287.601 1.713s.921.639 1.547.639c.375 0 .756-.096 1.144-.288s.72-.486.984-.882.403-.901.403-1.515zm8.361-5.804v1.278h-5.088v-1.278h5.088zm-3.605-2.352h1.508v9.358c0 .426.062.746.185.959s.29.349.486.422a1.95 1.95 0 0 0 .633.102 2.68 2.68 0 0 0 .409-.026l.256-.051.307 1.355a3.07 3.07 0 0 1-.428.115c-.183.043-.415.064-.697.064-.426 0-.844-.092-1.253-.275a2.49 2.49 0 0 1-1.01-.837c-.264-.375-.396-.848-.396-1.419V40.83zM72.06 53v-9.818h1.508V53H72.06zm.767-11.455a1.07 1.07 0 0 1-.761-.3c-.209-.2-.313-.441-.313-.722s.104-.522.313-.722a1.07 1.07 0 0 1 .761-.3 1.05 1.05 0 0 1 .754.3c.213.2.32.441.32.722s-.107.522-.32.722a1.05 1.05 0 0 1-.754.3zm7.313 11.659c-.886 0-1.664-.211-2.333-.633s-1.185-1.012-1.56-1.771-.556-1.645-.556-2.659c0-1.023.185-1.915.556-2.678s.895-1.355 1.56-1.777 1.447-.633 2.333-.633 1.662.211 2.327.633 1.189 1.014 1.56 1.777.563 1.656.563 2.678c0 1.014-.187 1.901-.562 2.659s-.891 1.349-1.56 1.771-1.44.633-2.327.633zm0-1.355c.673 0 1.227-.173 1.662-.518s.756-.799.965-1.361.313-1.172.313-1.828-.104-1.268-.313-1.835-.531-1.025-.965-1.374-.989-.524-1.662-.524-1.227.175-1.662.524-.756.808-.965 1.374-.313 1.178-.313 1.835.104 1.266.313 1.828.531 1.016.965 1.361.989.518 1.662.518zm8.08-4.756V53h-1.508v-9.818h1.457v1.534h.128c.23-.499.58-.899 1.048-1.202s1.074-.46 1.815-.46c.665 0 1.246.136 1.745.409s.886.678 1.163 1.227.415 1.236.415 2.071V53h-1.509v-6.136c0-.771-.2-1.372-.601-1.802s-.95-.652-1.649-.652c-.481 0-.912.104-1.291.313a2.24 2.24 0 0 0-.889.914c-.217.401-.326.886-.326 1.457zm22.518-7.185h1.586v8.668c0 .895-.211 1.694-.633 2.397s-1.008 1.251-1.771 1.656-1.657.601-2.684.601-1.922-.2-2.685-.601-1.355-.957-1.777-1.656-.626-1.502-.626-2.397v-8.668h1.585v8.54c0 .639.14 1.208.422 1.707a3.02 3.02 0 0 0 1.201 1.17c.525.281 1.151.422 1.88.422s1.355-.141 1.879-.422.925-.675 1.202-1.17.421-1.067.421-1.707v-8.54zm5.875 7.185V53h-1.508v-9.818h1.457v1.534h.128c.23-.499.58-.899 1.048-1.202s1.074-.46 1.816-.46c.664 0 1.246.136 1.745.409s.886.678 1.163 1.227.416 1.236.416 2.071V53h-1.509v-6.136c0-.771-.2-1.372-.601-1.802s-.95-.652-1.649-.652a2.63 2.63 0 0 0-1.291.313c-.375.209-.671.514-.889.914s-.326.886-.326 1.457zM125.454 53v-9.818h1.509V53h-1.509zm.767-11.455a1.07 1.07 0 0 1-.76-.3c-.209-.2-.314-.441-.314-.722s.105-.522.314-.722a1.07 1.07 0 0 1 .76-.3 1.05 1.05 0 0 1 .754.3c.213.2.32.441.32.722s-.107.522-.32.722a1.05 1.05 0 0 1-.754.3zm7.594 1.636v1.278h-5.088v-1.278h5.088zm-3.605-2.352h1.509v9.358c0 .426.062.746.185.959.128.209.29.349.486.422s.411.102.633.102c.166 0 .302-.009.409-.026l.256-.051.306 1.355c-.102.038-.245.077-.428.115a3.15 3.15 0 0 1-.697.064c-.426 0-.843-.092-1.252-.275s-.742-.462-1.01-.837-.397-.848-.397-1.419V40.83zm12.473 4.551l-1.355.384c-.085-.226-.211-.445-.377-.658s-.383-.396-.665-.537-.641-.211-1.08-.211c-.601 0-1.101.138-1.502.415s-.594.62-.594 1.042c0 .375.136.671.409.889s.699.398 1.278.543l1.457.358c.878.213 1.532.539 1.963.978s.645.995.645 1.681c0 .563-.162 1.065-.485 1.508s-.767.793-1.343 1.048-1.244.384-2.007.384c-1.001 0-1.83-.217-2.486-.652s-1.072-1.07-1.247-1.905l1.432-.358c.136.528.394.925.773 1.189.384.264.885.396 1.503.396.703 0 1.261-.149 1.674-.447.418-.303.627-.665.627-1.087 0-.341-.12-.626-.358-.856s-.605-.409-1.1-.524l-1.636-.383c-.899-.213-1.56-.543-1.982-.991s-.626-1.016-.626-1.694c0-.554.156-1.044.467-1.47s.743-.761 1.284-1.004 1.164-.364 1.854-.364c.972 0 1.735.213 2.289.639s.954.989 1.188 1.688z" fill="#092649"/><defs><filter id="A" x="145.291" y="104.42" width="358.105" height="227.947" filterUnits="userSpaceOnUse" class="G"><feFlood class="H"/><feBlend in="SourceGraphic"/><feGaussianBlur stdDeviation="11"/></filter><filter id="B" x="178.061" y="127.227" width="294.229" height="177.279" filterUnits="userSpaceOnUse" class="G"><feFlood class="H"/><feBlend in="SourceGraphic"/><feGaussianBlur stdDeviation="3"/></filter><filter id="C" x="158.931" y="169.656" width="338.891" height="158.756" filterUnits="userSpaceOnUse" class="G"><feFlood class="H"/><feBlend in="SourceGraphic"/><feGaussianBlur stdDeviation="10"/></filter><filter id="D" x="326.824" y="200.036" width="186.222" height="134.302" filterUnits="userSpaceOnUse" class="G"><feFlood class="H"/><feBlend in="SourceGraphic"/><feGaussianBlur stdDeviation="12"/></filter><filter id="E" x="350.5" y="190.461" width="95.139" height="86.403" filterUnits="userSpaceOnUse" class="G"><feFlood class="H"/><feBlend in="SourceGraphic"/><feGaussianBlur stdDeviation="2"/></filter><filter id="F" x="351.332" y="151.829" width="95.139" height="86.403" filterUnits="userSpaceOnUse" class="G"><feFlood class="H"/><feBlend in="SourceGraphic"/><feGaussianBlur stdDeviation="2"/></filter><filter id="G" x="351.332" y="112.082" width="95.139" height="86.403" filterUnits="userSpaceOnUse" class="G"><feFlood class="H"/><feBlend in="SourceGraphic"/><feGaussianBlur stdDeviation="2"/></filter><filter id="H" x="351.703" y="181.55" width="145.108" height="125.234" filterUnits="userSpaceOnUse" class="G"><feFlood class="H"/><feBlend in="SourceGraphic"/><feGaussianBlur stdDeviation="12"/></filter><filter id="I" x="351.703" y="142.807" width="145.108" height="125.234" filterUnits="userSpaceOnUse" class="G"><feFlood class="H"/><feBlend in="SourceGraphic"/><feGaussianBlur stdDeviation="12"/></filter><filter id="J" x="227.72" y="260.824" width="66.959" height="48.682" filterUnits="userSpaceOnUse" class="G"><feFlood class="H"/><feBlend in="SourceGraphic"/><feGaussianBlur stdDeviation="6"/></filter><linearGradient id="K" x1="53.941" y1="363.455" x2="26.858" y2="417.257" xlink:href="#n"><stop stop-color="#d1d3d4"/><stop offset=".94" stop-color="#bcbec0"/></linearGradient><linearGradient id="L" x1="88.533" y1="354.796" x2="102.63" y2="413.533" xlink:href="#n"><stop offset=".42" stop-color="#d1d3d4"/><stop offset="1" stop-color="#bcbec0"/></linearGradient><linearGradient id="M" x1="281.65" y1="134.683" x2="207.084" y2="283.221" xlink:href="#n"><stop stop-color="#d1d3d4"/><stop offset=".94" stop-color="#bcbec0"/></linearGradient><linearGradient id="N" x1="377.307" y1="110.804" x2="416.088" y2="272.835" xlink:href="#n"><stop offset=".42" stop-color="#d1d3d4"/><stop offset="1" stop-color="#bcbec0"/></linearGradient><linearGradient id="O" x1="319.52" y1="288.515" x2="349.005" y2="232.956" xlink:href="#n"><stop stop-color="#bcbec0"/><stop offset="1" stop-color="#6d6e71"/></linearGradient><clipPath id="P"><rect x="1" y="298.819" width="137.36" height="139.53" rx="68.68" fill="#fff"/></clipPath><clipPath id="Q"><rect y="68" width="129.248" height="131.29" rx="64.624" fill="#fff"/></clipPath><path id="R" d="M181.25 149.695l-5.645-3.303 22.438-13.138 5.636 3.303-22.429 13.138z"/><path id="S" d="M207.308 134.366l-5.637-3.303 22.429-13.138 5.645 3.303-22.437 13.138z"/><path id="T" d="M207.308 150.021l-5.637-3.304 22.429-13.138 5.645 3.304-22.437 13.138z"/><path id="U" d="M181.25 170.571l-5.645-3.304 22.438-13.138 5.636 3.304-22.429 13.138z"/><path id="V" d="M272.106 23.956l-5.645-3.304 22.437-13.138 5.645 3.304-22.437 13.138z"/><path id="W" d="M288.415 167.64c.209-.124.209-.519 0-.882s-.549-.557-.758-.433-.209.519 0 .882.549.557.758.433z"/><path id="X" d="M27.561 128.218c0 .127-.099.217-.206.217s-.206-.09-.206-.217.099-.216.206-.216.206.089.206.216z"/><path id="Y" d="M27.561 129.967c0 .126-.099.216-.206.216s-.206-.09-.206-.216.099-.217.206-.217.206.09.206.217z"/><path id="Z" d="M27.561 131.723c0 .127-.099.217-.206.217s-.206-.09-.206-.217.099-.216.206-.216.206.09.206.216z"/><path id="a" d="M27.561 133.472c0 .127-.099.216-.206.216s-.206-.089-.206-.216.099-.217.206-.217.206.09.206.217z"/><path id="b" d="M27.561 136.977c0 .127-.099.216-.206.216s-.206-.089-.206-.216.099-.216.206-.216.206.089.206.216z"/><path id="c" d="M96.187 107.865v-3.289c0-.242-.194-.439-.433-.439H74.181c-.239 0-.433.197-.433.439v3.289c0 .243.194.44.433.44h21.573c.239 0 .433-.197.433-.44z"/><path id="d" d="M96.187 148.863v-3.289c0-.243-.194-.439-.433-.439H74.181c-.239 0-.433.196-.433.439v3.289c0 .243.194.44.433.44h21.573c.239 0 .433-.197.433-.44z"/><path id="e" d="M24.904 168.746c1.14 0 2.064-.938 2.064-2.095s-.924-2.096-2.064-2.096-2.064.939-2.064 2.096.924 2.095 2.064 2.095z"/><path id="f" d="M24.904 179.6c1.14 0 2.064-.938 2.064-2.095s-.924-2.095-2.064-2.095-2.064.938-2.064 2.095.924 2.095 2.064 2.095z"/><path id="g" d="M50.43 126.462H37.584a.29.29 0 0 0-.288.293v2.65a.29.29 0 0 0 .288.292H50.43a.29.29 0 0 0 .288-.292v-2.65a.29.29 0 0 0-.288-.293z"/><path id="h" d="M36.37 73.554c0 .127-.099.216-.206.216s-.206-.09-.206-.216.099-.216.206-.216.206.09.206.216z"/><path id="i" d="M86.315 170.595h-4.629a.29.29 0 0 0-.288.293v1.371a.29.29 0 0 0 .288.293h4.629a.29.29 0 0 0 .288-.293v-1.371a.29.29 0 0 0-.288-.293z"/><path id="j" d="M103.251 159.517h-4.628c-.159 0-.288.132-.288.293v1.371a.29.29 0 0 0 .288.293h4.628a.29.29 0 0 0 .289-.293v-1.371c0-.161-.129-.293-.289-.293z"/><path id="k" d="M64.628 80.495v4.699a.29.29 0 0 0 .288.293h1.351a.29.29 0 0 0 .288-.293v-4.699a.29.29 0 0 0-.288-.293h-1.351a.29.29 0 0 0-.288.293z"/><path id="l" d="M64.628 127.64v4.7a.29.29 0 0 0 .288.292h1.351a.29.29 0 0 0 .288-.292v-4.7a.29.29 0 0 0-.288-.292h-1.351a.29.29 0 0 0-.288.292z"/><path id="m" d="M65.652 108.505c1.14 0 2.064-.938 2.064-2.095s-.924-2.096-2.064-2.096-2.064.938-2.064 2.096.924 2.095 2.064 2.095z"/><linearGradient id="n" gradientUnits="userSpaceOnUse"/></defs></svg>