<svg width="287" height="193" viewBox="0 0 287 193" fill="none" xmlns="http://www.w3.org/2000/svg">
<g filter="url(#filter0_f_681_20581)">
<path d="M26.5853 58.9681L210.397 165.233L217.946 169.568C218.796 170.03 219.75 170.267 220.719 170.258C221.461 170.279 222.196 170.112 222.854 169.772L231.04 165.063L263.856 146.228C264.427 145.901 264.706 145.462 264.706 145.004C264.706 144.449 264.298 143.866 263.504 143.411L72.1562 32.8086C70.7016 31.9741 68.5053 31.8826 67.248 32.6046L26.2433 56.1481C24.9755 56.8754 25.1333 58.1336 26.5853 58.9681Z" fill="#EAEAEA"/>
</g>
<g filter="url(#filter1_f_681_20581)">
<path d="M218.281 163.902L187.795 148.227L168.427 159.865L198.914 177.203L218.281 163.902Z" fill="#BBBBBB"/>
</g>
<g filter="url(#filter2_f_681_20581)">
<path d="M179.708 141.199L149.222 125.524L129.854 137.162L160.341 154.5L179.708 141.199Z" fill="#BBBBBB"/>
</g>
<g filter="url(#filter3_f_681_20581)">
<path d="M25.4436 58.1322L211.212 162.486L217.995 166.381C218.758 166.796 219.616 167.009 220.486 167.001C221.152 167.02 221.813 166.87 222.405 166.564L229.76 162.333L259.246 145.41C259.759 145.116 260.009 144.721 260.009 144.31C260.009 143.811 259.643 143.287 258.929 142.878L66.3899 34.6274C65.0829 33.8776 63.1094 33.7954 61.9797 34.4441L25.1363 55.5984C23.9971 56.2518 24.1389 57.3824 25.4436 58.1322Z" fill="#888888"/>
</g>
<g filter="url(#filter4_f_681_20581)">
<path d="M101.112 96.3586L70.6262 80.6836L51.258 92.3215L81.745 109.66L101.112 96.3586Z" fill="#BBBBBB"/>
</g>
<g filter="url(#filter5_f_681_20581)">
<path d="M62.5176 75.0302L32.0315 59.3552L12.6633 70.9931L43.1503 88.3312L62.5176 75.0302Z" fill="#BBBBBB"/>
</g>
<path d="M40.8334 16.0453C40.8058 15.8798 40.7404 15.7228 40.6422 15.5863C40.544 15.4498 40.4156 15.3376 40.2669 15.2582L30.2414 9.50838L30.0481 9.39632C29.8386 9.27892 29.6534 9.26825 29.5567 9.3563L30.475 8.88403C30.6736 8.77998 31.1113 9.09482 31.3261 9.21755L40.8334 14.6125C40.9821 14.6919 41.1105 14.8042 41.2087 14.9406C41.3069 15.0771 41.3724 15.2341 41.3999 15.3996L40.8414 16.0506" fill="#4F89C8"/>
<path d="M40.8334 16.0426V39.6503C40.835 39.6977 40.8239 39.7447 40.8012 39.7864L41.3059 39.194C41.3412 39.1561 41.3673 39.1107 41.3822 39.0612C41.3971 39.0117 41.4004 38.9595 41.3919 38.9086V15.3916L40.8334 16.0426Z" fill="#315B90"/>
<path d="M29.4786 9.5324V33.1401C29.5076 33.3054 29.5739 33.4621 29.6725 33.5985C29.771 33.7348 29.8994 33.8471 30.0478 33.9272L40.2667 39.7971C40.511 39.9385 40.7204 39.9305 40.8036 39.7971C40.8259 39.7561 40.837 39.7102 40.8359 39.6637V16.0453C40.8083 15.8798 40.7429 15.7228 40.6447 15.5863C40.5465 15.4499 40.4181 15.3376 40.2693 15.2582L30.2438 9.50839L30.0505 9.39632C29.8411 9.27892 29.6558 9.26825 29.5592 9.3563L29.5377 9.38031C29.5025 9.42364 29.4819 9.47682 29.4786 9.5324Z" fill="#2A7DE1"/>
<path d="M102.471 39.1997L103.967 38.3405L98.0197 34.928L96.5242 35.7871L102.471 39.1997Z" fill="#4F4F51"/>
<path d="M95.5631 35.216L97.0586 34.3596L91.1115 30.947L89.616 31.8062L95.5631 35.216Z" fill="#4F4F51"/>
<path d="M102.471 40.5549L103.967 39.6958L98.0197 36.2832L96.5242 37.1423L102.471 40.5549Z" fill="#4F4F51"/>
<path d="M95.5631 36.5715L97.0586 35.715L91.1115 32.3025L89.616 33.1616L95.5631 36.5715Z" fill="#4F4F51"/>
<path d="M102.471 41.9104L103.967 41.0512L98.0197 37.6387L96.5242 38.4978L102.471 41.9104Z" fill="#4F4F51"/>
<path d="M95.5631 37.927L97.0586 37.0705L91.1115 33.658L89.616 34.5171L95.5631 37.927Z" fill="#4F4F51"/>
<path d="M102.471 43.2658L103.967 42.4067L98.0197 38.9941L96.5242 39.8533L102.471 43.2658Z" fill="#4F4F51"/>
<path d="M95.5631 39.2822L97.0586 38.4257L91.1115 35.0132L89.616 35.8723L95.5631 39.2822Z" fill="#4F4F51"/>
<path d="M102.471 44.6213L103.967 43.7621L98.0197 40.3496L96.5242 41.2087L102.471 44.6213Z" fill="#4F4F51"/>
<path d="M95.5631 40.6377L97.0586 39.7812L91.1115 36.3687L89.616 37.2251L95.5631 40.6377Z" fill="#4F4F51"/>
<path d="M102.471 45.9765L103.967 45.1174L98.0197 41.7048L96.5242 42.564L102.471 45.9765Z" fill="#4F4F51"/>
<path d="M95.5631 41.9931L97.0586 41.1367L91.1115 37.7241L89.616 38.5833L95.5631 41.9931Z" fill="#4F4F51"/>
<path d="M102.471 47.332L103.967 46.4729L98.0197 43.0603L96.5242 43.9194L102.471 47.332Z" fill="#4F4F51"/>
<path d="M95.5631 43.3486L97.0586 42.4921L91.1115 39.0796L89.616 39.9361L95.5631 43.3486Z" fill="#4F4F51"/>
<path d="M102.471 48.6875L103.967 47.8283L98.0197 44.4158L96.5242 45.2749L102.471 48.6875Z" fill="#4F4F51"/>
<path d="M95.5631 44.7038L97.0586 43.8474L91.1115 40.4348L89.616 41.294L95.5631 44.7038Z" fill="#4F4F51"/>
<path d="M102.471 50.0429L103.967 49.1838L98.0197 45.7712L96.5242 46.6304L102.471 50.0429Z" fill="#4F4F51"/>
<path d="M95.5631 46.0593L97.0586 45.2028L91.1115 41.7903L89.616 42.6468L95.5631 46.0593Z" fill="#4F4F51"/>
<path d="M102.471 51.3984L103.967 50.5393L98.0197 47.1267L96.5242 47.9858L102.471 51.3984Z" fill="#4F4F51"/>
<path d="M95.5631 47.4148L97.0586 46.5583L91.1115 43.1458L89.616 44.0049L95.5631 47.4148Z" fill="#4F4F51"/>
<path d="M102.471 52.7536L103.967 51.8945L98.0197 48.4819L96.5242 49.3411L102.471 52.7536Z" fill="#4F4F51"/>
<path d="M95.5631 48.7702L97.0586 47.9138L91.1115 44.5012L89.616 45.3577L95.5631 48.7702Z" fill="#4F4F51"/>
<path d="M102.471 54.1091L103.967 53.2499L98.0197 49.8374L96.5242 50.6965L102.471 54.1091Z" fill="#4F4F51"/>
<path d="M95.5631 50.1257L97.0586 49.2692L91.1115 45.8567L89.616 46.7158L95.5631 50.1257Z" fill="#4F4F51"/>
<path d="M102.471 55.4646L103.967 54.6054L98.0197 51.1929L96.5242 52.052L102.471 55.4646Z" fill="#4F4F51"/>
<path d="M95.5631 51.4809L97.0586 50.6244L91.1115 47.2119L89.616 48.0711L95.5631 51.4809Z" fill="#4F4F51"/>
<path d="M87.7042 47.4094L102.665 55.9928V38.9328L87.7042 30.3494V47.4094Z" fill="#58595B"/>
<path d="M84.5547 49.3599L99.5151 57.9433V40.8859L84.5547 32.3025V49.3599Z" fill="#4F4F51"/>
<path d="M102.665 38.9329L99.5151 40.8859V57.9433L102.665 55.9929V38.9329Z" fill="#757679"/>
<path d="M87.7041 30.3494L84.5547 32.3024L99.5151 40.8858L102.665 38.9328L87.7041 30.3494Z" fill="#8F9194"/>
<path d="M85.2955 9.16965L86.791 8.31318L80.8439 4.90063L79.3484 5.75977L85.2955 9.16965Z" fill="#4F4F51"/>
<path d="M78.3873 5.1887L79.8828 4.32956L73.9357 0.919678L72.4402 1.77615L78.3873 5.1887Z" fill="#4F4F51"/>
<path d="M85.2955 10.5249L86.791 9.6684L80.8439 6.25586L79.3484 7.115L85.2955 10.5249Z" fill="#4F4F51"/>
<path d="M78.3873 6.54416L79.8828 5.68502L73.9357 2.27515L72.4402 3.13162L78.3873 6.54416Z" fill="#4F4F51"/>
<path d="M85.2955 11.8803L86.791 11.0239L80.8439 7.61133L79.3484 8.47047L85.2955 11.8803Z" fill="#4F4F51"/>
<path d="M78.3873 7.89963L79.8828 7.04049L73.9357 3.63062L72.4402 4.48709L78.3873 7.89963Z" fill="#4F4F51"/>
<path d="M85.2955 13.2358L86.791 12.3793L80.8439 8.9668L79.3484 9.82594L85.2955 13.2358Z" fill="#4F4F51"/>
<path d="M78.3873 9.25486L79.8828 8.39572L73.9357 4.98584L72.4402 5.84231L78.3873 9.25486Z" fill="#4F4F51"/>
<path d="M85.2955 14.5913L86.791 13.7348L80.8439 10.3223L79.3484 11.1814L85.2955 14.5913Z" fill="#4F4F51"/>
<path d="M78.3873 10.6103L79.8828 9.75119L73.9357 6.34131L72.4402 7.19778L78.3873 10.6103Z" fill="#4F4F51"/>
<path d="M85.2955 15.9465L86.791 15.09L80.8439 11.6775L79.3484 12.5366L85.2955 15.9465Z" fill="#4F4F51"/>
<path d="M78.3873 11.9658L79.8828 11.1067L73.9357 7.69678L72.4402 8.55325L78.3873 11.9658Z" fill="#4F4F51"/>
<path d="M85.2955 17.302L86.791 16.4455L80.8439 13.033L79.3484 13.8921L85.2955 17.302Z" fill="#4F4F51"/>
<path d="M78.3873 13.3213L79.8828 12.4621L73.9357 9.05225L72.4402 9.90872L78.3873 13.3213Z" fill="#4F4F51"/>
<path d="M85.2955 18.6574L86.791 17.801L80.8439 14.3884L79.3484 15.2476L85.2955 18.6574Z" fill="#4F4F51"/>
<path d="M78.3873 14.6765L79.8828 13.8174L73.9357 10.4075L72.4402 11.2639L78.3873 14.6765Z" fill="#4F4F51"/>
<path d="M85.2955 20.0129L86.791 19.1564L80.8439 15.7439L79.3484 16.603L85.2955 20.0129Z" fill="#4F4F51"/>
<path d="M78.3873 16.032L79.8828 15.1728L73.9357 11.7629L72.4402 12.6194L78.3873 16.032Z" fill="#4F4F51"/>
<path d="M85.2955 21.3684L86.791 20.5119L80.8439 17.0994L79.3484 17.9585L85.2955 21.3684Z" fill="#4F4F51"/>
<path d="M78.3873 17.3874L79.8828 16.5283L73.9357 13.1184L72.4402 13.9749L78.3873 17.3874Z" fill="#4F4F51"/>
<path d="M85.2955 22.7236L86.791 21.8671L80.8439 18.4546L79.3484 19.3137L85.2955 22.7236Z" fill="#4F4F51"/>
<path d="M78.3873 18.7429L79.8828 17.8838L73.9357 14.4739L72.4402 15.3303L78.3873 18.7429Z" fill="#4F4F51"/>
<path d="M85.2955 24.0791L86.791 23.2226L80.8439 19.8101L79.3484 20.6692L85.2955 24.0791Z" fill="#4F4F51"/>
<path d="M78.3873 20.0984L79.8828 19.2392L73.9357 15.8293L72.4402 16.6858L78.3873 20.0984Z" fill="#4F4F51"/>
<path d="M85.2955 25.4345L86.791 24.5781L80.8439 21.1655L79.3484 22.0247L85.2955 25.4345Z" fill="#4F4F51"/>
<path d="M78.3873 21.4536L79.8828 20.5944L73.9357 17.1846L72.4402 18.041L78.3873 21.4536Z" fill="#4F4F51"/>
<path d="M70.5284 17.3821L85.4888 25.9655V8.90542L70.5284 0.322021V17.3821Z" fill="#58595B"/>
<path d="M67.3789 19.3325L82.3394 27.9159V10.8559L67.3789 2.27515V19.3325Z" fill="#4F4F51"/>
<path d="M85.4888 8.90552L82.3393 10.8559V27.916L85.4888 25.9656V8.90552Z" fill="#757679"/>
<path d="M70.5283 0.322021L67.3789 2.2751L82.3394 10.8558L85.4888 8.90541L70.5283 0.322021Z" fill="#8F9194"/>
<path d="M102.471 19.4152L103.967 18.5561L98.0197 15.1436L96.5242 16.0027L102.471 19.4152Z" fill="#4F4F51"/>
<path d="M95.5631 15.4316L97.0586 14.5751L91.1115 11.1626L89.616 12.0217L95.5631 15.4316Z" fill="#4F4F51"/>
<path d="M102.471 20.7705L103.967 19.9113L98.0197 16.4988L96.5242 17.3579L102.471 20.7705Z" fill="#4F4F51"/>
<path d="M95.5631 16.7871L97.0586 15.9306L91.1115 12.5181L89.616 13.3772L95.5631 16.7871Z" fill="#4F4F51"/>
<path d="M102.471 22.1259L103.967 21.2668L98.0197 17.8542L96.5242 18.7134L102.471 22.1259Z" fill="#4F4F51"/>
<path d="M95.5631 18.1426L97.0586 17.2861L91.1115 13.8735L89.616 14.7327L95.5631 18.1426Z" fill="#4F4F51"/>
<path d="M102.471 23.4814L103.967 22.6223L98.0197 19.2097L96.5242 20.0689L102.471 23.4814Z" fill="#4F4F51"/>
<path d="M95.5631 19.4978L97.0586 18.6413L91.1115 15.2288L89.616 16.0879L95.5631 19.4978Z" fill="#4F4F51"/>
<path d="M102.471 24.8369L103.967 23.9777L98.0197 20.5652L96.5242 21.4243L102.471 24.8369Z" fill="#4F4F51"/>
<path d="M95.5631 20.8532L97.0586 19.9968L91.1115 16.5842L89.616 17.4434L95.5631 20.8532Z" fill="#4F4F51"/>
<path d="M102.471 26.1921L103.967 25.333L98.0197 21.9204L96.5242 22.7795L102.471 26.1921Z" fill="#4F4F51"/>
<path d="M95.5631 22.2087L97.0586 21.3522L91.1115 17.9397L89.616 18.7988L95.5631 22.2087Z" fill="#4F4F51"/>
<path d="M102.471 27.5476L103.967 26.6884L98.0197 23.2759L96.5242 24.135L102.471 27.5476Z" fill="#4F4F51"/>
<path d="M95.5631 23.5642L97.0586 22.7077L91.1115 19.2952L89.616 20.1543L95.5631 23.5642Z" fill="#4F4F51"/>
<path d="M102.471 28.903L103.967 28.0439L98.0197 24.6313L96.5242 25.4905L102.471 28.903Z" fill="#4F4F51"/>
<path d="M95.5631 24.9194L97.0586 24.0629L91.1115 20.6504L89.616 21.5095L95.5631 24.9194Z" fill="#4F4F51"/>
<path d="M102.471 30.2585L103.967 29.3994L98.0197 25.9868L96.5242 26.846L102.471 30.2585Z" fill="#4F4F51"/>
<path d="M95.5631 26.2749L97.0586 25.4184L91.1115 22.0059L89.616 22.865L95.5631 26.2749Z" fill="#4F4F51"/>
<path d="M102.471 31.614L103.967 30.7548L98.0197 27.3423L96.5242 28.2014L102.471 31.614Z" fill="#4F4F51"/>
<path d="M95.5631 27.6303L97.0586 26.7739L91.1115 23.3613L89.616 24.2205L95.5631 27.6303Z" fill="#4F4F51"/>
<path d="M102.471 32.9692L103.967 32.1101L98.0197 28.6975L96.5242 29.5566L102.471 32.9692Z" fill="#4F4F51"/>
<path d="M95.5631 28.9858L97.0586 28.1294L91.1115 24.7168L89.616 25.5759L95.5631 28.9858Z" fill="#4F4F51"/>
<path d="M102.471 34.3247L103.967 33.4655L98.0197 30.053L96.5242 30.9121L102.471 34.3247Z" fill="#4F4F51"/>
<path d="M95.5631 30.3413L97.0586 29.4848L91.1115 26.0723L89.616 26.9314L95.5631 30.3413Z" fill="#4F4F51"/>
<path d="M102.471 35.6801L103.967 34.821L98.0197 31.4084L96.5242 32.2676L102.471 35.6801Z" fill="#4F4F51"/>
<path d="M95.5631 31.6965L97.0586 30.84L91.1115 27.4275L89.616 28.2866L95.5631 31.6965Z" fill="#4F4F51"/>
<path d="M87.7042 27.625L102.665 36.2084V19.1483L87.7042 10.5649V27.625Z" fill="#58595B"/>
<path d="M84.5547 29.5781L99.5151 38.1589V21.1015L84.5547 12.5181V29.5781Z" fill="#4F4F51"/>
<path d="M102.665 19.1484L99.5151 21.1015V38.1589L102.665 36.2085V19.1484Z" fill="#757679"/>
<path d="M87.7041 10.5649L84.5547 12.518L99.5151 21.1014L102.665 19.1483L87.7041 10.5649Z" fill="#8F9194"/>
<path d="M27.9351 23.1774L55.5441 39.0127L61.9504 42.7081C62.6733 43.0992 63.4847 43.3003 64.3077 43.2924C64.9384 43.3116 65.5634 43.1691 66.1227 42.8789L73.0847 38.8767L100.989 22.8678C101.475 22.601 101.711 22.2168 101.711 21.8273C101.711 21.3577 101.365 20.8614 100.691 20.4745L66.6651 0.954443C65.4273 0.244719 63.5613 0.154004 62.49 0.781016L27.6236 20.792C26.5685 21.3924 26.7027 22.4676 27.9351 23.1774Z" fill="#F1F2F2"/>
<path d="M64.316 43.2816V77.5298C64.9474 77.5473 65.5729 77.4049 66.1337 77.1162L100.997 57.1159C101.483 56.8491 101.72 56.4649 101.72 56.0753V21.8245C101.72 22.214 101.483 22.5876 100.997 22.865L73.093 38.8739L66.1337 42.8761C65.5726 43.1632 64.9468 43.3028 64.316 43.2816Z" fill="url(#paint0_linear_681_20581)"/>
<path d="M26.912 21.8218V56.0673C26.912 56.5396 27.261 57.0332 27.9349 57.4201L61.9502 76.9428C62.6729 77.3348 63.4843 77.5369 64.3076 77.5298V43.2816C63.4855 43.2928 62.6741 43.0953 61.9502 42.708L55.5306 39.0233L27.9349 23.1772C27.261 22.7903 26.912 22.294 26.912 21.8218Z" fill="url(#paint1_linear_681_20581)"/>
<path d="M29.6693 57.7377L58.21 74.1147V65.9769L29.6693 49.6025V57.7377Z" fill="#1651A4"/>
<path d="M29.6694 49.6025L12.6631 68.01V70.0458L29.6694 57.7377V49.6025Z" fill="#15498D"/>
<path d="M12.6631 70.0458L41.2012 86.4201V84.387L12.6631 68.01V70.0458Z" fill="#124C92"/>
<path d="M58.21 65.9768L41.201 84.3869V86.4201L58.21 74.1146V65.9768Z" fill="#2163B3"/>
<path d="M41.201 84.387L58.21 65.9769L29.6692 49.6025L12.6629 68.01L41.201 84.387Z" fill="#307FE2"/>
<path d="M29.6693 47.3746L58.21 63.749V55.6112L29.6693 39.2368V47.3746Z" fill="#1651A4"/>
<path d="M29.6694 39.2368L12.6631 57.647V59.6801L29.6694 47.3746V39.2368Z" fill="#15498D"/>
<g filter="url(#filter6_f_681_20581)">
<path d="M54.3481 65.4164L28.9373 50.8257L16.5247 65.731L41.9356 80.3217L54.3481 65.4164Z" fill="#144C90"/>
</g>
<path d="M12.6631 59.6801L41.2012 76.0544V74.0213L12.6631 57.647V59.6801Z" fill="#124C92"/>
<path d="M58.21 55.6111L41.201 74.0212V76.0544L58.21 63.7489V55.6111Z" fill="#2163B3"/>
<path d="M41.201 74.0213L58.21 55.6112L29.6692 39.2368L12.6629 57.647L41.201 74.0213Z" fill="#307FE2"/>
<path d="M29.6693 37.0089L58.21 53.3833V45.2481L29.6693 28.8711V37.0089Z" fill="#1651A4"/>
<g filter="url(#filter7_f_681_20581)">
<path d="M54.3481 54.4909L28.9373 39.9001L16.5247 54.8054L41.9356 69.3962L54.3481 54.4909Z" fill="#144C90"/>
</g>
<path d="M29.6694 28.8711L12.6631 47.2812V49.3144L29.6694 37.0089V28.8711Z" fill="#15498D"/>
<path d="M12.6631 49.3144L41.2012 65.6887V63.6556L12.6631 47.2812V49.3144Z" fill="#124C92"/>
<path d="M58.21 45.248L41.201 63.6555V65.6886L58.21 53.3832V45.248Z" fill="#2163B3"/>
<path d="M41.201 63.6556L58.21 45.2481L29.6692 28.8711L12.6629 47.2812L41.201 63.6556Z" fill="#307FE2"/>
<path d="M141.349 61.9458L142.845 61.0866L136.898 57.6768L135.402 58.5332L141.349 61.9458Z" fill="#4F4F51"/>
<path d="M134.441 57.9648L135.937 57.1057L129.989 53.6931L128.494 54.5523L134.441 57.9648Z" fill="#4F4F51"/>
<path d="M141.349 63.301L142.845 62.4418L136.898 59.0293L135.402 59.8884L141.349 63.301Z" fill="#4F4F51"/>
<path d="M134.441 59.3203L135.937 58.4611L129.989 55.0486L128.494 55.9077L134.441 59.3203Z" fill="#4F4F51"/>
<path d="M141.349 64.6565L142.845 63.7973L136.898 60.3875L135.402 61.2439L141.349 64.6565Z" fill="#4F4F51"/>
<path d="M134.441 60.6757L135.937 59.8166L129.989 56.4041L128.494 57.2632L134.441 60.6757Z" fill="#4F4F51"/>
<path d="M141.349 66.0119L142.845 65.1528L136.898 61.7402L135.402 62.5994L141.349 66.0119Z" fill="#4F4F51"/>
<path d="M134.441 62.031L135.937 61.1718L129.989 57.7593L128.494 58.6184L134.441 62.031Z" fill="#4F4F51"/>
<path d="M141.349 67.3674L142.845 66.5083L136.898 63.0984L135.402 63.9549L141.349 67.3674Z" fill="#4F4F51"/>
<path d="M134.441 63.3864L135.937 62.5273L129.989 59.1147L128.494 59.9739L134.441 63.3864Z" fill="#4F4F51"/>
<path d="M141.349 68.7228L142.845 67.8637L136.898 64.4512L135.402 65.3103L141.349 68.7228Z" fill="#4F4F51"/>
<path d="M134.441 64.7419L135.937 63.8828L129.989 60.4702L128.494 61.3293L134.441 64.7419Z" fill="#4F4F51"/>
<path d="M141.349 70.0781L142.845 69.219L136.898 65.8091L135.402 66.6655L141.349 70.0781Z" fill="#4F4F51"/>
<path d="M134.441 66.0974L135.937 65.2382L129.989 61.8257L128.494 62.6848L134.441 66.0974Z" fill="#4F4F51"/>
<path d="M141.349 71.4336L142.845 70.5744L136.898 67.1619L135.402 68.021L141.349 71.4336Z" fill="#4F4F51"/>
<path d="M134.441 67.4526L135.937 66.5935L129.989 63.1809L128.494 64.04L134.441 67.4526Z" fill="#4F4F51"/>
<path d="M141.349 72.789L142.845 71.9299L136.898 68.52L135.402 69.3765L141.349 72.789Z" fill="#4F4F51"/>
<path d="M134.441 68.8081L135.937 67.9489L129.989 64.5364L128.494 65.3955L134.441 68.8081Z" fill="#4F4F51"/>
<path d="M141.349 74.1445L142.845 73.2853L136.898 69.8728L135.402 70.7319L141.349 74.1445Z" fill="#4F4F51"/>
<path d="M134.441 70.1635L135.937 69.3044L129.989 65.8918L128.494 66.751L134.441 70.1635Z" fill="#4F4F51"/>
<path d="M141.349 75.4997L142.845 74.6406L136.898 71.2307L135.402 72.0872L141.349 75.4997Z" fill="#4F4F51"/>
<path d="M134.441 71.519L135.937 70.6599L129.989 67.2473L128.494 68.1065L134.441 71.519Z" fill="#4F4F51"/>
<path d="M141.349 76.8552L142.845 75.9961L136.898 72.5862L135.402 73.4427L141.349 76.8552Z" fill="#4F4F51"/>
<path d="M134.441 72.8745L135.937 72.0153L129.989 68.6028L128.494 69.4619L134.441 72.8745Z" fill="#4F4F51"/>
<path d="M141.349 78.2106L142.845 77.3515L136.898 73.939L135.402 74.7981L141.349 78.2106Z" fill="#4F4F51"/>
<path d="M134.441 74.2297L135.937 73.3706L129.989 69.958L128.494 70.8171L134.441 74.2297Z" fill="#4F4F51"/>
<path d="M126.58 70.1555L141.54 78.7389V61.6815L126.58 53.0981V70.1555Z" fill="#58595B"/>
<path d="M123.43 72.1086L138.391 80.692V63.632L123.43 55.0486V72.1086Z" fill="#4F4F51"/>
<path d="M141.54 61.6816L138.391 63.632V80.6921L141.54 78.739V61.6816Z" fill="#757679"/>
<path d="M126.58 53.0981L123.43 55.0486L138.391 63.6319L141.54 61.6815L126.58 53.0981Z" fill="#8F9194"/>
<path d="M124.174 31.9184L125.669 31.0593L119.722 27.6467L118.227 28.5059L124.174 31.9184Z" fill="#4F4F51"/>
<path d="M117.266 27.9348L118.761 27.0783L112.814 23.6658L111.319 24.5249L117.266 27.9348Z" fill="#4F4F51"/>
<path d="M124.174 33.2736L125.669 32.4145L119.722 29.002L118.227 29.8611L124.174 33.2736Z" fill="#4F4F51"/>
<path d="M117.266 29.2903L118.761 28.4338L112.814 25.0212L111.319 25.8804L117.266 29.2903Z" fill="#4F4F51"/>
<path d="M124.174 34.6291L125.669 33.77L119.722 30.3574L118.227 31.2166L124.174 34.6291Z" fill="#4F4F51"/>
<path d="M117.266 30.6457L118.761 29.7893L112.814 26.3767L111.319 27.2358L117.266 30.6457Z" fill="#4F4F51"/>
<path d="M124.174 35.9846L125.669 35.1254L119.722 31.7129L118.227 32.572L124.174 35.9846Z" fill="#4F4F51"/>
<path d="M117.266 32.001L118.761 31.1445L112.814 27.7319L111.319 28.5911L117.266 32.001Z" fill="#4F4F51"/>
<path d="M124.174 37.34L125.669 36.4809L119.722 33.0684L118.227 33.9275L124.174 37.34Z" fill="#4F4F51"/>
<path d="M117.266 33.3564L118.761 32.5L112.814 29.0874L111.319 29.9465L117.266 33.3564Z" fill="#4F4F51"/>
<path d="M124.174 38.6953L125.669 37.8361L119.722 34.4236L118.227 35.2827L124.174 38.6953Z" fill="#4F4F51"/>
<path d="M117.266 34.7119L118.761 33.8554L112.814 30.4429L111.319 31.302L117.266 34.7119Z" fill="#4F4F51"/>
<path d="M124.174 40.0507L125.669 39.1916L119.722 35.7791L118.227 36.6382L124.174 40.0507Z" fill="#4F4F51"/>
<path d="M117.266 36.0674L118.761 35.2109L112.814 31.7983L111.319 32.6575L117.266 36.0674Z" fill="#4F4F51"/>
<path d="M124.174 41.4062L125.669 40.5471L119.722 37.1345L118.227 37.9937L124.174 41.4062Z" fill="#4F4F51"/>
<path d="M117.266 37.4226L118.761 36.5661L112.814 33.1536L111.319 34.0127L117.266 37.4226Z" fill="#4F4F51"/>
<path d="M124.174 42.7617L125.669 41.9025L119.722 38.49L118.227 39.3491L124.174 42.7617Z" fill="#4F4F51"/>
<path d="M117.266 38.7781L118.761 37.9216L112.814 34.509L111.319 35.3682L117.266 38.7781Z" fill="#4F4F51"/>
<path d="M124.174 44.1171L125.669 43.258L119.722 39.8455L118.227 40.7046L124.174 44.1171Z" fill="#4F4F51"/>
<path d="M117.266 40.1335L118.761 39.277L112.814 35.8645L111.319 36.7236L117.266 40.1335Z" fill="#4F4F51"/>
<path d="M124.174 45.4724L125.669 44.6132L119.722 41.2007L118.227 42.0598L124.174 45.4724Z" fill="#4F4F51"/>
<path d="M117.266 41.489L118.761 40.6325L112.814 37.22L111.319 38.0791L117.266 41.489Z" fill="#4F4F51"/>
<path d="M124.174 46.8278L125.669 45.9687L119.722 42.5562L118.227 43.4153L124.174 46.8278Z" fill="#4F4F51"/>
<path d="M117.266 42.8445L118.761 41.988L112.814 38.5754L111.319 39.4346L117.266 42.8445Z" fill="#4F4F51"/>
<path d="M124.174 48.1833L125.669 47.3242L119.722 43.9116L118.227 44.7708L124.174 48.1833Z" fill="#4F4F51"/>
<path d="M117.266 44.1997L118.761 43.3432L112.814 39.9307L111.319 40.7898L117.266 44.1997Z" fill="#4F4F51"/>
<path d="M109.404 40.1282L124.365 48.7116V31.6515L109.404 23.0681V40.1282Z" fill="#58595B"/>
<path d="M106.255 42.0813L121.215 50.6647V33.6046L106.255 25.0212V42.0813Z" fill="#4F4F51"/>
<path d="M124.365 31.6516L121.215 33.6047V50.6648L124.365 48.7117V31.6516Z" fill="#757679"/>
<path d="M109.404 23.0681L106.255 25.0212L121.215 33.6046L124.365 31.6515L109.404 23.0681Z" fill="#8F9194"/>
<path d="M141.349 41.6279L142.845 40.7688L136.898 37.3589L135.402 38.2154L141.349 41.6279Z" fill="#4F4F51"/>
<path d="M134.441 37.6469L135.937 36.7878L129.989 33.3752L128.494 34.2344L134.441 37.6469Z" fill="#4F4F51"/>
<path d="M141.349 42.9831L142.845 42.124L136.898 38.7141L135.402 39.5706L141.349 42.9831Z" fill="#4F4F51"/>
<path d="M134.441 39.0024L135.937 38.1433L129.989 34.7307L128.494 35.5899L134.441 39.0024Z" fill="#4F4F51"/>
<path d="M141.349 44.3386L142.845 43.4795L136.898 40.0696L135.402 40.9261L141.349 44.3386Z" fill="#4F4F51"/>
<path d="M134.441 40.3579L135.937 39.4987L129.989 36.0862L128.494 36.9453L134.441 40.3579Z" fill="#4F4F51"/>
<path d="M141.349 45.6941L142.845 44.8349L136.898 41.425L135.402 42.2815L141.349 45.6941Z" fill="#4F4F51"/>
<path d="M134.441 41.7131L135.937 40.8539L129.989 37.4414L128.494 38.3005L134.441 41.7131Z" fill="#4F4F51"/>
<path d="M141.349 47.0495L142.845 46.1904L136.898 42.7805L135.402 43.637L141.349 47.0495Z" fill="#4F4F51"/>
<path d="M134.441 43.0686L135.937 42.2094L129.989 38.7969L128.494 39.656L134.441 43.0686Z" fill="#4F4F51"/>
<path d="M141.349 48.4048L142.845 47.5456L136.898 44.1357L135.402 44.9922L141.349 48.4048Z" fill="#4F4F51"/>
<path d="M134.441 44.424L135.937 43.5649L129.989 40.1523L128.494 41.0115L134.441 44.424Z" fill="#4F4F51"/>
<path d="M141.349 49.7602L142.845 48.9011L136.898 45.4912L135.402 46.3477L141.349 49.7602Z" fill="#4F4F51"/>
<path d="M134.441 45.7795L135.937 44.9204L129.989 41.5078L128.494 42.367L134.441 45.7795Z" fill="#4F4F51"/>
<path d="M141.349 51.1157L142.845 50.2566L136.898 46.8467L135.402 47.7032L141.349 51.1157Z" fill="#4F4F51"/>
<path d="M134.441 47.1347L135.937 46.2756L129.989 42.863L128.494 43.7222L134.441 47.1347Z" fill="#4F4F51"/>
<path d="M141.349 52.4712L142.845 51.612L136.898 48.2021L135.402 49.0586L141.349 52.4712Z" fill="#4F4F51"/>
<path d="M134.441 48.4902L135.937 47.631L129.989 44.2185L128.494 45.0776L134.441 48.4902Z" fill="#4F4F51"/>
<path d="M141.349 53.8266L142.845 52.9675L136.898 49.5576L135.402 50.4141L141.349 53.8266Z" fill="#4F4F51"/>
<path d="M134.441 49.8457L135.937 48.9865L129.989 45.574L128.494 46.4331L134.441 49.8457Z" fill="#4F4F51"/>
<path d="M141.349 55.1819L142.845 54.3227L136.898 50.9128L135.402 51.7693L141.349 55.1819Z" fill="#4F4F51"/>
<path d="M134.441 51.2011L135.937 50.342L129.989 46.9294L128.494 47.7886L134.441 51.2011Z" fill="#4F4F51"/>
<path d="M141.349 56.5373L142.845 55.6782L136.898 52.2683L135.402 53.1248L141.349 56.5373Z" fill="#4F4F51"/>
<path d="M134.441 52.5566L135.937 51.6975L129.989 48.2849L128.494 49.1441L134.441 52.5566Z" fill="#4F4F51"/>
<path d="M141.349 57.8928L142.845 57.0337L136.898 53.6238L135.402 54.4802L141.349 57.8928Z" fill="#4F4F51"/>
<path d="M134.441 53.9118L135.937 53.0527L129.989 49.6401L128.494 50.4993L134.441 53.9118Z" fill="#4F4F51"/>
<path d="M126.58 49.8377L141.54 58.4211V41.361L126.58 32.7803V49.8377Z" fill="#58595B"/>
<path d="M123.43 51.7908L138.391 60.3742V43.3141L123.43 34.7307V51.7908Z" fill="#4F4F51"/>
<path d="M141.54 41.3611L138.391 43.3142V60.3742L141.54 58.4212V41.3611Z" fill="#757679"/>
<path d="M126.58 32.7803L123.43 34.7307L138.391 43.3141L141.54 41.361L126.58 32.7803Z" fill="#8F9194"/>
<path d="M66.8132 45.6566L94.4196 61.492L100.839 65.1793C101.562 65.5713 102.373 65.7734 103.197 65.7663C103.828 65.7841 104.454 65.6418 105.014 65.3527L111.974 61.3505L139.881 45.3417C140.364 45.0749 140.603 44.6907 140.603 44.3012C140.603 43.8289 140.257 43.3326 139.58 42.9457L105.541 23.4283C104.306 22.7186 102.437 22.6279 101.368 23.2549L66.4991 43.2659C65.4439 43.8743 65.5782 44.9468 66.8132 45.6566Z" fill="#F1F2F2"/>
<path d="M103.194 65.7638V100.009C103.822 100.027 104.445 99.8853 105.004 99.5984L139.875 79.5874C140.361 79.3206 140.598 78.9364 140.598 78.5468V44.304C140.598 44.6935 140.361 45.067 139.875 45.3445L111.971 61.3533L105.009 65.3555C104.449 65.6424 103.824 65.7829 103.194 65.7638Z" fill="url(#paint2_linear_681_20581)"/>
<path d="M65.7899 44.304V78.5495C65.7899 79.0191 66.1362 79.5127 66.8128 79.8996L100.839 99.4223C101.561 99.8151 102.373 100.017 103.196 100.009V65.7638C102.373 65.7717 101.561 65.5696 100.839 65.1768L94.4193 61.4921L66.8128 45.6567C66.1362 45.2698 65.7899 44.7735 65.7899 44.304Z" fill="url(#paint3_linear_681_20581)"/>
<path d="M61.8001 78.1518L67.0625 81.1375V45.798L61.7276 42.5669L61.8001 78.1518Z" fill="#F1F2F2"/>
<path d="M67.0629 45.798L105.729 23.5057L100.471 20.3413L61.7279 42.5669L67.0629 45.798Z" fill="#F8F8F9"/>
<path d="M68.2578 79.1578L96.7959 95.5322V87.397L68.2578 71.02V79.1578Z" fill="#1651A4"/>
<path d="M68.2573 71.02L51.2483 89.4301V91.4633L68.2573 79.1578V71.02Z" fill="#15498D"/>
<path d="M51.2483 91.4631L79.7891 107.837V105.804L51.2483 89.4299V91.4631Z" fill="#124C92"/>
<path d="M96.7959 87.397L79.7896 105.804V107.838L96.7959 95.5321V87.397Z" fill="#2163B3"/>
<path d="M79.7896 105.805L96.7959 87.397L68.2578 71.02L51.2488 89.4302L79.7896 105.805Z" fill="#307FE2"/>
<path d="M68.2578 68.7921L96.7959 85.1665V77.0313L68.2578 60.657V68.7921Z" fill="#1651A4"/>
<path d="M68.2573 60.657L51.2483 79.0644V81.0976L68.2573 68.7921V60.657Z" fill="#15498D"/>
<path d="M51.2483 81.0973L79.7891 97.4717V95.4385L51.2483 79.0642V81.0973Z" fill="#124C92"/>
<g filter="url(#filter8_f_681_20581)">
<path d="M93.1758 87.5497L67.7649 72.959L55.3523 87.8643L80.7632 102.455L93.1758 87.5497Z" fill="#144C90"/>
</g>
<path d="M96.7959 77.0312L79.7896 95.4387V97.4719L96.7959 85.1664V77.0312Z" fill="#2163B3"/>
<path d="M79.7896 95.4388L96.7959 77.0313L68.2578 60.657L51.2488 79.0644L79.7896 95.4388Z" fill="#307FE2"/>
<path d="M68.2578 58.4264L96.7959 74.8008V66.6656L68.2578 50.2913V58.4264Z" fill="#1651A4"/>
<g filter="url(#filter9_f_681_20581)">
<path d="M93.1758 76.6244L67.7649 62.0337L55.3523 76.939L80.7632 91.5297L93.1758 76.6244Z" fill="#144C90"/>
</g>
<path d="M68.2573 50.2913L51.2483 68.6987V70.7318L68.2573 58.4264V50.2913Z" fill="#15498D"/>
<path d="M51.2483 70.7319L79.7891 87.1089V85.0731L51.2483 68.6987V70.7319Z" fill="#124C92"/>
<path d="M96.7959 66.6655L79.7896 85.073V87.1088L96.7959 74.8007V66.6655Z" fill="#2163B3"/>
<path d="M79.7896 85.0731L96.7959 66.6656L68.2578 50.2913L51.2488 68.6987L79.7896 85.0731Z" fill="#307FE2"/>
<path d="M105.736 101.538L134.938 84.791V51.5066L105.736 68.2533V101.538Z" fill="url(#paint4_linear_681_20581)"/>
<path d="M134.396 117.799L163.599 101.053L134.579 84.4104L105.377 101.157L134.396 117.799Z" fill="url(#paint5_linear_681_20581)"/>
<path d="M115.288 89.5326L142.542 105.164C143.082 105.473 143.517 105.226 143.517 104.612V86.3162C143.496 85.9821 143.398 85.6573 143.229 85.3678C143.06 85.0783 142.825 84.8321 142.542 84.649L115.288 69.0173C114.748 68.709 114.314 68.9556 114.314 69.5694V87.8654C114.334 88.1996 114.433 88.5244 114.602 88.8139C114.771 89.1034 115.006 89.3495 115.288 89.5326Z" fill="#4F4F51"/>
<path d="M106.013 68.0575L133.759 83.976L140.211 87.6776C140.937 88.0714 141.753 88.2744 142.58 88.2673C143.215 88.2851 143.844 88.1422 144.407 87.8518L151.402 83.8313L179.449 67.7493C179.935 67.4812 180.175 67.0953 180.175 66.7039C180.175 66.2322 179.8 65.7471 179.12 65.3638L144.95 45.7383C143.708 45.0253 141.83 44.9476 140.756 45.5641L105.711 65.6666C104.637 66.2751 104.772 67.3553 106.013 68.0575Z" fill="#F1F2F2"/>
<path d="M142.575 88.2675V122.67C143.21 122.687 143.838 122.545 144.402 122.254L179.444 102.152C179.932 101.884 180.17 101.498 180.17 101.106V66.7175C180.17 67.1089 179.932 67.4841 179.444 67.7629L151.396 83.8449L144.402 87.8654C143.837 88.1511 143.208 88.2895 142.575 88.2675Z" fill="url(#paint6_linear_681_20581)"/>
<path d="M145.511 93.5663L152.888 89.3367C152.987 89.2729 153.068 89.187 153.127 89.0859C153.185 88.9849 153.219 88.8715 153.226 88.7551V85.8791C153.226 85.6673 153.074 85.5816 152.888 85.6861L145.511 89.9184C145.412 89.9816 145.331 90.067 145.272 90.1677C145.213 90.2683 145.18 90.3812 145.173 90.4973V93.3733C145.173 93.5851 145.324 93.6735 145.511 93.5663Z" fill="#A7A9AC"/>
<path d="M152.643 89.0696C152.587 89.0374 152.588 88.9335 152.645 88.8376C152.701 88.7417 152.792 88.69 152.847 88.7222C152.903 88.7544 152.902 88.8583 152.846 88.9542C152.789 89.0501 152.698 89.1018 152.643 89.0696Z" fill="#939598"/>
<path d="M150.859 90.0916C150.804 90.0594 150.805 89.9555 150.861 89.8596C150.918 89.7637 151.008 89.712 151.064 89.7442C151.119 89.7764 151.118 89.8802 151.062 89.9762C151.005 90.0721 150.915 90.1238 150.859 90.0916Z" fill="#939598"/>
<path d="M149.075 91.116C149.019 91.0838 149.02 90.9799 149.076 90.884C149.133 90.7881 149.224 90.7364 149.279 90.7686C149.334 90.8008 149.334 90.9047 149.277 91.0006C149.221 91.0965 149.13 91.1482 149.075 91.116Z" fill="#939598"/>
<path d="M147.296 92.2104C147.241 92.1785 147.241 92.0752 147.297 91.9796C147.353 91.8841 147.443 91.8325 147.499 91.8644C147.554 91.8963 147.553 91.9996 147.497 92.0951C147.441 92.1907 147.351 92.2423 147.296 92.2104Z" fill="#939598"/>
<path d="M145.509 93.1599C145.454 93.1277 145.455 93.0239 145.511 92.9279C145.567 92.832 145.658 92.7804 145.714 92.8126C145.769 92.8448 145.768 92.9486 145.712 93.0445C145.655 93.1404 145.565 93.1921 145.509 93.1599Z" fill="#939598"/>
<path d="M152.643 86.4785C152.588 86.4466 152.588 86.3432 152.644 86.2477C152.7 86.1521 152.79 86.1005 152.845 86.1324C152.901 86.1643 152.9 86.2676 152.844 86.3632C152.788 86.4587 152.698 86.5104 152.643 86.4785Z" fill="#939598"/>
<path d="M150.859 87.5686C150.804 87.5364 150.805 87.4326 150.861 87.3366C150.918 87.2407 151.008 87.1891 151.064 87.2212C151.119 87.2534 151.118 87.3573 151.062 87.4532C151.005 87.5491 150.915 87.6008 150.859 87.5686Z" fill="#939598"/>
<path d="M149.076 88.5906C149.021 88.5584 149.021 88.4545 149.078 88.3586C149.134 88.2627 149.225 88.211 149.28 88.2432C149.336 88.2754 149.335 88.3793 149.279 88.4752C149.222 88.5711 149.131 88.6228 149.076 88.5906Z" fill="#939598"/>
<path d="M147.294 89.615C147.238 89.5828 147.239 89.4789 147.296 89.383C147.352 89.2871 147.443 89.2354 147.498 89.2676C147.554 89.2998 147.553 89.4037 147.496 89.4996C147.44 89.5955 147.349 89.6472 147.294 89.615Z" fill="#939598"/>
<path d="M145.509 90.6367C145.454 90.6045 145.455 90.5007 145.511 90.4047C145.567 90.3088 145.658 90.2572 145.714 90.2894C145.769 90.3216 145.768 90.4254 145.712 90.5213C145.655 90.6173 145.565 90.6689 145.509 90.6367Z" fill="#939598"/>
<path d="M106.014 68.0577L133.759 83.9762L140.211 87.6778C140.938 88.0716 141.753 88.2746 142.581 88.2675V122.67C141.753 122.678 140.937 122.475 140.211 122.08L106.014 102.468C105.334 102.079 104.986 101.583 104.986 101.109V66.7175C104.986 67.1812 105.336 67.6798 106.014 68.0577ZM109.63 102.149C109.65 102.483 109.748 102.808 109.917 103.097C110.087 103.387 110.322 103.633 110.604 103.816L133.964 117.218C134.504 117.526 134.939 117.277 134.939 116.666V90.0365C134.919 89.7019 134.82 89.3765 134.651 89.0865C134.482 88.7966 134.247 88.55 133.964 88.3666L110.604 74.9649C110.064 74.6567 109.63 74.906 109.63 75.5171V102.149Z" fill="url(#paint7_linear_681_20581)"/>
<path d="M100.959 99.4817L106.039 102.451V68.0743L100.879 65.1782L100.959 99.4817Z" fill="#F1F2F2"/>
<path d="M106.031 68.091L144.873 45.7091L139.222 42.7429L100.879 65.2006L106.031 68.091Z" fill="#F8F8F9"/>
<path d="M219.666 106.713L221.161 105.854L215.214 102.444L213.719 103.301L219.666 106.713Z" fill="#4F4F51"/>
<path d="M212.757 102.732L214.253 101.873L208.306 98.4604L206.81 99.3196L212.757 102.732Z" fill="#4F4F51"/>
<path d="M219.666 108.068L221.161 107.209L215.214 103.797L213.719 104.656L219.666 108.068Z" fill="#4F4F51"/>
<path d="M212.757 104.088L214.253 103.228L208.306 99.8159L206.81 100.675L212.757 104.088Z" fill="#4F4F51"/>
<path d="M219.666 109.424L221.161 108.565L215.214 105.155L213.719 106.011L219.666 109.424Z" fill="#4F4F51"/>
<path d="M212.757 105.443L214.253 104.584L208.306 101.171L206.81 102.031L212.757 105.443Z" fill="#4F4F51"/>
<path d="M219.666 110.779L221.161 109.92L215.214 106.508L213.719 107.367L219.666 110.779Z" fill="#4F4F51"/>
<path d="M212.757 106.798L214.253 105.939L208.306 102.527L206.81 103.386L212.757 106.798Z" fill="#4F4F51"/>
<path d="M219.666 112.135L221.161 111.276L215.214 107.866L213.719 108.722L219.666 112.135Z" fill="#4F4F51"/>
<path d="M212.757 108.154L214.253 107.295L208.306 103.882L206.81 104.741L212.757 108.154Z" fill="#4F4F51"/>
<path d="M219.666 113.49L221.161 112.631L215.214 109.219L213.719 110.078L219.666 113.49Z" fill="#4F4F51"/>
<path d="M212.757 109.509L214.253 108.65L208.306 105.238L206.81 106.097L212.757 109.509Z" fill="#4F4F51"/>
<path d="M219.666 114.845L221.161 113.986L215.214 110.576L213.719 111.433L219.666 114.845Z" fill="#4F4F51"/>
<path d="M212.757 110.865L214.253 110.006L208.306 106.593L206.81 107.452L212.757 110.865Z" fill="#4F4F51"/>
<path d="M219.666 116.201L221.161 115.342L215.214 111.929L213.719 112.788L219.666 116.201Z" fill="#4F4F51"/>
<path d="M212.757 112.22L214.253 111.361L208.306 107.948L206.81 108.808L212.757 112.22Z" fill="#4F4F51"/>
<path d="M219.666 117.556L221.161 116.697L215.214 113.287L213.719 114.144L219.666 117.556Z" fill="#4F4F51"/>
<path d="M212.757 113.575L214.253 112.716L208.306 109.304L206.81 110.163L212.757 113.575Z" fill="#4F4F51"/>
<path d="M219.666 118.912L221.161 118.053L215.214 114.64L213.719 115.499L219.666 118.912Z" fill="#4F4F51"/>
<path d="M212.757 114.931L214.253 114.072L208.306 110.659L206.81 111.518L212.757 114.931Z" fill="#4F4F51"/>
<path d="M219.666 120.267L221.161 119.408L215.214 115.998L213.719 116.855L219.666 120.267Z" fill="#4F4F51"/>
<path d="M212.757 116.286L214.253 115.427L208.306 112.015L206.81 112.874L212.757 116.286Z" fill="#4F4F51"/>
<path d="M219.666 121.623L221.161 120.763L215.214 117.354L213.719 118.21L219.666 121.623Z" fill="#4F4F51"/>
<path d="M212.757 117.642L214.253 116.783L208.306 113.37L206.81 114.229L212.757 117.642Z" fill="#4F4F51"/>
<path d="M219.666 122.978L221.161 122.119L215.214 118.706L213.719 119.565L219.666 122.978Z" fill="#4F4F51"/>
<path d="M212.757 118.997L214.253 118.138L208.306 114.725L206.81 115.584L212.757 118.997Z" fill="#4F4F51"/>
<path d="M204.896 114.923L219.856 123.506V106.449L204.896 97.8655V114.923Z" fill="#58595B"/>
<path d="M201.747 116.876L216.707 125.459V108.399L201.747 99.8159V116.876Z" fill="#4F4F51"/>
<path d="M219.856 106.449L216.707 108.399V125.459L219.856 123.506V106.449Z" fill="#757679"/>
<path d="M204.896 97.8655L201.747 99.8159L216.707 108.399L219.856 106.449L204.896 97.8655Z" fill="#8F9194"/>
<path d="M202.49 76.6857L203.986 75.8266L198.039 72.4141L196.543 73.2732L202.49 76.6857Z" fill="#4F4F51"/>
<path d="M195.582 72.7021L197.078 71.8456L191.131 68.4331L189.635 69.2922L195.582 72.7021Z" fill="#4F4F51"/>
<path d="M202.49 78.041L203.986 77.1818L198.039 73.7693L196.543 74.6284L202.49 78.041Z" fill="#4F4F51"/>
<path d="M195.582 74.0576L197.078 73.2011L191.131 69.7886L189.635 70.6477L195.582 74.0576Z" fill="#4F4F51"/>
<path d="M202.49 79.3964L203.986 78.5373L198.039 75.1248L196.543 75.9839L202.49 79.3964Z" fill="#4F4F51"/>
<path d="M195.582 75.4131L197.078 74.5566L191.131 71.144L189.635 72.0032L195.582 75.4131Z" fill="#4F4F51"/>
<path d="M202.49 80.7519L203.986 79.8928L198.039 76.4802L196.543 77.3394L202.49 80.7519Z" fill="#4F4F51"/>
<path d="M195.582 76.7683L197.078 75.9118L191.131 72.4993L189.635 73.3584L195.582 76.7683Z" fill="#4F4F51"/>
<path d="M202.49 82.1074L203.986 81.2482L198.039 77.8357L196.543 78.6948L202.49 82.1074Z" fill="#4F4F51"/>
<path d="M195.582 78.1237L197.078 77.2673L191.131 73.8547L189.635 74.7139L195.582 78.1237Z" fill="#4F4F51"/>
<path d="M202.49 83.4626L203.986 82.6035L198.039 79.1909L196.543 80.0501L202.49 83.4626Z" fill="#4F4F51"/>
<path d="M195.582 79.4792L197.078 78.6227L191.131 75.2102L189.635 76.0693L195.582 79.4792Z" fill="#4F4F51"/>
<path d="M202.49 84.8181L203.986 83.959L198.039 80.5464L196.543 81.4055L202.49 84.8181Z" fill="#4F4F51"/>
<path d="M195.582 80.8347L197.078 79.9782L191.131 76.5657L189.635 77.4248L195.582 80.8347Z" fill="#4F4F51"/>
<path d="M202.49 86.1735L203.986 85.3144L198.039 81.9019L196.543 82.761L202.49 86.1735Z" fill="#4F4F51"/>
<path d="M195.582 82.1899L197.078 81.3334L191.131 77.9209L189.635 78.78L195.582 82.1899Z" fill="#4F4F51"/>
<path d="M202.49 87.529L203.986 86.6699L198.039 83.2573L196.543 84.1165L202.49 87.529Z" fill="#4F4F51"/>
<path d="M195.582 83.5454L197.078 82.6889L191.131 79.2764L189.635 80.1355L195.582 83.5454Z" fill="#4F4F51"/>
<path d="M202.49 88.8845L203.986 88.0253L198.039 84.6128L196.543 85.4719L202.49 88.8845Z" fill="#4F4F51"/>
<path d="M195.582 84.9009L197.078 84.0444L191.131 80.6318L189.635 81.491L195.582 84.9009Z" fill="#4F4F51"/>
<path d="M202.49 90.2397L203.986 89.3806L198.039 85.968L196.543 86.8272L202.49 90.2397Z" fill="#4F4F51"/>
<path d="M195.582 86.2563L197.078 85.3998L191.131 81.9873L189.635 82.8464L195.582 86.2563Z" fill="#4F4F51"/>
<path d="M202.49 91.5952L203.986 90.736L198.039 87.3235L196.543 88.1826L202.49 91.5952Z" fill="#4F4F51"/>
<path d="M195.582 87.6118L197.078 86.7553L191.131 83.3428L189.635 84.2019L195.582 87.6118Z" fill="#4F4F51"/>
<path d="M202.49 92.9506L203.986 92.0915L198.039 88.679L196.543 89.5381L202.49 92.9506Z" fill="#4F4F51"/>
<path d="M195.582 88.967L197.078 88.1105L191.131 84.698L189.635 85.5571L195.582 88.967Z" fill="#4F4F51"/>
<path d="M187.721 84.8955L202.681 93.4789V76.4188L187.721 67.8354V84.8955Z" fill="#58595B"/>
<path d="M184.571 86.8486L199.532 95.432V78.372L184.571 69.7886V86.8486Z" fill="#4F4F51"/>
<path d="M202.681 76.4189L199.532 78.372V95.4321L202.681 93.479V76.4189Z" fill="#757679"/>
<path d="M187.721 67.8354L184.571 69.7885L199.532 78.3719L202.681 76.4188L187.721 67.8354Z" fill="#8F9194"/>
<path d="M219.666 86.3952L221.161 85.5361L215.214 82.1262L213.719 82.9827L219.666 86.3952Z" fill="#4F4F51"/>
<path d="M212.757 82.4143L214.253 81.5551L208.306 78.1426L206.81 79.0017L212.757 82.4143Z" fill="#4F4F51"/>
<path d="M219.666 87.7505L221.161 86.8913L215.214 83.4814L213.719 84.3379L219.666 87.7505Z" fill="#4F4F51"/>
<path d="M212.757 83.7697L214.253 82.9106L208.306 79.498L206.81 80.3572L212.757 83.7697Z" fill="#4F4F51"/>
<path d="M219.666 89.1059L221.161 88.2468L215.214 84.8369L213.719 85.6934L219.666 89.1059Z" fill="#4F4F51"/>
<path d="M212.757 85.1252L214.253 84.2661L208.306 80.8535L206.81 81.7127L212.757 85.1252Z" fill="#4F4F51"/>
<path d="M219.666 90.4614L221.161 89.6023L215.214 86.1924L213.719 87.0489L219.666 90.4614Z" fill="#4F4F51"/>
<path d="M212.757 86.4804L214.253 85.6213L208.306 82.2087L206.81 83.0679L212.757 86.4804Z" fill="#4F4F51"/>
<path d="M219.666 91.8169L221.161 90.9577L215.214 87.5479L213.719 88.4043L219.666 91.8169Z" fill="#4F4F51"/>
<path d="M212.757 87.8359L214.253 86.9768L208.306 83.5642L206.81 84.4234L212.757 87.8359Z" fill="#4F4F51"/>
<path d="M219.666 93.1723L221.161 92.3132L215.214 88.9033L213.719 89.7598L219.666 93.1723Z" fill="#4F4F51"/>
<path d="M212.757 89.1914L214.253 88.3322L208.306 84.9197L206.81 85.7788L212.757 89.1914Z" fill="#4F4F51"/>
<path d="M219.666 94.5276L221.161 93.6684L215.214 90.2585L213.719 91.115L219.666 94.5276Z" fill="#4F4F51"/>
<path d="M212.757 90.5468L214.253 89.6877L208.306 86.2751L206.81 87.1343L212.757 90.5468Z" fill="#4F4F51"/>
<path d="M219.666 95.883L221.161 95.0239L215.214 91.614L213.719 92.4705L219.666 95.883Z" fill="#4F4F51"/>
<path d="M212.757 91.9023L214.253 91.0432L208.306 87.6306L206.81 88.4898L212.757 91.9023Z" fill="#4F4F51"/>
<path d="M219.666 97.2385L221.161 96.3794L215.214 92.9695L213.719 93.826L219.666 97.2385Z" fill="#4F4F51"/>
<path d="M212.757 93.2575L214.253 92.3984L208.306 88.9858L206.81 89.845L212.757 93.2575Z" fill="#4F4F51"/>
<path d="M219.666 98.594L221.161 97.7348L215.214 94.325L213.719 95.1814L219.666 98.594Z" fill="#4F4F51"/>
<path d="M212.757 94.613L214.253 93.7538L208.306 90.3413L206.81 91.2004L212.757 94.613Z" fill="#4F4F51"/>
<path d="M219.666 99.9492L221.161 99.0901L215.214 95.6802L213.719 96.5366L219.666 99.9492Z" fill="#4F4F51"/>
<path d="M212.757 95.9685L214.253 95.1093L208.306 91.6968L206.81 92.5559L212.757 95.9685Z" fill="#4F4F51"/>
<path d="M219.666 101.305L221.161 100.446L215.214 97.0356L213.719 97.8921L219.666 101.305Z" fill="#4F4F51"/>
<path d="M212.757 97.3239L214.253 96.4648L208.306 93.0522L206.81 93.9114L212.757 97.3239Z" fill="#4F4F51"/>
<path d="M219.666 102.66L221.161 101.801L215.214 98.3911L213.719 99.2476L219.666 102.66Z" fill="#4F4F51"/>
<path d="M212.757 98.6791L214.253 97.82L208.306 94.4075L206.81 95.2666L212.757 98.6791Z" fill="#4F4F51"/>
<path d="M204.896 94.605L219.856 103.188V86.1283L204.896 77.5476V94.605Z" fill="#58595B"/>
<path d="M201.747 96.5581L216.707 105.142V88.0814L201.747 79.498V96.5581Z" fill="#4F4F51"/>
<path d="M219.856 86.1284L216.707 88.0815V105.142L219.856 103.188V86.1284Z" fill="#757679"/>
<path d="M204.896 77.5476L201.747 79.498L216.707 88.0814L219.856 86.1283L204.896 77.5476Z" fill="#8F9194"/>
<path d="M145.13 90.4239L172.736 106.259L179.156 109.947C179.878 110.339 180.69 110.541 181.513 110.534C182.144 110.551 182.77 110.409 183.331 110.12L190.29 106.118L218.197 90.1091C218.68 89.8422 218.919 89.458 218.919 89.0685C218.919 88.5962 218.573 88.1 217.896 87.7131L183.857 68.1957C182.622 67.4859 180.753 67.3952 179.685 68.0222L144.816 88.0333C143.76 88.6416 143.895 89.7142 145.13 90.4239Z" fill="#F1F2F2"/>
<path d="M181.51 110.531V144.777C182.139 144.794 182.761 144.653 183.32 144.366L218.192 124.355C218.678 124.088 218.914 123.704 218.914 123.314V89.0713C218.914 89.4608 218.678 89.8344 218.192 90.1119L190.287 106.121L183.325 110.123C182.765 110.41 182.14 110.55 181.51 110.531Z" fill="url(#paint8_linear_681_20581)"/>
<path d="M144.106 89.0713V123.317C144.106 123.786 144.453 124.28 145.129 124.667L179.155 144.19C179.878 144.582 180.689 144.785 181.513 144.777V110.531C180.689 110.539 179.878 110.337 179.155 109.944L172.736 106.259L145.129 90.424C144.453 90.0371 144.106 89.5409 144.106 89.0713Z" fill="url(#paint9_linear_681_20581)"/>
<path d="M140.116 122.919L145.379 125.905V90.5653L140.044 87.3342L140.116 122.919Z" fill="#F1F2F2"/>
<path d="M145.379 90.5653L184.045 68.2731L178.788 65.1086L140.044 87.3342L145.379 90.5653Z" fill="#F8F8F9"/>
<path d="M146.574 123.925L175.112 140.299V132.164L146.574 115.787V123.925Z" fill="#1651A4"/>
<path d="M146.574 115.787L129.565 134.197V136.231L146.574 123.925V115.787Z" fill="#15498D"/>
<path d="M129.565 136.23L158.105 152.605V150.572L129.565 134.197V136.23Z" fill="#124C92"/>
<path d="M175.112 132.164L158.106 150.572V152.605L175.112 140.299V132.164Z" fill="#2163B3"/>
<path d="M158.106 150.572L175.112 132.164L146.574 115.787L129.565 134.197L158.106 150.572Z" fill="#307FE2"/>
<path d="M146.574 113.559L175.112 129.934V121.799L146.574 105.424V113.559Z" fill="#1651A4"/>
<path d="M146.574 105.424L129.565 123.832V125.865L146.574 113.559V105.424Z" fill="#15498D"/>
<path d="M129.565 125.865L158.105 142.239V140.206L129.565 123.832V125.865Z" fill="#124C92"/>
<g filter="url(#filter10_f_681_20581)">
<path d="M171.492 132.317L146.081 117.726L133.669 132.632L159.08 147.222L171.492 132.317Z" fill="#144C90"/>
</g>
<path d="M175.112 121.799L158.106 140.206V142.239L175.112 129.934V121.799Z" fill="#2163B3"/>
<path d="M158.106 140.206L175.112 121.799L146.574 105.424L129.565 123.832L158.106 140.206Z" fill="#307FE2"/>
<path d="M146.574 103.194L175.112 119.568V111.433L146.574 95.0586V103.194Z" fill="#1651A4"/>
<g filter="url(#filter11_f_681_20581)">
<path d="M171.492 121.392L146.081 106.801L133.669 121.706L159.08 136.297L171.492 121.392Z" fill="#144C90"/>
</g>
<path d="M146.574 95.0586L129.565 113.466V115.499L146.574 103.194V95.0586Z" fill="#15498D"/>
<path d="M129.565 115.499L158.105 131.876V129.84L129.565 113.466V115.499Z" fill="#124C92"/>
<path d="M175.112 111.433L158.106 129.84V131.876L175.112 119.568V111.433Z" fill="#2163B3"/>
<path d="M158.106 129.84L175.112 111.433L146.574 95.0586L129.565 113.466L158.106 129.84Z" fill="#307FE2"/>
<path d="M258.871 128.594L260.366 127.735L254.419 124.323L252.924 125.182L258.871 128.594Z" fill="#4F4F51"/>
<path d="M251.963 124.611L253.458 123.754L247.511 120.342L246.015 121.198L251.963 124.611Z" fill="#4F4F51"/>
<path d="M258.871 129.947L260.366 129.09L254.419 125.678L252.924 126.537L258.871 129.947Z" fill="#4F4F51"/>
<path d="M251.963 125.966L253.458 125.11L247.511 121.697L246.015 122.553L251.963 125.966Z" fill="#4F4F51"/>
<path d="M258.871 131.302L260.366 130.446L254.419 127.033L252.924 127.892L258.871 131.302Z" fill="#4F4F51"/>
<path d="M251.963 127.321L253.458 126.462L247.511 123.052L246.015 123.909L251.963 127.321Z" fill="#4F4F51"/>
<path d="M258.871 132.66L260.366 131.801L254.419 128.389L252.924 129.248L258.871 132.66Z" fill="#4F4F51"/>
<path d="M251.963 128.677L253.458 127.82L247.511 124.408L246.015 125.264L251.963 128.677Z" fill="#4F4F51"/>
<path d="M258.871 134.013L260.366 133.157L254.419 129.744L252.924 130.603L258.871 134.013Z" fill="#4F4F51"/>
<path d="M251.963 130.032L253.458 129.176L247.511 125.763L246.015 126.62L251.963 130.032Z" fill="#4F4F51"/>
<path d="M258.871 135.369L260.366 134.512L254.419 131.1L252.924 131.959L258.871 135.369Z" fill="#4F4F51"/>
<path d="M251.963 131.388L253.458 130.529L247.511 127.119L246.015 127.975L251.963 131.388Z" fill="#4F4F51"/>
<path d="M258.871 136.727L260.366 135.867L254.419 132.455L252.924 133.314L258.871 136.727Z" fill="#4F4F51"/>
<path d="M251.963 132.743L253.458 131.884L247.511 128.474L246.015 129.331L251.963 132.743Z" fill="#4F4F51"/>
<path d="M258.871 138.082L260.366 137.223L254.419 133.81L252.924 134.669L258.871 138.082Z" fill="#4F4F51"/>
<path d="M251.963 134.098L253.458 133.242L247.511 129.829L246.015 130.686L251.963 134.098Z" fill="#4F4F51"/>
<path d="M258.871 139.435L260.366 138.578L254.419 135.166L252.924 136.025L258.871 139.435Z" fill="#4F4F51"/>
<path d="M251.963 135.454L253.458 134.597L247.511 131.185L246.015 132.041L251.963 135.454Z" fill="#4F4F51"/>
<path d="M258.871 140.79L260.366 139.934L254.419 136.521L252.924 137.38L258.871 140.79Z" fill="#4F4F51"/>
<path d="M251.963 136.809L253.458 135.95L247.511 132.54L246.015 133.397L251.963 136.809Z" fill="#4F4F51"/>
<path d="M258.871 142.148L260.366 141.289L254.419 137.876L252.924 138.736L258.871 142.148Z" fill="#4F4F51"/>
<path d="M251.963 138.165L253.458 137.306L247.511 133.896L246.015 134.752L251.963 138.165Z" fill="#4F4F51"/>
<path d="M258.871 143.504L260.366 142.644L254.419 139.232L252.924 140.091L258.871 143.504Z" fill="#4F4F51"/>
<path d="M251.963 139.52L253.458 138.664L247.511 135.251L246.015 136.108L251.963 139.52Z" fill="#4F4F51"/>
<path d="M258.871 144.856L260.366 144L254.419 140.587L252.924 141.447L258.871 144.856Z" fill="#4F4F51"/>
<path d="M251.963 140.875L253.458 140.016L247.511 136.606L246.015 137.463L251.963 140.875Z" fill="#4F4F51"/>
<path d="M244.104 136.804L259.062 145.387V128.327L244.104 119.744V136.804Z" fill="#58595B"/>
<path d="M240.954 138.754L255.912 147.338V130.28L240.954 121.697V138.754Z" fill="#4F4F51"/>
<path d="M259.062 128.327L255.912 130.28V147.338L259.062 145.387V128.327Z" fill="#757679"/>
<path d="M244.104 119.744L240.954 121.697L255.912 130.28L259.062 128.327L244.104 119.744Z" fill="#8F9194"/>
<path d="M241.695 98.5644L243.19 97.708L237.243 94.2954L235.748 95.1546L241.695 98.5644Z" fill="#4F4F51"/>
<path d="M234.787 94.5835L236.282 93.7243L230.335 90.3145L228.84 91.1709L234.787 94.5835Z" fill="#4F4F51"/>
<path d="M241.695 99.9196L243.19 99.0632L237.243 95.6506L235.748 96.5098L241.695 99.9196Z" fill="#4F4F51"/>
<path d="M234.787 95.9389L236.282 95.0798L230.335 91.6672L228.84 92.5264L234.787 95.9389Z" fill="#4F4F51"/>
<path d="M241.695 101.275L243.19 100.419L237.243 97.0061L235.748 97.8652L241.695 101.275Z" fill="#4F4F51"/>
<path d="M234.787 97.2944L236.282 96.4353L230.335 93.0254L228.84 93.8819L234.787 97.2944Z" fill="#4F4F51"/>
<path d="M241.695 102.631L243.19 101.774L237.243 98.3616L235.748 99.2207L241.695 102.631Z" fill="#4F4F51"/>
<path d="M234.787 98.6496L236.282 97.7905L230.335 94.3779L228.84 95.2371L234.787 98.6496Z" fill="#4F4F51"/>
<path d="M241.695 103.986L243.19 103.13L237.243 99.717L235.748 100.576L241.695 103.986Z" fill="#4F4F51"/>
<path d="M234.787 100.005L236.282 99.1459L230.335 95.7334L228.84 96.5925L234.787 100.005Z" fill="#4F4F51"/>
<path d="M241.695 105.341L243.19 104.485L237.243 101.072L235.748 101.931L241.695 105.341Z" fill="#4F4F51"/>
<path d="M234.787 101.361L236.282 100.501L230.335 97.0916L228.84 97.948L234.787 101.361Z" fill="#4F4F51"/>
<path d="M241.695 106.697L243.19 105.84L237.243 102.428L235.748 103.287L241.695 106.697Z" fill="#4F4F51"/>
<path d="M234.787 102.716L236.282 101.857L230.335 98.4443L228.84 99.3035L234.787 102.716Z" fill="#4F4F51"/>
<path d="M241.695 108.052L243.19 107.196L237.243 103.783L235.748 104.64L241.695 108.052Z" fill="#4F4F51"/>
<path d="M234.787 104.071L236.282 103.212L230.335 99.8022L228.84 100.659L234.787 104.071Z" fill="#4F4F51"/>
<path d="M241.695 109.408L243.19 108.551L237.243 105.139L235.748 105.998L241.695 109.408Z" fill="#4F4F51"/>
<path d="M234.787 105.427L236.282 104.568L230.335 101.155L228.84 102.014L234.787 105.427Z" fill="#4F4F51"/>
<path d="M241.695 110.763L243.19 109.907L237.243 106.494L235.748 107.351L241.695 110.763Z" fill="#4F4F51"/>
<path d="M234.787 106.782L236.282 105.923L230.335 102.513L228.84 103.37L234.787 106.782Z" fill="#4F4F51"/>
<path d="M241.695 112.118L243.19 111.262L237.243 107.849L235.748 108.709L241.695 112.118Z" fill="#4F4F51"/>
<path d="M234.787 108.138L236.282 107.279L230.335 103.866L228.84 104.725L234.787 108.138Z" fill="#4F4F51"/>
<path d="M241.695 113.474L243.19 112.617L237.243 109.205L235.748 110.061L241.695 113.474Z" fill="#4F4F51"/>
<path d="M234.787 109.493L236.282 108.634L230.335 105.224L228.84 106.081L234.787 109.493Z" fill="#4F4F51"/>
<path d="M241.695 114.829L243.19 113.973L237.243 110.56L235.748 111.419L241.695 114.829Z" fill="#4F4F51"/>
<path d="M234.787 110.848L236.282 109.989L230.335 106.579L228.84 107.436L234.787 110.848Z" fill="#4F4F51"/>
<path d="M226.928 106.777L241.886 115.358V98.3002L226.928 89.7168V106.777Z" fill="#58595B"/>
<path d="M223.779 108.727L238.736 117.311V100.251L223.779 91.6672V108.727Z" fill="#4F4F51"/>
<path d="M241.886 98.3003L238.736 100.251V117.311L241.886 115.358V98.3003Z" fill="#757679"/>
<path d="M226.928 89.7168L223.779 91.6672L238.736 100.251L241.886 98.3002L226.928 89.7168Z" fill="#8F9194"/>
<path d="M258.871 108.276L260.366 107.417L254.419 104.005L252.924 104.864L258.871 108.276Z" fill="#4F4F51"/>
<path d="M251.963 104.293L253.458 103.436L247.511 100.024L246.015 100.88L251.963 104.293Z" fill="#4F4F51"/>
<path d="M258.871 109.632L260.366 108.772L254.419 105.36L252.924 106.219L258.871 109.632Z" fill="#4F4F51"/>
<path d="M251.963 105.648L253.458 104.789L247.511 101.379L246.015 102.238L251.963 105.648Z" fill="#4F4F51"/>
<path d="M258.871 110.987L260.366 110.128L254.419 106.715L252.924 107.574L258.871 110.987Z" fill="#4F4F51"/>
<path d="M251.963 107.004L253.458 106.147L247.511 102.735L246.015 103.591L251.963 107.004Z" fill="#4F4F51"/>
<path d="M258.871 112.342L260.366 111.483L254.419 108.071L252.924 108.93L258.871 112.342Z" fill="#4F4F51"/>
<path d="M251.963 108.359L253.458 107.5L247.511 104.09L246.015 104.949L251.963 108.359Z" fill="#4F4F51"/>
<path d="M258.871 113.698L260.366 112.839L254.419 109.426L252.924 110.285L258.871 113.698Z" fill="#4F4F51"/>
<path d="M251.963 109.714L253.458 108.858L247.511 105.445L246.015 106.304L251.963 109.714Z" fill="#4F4F51"/>
<path d="M258.871 115.053L260.366 114.194L254.419 110.782L252.924 111.641L258.871 115.053Z" fill="#4F4F51"/>
<path d="M251.963 111.07L253.458 110.211L247.511 106.801L246.015 107.657L251.963 111.07Z" fill="#4F4F51"/>
<path d="M258.871 116.409L260.366 115.55L254.419 112.137L252.924 112.996L258.871 116.409Z" fill="#4F4F51"/>
<path d="M251.963 112.425L253.458 111.569L247.511 108.156L246.015 109.015L251.963 112.425Z" fill="#4F4F51"/>
<path d="M258.871 117.764L260.366 116.905L254.419 113.492L252.924 114.352L258.871 117.764Z" fill="#4F4F51"/>
<path d="M251.963 113.78L253.458 112.921L247.511 109.511L246.015 110.368L251.963 113.78Z" fill="#4F4F51"/>
<path d="M258.871 119.12L260.366 118.26L254.419 114.848L252.924 115.707L258.871 119.12Z" fill="#4F4F51"/>
<path d="M251.963 115.136L253.458 114.279L247.511 110.867L246.015 111.726L251.963 115.136Z" fill="#4F4F51"/>
<path d="M258.871 120.472L260.366 119.616L254.419 116.203L252.924 117.063L258.871 120.472Z" fill="#4F4F51"/>
<path d="M251.963 116.491L253.458 115.635L247.511 112.222L246.015 113.079L251.963 116.491Z" fill="#4F4F51"/>
<path d="M258.871 121.828L260.366 120.971L254.419 117.559L252.924 118.418L258.871 121.828Z" fill="#4F4F51"/>
<path d="M251.963 117.847L253.458 116.988L247.511 113.578L246.015 114.437L251.963 117.847Z" fill="#4F4F51"/>
<path d="M258.871 123.186L260.366 122.327L254.419 118.914L252.924 119.773L258.871 123.186Z" fill="#4F4F51"/>
<path d="M251.963 119.202L253.458 118.343L247.511 114.933L246.015 115.79L251.963 119.202Z" fill="#4F4F51"/>
<path d="M258.871 124.541L260.366 123.682L254.419 120.27L252.924 121.129L258.871 124.541Z" fill="#4F4F51"/>
<path d="M251.963 120.558L253.458 119.701L247.511 116.289L246.015 117.148L251.963 120.558Z" fill="#4F4F51"/>
<path d="M244.104 116.486L259.062 125.069V108.009L244.104 99.426V116.486Z" fill="#58595B"/>
<path d="M240.954 118.439L255.912 127.02V109.963L240.954 101.379V118.439Z" fill="#4F4F51"/>
<path d="M259.062 108.01L255.912 109.963V127.02L259.062 125.07V108.01Z" fill="#757679"/>
<path d="M244.104 99.426L240.954 101.379L255.912 109.962L259.062 108.009L244.104 99.426Z" fill="#8F9194"/>
<path d="M184.335 112.569L211.944 128.407L218.363 132.092C219.086 132.485 219.897 132.687 220.721 132.679C221.351 132.698 221.976 132.555 222.536 132.266L229.498 128.263L257.402 112.254C257.888 111.988 258.125 111.603 258.125 111.214C258.125 110.742 257.778 110.248 257.102 109.861L223.078 90.3411C221.84 89.6314 219.972 89.554 218.903 90.1677L184.037 110.179C182.965 110.787 183.1 111.862 184.335 112.569Z" fill="#F1F2F2"/>
<path d="M220.715 132.676V166.922C221.342 166.94 221.963 166.799 222.52 166.511L257.397 146.5C257.883 146.233 258.119 145.849 258.119 145.459V111.219C258.119 111.609 257.883 111.982 257.397 112.26L229.492 128.269L222.53 132.271C221.97 132.558 221.345 132.698 220.715 132.676Z" fill="url(#paint10_linear_681_20581)"/>
<path d="M183.319 111.217V145.462C183.319 145.934 183.666 146.428 184.342 146.815L218.36 166.335C219.083 166.727 219.894 166.929 220.718 166.922V132.676C219.894 132.683 219.083 132.481 218.36 132.089L211.943 128.407L184.334 112.569C183.658 112.182 183.319 111.689 183.319 111.217Z" fill="url(#paint11_linear_681_20581)"/>
<path d="M223.056 163.368L223.706 163.824C223.932 163.984 224.219 163.856 224.584 163.645L230.604 160.217C231.718 159.563 231.906 159.451 231.906 158.21V135.921C231.906 135.582 231.976 134.752 231.355 134.752C231.142 134.743 230.929 134.773 230.727 134.843C230.897 135.037 231.031 135.259 231.125 135.499C231.14 135.577 231.147 135.657 231.146 135.737V157.599C231.146 158.763 230.91 158.968 229.938 159.558L224.399 162.8L223.862 163.123C223.735 163.196 223.6 163.253 223.459 163.293C223.263 163.341 223.207 163.453 223.056 163.368Z" fill="#E6E7E8"/>
<path d="M223.475 163.349L230.599 159.265C230.779 159.135 230.927 158.966 231.03 158.77C231.133 158.574 231.188 158.357 231.192 158.136V135.342C231.192 134.907 230.923 134.707 230.599 134.896L223.475 138.984C223.295 139.112 223.147 139.281 223.044 139.477C222.941 139.672 222.885 139.889 222.882 140.11V162.904C222.882 163.339 223.148 163.539 223.475 163.349Z" fill="url(#paint12_linear_681_20581)"/>
<path d="M223.368 137.733L230.708 133.522C230.806 133.458 230.887 133.373 230.945 133.272C231.003 133.172 231.037 133.059 231.044 132.943V130.08C231.044 129.87 230.891 129.782 230.708 129.888L223.368 134.101C223.27 134.164 223.189 134.249 223.13 134.349C223.072 134.45 223.038 134.562 223.032 134.678V137.54C223.032 137.751 223.182 137.839 223.368 137.733Z" fill="#A7A9AC"/>
<path d="M230.461 133.257C230.406 133.225 230.406 133.121 230.463 133.026C230.519 132.93 230.609 132.879 230.664 132.911C230.719 132.943 230.719 133.046 230.662 133.142C230.606 133.237 230.516 133.289 230.461 133.257Z" fill="#939598"/>
<path d="M228.686 134.272C228.631 134.24 228.632 134.136 228.688 134.041C228.744 133.945 228.835 133.894 228.89 133.926C228.945 133.958 228.944 134.061 228.888 134.157C228.832 134.252 228.742 134.304 228.686 134.272Z" fill="#939598"/>
<path d="M226.91 135.291C226.855 135.259 226.856 135.156 226.912 135.06C226.968 134.965 227.058 134.914 227.113 134.946C227.169 134.978 227.168 135.081 227.112 135.177C227.056 135.272 226.965 135.323 226.91 135.291Z" fill="#939598"/>
<path d="M226.143 136.425C226.088 136.393 226.088 136.29 226.144 136.195C226.2 136.1 226.289 136.048 226.344 136.08C226.399 136.112 226.399 136.215 226.343 136.31C226.287 136.405 226.198 136.456 226.143 136.425Z" fill="#939598"/>
<path d="M223.365 137.327C223.31 137.295 223.31 137.192 223.366 137.096C223.423 137.001 223.513 136.949 223.568 136.982C223.623 137.014 223.622 137.117 223.566 137.212C223.51 137.308 223.42 137.359 223.365 137.327Z" fill="#939598"/>
<path d="M230.462 130.743C230.407 130.711 230.407 130.607 230.464 130.512C230.52 130.416 230.61 130.365 230.665 130.397C230.72 130.429 230.72 130.532 230.663 130.628C230.607 130.723 230.517 130.775 230.462 130.743Z" fill="#939598"/>
<path d="M229.66 131.877C229.605 131.845 229.606 131.742 229.661 131.647C229.717 131.552 229.806 131.501 229.861 131.533C229.916 131.564 229.916 131.667 229.86 131.762C229.805 131.857 229.715 131.909 229.66 131.877Z" fill="#939598"/>
<path d="M226.912 132.777C226.856 132.745 226.857 132.642 226.913 132.546C226.97 132.451 227.06 132.399 227.115 132.431C227.17 132.464 227.169 132.567 227.113 132.662C227.057 132.758 226.967 132.809 226.912 132.777Z" fill="#939598"/>
<path d="M225.136 133.797C225.081 133.765 225.081 133.662 225.137 133.566C225.194 133.471 225.284 133.419 225.339 133.451C225.394 133.484 225.393 133.587 225.337 133.682C225.281 133.778 225.191 133.829 225.136 133.797Z" fill="#939598"/>
<path d="M223.366 134.816C223.311 134.784 223.312 134.68 223.368 134.585C223.424 134.489 223.514 134.438 223.57 134.47C223.625 134.502 223.624 134.605 223.568 134.701C223.512 134.796 223.421 134.848 223.366 134.816Z" fill="#939598"/>
<path d="M243.261 141.593C243.233 141.428 243.168 141.271 243.07 141.135C242.971 140.999 242.843 140.888 242.694 140.809L232.669 135.056L232.475 134.944C232.266 134.824 232.081 134.816 231.987 134.902L232.902 134.429C233.104 134.325 233.539 134.64 233.753 134.763L243.263 140.158C243.411 140.238 243.539 140.35 243.637 140.487C243.735 140.623 243.8 140.78 243.827 140.945L243.269 141.596" fill="#4F89C8"/>
<path d="M243.261 141.591V165.201C243.262 165.248 243.251 165.294 243.229 165.334L243.731 164.745C243.767 164.707 243.793 164.661 243.808 164.611C243.823 164.561 243.826 164.508 243.817 164.457V140.94L243.258 141.591" fill="#315B90"/>
<path d="M231.917 135.08V158.688C231.943 158.856 232.008 159.015 232.106 159.154C232.204 159.293 232.333 159.407 232.483 159.488L242.702 165.358C242.947 165.5 243.159 165.494 243.239 165.358C243.261 165.317 243.273 165.271 243.271 165.225V141.593C243.244 141.428 243.179 141.271 243.08 141.135C242.982 140.999 242.854 140.888 242.705 140.809L232.679 135.056L232.486 134.944C232.277 134.824 232.091 134.816 231.997 134.902L231.973 134.926C231.938 134.97 231.919 135.024 231.917 135.08Z" fill="#2A7DE1"/>
<path d="M178.876 144.854L184.138 147.842L184.334 112.569L178.876 109.784V144.854Z" fill="#F1F2F2"/>
<path d="M186.942 146.62L215.482 162.997V154.859L186.942 138.485V146.62Z" fill="#1651A4"/>
<path d="M186.941 138.485L169.935 156.893V158.928L186.941 146.62V138.485Z" fill="#15498D"/>
<path d="M169.935 158.928L198.476 175.303V173.27L169.935 156.893V158.928Z" fill="#124C92"/>
<path d="M215.482 154.859L198.476 173.269V175.303L215.482 162.997V154.859Z" fill="#2163B3"/>
<path d="M198.476 173.27L215.482 154.859L186.942 138.485L169.935 156.893L198.476 173.27Z" fill="#307FE2"/>
<g filter="url(#filter12_f_681_20581)">
<path d="M212.376 154.407L186.965 139.816L174.553 154.721L199.963 169.312L212.376 154.407Z" fill="#144C90"/>
</g>
<path d="M186.942 136.257L215.482 152.631V144.493L186.942 128.119V136.257Z" fill="#1651A4"/>
<path d="M186.941 128.119L169.935 146.529V148.562L186.941 136.257V128.119Z" fill="#15498D"/>
<path d="M169.935 148.563L198.476 164.937V162.904L169.935 146.53V148.563Z" fill="#124C92"/>
<path d="M215.482 144.494L198.476 162.904V164.937L215.482 152.631V144.494Z" fill="#2163B3"/>
<path d="M198.476 162.904L215.482 144.493L186.942 128.119L169.935 146.529L198.476 162.904Z" fill="#307FE2"/>
<path d="M186.942 125.891L215.482 142.266V134.128L186.942 117.753V125.891Z" fill="#1651A4"/>
<path d="M186.941 117.753L169.935 136.164V138.197L186.941 125.891V117.753Z" fill="#15498D"/>
<g filter="url(#filter13_f_681_20581)">
<path d="M212.376 143.482L186.965 128.891L174.553 143.796L199.963 158.387L212.376 143.482Z" fill="#144C90"/>
</g>
<path d="M169.935 138.197L198.476 154.571V152.538L169.935 136.164V138.197Z" fill="#124C92"/>
<path d="M215.482 134.128L198.476 152.538V154.571L215.482 142.266V134.128Z" fill="#2163B3"/>
<path d="M198.476 152.538L215.482 134.128L186.942 117.753L169.935 136.164L198.476 152.538Z" fill="#307FE2"/>
<path d="M184.335 112.569L222.804 90.2078L217.287 87.3635L178.876 109.784L184.335 112.569Z" fill="#F8F8F9"/>
<defs>
<filter id="filter0_f_681_20581" x="3.38574" y="10.1177" width="283.32" height="182.142" filterUnits="userSpaceOnUse" color-interpolation-filters="sRGB">
<feFlood flood-opacity="0" result="BackgroundImageFix"/>
<feBlend mode="normal" in="SourceGraphic" in2="BackgroundImageFix" result="shape"/>
<feGaussianBlur stdDeviation="11" result="effect1_foregroundBlur_681_20581"/>
</filter>
<filter id="filter1_f_681_20581" x="156.427" y="136.227" width="73.8545" height="52.9758" filterUnits="userSpaceOnUse" color-interpolation-filters="sRGB">
<feFlood flood-opacity="0" result="BackgroundImageFix"/>
<feBlend mode="normal" in="SourceGraphic" in2="BackgroundImageFix" result="shape"/>
<feGaussianBlur stdDeviation="6" result="effect1_foregroundBlur_681_20581"/>
</filter>
<filter id="filter2_f_681_20581" x="117.854" y="113.524" width="73.8545" height="52.9761" filterUnits="userSpaceOnUse" color-interpolation-filters="sRGB">
<feFlood flood-opacity="0" result="BackgroundImageFix"/>
<feBlend mode="normal" in="SourceGraphic" in2="BackgroundImageFix" result="shape"/>
<feGaussianBlur stdDeviation="6" result="effect1_foregroundBlur_681_20581"/>
</filter>
<filter id="filter3_f_681_20581" x="18.3657" y="28.0066" width="247.644" height="144.996" filterUnits="userSpaceOnUse" color-interpolation-filters="sRGB">
<feFlood flood-opacity="0" result="BackgroundImageFix"/>
<feBlend mode="normal" in="SourceGraphic" in2="BackgroundImageFix" result="shape"/>
<feGaussianBlur stdDeviation="3" result="effect1_foregroundBlur_681_20581"/>
</filter>
<filter id="filter4_f_681_20581" x="39.2578" y="68.6836" width="73.8545" height="52.9761" filterUnits="userSpaceOnUse" color-interpolation-filters="sRGB">
<feFlood flood-opacity="0" result="BackgroundImageFix"/>
<feBlend mode="normal" in="SourceGraphic" in2="BackgroundImageFix" result="shape"/>
<feGaussianBlur stdDeviation="6" result="effect1_foregroundBlur_681_20581"/>
</filter>
<filter id="filter5_f_681_20581" x="0.663086" y="47.3552" width="73.8545" height="52.9761" filterUnits="userSpaceOnUse" color-interpolation-filters="sRGB">
<feFlood flood-opacity="0" result="BackgroundImageFix"/>
<feBlend mode="normal" in="SourceGraphic" in2="BackgroundImageFix" result="shape"/>
<feGaussianBlur stdDeviation="6" result="effect1_foregroundBlur_681_20581"/>
</filter>
<filter id="filter6_f_681_20581" x="4.5249" y="38.8257" width="61.8232" height="53.4961" filterUnits="userSpaceOnUse" color-interpolation-filters="sRGB">
<feFlood flood-opacity="0" result="BackgroundImageFix"/>
<feBlend mode="normal" in="SourceGraphic" in2="BackgroundImageFix" result="shape"/>
<feGaussianBlur stdDeviation="6" result="effect1_foregroundBlur_681_20581"/>
</filter>
<filter id="filter7_f_681_20581" x="4.5249" y="27.9001" width="61.8232" height="53.4961" filterUnits="userSpaceOnUse" color-interpolation-filters="sRGB">
<feFlood flood-opacity="0" result="BackgroundImageFix"/>
<feBlend mode="normal" in="SourceGraphic" in2="BackgroundImageFix" result="shape"/>
<feGaussianBlur stdDeviation="6" result="effect1_foregroundBlur_681_20581"/>
</filter>
<filter id="filter8_f_681_20581" x="43.3525" y="60.959" width="61.8232" height="53.4961" filterUnits="userSpaceOnUse" color-interpolation-filters="sRGB">
<feFlood flood-opacity="0" result="BackgroundImageFix"/>
<feBlend mode="normal" in="SourceGraphic" in2="BackgroundImageFix" result="shape"/>
<feGaussianBlur stdDeviation="6" result="effect1_foregroundBlur_681_20581"/>
</filter>
<filter id="filter9_f_681_20581" x="43.3525" y="50.0337" width="61.8232" height="53.4961" filterUnits="userSpaceOnUse" color-interpolation-filters="sRGB">
<feFlood flood-opacity="0" result="BackgroundImageFix"/>
<feBlend mode="normal" in="SourceGraphic" in2="BackgroundImageFix" result="shape"/>
<feGaussianBlur stdDeviation="6" result="effect1_foregroundBlur_681_20581"/>
</filter>
<filter id="filter10_f_681_20581" x="121.669" y="105.726" width="61.8232" height="53.4961" filterUnits="userSpaceOnUse" color-interpolation-filters="sRGB">
<feFlood flood-opacity="0" result="BackgroundImageFix"/>
<feBlend mode="normal" in="SourceGraphic" in2="BackgroundImageFix" result="shape"/>
<feGaussianBlur stdDeviation="6" result="effect1_foregroundBlur_681_20581"/>
</filter>
<filter id="filter11_f_681_20581" x="121.669" y="94.801" width="61.8232" height="53.4961" filterUnits="userSpaceOnUse" color-interpolation-filters="sRGB">
<feFlood flood-opacity="0" result="BackgroundImageFix"/>
<feBlend mode="normal" in="SourceGraphic" in2="BackgroundImageFix" result="shape"/>
<feGaussianBlur stdDeviation="6" result="effect1_foregroundBlur_681_20581"/>
</filter>
<filter id="filter12_f_681_20581" x="162.553" y="127.816" width="61.8232" height="53.4961" filterUnits="userSpaceOnUse" color-interpolation-filters="sRGB">
<feFlood flood-opacity="0" result="BackgroundImageFix"/>
<feBlend mode="normal" in="SourceGraphic" in2="BackgroundImageFix" result="shape"/>
<feGaussianBlur stdDeviation="6" result="effect1_foregroundBlur_681_20581"/>
</filter>
<filter id="filter13_f_681_20581" x="162.553" y="116.891" width="61.8232" height="53.4961" filterUnits="userSpaceOnUse" color-interpolation-filters="sRGB">
<feFlood flood-opacity="0" result="BackgroundImageFix"/>
<feBlend mode="normal" in="SourceGraphic" in2="BackgroundImageFix" result="shape"/>
<feGaussianBlur stdDeviation="6" result="effect1_foregroundBlur_681_20581"/>
</filter>
<linearGradient id="paint0_linear_681_20581" x1="75.8585" y1="35.2985" x2="94.9853" y2="74.1886" gradientUnits="userSpaceOnUse">
<stop stop-color="#D1D3D4"/>
<stop offset="0.94" stop-color="#BCBEC0"/>
</linearGradient>
<linearGradient id="paint1_linear_681_20581" x1="50.5017" y1="29.0978" x2="40.6133" y2="71.2687" gradientUnits="userSpaceOnUse">
<stop offset="0.42" stop-color="#D1D3D4"/>
<stop offset="1" stop-color="#BCBEC0"/>
</linearGradient>
<linearGradient id="paint2_linear_681_20581" x1="-20796.5" y1="20336.6" x2="-15980.6" y2="26869.9" gradientUnits="userSpaceOnUse">
<stop stop-color="#D1D3D4"/>
<stop offset="0.94" stop-color="#BCBEC0"/>
</linearGradient>
<linearGradient id="paint3_linear_681_20581" x1="-24367.7" y1="19041.6" x2="-27272.9" y2="27308.7" gradientUnits="userSpaceOnUse">
<stop offset="0.42" stop-color="#D1D3D4"/>
<stop offset="1" stop-color="#BCBEC0"/>
</linearGradient>
<linearGradient id="paint4_linear_681_20581" x1="111.821" y1="103.875" x2="121.712" y2="71.676" gradientUnits="userSpaceOnUse">
<stop stop-color="#BCBEC0"/>
<stop offset="1" stop-color="#6D6E71"/>
</linearGradient>
<linearGradient id="paint5_linear_681_20581" x1="-11965.2" y1="9319.14" x2="-10775.8" y2="5713.86" gradientUnits="userSpaceOnUse">
<stop stop-color="#BCBEC0"/>
<stop offset="1" stop-color="#6D6E71"/>
</linearGradient>
<linearGradient id="paint6_linear_681_20581" x1="154.176" y1="80.2452" x2="173.384" y2="119.32" gradientUnits="userSpaceOnUse">
<stop stop-color="#D1D3D4"/>
<stop offset="0.94" stop-color="#BCBEC0"/>
</linearGradient>
<linearGradient id="paint7_linear_681_20581" x1="128.694" y1="74.0188" x2="118.765" y2="116.382" gradientUnits="userSpaceOnUse">
<stop offset="0.42" stop-color="#D1D3D4"/>
<stop offset="1" stop-color="#BCBEC0"/>
</linearGradient>
<linearGradient id="paint8_linear_681_20581" x1="-20718.2" y1="20381.4" x2="-15902.3" y2="26914.6" gradientUnits="userSpaceOnUse">
<stop stop-color="#D1D3D4"/>
<stop offset="0.94" stop-color="#BCBEC0"/>
</linearGradient>
<linearGradient id="paint9_linear_681_20581" x1="-24289.4" y1="19086.3" x2="-27194.6" y2="27353.5" gradientUnits="userSpaceOnUse">
<stop offset="0.42" stop-color="#D1D3D4"/>
<stop offset="1" stop-color="#BCBEC0"/>
</linearGradient>
<linearGradient id="paint10_linear_681_20581" x1="-15216.9" y1="25026.1" x2="-10401.2" y2="31559.8" gradientUnits="userSpaceOnUse">
<stop stop-color="#D1D3D4"/>
<stop offset="0.94" stop-color="#BCBEC0"/>
</linearGradient>
<linearGradient id="paint11_linear_681_20581" x1="-18784" y1="23732" x2="-21689.7" y2="31999.4" gradientUnits="userSpaceOnUse">
<stop offset="0.42" stop-color="#D1D3D4"/>
<stop offset="1" stop-color="#BCBEC0"/>
</linearGradient>
<linearGradient id="paint12_linear_681_20581" x1="212.204" y1="162.928" x2="230.032" y2="146.127" gradientUnits="userSpaceOnUse">
<stop stop-color="#BCBEC0"/>
<stop offset="1" stop-color="#6D6E71"/>
</linearGradient>
</defs>
</svg>
