<svg width="187" height="132" viewBox="0 0 187 132" fill="none" xmlns="http://www.w3.org/2000/svg">
<g filter="url(#filter0_f_681_20209)">
<path d="M23.8975 51.2647L117.756 105.062L124.312 108.844C125.05 109.247 125.878 109.454 126.719 109.446C127.364 109.465 128.002 109.319 128.574 109.022L135.682 104.913L164.179 88.4799C164.675 88.1946 164.917 87.8112 164.917 87.4117C164.917 86.9278 164.563 86.4189 163.873 86.0217L63.4703 28.4403C62.2071 27.7122 60.2999 27.6323 59.2081 28.2622L23.6005 48.8042C22.4996 49.4387 22.6366 50.5366 23.8975 51.2647Z" fill="#EAEAEA"/>
</g>
<g filter="url(#filter1_f_681_20209)">
<path d="M124.603 103.9L98.1291 90.2236L81.3102 100.378L107.784 115.505L124.603 103.9Z" fill="#BBBBBB"/>
</g>
<g filter="url(#filter2_f_681_20209)">
<path d="M91.1069 84.0921L64.6335 70.4155L47.8146 80.5697L74.2888 95.6974L91.1069 84.0921Z" fill="#BBBBBB"/>
</g>
<g filter="url(#filter3_f_681_20209)">
<path d="M57.4326 65.5672L30.9592 51.8906L14.1403 62.0448L40.6145 77.1725L57.4326 65.5672Z" fill="#BBBBBB"/>
</g>
<g filter="url(#filter4_f_681_20209)">
<path d="M22.0706 48.3086L118.464 102.665L124.354 106.063C125.017 106.425 125.762 106.612 126.517 106.604C127.096 106.621 127.669 106.49 128.184 106.223L134.57 102.531L160.175 87.7656C160.621 87.5093 160.838 87.1647 160.838 86.8058C160.838 86.3711 160.52 85.9137 159.9 85.5569L57.6274 27.8005C56.4925 27.1463 54.7788 27.0745 53.7978 27.6405L21.8038 46.0979C20.8146 46.668 20.9377 47.6544 22.0706 48.3086Z" fill="#888888"/>
</g>
<path d="M38.6008 14.0052C38.5769 13.8608 38.5201 13.7237 38.4348 13.6047C38.3495 13.4856 38.238 13.3877 38.1089 13.3184L29.4029 8.30163L29.2351 8.20385C29.0532 8.10142 28.8923 8.09211 28.8084 8.16893L29.6058 7.75688C29.7783 7.66609 30.1584 7.94079 30.3449 8.04787L38.6008 12.755C38.73 12.8243 38.8415 12.9222 38.9268 13.0413C39.012 13.1604 39.0688 13.2974 39.0928 13.4418L38.6078 14.0098" fill="#4F89C8"/>
<path d="M38.6009 14.0028V34.6008C38.6023 34.6421 38.5926 34.6831 38.5729 34.7195L39.0112 34.2027C39.0419 34.1696 39.0645 34.13 39.0774 34.0868C39.0904 34.0436 39.0932 33.9981 39.0858 33.9536V13.4348L38.6009 14.0028Z" fill="#315B90"/>
<path d="M28.7406 8.3226V28.9205C28.7658 29.0648 28.8233 29.2016 28.9089 29.3205C28.9945 29.4394 29.106 29.5375 29.2349 29.6073L38.1087 34.7289C38.3208 34.8522 38.5027 34.8452 38.575 34.7289C38.5943 34.6931 38.604 34.653 38.603 34.6125V14.0052C38.579 13.8608 38.5222 13.7238 38.437 13.6047C38.3517 13.4856 38.2402 13.3877 38.111 13.3184L29.4051 8.30165L29.2372 8.20387C29.0554 8.10144 28.8945 8.09213 28.8106 8.16895L28.7919 8.1899C28.7614 8.22771 28.7434 8.27411 28.7406 8.3226V8.3226Z" fill="#2A7DE1"/>
<path d="M92.1257 34.2073L93.4243 33.4577L88.26 30.4802L86.9613 31.2298L92.1257 34.2073Z" fill="#4F4F51"/>
<path d="M86.1266 30.7316L87.4253 29.9843L82.261 27.0068L80.9623 27.7564L86.1266 30.7316Z" fill="#4F4F51"/>
<path d="M92.1257 35.3899L93.4243 34.6403L88.26 31.6628L86.9613 32.4125L92.1257 35.3899Z" fill="#4F4F51"/>
<path d="M86.1266 31.9142L87.4253 31.1669L82.261 28.1895L80.9623 28.9391L86.1266 31.9142Z" fill="#4F4F51"/>
<path d="M92.1257 36.5725L93.4243 35.8229L88.26 32.8455L86.9613 33.5951L92.1257 36.5725Z" fill="#4F4F51"/>
<path d="M86.1266 33.0968L87.4253 32.3495L82.261 29.3721L80.9623 30.1217L86.1266 33.0968Z" fill="#4F4F51"/>
<path d="M92.1257 37.7552L93.4243 37.0056L88.26 34.0281L86.9613 34.7777L92.1257 37.7552Z" fill="#4F4F51"/>
<path d="M86.1266 34.2795L87.4253 33.5322L82.261 30.5547L80.9623 31.3043L86.1266 34.2795Z" fill="#4F4F51"/>
<path d="M92.1257 38.9378L93.4243 38.1882L88.26 35.2107L86.9613 35.9603L92.1257 38.9378Z" fill="#4F4F51"/>
<path d="M86.1266 35.4621L87.4253 34.7148L82.261 31.7373L80.9623 32.4846L86.1266 35.4621Z" fill="#4F4F51"/>
<path d="M92.1257 40.1204L93.4243 39.3708L88.26 36.3933L86.9613 37.1429L92.1257 40.1204Z" fill="#4F4F51"/>
<path d="M86.1266 36.6447L87.4253 35.8974L82.261 32.9199L80.9623 33.6695L86.1266 36.6447Z" fill="#4F4F51"/>
<path d="M92.1257 41.303L93.4243 40.5534L88.26 37.5759L86.9613 38.3255L92.1257 41.303Z" fill="#4F4F51"/>
<path d="M86.1266 37.8273L87.4253 37.08L82.261 34.1025L80.9623 34.8498L86.1266 37.8273Z" fill="#4F4F51"/>
<path d="M92.1257 42.4856L93.4243 41.736L88.26 38.7585L86.9613 39.5082L92.1257 42.4856Z" fill="#4F4F51"/>
<path d="M86.1266 39.0099L87.4253 38.2626L82.261 35.2852L80.9623 36.0348L86.1266 39.0099Z" fill="#4F4F51"/>
<path d="M92.1257 43.6682L93.4243 42.9186L88.26 39.9412L86.9613 40.6908L92.1257 43.6682Z" fill="#4F4F51"/>
<path d="M86.1266 40.1925L87.4253 39.4453L82.261 36.4678L80.9623 37.2151L86.1266 40.1925Z" fill="#4F4F51"/>
<path d="M92.1257 44.8509L93.4243 44.1013L88.26 41.1238L86.9613 41.8734L92.1257 44.8509Z" fill="#4F4F51"/>
<path d="M86.1266 41.3752L87.4253 40.6279L82.261 37.6504L80.9623 38.4L86.1266 41.3752Z" fill="#4F4F51"/>
<path d="M92.1257 46.0335L93.4243 45.2839L88.26 42.3064L86.9613 43.056L92.1257 46.0335Z" fill="#4F4F51"/>
<path d="M86.1266 42.5578L87.4253 41.8105L82.261 38.833L80.9623 39.5803L86.1266 42.5578Z" fill="#4F4F51"/>
<path d="M92.1257 47.2161L93.4243 46.4665L88.26 43.489L86.9613 44.2386L92.1257 47.2161Z" fill="#4F4F51"/>
<path d="M86.1266 43.7404L87.4253 42.9931L82.261 40.0156L80.9623 40.7652L86.1266 43.7404Z" fill="#4F4F51"/>
<path d="M92.1257 48.3987L93.4243 47.6491L88.26 44.6716L86.9613 45.4212L92.1257 48.3987Z" fill="#4F4F51"/>
<path d="M86.1266 44.923L87.4253 44.1757L82.261 41.1982L80.9623 41.9479L86.1266 44.923Z" fill="#4F4F51"/>
<path d="M79.3022 41.3704L92.2935 48.8595V33.9745L79.3022 26.4854V41.3704Z" fill="#58595B"/>
<path d="M76.5673 43.0722L89.5586 50.5613V35.6786L76.5673 28.1895V43.0722Z" fill="#4F4F51"/>
<path d="M92.2935 33.9744L89.5586 35.6784V50.5612L92.2935 48.8594V33.9744Z" fill="#757679"/>
<path d="M79.3022 26.4854L76.5673 28.1894L89.5586 35.6785L92.2935 33.9745L79.3022 26.4854Z" fill="#8F9194"/>
<path d="M77.2106 8.00601L78.5093 7.25873L73.3449 4.28125L72.0463 5.03086L77.2106 8.00601Z" fill="#4F4F51"/>
<path d="M71.2116 4.53262L72.5103 3.78302L67.3459 0.807861L66.0473 1.55514L71.2116 4.53262Z" fill="#4F4F51"/>
<path d="M77.2106 9.18863L78.5093 8.44135L73.3449 5.46387L72.0463 6.21348L77.2106 9.18863Z" fill="#4F4F51"/>
<path d="M71.2116 5.71524L72.5103 4.96563L67.3459 1.99048L66.0473 2.73776L71.2116 5.71524Z" fill="#4F4F51"/>
<path d="M77.2106 10.3712L78.5093 9.62397L73.3449 6.64648L72.0463 7.39609L77.2106 10.3712Z" fill="#4F4F51"/>
<path d="M71.2116 6.89786L72.5103 6.14825L67.3459 3.1731L66.0473 3.92038L71.2116 6.89786Z" fill="#4F4F51"/>
<path d="M77.2106 11.5539L78.5093 10.8066L73.3449 7.8291L72.0463 8.57871L77.2106 11.5539Z" fill="#4F4F51"/>
<path d="M71.2116 8.08048L72.5103 7.33087L67.3459 4.35571L66.0473 5.10299L71.2116 8.08048Z" fill="#4F4F51"/>
<path d="M77.2106 12.7365L78.5093 11.9892L73.3449 9.01172L72.0463 9.76133L77.2106 12.7365Z" fill="#4F4F51"/>
<path d="M71.2116 9.26309L72.5103 8.51348L67.3459 5.53833L66.0473 6.28561L71.2116 9.26309Z" fill="#4F4F51"/>
<path d="M77.2106 13.9191L78.5093 13.1718L73.3449 10.1943L72.0463 10.9439L77.2106 13.9191Z" fill="#4F4F51"/>
<path d="M71.2116 10.4457L72.5103 9.6961L67.3459 6.72095L66.0473 7.46823L71.2116 10.4457Z" fill="#4F4F51"/>
<path d="M77.2106 15.1017L78.5093 14.3544L73.3449 11.377L72.0463 12.1266L77.2106 15.1017Z" fill="#4F4F51"/>
<path d="M71.2116 11.6283L72.5103 10.8787L67.3459 7.90356L66.0473 8.65084L71.2116 11.6283Z" fill="#4F4F51"/>
<path d="M77.2106 16.2843L78.5093 15.5371L73.3449 12.5596L72.0463 13.3092L77.2106 16.2843Z" fill="#4F4F51"/>
<path d="M71.2116 12.8109L72.5103 12.0613L67.3459 9.08618L66.0473 9.83346L71.2116 12.8109Z" fill="#4F4F51"/>
<path d="M77.2106 17.467L78.5093 16.7197L73.3449 13.7422L72.0463 14.4918L77.2106 17.467Z" fill="#4F4F51"/>
<path d="M71.2116 13.9936L72.5103 13.244L67.3459 10.2688L66.0473 11.0161L71.2116 13.9936Z" fill="#4F4F51"/>
<path d="M77.2106 18.6496L78.5093 17.9023L73.3449 14.9248L72.0463 15.6744L77.2106 18.6496Z" fill="#4F4F51"/>
<path d="M71.2116 15.1762L72.5103 14.4266L67.3459 11.4514L66.0473 12.1987L71.2116 15.1762Z" fill="#4F4F51"/>
<path d="M77.2106 19.8322L78.5093 19.0849L73.3449 16.1074L72.0463 16.857L77.2106 19.8322Z" fill="#4F4F51"/>
<path d="M71.2116 16.3588L72.5103 15.6092L67.3459 12.634L66.0473 13.3813L71.2116 16.3588Z" fill="#4F4F51"/>
<path d="M77.2106 21.0148L78.5093 20.2675L73.3449 17.29L72.0463 18.0396L77.2106 21.0148Z" fill="#4F4F51"/>
<path d="M71.2116 17.5414L72.5103 16.7918L67.3459 13.8167L66.0473 14.5639L71.2116 17.5414Z" fill="#4F4F51"/>
<path d="M77.2106 22.1974L78.5093 21.4501L73.3449 18.4727L72.0463 19.2223L77.2106 22.1974Z" fill="#4F4F51"/>
<path d="M71.2116 18.724L72.5103 17.9744L67.3459 14.9993L66.0473 15.7465L71.2116 18.724Z" fill="#4F4F51"/>
<path d="M64.3871 15.1715L77.3784 22.6606V7.77548L64.3871 0.286377V15.1715Z" fill="#58595B"/>
<path d="M61.6523 16.8732L74.6436 24.3623V9.47726L61.6523 1.99048V16.8732Z" fill="#4F4F51"/>
<path d="M77.3784 7.77539L74.6435 9.47714V24.3622L77.3784 22.6605V7.77539Z" fill="#757679"/>
<path d="M64.3871 0.286377L61.6523 1.99046L74.6435 9.47723L77.3784 7.77548L64.3871 0.286377Z" fill="#8F9194"/>
<path d="M92.1257 16.9453L93.4243 16.1957L88.26 13.2183L86.9613 13.9679L92.1257 16.9453Z" fill="#4F4F51"/>
<path d="M86.1266 13.4696L87.4253 12.7224L82.261 9.74487L80.9623 10.4945L86.1266 13.4696Z" fill="#4F4F51"/>
<path d="M92.1257 18.128L93.4243 17.3784L88.26 14.4009L86.9613 15.1505L92.1257 18.128Z" fill="#4F4F51"/>
<path d="M86.1266 14.6523L87.4253 13.905L82.261 10.9275L80.9623 11.6771L86.1266 14.6523Z" fill="#4F4F51"/>
<path d="M92.1257 19.3106L93.4243 18.561L88.26 15.5835L86.9613 16.3331L92.1257 19.3106Z" fill="#4F4F51"/>
<path d="M86.1266 15.8349L87.4253 15.0876L82.261 12.1101L80.9623 12.8597L86.1266 15.8349Z" fill="#4F4F51"/>
<path d="M92.1257 20.4932L93.4243 19.7436L88.26 16.7661L86.9613 17.5157L92.1257 20.4932Z" fill="#4F4F51"/>
<path d="M86.1266 17.0175L87.4253 16.2702L82.261 13.2927L80.9623 14.0423L86.1266 17.0175Z" fill="#4F4F51"/>
<path d="M92.1257 21.6758L93.4243 20.9262L88.26 17.9487L86.9613 18.6983L92.1257 21.6758Z" fill="#4F4F51"/>
<path d="M86.1266 18.2001L87.4253 17.4528L82.261 14.4753L80.9623 15.225L86.1266 18.2001Z" fill="#4F4F51"/>
<path d="M92.1257 22.8584L93.4243 22.1088L88.26 19.1313L86.9613 19.881L92.1257 22.8584Z" fill="#4F4F51"/>
<path d="M86.1266 19.3827L87.4253 18.6354L82.261 15.658L80.9623 16.4076L86.1266 19.3827Z" fill="#4F4F51"/>
<path d="M92.1257 24.0411L93.4243 23.2914L88.26 20.314L86.9613 21.0636L92.1257 24.0411Z" fill="#4F4F51"/>
<path d="M86.1266 20.5653L87.4253 19.8181L82.261 16.8406L80.9623 17.5902L86.1266 20.5653Z" fill="#4F4F51"/>
<path d="M92.1257 25.2237L93.4243 24.4741L88.26 21.4966L86.9613 22.2462L92.1257 25.2237Z" fill="#4F4F51"/>
<path d="M86.1266 21.748L87.4253 21.0007L82.261 18.0232L80.9623 18.7728L86.1266 21.748Z" fill="#4F4F51"/>
<path d="M92.1257 26.4063L93.4243 25.6567L88.26 22.6792L86.9613 23.4288L92.1257 26.4063Z" fill="#4F4F51"/>
<path d="M86.1266 22.9306L87.4253 22.1833L82.261 19.2058L80.9623 19.9554L86.1266 22.9306Z" fill="#4F4F51"/>
<path d="M92.1257 27.5889L93.4243 26.8393L88.26 23.8618L86.9613 24.6114L92.1257 27.5889Z" fill="#4F4F51"/>
<path d="M86.1266 24.1132L87.4253 23.3659L82.261 20.3884L80.9623 21.138L86.1266 24.1132Z" fill="#4F4F51"/>
<path d="M92.1257 28.7715L93.4243 28.0219L88.26 25.0444L86.9613 25.794L92.1257 28.7715Z" fill="#4F4F51"/>
<path d="M86.1266 25.2958L87.4253 24.5485L82.261 21.571L80.9623 22.3207L86.1266 25.2958Z" fill="#4F4F51"/>
<path d="M92.1257 29.9541L93.4243 29.2045L88.26 26.2271L86.9613 26.9767L92.1257 29.9541Z" fill="#4F4F51"/>
<path d="M86.1266 26.4784L87.4253 25.7311L82.261 22.7537L80.9623 23.5033L86.1266 26.4784Z" fill="#4F4F51"/>
<path d="M92.1257 31.1368L93.4243 30.3872L88.26 27.4097L86.9613 28.1593L92.1257 31.1368Z" fill="#4F4F51"/>
<path d="M86.1266 27.661L87.4253 26.9138L82.261 23.9363L80.9623 24.6859L86.1266 27.661Z" fill="#4F4F51"/>
<path d="M79.3022 24.1085L92.2935 31.5976V16.7125L79.3022 9.22339V24.1085Z" fill="#58595B"/>
<path d="M76.5673 25.8126L89.5586 33.2993V18.4166L76.5673 10.9275V25.8126Z" fill="#4F4F51"/>
<path d="M92.2935 16.7124L89.5586 18.4165V33.2992L92.2935 31.5975V16.7124Z" fill="#757679"/>
<path d="M79.3022 9.22339L76.5673 10.9275L89.5586 18.4166L92.2935 16.7125L79.3022 9.22339Z" fill="#8F9194"/>
<path d="M27.4001 20.2278L51.3752 34.0444L56.9382 37.2686C57.566 37.6098 58.2706 37.7853 58.9853 37.7784C59.533 37.7951 60.0757 37.6709 60.5614 37.4176L66.6071 33.9256L90.8386 19.9578C91.2606 19.725 91.4658 19.3897 91.4658 19.0499C91.4658 18.6401 91.165 18.2071 90.5798 17.8696L61.0324 0.838087C59.9575 0.218845 58.3371 0.139695 57.4069 0.68677L27.1296 18.1466C26.2133 18.6704 26.3299 19.6086 27.4001 20.2278Z" fill="#F1F2F2"/>
<path d="M58.9921 37.7692V67.6511C59.5404 67.6663 60.0835 67.5422 60.5706 67.2903L90.8455 49.8398C91.2675 49.607 91.4727 49.2717 91.4727 48.9318V19.0476C91.4727 19.3875 91.2675 19.7134 90.8455 19.9555L66.6139 33.9234L60.5706 37.4153C60.0833 37.6659 59.5399 37.7877 58.9921 37.7692V37.7692Z" fill="url(#paint0_linear_681_20209)"/>
<path d="M26.5118 19.0452V48.9248C26.5118 49.3368 26.8149 49.7675 27.4001 50.1051L56.9383 67.1389C57.5658 67.4809 58.2704 67.6572 58.9854 67.651V37.7691C58.2715 37.7788 57.5669 37.6066 56.9383 37.2686L51.3636 34.0536L27.4001 20.2278C26.8149 19.8902 26.5118 19.4572 26.5118 19.0452Z" fill="url(#paint1_linear_681_20209)"/>
<path d="M28.9063 50.3822L53.6904 64.6713V57.571L28.9063 43.2842V50.3822Z" fill="#1651A4"/>
<path d="M28.9062 43.2842L14.1383 59.3449V61.1211L28.9062 50.3822V43.2842Z" fill="#15498D"/>
<path d="M14.1386 61.1212L38.9204 75.408V73.6341L14.1386 59.345V61.1212Z" fill="#124C92"/>
<path d="M53.6904 57.5708L38.9202 73.6338V75.4078L53.6904 64.6711V57.5708Z" fill="#2163B3"/>
<path d="M38.9202 73.634L53.6904 57.571L28.9063 43.2842L14.1384 59.3449L38.9202 73.634Z" fill="#307FE2"/>
<path d="M28.9063 41.3403L53.6904 55.6271V48.5268L28.9063 34.24V41.3403Z" fill="#1651A4"/>
<path d="M28.9062 34.24L14.1383 50.303V52.0769L28.9062 41.3403V34.24Z" fill="#15498D"/>
<g filter="url(#filter5_f_681_20209)">
<path d="M50.3369 57.0819L28.2707 44.3513L17.4919 57.3563L39.5581 70.0869L50.3369 57.0819Z" fill="#144C90"/>
</g>
<path d="M14.1386 52.0769L38.9204 66.3637V64.5898L14.1386 50.303V52.0769Z" fill="#124C92"/>
<path d="M53.6904 48.5269L38.9202 64.5899V66.3638L53.6904 55.6272V48.5269Z" fill="#2163B3"/>
<path d="M38.9202 64.5898L53.6904 48.5268L28.9063 34.24L14.1384 50.303L38.9202 64.5898Z" fill="#307FE2"/>
<path d="M28.9063 32.2961L53.6904 46.5829V39.4849L28.9063 25.1958V32.2961Z" fill="#1651A4"/>
<g filter="url(#filter6_f_681_20209)">
<path d="M50.3369 47.5494L28.2707 34.8188L17.4919 47.8239L39.5581 60.5544L50.3369 47.5494Z" fill="#144C90"/>
</g>
<path d="M28.9062 25.1958L14.1383 41.2588V43.0328L28.9062 32.2961V25.1958Z" fill="#15498D"/>
<path d="M14.1386 43.0327L38.9204 57.3195V55.5456L14.1386 41.2588V43.0327Z" fill="#124C92"/>
<path d="M53.6904 39.4849L38.9202 55.5456V57.3195L53.6904 46.5829V39.4849Z" fill="#2163B3"/>
<path d="M38.9202 55.5456L53.6904 39.4849L28.9063 25.1958L14.1384 41.2588L38.9202 55.5456Z" fill="#307FE2"/>
<path d="M125.805 54.0021L127.104 53.2525L121.939 50.2773L120.641 51.0246L125.805 54.0021Z" fill="#4F4F51"/>
<path d="M119.806 50.5286L121.104 49.779L115.94 46.8015L114.641 47.5511L119.806 50.5286Z" fill="#4F4F51"/>
<path d="M125.805 55.1846L127.104 54.435L121.939 51.4575L120.641 52.2071L125.805 55.1846Z" fill="#4F4F51"/>
<path d="M119.806 51.7112L121.104 50.9616L115.94 47.9841L114.641 48.7337L119.806 51.7112Z" fill="#4F4F51"/>
<path d="M125.805 56.3673L127.104 55.6177L121.939 52.6426L120.641 53.3899L125.805 56.3673Z" fill="#4F4F51"/>
<path d="M119.806 52.8938L121.104 52.1442L115.94 49.1667L114.641 49.9164L119.806 52.8938Z" fill="#4F4F51"/>
<path d="M125.805 57.5498L127.104 56.8002L121.939 53.8228L120.641 54.5724L125.805 57.5498Z" fill="#4F4F51"/>
<path d="M119.806 54.0765L121.104 53.3268L115.94 50.3494L114.641 51.099L119.806 54.0765Z" fill="#4F4F51"/>
<path d="M125.805 58.7326L127.104 57.983L121.939 55.0078L120.641 55.7551L125.805 58.7326Z" fill="#4F4F51"/>
<path d="M119.806 55.2591L121.104 54.5095L115.94 51.532L114.641 52.2816L119.806 55.2591Z" fill="#4F4F51"/>
<path d="M125.805 59.9151L127.104 59.1655L121.939 56.188L120.641 56.9376L125.805 59.9151Z" fill="#4F4F51"/>
<path d="M119.806 56.4417L121.104 55.6921L115.94 52.7146L114.641 53.4642L119.806 56.4417Z" fill="#4F4F51"/>
<path d="M125.805 61.0978L127.104 60.3482L121.939 57.373L120.641 58.1203L125.805 61.0978Z" fill="#4F4F51"/>
<path d="M119.806 57.6243L121.104 56.8747L115.94 53.8972L114.641 54.6468L119.806 57.6243Z" fill="#4F4F51"/>
<path d="M125.805 62.2803L127.104 61.5307L121.939 58.5532L120.641 59.3028L125.805 62.2803Z" fill="#4F4F51"/>
<path d="M119.806 58.8069L121.104 58.0573L115.94 55.0798L114.641 55.8294L119.806 58.8069Z" fill="#4F4F51"/>
<path d="M125.805 63.4628L127.104 62.7132L121.939 59.738L120.641 60.4853L125.805 63.4628Z" fill="#4F4F51"/>
<path d="M119.806 59.9895L121.104 59.2399L115.94 56.2625L114.641 57.0121L119.806 59.9895Z" fill="#4F4F51"/>
<path d="M125.805 64.6455L127.104 63.8959L121.939 60.9185L120.641 61.6681L125.805 64.6455Z" fill="#4F4F51"/>
<path d="M119.806 61.1722L121.104 60.4226L115.94 57.4451L114.641 58.1947L119.806 61.1722Z" fill="#4F4F51"/>
<path d="M125.805 65.828L127.104 65.0784L121.939 62.1033L120.641 62.8505L125.805 65.828Z" fill="#4F4F51"/>
<path d="M119.806 62.3548L121.104 61.6052L115.94 58.6277L114.641 59.3773L119.806 62.3548Z" fill="#4F4F51"/>
<path d="M125.805 67.0107L127.104 66.261L121.939 63.2859L120.641 64.0332L125.805 67.0107Z" fill="#4F4F51"/>
<path d="M119.806 63.5374L121.104 62.7878L115.94 59.8103L114.641 60.5599L119.806 63.5374Z" fill="#4F4F51"/>
<path d="M125.805 68.1934L127.104 67.4438L121.939 64.4663L120.641 65.2159L125.805 68.1934Z" fill="#4F4F51"/>
<path d="M119.806 64.72L121.104 63.9704L115.94 60.9929L114.641 61.7425L119.806 64.72Z" fill="#4F4F51"/>
<path d="M112.979 61.1652L125.97 68.6543V53.7716L112.979 46.2825V61.1652Z" fill="#58595B"/>
<path d="M110.244 62.8692L123.235 70.3583V55.4732L110.244 47.9841V62.8692Z" fill="#4F4F51"/>
<path d="M125.97 53.7715L123.235 55.4732V70.3583L125.97 68.6542V53.7715Z" fill="#757679"/>
<path d="M112.979 46.2825L110.244 47.9842L123.235 55.4733L125.97 53.7716L112.979 46.2825Z" fill="#8F9194"/>
<path d="M110.89 27.803L112.188 27.0534L107.024 24.0759L105.725 24.8255L110.89 27.803Z" fill="#4F4F51"/>
<path d="M104.891 24.3273L106.189 23.58L101.025 20.6025L99.7265 21.3521L104.891 24.3273Z" fill="#4F4F51"/>
<path d="M110.89 28.9856L112.188 28.236L107.024 25.2585L105.725 26.0082L110.89 28.9856Z" fill="#4F4F51"/>
<path d="M104.891 25.5099L106.189 24.7626L101.025 21.7852L99.7265 22.5348L104.891 25.5099Z" fill="#4F4F51"/>
<path d="M110.89 30.1683L112.188 29.4187L107.024 26.4412L105.725 27.1908L110.89 30.1683Z" fill="#4F4F51"/>
<path d="M104.891 26.6925L106.189 25.9453L101.025 22.9678L99.7265 23.7174L104.891 26.6925Z" fill="#4F4F51"/>
<path d="M110.89 31.3509L112.188 30.6013L107.024 27.6238L105.725 28.3734L110.89 31.3509Z" fill="#4F4F51"/>
<path d="M104.891 27.8752L106.189 27.1279L101.025 24.1504L99.7265 24.9L104.891 27.8752Z" fill="#4F4F51"/>
<path d="M110.89 32.5335L112.188 31.7839L107.024 28.8064L105.725 29.556L110.89 32.5335Z" fill="#4F4F51"/>
<path d="M104.891 29.0578L106.189 28.3105L101.025 25.333L99.7265 26.0826L104.891 29.0578Z" fill="#4F4F51"/>
<path d="M110.89 33.7161L112.188 32.9665L107.024 29.989L105.725 30.7386L110.89 33.7161Z" fill="#4F4F51"/>
<path d="M104.891 30.2404L106.189 29.4931L101.025 26.5156L99.7265 27.2652L104.891 30.2404Z" fill="#4F4F51"/>
<path d="M110.89 34.8987L112.188 34.1491L107.024 31.1716L105.725 31.9212L110.89 34.8987Z" fill="#4F4F51"/>
<path d="M104.891 31.423L106.189 30.6757L101.025 27.6982L99.7265 28.4479L104.891 31.423Z" fill="#4F4F51"/>
<path d="M110.89 36.0813L112.188 35.3317L107.024 32.3542L105.725 33.1039L110.89 36.0813Z" fill="#4F4F51"/>
<path d="M104.891 32.6056L106.189 31.8583L101.025 28.8809L99.7265 29.6305L104.891 32.6056Z" fill="#4F4F51"/>
<path d="M110.89 37.264L112.188 36.5143L107.024 33.5369L105.725 34.2865L110.89 37.264Z" fill="#4F4F51"/>
<path d="M104.891 33.7882L106.189 33.041L101.025 30.0635L99.7265 30.8131L104.891 33.7882Z" fill="#4F4F51"/>
<path d="M110.89 38.4466L112.188 37.697L107.024 34.7195L105.725 35.4691L110.89 38.4466Z" fill="#4F4F51"/>
<path d="M104.891 34.9709L106.189 34.2236L101.025 31.2461L99.7265 31.9957L104.891 34.9709Z" fill="#4F4F51"/>
<path d="M110.89 39.6292L112.188 38.8796L107.024 35.9021L105.725 36.6517L110.89 39.6292Z" fill="#4F4F51"/>
<path d="M104.891 36.1535L106.189 35.4062L101.025 32.4287L99.7265 33.1783L104.891 36.1535Z" fill="#4F4F51"/>
<path d="M110.89 40.8118L112.188 40.0622L107.024 37.0847L105.725 37.8343L110.89 40.8118Z" fill="#4F4F51"/>
<path d="M104.891 37.3361L106.189 36.5888L101.025 33.6113L99.7265 34.3609L104.891 37.3361Z" fill="#4F4F51"/>
<path d="M110.89 41.9944L112.188 41.2448L107.024 38.2673L105.725 39.0169L110.89 41.9944Z" fill="#4F4F51"/>
<path d="M104.891 38.5187L106.189 37.7714L101.025 34.7939L99.7265 35.5436L104.891 38.5187Z" fill="#4F4F51"/>
<path d="M98.0639 34.9661L111.055 42.4552V27.5702L98.0639 20.0811V34.9661Z" fill="#58595B"/>
<path d="M95.329 36.6702L108.32 44.1593V29.2743L95.329 21.7852V36.6702Z" fill="#4F4F51"/>
<path d="M111.055 27.5701L108.32 29.2741V44.1592L111.055 42.4552V27.5701Z" fill="#757679"/>
<path d="M98.0639 20.0811L95.329 21.7851L108.32 29.2742L111.055 27.5702L98.0639 20.0811Z" fill="#8F9194"/>
<path d="M125.805 36.2746L127.104 35.525L121.939 32.5498L120.641 33.2971L125.805 36.2746Z" fill="#4F4F51"/>
<path d="M119.806 32.8011L121.104 32.0515L115.94 29.074L114.641 29.8236L119.806 32.8011Z" fill="#4F4F51"/>
<path d="M125.805 37.4572L127.104 36.7076L121.939 33.7324L120.641 34.4797L125.805 37.4572Z" fill="#4F4F51"/>
<path d="M119.806 33.9837L121.104 33.2341L115.94 30.2566L114.641 31.0062L119.806 33.9837Z" fill="#4F4F51"/>
<path d="M125.805 38.6398L127.104 37.8902L121.939 34.915L120.641 35.6623L125.805 38.6398Z" fill="#4F4F51"/>
<path d="M119.806 35.1663L121.104 34.4167L115.94 31.4392L114.641 32.1888L119.806 35.1663Z" fill="#4F4F51"/>
<path d="M125.805 39.8224L127.104 39.0728L121.939 36.0977L120.641 36.8449L125.805 39.8224Z" fill="#4F4F51"/>
<path d="M119.806 36.3489L121.104 35.5993L115.94 32.6218L114.641 33.3714L119.806 36.3489Z" fill="#4F4F51"/>
<path d="M125.805 41.005L127.104 40.2554L121.939 37.2803L120.641 38.0276L125.805 41.005Z" fill="#4F4F51"/>
<path d="M119.806 37.5315L121.104 36.7819L115.94 33.8044L114.641 34.5541L119.806 37.5315Z" fill="#4F4F51"/>
<path d="M125.805 42.1877L127.104 41.438L121.939 38.4629L120.641 39.2102L125.805 42.1877Z" fill="#4F4F51"/>
<path d="M119.806 38.7142L121.104 37.9645L115.94 34.9871L114.641 35.7367L119.806 38.7142Z" fill="#4F4F51"/>
<path d="M125.805 43.3703L127.104 42.6207L121.939 39.6455L120.641 40.3928L125.805 43.3703Z" fill="#4F4F51"/>
<path d="M119.806 39.8968L121.104 39.1472L115.94 36.1697L114.641 36.9193L119.806 39.8968Z" fill="#4F4F51"/>
<path d="M125.805 44.5529L127.104 43.8033L121.939 40.8281L120.641 41.5754L125.805 44.5529Z" fill="#4F4F51"/>
<path d="M119.806 41.0794L121.104 40.3298L115.94 37.3523L114.641 38.1019L119.806 41.0794Z" fill="#4F4F51"/>
<path d="M125.805 45.7355L127.104 44.9859L121.939 42.0107L120.641 42.758L125.805 45.7355Z" fill="#4F4F51"/>
<path d="M119.806 42.262L121.104 41.5124L115.94 38.5349L114.641 39.2845L119.806 42.262Z" fill="#4F4F51"/>
<path d="M125.805 46.9181L127.104 46.1685L121.939 43.1934L120.641 43.9406L125.805 46.9181Z" fill="#4F4F51"/>
<path d="M119.806 43.4446L121.104 42.695L115.94 39.7175L114.641 40.4671L119.806 43.4446Z" fill="#4F4F51"/>
<path d="M125.805 48.1007L127.104 47.3511L121.939 44.376L120.641 45.1233L125.805 48.1007Z" fill="#4F4F51"/>
<path d="M119.806 44.6272L121.104 43.8776L115.94 40.9001L114.641 41.6498L119.806 44.6272Z" fill="#4F4F51"/>
<path d="M125.805 49.2834L127.104 48.5337L121.939 45.5586L120.641 46.3059L125.805 49.2834Z" fill="#4F4F51"/>
<path d="M119.806 45.8099L121.104 45.0602L115.94 42.0828L114.641 42.8324L119.806 45.8099Z" fill="#4F4F51"/>
<path d="M125.805 50.466L127.104 49.7164L121.939 46.7412L120.641 47.4885L125.805 50.466Z" fill="#4F4F51"/>
<path d="M119.806 46.9925L121.104 46.2429L115.94 43.2654L114.641 44.015L119.806 46.9925Z" fill="#4F4F51"/>
<path d="M112.979 43.4377L125.97 50.9268V36.0417L112.979 28.5549V43.4377Z" fill="#58595B"/>
<path d="M110.244 45.1417L123.235 52.6308V37.7457L110.244 30.2566V45.1417Z" fill="#4F4F51"/>
<path d="M125.97 36.0417L123.235 37.7458V52.6309L125.97 50.9268V36.0417Z" fill="#757679"/>
<path d="M112.979 28.5549L110.244 30.2567L123.235 37.7458L125.97 36.0417L112.979 28.5549Z" fill="#8F9194"/>
<path d="M61.0793 39.7898L85.0521 53.6064L90.6268 56.8237C91.2543 57.1657 91.959 57.342 92.6739 57.3358C93.2222 57.3513 93.7654 57.2272 94.2523 56.975L100.296 53.483L124.53 39.5151C124.949 39.2823 125.157 38.9471 125.157 38.6072C125.157 38.1952 124.856 37.7622 124.268 37.4246L94.7093 20.3955C93.6368 19.7762 92.0141 19.6971 91.0861 20.2441L60.8065 37.704C59.8902 38.2348 60.0068 39.1706 61.0793 39.7898Z" fill="#F1F2F2"/>
<path d="M92.6713 57.3335V87.2131C93.2171 87.2283 93.7578 87.1049 94.2428 86.8546L124.525 69.3948C124.947 69.162 125.152 68.8268 125.152 68.4869V38.6096C125.152 38.9495 124.947 39.2754 124.525 39.5175L100.293 53.4854L94.2474 56.9774C93.7608 57.2276 93.2184 57.3502 92.6713 57.3335Z" fill="url(#paint2_linear_681_20209)"/>
<path d="M60.1909 38.6096V68.4892C60.1909 68.8989 60.4917 69.3296 61.0793 69.6672L90.6267 86.701C91.254 87.0437 91.9588 87.22 92.6738 87.2131V57.3335C91.9588 57.3404 91.254 57.1641 90.6267 56.8214L85.0521 53.6064L61.0793 39.7899C60.4917 39.4523 60.1909 39.0193 60.1909 38.6096Z" fill="url(#paint3_linear_681_20209)"/>
<path d="M56.7261 68.1422L61.2959 70.7472V39.9132L56.6631 37.094L56.7261 68.1422Z" fill="#F1F2F2"/>
<path d="M61.2962 39.9131L94.8726 20.4629L90.3074 17.7019L56.6635 37.094L61.2962 39.9131Z" fill="#F8F8F9"/>
<path d="M62.3334 69.0198L87.1152 83.3066V76.2086L62.3334 61.9194V69.0198Z" fill="#1651A4"/>
<path d="M62.3335 61.9194L47.5633 77.9825V79.7564L62.3335 69.0198V61.9194Z" fill="#15498D"/>
<path d="M47.5635 79.7563L72.3477 94.0431V92.2692L47.5635 77.9824V79.7563Z" fill="#124C92"/>
<path d="M87.1152 76.2087L72.3473 92.2694V94.0434L87.1152 83.3067V76.2087Z" fill="#2163B3"/>
<path d="M72.3473 92.2693L87.1152 76.2086L62.3334 61.9194L47.5632 77.9825L72.3473 92.2693Z" fill="#307FE2"/>
<path d="M62.3334 59.9757L87.1152 74.2625V67.1645L62.3334 52.8777V59.9757Z" fill="#1651A4"/>
<path d="M62.3335 52.8777L47.5633 68.9384V70.7123L62.3335 59.9757V52.8777Z" fill="#15498D"/>
<path d="M47.5635 70.7124L72.3477 84.9992V83.2253L47.5635 68.9385V70.7124Z" fill="#124C92"/>
<g filter="url(#filter7_f_681_20209)">
<path d="M83.9717 76.3419L61.9055 63.6113L51.1267 76.6163L73.1929 89.3469L83.9717 76.3419Z" fill="#144C90"/>
</g>
<path d="M87.1152 67.1646L72.3473 83.2253V84.9992L87.1152 74.2626V67.1646Z" fill="#2163B3"/>
<path d="M72.3473 83.2252L87.1152 67.1645L62.3334 52.8777L47.5632 68.9384L72.3473 83.2252Z" fill="#307FE2"/>
<path d="M62.3334 50.9315L87.1152 65.2183V58.1203L62.3334 43.8335V50.9315Z" fill="#1651A4"/>
<g filter="url(#filter8_f_681_20209)">
<path d="M83.9717 66.8094L61.9055 54.0789L51.1267 67.0839L73.1929 79.8144L83.9717 66.8094Z" fill="#144C90"/>
</g>
<path d="M62.3335 43.8335L47.5633 59.8942V61.6681L62.3335 50.9315V43.8335Z" fill="#15498D"/>
<path d="M47.5635 61.6682L72.3477 75.9573V74.1811L47.5635 59.8943V61.6682Z" fill="#124C92"/>
<path d="M87.1152 58.1201L72.3473 74.1808V75.9571L87.1152 65.2181V58.1201Z" fill="#2163B3"/>
<path d="M72.3473 74.181L87.1152 58.1203L62.3334 43.8335L47.5632 59.8942L72.3473 74.181Z" fill="#307FE2"/>
<path d="M159.849 73.0938L161.148 72.3442L155.984 69.3667L154.685 70.1163L159.849 73.0938Z" fill="#4F4F51"/>
<path d="M153.85 69.6181L155.149 68.8708L149.985 65.8933L148.686 66.6406L153.85 69.6181Z" fill="#4F4F51"/>
<path d="M159.849 74.2741L161.148 73.5268L155.984 70.5493L154.685 71.2989L159.849 74.2741Z" fill="#4F4F51"/>
<path d="M153.85 70.8007L155.149 70.0534L149.985 67.0759L148.686 67.8232L153.85 70.8007Z" fill="#4F4F51"/>
<path d="M159.849 75.4567L161.148 74.7094L155.984 71.7319L154.685 72.4815L159.849 75.4567Z" fill="#4F4F51"/>
<path d="M153.85 71.9833L155.149 71.2337L149.985 68.2585L148.686 69.0058L153.85 71.9833Z" fill="#4F4F51"/>
<path d="M159.849 76.6416L161.148 75.892L155.984 72.9146L154.685 73.6642L159.849 76.6416Z" fill="#4F4F51"/>
<path d="M153.85 73.1659L155.149 72.4186L149.985 69.4412L148.686 70.1884L153.85 73.1659Z" fill="#4F4F51"/>
<path d="M159.849 77.8219L161.148 77.0747L155.984 74.0972L154.685 74.8468L159.849 77.8219Z" fill="#4F4F51"/>
<path d="M153.85 74.3485L155.149 73.6013L149.985 70.6238L148.686 71.3711L153.85 74.3485Z" fill="#4F4F51"/>
<path d="M159.849 79.0045L161.148 78.2573L155.984 75.2798L154.685 76.0294L159.849 79.0045Z" fill="#4F4F51"/>
<path d="M153.85 75.5312L155.149 74.7815L149.985 71.8064L148.686 72.5537L153.85 75.5312Z" fill="#4F4F51"/>
<path d="M159.849 80.1895L161.148 79.4399L155.984 76.4624L154.685 77.212L159.849 80.1895Z" fill="#4F4F51"/>
<path d="M153.85 76.7138L155.149 75.9642L149.985 72.989L148.686 73.7363L153.85 76.7138Z" fill="#4F4F51"/>
<path d="M159.849 81.3721L161.148 80.6225L155.984 77.645L154.685 78.3946L159.849 81.3721Z" fill="#4F4F51"/>
<path d="M153.85 77.8964L155.149 77.1491L149.985 74.1716L148.686 74.9189L153.85 77.8964Z" fill="#4F4F51"/>
<path d="M159.849 82.5524L161.148 81.8051L155.984 78.8276L154.685 79.5772L159.849 82.5524Z" fill="#4F4F51"/>
<path d="M153.85 79.079L155.149 78.3317L149.985 75.3542L148.686 76.1015L153.85 79.079Z" fill="#4F4F51"/>
<path d="M159.849 83.735L161.148 82.9877L155.984 80.0103L154.685 80.7599L159.849 83.735Z" fill="#4F4F51"/>
<path d="M153.85 80.2616L155.149 79.512L149.985 76.5369L148.686 77.2841L153.85 80.2616Z" fill="#4F4F51"/>
<path d="M159.849 84.92L161.148 84.1704L155.984 81.1929L154.685 81.9425L159.849 84.92Z" fill="#4F4F51"/>
<path d="M153.85 81.4442L155.149 80.6946L149.985 77.7195L148.686 78.4668L153.85 81.4442Z" fill="#4F4F51"/>
<path d="M159.849 86.1026L161.148 85.353L155.984 82.3755L154.685 83.1251L159.849 86.1026Z" fill="#4F4F51"/>
<path d="M153.85 82.6269L155.149 81.8796L149.985 78.9021L148.686 79.6494L153.85 82.6269Z" fill="#4F4F51"/>
<path d="M159.849 87.2829L161.148 86.5356L155.984 83.5581L154.685 84.3077L159.849 87.2829Z" fill="#4F4F51"/>
<path d="M153.85 83.8095L155.149 83.0599L149.985 80.0847L148.686 80.832L153.85 83.8095Z" fill="#4F4F51"/>
<path d="M147.026 80.2569L160.015 87.746V72.8609L147.026 65.3718V80.2569Z" fill="#58595B"/>
<path d="M144.291 81.9587L157.28 89.4478V74.565L144.291 67.0759V81.9587Z" fill="#4F4F51"/>
<path d="M160.015 72.8608L157.28 74.5649V89.4477L160.015 87.7459V72.8608Z" fill="#757679"/>
<path d="M147.026 65.3718L144.291 67.0759L157.28 74.565L160.015 72.8609L147.026 65.3718Z" fill="#8F9194"/>
<path d="M144.934 46.8925L146.233 46.1452L141.069 43.1677L139.77 43.9173L144.934 46.8925Z" fill="#4F4F51"/>
<path d="M138.935 43.4191L140.234 42.6695L135.07 39.6943L133.771 40.4416L138.935 43.4191Z" fill="#4F4F51"/>
<path d="M144.934 48.0751L146.233 47.3278L141.069 44.3503L139.77 45.1L144.934 48.0751Z" fill="#4F4F51"/>
<path d="M138.935 44.6016L140.234 43.852L135.07 40.8745L133.771 41.6241L138.935 44.6016Z" fill="#4F4F51"/>
<path d="M144.934 49.2577L146.233 48.5104L141.069 45.533L139.77 46.2826L144.934 49.2577Z" fill="#4F4F51"/>
<path d="M138.935 45.7843L140.234 45.0347L135.07 42.0596L133.771 42.8068L138.935 45.7843Z" fill="#4F4F51"/>
<path d="M144.934 50.4403L146.233 49.6931L141.069 46.7156L139.77 47.4652L144.934 50.4403Z" fill="#4F4F51"/>
<path d="M138.935 46.9668L140.234 46.2172L135.07 43.2397L133.771 43.9894L138.935 46.9668Z" fill="#4F4F51"/>
<path d="M144.934 51.6229L146.233 50.8757L141.069 47.8982L139.77 48.6478L144.934 51.6229Z" fill="#4F4F51"/>
<path d="M138.935 48.1495L140.234 47.3998L135.07 44.4224L133.771 45.172L138.935 48.1495Z" fill="#4F4F51"/>
<path d="M144.934 52.8056L146.233 52.0583L141.069 49.0808L139.77 49.8304L144.934 52.8056Z" fill="#4F4F51"/>
<path d="M138.935 49.3322L140.234 48.5826L135.07 45.6074L133.771 46.3547L138.935 49.3322Z" fill="#4F4F51"/>
<path d="M144.934 53.9882L146.233 53.2409L141.069 50.2634L139.77 51.013L144.934 53.9882Z" fill="#4F4F51"/>
<path d="M138.935 50.5147L140.234 49.7651L135.07 46.7876L133.771 47.5372L138.935 50.5147Z" fill="#4F4F51"/>
<path d="M144.934 55.1708L146.233 54.4235L141.069 51.446L139.77 52.1933L144.934 55.1708Z" fill="#4F4F51"/>
<path d="M138.935 51.6974L140.234 50.9478L135.07 47.9727L133.771 48.7199L138.935 51.6974Z" fill="#4F4F51"/>
<path d="M144.934 56.3534L146.233 55.6061L141.069 52.6287L139.77 53.3783L144.934 56.3534Z" fill="#4F4F51"/>
<path d="M138.935 52.8799L140.234 52.1303L135.07 49.1528L133.771 49.9024L138.935 52.8799Z" fill="#4F4F51"/>
<path d="M144.934 57.536L146.233 56.7888L141.069 53.8113L139.77 54.5586L144.934 57.536Z" fill="#4F4F51"/>
<path d="M138.935 54.0627L140.234 53.313L135.07 50.3379L133.771 51.0852L138.935 54.0627Z" fill="#4F4F51"/>
<path d="M144.934 58.7187L146.233 57.9714L141.069 54.9939L139.77 55.7435L144.934 58.7187Z" fill="#4F4F51"/>
<path d="M138.935 55.2452L140.234 54.4955L135.07 51.5181L133.771 52.2677L138.935 55.2452Z" fill="#4F4F51"/>
<path d="M144.934 59.901L146.233 59.1538L141.069 56.1763L139.77 56.9235L144.934 59.901Z" fill="#4F4F51"/>
<path d="M138.935 56.4279L140.234 55.6783L135.07 52.7031L133.771 53.4504L138.935 56.4279Z" fill="#4F4F51"/>
<path d="M144.934 61.0839L146.233 60.3366L141.069 57.3591L139.77 58.1087L144.934 61.0839Z" fill="#4F4F51"/>
<path d="M138.935 57.6105L140.234 56.8609L135.07 53.8857L133.771 54.633L138.935 57.6105Z" fill="#4F4F51"/>
<path d="M132.111 54.0579L145.1 61.5447V46.662L132.111 39.1729V54.0579Z" fill="#58595B"/>
<path d="M129.376 55.7596L142.365 63.2487V48.3636L129.376 40.8745V55.7596Z" fill="#4F4F51"/>
<path d="M145.1 46.6619L142.365 48.3636V63.2487L145.1 61.5446V46.6619Z" fill="#757679"/>
<path d="M132.111 39.1729L129.376 40.8746L142.365 48.3637L145.1 46.662L132.111 39.1729Z" fill="#8F9194"/>
<path d="M159.849 55.3665L161.148 54.6169L155.984 51.6394L154.685 52.389L159.849 55.3665Z" fill="#4F4F51"/>
<path d="M153.85 51.8908L155.149 51.1435L149.985 48.166L148.686 48.9133L153.85 51.8908Z" fill="#4F4F51"/>
<path d="M159.849 56.5491L161.148 55.7995L155.984 52.822L154.685 53.5716L159.849 56.5491Z" fill="#4F4F51"/>
<path d="M153.85 53.0734L155.149 52.3238L149.985 49.3486L148.686 50.0982L153.85 53.0734Z" fill="#4F4F51"/>
<path d="M159.849 57.7317L161.148 56.9821L155.984 54.0046L154.685 54.7542L159.849 57.7317Z" fill="#4F4F51"/>
<path d="M153.85 54.256L155.149 53.5087L149.985 50.5312L148.686 51.2785L153.85 54.256Z" fill="#4F4F51"/>
<path d="M159.849 58.9144L161.148 58.1647L155.984 55.1873L154.685 55.9369L159.849 58.9144Z" fill="#4F4F51"/>
<path d="M153.85 55.4386L155.149 54.689L149.985 51.7139L148.686 52.4635L153.85 55.4386Z" fill="#4F4F51"/>
<path d="M159.849 60.097L161.148 59.3474L155.984 56.3699L154.685 57.1195L159.849 60.097Z" fill="#4F4F51"/>
<path d="M153.85 56.6213L155.149 55.874L149.985 52.8965L148.686 53.6461L153.85 56.6213Z" fill="#4F4F51"/>
<path d="M159.849 61.2796L161.148 60.53L155.984 57.5525L154.685 58.3021L159.849 61.2796Z" fill="#4F4F51"/>
<path d="M153.85 57.8039L155.149 57.0543L149.985 54.0791L148.686 54.8264L153.85 57.8039Z" fill="#4F4F51"/>
<path d="M159.849 62.4622L161.148 61.7126L155.984 58.7351L154.685 59.4847L159.849 62.4622Z" fill="#4F4F51"/>
<path d="M153.85 58.9865L155.149 58.2392L149.985 55.2617L148.686 56.0113L153.85 58.9865Z" fill="#4F4F51"/>
<path d="M159.849 63.6448L161.148 62.8952L155.984 59.9177L154.685 60.6673L159.849 63.6448Z" fill="#4F4F51"/>
<path d="M153.85 60.1691L155.149 59.4195L149.985 56.4443L148.686 57.1916L153.85 60.1691Z" fill="#4F4F51"/>
<path d="M159.849 64.8274L161.148 64.0778L155.984 61.1003L154.685 61.8499L159.849 64.8274Z" fill="#4F4F51"/>
<path d="M153.85 61.3517L155.149 60.6044L149.985 57.627L148.686 58.3766L153.85 61.3517Z" fill="#4F4F51"/>
<path d="M159.849 66.0077L161.148 65.2604L155.984 62.283L154.685 63.0326L159.849 66.0077Z" fill="#4F4F51"/>
<path d="M153.85 62.5344L155.149 61.7871L149.985 58.8096L148.686 59.5569L153.85 62.5344Z" fill="#4F4F51"/>
<path d="M159.849 67.1903L161.148 66.443L155.984 63.4656L154.685 64.2152L159.849 67.1903Z" fill="#4F4F51"/>
<path d="M153.85 63.7169L155.149 62.9673L149.985 59.9922L148.686 60.7418L153.85 63.7169Z" fill="#4F4F51"/>
<path d="M159.849 68.3751L161.148 67.6254L155.984 64.6479L154.685 65.3976L159.849 68.3751Z" fill="#4F4F51"/>
<path d="M153.85 64.8996L155.149 64.15L149.985 61.1748L148.686 61.9221L153.85 64.8996Z" fill="#4F4F51"/>
<path d="M159.849 69.5577L161.148 68.808L155.984 65.8306L154.685 66.5802L159.849 69.5577Z" fill="#4F4F51"/>
<path d="M153.85 66.0822L155.149 65.3349L149.985 62.3574L148.686 63.107L153.85 66.0822Z" fill="#4F4F51"/>
<path d="M147.026 62.5296L160.015 70.0187V55.1336L147.026 47.6445V62.5296Z" fill="#58595B"/>
<path d="M144.291 64.2337L157.28 71.7205V56.8377L144.291 49.3486V64.2337Z" fill="#4F4F51"/>
<path d="M160.015 55.1335L157.28 56.8376V71.7204L160.015 70.0186V55.1335Z" fill="#757679"/>
<path d="M147.026 47.6445L144.291 49.3486L157.28 56.8377L160.015 55.1336L147.026 47.6445Z" fill="#8F9194"/>
<path d="M95.1238 59.112L119.099 72.9309L124.674 76.1458C125.301 76.4887 126.006 76.6651 126.721 76.658C127.268 76.6743 127.811 76.5501 128.297 76.2971L134.342 72.8052L158.574 58.8373C158.996 58.6045 159.201 58.2693 159.201 57.9294C159.201 57.5173 158.9 57.0867 158.313 56.7491L128.768 39.7176C127.693 39.0984 126.07 39.0309 125.142 39.5663L94.865 57.0261C93.9347 57.5569 94.0513 58.4951 95.1238 59.112Z" fill="#F1F2F2"/>
<path d="M126.716 76.6557V106.535C127.26 106.551 127.799 106.428 128.283 106.177L158.569 88.7169C158.991 88.4841 159.196 88.1489 159.196 87.809V57.9341C159.196 58.274 158.991 58.5999 158.569 58.842L134.338 72.8099L128.292 76.3018C127.806 76.5527 127.263 76.6745 126.716 76.6557V76.6557Z" fill="url(#paint4_linear_681_20209)"/>
<path d="M94.2424 57.9319V87.8115C94.2424 88.2235 94.5432 88.6542 95.1307 88.9918L124.671 106.023C125.299 106.365 126.003 106.542 126.718 106.535V76.6558C126.003 76.662 125.299 76.4857 124.671 76.1436L119.099 72.931L95.1237 59.1122C94.5362 58.7746 94.2424 58.3439 94.2424 57.9319Z" fill="url(#paint5_linear_681_20209)"/>
<path d="M128.749 103.434L129.314 103.832C129.509 103.972 129.759 103.86 130.076 103.677L135.303 100.685C136.271 100.115 136.434 100.017 136.434 98.9344V79.4865C136.434 79.1909 136.495 78.4669 135.956 78.4669C135.771 78.4584 135.586 78.4853 135.41 78.546C135.558 78.7155 135.675 78.9093 135.756 79.1187C135.769 79.1869 135.775 79.2563 135.774 79.3259V98.4013C135.774 99.4163 135.569 99.5956 134.725 100.11L129.915 102.939L129.449 103.22C129.339 103.284 129.221 103.334 129.099 103.369C128.929 103.411 128.88 103.509 128.749 103.434Z" fill="#E6E7E8"/>
<path d="M129.113 103.418L135.298 99.8541C135.455 99.7415 135.583 99.5937 135.673 99.4228C135.762 99.2518 135.811 99.0622 135.813 98.8693V78.9814C135.813 78.602 135.58 78.4274 135.298 78.5927L129.113 82.1591C128.956 82.2711 128.827 82.4183 128.738 82.589C128.648 82.7596 128.6 82.9489 128.597 83.1415V103.029C128.597 103.409 128.828 103.583 129.113 103.418Z" fill="url(#paint6_linear_681_20209)"/>
<path d="M129.02 81.0673L135.394 77.3937C135.479 77.3379 135.549 77.2632 135.6 77.1755C135.65 77.0878 135.68 76.9896 135.686 76.8886V74.3906C135.686 74.2067 135.553 74.1299 135.394 74.223L129.02 77.8989C128.935 77.9538 128.864 78.028 128.814 78.1154C128.763 78.2028 128.734 78.3009 128.728 78.4017V80.8997C128.728 81.0836 128.859 81.1604 129.02 81.0673Z" fill="#A7A9AC"/>
<path d="M135.179 77.1621C135.131 77.1342 135.132 77.0441 135.18 76.9608C135.229 76.8775 135.307 76.8327 135.355 76.8606C135.403 76.8885 135.402 76.9786 135.354 77.0619C135.305 77.1452 135.227 77.19 135.179 77.1621Z" fill="#939598"/>
<path d="M133.638 78.0474C133.59 78.0195 133.591 77.9293 133.639 77.846C133.688 77.7628 133.766 77.7179 133.814 77.7458C133.862 77.7738 133.861 77.8639 133.813 77.9472C133.764 78.0304 133.686 78.0753 133.638 78.0474Z" fill="#939598"/>
<path d="M132.096 78.9373C132.048 78.9093 132.049 78.8192 132.097 78.7359C132.146 78.6527 132.224 78.6078 132.272 78.6357C132.32 78.6636 132.319 78.7538 132.271 78.837C132.222 78.9203 132.144 78.9652 132.096 78.9373Z" fill="#939598"/>
<path d="M131.429 79.9261C131.382 79.8984 131.382 79.8088 131.43 79.7258C131.479 79.6429 131.556 79.598 131.604 79.6257C131.652 79.6534 131.651 79.743 131.603 79.826C131.555 79.9089 131.477 79.9537 131.429 79.9261Z" fill="#939598"/>
<path d="M129.017 80.7134C128.969 80.6855 128.97 80.5953 129.019 80.5121C129.068 80.4288 129.146 80.3839 129.194 80.4118C129.241 80.4398 129.241 80.5299 129.192 80.6132C129.143 80.6964 129.065 80.7413 129.017 80.7134Z" fill="#939598"/>
<path d="M135.18 74.9685C135.132 74.9406 135.133 74.8505 135.181 74.7672C135.23 74.6839 135.308 74.639 135.356 74.667C135.404 74.6949 135.403 74.785 135.355 74.8683C135.306 74.9516 135.228 74.9964 135.18 74.9685Z" fill="#939598"/>
<path d="M134.484 75.9581C134.436 75.9304 134.437 75.8407 134.485 75.7578C134.533 75.6748 134.611 75.63 134.659 75.6577C134.706 75.6853 134.706 75.775 134.658 75.858C134.609 75.9409 134.532 75.9857 134.484 75.9581Z" fill="#939598"/>
<path d="M132.097 76.7437C132.049 76.7157 132.05 76.6256 132.098 76.5423C132.147 76.4591 132.225 76.4142 132.273 76.4421C132.321 76.47 132.32 76.5602 132.272 76.6434C132.223 76.7267 132.145 76.7716 132.097 76.7437Z" fill="#939598"/>
<path d="M130.555 77.6333C130.507 77.6054 130.508 77.5153 130.556 77.432C130.605 77.3487 130.683 77.3038 130.731 77.3318C130.779 77.3597 130.778 77.4498 130.73 77.5331C130.681 77.6164 130.603 77.6612 130.555 77.6333Z" fill="#939598"/>
<path d="M129.018 78.5222C128.97 78.4943 128.971 78.4042 129.02 78.3209C129.069 78.2376 129.147 78.1928 129.195 78.2207C129.242 78.2486 129.242 78.3387 129.193 78.422C129.144 78.5053 129.066 78.5501 129.018 78.5222Z" fill="#939598"/>
<path d="M146.294 84.4357C146.27 84.2915 146.213 84.1548 146.128 84.0361C146.043 83.9174 145.931 83.8199 145.802 83.7513L137.096 78.7322L136.928 78.6344C136.746 78.5296 136.585 78.5227 136.504 78.5971L137.299 78.1851C137.474 78.0943 137.851 78.369 138.038 78.4761L146.296 83.1833C146.425 83.253 146.536 83.351 146.62 83.4701C146.705 83.5891 146.762 83.7259 146.786 83.87L146.301 84.4381" fill="#4F89C8"/>
<path d="M146.294 84.4335V105.034C146.295 105.074 146.285 105.114 146.266 105.15L146.702 104.636C146.733 104.602 146.756 104.562 146.769 104.519C146.782 104.475 146.785 104.429 146.777 104.384V83.8655L146.292 84.4335" fill="#315B90"/>
<path d="M136.443 78.7532V99.3512C136.466 99.4975 136.522 99.6366 136.607 99.7577C136.693 99.8788 136.805 99.9787 136.935 100.05L145.809 105.171C146.021 105.294 146.205 105.29 146.275 105.171C146.295 105.135 146.304 105.095 146.303 105.055V84.4358C146.279 84.2916 146.223 84.1549 146.137 84.0362C146.052 83.9174 145.94 83.82 145.811 83.7514L137.105 78.7323L136.937 78.6345C136.756 78.5297 136.595 78.5227 136.513 78.5972L136.492 78.6182C136.462 78.6569 136.445 78.7042 136.443 78.7532Z" fill="#2A7DE1"/>
<path d="M90.384 87.2806L94.9538 89.8879L95.124 59.112L90.384 56.6816V87.2806Z" fill="#F1F2F2"/>
<path d="M97.3877 88.8216L122.172 103.111V96.0104L97.3877 81.7236V88.8216Z" fill="#1651A4"/>
<path d="M97.3877 81.7236L82.6198 97.7843V99.5606L97.3877 88.8216V81.7236Z" fill="#15498D"/>
<path d="M82.6197 99.5607L107.404 113.847V112.074L82.6197 97.7844V99.5607Z" fill="#124C92"/>
<path d="M122.172 96.0105L107.404 112.074V113.847L122.172 103.111V96.0105Z" fill="#2163B3"/>
<path d="M107.404 112.073L122.172 96.0104L97.3877 81.7236L82.6198 97.7843L107.404 112.073Z" fill="#307FE2"/>
<g filter="url(#filter9_f_681_20209)">
<path d="M119.474 95.6158L97.4079 82.8853L86.6291 95.8903L108.695 108.621L119.474 95.6158Z" fill="#144C90"/>
</g>
<path d="M97.3877 79.7798L122.172 94.0666V86.9662L97.3877 72.6794V79.7798Z" fill="#1651A4"/>
<path d="M97.3877 72.6794L82.6198 88.7425V90.5164L97.3877 79.7798V72.6794Z" fill="#15498D"/>
<path d="M82.6197 90.5163L107.404 104.803V103.029L82.6197 88.7424V90.5163Z" fill="#124C92"/>
<path d="M122.172 86.9663L107.404 103.029V104.803L122.172 94.0666V86.9663Z" fill="#2163B3"/>
<path d="M107.404 103.029L122.172 86.9662L97.3877 72.6794L82.6198 88.7425L107.404 103.029Z" fill="#307FE2"/>
<path d="M97.3877 70.7356L122.172 85.0224V77.922L97.3877 63.6353V70.7356Z" fill="#1651A4"/>
<path d="M97.3877 63.6353L82.6198 79.6983V81.4722L97.3877 70.7356V63.6353Z" fill="#15498D"/>
<g filter="url(#filter10_f_681_20209)">
<path d="M119.474 86.0833L97.4079 73.3528L86.6291 86.3578L108.695 99.0884L119.474 86.0833Z" fill="#144C90"/>
</g>
<path d="M82.6197 81.4722L107.404 95.759V93.9851L82.6197 79.6982V81.4722Z" fill="#124C92"/>
<path d="M122.172 77.9221L107.404 93.9852V95.7591L122.172 85.0225V77.9221Z" fill="#2163B3"/>
<path d="M107.404 93.9851L122.172 77.9221L97.3877 63.6353L82.6198 79.6983L107.404 93.9851Z" fill="#307FE2"/>
<path d="M95.1236 59.112L128.53 39.6013L123.738 37.1196L90.3836 56.6816L95.1236 59.112Z" fill="#F8F8F9"/>
<defs>
<filter id="filter0_f_681_20209" x="0.855957" y="5.8374" width="186.061" height="125.611" filterUnits="userSpaceOnUse" color-interpolation-filters="sRGB">
<feFlood flood-opacity="0" result="BackgroundImageFix"/>
<feBlend mode="normal" in="SourceGraphic" in2="BackgroundImageFix" result="shape"/>
<feGaussianBlur stdDeviation="11" result="effect1_foregroundBlur_681_20209"/>
</filter>
<filter id="filter1_f_681_20209" x="69.3101" y="78.2236" width="67.2925" height="49.2817" filterUnits="userSpaceOnUse" color-interpolation-filters="sRGB">
<feFlood flood-opacity="0" result="BackgroundImageFix"/>
<feBlend mode="normal" in="SourceGraphic" in2="BackgroundImageFix" result="shape"/>
<feGaussianBlur stdDeviation="6" result="effect1_foregroundBlur_681_20209"/>
</filter>
<filter id="filter2_f_681_20209" x="35.8145" y="58.4155" width="67.2925" height="49.2817" filterUnits="userSpaceOnUse" color-interpolation-filters="sRGB">
<feFlood flood-opacity="0" result="BackgroundImageFix"/>
<feBlend mode="normal" in="SourceGraphic" in2="BackgroundImageFix" result="shape"/>
<feGaussianBlur stdDeviation="6" result="effect1_foregroundBlur_681_20209"/>
</filter>
<filter id="filter3_f_681_20209" x="2.14014" y="39.8906" width="67.2925" height="49.2817" filterUnits="userSpaceOnUse" color-interpolation-filters="sRGB">
<feFlood flood-opacity="0" result="BackgroundImageFix"/>
<feBlend mode="normal" in="SourceGraphic" in2="BackgroundImageFix" result="shape"/>
<feGaussianBlur stdDeviation="6" result="effect1_foregroundBlur_681_20209"/>
</filter>
<filter id="filter4_f_681_20209" x="15.1348" y="21.2588" width="151.704" height="91.3469" filterUnits="userSpaceOnUse" color-interpolation-filters="sRGB">
<feFlood flood-opacity="0" result="BackgroundImageFix"/>
<feBlend mode="normal" in="SourceGraphic" in2="BackgroundImageFix" result="shape"/>
<feGaussianBlur stdDeviation="3" result="effect1_foregroundBlur_681_20209"/>
</filter>
<filter id="filter5_f_681_20209" x="5.4917" y="32.3513" width="56.8452" height="49.7356" filterUnits="userSpaceOnUse" color-interpolation-filters="sRGB">
<feFlood flood-opacity="0" result="BackgroundImageFix"/>
<feBlend mode="normal" in="SourceGraphic" in2="BackgroundImageFix" result="shape"/>
<feGaussianBlur stdDeviation="6" result="effect1_foregroundBlur_681_20209"/>
</filter>
<filter id="filter6_f_681_20209" x="5.4917" y="22.8188" width="56.8452" height="49.7356" filterUnits="userSpaceOnUse" color-interpolation-filters="sRGB">
<feFlood flood-opacity="0" result="BackgroundImageFix"/>
<feBlend mode="normal" in="SourceGraphic" in2="BackgroundImageFix" result="shape"/>
<feGaussianBlur stdDeviation="6" result="effect1_foregroundBlur_681_20209"/>
</filter>
<filter id="filter7_f_681_20209" x="39.1265" y="51.6113" width="56.8452" height="49.7356" filterUnits="userSpaceOnUse" color-interpolation-filters="sRGB">
<feFlood flood-opacity="0" result="BackgroundImageFix"/>
<feBlend mode="normal" in="SourceGraphic" in2="BackgroundImageFix" result="shape"/>
<feGaussianBlur stdDeviation="6" result="effect1_foregroundBlur_681_20209"/>
</filter>
<filter id="filter8_f_681_20209" x="39.1265" y="42.0789" width="56.8452" height="49.7356" filterUnits="userSpaceOnUse" color-interpolation-filters="sRGB">
<feFlood flood-opacity="0" result="BackgroundImageFix"/>
<feBlend mode="normal" in="SourceGraphic" in2="BackgroundImageFix" result="shape"/>
<feGaussianBlur stdDeviation="6" result="effect1_foregroundBlur_681_20209"/>
</filter>
<filter id="filter9_f_681_20209" x="74.6289" y="70.8853" width="56.8452" height="49.7356" filterUnits="userSpaceOnUse" color-interpolation-filters="sRGB">
<feFlood flood-opacity="0" result="BackgroundImageFix"/>
<feBlend mode="normal" in="SourceGraphic" in2="BackgroundImageFix" result="shape"/>
<feGaussianBlur stdDeviation="6" result="effect1_foregroundBlur_681_20209"/>
</filter>
<filter id="filter10_f_681_20209" x="74.6289" y="61.3528" width="56.8452" height="49.7356" filterUnits="userSpaceOnUse" color-interpolation-filters="sRGB">
<feFlood flood-opacity="0" result="BackgroundImageFix"/>
<feBlend mode="normal" in="SourceGraphic" in2="BackgroundImageFix" result="shape"/>
<feGaussianBlur stdDeviation="6" result="effect1_foregroundBlur_681_20209"/>
</filter>
<linearGradient id="paint0_linear_681_20209" x1="69.0154" y1="30.8039" x2="85.752" y2="64.673" gradientUnits="userSpaceOnUse">
<stop stop-color="#D1D3D4"/>
<stop offset="0.94" stop-color="#BCBEC0"/>
</linearGradient>
<linearGradient id="paint1_linear_681_20209" x1="46.9966" y1="25.3936" x2="38.3321" y2="62.1699" gradientUnits="userSpaceOnUse">
<stop offset="0.42" stop-color="#D1D3D4"/>
<stop offset="1" stop-color="#BCBEC0"/>
</linearGradient>
<linearGradient id="paint2_linear_681_20209" x1="-18056.2" y1="17743.9" x2="-13848.3" y2="23425.1" gradientUnits="userSpaceOnUse">
<stop stop-color="#D1D3D4"/>
<stop offset="0.94" stop-color="#BCBEC0"/>
</linearGradient>
<linearGradient id="paint3_linear_681_20209" x1="-21157.3" y1="16613.9" x2="-23701.5" y2="23819.5" gradientUnits="userSpaceOnUse">
<stop offset="0.42" stop-color="#D1D3D4"/>
<stop offset="1" stop-color="#BCBEC0"/>
</linearGradient>
<linearGradient id="paint4_linear_681_20209" x1="-13279" y1="21796.4" x2="-9071.32" y2="27478.1" gradientUnits="userSpaceOnUse">
<stop stop-color="#D1D3D4"/>
<stop offset="0.94" stop-color="#BCBEC0"/>
</linearGradient>
<linearGradient id="paint5_linear_681_20209" x1="-16376.5" y1="20667.3" x2="-18921.2" y2="27873.1" gradientUnits="userSpaceOnUse">
<stop offset="0.42" stop-color="#D1D3D4"/>
<stop offset="1" stop-color="#BCBEC0"/>
</linearGradient>
<linearGradient id="paint6_linear_681_20209" x1="119.325" y1="103.05" x2="134.875" y2="88.4652" gradientUnits="userSpaceOnUse">
<stop stop-color="#BCBEC0"/>
<stop offset="1" stop-color="#6D6E71"/>
</linearGradient>
</defs>
</svg>
