<svg width="397" height="259" viewBox="0 0 397 259" fill="none" xmlns="http://www.w3.org/2000/svg">
<g filter="url(#filter0_f_681_21090)">
<path d="M30.2083 66.9012L315.158 230.766L323.465 235.559C324.4 236.069 325.45 236.332 326.516 236.322C327.332 236.345 328.141 236.16 328.866 235.784L337.874 230.578L373.984 209.754C374.612 209.393 374.919 208.907 374.919 208.4C374.919 207.787 374.47 207.142 373.596 206.639L80.3538 37.9788C78.7532 37.0562 76.3364 36.9549 74.9529 37.7532L29.832 63.7833C28.437 64.5874 28.6106 65.9785 30.2083 66.9012Z" fill="#EAEAEA"/>
</g>
<g filter="url(#filter1_f_681_21090)">
<path d="M29.9213 66.3221L316.439 229.912L323.903 234.218C324.743 234.677 325.687 234.913 326.644 234.904C327.378 234.925 328.105 234.758 328.756 234.42L336.849 229.743L369.295 211.032C369.86 210.707 370.135 210.27 370.135 209.815C370.135 209.265 369.732 208.685 368.947 208.233L74.9778 40.3349C73.5397 39.5059 71.3681 39.4149 70.125 40.1321L29.5832 63.5207C28.3297 64.2432 28.4857 65.4931 29.9213 66.3221Z" fill="#888888"/>
</g>
<g filter="url(#filter2_f_681_21090)">
<path d="M281.072 205.924L247.525 188.594L226.213 201.461L259.76 220.63L281.072 205.924Z" fill="#BBBBBB"/>
</g>
<g filter="url(#filter3_f_681_21090)">
<path d="M324.458 231.643L290.912 214.313L269.599 227.18L303.147 246.349L324.458 231.643Z" fill="#BBBBBB"/>
</g>
<g filter="url(#filter4_f_681_21090)">
<path d="M238.627 180.824L205.081 163.494L183.768 176.361L217.316 195.53L238.627 180.824Z" fill="#BBBBBB"/>
</g>
<g filter="url(#filter5_f_681_21090)">
<path d="M152.141 131.248L118.595 113.917L97.2823 126.784L130.83 145.953L152.141 131.248Z" fill="#BBBBBB"/>
</g>
<g filter="url(#filter6_f_681_21090)">
<path d="M109.672 107.666L76.1255 90.3359L54.8131 103.203L88.3605 122.372L109.672 107.666Z" fill="#BBBBBB"/>
</g>
<g filter="url(#filter7_f_681_21090)">
<path d="M67.4648 83.7451L33.9185 66.4146L12.606 79.2816L46.1534 98.4509L67.4648 83.7451Z" fill="#BBBBBB"/>
</g>
<path d="M44.4733 18.4406C44.443 18.2576 44.371 18.084 44.2629 17.9331C44.1549 17.7822 44.0136 17.6581 43.8499 17.5704L32.8181 11.2132L32.6053 11.0893C32.3749 10.9595 32.171 10.9477 32.0647 11.0451L33.0751 10.5229C33.2937 10.4079 33.7753 10.756 34.0117 10.8917L44.4733 16.8565C44.6369 16.9442 44.7782 17.0683 44.8863 17.2192C44.9944 17.3701 45.0664 17.5437 45.0967 17.7267L44.4822 18.4465" fill="#4F89C8"/>
<path d="M44.4737 18.4376V44.5386C44.4755 44.591 44.4632 44.643 44.4382 44.6891L44.9936 44.0342C45.0325 43.9922 45.0611 43.942 45.0775 43.8873C45.0939 43.8326 45.0976 43.7749 45.0882 43.7185V17.7178L44.4737 18.4376Z" fill="#315B90"/>
<path d="M31.9792 11.2398V37.3408C32.0111 37.5237 32.084 37.6969 32.1925 37.8476C32.301 37.9983 32.4422 38.1226 32.6056 38.2111L43.8501 44.7009C44.119 44.8573 44.3494 44.8484 44.441 44.7009C44.4655 44.6557 44.4777 44.6048 44.4765 44.5534V18.4406C44.4462 18.2576 44.3742 18.0839 44.2661 17.9331C44.1581 17.7822 44.0167 17.6581 43.8531 17.5703L32.8212 11.2132L32.6085 11.0893C32.3781 10.9595 32.1742 10.9477 32.0679 11.0451L32.0442 11.0716C32.0055 11.1195 31.9828 11.1783 31.9792 11.2398Z" fill="#2A7DE1"/>
<path d="M112.299 44.0402L113.944 43.0904L107.4 39.3174L105.755 40.2673L112.299 44.0402Z" fill="#4F4F51"/>
<path d="M104.697 39.6362L106.342 38.6892L99.7982 34.9163L98.1526 35.8661L104.697 39.6362Z" fill="#4F4F51"/>
<path d="M112.299 45.5388L113.944 44.5889L107.4 40.8159L105.755 41.7658L112.299 45.5388Z" fill="#4F4F51"/>
<path d="M104.697 41.1347L106.342 40.1878L99.7982 36.4148L98.1526 37.3647L104.697 41.1347Z" fill="#4F4F51"/>
<path d="M112.299 47.0375L113.944 46.0877L107.4 42.3147L105.755 43.2646L112.299 47.0375Z" fill="#4F4F51"/>
<path d="M104.697 42.6332L106.342 41.6863L99.7982 37.9133L98.1526 38.8632L104.697 42.6332Z" fill="#4F4F51"/>
<path d="M112.299 48.5361L113.944 47.5862L107.4 43.8132L105.755 44.7631L112.299 48.5361Z" fill="#4F4F51"/>
<path d="M104.697 44.1318L106.342 43.1848L99.7982 39.4119L98.1526 40.3617L104.697 44.1318Z" fill="#4F4F51"/>
<path d="M112.299 50.0346L113.944 49.0847L107.4 45.3118L105.755 46.2616L112.299 50.0346Z" fill="#4F4F51"/>
<path d="M104.697 45.6303L106.342 44.6834L99.7982 40.9104L98.1526 41.8573L104.697 45.6303Z" fill="#4F4F51"/>
<path d="M112.299 51.5332L113.944 50.5833L107.4 46.8103L105.755 47.7602L112.299 51.5332Z" fill="#4F4F51"/>
<path d="M104.697 47.1288L106.342 46.1819L99.7982 42.4089L98.1526 43.3588L104.697 47.1288Z" fill="#4F4F51"/>
<path d="M112.299 53.0317L113.944 52.0818L107.4 48.3088L105.755 49.2587L112.299 53.0317Z" fill="#4F4F51"/>
<path d="M104.697 48.6274L106.342 47.6804L99.7982 43.9075L98.1526 44.8544L104.697 48.6274Z" fill="#4F4F51"/>
<path d="M112.299 54.5302L113.944 53.5804L107.4 49.8074L105.755 50.7573L112.299 54.5302Z" fill="#4F4F51"/>
<path d="M104.697 50.1261L106.342 49.1792L99.7982 45.4062L98.1526 46.3561L104.697 50.1261Z" fill="#4F4F51"/>
<path d="M112.299 56.0288L113.944 55.0789L107.4 51.3059L105.755 52.2558L112.299 56.0288Z" fill="#4F4F51"/>
<path d="M104.697 51.6247L106.342 50.6778L99.7982 46.9048L98.1526 47.8517L104.697 51.6247Z" fill="#4F4F51"/>
<path d="M112.299 57.5275L113.944 56.5777L107.4 52.8047L105.755 53.7546L112.299 57.5275Z" fill="#4F4F51"/>
<path d="M104.697 53.1232L106.342 52.1763L99.7982 48.4033L98.1526 49.3532L104.697 53.1232Z" fill="#4F4F51"/>
<path d="M112.299 59.0261L113.944 58.0762L107.4 54.3032L105.755 55.2531L112.299 59.0261Z" fill="#4F4F51"/>
<path d="M104.697 54.6218L106.342 53.6748L99.7982 49.9019L98.1526 50.8488L104.697 54.6218Z" fill="#4F4F51"/>
<path d="M112.299 60.5246L113.944 59.5747L107.4 55.8018L105.755 56.7516L112.299 60.5246Z" fill="#4F4F51"/>
<path d="M104.697 56.1203L106.342 55.1733L99.7982 51.4004L98.1526 52.3503L104.697 56.1203Z" fill="#4F4F51"/>
<path d="M112.299 62.0232L113.944 61.0733L107.4 57.3003L105.755 58.2502L112.299 62.0232Z" fill="#4F4F51"/>
<path d="M104.697 57.6188L106.342 56.6719L99.7982 52.8989L98.1526 53.8488L104.697 57.6188Z" fill="#4F4F51"/>
<path d="M96.0491 53.1173L112.511 62.6072V43.7453L96.0491 34.2554V53.1173Z" fill="#58595B"/>
<path d="M92.5837 55.2738L109.046 64.7637V45.9048L92.5837 36.4148V55.2738Z" fill="#4F4F51"/>
<path d="M112.511 43.7454L109.046 45.9047V64.7637L112.511 62.6073V43.7454Z" fill="#757679"/>
<path d="M96.0491 34.2554L92.5835 36.4147L109.046 45.9047L112.511 43.7453L96.0491 34.2554Z" fill="#8F9194"/>
<path d="M93.3988 10.8386L95.0444 9.89163L88.5004 6.11865L86.8548 7.06853L93.3988 10.8386Z" fill="#4F4F51"/>
<path d="M85.7972 6.43743L87.4429 5.48755L80.8988 1.71753L79.2531 2.66446L85.7972 6.43743Z" fill="#4F4F51"/>
<path d="M93.3988 12.3371L95.0444 11.3902L88.5004 7.61719L86.8548 8.56707L93.3988 12.3371Z" fill="#4F4F51"/>
<path d="M85.7972 7.93597L87.4429 6.98609L80.8988 3.21606L79.2531 4.16299L85.7972 7.93597Z" fill="#4F4F51"/>
<path d="M93.3988 13.8359L95.0444 12.8889L88.5004 9.11597L86.8548 10.0658L93.3988 13.8359Z" fill="#4F4F51"/>
<path d="M85.7972 9.4345L87.4429 8.48462L80.8988 4.7146L79.2531 5.66153L85.7972 9.4345Z" fill="#4F4F51"/>
<path d="M93.3988 15.3344L95.0444 14.3875L88.5004 10.6145L86.8548 11.5644L93.3988 15.3344Z" fill="#4F4F51"/>
<path d="M85.7972 10.933L87.4429 9.98316L80.8988 6.21313L79.2531 7.16007L85.7972 10.933Z" fill="#4F4F51"/>
<path d="M93.3988 16.8329L95.0444 15.886L88.5004 12.113L86.8548 13.0629L93.3988 16.8329Z" fill="#4F4F51"/>
<path d="M85.7972 12.4316L87.4429 11.4817L80.8988 7.71167L79.2531 8.6586L85.7972 12.4316Z" fill="#4F4F51"/>
<path d="M93.3988 18.3315L95.0444 17.3845L88.5004 13.6116L86.8548 14.5615L93.3988 18.3315Z" fill="#4F4F51"/>
<path d="M85.7972 13.9301L87.4429 12.9802L80.8988 9.21021L79.2531 10.1571L85.7972 13.9301Z" fill="#4F4F51"/>
<path d="M93.3988 19.83L95.0444 18.8831L88.5004 15.1101L86.8548 16.06L93.3988 19.83Z" fill="#4F4F51"/>
<path d="M85.7972 15.4286L87.4429 14.4788L80.8988 10.7087L79.2531 11.6557L85.7972 15.4286Z" fill="#4F4F51"/>
<path d="M93.3988 21.3285L95.0444 20.3816L88.5004 16.6086L86.8548 17.5585L93.3988 21.3285Z" fill="#4F4F51"/>
<path d="M85.7972 16.9274L87.4429 15.9775L80.8988 12.2075L79.2531 13.1545L85.7972 16.9274Z" fill="#4F4F51"/>
<path d="M93.3988 22.8271L95.0444 21.8801L88.5004 18.1072L86.8548 19.0571L93.3988 22.8271Z" fill="#4F4F51"/>
<path d="M85.7972 18.426L87.4429 17.4761L80.8988 13.7061L79.2531 14.653L85.7972 18.426Z" fill="#4F4F51"/>
<path d="M93.3988 24.3259L95.0444 23.3789L88.5004 19.606L86.8548 20.5558L93.3988 24.3259Z" fill="#4F4F51"/>
<path d="M85.7972 19.9245L87.4429 18.9746L80.8988 15.2046L79.2531 16.1515L85.7972 19.9245Z" fill="#4F4F51"/>
<path d="M93.3988 25.8244L95.0444 24.8775L88.5004 21.1045L86.8548 22.0544L93.3988 25.8244Z" fill="#4F4F51"/>
<path d="M85.7972 21.423L87.4429 20.4731L80.8988 16.7031L79.2531 17.6501L85.7972 21.423Z" fill="#4F4F51"/>
<path d="M93.3988 27.3229L95.0444 26.376L88.5004 22.603L86.8548 23.5529L93.3988 27.3229Z" fill="#4F4F51"/>
<path d="M85.7972 22.9216L87.4429 21.9717L80.8988 18.2017L79.2531 19.1486L85.7972 22.9216Z" fill="#4F4F51"/>
<path d="M93.3988 28.8215L95.0444 27.8745L88.5004 24.1016L86.8548 25.0514L93.3988 28.8215Z" fill="#4F4F51"/>
<path d="M85.7972 24.4201L87.4429 23.4702L80.8988 19.7002L79.2531 20.6471L85.7972 24.4201Z" fill="#4F4F51"/>
<path d="M77.1496 19.9185L93.6118 29.4085V10.5466L77.1496 1.05664V19.9185Z" fill="#58595B"/>
<path d="M73.6838 22.075L90.146 31.565V12.7031L73.6838 3.21606V22.075Z" fill="#4F4F51"/>
<path d="M93.6118 10.5466L90.1462 12.703V31.5649L93.6118 29.4085V10.5466Z" fill="#757679"/>
<path d="M77.1496 1.05664L73.6841 3.216L90.1463 12.703L93.6118 10.5466L77.1496 1.05664Z" fill="#8F9194"/>
<path d="M112.299 22.1665L113.944 21.2166L107.4 17.4436L105.755 18.3935L112.299 22.1665Z" fill="#4F4F51"/>
<path d="M104.697 17.7624L106.342 16.8154L99.7982 13.0425L98.1526 13.9924L104.697 17.7624Z" fill="#4F4F51"/>
<path d="M112.299 23.665L113.944 22.7151L107.4 18.9421L105.755 19.892L112.299 23.665Z" fill="#4F4F51"/>
<path d="M104.697 19.2609L106.342 18.314L99.7982 14.541L98.1526 15.4909L104.697 19.2609Z" fill="#4F4F51"/>
<path d="M112.299 25.1638L113.944 24.2139L107.4 20.4409L105.755 21.3908L112.299 25.1638Z" fill="#4F4F51"/>
<path d="M104.697 20.7595L106.342 19.8125L99.7982 16.0396L98.1526 16.9894L104.697 20.7595Z" fill="#4F4F51"/>
<path d="M112.299 26.6623L113.944 25.7124L107.4 21.9395L105.755 22.8893L112.299 26.6623Z" fill="#4F4F51"/>
<path d="M104.697 22.258L106.342 21.3111L99.7982 17.5381L98.1526 18.488L104.697 22.258Z" fill="#4F4F51"/>
<path d="M112.299 28.1608L113.944 27.211L107.4 23.438L105.755 24.3879L112.299 28.1608Z" fill="#4F4F51"/>
<path d="M104.697 23.7565L106.342 22.8096L99.7982 19.0366L98.1526 19.9865L104.697 23.7565Z" fill="#4F4F51"/>
<path d="M112.299 29.6594L113.944 28.7095L107.4 24.9365L105.755 25.8864L112.299 29.6594Z" fill="#4F4F51"/>
<path d="M104.697 25.2551L106.342 24.3081L99.7982 20.5352L98.1526 21.485L104.697 25.2551Z" fill="#4F4F51"/>
<path d="M112.299 31.1579L113.944 30.208L107.4 26.4351L105.755 27.3849L112.299 31.1579Z" fill="#4F4F51"/>
<path d="M104.697 26.7536L106.342 25.8067L99.7982 22.0337L98.1526 22.9836L104.697 26.7536Z" fill="#4F4F51"/>
<path d="M112.299 32.6564L113.944 31.7066L107.4 27.9336L105.755 28.8835L112.299 32.6564Z" fill="#4F4F51"/>
<path d="M104.697 28.2524L106.342 27.3054L99.7982 23.5325L98.1526 24.4824L104.697 28.2524Z" fill="#4F4F51"/>
<path d="M112.299 34.155L113.944 33.2051L107.4 29.4321L105.755 30.382L112.299 34.155Z" fill="#4F4F51"/>
<path d="M104.697 29.7509L106.342 28.804L99.7982 25.031L98.1526 25.9809L104.697 29.7509Z" fill="#4F4F51"/>
<path d="M112.299 35.6538L113.944 34.7039L107.4 30.9309L105.755 31.8808L112.299 35.6538Z" fill="#4F4F51"/>
<path d="M104.697 31.2494L106.342 30.3025L99.7982 26.5295L98.1526 27.4794L104.697 31.2494Z" fill="#4F4F51"/>
<path d="M112.299 37.1523L113.944 36.2024L107.4 32.4294L105.755 33.3793L112.299 37.1523Z" fill="#4F4F51"/>
<path d="M104.697 32.748L106.342 31.8011L99.7982 28.0281L98.1526 28.978L104.697 32.748Z" fill="#4F4F51"/>
<path d="M112.299 38.6508L113.944 37.7009L107.4 33.928L105.755 34.8779L112.299 38.6508Z" fill="#4F4F51"/>
<path d="M104.697 34.2465L106.342 33.2996L99.7982 29.5266L98.1526 30.4765L104.697 34.2465Z" fill="#4F4F51"/>
<path d="M112.299 40.1494L113.944 39.1995L107.4 35.4265L105.755 36.3764L112.299 40.1494Z" fill="#4F4F51"/>
<path d="M104.697 35.7451L106.342 34.7981L99.7982 31.0251L98.1526 31.975L104.697 35.7451Z" fill="#4F4F51"/>
<path d="M96.0491 31.2435L112.511 40.7335V21.8715L96.0491 12.3816V31.2435Z" fill="#58595B"/>
<path d="M92.5837 33.4029L109.046 42.8899V24.031L92.5837 14.541V33.4029Z" fill="#4F4F51"/>
<path d="M112.511 21.8716L109.046 24.0309V42.8899L112.511 40.7335V21.8716Z" fill="#757679"/>
<path d="M96.0491 12.3816L92.5835 14.5409L109.046 24.0309L112.511 21.8715L96.0491 12.3816Z" fill="#8F9194"/>
<path d="M30.2802 26.3259L60.6608 43.8338L67.71 47.9194C68.5055 48.3518 69.3984 48.5742 70.3041 48.5655C70.998 48.5866 71.6858 48.4292 72.3012 48.1082L79.9621 43.6833L110.668 25.9837C111.202 25.6887 111.462 25.2639 111.462 24.8332C111.462 24.314 111.081 23.7653 110.34 23.3376L72.898 1.75583C71.536 0.971147 69.4827 0.870851 68.3039 1.56409L29.9375 23.6886C28.7764 24.3524 28.9241 25.5412 30.2802 26.3259Z" fill="#F1F2F2"/>
<path d="M70.3128 48.5535V86.4189C71.0076 86.4382 71.6958 86.2808 72.313 85.9616L110.676 63.8489C111.211 63.5539 111.471 63.1291 111.471 62.6984V24.8301C111.471 25.2608 111.211 25.6738 110.676 25.9806L79.9709 43.6802L72.313 48.1051C71.6955 48.4226 71.0069 48.5769 70.3128 48.5535Z" fill="url(#paint0_linear_681_21090)"/>
<path d="M29.1547 24.8271V62.6896C29.1547 63.2118 29.5388 63.7575 30.2803 64.1853L67.7102 85.77C68.5054 86.2034 69.3983 86.4268 70.3042 86.4189V48.5535C69.3996 48.5659 68.5067 48.3476 67.7102 47.9193L60.6461 43.8454L30.2803 26.3257C29.5388 25.898 29.1547 25.3493 29.1547 24.8271Z" fill="url(#paint1_linear_681_21090)"/>
<path d="M32.189 64.5364L63.5947 82.6431V73.6458L32.189 55.542V64.5364Z" fill="#1651A4"/>
<path d="M32.189 55.542L13.4755 75.8936V78.1444L32.189 64.5364V55.542Z" fill="#15498D"/>
<path d="M13.4757 78.1444L44.8784 96.2481V94.0003L13.4757 75.8936V78.1444Z" fill="#124C92"/>
<path d="M63.5947 73.6458L44.8783 94.0003V96.2482L63.5947 82.6431V73.6458Z" fill="#2163B3"/>
<path d="M44.8783 94.0003L63.5947 73.6458L32.1889 55.542L13.4755 75.8936L44.8783 94.0003Z" fill="#307FE2"/>
<path d="M32.189 53.0789L63.5947 71.1826V62.1853L32.189 44.0815V53.0789Z" fill="#1651A4"/>
<path d="M32.189 44.0815L13.4755 64.4361V66.684L32.189 53.0789V44.0815Z" fill="#15498D"/>
<g filter="url(#filter8_f_681_21090)">
<path d="M59.3452 73.026L31.3835 56.8943L17.725 73.3738L45.6866 89.5056L59.3452 73.026Z" fill="#144C90"/>
</g>
<path d="M13.4757 66.6839L44.8784 84.7877V82.5398L13.4757 64.436V66.6839Z" fill="#124C92"/>
<path d="M63.5947 62.1853L44.8783 82.5399V84.7877L63.5947 71.1826V62.1853Z" fill="#2163B3"/>
<path d="M44.8783 82.5399L63.5947 62.1853L32.1889 44.0815L13.4755 64.4361L44.8783 82.5399Z" fill="#307FE2"/>
<path d="M32.189 41.6184L63.5947 59.7222V50.7278L32.189 32.6211V41.6184Z" fill="#1651A4"/>
<g filter="url(#filter9_f_681_21090)">
<path d="M59.3452 60.9467L31.3835 44.8149L17.725 61.2945L45.6866 77.4263L59.3452 60.9467Z" fill="#144C90"/>
</g>
<path d="M32.189 32.6211L13.4755 52.9757V55.2235L32.189 41.6184V32.6211Z" fill="#15498D"/>
<path d="M13.4757 55.2234L44.8784 73.3272V71.0794L13.4757 52.9756V55.2234Z" fill="#124C92"/>
<path d="M63.5947 50.7278L44.8783 71.0794V73.3273L63.5947 59.7221V50.7278Z" fill="#2163B3"/>
<path d="M44.8783 71.0795L63.5947 50.7278L32.1889 32.6211L13.4755 52.9757L44.8783 71.0795Z" fill="#307FE2"/>
<path d="M155.079 69.1887L156.725 68.2388L150.181 64.4688L148.535 65.4157L155.079 69.1887Z" fill="#4F4F51"/>
<path d="M147.477 64.7873L149.123 63.8375L142.579 60.0645L140.933 61.0143L147.477 64.7873Z" fill="#4F4F51"/>
<path d="M155.079 70.6872L156.725 69.7373L150.181 65.9644L148.535 66.9142L155.079 70.6872Z" fill="#4F4F51"/>
<path d="M147.477 66.2861L149.123 65.3362L142.579 61.5632L140.933 62.5131L147.477 66.2861Z" fill="#4F4F51"/>
<path d="M155.079 72.186L156.725 71.2361L150.181 67.4661L148.535 68.413L155.079 72.186Z" fill="#4F4F51"/>
<path d="M147.477 67.7846L149.123 66.8347L142.579 63.0618L140.933 64.0117L147.477 67.7846Z" fill="#4F4F51"/>
<path d="M155.079 73.6845L156.725 72.7347L150.181 68.9617L148.535 69.9116L155.079 73.6845Z" fill="#4F4F51"/>
<path d="M147.477 69.2832L149.123 68.3333L142.579 64.5603L140.933 65.5102L147.477 69.2832Z" fill="#4F4F51"/>
<path d="M155.079 75.1831L156.725 74.2332L150.181 70.4631L148.535 71.4101L155.079 75.1831Z" fill="#4F4F51"/>
<path d="M147.477 70.7817L149.123 69.8318L142.579 66.0588L140.933 67.0087L147.477 70.7817Z" fill="#4F4F51"/>
<path d="M155.079 76.6816L156.725 75.7317L150.181 71.9587L148.535 72.9086L155.079 76.6816Z" fill="#4F4F51"/>
<path d="M147.477 72.2802L149.123 71.3303L142.579 67.5574L140.933 68.5072L147.477 72.2802Z" fill="#4F4F51"/>
<path d="M155.079 78.1801L156.725 77.2302L150.181 73.4602L148.535 74.4071L155.079 78.1801Z" fill="#4F4F51"/>
<path d="M147.477 73.7788L149.123 72.8289L142.579 69.0559L140.933 70.0058L147.477 73.7788Z" fill="#4F4F51"/>
<path d="M155.079 79.6787L156.725 78.7288L150.181 74.9558L148.535 75.9057L155.079 79.6787Z" fill="#4F4F51"/>
<path d="M147.477 75.2773L149.123 74.3274L142.579 70.5544L140.933 71.5043L147.477 75.2773Z" fill="#4F4F51"/>
<path d="M155.079 81.1772L156.725 80.2273L150.181 76.4573L148.535 77.4042L155.079 81.1772Z" fill="#4F4F51"/>
<path d="M147.477 76.7761L149.123 75.8262L142.579 72.0532L140.933 73.0031L147.477 76.7761Z" fill="#4F4F51"/>
<path d="M155.079 82.676L156.725 81.7261L150.181 77.9531L148.535 78.903L155.079 82.676Z" fill="#4F4F51"/>
<path d="M147.477 78.2746L149.123 77.3247L142.579 73.5518L140.933 74.5016L147.477 78.2746Z" fill="#4F4F51"/>
<path d="M155.079 84.1745L156.725 83.2246L150.181 79.4546L148.535 80.4015L155.079 84.1745Z" fill="#4F4F51"/>
<path d="M147.477 79.7731L149.123 78.8233L142.579 75.0503L140.933 76.0002L147.477 79.7731Z" fill="#4F4F51"/>
<path d="M155.079 85.673L156.725 84.7231L150.181 80.9531L148.535 81.9001L155.079 85.673Z" fill="#4F4F51"/>
<path d="M147.477 81.2717L149.123 80.3218L142.579 76.5488L140.933 77.4987L147.477 81.2717Z" fill="#4F4F51"/>
<path d="M155.079 87.1716L156.725 86.2217L150.181 82.4487L148.535 83.3986L155.079 87.1716Z" fill="#4F4F51"/>
<path d="M147.477 82.7702L149.123 81.8203L142.579 78.0474L140.933 78.9972L147.477 82.7702Z" fill="#4F4F51"/>
<path d="M138.826 78.2657L155.289 87.7556V68.8967L138.826 59.4067V78.2657Z" fill="#58595B"/>
<path d="M135.361 80.4251L151.823 89.9151V71.0532L135.361 61.5632V80.4251Z" fill="#4F4F51"/>
<path d="M155.289 68.8967L151.823 71.0531V89.915L155.289 87.7557V68.8967Z" fill="#757679"/>
<path d="M138.826 59.4067L135.361 61.5631L151.823 71.0531L155.289 68.8967L138.826 59.4067Z" fill="#8F9194"/>
<path d="M136.18 35.9902L137.825 35.0403L131.281 31.2673L129.636 32.2172L136.18 35.9902Z" fill="#4F4F51"/>
<path d="M128.578 31.5861L130.224 30.6392L123.679 26.8662L122.034 27.8161L128.578 31.5861Z" fill="#4F4F51"/>
<path d="M136.18 37.4887L137.825 36.5388L131.281 32.7659L129.636 33.7157L136.18 37.4887Z" fill="#4F4F51"/>
<path d="M128.578 33.0846L130.224 32.1377L123.679 28.3647L122.034 29.3146L128.578 33.0846Z" fill="#4F4F51"/>
<path d="M136.18 38.9875L137.825 38.0376L131.281 34.2646L129.636 35.2145L136.18 38.9875Z" fill="#4F4F51"/>
<path d="M128.578 34.5832L130.224 33.6363L123.679 29.8633L122.034 30.8132L128.578 34.5832Z" fill="#4F4F51"/>
<path d="M136.18 40.486L137.825 39.5362L131.281 35.7632L129.636 36.7131L136.18 40.486Z" fill="#4F4F51"/>
<path d="M128.578 36.0817L130.224 35.1348L123.679 31.3618L122.034 32.3117L128.578 36.0817Z" fill="#4F4F51"/>
<path d="M136.18 41.9846L137.825 41.0347L131.281 37.2617L129.636 38.2116L136.18 41.9846Z" fill="#4F4F51"/>
<path d="M128.578 37.5803L130.224 36.6333L123.679 32.8604L122.034 33.8102L128.578 37.5803Z" fill="#4F4F51"/>
<path d="M136.18 43.4831L137.825 42.5332L131.281 38.7603L129.636 39.7101L136.18 43.4831Z" fill="#4F4F51"/>
<path d="M128.578 39.0788L130.224 38.1319L123.679 34.3589L122.034 35.3088L128.578 39.0788Z" fill="#4F4F51"/>
<path d="M136.18 44.9816L137.825 44.0318L131.281 40.2588L129.636 41.2087L136.18 44.9816Z" fill="#4F4F51"/>
<path d="M128.578 40.5773L130.224 39.6304L123.679 35.8574L122.034 36.8073L128.578 40.5773Z" fill="#4F4F51"/>
<path d="M136.18 46.4802L137.825 45.5303L131.281 41.7573L129.636 42.7072L136.18 46.4802Z" fill="#4F4F51"/>
<path d="M128.578 42.0761L130.224 41.1292L123.679 37.3562L122.034 38.3061L128.578 42.0761Z" fill="#4F4F51"/>
<path d="M136.18 47.9787L137.825 47.0288L131.281 43.2559L129.636 44.2057L136.18 47.9787Z" fill="#4F4F51"/>
<path d="M128.578 43.5746L130.224 42.6277L123.679 38.8547L122.034 39.8046L128.578 43.5746Z" fill="#4F4F51"/>
<path d="M136.18 49.4775L137.825 48.5276L131.281 44.7546L129.636 45.7045L136.18 49.4775Z" fill="#4F4F51"/>
<path d="M128.578 45.0732L130.224 44.1262L123.679 40.3533L122.034 41.3032L128.578 45.0732Z" fill="#4F4F51"/>
<path d="M136.18 50.976L137.825 50.0261L131.281 46.2532L129.636 47.2031L136.18 50.976Z" fill="#4F4F51"/>
<path d="M128.578 46.5717L130.224 45.6248L123.679 41.8518L122.034 42.8017L128.578 46.5717Z" fill="#4F4F51"/>
<path d="M136.18 52.4746L137.825 51.5247L131.281 47.7517L129.636 48.7016L136.18 52.4746Z" fill="#4F4F51"/>
<path d="M128.578 48.0702L130.224 47.1233L123.679 43.3503L122.034 44.3002L128.578 48.0702Z" fill="#4F4F51"/>
<path d="M136.18 53.9731L137.825 53.0232L131.281 49.2502L129.636 50.2001L136.18 53.9731Z" fill="#4F4F51"/>
<path d="M128.578 49.5688L130.224 48.6218L123.679 44.8489L122.034 45.7988L128.578 49.5688Z" fill="#4F4F51"/>
<path d="M119.927 45.0672L136.389 54.5572V35.6953L119.927 26.2053V45.0672Z" fill="#58595B"/>
<path d="M116.462 47.2267L132.924 56.7166V37.8547L116.462 28.3647V47.2267Z" fill="#4F4F51"/>
<path d="M136.389 35.6953L132.924 37.8547V56.7166L136.389 54.5572V35.6953Z" fill="#757679"/>
<path d="M119.927 26.2053L116.461 28.3647L132.924 37.8546L136.389 35.6953L119.927 26.2053Z" fill="#8F9194"/>
<path d="M155.079 46.725L156.725 45.7751L150.181 42.0051L148.535 42.9521L155.079 46.725Z" fill="#4F4F51"/>
<path d="M147.477 42.3237L149.123 41.3738L142.579 37.6008L140.933 38.5507L147.477 42.3237Z" fill="#4F4F51"/>
<path d="M155.079 48.2236L156.725 47.2737L150.181 43.5037L148.535 44.4506L155.079 48.2236Z" fill="#4F4F51"/>
<path d="M147.477 43.8225L149.123 42.8726L142.579 39.0996L140.933 40.0495L147.477 43.8225Z" fill="#4F4F51"/>
<path d="M155.079 49.7223L156.725 48.7725L150.181 45.0024L148.535 45.9494L155.079 49.7223Z" fill="#4F4F51"/>
<path d="M147.477 45.321L149.123 44.3711L142.579 40.5981L140.933 41.548L147.477 45.321Z" fill="#4F4F51"/>
<path d="M155.079 51.6423L156.725 50.6924L150.181 46.9224L148.535 47.8693L155.079 51.6423Z" fill="#4F4F51"/>
<path d="M147.477 46.8195L149.123 45.8696L142.579 42.0967L140.933 43.0466L147.477 46.8195Z" fill="#4F4F51"/>
<path d="M155.079 52.7194L156.725 51.7695L150.181 47.9995L148.535 48.9464L155.079 52.7194Z" fill="#4F4F51"/>
<path d="M147.477 48.3181L149.123 47.3682L142.579 43.5952L140.933 44.5451L147.477 48.3181Z" fill="#4F4F51"/>
<path d="M155.079 54.218L156.725 53.2681L150.181 49.498L148.535 50.445L155.079 54.218Z" fill="#4F4F51"/>
<path d="M147.477 49.8166L149.123 48.8667L142.579 45.0938L140.933 46.0436L147.477 49.8166Z" fill="#4F4F51"/>
<path d="M155.079 55.7165L156.725 54.7666L150.181 50.9966L148.535 51.9435L155.079 55.7165Z" fill="#4F4F51"/>
<path d="M147.477 51.3151L149.123 50.3653L142.579 46.5923L140.933 47.5422L147.477 51.3151Z" fill="#4F4F51"/>
<path d="M155.079 57.215L156.725 56.2651L150.181 52.4951L148.535 53.4421L155.079 57.215Z" fill="#4F4F51"/>
<path d="M147.477 52.8137L149.123 51.8638L142.579 48.0908L140.933 49.0407L147.477 52.8137Z" fill="#4F4F51"/>
<path d="M155.079 58.7136L156.725 57.7637L150.181 53.9937L148.535 54.9406L155.079 58.7136Z" fill="#4F4F51"/>
<path d="M147.477 54.3124L149.123 53.3626L142.579 49.5896L140.933 50.5395L147.477 54.3124Z" fill="#4F4F51"/>
<path d="M155.079 60.2123L156.725 59.2625L150.181 55.4924L148.535 56.4394L155.079 60.2123Z" fill="#4F4F51"/>
<path d="M147.477 55.811L149.123 54.8611L142.579 51.0881L140.933 52.038L147.477 55.811Z" fill="#4F4F51"/>
<path d="M155.079 61.7109L156.725 60.761L150.181 56.991L148.535 57.9379L155.079 61.7109Z" fill="#4F4F51"/>
<path d="M147.477 57.3095L149.123 56.3596L142.579 52.5867L140.933 53.5365L147.477 57.3095Z" fill="#4F4F51"/>
<path d="M155.079 63.2094L156.725 62.2595L150.181 58.4895L148.535 59.4364L155.079 63.2094Z" fill="#4F4F51"/>
<path d="M147.477 58.8081L149.123 57.8582L142.579 54.0852L140.933 55.0351L147.477 58.8081Z" fill="#4F4F51"/>
<path d="M155.079 64.7079L156.725 63.758L150.181 59.988L148.535 60.935L155.079 64.7079Z" fill="#4F4F51"/>
<path d="M147.477 60.3066L149.123 59.3567L142.579 55.5837L140.933 56.5336L147.477 60.3066Z" fill="#4F4F51"/>
<path d="M138.826 55.8021L155.289 65.292V46.4301L138.826 36.9431V55.8021Z" fill="#58595B"/>
<path d="M135.361 57.9615L151.823 67.4515V48.5896L135.361 39.0996V57.9615Z" fill="#4F4F51"/>
<path d="M155.289 46.4302L151.823 48.5895V67.4514L155.289 65.2921V46.4302Z" fill="#757679"/>
<path d="M138.826 36.9431L135.361 39.0995L151.823 48.5895L155.289 46.4301L138.826 36.9431Z" fill="#8F9194"/>
<path d="M73.0608 51.1794L103.438 68.6873L110.502 72.7641C111.298 73.1975 112.191 73.4209 113.097 73.4131C113.791 73.4328 114.48 73.2754 115.097 72.9559L122.755 68.531L153.463 50.8313C153.995 50.5363 154.258 50.1116 154.258 49.6809C154.258 49.1587 153.877 48.61 153.132 48.1823L115.676 26.6035C114.317 25.8188 112.26 25.7185 111.085 26.4117L72.7152 48.5363C71.5541 49.2089 71.7018 50.3947 73.0608 51.1794Z" fill="#F1F2F2"/>
<path d="M113.094 73.4102V111.273C113.785 111.292 114.47 111.136 115.085 110.818L153.457 88.6938C153.992 88.3988 154.252 87.9741 154.252 87.5434V49.6838C154.252 50.1145 153.992 50.5275 153.457 50.8343L122.752 68.534L115.091 72.9589C114.474 73.276 113.787 73.4313 113.094 73.4102Z" fill="url(#paint2_linear_681_21090)"/>
<path d="M71.9348 49.6838V87.5463C71.9348 88.0655 72.316 88.6112 73.0605 89.039L110.502 110.624C111.297 111.058 112.19 111.281 113.096 111.273V73.4102C112.19 73.4189 111.297 73.1955 110.502 72.7612L103.438 68.6873L73.0605 51.1795C72.316 50.7517 71.9348 50.203 71.9348 49.6838Z" fill="url(#paint3_linear_681_21090)"/>
<path d="M67.5448 87.1068L73.3354 90.4077V51.3358L67.465 47.7634L67.5448 87.1068Z" fill="#F1F2F2"/>
<path d="M73.3353 51.3358L115.882 26.6891L110.098 23.1904L67.4649 47.7634L73.3353 51.3358Z" fill="#F8F8F9"/>
<path d="M74.6505 88.219L106.053 106.323V97.3284L74.6505 79.2217V88.219Z" fill="#1651A4"/>
<path d="M74.6504 79.2217L55.934 99.5762V101.824L74.6504 88.219V79.2217Z" fill="#15498D"/>
<path d="M55.9336 101.824L87.3394 119.928V117.68L55.9336 99.5762V101.824Z" fill="#124C92"/>
<path d="M106.053 97.3284L87.3398 117.68V119.928L106.053 106.323V97.3284Z" fill="#2163B3"/>
<path d="M87.3398 117.68L106.053 97.3284L74.6505 79.2217L55.9341 99.5763L87.3398 117.68Z" fill="#307FE2"/>
<path d="M74.6505 76.7585L106.053 94.8623V85.8679L74.6505 67.7642V76.7585Z" fill="#1651A4"/>
<path d="M74.6504 67.7642L55.934 88.1158V90.3636L74.6504 76.7585V67.7642Z" fill="#15498D"/>
<path d="M55.9336 90.3636L87.3394 108.467V106.219L55.9336 88.1157V90.3636Z" fill="#124C92"/>
<g filter="url(#filter10_f_681_21090)">
<path d="M102.07 97.4972L74.1081 81.3655L60.4495 97.845L88.4112 113.977L102.07 97.4972Z" fill="#144C90"/>
</g>
<path d="M106.053 85.8679L87.3398 106.22V108.467L106.053 94.8623V85.8679Z" fill="#2163B3"/>
<path d="M87.3398 106.22L106.053 85.8679L74.6505 67.7642L55.9341 88.1158L87.3398 106.22Z" fill="#307FE2"/>
<path d="M74.6505 65.2978L106.053 83.4016V74.4072L74.6505 56.3035V65.2978Z" fill="#1651A4"/>
<g filter="url(#filter11_f_681_21090)">
<path d="M102.07 85.4179L74.1081 69.2861L60.4495 85.7657L88.4112 101.897L102.07 85.4179Z" fill="#144C90"/>
</g>
<path d="M74.6504 56.3035L55.934 76.6551V78.9029L74.6504 65.2978V56.3035Z" fill="#15498D"/>
<path d="M55.9336 78.9031L87.3394 97.0099V94.7591L55.9336 76.6553V78.9031Z" fill="#124C92"/>
<path d="M106.053 74.4072L87.3398 94.7589V97.0097L106.053 83.4016V74.4072Z" fill="#2163B3"/>
<path d="M87.3398 94.7589L106.053 74.4072L74.6505 56.3035L55.9341 76.6551L87.3398 94.7589Z" fill="#307FE2"/>
<path d="M196.12 93.0156L197.766 92.0657L191.222 88.2957L189.576 89.2426L196.12 93.0156Z" fill="#4F4F51"/>
<path d="M188.519 88.6142L190.165 87.6643L183.62 83.8914L181.975 84.8412L188.519 88.6142Z" fill="#4F4F51"/>
<path d="M196.12 94.5141L197.766 93.5642L191.222 89.7913L189.576 90.7411L196.12 94.5141Z" fill="#4F4F51"/>
<path d="M188.519 90.113L190.165 89.1631L183.62 85.3901L181.975 86.34L188.519 90.113Z" fill="#4F4F51"/>
<path d="M196.12 96.0129L197.766 95.063L191.222 91.293L189.576 92.2399L196.12 96.0129Z" fill="#4F4F51"/>
<path d="M188.519 91.6115L190.165 90.6616L183.62 86.8887L181.975 87.8386L188.519 91.6115Z" fill="#4F4F51"/>
<path d="M196.12 97.5114L197.766 96.5615L191.222 92.7886L189.576 93.7385L196.12 97.5114Z" fill="#4F4F51"/>
<path d="M188.519 93.1101L190.165 92.1602L183.62 88.3872L181.975 89.3371L188.519 93.1101Z" fill="#4F4F51"/>
<path d="M196.12 99.01L197.766 98.0601L191.222 94.29L189.576 95.237L196.12 99.01Z" fill="#4F4F51"/>
<path d="M188.519 94.6086L190.165 93.6587L183.62 89.8857L181.975 90.8356L188.519 94.6086Z" fill="#4F4F51"/>
<path d="M196.12 100.508L197.766 99.5586L191.222 95.7856L189.576 96.7355L196.12 100.508Z" fill="#4F4F51"/>
<path d="M188.519 96.1071L190.165 95.1572L183.62 91.3843L181.975 92.3342L188.519 96.1071Z" fill="#4F4F51"/>
<path d="M196.12 102.007L197.766 101.057L191.222 97.2871L189.576 98.234L196.12 102.007Z" fill="#4F4F51"/>
<path d="M188.519 97.6057L190.165 96.6558L183.62 92.8828L181.975 93.8327L188.519 97.6057Z" fill="#4F4F51"/>
<path d="M196.12 103.506L197.766 102.556L191.222 98.7827L189.576 99.7326L196.12 103.506Z" fill="#4F4F51"/>
<path d="M188.519 99.1042L190.165 98.1543L183.62 94.3813L181.975 95.3312L188.519 99.1042Z" fill="#4F4F51"/>
<path d="M196.12 105.004L197.766 104.054L191.222 100.284L189.576 101.231L196.12 105.004Z" fill="#4F4F51"/>
<path d="M188.519 100.603L190.165 99.6531L183.62 95.8801L181.975 96.83L188.519 100.603Z" fill="#4F4F51"/>
<path d="M196.12 106.503L197.766 105.553L191.222 101.78L189.576 102.73L196.12 106.503Z" fill="#4F4F51"/>
<path d="M188.519 102.101L190.165 101.152L183.62 97.3787L181.975 98.3285L188.519 102.101Z" fill="#4F4F51"/>
<path d="M196.12 108.001L197.766 107.052L191.222 103.281L189.576 104.228L196.12 108.001Z" fill="#4F4F51"/>
<path d="M188.519 103.6L190.165 102.65L183.62 98.8772L181.975 99.8271L188.519 103.6Z" fill="#4F4F51"/>
<path d="M196.12 109.5L197.766 108.55L191.222 104.78L189.576 105.727L196.12 109.5Z" fill="#4F4F51"/>
<path d="M188.519 105.099L190.165 104.149L183.62 100.376L181.975 101.326L188.519 105.099Z" fill="#4F4F51"/>
<path d="M196.12 110.998L197.766 110.049L191.222 106.276L189.576 107.226L196.12 110.998Z" fill="#4F4F51"/>
<path d="M188.519 106.597L190.165 105.647L183.62 101.874L181.975 102.824L188.519 106.597Z" fill="#4F4F51"/>
<path d="M179.868 102.093L196.33 111.583V92.7236L179.868 83.2336V102.093Z" fill="#58595B"/>
<path d="M176.403 104.252L192.865 113.742V94.8801L176.403 85.3901V104.252Z" fill="#4F4F51"/>
<path d="M196.33 92.7236L192.864 94.88V113.742L196.33 111.583V92.7236Z" fill="#757679"/>
<path d="M179.868 83.2336L176.402 85.39L192.865 94.88L196.33 92.7236L179.868 83.2336Z" fill="#8F9194"/>
<path d="M177.221 59.8171L178.867 58.8672L172.323 55.0942L170.677 56.0441L177.221 59.8171Z" fill="#4F4F51"/>
<path d="M169.62 55.413L171.265 54.4661L164.721 50.6931L163.075 51.643L169.62 55.413Z" fill="#4F4F51"/>
<path d="M177.221 61.3156L178.867 60.3657L172.323 56.5928L170.677 57.5427L177.221 61.3156Z" fill="#4F4F51"/>
<path d="M169.62 56.9115L171.265 55.9646L164.721 52.1917L163.075 53.1415L169.62 56.9115Z" fill="#4F4F51"/>
<path d="M177.221 62.8144L178.867 61.8645L172.323 58.0916L170.677 59.0414L177.221 62.8144Z" fill="#4F4F51"/>
<path d="M169.62 58.4101L171.265 57.4632L164.721 53.6902L163.075 54.6401L169.62 58.4101Z" fill="#4F4F51"/>
<path d="M177.221 64.313L178.867 63.3631L172.323 59.5901L170.677 60.54L177.221 64.313Z" fill="#4F4F51"/>
<path d="M169.62 59.9086L171.265 58.9617L164.721 55.1887L163.075 56.1386L169.62 59.9086Z" fill="#4F4F51"/>
<path d="M177.221 65.8115L178.867 64.8616L172.323 61.0886L170.677 62.0385L177.221 65.8115Z" fill="#4F4F51"/>
<path d="M169.62 61.4072L171.265 60.4602L164.721 56.6873L163.075 57.6371L169.62 61.4072Z" fill="#4F4F51"/>
<path d="M177.221 67.31L178.867 66.3601L172.323 62.5872L170.677 63.537L177.221 67.31Z" fill="#4F4F51"/>
<path d="M169.62 62.9057L171.265 61.9588L164.721 58.1858L163.075 59.1357L169.62 62.9057Z" fill="#4F4F51"/>
<path d="M177.221 68.8085L178.867 67.8587L172.323 64.0857L170.677 65.0356L177.221 68.8085Z" fill="#4F4F51"/>
<path d="M169.62 64.4042L171.265 63.4573L164.721 59.6843L163.075 60.6342L169.62 64.4042Z" fill="#4F4F51"/>
<path d="M177.221 70.3071L178.867 69.3572L172.323 65.5842L170.677 66.5341L177.221 70.3071Z" fill="#4F4F51"/>
<path d="M169.62 65.903L171.265 64.9561L164.721 61.1831L163.075 62.133L169.62 65.903Z" fill="#4F4F51"/>
<path d="M177.221 71.8056L178.867 70.8557L172.323 67.0828L170.677 68.0326L177.221 71.8056Z" fill="#4F4F51"/>
<path d="M169.62 67.4015L171.265 66.4546L164.721 62.6816L163.075 63.6315L169.62 67.4015Z" fill="#4F4F51"/>
<path d="M177.221 73.3044L178.867 72.3545L172.323 68.5815L170.677 69.5314L177.221 73.3044Z" fill="#4F4F51"/>
<path d="M169.62 68.9001L171.265 67.9532L164.721 64.1802L163.075 65.1301L169.62 68.9001Z" fill="#4F4F51"/>
<path d="M177.221 74.8029L178.867 73.853L172.323 70.0801L170.677 71.03L177.221 74.8029Z" fill="#4F4F51"/>
<path d="M169.62 70.3986L171.265 69.4517L164.721 65.6787L163.075 66.6286L169.62 70.3986Z" fill="#4F4F51"/>
<path d="M177.221 76.3015L178.867 75.3516L172.323 71.5786L170.677 72.5285L177.221 76.3015Z" fill="#4F4F51"/>
<path d="M169.62 71.8971L171.265 70.9502L164.721 67.1772L163.075 68.1271L169.62 71.8971Z" fill="#4F4F51"/>
<path d="M177.221 77.8L178.867 76.8501L172.323 73.0771L170.677 74.027L177.221 77.8Z" fill="#4F4F51"/>
<path d="M169.62 73.3957L171.265 72.4488L164.721 68.6758L163.075 69.6257L169.62 73.3957Z" fill="#4F4F51"/>
<path d="M160.968 68.8941L177.431 78.3841V59.5222L160.968 50.0322V68.8941Z" fill="#58595B"/>
<path d="M157.503 71.0535L173.965 80.5435V61.6816L157.503 52.1917V71.0535Z" fill="#4F4F51"/>
<path d="M177.431 59.5222L173.965 61.6816V80.5435L177.431 78.3841V59.5222Z" fill="#757679"/>
<path d="M160.969 50.0322L157.503 52.1916L173.965 61.6815L177.431 59.5222L160.969 50.0322Z" fill="#8F9194"/>
<path d="M196.12 70.5519L197.766 69.6021L191.222 65.832L189.576 66.779L196.12 70.5519Z" fill="#4F4F51"/>
<path d="M188.519 66.1508L190.165 65.2009L183.62 61.428L181.975 62.3779L188.519 66.1508Z" fill="#4F4F51"/>
<path d="M196.12 72.0507L197.766 71.1008L191.222 67.3308L189.576 68.2777L196.12 72.0507Z" fill="#4F4F51"/>
<path d="M188.519 67.6494L190.165 66.6995L183.62 62.9265L181.975 63.8764L188.519 67.6494Z" fill="#4F4F51"/>
<path d="M196.12 73.5492L197.766 72.5994L191.222 68.8293L189.576 69.7763L196.12 73.5492Z" fill="#4F4F51"/>
<path d="M188.519 69.1479L190.165 68.198L183.62 64.425L181.975 65.3749L188.519 69.1479Z" fill="#4F4F51"/>
<path d="M196.12 75.0478L197.766 74.0979L191.222 70.3279L189.576 71.2748L196.12 75.0478Z" fill="#4F4F51"/>
<path d="M188.519 70.6464L190.165 69.6966L183.62 65.9236L181.975 66.8735L188.519 70.6464Z" fill="#4F4F51"/>
<path d="M196.12 76.5463L197.766 75.5964L191.222 71.8264L189.576 72.7733L196.12 76.5463Z" fill="#4F4F51"/>
<path d="M188.519 72.145L190.165 71.1951L183.62 67.4221L181.975 68.372L188.519 72.145Z" fill="#4F4F51"/>
<path d="M196.12 78.0448L197.766 77.095L191.222 73.325L189.576 74.2719L196.12 78.0448Z" fill="#4F4F51"/>
<path d="M188.519 73.6435L190.165 72.6936L183.62 68.9207L181.975 69.8705L188.519 73.6435Z" fill="#4F4F51"/>
<path d="M196.12 79.5434L197.766 78.5935L191.222 74.8235L189.576 75.7704L196.12 79.5434Z" fill="#4F4F51"/>
<path d="M188.519 75.142L190.165 74.1922L183.62 70.4192L181.975 71.3691L188.519 75.142Z" fill="#4F4F51"/>
<path d="M196.12 81.0419L197.766 80.092L191.222 76.322L189.576 77.269L196.12 81.0419Z" fill="#4F4F51"/>
<path d="M188.519 76.6406L190.165 75.6907L183.62 71.9177L181.975 72.8676L188.519 76.6406Z" fill="#4F4F51"/>
<path d="M196.12 82.5405L197.766 81.5906L191.222 77.8206L189.576 78.7675L196.12 82.5405Z" fill="#4F4F51"/>
<path d="M188.519 78.1393L190.165 77.1895L183.62 73.4165L181.975 74.3664L188.519 78.1393Z" fill="#4F4F51"/>
<path d="M196.12 84.0392L197.766 83.0894L191.222 79.3193L189.576 80.2663L196.12 84.0392Z" fill="#4F4F51"/>
<path d="M188.519 79.6379L190.165 78.688L183.62 74.915L181.975 75.8649L188.519 79.6379Z" fill="#4F4F51"/>
<path d="M196.12 85.5378L197.766 84.5879L191.222 80.8179L189.576 81.7648L196.12 85.5378Z" fill="#4F4F51"/>
<path d="M188.519 81.1364L190.165 80.1865L183.62 76.4136L181.975 77.3634L188.519 81.1364Z" fill="#4F4F51"/>
<path d="M196.12 87.0363L197.766 86.0864L191.222 82.3164L189.576 83.2633L196.12 87.0363Z" fill="#4F4F51"/>
<path d="M188.519 82.635L190.165 81.6851L183.62 77.9121L181.975 78.862L188.519 82.635Z" fill="#4F4F51"/>
<path d="M196.12 88.5348L197.766 87.585L191.222 83.8149L189.576 84.7619L196.12 88.5348Z" fill="#4F4F51"/>
<path d="M188.519 84.1335L190.165 83.1836L183.62 79.4106L181.975 80.3605L188.519 84.1335Z" fill="#4F4F51"/>
<path d="M179.868 79.629L196.33 89.1189V70.257L179.868 60.77V79.629Z" fill="#58595B"/>
<path d="M176.403 81.7884L192.865 91.2784V72.4165L176.403 62.9265V81.7884Z" fill="#4F4F51"/>
<path d="M196.33 70.2571L192.864 72.4164V91.2784L196.33 89.119V70.2571Z" fill="#757679"/>
<path d="M179.868 60.77L176.402 62.9264L192.865 72.4164L196.33 70.257L179.868 60.77Z" fill="#8F9194"/>
<path d="M114.102 75.0063L144.48 92.5142L151.544 96.591C152.339 97.0244 153.232 97.2478 154.138 97.24C154.833 97.2597 155.521 97.1023 156.138 96.7828L163.796 92.3579L194.505 74.6582C195.036 74.3632 195.299 73.9385 195.299 73.5078C195.299 72.9856 194.918 72.4369 194.174 72.0092L156.717 50.4304C155.358 49.6457 153.302 49.5454 152.126 50.2386L113.757 72.3632C112.596 73.0358 112.743 74.2216 114.102 75.0063Z" fill="#F1F2F2"/>
<path d="M154.135 97.2371V135.1C154.827 135.119 155.512 134.962 156.126 134.645L194.499 112.521C195.033 112.226 195.293 111.801 195.293 111.37V73.5107C195.293 73.9414 195.033 74.3544 194.499 74.6612L163.793 92.3609L156.132 96.7858C155.516 97.1029 154.828 97.2582 154.135 97.2371Z" fill="url(#paint4_linear_681_21090)"/>
<path d="M112.976 73.5107V111.373C112.976 111.892 113.357 112.438 114.102 112.866L151.544 134.451C152.339 134.885 153.232 135.108 154.138 135.1V97.2371C153.232 97.2458 152.339 97.0224 151.544 96.5881L144.48 92.5142L114.102 75.0064C113.357 74.5786 112.976 74.0299 112.976 73.5107Z" fill="url(#paint5_linear_681_21090)"/>
<path d="M108.586 110.934L114.377 114.235V75.1627L108.506 71.5903L108.586 110.934Z" fill="#F1F2F2"/>
<path d="M114.377 75.1627L156.924 50.516L151.139 47.0173L108.506 71.5903L114.377 75.1627Z" fill="#F8F8F9"/>
<path d="M115.692 112.046L147.095 130.15V121.155L115.692 103.049V112.046Z" fill="#1651A4"/>
<path d="M115.692 103.049L96.9755 123.403V125.651L115.692 112.046V103.049Z" fill="#15498D"/>
<path d="M96.9752 125.651L128.381 143.755V141.507L96.9752 123.403V125.651Z" fill="#124C92"/>
<path d="M147.095 121.155L128.381 141.507V143.755L147.095 130.15V121.155Z" fill="#2163B3"/>
<path d="M128.381 141.507L147.095 121.155L115.692 103.049L96.9755 123.403L128.381 141.507Z" fill="#307FE2"/>
<path d="M115.692 100.585L147.095 118.689V109.695L115.692 91.5911V100.585Z" fill="#1651A4"/>
<path d="M115.692 91.5911L96.9755 111.943V114.191L115.692 100.585V91.5911Z" fill="#15498D"/>
<path d="M96.9752 114.19L128.381 132.294V130.046L96.9752 111.943V114.19Z" fill="#124C92"/>
<g filter="url(#filter12_f_681_21090)">
<path d="M143.111 121.324L115.149 105.192L101.491 121.672L129.452 137.804L143.111 121.324Z" fill="#144C90"/>
</g>
<path d="M147.095 109.695L128.381 130.046V132.294L147.095 118.689V109.695Z" fill="#2163B3"/>
<path d="M128.381 130.046L147.095 109.695L115.692 91.5911L96.9755 111.943L128.381 130.046Z" fill="#307FE2"/>
<path d="M115.692 89.1247L147.095 107.229V98.2341L115.692 80.1304V89.1247Z" fill="#1651A4"/>
<g filter="url(#filter13_f_681_21090)">
<path d="M143.111 109.245L115.149 93.113L101.491 109.593L129.452 125.724L143.111 109.245Z" fill="#144C90"/>
</g>
<path d="M115.692 80.1304L96.9755 100.482V102.73L115.692 89.1247V80.1304Z" fill="#15498D"/>
<path d="M96.9752 102.73L128.381 120.837V118.586L96.9752 100.482V102.73Z" fill="#124C92"/>
<path d="M147.095 98.2341L128.381 118.586V120.837L147.095 107.228V98.2341Z" fill="#2163B3"/>
<path d="M128.381 118.586L147.095 98.2341L115.692 80.1304L96.9755 100.482L128.381 118.586Z" fill="#307FE2"/>
<path d="M157.229 136.974L189.363 118.458V81.6582L157.229 100.174V136.974Z" fill="url(#paint6_linear_681_21090)"/>
<path d="M188.766 154.953L220.9 136.437L188.968 118.037L156.834 136.553L188.766 154.953Z" fill="url(#paint7_linear_681_21090)"/>
<path d="M167.74 123.7L197.731 140.983C198.325 141.324 198.803 141.051 198.803 140.373V120.144C198.781 119.775 198.672 119.416 198.486 119.096C198.3 118.776 198.041 118.504 197.731 118.301L167.74 101.018C167.147 100.678 166.669 100.95 166.669 101.629V121.857C166.691 122.227 166.799 122.586 166.985 122.906C167.171 123.226 167.43 123.498 167.74 123.7Z" fill="#4F4F51"/>
<path d="M157.535 99.9574L188.065 117.557L195.165 121.65C195.964 122.085 196.862 122.309 197.772 122.302C198.471 122.321 199.162 122.163 199.782 121.842L207.479 117.397L238.342 99.6166C238.877 99.3202 239.141 98.8935 239.141 98.4608C239.141 97.9393 238.728 97.4029 237.98 96.9791L200.379 75.2809C199.013 74.4926 196.947 74.4067 195.765 75.0882L157.202 97.314C156.02 97.9867 156.169 99.1809 157.535 99.9574Z" fill="#F1F2F2"/>
<path d="M197.766 122.302V160.337C198.465 160.357 199.157 160.199 199.777 159.878L238.337 137.652C238.874 137.356 239.135 136.929 239.135 136.496V98.4756C239.135 98.9082 238.874 99.3231 238.337 99.6313L207.473 117.412L199.777 121.857C199.155 122.173 198.463 122.326 197.766 122.302Z" fill="url(#paint8_linear_681_21090)"/>
<path d="M200.997 128.16L209.115 123.484C209.223 123.414 209.313 123.319 209.378 123.207C209.442 123.095 209.479 122.97 209.486 122.841V119.661C209.486 119.427 209.32 119.332 209.115 119.448L200.997 124.127C200.889 124.197 200.799 124.292 200.734 124.403C200.67 124.514 200.633 124.639 200.626 124.767V127.947C200.626 128.181 200.792 128.279 200.997 128.16Z" fill="#A7A9AC"/>
<path d="M208.845 123.188C208.784 123.153 208.785 123.038 208.847 122.932C208.91 122.826 209.009 122.769 209.07 122.805C209.131 122.84 209.13 122.955 209.068 123.061C209.006 123.167 208.906 123.224 208.845 123.188Z" fill="#939598"/>
<path d="M206.883 124.319C206.822 124.283 206.822 124.168 206.885 124.062C206.947 123.956 207.046 123.899 207.107 123.935C207.168 123.97 207.167 124.085 207.105 124.191C207.043 124.297 206.943 124.354 206.883 124.319Z" fill="#939598"/>
<path d="M204.919 125.451C204.858 125.416 204.859 125.301 204.921 125.195C204.983 125.089 205.083 125.032 205.144 125.067C205.204 125.103 205.204 125.218 205.141 125.324C205.079 125.43 204.98 125.487 204.919 125.451Z" fill="#939598"/>
<path d="M202.962 126.661C202.901 126.626 202.902 126.512 202.963 126.406C203.025 126.301 203.124 126.244 203.184 126.279C203.245 126.314 203.245 126.428 203.183 126.534C203.122 126.639 203.022 126.696 202.962 126.661Z" fill="#939598"/>
<path d="M200.995 127.711C200.934 127.675 200.935 127.561 200.997 127.455C201.059 127.349 201.159 127.291 201.22 127.327C201.281 127.363 201.28 127.477 201.218 127.583C201.156 127.689 201.056 127.746 200.995 127.711Z" fill="#939598"/>
<path d="M208.845 120.324C208.784 120.289 208.785 120.174 208.846 120.069C208.908 119.963 209.007 119.906 209.068 119.941C209.129 119.977 209.128 120.091 209.066 120.196C209.005 120.302 208.906 120.359 208.845 120.324Z" fill="#939598"/>
<path d="M206.883 121.529C206.822 121.493 206.822 121.379 206.885 121.273C206.947 121.167 207.046 121.11 207.107 121.145C207.168 121.181 207.167 121.295 207.105 121.401C207.043 121.507 206.943 121.565 206.883 121.529Z" fill="#939598"/>
<path d="M204.92 122.659C204.859 122.623 204.86 122.509 204.922 122.403C204.984 122.297 205.084 122.239 205.145 122.275C205.206 122.311 205.205 122.425 205.143 122.531C205.081 122.637 204.981 122.694 204.92 122.659Z" fill="#939598"/>
<path d="M202.959 123.791C202.898 123.756 202.899 123.641 202.961 123.535C203.023 123.429 203.123 123.372 203.184 123.408C203.245 123.443 203.244 123.558 203.182 123.664C203.12 123.77 203.02 123.827 202.959 123.791Z" fill="#939598"/>
<path d="M200.995 124.921C200.934 124.886 200.935 124.771 200.997 124.665C201.059 124.559 201.159 124.502 201.22 124.537C201.281 124.573 201.28 124.688 201.218 124.794C201.156 124.9 201.056 124.957 200.995 124.921Z" fill="#939598"/>
<path d="M157.535 99.9573L188.066 117.557L195.165 121.65C195.965 122.085 196.862 122.309 197.772 122.302V160.337C196.862 160.346 195.964 160.122 195.165 159.685L157.535 138.002C156.787 137.572 156.404 137.024 156.404 136.499V98.4756C156.404 98.9883 156.79 99.5395 157.535 99.9573ZM161.514 137.649C161.536 138.019 161.644 138.378 161.831 138.698C162.017 139.018 162.275 139.29 162.586 139.492L188.291 154.31C188.885 154.65 189.363 154.375 189.363 153.699V124.257C189.342 123.888 189.233 123.528 189.047 123.207C188.861 122.887 188.602 122.614 188.291 122.411L162.586 107.594C161.992 107.253 161.514 107.529 161.514 108.205V137.649Z" fill="url(#paint9_linear_681_21090)"/>
<path d="M151.972 134.7L157.563 137.983V99.9756L151.885 96.7737L151.972 134.7Z" fill="#F1F2F2"/>
<path d="M157.555 99.9944L200.295 75.2484L194.077 71.969L151.886 96.7986L157.555 99.9944Z" fill="#F8F8F9"/>
<path d="M282.714 142.845L284.361 141.894L277.81 138.12L276.163 139.068L282.714 142.845Z" fill="#4F4F51"/>
<path d="M275.104 138.439L276.751 137.488L270.2 133.711L268.553 134.662L275.104 138.439Z" fill="#4F4F51"/>
<path d="M282.714 144.345L284.361 143.394L277.81 139.617L276.163 140.568L282.714 144.345Z" fill="#4F4F51"/>
<path d="M275.104 139.939L276.751 138.988L270.2 135.211L268.553 136.162L275.104 139.939Z" fill="#4F4F51"/>
<path d="M282.714 145.845L284.361 144.894L277.81 141.121L276.163 142.069L282.714 145.845Z" fill="#4F4F51"/>
<path d="M275.104 141.439L276.751 140.488L270.2 136.712L268.553 137.663L275.104 141.439Z" fill="#4F4F51"/>
<path d="M282.714 147.345L284.361 146.395L277.81 142.618L276.163 143.569L282.714 147.345Z" fill="#4F4F51"/>
<path d="M275.104 142.939L276.751 141.988L270.2 138.212L268.553 139.163L275.104 142.939Z" fill="#4F4F51"/>
<path d="M282.714 148.846L284.361 147.895L277.81 144.121L276.163 145.069L282.714 148.846Z" fill="#4F4F51"/>
<path d="M275.104 144.44L276.751 143.489L270.2 139.712L268.553 140.663L275.104 144.44Z" fill="#4F4F51"/>
<path d="M282.714 150.346L284.361 149.395L277.81 145.618L276.163 146.569L282.714 150.346Z" fill="#4F4F51"/>
<path d="M275.104 145.94L276.751 144.989L270.2 141.212L268.553 142.163L275.104 145.94Z" fill="#4F4F51"/>
<path d="M282.714 151.846L284.361 150.895L277.81 147.121L276.163 148.069L282.714 151.846Z" fill="#4F4F51"/>
<path d="M275.104 147.44L276.751 146.489L270.2 142.712L268.553 143.663L275.104 147.44Z" fill="#4F4F51"/>
<path d="M282.714 153.346L284.361 152.395L277.81 148.618L276.163 149.569L282.714 153.346Z" fill="#4F4F51"/>
<path d="M275.104 148.94L276.751 147.989L270.2 144.212L268.553 145.163L275.104 148.94Z" fill="#4F4F51"/>
<path d="M282.714 154.846L284.361 153.895L277.81 150.121L276.163 151.069L282.714 154.846Z" fill="#4F4F51"/>
<path d="M275.104 150.44L276.751 149.489L270.2 145.712L268.553 146.663L275.104 150.44Z" fill="#4F4F51"/>
<path d="M282.714 156.346L284.361 155.395L277.81 151.619L276.163 152.569L282.714 156.346Z" fill="#4F4F51"/>
<path d="M275.104 151.941L276.751 150.99L270.2 147.213L268.553 148.164L275.104 151.941Z" fill="#4F4F51"/>
<path d="M282.714 157.846L284.361 156.895L277.81 153.122L276.163 154.069L282.714 157.846Z" fill="#4F4F51"/>
<path d="M275.104 153.441L276.751 152.49L270.2 148.713L268.553 149.664L275.104 153.441Z" fill="#4F4F51"/>
<path d="M282.714 159.347L284.361 158.396L277.81 154.622L276.163 155.57L282.714 159.347Z" fill="#4F4F51"/>
<path d="M275.104 154.941L276.751 153.99L270.2 150.213L268.553 151.164L275.104 154.941Z" fill="#4F4F51"/>
<path d="M282.714 160.847L284.361 159.896L277.81 156.119L276.163 157.07L282.714 160.847Z" fill="#4F4F51"/>
<path d="M275.104 156.441L276.751 155.49L270.2 151.713L268.553 152.664L275.104 156.441Z" fill="#4F4F51"/>
<path d="M266.444 151.932L282.923 161.432V142.553L266.444 133.053V151.932Z" fill="#58595B"/>
<path d="M262.974 154.093L279.454 163.593V144.711L262.974 135.211V154.093Z" fill="#4F4F51"/>
<path d="M282.923 142.553L279.454 144.711V163.593L282.923 161.432V142.553Z" fill="#757679"/>
<path d="M266.444 133.053L262.974 135.211L279.454 144.711L282.923 142.553L266.444 133.053Z" fill="#8F9194"/>
<path d="M263.794 109.611L265.441 108.66L258.891 104.884L257.243 105.834L263.794 109.611Z" fill="#4F4F51"/>
<path d="M256.184 105.202L257.832 104.254L251.281 100.478L249.633 101.428L256.184 105.202Z" fill="#4F4F51"/>
<path d="M263.794 111.111L265.441 110.16L258.891 106.384L257.243 107.334L263.794 111.111Z" fill="#4F4F51"/>
<path d="M256.184 106.702L257.832 105.754L251.281 101.978L249.633 102.928L256.184 106.702Z" fill="#4F4F51"/>
<path d="M263.794 112.611L265.441 111.661L258.891 107.884L257.243 108.835L263.794 112.611Z" fill="#4F4F51"/>
<path d="M256.184 108.202L257.832 107.255L251.281 103.478L249.633 104.429L256.184 108.202Z" fill="#4F4F51"/>
<path d="M263.794 114.111L265.441 113.161L258.891 109.384L257.243 110.335L263.794 114.111Z" fill="#4F4F51"/>
<path d="M256.184 109.703L257.832 108.755L251.281 104.978L249.633 105.929L256.184 109.703Z" fill="#4F4F51"/>
<path d="M263.794 115.612L265.441 114.661L258.891 110.884L257.243 111.835L263.794 115.612Z" fill="#4F4F51"/>
<path d="M256.184 111.203L257.832 110.255L251.281 106.478L249.633 107.429L256.184 111.203Z" fill="#4F4F51"/>
<path d="M263.794 117.112L265.441 116.161L258.891 112.384L257.243 113.335L263.794 117.112Z" fill="#4F4F51"/>
<path d="M256.184 112.703L257.832 111.755L251.281 107.978L249.633 108.929L256.184 112.703Z" fill="#4F4F51"/>
<path d="M263.794 118.612L265.441 117.661L258.891 113.884L257.243 114.835L263.794 118.612Z" fill="#4F4F51"/>
<path d="M256.184 114.203L257.832 113.255L251.281 109.478L249.633 110.429L256.184 114.203Z" fill="#4F4F51"/>
<path d="M263.794 120.112L265.441 119.161L258.891 115.385L257.243 116.335L263.794 120.112Z" fill="#4F4F51"/>
<path d="M256.184 115.703L257.832 114.755L251.281 110.979L249.633 111.929L256.184 115.703Z" fill="#4F4F51"/>
<path d="M263.794 121.612L265.441 120.662L258.891 116.885L257.243 117.836L263.794 121.612Z" fill="#4F4F51"/>
<path d="M256.184 117.203L257.832 116.256L251.281 112.479L249.633 113.43L256.184 117.203Z" fill="#4F4F51"/>
<path d="M263.794 123.112L265.441 122.162L258.891 118.385L257.243 119.336L263.794 123.112Z" fill="#4F4F51"/>
<path d="M256.184 118.703L257.832 117.756L251.281 113.979L249.633 114.93L256.184 118.703Z" fill="#4F4F51"/>
<path d="M263.794 124.613L265.441 123.662L258.891 119.885L257.243 120.836L263.794 124.613Z" fill="#4F4F51"/>
<path d="M256.184 120.204L257.832 119.256L251.281 115.479L249.633 116.43L256.184 120.204Z" fill="#4F4F51"/>
<path d="M263.794 126.113L265.441 125.162L258.891 121.385L257.243 122.336L263.794 126.113Z" fill="#4F4F51"/>
<path d="M256.184 121.704L257.832 120.756L251.281 116.979L249.633 117.93L256.184 121.704Z" fill="#4F4F51"/>
<path d="M263.794 127.613L265.441 126.662L258.891 122.885L257.243 123.836L263.794 127.613Z" fill="#4F4F51"/>
<path d="M256.184 123.204L257.832 122.256L251.281 118.479L249.633 119.43L256.184 123.204Z" fill="#4F4F51"/>
<path d="M247.524 118.698L264.004 128.198V109.316L247.524 99.8159V118.698Z" fill="#58595B"/>
<path d="M244.055 120.859L260.535 130.359V111.478L244.055 101.978V120.859Z" fill="#4F4F51"/>
<path d="M264.004 109.316L260.535 111.478V130.359L264.004 128.198V109.316Z" fill="#757679"/>
<path d="M247.524 99.8159L244.055 101.978L260.535 111.478L264.004 109.316L247.524 99.8159Z" fill="#8F9194"/>
<path d="M282.714 120.357L284.361 119.406L277.81 115.633L276.163 116.58L282.714 120.357Z" fill="#4F4F51"/>
<path d="M275.104 115.951L276.751 115L270.2 111.224L268.553 112.174L275.104 115.951Z" fill="#4F4F51"/>
<path d="M282.714 121.858L284.361 120.907L277.81 117.133L276.163 118.081L282.714 121.858Z" fill="#4F4F51"/>
<path d="M275.104 117.452L276.751 116.501L270.2 112.724L268.553 113.675L275.104 117.452Z" fill="#4F4F51"/>
<path d="M282.714 123.358L284.361 122.407L277.81 118.633L276.163 119.581L282.714 123.358Z" fill="#4F4F51"/>
<path d="M275.104 118.952L276.751 118.001L270.2 114.224L268.553 115.175L275.104 118.952Z" fill="#4F4F51"/>
<path d="M282.714 124.858L284.361 123.907L277.81 120.133L276.163 121.081L282.714 124.858Z" fill="#4F4F51"/>
<path d="M275.104 120.452L276.751 119.501L270.2 115.724L268.553 116.675L275.104 120.452Z" fill="#4F4F51"/>
<path d="M282.714 126.358L284.361 125.407L277.81 121.633L276.163 122.581L282.714 126.358Z" fill="#4F4F51"/>
<path d="M275.104 121.952L276.751 121.001L270.2 117.224L268.553 118.175L275.104 121.952Z" fill="#4F4F51"/>
<path d="M282.714 127.858L284.361 126.907L277.81 123.133L276.163 124.081L282.714 127.858Z" fill="#4F4F51"/>
<path d="M275.104 123.452L276.751 122.501L270.2 118.724L268.553 119.675L275.104 123.452Z" fill="#4F4F51"/>
<path d="M282.714 129.358L284.361 128.407L277.81 124.634L276.163 125.581L282.714 129.358Z" fill="#4F4F51"/>
<path d="M275.104 124.952L276.751 124.001L270.2 120.225L268.553 121.175L275.104 124.952Z" fill="#4F4F51"/>
<path d="M282.714 130.858L284.361 129.908L277.81 126.134L276.163 127.082L282.714 130.858Z" fill="#4F4F51"/>
<path d="M275.104 126.452L276.751 125.502L270.2 121.725L268.553 122.676L275.104 126.452Z" fill="#4F4F51"/>
<path d="M282.714 132.358L284.361 131.408L277.81 127.634L276.163 128.582L282.714 132.358Z" fill="#4F4F51"/>
<path d="M275.104 127.953L276.751 127.002L270.2 123.225L268.553 124.176L275.104 127.953Z" fill="#4F4F51"/>
<path d="M282.714 133.859L284.361 132.908L277.81 129.134L276.163 130.082L282.714 133.859Z" fill="#4F4F51"/>
<path d="M275.104 129.453L276.751 128.502L270.2 124.725L268.553 125.676L275.104 129.453Z" fill="#4F4F51"/>
<path d="M282.714 135.359L284.361 134.408L277.81 130.634L276.163 131.582L282.714 135.359Z" fill="#4F4F51"/>
<path d="M275.104 130.953L276.751 130.002L270.2 126.225L268.553 127.176L275.104 130.953Z" fill="#4F4F51"/>
<path d="M282.714 136.859L284.361 135.908L277.81 132.134L276.163 133.082L282.714 136.859Z" fill="#4F4F51"/>
<path d="M275.104 132.453L276.751 131.502L270.2 127.726L268.553 128.676L275.104 132.453Z" fill="#4F4F51"/>
<path d="M282.714 138.359L284.361 137.408L277.81 133.635L276.163 134.582L282.714 138.359Z" fill="#4F4F51"/>
<path d="M275.104 133.953L276.751 133.002L270.2 129.226L268.553 130.176L275.104 133.953Z" fill="#4F4F51"/>
<path d="M266.444 129.444L282.923 138.944V120.062L266.444 110.565V129.444Z" fill="#58595B"/>
<path d="M262.974 131.606L279.454 141.106V122.224L262.974 112.724V131.606Z" fill="#4F4F51"/>
<path d="M282.923 120.062L279.454 122.224V141.106L282.923 138.944V120.062Z" fill="#757679"/>
<path d="M266.444 110.565L262.974 112.724L279.454 122.224L282.923 120.062L266.444 110.565Z" fill="#8F9194"/>
<path d="M200.608 124.817L231.018 142.343L238.089 146.424C238.885 146.858 239.779 147.082 240.686 147.074C241.382 147.093 242.071 146.936 242.688 146.616L250.354 142.186L281.096 124.468C281.628 124.173 281.891 123.748 281.891 123.316C281.891 122.794 281.51 122.244 280.764 121.816L243.268 100.215C241.908 99.429 239.849 99.3286 238.672 100.023L200.262 122.171C199.1 122.844 199.248 124.031 200.608 124.817Z" fill="#F1F2F2"/>
<path d="M240.683 147.071V184.973C241.376 184.993 242.061 184.836 242.677 184.519L281.09 162.371C281.625 162.075 281.885 161.65 281.885 161.219V123.319C281.885 123.75 281.625 124.164 281.09 124.471L250.352 142.189L242.683 146.619C242.065 146.937 241.377 147.092 240.683 147.071Z" fill="url(#paint10_linear_681_21090)"/>
<path d="M199.482 123.319V161.222C199.482 161.742 199.863 162.288 200.608 162.716L238.09 184.324C238.885 184.759 239.78 184.982 240.687 184.973V147.071C239.78 147.08 238.885 146.856 238.09 146.421L231.018 142.343L200.608 124.817C199.863 124.388 199.482 123.839 199.482 123.319Z" fill="url(#paint11_linear_681_21090)"/>
<path d="M195.086 160.782L200.883 164.087V124.973L195 121.549L195.086 160.782Z" fill="#F1F2F2"/>
<path d="M200.883 124.973L243.475 100.3L237.684 96.7979L195 121.549L200.883 124.973Z" fill="#F8F8F9"/>
<path d="M202.2 161.895L233.636 180.018V171.014L202.2 152.888V161.895Z" fill="#1651A4"/>
<path d="M202.2 152.888L183.463 173.265V175.515L202.2 161.895V152.888Z" fill="#15498D"/>
<path d="M183.463 175.515L214.902 193.638V191.388L183.463 173.265V175.515Z" fill="#124C92"/>
<path d="M233.636 171.014L214.902 191.388V193.638L233.636 180.018V171.014Z" fill="#2163B3"/>
<path d="M214.902 191.388L233.636 171.014L202.2 152.888L183.463 173.265L214.902 191.388Z" fill="#307FE2"/>
<path d="M202.2 150.423L233.636 168.546V159.542L202.2 141.419V150.423Z" fill="#1651A4"/>
<path d="M202.2 141.419L183.463 161.792V164.042L202.2 150.423V141.419Z" fill="#15498D"/>
<path d="M183.463 164.042L214.902 182.165V179.915L183.463 161.792V164.042Z" fill="#124C92"/>
<g filter="url(#filter14_f_681_21090)">
<path d="M229.648 171.184L201.657 155.035L187.984 171.532L215.975 187.681L229.648 171.184Z" fill="#144C90"/>
</g>
<path d="M233.636 159.542L214.902 179.915V182.165L233.636 168.546V159.542Z" fill="#2163B3"/>
<path d="M214.902 179.915L233.636 159.542L202.2 141.419L183.463 161.792L214.902 179.915Z" fill="#307FE2"/>
<path d="M202.2 138.95L233.636 157.073V148.069L202.2 129.946V138.95Z" fill="#1651A4"/>
<g filter="url(#filter15_f_681_21090)">
<path d="M229.648 159.091L201.657 142.942L187.984 159.439L215.975 175.588L229.648 159.091Z" fill="#144C90"/>
</g>
<path d="M202.2 129.946L183.463 150.319V152.57L202.2 138.95V129.946Z" fill="#15498D"/>
<path d="M183.463 152.57L214.902 170.696V168.442L183.463 150.319V152.57Z" fill="#124C92"/>
<path d="M233.636 148.069L214.902 168.442V170.695L233.636 157.073V148.069Z" fill="#2163B3"/>
<path d="M214.902 168.442L233.636 148.069L202.2 129.946L183.463 150.319L214.902 168.442Z" fill="#307FE2"/>
<path d="M325.86 167.883L327.506 166.933L320.962 163.163L319.316 164.11L325.86 167.883Z" fill="#4F4F51"/>
<path d="M318.259 163.482L319.904 162.532L313.36 158.759L311.715 159.709L318.259 163.482Z" fill="#4F4F51"/>
<path d="M325.86 169.382L327.506 168.432L320.962 164.659L319.316 165.609L325.86 169.382Z" fill="#4F4F51"/>
<path d="M318.259 164.981L319.904 164.031L313.36 160.258L311.715 161.208L318.259 164.981Z" fill="#4F4F51"/>
<path d="M325.86 170.881L327.506 169.931L320.962 166.161L319.316 167.108L325.86 170.881Z" fill="#4F4F51"/>
<path d="M318.259 166.479L319.904 165.529L313.36 161.756L311.715 162.706L318.259 166.479Z" fill="#4F4F51"/>
<path d="M325.86 172.379L327.506 171.429L320.962 167.656L319.316 168.606L325.86 172.379Z" fill="#4F4F51"/>
<path d="M318.259 167.978L319.904 167.028L313.36 163.255L311.715 164.205L318.259 167.978Z" fill="#4F4F51"/>
<path d="M325.86 173.878L327.506 172.928L320.962 169.158L319.316 170.105L325.86 173.878Z" fill="#4F4F51"/>
<path d="M318.259 169.476L319.904 168.526L313.36 164.753L311.715 165.703L318.259 169.476Z" fill="#4F4F51"/>
<path d="M325.86 175.376L327.506 174.426L320.962 170.653L319.316 171.603L325.86 175.376Z" fill="#4F4F51"/>
<path d="M318.259 170.975L319.904 170.025L313.36 166.252L311.715 167.202L318.259 170.975Z" fill="#4F4F51"/>
<path d="M325.86 176.875L327.506 175.925L320.962 172.155L319.316 173.102L325.86 176.875Z" fill="#4F4F51"/>
<path d="M318.259 172.473L319.904 171.523L313.36 167.75L311.715 168.7L318.259 172.473Z" fill="#4F4F51"/>
<path d="M325.86 178.373L327.506 177.423L320.962 173.65L319.316 174.6L325.86 178.373Z" fill="#4F4F51"/>
<path d="M318.259 173.972L319.904 173.022L313.36 169.249L311.715 170.199L318.259 173.972Z" fill="#4F4F51"/>
<path d="M325.86 179.872L327.506 178.922L320.962 175.152L319.316 176.099L325.86 179.872Z" fill="#4F4F51"/>
<path d="M318.259 175.471L319.904 174.521L313.36 170.748L311.715 171.698L318.259 175.471Z" fill="#4F4F51"/>
<path d="M325.86 181.371L327.506 180.421L320.962 176.648L319.316 177.598L325.86 181.371Z" fill="#4F4F51"/>
<path d="M318.259 176.969L319.904 176.019L313.36 172.246L311.715 173.196L318.259 176.969Z" fill="#4F4F51"/>
<path d="M325.86 182.869L327.506 181.919L320.962 178.149L319.316 179.096L325.86 182.869Z" fill="#4F4F51"/>
<path d="M318.259 178.468L319.904 177.518L313.36 173.745L311.715 174.695L318.259 178.468Z" fill="#4F4F51"/>
<path d="M325.86 184.368L327.506 183.418L320.962 179.648L319.316 180.595L325.86 184.368Z" fill="#4F4F51"/>
<path d="M318.259 179.966L319.904 179.016L313.36 175.243L311.715 176.193L318.259 179.966Z" fill="#4F4F51"/>
<path d="M325.86 185.866L327.506 184.916L320.962 181.143L319.316 182.093L325.86 185.866Z" fill="#4F4F51"/>
<path d="M318.259 181.465L319.904 180.515L313.36 176.742L311.715 177.692L318.259 181.465Z" fill="#4F4F51"/>
<path d="M309.608 176.96L326.07 186.45V167.591L309.608 158.101V176.96Z" fill="#58595B"/>
<path d="M306.142 179.12L322.604 188.61V169.748L306.142 160.258V179.12Z" fill="#4F4F51"/>
<path d="M326.07 167.591L322.604 169.748V188.61L326.07 186.45V167.591Z" fill="#757679"/>
<path d="M309.608 158.101L306.142 160.258L322.604 169.748L326.07 167.591L309.608 158.101Z" fill="#8F9194"/>
<path d="M306.961 134.685L308.606 133.735L302.062 129.962L300.417 130.912L306.961 134.685Z" fill="#4F4F51"/>
<path d="M299.359 130.281L301.005 129.334L294.461 125.561L292.815 126.511L299.359 130.281Z" fill="#4F4F51"/>
<path d="M306.961 136.184L308.606 135.234L302.062 131.461L300.417 132.411L306.961 136.184Z" fill="#4F4F51"/>
<path d="M299.359 131.779L301.005 130.832L294.461 127.059L292.815 128.009L299.359 131.779Z" fill="#4F4F51"/>
<path d="M306.961 137.682L308.606 136.732L302.062 132.959L300.417 133.909L306.961 137.682Z" fill="#4F4F51"/>
<path d="M299.359 133.278L301.005 132.331L294.461 128.558L292.815 129.508L299.359 133.278Z" fill="#4F4F51"/>
<path d="M306.961 139.181L308.606 138.231L302.062 134.458L300.417 135.408L306.961 139.181Z" fill="#4F4F51"/>
<path d="M299.359 134.776L301.005 133.829L294.461 130.056L292.815 131.006L299.359 134.776Z" fill="#4F4F51"/>
<path d="M306.961 140.679L308.606 139.729L302.062 135.956L300.417 136.906L306.961 140.679Z" fill="#4F4F51"/>
<path d="M299.359 136.275L301.005 135.328L294.461 131.555L292.815 132.505L299.359 136.275Z" fill="#4F4F51"/>
<path d="M306.961 142.178L308.606 141.228L302.062 137.455L300.417 138.405L306.961 142.178Z" fill="#4F4F51"/>
<path d="M299.359 137.773L301.005 136.826L294.461 133.053L292.815 134.003L299.359 137.773Z" fill="#4F4F51"/>
<path d="M306.961 143.676L308.606 142.726L302.062 138.953L300.417 139.903L306.961 143.676Z" fill="#4F4F51"/>
<path d="M299.359 139.272L301.005 138.325L294.461 134.552L292.815 135.502L299.359 139.272Z" fill="#4F4F51"/>
<path d="M306.961 145.175L308.606 144.225L302.062 140.452L300.417 141.402L306.961 145.175Z" fill="#4F4F51"/>
<path d="M299.359 140.771L301.005 139.824L294.461 136.051L292.815 137.001L299.359 140.771Z" fill="#4F4F51"/>
<path d="M306.961 146.673L308.606 145.723L302.062 141.95L300.417 142.9L306.961 146.673Z" fill="#4F4F51"/>
<path d="M299.359 142.269L301.005 141.322L294.461 137.549L292.815 138.499L299.359 142.269Z" fill="#4F4F51"/>
<path d="M306.961 148.172L308.606 147.222L302.062 143.449L300.417 144.399L306.961 148.172Z" fill="#4F4F51"/>
<path d="M299.359 143.768L301.005 142.821L294.461 139.048L292.815 139.998L299.359 143.768Z" fill="#4F4F51"/>
<path d="M306.961 149.671L308.606 148.721L302.062 144.948L300.417 145.898L306.961 149.671Z" fill="#4F4F51"/>
<path d="M299.359 145.266L301.005 144.319L294.461 140.546L292.815 141.496L299.359 145.266Z" fill="#4F4F51"/>
<path d="M306.961 151.169L308.606 150.219L302.062 146.446L300.417 147.396L306.961 151.169Z" fill="#4F4F51"/>
<path d="M299.359 146.765L301.005 145.818L294.461 142.045L292.815 142.995L299.359 146.765Z" fill="#4F4F51"/>
<path d="M306.961 152.668L308.606 151.718L302.062 147.945L300.417 148.895L306.961 152.668Z" fill="#4F4F51"/>
<path d="M299.359 148.263L301.005 147.316L294.461 143.543L292.815 144.493L299.359 148.263Z" fill="#4F4F51"/>
<path d="M290.708 143.762L307.17 153.252V134.39L290.708 124.9V143.762Z" fill="#58595B"/>
<path d="M287.243 145.921L303.705 155.411V136.549L287.243 127.059V145.921Z" fill="#4F4F51"/>
<path d="M307.17 134.39L303.705 136.549V155.411L307.17 153.252V134.39Z" fill="#757679"/>
<path d="M290.708 124.9L287.243 127.059L303.705 136.549L307.17 134.39L290.708 124.9Z" fill="#8F9194"/>
<path d="M325.86 145.42L327.506 144.47L320.962 140.7L319.316 141.647L325.86 145.42Z" fill="#4F4F51"/>
<path d="M318.259 141.018L319.904 140.068L313.36 136.295L311.715 137.245L318.259 141.018Z" fill="#4F4F51"/>
<path d="M325.86 146.918L327.506 145.968L320.962 142.198L319.316 143.145L325.86 146.918Z" fill="#4F4F51"/>
<path d="M318.259 142.517L319.904 141.567L313.36 137.794L311.715 138.744L318.259 142.517Z" fill="#4F4F51"/>
<path d="M325.86 148.417L327.506 147.467L320.962 143.697L319.316 144.644L325.86 148.417Z" fill="#4F4F51"/>
<path d="M318.259 144.016L319.904 143.066L313.36 139.293L311.715 140.243L318.259 144.016Z" fill="#4F4F51"/>
<path d="M325.86 149.915L327.506 148.966L320.962 145.196L319.316 146.142L325.86 149.915Z" fill="#4F4F51"/>
<path d="M318.259 145.514L319.904 144.564L313.36 140.791L311.715 141.741L318.259 145.514Z" fill="#4F4F51"/>
<path d="M325.86 151.414L327.506 150.464L320.962 146.694L319.316 147.641L325.86 151.414Z" fill="#4F4F51"/>
<path d="M318.259 147.013L319.904 146.063L313.36 142.29L311.715 143.24L318.259 147.013Z" fill="#4F4F51"/>
<path d="M325.86 152.913L327.506 151.963L320.962 148.193L319.316 149.14L325.86 152.913Z" fill="#4F4F51"/>
<path d="M318.259 148.511L319.904 147.561L313.36 143.788L311.715 144.738L318.259 148.511Z" fill="#4F4F51"/>
<path d="M325.86 154.411L327.506 153.461L320.962 149.691L319.316 150.638L325.86 154.411Z" fill="#4F4F51"/>
<path d="M318.259 150.01L319.904 149.06L313.36 145.287L311.715 146.237L318.259 150.01Z" fill="#4F4F51"/>
<path d="M325.86 155.91L327.506 154.96L320.962 151.19L319.316 152.137L325.86 155.91Z" fill="#4F4F51"/>
<path d="M318.259 151.508L319.904 150.558L313.36 146.785L311.715 147.735L318.259 151.508Z" fill="#4F4F51"/>
<path d="M325.86 157.408L327.506 156.458L320.962 152.688L319.316 153.635L325.86 157.408Z" fill="#4F4F51"/>
<path d="M318.259 153.007L319.904 152.057L313.36 148.284L311.715 149.234L318.259 153.007Z" fill="#4F4F51"/>
<path d="M325.86 158.907L327.506 157.957L320.962 154.187L319.316 155.134L325.86 158.907Z" fill="#4F4F51"/>
<path d="M318.259 154.506L319.904 153.556L313.36 149.783L311.715 150.733L318.259 154.506Z" fill="#4F4F51"/>
<path d="M325.86 160.405L327.506 159.456L320.962 155.686L319.316 156.632L325.86 160.405Z" fill="#4F4F51"/>
<path d="M318.259 156.004L319.904 155.054L313.36 151.281L311.715 152.231L318.259 156.004Z" fill="#4F4F51"/>
<path d="M325.86 161.904L327.506 160.954L320.962 157.184L319.316 158.131L325.86 161.904Z" fill="#4F4F51"/>
<path d="M318.259 157.503L319.904 156.553L313.36 152.78L311.715 153.73L318.259 157.503Z" fill="#4F4F51"/>
<path d="M325.86 163.403L327.506 162.453L320.962 158.683L319.316 159.63L325.86 163.403Z" fill="#4F4F51"/>
<path d="M318.259 159.001L319.904 158.051L313.36 154.278L311.715 155.228L318.259 159.001Z" fill="#4F4F51"/>
<path d="M309.608 154.497L326.07 163.987V145.125L309.608 135.638V154.497Z" fill="#58595B"/>
<path d="M306.142 156.656L322.604 166.146V147.284L306.142 137.794V156.656Z" fill="#4F4F51"/>
<path d="M326.07 145.125L322.604 147.284V166.146L326.07 163.987V145.125Z" fill="#757679"/>
<path d="M309.608 135.638L306.142 137.794L322.604 147.284L326.07 145.125L309.608 135.638Z" fill="#8F9194"/>
<path d="M243.842 149.874L274.22 167.382L281.284 171.459C282.079 171.892 282.972 172.116 283.878 172.108C284.573 172.127 285.261 171.97 285.878 171.65L293.536 167.226L324.244 149.526C324.776 149.231 325.039 148.806 325.039 148.375C325.039 147.853 324.658 147.305 323.913 146.877L286.457 125.298C285.098 124.513 283.042 124.413 281.866 125.106L243.496 147.231C242.335 147.903 242.483 149.089 243.842 149.874Z" fill="#F1F2F2"/>
<path d="M283.875 172.105V209.967C284.566 209.986 285.252 209.83 285.866 209.513L324.238 187.388C324.773 187.093 325.033 186.669 325.033 186.238V148.378C325.033 148.809 324.773 149.222 324.238 149.529L293.533 167.229L285.872 171.653C285.255 171.971 284.568 172.126 283.875 172.105Z" fill="url(#paint12_linear_681_21090)"/>
<path d="M242.716 148.378V186.241C242.716 186.76 243.097 187.306 243.842 187.734L281.283 209.318C282.078 209.753 282.971 209.976 283.877 209.967V172.105C282.971 172.114 282.078 171.89 281.283 171.456L274.219 167.382L243.842 149.874C243.097 149.446 242.716 148.898 242.716 148.378Z" fill="url(#paint13_linear_681_21090)"/>
<path d="M238.326 185.801L244.117 189.102V150.03L238.246 146.458L238.326 185.801Z" fill="#F1F2F2"/>
<path d="M244.117 150.03L286.664 125.384L280.879 121.885L238.246 146.458L244.117 150.03Z" fill="#F8F8F9"/>
<path d="M245.432 186.914L276.834 205.017V196.023L245.432 177.916V186.914Z" fill="#1651A4"/>
<path d="M245.432 177.916L226.715 198.271V200.519L245.432 186.914V177.916Z" fill="#15498D"/>
<path d="M226.715 200.519L258.121 218.622V216.374L226.715 198.271V200.519Z" fill="#124C92"/>
<path d="M276.834 196.023L258.121 216.375V218.622L276.834 205.017V196.023Z" fill="#2163B3"/>
<path d="M258.121 216.375L276.834 196.023L245.432 177.916L226.715 198.271L258.121 216.375Z" fill="#307FE2"/>
<path d="M245.432 175.453L276.834 193.557V184.563L245.432 166.459V175.453Z" fill="#1651A4"/>
<path d="M245.432 166.459L226.715 186.81V189.058L245.432 175.453V166.459Z" fill="#15498D"/>
<path d="M226.715 189.058L258.121 207.162V204.914L226.715 186.81V189.058Z" fill="#124C92"/>
<g filter="url(#filter16_f_681_21090)">
<path d="M272.851 196.192L244.889 180.06L231.23 196.54L259.192 212.671L272.851 196.192Z" fill="#144C90"/>
</g>
<path d="M276.834 184.562L258.121 204.914V207.162L276.834 193.557V184.562Z" fill="#2163B3"/>
<path d="M258.121 204.914L276.834 184.562L245.432 166.459L226.715 186.81L258.121 204.914Z" fill="#307FE2"/>
<path d="M245.432 163.992L276.834 182.096V173.102L245.432 154.998V163.992Z" fill="#1651A4"/>
<g filter="url(#filter17_f_681_21090)">
<path d="M272.851 184.112L244.889 167.981L231.23 184.46L259.192 200.592L272.851 184.112Z" fill="#144C90"/>
</g>
<path d="M245.432 154.998L226.715 175.35V177.598L245.432 163.992V154.998Z" fill="#15498D"/>
<path d="M226.715 177.597L258.121 195.704V193.453L226.715 175.35V177.597Z" fill="#124C92"/>
<path d="M276.834 173.102L258.121 193.454V195.704L276.834 182.096V173.102Z" fill="#2163B3"/>
<path d="M258.121 193.453L276.834 173.102L245.432 154.998L226.715 175.35L258.121 193.453Z" fill="#307FE2"/>
<path d="M369.001 192.076L370.646 191.126L364.102 187.353L362.457 188.303L369.001 192.076Z" fill="#4F4F51"/>
<path d="M361.399 187.672L363.045 186.725L356.501 182.952L354.855 183.899L361.399 187.672Z" fill="#4F4F51"/>
<path d="M369.001 193.571L370.646 192.624L364.102 188.851L362.457 189.801L369.001 193.571Z" fill="#4F4F51"/>
<path d="M361.399 189.17L363.045 188.223L356.501 184.45L354.855 185.397L361.399 189.17Z" fill="#4F4F51"/>
<path d="M369.001 195.07L370.646 194.123L364.102 190.35L362.457 191.3L369.001 195.07Z" fill="#4F4F51"/>
<path d="M361.399 190.669L363.045 189.719L356.501 185.949L354.855 186.896L361.399 190.669Z" fill="#4F4F51"/>
<path d="M369.001 196.571L370.646 195.622L364.102 191.849L362.457 192.799L369.001 196.571Z" fill="#4F4F51"/>
<path d="M361.399 192.167L363.045 191.22L356.501 187.447L354.855 188.394L361.399 192.167Z" fill="#4F4F51"/>
<path d="M369.001 198.067L370.646 197.12L364.102 193.347L362.457 194.297L369.001 198.067Z" fill="#4F4F51"/>
<path d="M361.399 193.666L363.045 192.719L356.501 188.946L354.855 189.893L361.399 193.666Z" fill="#4F4F51"/>
<path d="M369.001 199.566L370.646 198.619L364.102 194.846L362.457 195.796L369.001 199.566Z" fill="#4F4F51"/>
<path d="M361.399 195.164L363.045 194.214L356.501 190.444L354.855 191.391L361.399 195.164Z" fill="#4F4F51"/>
<path d="M369.001 201.067L370.646 200.117L364.102 196.344L362.457 197.294L369.001 201.067Z" fill="#4F4F51"/>
<path d="M361.399 196.663L363.045 195.713L356.501 191.943L354.855 192.89L361.399 196.663Z" fill="#4F4F51"/>
<path d="M369.001 202.566L370.646 201.616L364.102 197.843L362.457 198.793L369.001 202.566Z" fill="#4F4F51"/>
<path d="M361.399 198.162L363.045 197.215L356.501 193.442L354.855 194.389L361.399 198.162Z" fill="#4F4F51"/>
<path d="M369.001 204.061L370.646 203.114L364.102 199.341L362.457 200.291L369.001 204.061Z" fill="#4F4F51"/>
<path d="M361.399 199.66L363.045 198.713L356.501 194.94L354.855 195.887L361.399 199.66Z" fill="#4F4F51"/>
<path d="M369.001 205.56L370.646 204.613L364.102 200.84L362.457 201.79L369.001 205.56Z" fill="#4F4F51"/>
<path d="M361.399 201.159L363.045 200.209L356.501 196.439L354.855 197.386L361.399 201.159Z" fill="#4F4F51"/>
<path d="M369.001 207.061L370.646 206.112L364.102 202.339L362.457 203.288L369.001 207.061Z" fill="#4F4F51"/>
<path d="M361.399 202.657L363.045 201.707L356.501 197.937L354.855 198.884L361.399 202.657Z" fill="#4F4F51"/>
<path d="M369.001 208.56L370.646 207.61L364.102 203.837L362.457 204.787L369.001 208.56Z" fill="#4F4F51"/>
<path d="M361.399 204.156L363.045 203.209L356.501 199.436L354.855 200.383L361.399 204.156Z" fill="#4F4F51"/>
<path d="M369.001 210.056L370.646 209.109L364.102 205.336L362.457 206.286L369.001 210.056Z" fill="#4F4F51"/>
<path d="M361.399 205.654L363.045 204.704L356.501 200.934L354.855 201.881L361.399 205.654Z" fill="#4F4F51"/>
<path d="M352.751 201.153L369.21 210.643V191.781L352.751 182.291V201.153Z" fill="#58595B"/>
<path d="M349.286 203.309L365.745 212.799V193.94L349.286 184.45V203.309Z" fill="#4F4F51"/>
<path d="M369.21 191.781L365.745 193.94V212.799L369.21 210.643V191.781Z" fill="#757679"/>
<path d="M352.751 182.291L349.286 184.45L365.745 193.94L369.21 191.781L352.751 182.291Z" fill="#8F9194"/>
<path d="M350.101 158.874L351.747 157.927L345.202 154.154L343.557 155.104L350.101 158.874Z" fill="#4F4F51"/>
<path d="M342.499 154.473L344.145 153.523L337.601 149.753L335.955 150.7L342.499 154.473Z" fill="#4F4F51"/>
<path d="M350.101 160.373L351.747 159.426L345.202 155.653L343.557 156.603L350.101 160.373Z" fill="#4F4F51"/>
<path d="M342.499 155.972L344.145 155.022L337.601 151.249L335.955 152.199L342.499 155.972Z" fill="#4F4F51"/>
<path d="M350.101 161.872L351.747 160.925L345.202 157.152L343.557 158.101L350.101 161.872Z" fill="#4F4F51"/>
<path d="M342.499 157.47L344.145 156.52L337.601 152.75L335.955 153.697L342.499 157.47Z" fill="#4F4F51"/>
<path d="M350.101 163.37L351.747 162.423L345.202 158.65L343.557 159.6L350.101 163.37Z" fill="#4F4F51"/>
<path d="M342.499 158.969L344.145 158.019L337.601 154.246L335.955 155.196L342.499 158.969Z" fill="#4F4F51"/>
<path d="M350.101 164.869L351.747 163.922L345.202 160.149L343.557 161.099L350.101 164.869Z" fill="#4F4F51"/>
<path d="M342.499 160.467L344.145 159.517L337.601 155.744L335.955 156.694L342.499 160.467Z" fill="#4F4F51"/>
<path d="M350.101 166.367L351.747 165.42L345.202 161.647L343.557 162.597L350.101 166.367Z" fill="#4F4F51"/>
<path d="M342.499 161.966L344.145 161.016L337.601 157.246L335.955 158.193L342.499 161.966Z" fill="#4F4F51"/>
<path d="M350.101 167.866L351.747 166.919L345.202 163.146L343.557 164.096L350.101 167.866Z" fill="#4F4F51"/>
<path d="M342.499 163.464L344.145 162.514L337.601 158.741L335.955 159.691L342.499 163.464Z" fill="#4F4F51"/>
<path d="M350.101 169.364L351.747 168.417L345.202 164.644L343.557 165.591L350.101 169.364Z" fill="#4F4F51"/>
<path d="M342.499 164.963L344.145 164.013L337.601 160.243L335.955 161.19L342.499 164.963Z" fill="#4F4F51"/>
<path d="M350.101 170.863L351.747 169.916L345.202 166.143L343.557 167.093L350.101 170.863Z" fill="#4F4F51"/>
<path d="M342.499 166.462L344.145 165.512L337.601 161.739L335.955 162.689L342.499 166.462Z" fill="#4F4F51"/>
<path d="M350.101 172.362L351.747 171.415L345.202 167.642L343.557 168.589L350.101 172.362Z" fill="#4F4F51"/>
<path d="M342.499 167.96L344.145 167.01L337.601 163.24L335.955 164.187L342.499 167.96Z" fill="#4F4F51"/>
<path d="M350.101 173.86L351.747 172.913L345.202 169.14L343.557 170.09L350.101 173.86Z" fill="#4F4F51"/>
<path d="M342.499 169.459L344.145 168.509L337.601 164.736L335.955 165.686L342.499 169.459Z" fill="#4F4F51"/>
<path d="M350.101 175.359L351.747 174.412L345.202 170.639L343.557 171.586L350.101 175.359Z" fill="#4F4F51"/>
<path d="M342.499 170.957L344.145 170.007L337.601 166.237L335.955 167.184L342.499 170.957Z" fill="#4F4F51"/>
<path d="M350.101 176.857L351.747 175.91L345.202 172.137L343.557 173.087L350.101 176.857Z" fill="#4F4F51"/>
<path d="M342.499 172.456L344.145 171.506L337.601 167.736L335.955 168.683L342.499 172.456Z" fill="#4F4F51"/>
<path d="M333.851 167.954L350.311 177.441V158.582L333.851 149.092V167.954Z" fill="#58595B"/>
<path d="M330.386 170.111L346.845 179.601V160.739L330.386 151.249V170.111Z" fill="#4F4F51"/>
<path d="M350.311 158.582L346.845 160.739V179.601L350.311 177.441V158.582Z" fill="#757679"/>
<path d="M333.851 149.092L330.386 151.249L346.845 160.739L350.311 158.582L333.851 149.092Z" fill="#8F9194"/>
<path d="M369.001 169.612L370.646 168.662L364.102 164.889L362.457 165.839L369.001 169.612Z" fill="#4F4F51"/>
<path d="M361.399 165.208L363.045 164.261L356.501 160.488L354.855 161.435L361.399 165.208Z" fill="#4F4F51"/>
<path d="M369.001 171.111L370.646 170.161L364.102 166.388L362.457 167.338L369.001 171.111Z" fill="#4F4F51"/>
<path d="M361.399 166.706L363.045 165.757L356.501 161.987L354.855 162.936L361.399 166.706Z" fill="#4F4F51"/>
<path d="M369.001 172.609L370.646 171.659L364.102 167.886L362.457 168.836L369.001 172.609Z" fill="#4F4F51"/>
<path d="M361.399 168.205L363.045 167.258L356.501 163.485L354.855 164.432L361.399 168.205Z" fill="#4F4F51"/>
<path d="M369.001 174.108L370.646 173.158L364.102 169.385L362.457 170.335L369.001 174.108Z" fill="#4F4F51"/>
<path d="M361.399 169.704L363.045 168.754L356.501 164.984L354.855 165.934L361.399 169.704Z" fill="#4F4F51"/>
<path d="M369.001 175.606L370.646 174.657L364.102 170.884L362.457 171.833L369.001 175.606Z" fill="#4F4F51"/>
<path d="M361.399 171.202L363.045 170.255L356.501 166.482L354.855 167.432L361.399 171.202Z" fill="#4F4F51"/>
<path d="M369.001 177.105L370.646 176.155L364.102 172.382L362.457 173.332L369.001 177.105Z" fill="#4F4F51"/>
<path d="M361.399 172.701L363.045 171.751L356.501 167.981L354.855 168.928L361.399 172.701Z" fill="#4F4F51"/>
<path d="M369.001 178.604L370.646 177.654L364.102 173.881L362.457 174.831L369.001 178.604Z" fill="#4F4F51"/>
<path d="M361.399 174.199L363.045 173.252L356.501 169.479L354.855 170.429L361.399 174.199Z" fill="#4F4F51"/>
<path d="M369.001 180.102L370.646 179.152L364.102 175.379L362.457 176.329L369.001 180.102Z" fill="#4F4F51"/>
<path d="M361.399 175.698L363.045 174.748L356.501 170.978L354.855 171.925L361.399 175.698Z" fill="#4F4F51"/>
<path d="M369.001 181.601L370.646 180.651L364.102 176.878L362.457 177.828L369.001 181.601Z" fill="#4F4F51"/>
<path d="M361.399 177.196L363.045 176.249L356.501 172.477L354.855 173.426L361.399 177.196Z" fill="#4F4F51"/>
<path d="M369.001 183.096L370.646 182.149L364.102 178.376L362.457 179.326L369.001 183.096Z" fill="#4F4F51"/>
<path d="M361.399 178.695L363.045 177.748L356.501 173.975L354.855 174.922L361.399 178.695Z" fill="#4F4F51"/>
<path d="M369.001 184.595L370.646 183.648L364.102 179.875L362.457 180.825L369.001 184.595Z" fill="#4F4F51"/>
<path d="M361.399 180.194L363.045 179.244L356.501 175.474L354.855 176.424L361.399 180.194Z" fill="#4F4F51"/>
<path d="M369.001 186.096L370.646 185.147L364.102 181.374L362.457 182.323L369.001 186.096Z" fill="#4F4F51"/>
<path d="M361.399 181.692L363.045 180.742L356.501 176.972L354.855 177.919L361.399 181.692Z" fill="#4F4F51"/>
<path d="M369.001 187.595L370.646 186.645L364.102 182.872L362.457 183.822L369.001 187.595Z" fill="#4F4F51"/>
<path d="M361.399 183.191L363.045 182.244L356.501 178.471L354.855 179.421L361.399 183.191Z" fill="#4F4F51"/>
<path d="M352.751 178.689L369.21 188.179V169.317L352.751 159.827V178.689Z" fill="#58595B"/>
<path d="M349.286 180.848L365.745 190.335V171.477L349.286 161.987V180.848Z" fill="#4F4F51"/>
<path d="M369.21 169.317L365.745 171.476V190.335L369.21 188.179V169.317Z" fill="#757679"/>
<path d="M352.751 159.827L349.286 161.987L365.745 171.476L369.21 169.317L352.751 159.827Z" fill="#8F9194"/>
<path d="M286.983 174.358L317.363 191.869L324.427 195.943C325.222 196.378 326.115 196.601 327.021 196.592C327.715 196.613 328.403 196.455 329.019 196.135L336.679 191.71L367.385 174.01C367.92 173.715 368.18 173.291 368.18 172.86C368.18 172.338 367.799 171.792 367.054 171.364L329.615 149.783C328.253 148.998 326.197 148.912 325.021 149.591L286.655 171.715C285.476 172.388 285.624 173.577 286.983 174.358Z" fill="#F1F2F2"/>
<path d="M327.015 196.589V234.452C327.705 234.472 328.389 234.315 329.001 233.997L367.379 211.873C367.914 211.578 368.174 211.153 368.174 210.722V172.866C368.174 173.296 367.914 173.709 367.379 174.016L336.674 191.716L329.013 196.141C328.396 196.459 327.709 196.613 327.015 196.589Z" fill="url(#paint14_linear_681_21090)"/>
<path d="M285.866 172.863V210.725C285.866 211.247 286.247 211.793 286.991 212.221L324.424 233.803C325.219 234.236 326.112 234.459 327.018 234.452V196.589C326.112 196.597 325.219 196.374 324.424 195.94L317.363 191.869L286.982 174.358C286.238 173.931 285.866 173.385 285.866 172.863Z" fill="url(#paint15_linear_681_21090)"/>
<path d="M329.592 230.522L330.307 231.027C330.555 231.204 330.871 231.062 331.273 230.829L337.897 227.038C339.123 226.316 339.329 226.192 339.329 224.82V200.176C339.329 199.802 339.406 198.884 338.724 198.884C338.489 198.874 338.254 198.908 338.032 198.985C338.219 199.199 338.367 199.445 338.47 199.71C338.487 199.797 338.495 199.885 338.493 199.973V224.145C338.493 225.431 338.233 225.658 337.164 226.31L331.069 229.894L330.478 230.251C330.339 230.332 330.19 230.395 330.035 230.44C329.819 230.493 329.757 230.617 329.592 230.522Z" fill="#E6E7E8"/>
<path d="M330.052 230.502L337.891 225.985C338.089 225.843 338.252 225.656 338.365 225.439C338.479 225.222 338.54 224.982 338.543 224.738V199.536C338.543 199.055 338.248 198.834 337.891 199.044L330.052 203.563C329.853 203.705 329.691 203.891 329.577 204.108C329.464 204.324 329.403 204.564 329.399 204.808V230.009C329.399 230.49 329.692 230.711 330.052 230.502Z" fill="url(#paint16_linear_681_21090)"/>
<path d="M329.934 202.179L338.012 197.524C338.119 197.454 338.208 197.359 338.272 197.248C338.336 197.137 338.373 197.012 338.381 196.884V193.719C338.381 193.486 338.212 193.389 338.012 193.507L329.934 198.165C329.827 198.234 329.737 198.328 329.673 198.439C329.609 198.55 329.572 198.674 329.565 198.802V201.967C329.565 202.2 329.73 202.297 329.934 202.179Z" fill="#A7A9AC"/>
<path d="M337.739 197.231C337.679 197.196 337.679 197.081 337.741 196.976C337.803 196.87 337.902 196.813 337.963 196.849C338.024 196.884 338.023 196.998 337.961 197.104C337.899 197.209 337.8 197.266 337.739 197.231Z" fill="#939598"/>
<path d="M335.787 198.353C335.726 198.317 335.727 198.203 335.789 198.098C335.85 197.992 335.95 197.935 336.01 197.971C336.071 198.006 336.07 198.12 336.008 198.226C335.946 198.331 335.847 198.388 335.787 198.353Z" fill="#939598"/>
<path d="M333.832 199.48C333.772 199.445 333.773 199.331 333.834 199.225C333.896 199.12 333.996 199.063 334.056 199.098C334.117 199.134 334.116 199.248 334.054 199.353C333.992 199.459 333.893 199.516 333.832 199.48Z" fill="#939598"/>
<path d="M332.988 200.733C332.928 200.698 332.928 200.584 332.99 200.479C333.051 200.374 333.15 200.317 333.21 200.353C333.27 200.388 333.27 200.501 333.208 200.606C333.147 200.712 333.049 200.768 332.988 200.733Z" fill="#939598"/>
<path d="M329.931 201.731C329.87 201.696 329.871 201.582 329.933 201.476C329.995 201.37 330.094 201.314 330.155 201.349C330.215 201.384 330.215 201.499 330.153 201.604C330.091 201.71 329.992 201.767 329.931 201.731Z" fill="#939598"/>
<path d="M337.741 194.451C337.68 194.416 337.681 194.302 337.743 194.196C337.804 194.091 337.904 194.034 337.964 194.069C338.025 194.105 338.024 194.219 337.962 194.324C337.901 194.43 337.801 194.487 337.741 194.451Z" fill="#939598"/>
<path d="M336.858 195.705C336.797 195.67 336.798 195.556 336.859 195.451C336.921 195.346 337.019 195.289 337.08 195.324C337.14 195.36 337.139 195.473 337.078 195.578C337.017 195.683 336.918 195.74 336.858 195.705Z" fill="#939598"/>
<path d="M333.833 196.701C333.773 196.665 333.774 196.551 333.835 196.445C333.897 196.34 333.997 196.283 334.057 196.318C334.118 196.354 334.117 196.468 334.055 196.574C333.993 196.679 333.894 196.736 333.833 196.701Z" fill="#939598"/>
<path d="M331.879 197.828C331.819 197.793 331.82 197.679 331.881 197.573C331.943 197.468 332.042 197.411 332.103 197.446C332.164 197.482 332.163 197.596 332.101 197.701C332.039 197.807 331.94 197.864 331.879 197.828Z" fill="#939598"/>
<path d="M329.932 198.955C329.871 198.919 329.872 198.805 329.934 198.699C329.996 198.594 330.095 198.537 330.156 198.572C330.216 198.608 330.216 198.722 330.154 198.828C330.092 198.933 329.993 198.99 329.932 198.955Z" fill="#939598"/>
<path d="M351.823 206.448C351.793 206.265 351.721 206.092 351.613 205.942C351.505 205.791 351.364 205.668 351.2 205.581L340.168 199.221L339.955 199.097C339.725 198.964 339.521 198.955 339.418 199.049L340.425 198.527C340.647 198.412 341.125 198.76 341.362 198.896L351.826 204.861C351.989 204.949 352.13 205.073 352.237 205.224C352.345 205.375 352.417 205.548 352.447 205.731L351.832 206.451" fill="#4F89C8"/>
<path d="M351.824 206.445V232.549C351.825 232.6 351.813 232.651 351.788 232.696L352.341 232.044C352.38 232.002 352.409 231.952 352.426 231.896C352.442 231.841 352.445 231.783 352.435 231.726V205.725L351.821 206.445" fill="#315B90"/>
<path d="M339.341 199.247V225.348C339.37 225.534 339.442 225.71 339.55 225.863C339.658 226.017 339.8 226.143 339.965 226.233L351.21 232.723C351.478 232.879 351.712 232.873 351.8 232.723C351.825 232.678 351.837 232.627 351.836 232.576V206.448C351.806 206.265 351.734 206.092 351.626 205.941C351.518 205.791 351.376 205.668 351.212 205.581L340.181 199.221L339.968 199.097C339.737 198.964 339.534 198.955 339.43 199.049L339.404 199.076C339.365 199.125 339.344 199.185 339.341 199.247Z" fill="#2A7DE1"/>
<path d="M280.976 210.053L286.767 213.357L286.982 174.359L280.976 171.279V210.053Z" fill="#F1F2F2"/>
<path d="M289.852 212.006L321.257 230.112V221.115L289.852 203.011V212.006Z" fill="#1651A4"/>
<path d="M289.851 203.011L271.138 223.363V225.614L289.851 212.006V203.011Z" fill="#15498D"/>
<path d="M271.138 225.614L302.543 243.718V241.47L271.138 223.363V225.614Z" fill="#124C92"/>
<path d="M321.257 221.115L302.544 241.47V243.717L321.257 230.112V221.115Z" fill="#2163B3"/>
<path d="M302.544 241.47L321.257 221.115L289.852 203.011L271.138 223.363L302.544 241.47Z" fill="#307FE2"/>
<g filter="url(#filter18_f_681_21090)">
<path d="M317.839 220.615L289.877 204.483L276.219 220.963L304.18 237.094L317.839 220.615Z" fill="#144C90"/>
</g>
<path d="M289.852 200.548L321.257 218.652V209.655L289.852 191.551V200.548Z" fill="#1651A4"/>
<path d="M289.851 191.551L271.138 211.905V214.153L289.851 200.548V191.551Z" fill="#15498D"/>
<path d="M271.138 214.153L302.543 232.257V230.009L271.138 211.905V214.153Z" fill="#124C92"/>
<path d="M321.257 209.655L302.544 230.009V232.257L321.257 218.652V209.655Z" fill="#2163B3"/>
<path d="M302.544 230.009L321.257 209.655L289.852 191.551L271.138 211.905L302.544 230.009Z" fill="#307FE2"/>
<path d="M289.852 189.087L321.257 207.191V198.194L289.852 180.09V189.087Z" fill="#1651A4"/>
<path d="M289.851 180.09L271.138 200.445V202.693L289.851 189.087V180.09Z" fill="#15498D"/>
<g filter="url(#filter19_f_681_21090)">
<path d="M317.839 208.536L289.877 192.404L276.219 208.883L304.18 225.015L317.839 208.536Z" fill="#144C90"/>
</g>
<path d="M271.138 202.693L302.543 220.796V218.549L271.138 200.445V202.693Z" fill="#124C92"/>
<path d="M321.257 198.194L302.544 218.548V220.796L321.257 207.191V198.194Z" fill="#2163B3"/>
<path d="M302.544 218.548L321.257 198.194L289.852 180.09L271.138 200.445L302.544 218.548Z" fill="#307FE2"/>
<path d="M286.983 174.359L329.314 149.635L323.243 146.49L280.976 171.279L286.983 174.359Z" fill="#F8F8F9"/>
<defs>
<filter id="filter0_f_681_21090" x="6.88818" y="15.2148" width="390.031" height="243.109" filterUnits="userSpaceOnUse" color-interpolation-filters="sRGB">
<feFlood flood-opacity="0" result="BackgroundImageFix"/>
<feBlend mode="normal" in="SourceGraphic" in2="BackgroundImageFix" result="shape"/>
<feGaussianBlur stdDeviation="11" result="effect1_foregroundBlur_681_21090"/>
</filter>
<filter id="filter1_f_681_21090" x="22.7354" y="33.6484" width="353.4" height="207.257" filterUnits="userSpaceOnUse" color-interpolation-filters="sRGB">
<feFlood flood-opacity="0" result="BackgroundImageFix"/>
<feBlend mode="normal" in="SourceGraphic" in2="BackgroundImageFix" result="shape"/>
<feGaussianBlur stdDeviation="3" result="effect1_foregroundBlur_681_21090"/>
</filter>
<filter id="filter2_f_681_21090" x="214.213" y="176.594" width="78.8589" height="56.0364" filterUnits="userSpaceOnUse" color-interpolation-filters="sRGB">
<feFlood flood-opacity="0" result="BackgroundImageFix"/>
<feBlend mode="normal" in="SourceGraphic" in2="BackgroundImageFix" result="shape"/>
<feGaussianBlur stdDeviation="6" result="effect1_foregroundBlur_681_21090"/>
</filter>
<filter id="filter3_f_681_21090" x="257.599" y="202.313" width="78.8589" height="56.0364" filterUnits="userSpaceOnUse" color-interpolation-filters="sRGB">
<feFlood flood-opacity="0" result="BackgroundImageFix"/>
<feBlend mode="normal" in="SourceGraphic" in2="BackgroundImageFix" result="shape"/>
<feGaussianBlur stdDeviation="6" result="effect1_foregroundBlur_681_21090"/>
</filter>
<filter id="filter4_f_681_21090" x="171.768" y="151.494" width="78.8589" height="56.0364" filterUnits="userSpaceOnUse" color-interpolation-filters="sRGB">
<feFlood flood-opacity="0" result="BackgroundImageFix"/>
<feBlend mode="normal" in="SourceGraphic" in2="BackgroundImageFix" result="shape"/>
<feGaussianBlur stdDeviation="6" result="effect1_foregroundBlur_681_21090"/>
</filter>
<filter id="filter5_f_681_21090" x="85.2822" y="101.917" width="78.8589" height="56.0364" filterUnits="userSpaceOnUse" color-interpolation-filters="sRGB">
<feFlood flood-opacity="0" result="BackgroundImageFix"/>
<feBlend mode="normal" in="SourceGraphic" in2="BackgroundImageFix" result="shape"/>
<feGaussianBlur stdDeviation="6" result="effect1_foregroundBlur_681_21090"/>
</filter>
<filter id="filter6_f_681_21090" x="42.813" y="78.3359" width="78.8589" height="56.0364" filterUnits="userSpaceOnUse" color-interpolation-filters="sRGB">
<feFlood flood-opacity="0" result="BackgroundImageFix"/>
<feBlend mode="normal" in="SourceGraphic" in2="BackgroundImageFix" result="shape"/>
<feGaussianBlur stdDeviation="6" result="effect1_foregroundBlur_681_21090"/>
</filter>
<filter id="filter7_f_681_21090" x="0.605957" y="54.4146" width="78.8589" height="56.0364" filterUnits="userSpaceOnUse" color-interpolation-filters="sRGB">
<feFlood flood-opacity="0" result="BackgroundImageFix"/>
<feBlend mode="normal" in="SourceGraphic" in2="BackgroundImageFix" result="shape"/>
<feGaussianBlur stdDeviation="6" result="effect1_foregroundBlur_681_21090"/>
</filter>
<filter id="filter8_f_681_21090" x="5.7251" y="44.8943" width="65.6201" height="56.6113" filterUnits="userSpaceOnUse" color-interpolation-filters="sRGB">
<feFlood flood-opacity="0" result="BackgroundImageFix"/>
<feBlend mode="normal" in="SourceGraphic" in2="BackgroundImageFix" result="shape"/>
<feGaussianBlur stdDeviation="6" result="effect1_foregroundBlur_681_21090"/>
</filter>
<filter id="filter9_f_681_21090" x="5.7251" y="32.8149" width="65.6201" height="56.6113" filterUnits="userSpaceOnUse" color-interpolation-filters="sRGB">
<feFlood flood-opacity="0" result="BackgroundImageFix"/>
<feBlend mode="normal" in="SourceGraphic" in2="BackgroundImageFix" result="shape"/>
<feGaussianBlur stdDeviation="6" result="effect1_foregroundBlur_681_21090"/>
</filter>
<filter id="filter10_f_681_21090" x="48.4497" y="69.3655" width="65.6201" height="56.6113" filterUnits="userSpaceOnUse" color-interpolation-filters="sRGB">
<feFlood flood-opacity="0" result="BackgroundImageFix"/>
<feBlend mode="normal" in="SourceGraphic" in2="BackgroundImageFix" result="shape"/>
<feGaussianBlur stdDeviation="6" result="effect1_foregroundBlur_681_21090"/>
</filter>
<filter id="filter11_f_681_21090" x="48.4497" y="57.2861" width="65.6201" height="56.6113" filterUnits="userSpaceOnUse" color-interpolation-filters="sRGB">
<feFlood flood-opacity="0" result="BackgroundImageFix"/>
<feBlend mode="normal" in="SourceGraphic" in2="BackgroundImageFix" result="shape"/>
<feGaussianBlur stdDeviation="6" result="effect1_foregroundBlur_681_21090"/>
</filter>
<filter id="filter12_f_681_21090" x="89.4907" y="93.1924" width="65.6201" height="56.6113" filterUnits="userSpaceOnUse" color-interpolation-filters="sRGB">
<feFlood flood-opacity="0" result="BackgroundImageFix"/>
<feBlend mode="normal" in="SourceGraphic" in2="BackgroundImageFix" result="shape"/>
<feGaussianBlur stdDeviation="6" result="effect1_foregroundBlur_681_21090"/>
</filter>
<filter id="filter13_f_681_21090" x="89.4907" y="81.113" width="65.6201" height="56.6113" filterUnits="userSpaceOnUse" color-interpolation-filters="sRGB">
<feFlood flood-opacity="0" result="BackgroundImageFix"/>
<feBlend mode="normal" in="SourceGraphic" in2="BackgroundImageFix" result="shape"/>
<feGaussianBlur stdDeviation="6" result="effect1_foregroundBlur_681_21090"/>
</filter>
<filter id="filter14_f_681_21090" x="175.983" y="143.035" width="65.6646" height="56.6458" filterUnits="userSpaceOnUse" color-interpolation-filters="sRGB">
<feFlood flood-opacity="0" result="BackgroundImageFix"/>
<feBlend mode="normal" in="SourceGraphic" in2="BackgroundImageFix" result="shape"/>
<feGaussianBlur stdDeviation="6" result="effect1_foregroundBlur_681_21090"/>
</filter>
<filter id="filter15_f_681_21090" x="175.983" y="130.942" width="65.6646" height="56.646" filterUnits="userSpaceOnUse" color-interpolation-filters="sRGB">
<feFlood flood-opacity="0" result="BackgroundImageFix"/>
<feBlend mode="normal" in="SourceGraphic" in2="BackgroundImageFix" result="shape"/>
<feGaussianBlur stdDeviation="6" result="effect1_foregroundBlur_681_21090"/>
</filter>
<filter id="filter16_f_681_21090" x="219.23" y="168.06" width="65.6201" height="56.6113" filterUnits="userSpaceOnUse" color-interpolation-filters="sRGB">
<feFlood flood-opacity="0" result="BackgroundImageFix"/>
<feBlend mode="normal" in="SourceGraphic" in2="BackgroundImageFix" result="shape"/>
<feGaussianBlur stdDeviation="6" result="effect1_foregroundBlur_681_21090"/>
</filter>
<filter id="filter17_f_681_21090" x="219.23" y="155.981" width="65.6201" height="56.6113" filterUnits="userSpaceOnUse" color-interpolation-filters="sRGB">
<feFlood flood-opacity="0" result="BackgroundImageFix"/>
<feBlend mode="normal" in="SourceGraphic" in2="BackgroundImageFix" result="shape"/>
<feGaussianBlur stdDeviation="6" result="effect1_foregroundBlur_681_21090"/>
</filter>
<filter id="filter18_f_681_21090" x="264.219" y="192.483" width="65.6201" height="56.6113" filterUnits="userSpaceOnUse" color-interpolation-filters="sRGB">
<feFlood flood-opacity="0" result="BackgroundImageFix"/>
<feBlend mode="normal" in="SourceGraphic" in2="BackgroundImageFix" result="shape"/>
<feGaussianBlur stdDeviation="6" result="effect1_foregroundBlur_681_21090"/>
</filter>
<filter id="filter19_f_681_21090" x="264.219" y="180.404" width="65.6201" height="56.6113" filterUnits="userSpaceOnUse" color-interpolation-filters="sRGB">
<feFlood flood-opacity="0" result="BackgroundImageFix"/>
<feBlend mode="normal" in="SourceGraphic" in2="BackgroundImageFix" result="shape"/>
<feGaussianBlur stdDeviation="6" result="effect1_foregroundBlur_681_21090"/>
</filter>
<linearGradient id="paint0_linear_681_21090" x1="83.014" y1="39.7273" x2="104.222" y2="82.6451" gradientUnits="userSpaceOnUse">
<stop stop-color="#D1D3D4"/>
<stop offset="0.94" stop-color="#BCBEC0"/>
</linearGradient>
<linearGradient id="paint1_linear_681_21090" x1="55.1124" y1="32.8716" x2="44.133" y2="79.4734" gradientUnits="userSpaceOnUse">
<stop offset="0.42" stop-color="#D1D3D4"/>
<stop offset="1" stop-color="#BCBEC0"/>
</linearGradient>
<linearGradient id="paint2_linear_681_21090" x1="-22884.6" y1="22485.2" x2="-17552.6" y2="29684.3" gradientUnits="userSpaceOnUse">
<stop stop-color="#D1D3D4"/>
<stop offset="0.94" stop-color="#BCBEC0"/>
</linearGradient>
<linearGradient id="paint3_linear_681_21090" x1="-26814.2" y1="21053.4" x2="-30038.2" y2="30184.1" gradientUnits="userSpaceOnUse">
<stop offset="0.42" stop-color="#D1D3D4"/>
<stop offset="1" stop-color="#BCBEC0"/>
</linearGradient>
<linearGradient id="paint4_linear_681_21090" x1="-22843.5" y1="22509" x2="-17511.5" y2="29708.2" gradientUnits="userSpaceOnUse">
<stop stop-color="#D1D3D4"/>
<stop offset="0.94" stop-color="#BCBEC0"/>
</linearGradient>
<linearGradient id="paint5_linear_681_21090" x1="-26773.2" y1="21077.2" x2="-29997.1" y2="30207.9" gradientUnits="userSpaceOnUse">
<stop offset="0.42" stop-color="#D1D3D4"/>
<stop offset="1" stop-color="#BCBEC0"/>
</linearGradient>
<linearGradient id="paint6_linear_681_21090" x1="163.925" y1="139.558" x2="174.904" y2="103.987" gradientUnits="userSpaceOnUse">
<stop stop-color="#BCBEC0"/>
<stop offset="1" stop-color="#6D6E71"/>
</linearGradient>
<linearGradient id="paint7_linear_681_21090" x1="-13125.4" y1="10328.1" x2="-11805.4" y2="6345.78" gradientUnits="userSpaceOnUse">
<stop stop-color="#BCBEC0"/>
<stop offset="1" stop-color="#6D6E71"/>
</linearGradient>
<linearGradient id="paint8_linear_681_21090" x1="210.532" y1="113.432" x2="231.831" y2="156.554" gradientUnits="userSpaceOnUse">
<stop stop-color="#D1D3D4"/>
<stop offset="0.94" stop-color="#BCBEC0"/>
</linearGradient>
<linearGradient id="paint9_linear_681_21090" x1="182.492" y1="106.548" x2="171.467" y2="153.362" gradientUnits="userSpaceOnUse">
<stop offset="0.42" stop-color="#D1D3D4"/>
<stop offset="1" stop-color="#BCBEC0"/>
</linearGradient>
<linearGradient id="paint10_linear_681_21090" x1="-22781.3" y1="22582.6" x2="-17443.7" y2="29789.4" gradientUnits="userSpaceOnUse">
<stop stop-color="#D1D3D4"/>
<stop offset="0.94" stop-color="#BCBEC0"/>
</linearGradient>
<linearGradient id="paint11_linear_681_21090" x1="-26715.2" y1="21149.3" x2="-29942.5" y2="30289.7" gradientUnits="userSpaceOnUse">
<stop offset="0.42" stop-color="#D1D3D4"/>
<stop offset="1" stop-color="#BCBEC0"/>
</linearGradient>
<linearGradient id="paint12_linear_681_21090" x1="-22713.8" y1="22583.9" x2="-17381.8" y2="29783" gradientUnits="userSpaceOnUse">
<stop stop-color="#D1D3D4"/>
<stop offset="0.94" stop-color="#BCBEC0"/>
</linearGradient>
<linearGradient id="paint13_linear_681_21090" x1="-26643.5" y1="21152.1" x2="-29867.4" y2="30282.8" gradientUnits="userSpaceOnUse">
<stop offset="0.42" stop-color="#D1D3D4"/>
<stop offset="1" stop-color="#BCBEC0"/>
</linearGradient>
<linearGradient id="paint14_linear_681_21090" x1="-16660.3" y1="27719.2" x2="-11328.5" y2="34918.8" gradientUnits="userSpaceOnUse">
<stop stop-color="#D1D3D4"/>
<stop offset="0.94" stop-color="#BCBEC0"/>
</linearGradient>
<linearGradient id="paint15_linear_681_21090" x1="-20585.4" y1="26288.5" x2="-23809.9" y2="35419.4" gradientUnits="userSpaceOnUse">
<stop offset="0.42" stop-color="#D1D3D4"/>
<stop offset="1" stop-color="#BCBEC0"/>
</linearGradient>
<linearGradient id="paint16_linear_681_21090" x1="317.65" y1="230.036" x2="337.354" y2="211.554" gradientUnits="userSpaceOnUse">
<stop stop-color="#BCBEC0"/>
<stop offset="1" stop-color="#6D6E71"/>
</linearGradient>
</defs>
</svg>
