<svg xmlns="http://www.w3.org/2000/svg" width="189.39" height="140.75" xmlns:xlink="http://www.w3.org/1999/xlink"><defs><linearGradient id="a" x1="-21.17" y1="14.81" x2="-41.06" y2="54.99" gradientTransform="matrix(-1 0 0 1 9.7 0)" gradientUnits="userSpaceOnUse"><stop offset="0" stop-color="#ced1d2"/><stop offset=".94" stop-color="#b9bbbd"/></linearGradient><linearGradient id="c" x1="-62.31" y1="37.98" x2="-80.8" y2="75.33" xlink:href="#a"/><linearGradient id="b" x1="-34.52" y1="29.26" x2="-24.14" y2="73.24" gradientTransform="matrix(-1 0 0 1 9.7 0)" gradientUnits="userSpaceOnUse"><stop offset=".42" stop-color="#ced1d2"/><stop offset="1" stop-color="#b9bbbd"/></linearGradient><linearGradient id="d" x1="-85.79" y1="13.88" x2="-67.48" y2="13.88" gradientTransform="scale(-1 1) rotate(-1.04 878.3166 171.0531)" xlink:href="#a"/><linearGradient id="e" x1="-65.43" y1="23.03" x2="-56.13" y2="23.03" gradientTransform="scale(-1 1) rotate(-1.04 878.3166 171.0531)" xlink:href="#a"/><linearGradient id="f" x1="-92.29" y1="6.22" x2="-87.5" y2="6.22" gradientTransform="scale(-1 1) rotate(-1.04 878.3166 171.0531)" xlink:href="#a"/><linearGradient id="g" x1="-83.18" y1="12.46" x2="-64.88" y2="12.46" gradientTransform="scale(-1 1) rotate(-1.04 878.3166 171.0531)" xlink:href="#a"/><linearGradient id="h" x1="-62.82" y1="21.62" x2="-53.52" y2="21.62" gradientTransform="scale(-1 1) rotate(-1.04 878.3166 171.0531)" xlink:href="#a"/><linearGradient id="i" x1="-89.68" y1="4.81" x2="-84.89" y2="4.81" gradientTransform="scale(-1 1) rotate(-1.04 878.3166 171.0531)" xlink:href="#a"/><linearGradient id="j" x1="-80.58" y1="11.05" x2="-62.27" y2="11.05" gradientTransform="scale(-1 1) rotate(-1.04 878.3166 171.0531)" xlink:href="#a"/><linearGradient id="k" x1="-60.22" y1="20.2" x2="-50.92" y2="20.2" gradientTransform="scale(-1 1) rotate(-1.04 878.3166 171.0531)" xlink:href="#a"/><linearGradient id="l" x1="-87.08" y1="3.39" x2="-82.28" y2="3.39" gradientTransform="scale(-1 1) rotate(-1.04 878.3166 171.0531)" xlink:href="#a"/><linearGradient id="m" x1="-77.97" y1="9.63" x2="-59.66" y2="9.63" gradientTransform="scale(-1 1) rotate(-1.04 878.3166 171.0531)" xlink:href="#a"/><linearGradient id="n" x1="-57.61" y1="18.79" x2="-48.31" y2="18.79" gradientTransform="scale(-1 1) rotate(-1.04 878.3166 171.0531)" xlink:href="#a"/><linearGradient id="o" x1="-84.47" y1="1.98" x2="-79.68" y2="1.98" gradientTransform="scale(-1 1) rotate(-1.04 878.3166 171.0531)" xlink:href="#a"/><linearGradient id="p" x1="-75.37" y1="8.22" x2="-57.06" y2="8.22" gradientTransform="scale(-1 1) rotate(-1.04 878.3166 171.0531)" xlink:href="#a"/><linearGradient id="q" x1="-55" y1="17.38" x2="-45.71" y2="17.38" gradientTransform="scale(-1 1) rotate(-1.04 878.3166 171.0531)" xlink:href="#a"/><linearGradient id="r" x1="-81.87" y1=".57" x2="-77.07" y2=".57" gradientTransform="scale(-1 1) rotate(-1.04 878.3166 171.0531)" xlink:href="#a"/><linearGradient id="s" x1="-72.76" y1="6.81" x2="-54.45" y2="6.81" gradientTransform="scale(-1 1) rotate(-1.04 878.3166 171.0531)" xlink:href="#a"/><linearGradient id="t" x1="-52.4" y1="15.96" x2="-43.1" y2="15.96" gradientTransform="scale(-1 1) rotate(-1.04 878.3166 171.0531)" xlink:href="#a"/><linearGradient id="u" x1="-79.26" y1="-.85" x2="-74.47" y2="-.85" gradientTransform="scale(-1 1) rotate(-1.04 878.3166 171.0531)" xlink:href="#a"/><linearGradient id="v" x1="-70.16" y1="5.39" x2="-51.85" y2="5.39" gradientTransform="scale(-1 1) rotate(-1.04 878.3166 171.0531)" xlink:href="#a"/><linearGradient id="w" x1="-49.79" y1="14.55" x2="-40.49" y2="14.55" gradientTransform="scale(-1 1) rotate(-1.04 878.3166 171.0531)" xlink:href="#a"/><linearGradient id="x" x1="-76.66" y1="-2.26" x2="-71.86" y2="-2.26" gradientTransform="scale(-1 1) rotate(-1.04 878.3166 171.0531)" xlink:href="#a"/><linearGradient id="y" x1="-67.55" y1="3.98" x2="-49.24" y2="3.98" gradientTransform="scale(-1 1) rotate(-1.04 878.3166 171.0531)" xlink:href="#a"/><linearGradient id="z" x1="-47.19" y1="13.13" x2="-37.89" y2="13.13" gradientTransform="scale(-1 1) rotate(-1.04 878.3166 171.0531)" xlink:href="#a"/><linearGradient id="A" x1="-74.05" y1="-3.68" x2="-69.26" y2="-3.68" gradientTransform="scale(-1 1) rotate(-1.04 878.3166 171.0531)" xlink:href="#a"/><linearGradient id="B" x1="-64.94" y1="2.56" x2="-46.63" y2="2.56" gradientTransform="scale(-1 1) rotate(-1.04 878.3166 171.0531)" xlink:href="#a"/><linearGradient id="C" x1="-44.58" y1="11.72" x2="-35.28" y2="11.72" gradientTransform="scale(-1 1) rotate(-1.04 878.3166 171.0531)" xlink:href="#a"/><linearGradient id="D" x1="-71.44" y1="-5.09" x2="-66.65" y2="-5.09" gradientTransform="scale(-1 1) rotate(-1.04 878.3166 171.0531)" xlink:href="#a"/><linearGradient id="E" x1="-62.34" y1="1.15" x2="-44.03" y2="1.15" gradientTransform="scale(-1 1) rotate(-1.04 878.3166 171.0531)" xlink:href="#a"/><linearGradient id="F" x1="-41.98" y1="10.3" x2="-32.68" y2="10.3" gradientTransform="scale(-1 1) rotate(-1.04 878.3166 171.0531)" xlink:href="#a"/><linearGradient id="G" x1="-68.84" y1="-6.51" x2="-64.04" y2="-6.51" gradientTransform="scale(-1 1) rotate(-1.04 878.3166 171.0531)" xlink:href="#a"/><linearGradient id="H" x1="-59.73" y1="-.27" x2="-41.42" y2="-.27" gradientTransform="scale(-1 1) rotate(-1.04 878.3166 171.0531)" xlink:href="#a"/><linearGradient id="I" x1="-39.37" y1="8.89" x2="-30.07" y2="8.89" gradientTransform="scale(-1 1) rotate(-1.04 878.3166 171.0531)" xlink:href="#a"/><linearGradient id="J" x1="-66.23" y1="-7.92" x2="-61.44" y2="-7.92" gradientTransform="scale(-1 1) rotate(-1.04 878.3166 171.0531)" xlink:href="#a"/><linearGradient id="K" x1="-57.13" y1="-1.68" x2="-38.82" y2="-1.68" gradientTransform="scale(-1 1) rotate(-1.04 878.3166 171.0531)" xlink:href="#a"/><linearGradient id="L" x1="-36.76" y1="7.47" x2="-27.47" y2="7.47" gradientTransform="scale(-1 1) rotate(-1.04 878.3166 171.0531)" xlink:href="#a"/><linearGradient id="M" x1="-63.63" y1="-9.34" x2="-58.83" y2="-9.34" gradientTransform="scale(-1 1) rotate(-1.04 878.3166 171.0531)" xlink:href="#a"/><linearGradient id="N" x1="-54.52" y1="-3.1" x2="-36.21" y2="-3.1" gradientTransform="scale(-1 1) rotate(-1.04 878.3166 171.0531)" xlink:href="#a"/><linearGradient id="O" x1="-34.16" y1="6.06" x2="-24.86" y2="6.06" gradientTransform="scale(-1 1) rotate(-1.04 878.3166 171.0531)" xlink:href="#a"/><linearGradient id="P" x1="-61.02" y1="-10.75" x2="-56.23" y2="-10.75" gradientTransform="scale(-1 1) rotate(-1.04 878.3166 171.0531)" xlink:href="#a"/><linearGradient id="Q" x1="-51.91" y1="-4.51" x2="-33.61" y2="-4.51" gradientTransform="scale(-1 1) rotate(-1.04 878.3166 171.0531)" xlink:href="#a"/><linearGradient id="R" x1="-31.55" y1="4.64" x2="-22.25" y2="4.64" gradientTransform="scale(-1 1) rotate(-1.04 878.3166 171.0531)" xlink:href="#a"/><linearGradient id="S" x1="-58.42" y1="-12.16" x2="-53.62" y2="-12.16" gradientTransform="scale(-1 1) rotate(-1.04 878.3166 171.0531)" xlink:href="#a"/><linearGradient id="T" x1="-49.31" y1="-5.92" x2="-31" y2="-5.92" gradientTransform="scale(-1 1) rotate(-1.04 878.3166 171.0531)" xlink:href="#a"/><linearGradient id="U" x1="-28.95" y1="3.23" x2="-19.65" y2="3.23" gradientTransform="scale(-1 1) rotate(-1.04 878.3166 171.0531)" xlink:href="#a"/><linearGradient id="V" x1="-55.81" y1="-13.58" x2="-51.02" y2="-13.58" gradientTransform="scale(-1 1) rotate(-1.04 878.3166 171.0531)" xlink:href="#a"/><linearGradient id="ab" x1="-89.37" y1="52.26" x2="-50.67" y2="52.26" xlink:href="#a"/><linearGradient id="ac" x1="-102.32" y1="60.1" x2="-122.14" y2="100.15" xlink:href="#a"/><linearGradient id="ad" x1="-75.67" y1="52.96" x2="-65.28" y2="96.98" xlink:href="#b"/><linearGradient id="ae" x1="-119.85" y1="54.01" x2="-101.54" y2="54.01" xlink:href="#a"/><linearGradient id="af" x1="-99.48" y1="63.16" x2="-90.19" y2="63.16" xlink:href="#a"/><linearGradient id="ag" x1="-126.35" y1="46.35" x2="-121.55" y2="46.35" xlink:href="#a"/><linearGradient id="ah" x1="-117.24" y1="52.59" x2="-98.93" y2="52.59" xlink:href="#a"/><linearGradient id="ai" x1="-96.88" y1="61.75" x2="-87.58" y2="61.75" xlink:href="#a"/><linearGradient id="aj" x1="-123.74" y1="44.94" x2="-118.95" y2="44.94" xlink:href="#a"/><linearGradient id="ak" x1="-114.64" y1="51.18" x2="-96.33" y2="51.18" xlink:href="#a"/><linearGradient id="al" x1="-94.27" y1="60.33" x2="-84.97" y2="60.33" xlink:href="#a"/><linearGradient id="am" x1="-121.14" y1="43.52" x2="-116.34" y2="43.52" xlink:href="#a"/><linearGradient id="an" x1="-112.03" y1="49.76" x2="-93.72" y2="49.76" xlink:href="#a"/><linearGradient id="ao" x1="-91.67" y1="58.92" x2="-82.37" y2="58.92" xlink:href="#a"/><linearGradient id="ap" x1="-118.53" y1="42.11" x2="-113.74" y2="42.11" xlink:href="#a"/><linearGradient id="aq" x1="-109.42" y1="48.35" x2="-91.11" y2="48.35" xlink:href="#a"/><linearGradient id="ar" x1="-89.06" y1="57.5" x2="-79.76" y2="57.5" xlink:href="#a"/><linearGradient id="as" x1="-115.92" y1="40.69" x2="-111.13" y2="40.69" xlink:href="#a"/><linearGradient id="at" x1="-106.82" y1="46.93" x2="-88.51" y2="46.93" xlink:href="#a"/><linearGradient id="au" x1="-86.46" y1="56.09" x2="-77.16" y2="56.09" xlink:href="#a"/><linearGradient id="av" x1="-113.32" y1="39.28" x2="-108.52" y2="39.28" xlink:href="#a"/><linearGradient id="aw" x1="-104.21" y1="45.52" x2="-85.9" y2="45.52" xlink:href="#a"/><linearGradient id="ax" x1="-83.85" y1="54.67" x2="-74.55" y2="54.67" xlink:href="#a"/><linearGradient id="ay" x1="-110.71" y1="37.86" x2="-105.92" y2="37.86" xlink:href="#a"/><linearGradient id="az" x1="-101.61" y1="44.1" x2="-83.3" y2="44.1" xlink:href="#a"/><linearGradient id="aA" x1="-81.24" y1="53.26" x2="-71.95" y2="53.26" xlink:href="#a"/><linearGradient id="aB" x1="-108.11" y1="36.45" x2="-103.31" y2="36.45" xlink:href="#a"/><linearGradient id="aC" x1="-99" y1="42.69" x2="-80.69" y2="42.69" xlink:href="#a"/><linearGradient id="aD" x1="-78.64" y1="51.85" x2="-69.34" y2="51.85" xlink:href="#a"/><linearGradient id="aE" x1="-105.5" y1="35.04" x2="-100.71" y2="35.04" xlink:href="#a"/><linearGradient id="aF" x1="-96.39" y1="41.28" x2="-78.09" y2="41.28" xlink:href="#a"/><linearGradient id="aG" x1="-76.03" y1="50.43" x2="-66.73" y2="50.43" xlink:href="#a"/><linearGradient id="aH" x1="-102.9" y1="33.62" x2="-98.1" y2="33.62" xlink:href="#a"/><linearGradient id="aI" x1="-93.79" y1="39.86" x2="-75.48" y2="39.86" xlink:href="#a"/><linearGradient id="aJ" x1="-73.43" y1="49.02" x2="-64.13" y2="49.02" xlink:href="#a"/><linearGradient id="aK" x1="-100.29" y1="32.21" x2="-95.5" y2="32.21" xlink:href="#a"/><linearGradient id="aL" x1="-91.18" y1="38.45" x2="-72.87" y2="38.45" xlink:href="#a"/><linearGradient id="aM" x1="-70.82" y1="47.6" x2="-61.52" y2="47.6" xlink:href="#a"/><linearGradient id="aN" x1="-97.68" y1="30.79" x2="-92.89" y2="30.79" xlink:href="#a"/><linearGradient id="aO" x1="-88.58" y1="37.03" x2="-70.27" y2="37.03" xlink:href="#a"/><linearGradient id="aP" x1="-68.22" y1="46.19" x2="-58.92" y2="46.19" xlink:href="#a"/><linearGradient id="aQ" x1="-95.08" y1="29.38" x2="-90.28" y2="29.38" xlink:href="#a"/><linearGradient id="aR" x1="-85.97" y1="35.62" x2="-67.66" y2="35.62" xlink:href="#a"/><linearGradient id="aS" x1="-65.61" y1="44.77" x2="-56.31" y2="44.77" xlink:href="#a"/><linearGradient id="aT" x1="-92.47" y1="27.96" x2="-87.68" y2="27.96" xlink:href="#a"/><linearGradient id="aU" x1="-83.37" y1="34.2" x2="-65.06" y2="34.2" xlink:href="#a"/><linearGradient id="aV" x1="-63" y1="43.36" x2="-53.7" y2="43.36" xlink:href="#a"/><linearGradient id="aW" x1="-89.87" y1="26.55" x2="-85.07" y2="26.55" xlink:href="#a"/><linearGradient id="bc" x1="-103.37" y1="60" x2="-123.4" y2="100.48" xlink:href="#a"/><linearGradient id="bd" x1="-144.03" y1="83.11" x2="-164.06" y2="123.6" xlink:href="#a"/><linearGradient id="be" x1="-116.95" y1="76.15" x2="-106.51" y2="120.41" xlink:href="#b"/><linearGradient id="bf" x1="-130.45" y1="119.54" x2="-149.05" y2="102.12" gradientTransform="matrix(-1 0 0 1 9.7 0)" gradientUnits="userSpaceOnUse"><stop offset="0" stop-color="#b9bbbd"/><stop offset="1" stop-color="#6e6f71"/></linearGradient><linearGradient id="bg" x1="-161.07" y1="77.33" x2="-142.76" y2="77.33" xlink:href="#a"/><linearGradient id="bh" x1="-140.71" y1="86.48" x2="-131.41" y2="86.48" xlink:href="#a"/><linearGradient id="bi" x1="-167.57" y1="69.67" x2="-162.78" y2="69.67" xlink:href="#a"/><linearGradient id="bj" x1="-158.46" y1="75.91" x2="-140.16" y2="75.91" xlink:href="#a"/><linearGradient id="bk" x1="-138.1" y1="85.07" x2="-128.8" y2="85.07" xlink:href="#a"/><linearGradient id="bl" x1="-164.96" y1="68.26" x2="-160.17" y2="68.26" xlink:href="#a"/><linearGradient id="bm" x1="-155.86" y1="74.5" x2="-137.55" y2="74.5" xlink:href="#a"/><linearGradient id="bn" x1="-135.5" y1="83.66" x2="-126.2" y2="83.66" xlink:href="#a"/><linearGradient id="bo" x1="-162.36" y1="66.85" x2="-157.57" y2="66.85" xlink:href="#a"/><linearGradient id="bp" x1="-153.25" y1="73.09" x2="-134.94" y2="73.09" xlink:href="#a"/><linearGradient id="bq" x1="-132.89" y1="82.24" x2="-123.59" y2="82.24" xlink:href="#a"/><linearGradient id="br" x1="-159.75" y1="65.43" x2="-154.96" y2="65.43" xlink:href="#a"/><linearGradient id="bs" x1="-150.65" y1="71.67" x2="-132.34" y2="71.67" xlink:href="#a"/><linearGradient id="bt" x1="-130.28" y1="80.83" x2="-120.99" y2="80.83" xlink:href="#a"/><linearGradient id="bu" x1="-157.15" y1="64.02" x2="-152.35" y2="64.02" xlink:href="#a"/><linearGradient id="bv" x1="-148.04" y1="70.26" x2="-129.73" y2="70.26" xlink:href="#a"/><linearGradient id="bw" x1="-127.68" y1="79.41" x2="-118.38" y2="79.41" xlink:href="#a"/><linearGradient id="bx" x1="-154.54" y1="62.6" x2="-149.75" y2="62.6" xlink:href="#a"/><linearGradient id="by" x1="-145.44" y1="68.84" x2="-127.13" y2="68.84" xlink:href="#a"/><linearGradient id="bz" x1="-125.07" y1="78" x2="-115.77" y2="78" xlink:href="#a"/><linearGradient id="bA" x1="-151.94" y1="61.19" x2="-147.14" y2="61.19" xlink:href="#a"/><linearGradient id="bB" x1="-142.83" y1="67.43" x2="-124.52" y2="67.43" xlink:href="#a"/><linearGradient id="bC" x1="-122.47" y1="76.58" x2="-113.17" y2="76.58" xlink:href="#a"/><linearGradient id="bD" x1="-149.33" y1="59.77" x2="-144.54" y2="59.77" xlink:href="#a"/><linearGradient id="bE" x1="-140.22" y1="66.01" x2="-121.91" y2="66.01" xlink:href="#a"/><linearGradient id="bF" x1="-119.86" y1="75.17" x2="-110.56" y2="75.17" xlink:href="#a"/><linearGradient id="bG" x1="-146.72" y1="58.36" x2="-141.93" y2="58.36" xlink:href="#a"/><linearGradient id="bH" x1="-137.62" y1="64.6" x2="-119.31" y2="64.6" xlink:href="#a"/><linearGradient id="bI" x1="-117.26" y1="73.75" x2="-107.96" y2="73.75" xlink:href="#a"/><linearGradient id="bJ" x1="-144.12" y1="56.94" x2="-139.32" y2="56.94" xlink:href="#a"/><linearGradient id="bK" x1="-135.01" y1="63.18" x2="-116.7" y2="63.18" xlink:href="#a"/><linearGradient id="bL" x1="-114.65" y1="72.34" x2="-105.35" y2="72.34" xlink:href="#a"/><linearGradient id="bM" x1="-141.51" y1="55.53" x2="-136.72" y2="55.53" xlink:href="#a"/><linearGradient id="bN" x1="-132.41" y1="61.77" x2="-114.1" y2="61.77" xlink:href="#a"/><linearGradient id="bO" x1="-112.04" y1="70.92" x2="-102.75" y2="70.92" xlink:href="#a"/><linearGradient id="bP" x1="-138.91" y1="54.12" x2="-134.11" y2="54.12" xlink:href="#a"/><linearGradient id="bQ" x1="-129.8" y1="60.36" x2="-111.49" y2="60.36" xlink:href="#a"/><linearGradient id="bR" x1="-109.44" y1="69.51" x2="-100.14" y2="69.51" xlink:href="#a"/><linearGradient id="bS" x1="-136.3" y1="52.7" x2="-131.51" y2="52.7" xlink:href="#a"/><linearGradient id="bT" x1="-127.2" y1="58.94" x2="-108.89" y2="58.94" xlink:href="#a"/><linearGradient id="bU" x1="-106.83" y1="68.1" x2="-97.53" y2="68.1" xlink:href="#a"/><linearGradient id="bV" x1="-133.7" y1="51.29" x2="-128.9" y2="51.29" xlink:href="#a"/><linearGradient id="bW" x1="-124.59" y1="57.53" x2="-106.28" y2="57.53" xlink:href="#a"/><linearGradient id="bX" x1="-104.23" y1="66.68" x2="-94.93" y2="66.68" xlink:href="#a"/><linearGradient id="bY" x1="-131.09" y1="49.87" x2="-126.3" y2="49.87" xlink:href="#a"/><filter id="W"><feGaussianBlur stdDeviation="2"/></filter><filter id="X"><feGaussianBlur stdDeviation="2"/></filter><filter id="Y"><feGaussianBlur stdDeviation="2"/></filter><filter id="Z"><feGaussianBlur stdDeviation="2"/></filter><filter id="aa"><feGaussianBlur stdDeviation="2"/></filter><filter id="aX"><feGaussianBlur stdDeviation="2"/></filter><filter id="aY"><feGaussianBlur stdDeviation="2"/></filter><filter id="aZ"><feGaussianBlur stdDeviation="2"/></filter><filter id="ba"><feGaussianBlur stdDeviation="2"/></filter><filter id="bb"><feGaussianBlur stdDeviation="2"/></filter><filter id="bZ"><feGaussianBlur stdDeviation="2"/></filter><filter id="ca"><feGaussianBlur stdDeviation="2"/></filter><filter id="cb"><feGaussianBlur stdDeviation="2"/></filter><filter id="cc"><feGaussianBlur stdDeviation="2"/></filter></defs><path d="M37.83 14.78c0-.27-.26-.63-.59-.82l-10.4-6-.2-.12c-.22-.13-.41-.14-.51-.05l.95-.49c.21-.11.66.22.88.35l9.86 5.63c.32.19.59.56.59.82l-.58.68" style="fill:#4c86c5"/><path d="M37.83 14.78v24.64c0 .06-.01.1-.03.14l.52-.62c.08-.09.09-.13.09-.3V14.1l-.58.68" style="fill:#305b8f"/><path d="M26.05 7.99v24.64c0 .27.27.63.59.82l10.6 6.12c.25.15.47.14.55 0s.03-.09.03-.14V14.78c0-.27-.26-.63-.59-.82l-10.4-6-.2-.12c-.22-.13-.41-.14-.51-.05l-.02.02s-.05.1-.05.16Z" style="fill:#2a7de1"/><path style="fill:#4f4f51" d="m96.28 40.57 1.55-.89-6.16-3.56-1.55.89 6.16 3.56zM89.12 36.42l1.55-.9-6.17-3.56-1.55.9 6.17 3.56z"/><path style="fill:#4f4f51" d="m96.28 41.99 1.55-.9-6.16-3.56-1.55.9 6.16 3.56zM89.12 37.83l1.55-.9-6.17-3.56-1.55.9 6.17 3.56z"/><path style="fill:#4f4f51" d="m96.28 43.4 1.55-.9-6.16-3.56-1.55.9 6.16 3.56zM89.12 39.25l1.55-.9-6.17-3.56-1.55.89 6.17 3.57z"/><path style="fill:#4f4f51" d="m96.28 44.82 1.55-.9-6.16-3.56-1.55.89 6.16 3.57zM89.12 40.66l1.55-.9-6.17-3.56-1.55.9 6.17 3.56z"/><path style="fill:#4f4f51" d="m96.28 46.23 1.55-.9-6.16-3.56-1.55.9 6.16 3.56zM89.12 42.07l1.55-.89-6.17-3.56-1.55.89 6.17 3.56z"/><path style="fill:#4f4f51" d="m96.28 47.64 1.55-.89-6.16-3.56-1.55.89 6.16 3.56zM89.12 43.49l1.55-.9-6.17-3.56-1.55.9 6.17 3.56z"/><path style="fill:#4f4f51" d="m96.28 49.06 1.55-.9-6.16-3.56-1.55.9 6.16 3.56zM89.12 44.9l1.55-.89-6.17-3.56-1.55.89 6.17 3.56z"/><path style="fill:#4f4f51" d="m96.28 50.47 1.55-.89-6.16-3.56-1.55.89 6.16 3.56zM89.12 46.32l1.55-.9-6.17-3.56-1.55.9 6.17 3.56z"/><path style="fill:#4f4f51" d="m96.28 51.89 1.55-.9-6.16-3.56-1.55.9 6.16 3.56zM89.12 47.73l1.55-.89-6.17-3.56-1.55.89 6.17 3.56z"/><path style="fill:#4f4f51" d="m96.28 53.3 1.55-.89-6.16-3.56-1.55.89 6.16 3.56zM89.12 49.15l1.55-.9-6.17-3.56-1.55.9 6.17 3.56z"/><path style="fill:#4f4f51" d="m96.28 54.72 1.55-.9-6.16-3.56-1.55.9 6.16 3.56zM89.12 50.56l1.55-.89-6.17-3.57-1.55.9 6.17 3.56z"/><path style="fill:#4f4f51" d="m96.28 56.13 1.55-.89-6.16-3.57-1.55.9 6.16 3.56zM89.12 51.98l1.55-.9-6.17-3.56-1.55.9 6.17 3.56z"/><path style="fill:#4f4f51" d="m96.28 57.55 1.55-.9-6.16-3.56-1.55.9 6.16 3.56zM89.12 53.39l1.55-.9-6.17-3.56-1.55.9 6.17 3.56z"/><path style="fill:#5a595c" d="m80.97 49.14 15.51 8.96V40.29l-15.51-8.95v17.8z"/><path style="fill:#4f4f51" d="m77.7 51.18 15.52 8.95v-17.8L77.7 33.37v17.81z"/><path style="fill:#757779" d="m96.48 40.29-3.26 2.04v17.8l3.26-2.03V40.29z"/><path style="fill:#8c8e91" d="m80.97 31.34-3.27 2.03 15.52 8.96 3.26-2.04-15.51-8.95z"/><path style="fill:#4f4f51" d="m78.47 9.23 1.55-.89-6.16-3.56-1.56.89 6.17 3.56zM71.31 5.08l1.55-.9L66.69.62l-1.55.9 6.17 3.56z"/><path style="fill:#4f4f51" d="m78.47 10.65 1.55-.9-6.16-3.56-1.56.9 6.17 3.56zM71.31 6.49l1.55-.89-6.17-3.56-1.55.89 6.17 3.56z"/><path style="fill:#4f4f51" d="m78.47 12.06 1.55-.89-6.16-3.56-1.56.89 6.17 3.56zM71.31 7.91l1.55-.9-6.17-3.56-1.55.9 6.17 3.56z"/><path style="fill:#4f4f51" d="m78.47 13.48 1.55-.9-6.16-3.56-1.56.9 6.17 3.56zM71.31 9.32l1.55-.89-6.17-3.56-1.55.89 6.17 3.56z"/><path style="fill:#4f4f51" d="m78.47 14.89 1.55-.89-6.16-3.56-1.56.89 6.17 3.56zM71.31 10.74l1.55-.9-6.17-3.56-1.55.9 6.17 3.56z"/><path style="fill:#4f4f51" d="m78.47 16.31 1.55-.9-6.16-3.56-1.56.9 6.17 3.56zM71.31 12.15l1.55-.89-6.17-3.56-1.55.89 6.17 3.56z"/><path style="fill:#4f4f51" d="m78.47 17.72 1.55-.89-6.16-3.56-1.56.89 6.17 3.56zM71.31 13.57l1.55-.9-6.17-3.56-1.55.9 6.17 3.56z"/><path style="fill:#4f4f51" d="m78.47 19.14 1.55-.9-6.16-3.56-1.56.9 6.17 3.56zM71.31 14.98l1.55-.9-6.17-3.56-1.55.9 6.17 3.56z"/><path style="fill:#4f4f51" d="m78.47 20.55 1.55-.9-6.16-3.56-1.56.9 6.17 3.56zM71.31 16.4l1.55-.9-6.17-3.56-1.55.89 6.17 3.57z"/><path style="fill:#4f4f51" d="m78.47 21.97 1.55-.9-6.16-3.56-1.56.89 6.17 3.57zM71.31 17.81l1.55-.9-6.17-3.56-1.55.9 6.17 3.56z"/><path style="fill:#4f4f51" d="m78.47 23.38 1.55-.9-6.16-3.56-1.56.9 6.17 3.56zM71.31 19.22l1.55-.89-6.17-3.56-1.55.89 6.17 3.56z"/><path style="fill:#4f4f51" d="m78.47 24.79 1.55-.89-6.16-3.56-1.56.89 6.17 3.56zM71.31 20.64l1.55-.9-6.17-3.56-1.55.9 6.17 3.56z"/><path style="fill:#4f4f51" d="m78.47 26.21 1.55-.9-6.16-3.56-1.56.9 6.17 3.56zM71.31 22.05l1.55-.89-6.17-3.56-1.55.89 6.17 3.56z"/><path style="fill:#5a595c" d="m63.16 17.8 15.51 8.96V8.96L63.16 0v17.8z"/><path style="fill:#4f4f51" d="M59.89 19.84 75.4 28.8V10.99L59.89 2.04v17.8z"/><path style="fill:#757779" d="m78.67 8.96-3.27 2.03V28.8l3.27-2.04V8.96z"/><path style="fill:#8c8e91" d="m63.16 0-3.27 2.04 15.51 8.95 3.27-2.03L63.16 0z"/><g><path style="fill:#4f4f51" d="m96.28 19.92 1.55-.89-6.16-3.56-1.55.89 6.16 3.56zM89.12 15.77l1.55-.9-6.17-3.56-1.55.9 6.17 3.56z"/><path style="fill:#4f4f51" d="m96.28 21.34 1.55-.9-6.16-3.56-1.55.9 6.16 3.56zM89.12 17.18l1.55-.89-6.17-3.56-1.55.89 6.17 3.56z"/><path style="fill:#4f4f51" d="m96.28 22.75 1.55-.89-6.16-3.56-1.55.89 6.16 3.56zM89.12 18.6l1.55-.9-6.17-3.56-1.55.9 6.17 3.56z"/><path style="fill:#4f4f51" d="m96.28 24.17 1.55-.9-6.16-3.56-1.55.9 6.16 3.56zM89.12 20.01l1.55-.89-6.17-3.56-1.55.89 6.17 3.56z"/><path style="fill:#4f4f51" d="m96.28 25.58 1.55-.89-6.16-3.56-1.55.89 6.16 3.56zM89.12 21.43l1.55-.9-6.17-3.56-1.55.9 6.17 3.56z"/><path style="fill:#4f4f51" d="m96.28 27 1.55-.9-6.16-3.56-1.55.9L96.28 27zM89.12 22.84l1.55-.89-6.17-3.56-1.55.89 6.17 3.56z"/><path style="fill:#4f4f51" d="m96.28 28.41 1.55-.89-6.16-3.56-1.55.89 6.16 3.56zM89.12 24.26l1.55-.9-6.17-3.56-1.55.9 6.17 3.56z"/><path style="fill:#4f4f51" d="m96.28 29.83 1.55-.9-6.16-3.56-1.55.9 6.16 3.56zM89.12 25.67l1.55-.89-6.17-3.57-1.55.9 6.17 3.56z"/><path style="fill:#4f4f51" d="m96.28 31.24 1.55-.89-6.16-3.57-1.55.9 6.16 3.56zM89.12 27.09l1.55-.9-6.17-3.56-1.55.89 6.17 3.57z"/><path style="fill:#4f4f51" d="m96.28 32.66 1.55-.9-6.16-3.56-1.55.89 6.16 3.57zM89.12 28.5l1.55-.9-6.17-3.56-1.55.9 6.17 3.56z"/><path style="fill:#4f4f51" d="m96.28 34.07 1.55-.9-6.16-3.56-1.55.9 6.16 3.56zM89.12 29.91l1.55-.89-6.17-3.56-1.55.89 6.17 3.56z"/><path style="fill:#4f4f51" d="m96.28 35.48 1.55-.89-6.16-3.56-1.55.89 6.16 3.56zM89.12 31.33l1.55-.9-6.17-3.56-1.55.9 6.17 3.56z"/><path style="fill:#4f4f51" d="m96.28 36.9 1.55-.9-6.16-3.56-1.55.9 6.16 3.56zM89.12 32.74l1.55-.89-6.17-3.56-1.55.89 6.17 3.56z"/><g><path style="fill:#5a595c" d="m80.97 28.49 15.51 8.96v-17.8l-15.51-8.96v17.8z"/><path style="fill:#4f4f51" d="m77.7 30.53 15.52 8.96v-17.8L77.7 12.73v17.8z"/><path style="fill:#757779" d="m96.48 19.65-3.26 2.04v17.8l3.26-2.04v-17.8z"/><path style="fill:#8c8e91" d="m80.97 10.69-3.27 2.04 15.52 8.96 3.26-2.04-15.51-8.96z"/></g></g><path d="M56.92 1.13v37.01L19.75 58.67V21.66S56.92 1.53 56.92 1.13Zm-29 48.79c0 .45.28.66.61.46l7.39-4.27c.34-.19.61-.72.61-1.17V21.15c0-.45-.28-.66-.61-.47l-7.39 4.27c-.34.2-.61.72-.61 1.18v23.79Z" style="fill:url(#a)"/><path style="fill:#676767" d="m58.54 79.8 38.51-20.64-38.28-21.85L19.75 57.4l38.79 22.4z"/><g><path d="m28.11 50.4.67.48c.23.17.53.03.91-.19l6.24-3.58c1.15-.68 1.35-.8 1.35-2.09V21.76c0-.35.07-1.22-.57-1.22-.44 0-.65.1-.65.1s.37.45.41.68c.01.08.02.16.02.25v22.82c0 1.21-.25 1.43-1.26 2.04l-5.73 3.38-.56.34c-.12.07-.3.15-.42.18-.21.05-.27.17-.42.08Z" style="fill:#e4e5e5"/></g><g><path d="m28.42 23.65 7.61-4.39c.19-.11.35-.38.35-.6l-.02-4.17c0-.22-.16-.31-.35-.2l-7.61 4.39c-.19.11-.35.38-.35.6l.02 4.17c0 .22.16.31.35.2Z" style="fill:#a5a6a9"/><ellipse cx="35.89" cy="18.8" rx=".21" ry=".12" transform="rotate(-59.69 35.8862 18.7942)" style="fill:#909294"/><ellipse cx="34.05" cy="19.86" rx=".21" ry=".12" transform="rotate(-59.69 34.0474 19.859)" style="fill:#909294"/><ellipse cx="32.21" cy="20.92" rx=".21" ry=".12" transform="rotate(-59.69 32.2087 20.9238)" style="fill:#909294"/><ellipse cx="30.37" cy="21.98" rx=".21" ry=".12" transform="rotate(-59.69 30.37 21.9886)" style="fill:#909294"/><ellipse cx="28.53" cy="23.05" rx=".21" ry=".12" transform="rotate(-59.69 28.5225 23.0483)" style="fill:#909294"/><ellipse cx="35.89" cy="15" rx=".21" ry=".12" transform="rotate(-59.69 35.8878 14.9958)" style="fill:#909294"/><ellipse cx="34.05" cy="16.06" rx=".21" ry=".12" transform="rotate(-59.69 34.049 16.0606)" style="fill:#909294"/><ellipse cx="32.21" cy="17.12" rx=".21" ry=".12" transform="rotate(-59.69 32.2103 17.1254)" style="fill:#909294"/><ellipse cx="30.37" cy="18.19" rx=".21" ry=".12" transform="rotate(-59.69 30.3629 18.1852)" style="fill:#909294"/><ellipse cx="28.53" cy="19.25" rx=".21" ry=".12" transform="rotate(-59.69 28.5241 19.25)" style="fill:#909294"/></g><path style="fill:#a5a6a9" d="M56.92 1.13v37.08L98.97 58.7l.2-34.89L56.92 1.13z"/><g><path style="fill:#909294" d="M43.63 18.23 75.2 36.76l.13 8.08-31.56-18.53"/><path style="fill:#a5a6a9" d="m44.13 17.96 31.56 18.5-.5.3-31.56-18.53"/><path style="fill:#6e6f71" d="m75.76 44.58-.43.26-.13-8.08.49-.3.07 8.12z"/></g><g><path style="fill:#909294" d="m36.37 16.24 31.56 18.53.14 8.08L36.5 24.32"/><path style="fill:#a5a6a9" d="m36.86 15.98 31.56 18.5-.49.29-31.56-18.53"/><path style="fill:#6e6f71" d="m68.5 42.6-.43.25-.14-8.08.49-.29.08 8.12z"/></g><g><path style="fill:#909294" d="m39.52 20.54 31.56 18.54.14 8.08-31.56-18.53"/><path style="fill:#a5a6a9" d="m40.01 20.28 31.57 18.5-.5.3-31.56-18.54"/><path style="fill:#6e6f71" d="m71.65 46.9-.43.26-.14-8.08.5-.3.07 8.12z"/></g><g><path style="fill:#909294" d="M33.92 19.46 65.48 38l.14 8.08-31.56-18.54"/><path style="fill:#a5a6a9" d="m34.41 19.2 31.57 18.5-.5.3-31.56-18.54"/><path style="fill:#6e6f71" d="m66.05 45.82-.43.26-.14-8.08.5-.3.07 8.12z"/></g><g><path style="fill:#4d4e4e" d="m83.53 48.84-8.65-5.04-.21-8.09 8.72 5.05.14 8.08z"/><path style="fill:#676767" d="m83.39 40.76-8.72-5.05.57-.26 8.64 5.01-.49.3z"/><path style="fill:#333" d="m83.95 48.58-.42.26-.14-8.08.49-.3.07 8.12z"/></g><g><path style="fill:#4d4e4e" d="m76.24 46.97-8.64-5.04-.14-8.09 8.64 5.05.14 8.08z"/><path style="fill:#676767" d="m76.1 38.89-8.64-5.05.49-.26 8.65 5.01-.5.3z"/><path style="fill:#333" d="m76.67 46.71-.43.26-.14-8.08.5-.3.07 8.12z"/></g><g><path style="fill:#4d4e4e" d="m79.45 51.33-8.64-5.04-.21-8.08 8.71 5.04.14 8.08z"/><path style="fill:#676767" d="m79.31 43.25-8.71-5.04.57-.26 8.64 5.01-.5.29z"/><path style="fill:#333" d="m79.88 51.08-.43.25-.14-8.08.5-.29.07 8.12z"/></g><g><path style="fill:#4d4e4e" d="m73.45 49.98-8.64-5.04-.21-8.08 8.72 5.04.13 8.08z"/><path style="fill:#676767" d="m73.32 41.9-8.72-5.04.57-.27 8.64 5.01-.49.3z"/><path style="fill:#333" d="m73.88 49.72-.43.26-.13-8.08.49-.3.07 8.12z"/></g><path d="M58.54 44.06V79.8c.71 0 1.38-.14 1.88-.43l37.8-19.71c.5-.29.75-.68.75-1.09l.2-34.76c0 .41-.25.8-.75 1.09L67.64 39.46l-7.22 4.17c-.5.29-1.18.43-1.88.43Z" style="fill:url(#c)"/><path d="M19.75 21.66V57.4c0 .49.36 1.01 1.06 1.41L56.1 79.18c.7.41 1.6.61 2.44.61V44.06c-.85 0-1.75-.21-2.44-.61l-6.66-3.84-28.63-16.53c-.7-.4-1.06-.92-1.06-1.41Z" style="fill:url(#b)"/><path d="m20.79 23.27 35.1 20.89c.69.4 1.57.6 2.41.6.69 0 1.36-.14 1.85-.42l38.28-19.5c.5-.29.74-.6.74-1.07s-.35-.99-1.04-1.39L60.34 1.6c-1.26-.73-3.17-.81-4.26-.18l-35.6 19.39c-1.09.63-.95 1.73.31 2.46Z" style="fill:#f1f1f1"/><g><path style="fill:url(#d)" d="m70.09 36.18.28.17 18.21-10.07-.29-.17-18.2 10.07z"/><path style="fill:url(#e)" d="m58.62 42.53.28.17 9.11-5.04-.29-.17-9.1 5.04z"/><path style="fill:url(#f)" d="m90.31 24.99.29.17 4.55-2.52-.29-.17-4.55 2.52z"/><path style="fill:url(#g)" d="m67.51 34.72.28.17L86 24.82l-.29-.17-18.2 10.07z"/><path style="fill:url(#h)" d="m56.04 41.07.28.17 9.11-5.04-.29-.17-9.1 5.04z"/><path style="fill:url(#i)" d="m87.73 23.53.29.17 4.55-2.52-.29-.17-4.55 2.52z"/><path style="fill:url(#j)" d="m64.93 33.26.28.17 18.21-10.07-.29-.18-18.2 10.08z"/><path style="fill:url(#k)" d="m53.46 39.61.29.17 9.1-5.04-.29-.17-9.1 5.04z"/><path style="fill:url(#l)" d="m85.15 22.07.29.17 4.55-2.52-.29-.17-4.55 2.52z"/><path style="fill:url(#m)" d="m62.35 31.8.28.17 18.21-10.08-.29-.17-18.2 10.08z"/><path style="fill:url(#n)" d="m50.88 38.15.29.17 9.1-5.04-.29-.17-9.1 5.04z"/><path style="fill:url(#o)" d="m82.57 20.61.29.17 4.55-2.52-.29-.17-4.55 2.52z"/><path style="fill:url(#p)" d="m59.77 30.34.28.17 18.21-10.08-.29-.17-18.2 10.08z"/><path style="fill:url(#q)" d="m48.3 36.68.29.18 9.1-5.04-.29-.17-9.1 5.03z"/><path style="fill:url(#r)" d="m79.99 19.14.29.18 4.55-2.52-.29-.17-4.55 2.51z"/><path style="fill:url(#s)" d="m57.19 28.87.28.18 18.21-10.08-.28-.17-18.21 10.07z"/><path style="fill:url(#t)" d="m45.72 35.22.29.17 9.1-5.03-.29-.18-9.1 5.04z"/><path style="fill:url(#u)" d="m77.41 17.68.29.18 4.55-2.52-.29-.18-4.55 2.52z"/><path style="fill:url(#v)" d="m54.61 27.41.29.18 18.2-10.08-.28-.17-18.21 10.07z"/><path style="fill:url(#w)" d="m43.14 33.76.29.17 9.1-5.04-.29-.17-9.1 5.04z"/><path style="fill:url(#x)" d="m74.83 16.22.29.17 4.55-2.51-.29-.18-4.55 2.52z"/><path style="fill:url(#y)" d="m52.03 25.95.29.17 18.2-10.07-.28-.17-18.21 10.07z"/><path style="fill:url(#z)" d="m40.56 32.3.29.17 9.1-5.04-.29-.17-9.1 5.04z"/><path style="fill:url(#A)" d="m72.25 14.76.29.17 4.55-2.52-.29-.17-4.55 2.52z"/><path style="fill:url(#B)" d="m49.45 24.49.29.17 18.2-10.07-.28-.18-18.21 10.08z"/><path style="fill:url(#C)" d="m37.98 30.84.29.17 9.1-5.04-.29-.17-9.1 5.04z"/><path style="fill:url(#D)" d="m69.67 13.3.29.17 4.55-2.52-.29-.17-4.55 2.52z"/><path style="fill:url(#E)" d="m46.87 23.03.29.17 18.2-10.07-.28-.18-18.21 10.08z"/><path style="fill:url(#F)" d="m35.4 29.38.29.17 9.1-5.04-.29-.17-9.1 5.04z"/><path style="fill:url(#G)" d="m67.09 11.84.29.17 4.55-2.52-.29-.17-4.55 2.52z"/><path style="fill:url(#H)" d="m44.29 21.57.29.17 18.2-10.08-.28-.17-18.21 10.08z"/><path style="fill:url(#I)" d="m32.82 27.91.29.18 9.1-5.04-.29-.17-9.1 5.03z"/><path style="fill:url(#J)" d="m64.51 10.38.29.17 4.55-2.52-.29-.17-4.55 2.52z"/><path style="fill:url(#K)" d="m41.71 20.11.29.17L60.2 10.2l-.28-.17-18.21 10.08z"/><path style="fill:url(#L)" d="m30.24 26.45.29.18 9.1-5.04-.29-.17-9.1 5.03z"/><path style="fill:url(#M)" d="m61.93 8.91.29.18 4.55-2.52-.29-.17-4.55 2.51z"/><path style="fill:url(#N)" d="m39.13 18.64.29.18 18.2-10.08-.28-.17-18.21 10.07z"/><path style="fill:url(#O)" d="m27.66 24.99.29.17 9.1-5.03-.28-.18-9.11 5.04z"/><path style="fill:url(#P)" d="m59.35 7.45.29.17 4.55-2.51-.29-.18-4.55 2.52z"/><path style="fill:url(#Q)" d="m36.55 17.18.29.17 18.2-10.07-.28-.17-18.21 10.07z"/><path style="fill:url(#R)" d="m25.08 23.53.29.17 9.1-5.04-.28-.17-9.11 5.04z"/><path style="fill:url(#S)" d="m56.77 5.99.29.17 4.55-2.52-.29-.17-4.55 2.52z"/><path style="fill:url(#T)" d="m33.97 15.72.29.17 18.2-10.07-.28-.17-18.21 10.07z"/><path style="fill:url(#U)" d="m22.5 22.07.29.17 9.1-5.04-.28-.17-9.11 5.04z"/><path style="fill:url(#V)" d="m54.19 4.53.29.17 4.55-2.52-.28-.17-4.56 2.52z"/></g><g><g style="filter:url(#W)"><path style="fill:#b8babc" d="M22.9 61.48 4.81 71.97l31.98 18.48 16.12-11.64L22.9 61.48z"/></g><g style="filter:url(#X)"><path d="m23.58 60.44 28.17 16.03c.52.3.95-.02.95-.72V46.99c0-.7-.43-1.51-.95-1.81L23.58 29.15c-.52-.3-.95.02-.95.72v28.76c0 .7.43 1.51.95 1.81Z" style="fill:gray"/></g><path style="fill:#18549f" d="m23.11 58.87 29.6 17.09v-8.49l-29.6-17.09v8.49z"/><path style="fill:#1a428a" d="M23.11 50.38 5.47 69.59v2.12l17.64-12.84v-8.49z"/><path style="fill:#1a428a" d="m5.47 71.71 29.6 17.09v-2.12L5.47 69.59v2.12zM52.71 67.47 35.07 86.68v2.12l17.64-12.84v-8.49z"/><path style="fill:#2a7de1" d="m35.07 86.68 17.64-19.21-29.6-17.09L5.47 69.59l29.6 17.09z"/><g style="filter:url(#Y)"><path style="fill:#1a428a" d="M21.69 54.68 9.66 68.66l24.69 13.72 17.34-15.49-30-12.21z"/></g><path style="fill:none;stroke:#1a428a;stroke-linecap:round;stroke-miterlimit:10;stroke-width:.25px" d="M33.04 84.45 49 67.06M30.44 82.93 46.4 65.54M11.34 72.03 27.3 54.65M8.74 70.51 24.7 53.13"/><path style="fill:none;stroke:#1a428a;stroke-linecap:round;stroke-miterlimit:10;stroke-width:.27px" d="m43.75 64.43-5.35 5.72-3.59-2.07 3.04-3.02-6.86-4.01-2.9 2.71-3.47-1.96 5.26-5.37 13.87 8z"/><path d="m34.72 65.55-4.28 4.23c-.1.1-.26.13-.39.07l-2.82-1.57c-.23-.1-.28-.4-.11-.58l4.31-4.17c.1-.1.26-.13.39-.07l2.79 1.5c.23.1.28.4.11.58Z" style="fill:none;stroke:#1a428a;stroke-linecap:round;stroke-miterlimit:10;stroke-width:.27px"/><path style="fill:none;stroke:#1a428a;stroke-linecap:round;stroke-miterlimit:10;stroke-width:.27px" d="m24.26 67.64.28 4.77 6.4-.6 2.97-2.57 3.47 2.01-3.63 3.51-13.27 1.51-.82-9.33 4.02-3.98 3.57 1.96-2.99 2.72z"/><g><path style="fill:#18549f" d="m23.11 48.05 29.6 17.09v-8.49l-29.6-17.09v8.49z"/><path style="fill:#1a428a" d="M23.11 39.56 5.47 58.77v2.13l17.64-12.85v-8.49z"/><path style="fill:#1a428a" d="m5.47 60.9 29.6 17.09v-2.13L5.47 58.77v2.13zM52.71 56.65 35.07 75.86v2.13l17.64-12.85v-8.49z"/><path style="fill:#2a7de1" d="m35.07 75.86 17.64-19.21-29.6-17.09L5.47 58.77l29.6 17.09z"/><g style="filter:url(#Z)"><path style="fill:#1a428a" d="M21.69 43.37 9.66 57.35l24.69 13.71 17.34-15.49-30-12.2z"/></g><path style="fill:none;stroke:#1a428a;stroke-linecap:round;stroke-miterlimit:10;stroke-width:.25px" d="M33.04 73.37 49 55.99M30.44 71.85 46.4 54.47M11.34 60.96 27.3 43.57M8.74 59.44 24.7 42.05"/><path style="fill:none;stroke:#1a428a;stroke-linecap:round;stroke-miterlimit:10;stroke-width:.27px" d="m43.75 53.36-5.35 5.71L34.81 57l3.04-3.02-6.86-4.01-2.9 2.71-3.47-1.95 5.26-5.38 13.87 8.01z"/><path d="m34.72 54.48-4.28 4.23c-.1.1-.26.13-.39.07l-2.82-1.57c-.23-.1-.28-.4-.11-.58l4.31-4.17c.1-.1.26-.13.39-.07l2.79 1.5c.23.1.28.4.11.58Z" style="fill:none;stroke:#1a428a;stroke-linecap:round;stroke-miterlimit:10;stroke-width:.27px"/><path style="fill:none;stroke:#1a428a;stroke-linecap:round;stroke-miterlimit:10;stroke-width:.27px" d="m24.26 56.57.28 4.77 6.4-.61 2.97-2.56 3.47 2-3.63 3.51-13.27 1.51-.82-9.33 4.02-3.97 3.57 1.96-2.99 2.72z"/></g><g><path style="fill:#18549f" d="m23.11 37.24 29.6 17.08v-8.49l-29.6-17.08v8.49z"/><path style="fill:#1a428a" d="M23.11 28.75 5.47 47.96v2.12l17.64-12.84v-8.49z"/><path style="fill:#1a428a" d="m5.47 50.08 29.6 17.09v-2.13L5.47 47.96v2.12zM52.71 45.83 35.07 65.04v2.13l17.64-12.85v-8.49z"/><path style="fill:#2a7de1" d="m35.07 65.04 17.64-19.21-29.6-17.08L5.47 47.96l29.6 17.08z"/><path style="fill:none;stroke:#1a428a;stroke-linecap:round;stroke-miterlimit:10;stroke-width:.25px" d="M33.04 62.29 49 44.9M30.44 60.77 46.4 43.38M11.34 49.87 27.3 32.49M8.74 48.35 24.7 30.97"/><path style="fill:none;stroke:#1a428a;stroke-linecap:round;stroke-miterlimit:10;stroke-width:.27px" d="m43.75 42.27-5.35 5.71-3.59-2.06 3.04-3.02-6.86-4.01-2.9 2.71-3.47-1.96 5.26-5.38 13.87 8.01z"/><path d="m34.72 43.39-4.28 4.23c-.1.1-.26.13-.39.07l-2.82-1.57c-.23-.1-.28-.4-.11-.58l4.31-4.17c.1-.1.26-.13.39-.07l2.79 1.5c.23.1.28.4.11.58Z" style="fill:none;stroke:#1a428a;stroke-linecap:round;stroke-miterlimit:10;stroke-width:.27px"/><path style="fill:none;stroke:#1a428a;stroke-linecap:round;stroke-miterlimit:10;stroke-width:.27px" d="m24.26 45.48.28 4.77 6.4-.6 2.97-2.57 3.47 2-3.63 3.51-13.27 1.52-.82-9.33 4.02-3.98 3.57 1.96-2.99 2.72z"/></g></g><g style="filter:url(#aa)"><path d="m102.06 103.41 36.8-21.25c.8-.46.8-1.62 0-2.08L99.91 57.59c-.37-.21-.83-.21-1.2 0L59.5 80.23c-.8.46-.8 1.62 0 2.08l36.54 21.1c1.86 1.07 4.15 1.07 6.01 0Z" style="fill:#909294"/></g><path style="fill:url(#ab)" d="M60.36 45.23v35.74l38.71-21.69V23.54L60.36 45.23z"/><g><path style="fill:#4f4f51" d="m139.11 64.01 1.55-.9-6.16-3.56-1.55.9 6.16 3.56zM131.95 59.85l1.55-.9-6.17-3.56-1.55.9 6.17 3.56z"/><path style="fill:#4f4f51" d="m139.11 65.42 1.55-.9-6.16-3.56-1.55.9 6.16 3.56zM131.95 61.26l1.55-.89-6.17-3.56-1.55.89 6.17 3.56z"/><path style="fill:#4f4f51" d="m139.11 66.83 1.55-.89-6.16-3.56-1.55.89 6.16 3.56zM131.95 62.68l1.55-.9-6.17-3.56-1.55.9 6.17 3.56z"/><path style="fill:#4f4f51" d="m139.11 68.25 1.55-.9-6.16-3.56-1.55.9 6.16 3.56zM131.95 64.09l1.55-.89-6.17-3.56-1.55.89 6.17 3.56z"/><path style="fill:#4f4f51" d="m139.11 69.66 1.55-.89-6.16-3.56-1.55.89 6.16 3.56zM131.95 65.51l1.55-.9-6.17-3.56-1.55.9 6.17 3.56z"/><path style="fill:#4f4f51" d="m139.11 71.08 1.55-.9-6.16-3.56-1.55.9 6.16 3.56zM131.95 66.92l1.55-.89-6.17-3.56-1.55.89 6.17 3.56z"/><path style="fill:#4f4f51" d="m139.11 72.49 1.55-.89-6.16-3.56-1.55.89 6.16 3.56zM131.95 68.34l1.55-.9-6.17-3.56-1.55.9 6.17 3.56z"/><path style="fill:#4f4f51" d="m139.11 73.91 1.55-.9-6.16-3.56-1.55.9 6.16 3.56zM131.95 69.75l1.55-.89-6.17-3.56-1.55.89 6.17 3.56z"/><path style="fill:#4f4f51" d="m139.11 75.32 1.55-.89-6.16-3.56-1.55.89 6.16 3.56zM131.95 71.17l1.55-.9-6.17-3.56-1.55.9 6.17 3.56z"/><path style="fill:#4f4f51" d="m139.11 76.74 1.55-.9-6.16-3.56-1.55.9 6.16 3.56zM131.95 72.58l1.55-.89-6.17-3.57-1.55.9 6.17 3.56z"/><path style="fill:#4f4f51" d="m139.11 78.15 1.55-.89-6.16-3.57-1.55.9 6.16 3.56zM131.95 74l1.55-.9-6.17-3.56-1.55.89 6.17 3.57z"/><path style="fill:#4f4f51" d="m139.11 79.57 1.55-.9-6.16-3.56-1.55.89 6.16 3.57zM131.95 75.41l1.55-.9-6.17-3.56-1.55.9 6.17 3.56z"/><path style="fill:#4f4f51" d="m139.11 80.98 1.55-.9-6.16-3.56-1.55.9 6.16 3.56zM131.95 76.82l1.55-.89-6.17-3.56-1.55.89 6.17 3.56z"/><g><path style="fill:#5a595c" d="m123.8 72.57 15.51 8.96v-17.8l-15.51-8.96v17.8z"/><path style="fill:#4f4f51" d="m120.53 74.61 15.52 8.96v-17.8l-15.52-8.96v17.8z"/><path style="fill:#757779" d="m139.31 63.73-3.26 2.04v17.8l3.26-2.04v-17.8z"/><path style="fill:#8c8e91" d="m123.8 54.77-3.27 2.04 15.52 8.96 3.26-2.04-15.51-8.96z"/></g><g><path style="fill:#4f4f51" d="m121.3 32.67 1.55-.9-6.16-3.56-1.56.9 6.17 3.56zM114.14 28.51l1.55-.89-6.17-3.56-1.55.89 6.17 3.56z"/><path style="fill:#4f4f51" d="m121.3 34.08 1.55-.89-6.16-3.56-1.56.89 6.17 3.56zM114.14 29.93l1.55-.9-6.17-3.56-1.55.9 6.17 3.56z"/><path style="fill:#4f4f51" d="m121.3 35.5 1.55-.9-6.16-3.56-1.56.9 6.17 3.56zM114.14 31.34l1.55-.89-6.17-3.56-1.55.89 6.17 3.56z"/><path style="fill:#4f4f51" d="m121.3 36.91 1.55-.89-6.16-3.56-1.56.89 6.17 3.56zM114.14 32.76l1.55-.9-6.17-3.56-1.55.9 6.17 3.56z"/><path style="fill:#4f4f51" d="m121.3 38.33 1.55-.9-6.16-3.56-1.56.9 6.17 3.56zM114.14 34.17l1.55-.89-6.17-3.57-1.55.9 6.17 3.56z"/><path style="fill:#4f4f51" d="m121.3 39.74 1.55-.89-6.16-3.57-1.56.9 6.17 3.56zM114.14 35.59l1.55-.9-6.17-3.56-1.55.9 6.17 3.56z"/><path style="fill:#4f4f51" d="m121.3 41.16 1.55-.9-6.16-3.56-1.56.89 6.17 3.57zM114.14 37l1.55-.9-6.17-3.56-1.55.9 6.17 3.56z"/><path style="fill:#4f4f51" d="m121.3 42.57 1.55-.9-6.16-3.56-1.56.9 6.17 3.56zM114.14 38.41l1.55-.89-6.17-3.56-1.55.89 6.17 3.56z"/><path style="fill:#4f4f51" d="m121.3 43.98 1.55-.89-6.16-3.56-1.56.89 6.17 3.56zM114.14 39.83l1.55-.9-6.17-3.56-1.55.9 6.17 3.56z"/><path style="fill:#4f4f51" d="m121.3 45.4 1.55-.9-6.16-3.56-1.56.9 6.17 3.56zM114.14 41.24l1.55-.89-6.17-3.56-1.55.89 6.17 3.56z"/><path style="fill:#4f4f51" d="m121.3 46.81 1.55-.89-6.16-3.56-1.56.89 6.17 3.56zM114.14 42.66l1.55-.9-6.17-3.56-1.55.9 6.17 3.56z"/><path style="fill:#4f4f51" d="m121.3 48.23 1.55-.9-6.16-3.56-1.56.9 6.17 3.56zM114.14 44.07l1.55-.89-6.17-3.56-1.55.89 6.17 3.56z"/><path style="fill:#4f4f51" d="m121.3 49.64 1.55-.89-6.16-3.56-1.56.89 6.17 3.56zM114.14 45.49l1.55-.9-6.17-3.56-1.55.9 6.17 3.56z"/><g><path style="fill:#5a595c" d="m105.99 41.24 15.51 8.95v-17.8l-15.51-8.96v17.81z"/><path style="fill:#4f4f51" d="m102.72 43.27 15.51 8.96v-17.8l-15.51-8.96v17.8z"/><path style="fill:#757779" d="m121.5 32.39-3.27 2.04v17.8l3.27-2.04v-17.8z"/><path style="fill:#8c8e91" d="m105.99 23.43-3.27 2.04 15.51 8.96 3.27-2.04-15.51-8.96z"/></g></g><g><path style="fill:#4f4f51" d="m139.11 43.08 1.55-.9-6.16-3.56-1.55.9 6.16 3.56zM131.95 38.93l1.55-.9-6.17-3.56-1.55.89 6.17 3.57z"/><path style="fill:#4f4f51" d="m139.11 44.49 1.55-.89-6.16-3.56-1.55.89 6.16 3.56zM131.95 40.34l1.55-.9-6.17-3.56-1.55.9 6.17 3.56z"/><path style="fill:#4f4f51" d="m139.11 45.91 1.55-.9-6.16-3.56-1.55.9 6.16 3.56zM131.95 41.75l1.55-.89-6.17-3.56-1.55.89 6.17 3.56z"/><path style="fill:#4f4f51" d="m139.11 47.32 1.55-.89-6.16-3.56-1.55.89 6.16 3.56zM131.95 43.17l1.55-.9-6.17-3.56-1.55.9 6.17 3.56z"/><path style="fill:#4f4f51" d="m139.11 48.74 1.55-.9-6.16-3.56-1.55.9 6.16 3.56zM131.95 44.58l1.55-.89-6.17-3.56-1.55.89 6.17 3.56z"/><path style="fill:#4f4f51" d="m139.11 50.15 1.55-.89-6.16-3.56-1.55.89 6.16 3.56zM131.95 46l1.55-.9-6.17-3.56-1.55.9 6.17 3.56z"/><path style="fill:#4f4f51" d="m139.11 51.57 1.55-.9-6.16-3.56-1.55.9 6.16 3.56zM131.95 47.41l1.55-.89-6.17-3.56-1.55.89 6.17 3.56z"/><path style="fill:#4f4f51" d="m139.11 52.98 1.55-.89-6.16-3.56-1.55.89 6.16 3.56zM131.95 48.83l1.55-.9-6.17-3.56-1.55.9 6.17 3.56z"/><path style="fill:#4f4f51" d="m139.11 54.4 1.55-.9-6.16-3.56-1.55.9 6.16 3.56zM131.95 50.24l1.55-.89-6.17-3.57-1.55.9 6.17 3.56z"/><path style="fill:#4f4f51" d="m139.11 55.81 1.55-.89-6.16-3.57-1.55.9 6.16 3.56zM131.95 51.66l1.55-.9-6.17-3.56-1.55.9 6.17 3.56z"/><path style="fill:#4f4f51" d="m139.11 57.23 1.55-.9-6.16-3.56-1.55.89 6.16 3.57zM131.95 53.07l1.55-.9-6.17-3.56-1.55.9 6.17 3.56z"/><path style="fill:#4f4f51" d="m139.11 58.64 1.55-.9-6.16-3.56-1.55.9 6.16 3.56zM131.95 54.48l1.55-.89-6.17-3.56-1.55.89 6.17 3.56z"/><path style="fill:#4f4f51" d="m139.11 60.05 1.55-.89-6.16-3.56-1.55.89 6.16 3.56zM131.95 55.9l1.55-.9-6.17-3.56-1.55.9 6.17 3.56z"/><g><path style="fill:#5a595c" d="m123.8 51.65 15.51 8.96V42.8l-15.51-8.95v17.8z"/><path style="fill:#4f4f51" d="m120.53 53.69 15.52 8.95v-17.8l-15.52-8.96v17.81z"/><path style="fill:#757779" d="m139.31 42.8-3.26 2.04v17.8l3.26-2.03V42.8z"/><path style="fill:#8c8e91" d="m123.8 33.85-3.27 2.03 15.52 8.96 3.26-2.04-15.51-8.95z"/></g></g></g><path d="m61.99 82.04 28.63 16.53 6.66 3.84c.7.41 1.6.61 2.44.61.71 0 1.38-.14 1.88-.43l7.22-4.17 28.94-16.71c.5-.29.75-.68.75-1.09 0-.49-.36-1.01-1.06-1.41l-35.29-20.37c-1.28-.74-3.22-.82-4.33-.18L61.67 79.54c-1.11.64-.97 1.76.31 2.5Z" style="fill:#676767"/><path style="fill:#a5a6a9" d="M99.07 23.54v36.18l39.44 21.49v-35L99.07 23.54z"/><g><path style="fill:#909294" d="M111.82 65.27 79.56 46.26l-.14-8.08 32.26 19.01.14 8.08z"/><path style="fill:#a5a6a9" d="M111.68 57.19 79.42 38.18l.5-.26 32.26 18.97-.5.3z"/><path style="fill:#6e6f71" d="m112.25 65.01-.43.26-.14-8.08.5-.3.07 8.12z"/></g><g><path style="fill:#909294" d="M111.19 67.96 78.93 48.95l-.13-8.08 32.26 19 .13 8.09z"/><path style="fill:#a5a6a9" d="M111.06 59.88 78.8 40.87l.49-.26 32.26 18.97-.49.3z"/><path style="fill:#6e6f71" d="m111.62 67.7-.43.26-.13-8.09.49-.29.07 8.12z"/></g><g><path style="fill:#909294" d="M108.73 68.78 75.17 49.17l-.14-8.08 33.56 19.61.14 8.08z"/><path style="fill:#a5a6a9" d="M108.59 60.7 75.03 41.09l.49-.27 33.56 19.58-.49.3z"/><path style="fill:#6e6f71" d="m109.16 68.52-.43.26-.14-8.08.49-.3.08 8.12z"/></g><g><path style="fill:#909294" d="M109.51 71.3 75.96 51.57l-.14-8.08 33.55 19.73.14 8.08z"/><path style="fill:#a5a6a9" d="M109.37 63.22 75.82 43.49l.49-.26 33.56 19.69-.5.3z"/><path style="fill:#6e6f71" d="m109.94 71.04-.43.26-.14-8.08.5-.3.07 8.12z"/></g><g><path style="fill:#909294" d="M103.93 70.15 70.37 50.64l-.14-8.08 33.56 19.51.14 8.08z"/><path style="fill:#a5a6a9" d="M103.79 62.07 70.23 42.56l.5-.26 33.55 19.48-.49.29z"/><path style="fill:#6e6f71" d="m104.36 69.9-.43.25-.14-8.08.49-.29.08 8.12z"/></g><g><path style="fill:#909294" d="M104.4 72.59 73.02 54.28l-.14-8.08 31.38 18.31.14 8.08z"/><path style="fill:#a5a6a9" d="M104.26 64.51 72.88 46.2l.49-.27 31.39 18.29-.5.29z"/><path style="fill:#6e6f71" d="m104.83 72.34-.43.25-.14-8.08.5-.29.07 8.12z"/></g><g><path style="fill:#909294" d="M99.73 72.43 68.35 54.12l-.14-8.08 31.38 18.31.14 8.08z"/><path style="fill:#a5a6a9" d="M99.59 64.35 68.21 46.04l.49-.27 31.39 18.29-.5.29z"/><path style="fill:#6e6f71" d="m100.16 72.18-.43.25-.14-8.08.5-.29.07 8.12z"/></g><g><path style="fill:#4d4e4e" d="m120.45 69.42-9.06-5.07-.14-8.08 9.06 5.06.14 8.09z"/><path style="fill:#676767" d="m120.31 61.34-9.06-5.07.5-.26 9.06 5.03-.5.3z"/><path style="fill:#333" d="m120.88 69.16-.43.26-.14-8.09.5-.29.07 8.12z"/></g><g><path style="fill:#4d4e4e" d="m119.82 72.1-9.05-5.06-.14-8.08 9.06 5.06.13 8.08z"/><path style="fill:#676767" d="m119.68 64.02-9.05-5.06.49-.26 9.06 5.03-.5.29z"/><path style="fill:#333" d="m120.25 71.85-.43.25-.13-8.08.49-.29.07 8.12z"/></g><g><path style="fill:#4d4e4e" d="m116.94 72.86-8.63-4.91-.14-8.08 8.64 4.91.13 8.08z"/><path style="fill:#676767" d="m116.81 64.78-8.64-4.91.5-.26 8.63 4.87-.49.3z"/><path style="fill:#333" d="m117.37 72.6-.43.26-.13-8.08.49-.3.07 8.12z"/></g><g><path style="fill:#4d4e4e" d="m118.1 75.71-8.64-5.05-.14-8.08 8.64 5.05.14 8.08z"/><path style="fill:#676767" d="m117.96 67.63-8.64-5.05.49-.26 8.65 5.01-.5.3z"/><path style="fill:#333" d="m118.53 75.45-.43.26-.14-8.08.5-.3.07 8.12z"/></g><g><path style="fill:#4d4e4e" d="m111.79 74.11-8.64-5.04-.14-8.08 8.64 5.04.14 8.08z"/><path style="fill:#676767" d="m111.65 66.03-8.64-5.04.49-.27 8.64 5.01-.49.3z"/><path style="fill:#333" d="m112.22 73.85-.43.26-.14-8.08.49-.3.08 8.12z"/></g><g><path style="fill:#4d4e4e" d="m112.5 76.67-8.64-5.04-.14-8.09 8.64 5.05.14 8.08z"/><path style="fill:#676767" d="m112.36 68.59-8.64-5.05.5-.26 8.64 5.01-.5.3z"/><path style="fill:#333" d="m112.93 76.41-.43.26-.14-8.08.5-.3.07 8.12z"/></g><g><path style="fill:#4d4e4e" d="m107.5 76.35-8.64-5.05-.14-8.08 8.64 5.05.14 8.08z"/><path style="fill:#676767" d="m107.36 68.27-8.64-5.05.49-.26 8.65 5.01-.5.3z"/><path style="fill:#333" d="m107.93 76.09-.43.26-.14-8.08.5-.3.07 8.12z"/></g><path d="M100.21 67.93v35.74c.71 0 1.38-.14 1.88-.43l35.66-20.21c.5-.29.75-.68.75-1.09V46.21c0 .41-.25.8-.75 1.09l-28.44 16.04-7.22 4.17c-.5.29-1.18.43-1.88.43Z" style="fill:url(#ac)"/><path d="M60.36 45.23v35.74c0 .49.36 1.01 1.06 1.41l36.35 20.68c.7.41 1.6.61 2.44.61V67.93c-.85 0-1.75-.21-2.44-.61l-6.66-3.84-29.69-16.83c-.7-.4-1.06-.92-1.06-1.41Z" style="fill:url(#ad)"/><path d="m61.42 46.71 29.69 16.76 6.66 3.84c.7.41 1.6.61 2.44.61.71 0 1.38-.14 1.88-.43l7.22-4.17 28.44-15.99c.5-.29.75-.64.75-1.09s-.38-.97-1.06-1.41l-36.1-20.68c-1.28-.74-3.22-.82-4.33-.18L61.1 44.2c-1.11.64-.97 1.76.31 2.5Z" style="fill:#f1f1f1"/><g><path style="fill:url(#ae)" d="m111.23 59.13.29.16 18.02-10.4-.29-.17-18.02 10.41z"/><path style="fill:url(#af)" d="m99.88 65.68.29.17 9.01-5.21-.29-.16-9.01 5.2z"/><path style="fill:url(#ag)" d="m131.25 47.57.29.17 4.5-2.61-.29-.16-4.5 2.6z"/><path style="fill:url(#ah)" d="m108.63 57.71.29.17 18.02-10.41-.29-.16-18.02 10.4z"/><path style="fill:url(#ai)" d="m97.28 64.26.28.17 9.01-5.2-.28-.17-9.01 5.2z"/><path style="fill:url(#aj)" d="m128.64 46.15.29.17 4.51-2.6-.29-.17-4.51 2.6z"/><path style="fill:url(#ak)" d="m106.02 56.3.29.16 18.02-10.4-.29-.17-18.02 10.41z"/><path style="fill:url(#al)" d="m94.67 62.85.29.17 9.01-5.21-.29-.16-9.01 5.2z"/><path style="fill:url(#am)" d="m126.04 44.74.29.17 4.5-2.6-.29-.17-4.5 2.6z"/><path style="fill:url(#an)" d="m103.42 54.88.29.17 18.02-10.41-.29-.16-18.02 10.4z"/><path style="fill:url(#ao)" d="m92.06 61.44.29.16 9.01-5.2-.29-.17-9.01 5.21z"/><path style="fill:url(#ap)" d="m123.43 43.33.29.16 4.51-2.6-.29-.17-4.51 2.61z"/><path style="fill:url(#aq)" d="m100.81 53.47.29.16 18.02-10.4-.29-.17-18.02 10.41z"/><path style="fill:url(#ar)" d="m89.46 60.02.29.17 9.01-5.2-.29-.17-9.01 5.2z"/><path style="fill:url(#as)" d="m120.83 41.91.28.17 4.51-2.6-.29-.17-4.5 2.6z"/><path style="fill:url(#at)" d="m98.2 52.05.29.17 18.02-10.4-.29-.17-18.02 10.4z"/><path style="fill:url(#au)" d="m86.85 58.61.29.16 9.01-5.2-.29-.17-9.01 5.21z"/><path style="fill:url(#av)" d="m118.22 40.5.29.16 4.5-2.6-.28-.16-4.51 2.6z"/><path style="fill:url(#aw)" d="m95.6 50.64.29.16 18.02-10.4-.29-.17L95.6 50.64z"/><path style="fill:url(#ax)" d="m84.25 57.19.29.17 9.01-5.2-.29-.17-9.01 5.2z"/><path style="fill:url(#ay)" d="m115.61 39.08.29.17 4.51-2.6-.29-.17-4.51 2.6z"/><path style="fill:url(#az)" d="m92.99 49.22.29.17 18.02-10.4-.29-.17-18.02 10.4z"/><path style="fill:url(#aA)" d="m81.64 55.78.29.16 9.01-5.2-.29-.16-9.01 5.2z"/><path style="fill:url(#aB)" d="m113.01 37.67.29.16 4.5-2.6-.29-.16-4.5 2.6z"/><path style="fill:url(#aC)" d="m90.39 47.81.29.17 18.02-10.41-.29-.16-18.02 10.4z"/><path style="fill:url(#aD)" d="m79.04 54.36.28.17 9.01-5.2-.28-.17-9.01 5.2z"/><path style="fill:url(#aE)" d="m110.4 36.25.29.17 4.51-2.6-.29-.17-4.51 2.6z"/><path style="fill:url(#aF)" d="m87.78 46.39.29.17 18.02-10.4-.29-.17-18.02 10.4z"/><path style="fill:url(#aG)" d="m76.43 52.95.29.17 9.01-5.21-.29-.16-9.01 5.2z"/><path style="fill:url(#aH)" d="m107.8 34.84.29.17 4.5-2.61-.29-.16-4.5 2.6z"/><path style="fill:url(#aI)" d="m85.18 44.98.28.17 18.02-10.41-.28-.16-18.02 10.4z"/><path style="fill:url(#aJ)" d="m73.82 51.53.29.17 9.01-5.2-.29-.17-9.01 5.2z"/><path style="fill:url(#aK)" d="m105.19 33.42.29.17 4.51-2.6-.29-.17-4.51 2.6z"/><path style="fill:url(#aL)" d="m82.57 43.57.29.16 18.02-10.4-.29-.17-18.02 10.41z"/><path style="fill:url(#aM)" d="m71.22 50.12.29.17 9.01-5.21-.29-.16-9.01 5.2z"/><path style="fill:url(#aN)" d="m102.59 32.01.28.17 4.51-2.6-.29-.17-4.5 2.6z"/><path style="fill:url(#aO)" d="m79.96 42.15.29.17 18.02-10.41-.29-.16-18.02 10.4z"/><path style="fill:url(#aP)" d="m68.61 48.71.29.16 9.01-5.2-.29-.17-9.01 5.21z"/><path style="fill:url(#aQ)" d="m99.98 30.59.29.17 4.5-2.6-.29-.17-4.5 2.6z"/><path style="fill:url(#aR)" d="m77.36 40.74.29.16 18.02-10.4-.29-.17-18.02 10.41z"/><path style="fill:url(#aS)" d="m66.01 47.29.29.17 9.01-5.2-.29-.17-9.01 5.2z"/><path style="fill:url(#aT)" d="m97.37 29.18.29.17 4.51-2.6-.29-.17-4.51 2.6z"/><path style="fill:url(#aU)" d="m74.75 39.32.29.17 18.02-10.41-.29-.16-18.02 10.4z"/><path style="fill:url(#aV)" d="m63.4 45.88.29.16 9.01-5.2-.29-.17-9.01 5.21z"/><path style="fill:url(#aW)" d="m94.77 27.77.29.16 4.5-2.6-.29-.17-4.5 2.61z"/></g><path style="fill:#f1f1f1" d="m57.44 79.42 5.46 3.11-.18-35.1-5.35-2.87.07 34.86z"/><path style="fill:#f3f3f3" d="m62.72 47.43 39.82-22.58-4.34-2.43-40.83 22.14 5.35 2.87z"/><g><g style="filter:url(#aX)"><path style="fill:#b8babc" d="M64.95 85.41 46.86 95.9l31.99 18.48 16.11-11.64-30.01-17.33z"/></g><g style="filter:url(#aY)"><path d="M65.63 84.37 93.8 100.4c.52.3.95-.02.95-.72V70.92c0-.7-.43-1.51-.95-1.81L65.63 53.08c-.52-.3-.95.02-.95.72v28.76c0 .7.43 1.51.95 1.81Z" style="fill:gray"/></g><path style="fill:#18549f" d="m65.16 82.8 29.6 17.09V91.4l-29.6-17.09v8.49z"/><path style="fill:#1a428a" d="M65.16 74.31 47.52 93.52v2.12L65.16 82.8v-8.49z"/><path style="fill:#1a428a" d="m47.52 95.64 29.6 17.09v-2.12l-29.6-17.09v2.12zM94.76 91.4l-17.64 19.21v2.12l17.64-12.84V91.4z"/><path style="fill:#2a7de1" d="M77.12 110.61 94.76 91.4l-29.6-17.09-17.64 19.21 29.6 17.09z"/><g style="filter:url(#aZ)"><path style="fill:#1a428a" d="M63.74 78.61 51.71 92.59 76.4 106.3l17.34-15.48-30-12.21z"/></g><path style="fill:none;stroke:#1a428a;stroke-linecap:round;stroke-miterlimit:10;stroke-width:.25px" d="m75.09 108.38 15.96-17.39M72.49 106.86l15.96-17.39M53.39 95.96l15.96-17.38M50.79 94.44l15.96-17.38"/><path style="fill:none;stroke:#1a428a;stroke-linecap:round;stroke-miterlimit:10;stroke-width:.27px" d="m85.8 88.36-5.35 5.72-3.59-2.07 3.04-3.02-6.86-4.01-2.9 2.71-3.47-1.96 5.26-5.37 13.87 8z"/><path d="m76.77 89.48-4.28 4.23c-.1.1-.26.13-.39.07l-2.82-1.57c-.23-.1-.28-.4-.11-.58l4.31-4.17c.1-.1.26-.13.39-.07l2.79 1.5c.23.1.28.4.11.58Z" style="fill:none;stroke:#1a428a;stroke-linecap:round;stroke-miterlimit:10;stroke-width:.27px"/><path style="fill:none;stroke:#1a428a;stroke-linecap:round;stroke-miterlimit:10;stroke-width:.27px" d="m66.31 91.57.28 4.77 6.4-.6 2.97-2.57 3.47 2-3.63 3.51-13.27 1.52-.82-9.33 4.02-3.98 3.57 1.96-2.99 2.72z"/><g><path style="fill:#18549f" d="m65.16 71.98 29.6 17.09v-8.49l-29.6-17.09v8.49z"/><path style="fill:#1a428a" d="M65.16 63.49 47.52 82.7v2.13l17.64-12.85v-8.49z"/><path style="fill:#1a428a" d="m47.52 84.83 29.6 17.08v-2.12L47.52 82.7v2.13zM94.76 80.58 77.12 99.79v2.12l17.64-12.84v-8.49z"/><path style="fill:#2a7de1" d="m77.12 99.79 17.64-19.21-29.6-17.09L47.52 82.7l29.6 17.09z"/><g style="filter:url(#ba)"><path style="fill:#1a428a" d="M63.74 67.3 51.71 81.28 76.4 94.99 93.74 79.5l-30-12.2z"/></g><path style="fill:none;stroke:#1a428a;stroke-linecap:round;stroke-miterlimit:10;stroke-width:.25px" d="m75.09 97.3 15.96-17.38M72.49 95.78 88.45 78.4M53.39 84.89 69.35 67.5M50.79 83.37l15.96-17.39"/><path style="fill:none;stroke:#1a428a;stroke-linecap:round;stroke-miterlimit:10;stroke-width:.27px" d="M85.8 77.29 80.45 83l-3.59-2.07 3.04-3.02-6.86-4.01-2.9 2.71-3.47-1.95 5.26-5.38 13.87 8.01z"/><path d="m76.77 78.41-4.28 4.23c-.1.1-.26.13-.39.07l-2.82-1.57c-.23-.1-.28-.4-.11-.58l4.31-4.17c.1-.1.26-.13.39-.07l2.79 1.5c.23.1.28.4.11.58Z" style="fill:none;stroke:#1a428a;stroke-linecap:round;stroke-miterlimit:10;stroke-width:.27px"/><path style="fill:none;stroke:#1a428a;stroke-linecap:round;stroke-miterlimit:10;stroke-width:.27px" d="m66.31 80.5.28 4.77 6.4-.61 2.97-2.56 3.47 2-3.63 3.51-13.27 1.51-.82-9.33 4.02-3.98 3.57 1.96-2.99 2.73z"/></g><g><path style="fill:#18549f" d="m65.16 61.16 29.6 17.09v-8.49l-29.6-17.09v8.49z"/><path style="fill:#1a428a" d="M65.16 52.67 47.52 71.89v2.12l17.64-12.85v-8.49z"/><path style="fill:#1a428a" d="m47.52 74.01 29.6 17.09v-2.13l-29.6-17.08v2.12zM94.76 69.76 77.12 88.97v2.13l17.64-12.85v-8.49z"/><path style="fill:#2a7de1" d="m77.12 88.97 17.64-19.21-29.6-17.09-17.64 19.22 29.6 17.08z"/><path style="fill:none;stroke:#1a428a;stroke-linecap:round;stroke-miterlimit:10;stroke-width:.25px" d="m75.09 86.21 15.96-17.38M72.49 84.69l15.96-17.38M53.39 73.8l15.96-17.38M50.79 72.28 66.75 54.9"/><path style="fill:none;stroke:#1a428a;stroke-linecap:round;stroke-miterlimit:10;stroke-width:.27px" d="m85.8 66.2-5.35 5.71-3.59-2.07 3.04-3.01-6.86-4.01-2.9 2.71-3.47-1.96 5.26-5.38L85.8 66.2z"/><path d="m76.77 67.32-4.28 4.23c-.1.1-.26.13-.39.07l-2.82-1.57c-.23-.1-.28-.4-.11-.58l4.31-4.17c.1-.1.26-.13.39-.07l2.79 1.5c.23.1.28.4.11.58Z" style="fill:none;stroke:#1a428a;stroke-linecap:round;stroke-miterlimit:10;stroke-width:.27px"/><path style="fill:none;stroke:#1a428a;stroke-linecap:round;stroke-miterlimit:10;stroke-width:.27px" d="m66.31 69.41.28 4.77 6.4-.6 2.97-2.57 3.47 2-3.63 3.51-13.27 1.52-.82-9.33 4.02-3.98 3.57 1.96-2.99 2.72z"/></g></g><g style="filter:url(#bb)"><path d="m143.6 126.92 36.8-21.25c.8-.46.8-1.62 0-2.08L141.45 81.1c-.37-.21-.83-.21-1.2 0l-39.21 22.64c-.8.46-.8 1.62 0 2.08l36.54 21.1c1.86 1.07 4.15 1.07 6.01 0Z" style="fill:#909294"/></g><path d="M101.09 68.33v35.74c.71 0 1.38-.14 1.88-.43l36.16-20.88c.5-.29.75-.68.75-1.09V45.93c0 .41-38.79 22.39-38.79 22.39Z" style="fill:url(#bc)"/><g><path style="fill:#4f4f51" d="m180 87.2 1.56-.89-6.17-3.56-1.55.89L180 87.2zM172.84 83.05l1.55-.9-6.16-3.56-1.56.9 6.17 3.56z"/><path style="fill:#4f4f51" d="m180 88.62 1.56-.9-6.17-3.56-1.55.9 6.16 3.56zM172.84 84.46l1.55-.89-6.16-3.56-1.56.89 6.17 3.56z"/><path style="fill:#4f4f51" d="m180 90.03 1.56-.89-6.17-3.56-1.55.89 6.16 3.56zM172.84 85.88l1.55-.9-6.16-3.56-1.56.9 6.17 3.56z"/><path style="fill:#4f4f51" d="m180 91.45 1.56-.9-6.17-3.56-1.55.9 6.16 3.56zM172.84 87.29l1.55-.89-6.16-3.57-1.56.9 6.17 3.56z"/><path style="fill:#4f4f51" d="m180 92.86 1.56-.89-6.17-3.57-1.55.9 6.16 3.56zM172.84 88.71l1.55-.9-6.16-3.56-1.56.9 6.17 3.56z"/><path style="fill:#4f4f51" d="m180 94.28 1.56-.9-6.17-3.56-1.55.89 6.16 3.57zM172.84 90.12l1.55-.9-6.16-3.56-1.56.9 6.17 3.56z"/><path style="fill:#4f4f51" d="m180 95.69 1.56-.9-6.17-3.56-1.55.9 6.16 3.56zM172.84 91.53l1.55-.89-6.16-3.56-1.56.89 6.17 3.56z"/><path style="fill:#4f4f51" d="m180 97.1 1.56-.89-6.17-3.56-1.55.89L180 97.1zM172.84 92.95l1.55-.9-6.16-3.56-1.56.9 6.17 3.56z"/><path style="fill:#4f4f51" d="m180 98.52 1.56-.9-6.17-3.56-1.55.9 6.16 3.56zM172.84 94.36l1.55-.89-6.16-3.56-1.56.89 6.17 3.56z"/><path style="fill:#4f4f51" d="m180 99.93 1.56-.89-6.17-3.56-1.55.89 6.16 3.56zM172.84 95.78l1.55-.9-6.16-3.56-1.56.9 6.17 3.56z"/><path style="fill:#4f4f51" d="m180 101.35 1.56-.9-6.17-3.56-1.55.9 6.16 3.56zM172.84 97.19l1.55-.89-6.16-3.56-1.56.89 6.17 3.56z"/><path style="fill:#4f4f51" d="m180 102.76 1.56-.89-6.17-3.56-1.55.89 6.16 3.56zM172.84 98.61l1.55-.9-6.16-3.56-1.56.9 6.17 3.56z"/><path style="fill:#4f4f51" d="m180 104.18 1.56-.9-6.17-3.56-1.55.9 6.16 3.56zM172.84 100.02l1.55-.89-6.16-3.56-1.56.89 6.17 3.56z"/><g><path style="fill:#5a595c" d="m164.69 95.77 15.51 8.96v-17.8l-15.51-8.96v17.8z"/><path style="fill:#4f4f51" d="m161.42 97.81 15.52 8.96V88.96l-15.52-8.95v17.8z"/><path style="fill:#757779" d="m180.2 86.93-3.26 2.03v17.81l3.26-2.04v-17.8z"/><path style="fill:#8c8e91" d="m164.69 77.97-3.27 2.04 15.52 8.95 3.26-2.03-15.51-8.96z"/></g><g><path style="fill:#4f4f51" d="m162.19 55.87 1.55-.9-6.16-3.56-1.55.9 6.16 3.56zM155.03 51.71l1.55-.9-6.17-3.56-1.55.9 6.17 3.56z"/><path style="fill:#4f4f51" d="m162.19 57.28 1.55-.9-6.16-3.56-1.55.9 6.16 3.56zM155.03 53.12l1.55-.89-6.17-3.56-1.55.89 6.17 3.56z"/><path style="fill:#4f4f51" d="m162.19 58.69 1.55-.89-6.16-3.56-1.55.89 6.16 3.56zM155.03 54.54l1.55-.9-6.17-3.56-1.55.9 6.17 3.56z"/><path style="fill:#4f4f51" d="m162.19 60.11 1.55-.9-6.16-3.56-1.55.9 6.16 3.56zM155.03 55.95l1.55-.89-6.17-3.56-1.55.89 6.17 3.56z"/><path style="fill:#4f4f51" d="m162.19 61.52 1.55-.89-6.16-3.56-1.55.89 6.16 3.56zM155.03 57.37l1.55-.9-6.17-3.56-1.55.9 6.17 3.56z"/><path style="fill:#4f4f51" d="m162.19 62.94 1.55-.9-6.16-3.56-1.55.9 6.16 3.56zM155.03 58.78l1.55-.89-6.17-3.56-1.55.89 6.17 3.56z"/><path style="fill:#4f4f51" d="m162.19 64.35 1.55-.89-6.16-3.56-1.55.89 6.16 3.56zM155.03 60.2l1.55-.9-6.17-3.56-1.55.9 6.17 3.56z"/><path style="fill:#4f4f51" d="m162.19 65.77 1.55-.9-6.16-3.56-1.55.9 6.16 3.56zM155.03 61.61l1.55-.89-6.17-3.56-1.55.89 6.17 3.56z"/><path style="fill:#4f4f51" d="m162.19 67.18 1.55-.89-6.16-3.56-1.55.89 6.16 3.56zM155.03 63.03l1.55-.9-6.17-3.56-1.55.9 6.17 3.56z"/><path style="fill:#4f4f51" d="m162.19 68.6 1.55-.9-6.16-3.56-1.55.9 6.16 3.56zM155.03 64.44l1.55-.89-6.17-3.57-1.55.9 6.17 3.56z"/><path style="fill:#4f4f51" d="m162.19 70.01 1.55-.89-6.16-3.57-1.55.9 6.16 3.56zM155.03 65.86l1.55-.9-6.17-3.56-1.55.89 6.17 3.57z"/><path style="fill:#4f4f51" d="m162.19 71.43 1.55-.9-6.16-3.56-1.55.89 6.16 3.57zM155.03 67.27l1.55-.9-6.17-3.56-1.55.9 6.17 3.56z"/><path style="fill:#4f4f51" d="m162.19 72.84 1.55-.9-6.16-3.56-1.55.9 6.16 3.56zM155.03 68.68l1.55-.89-6.17-3.56-1.55.89 6.17 3.56z"/><g><path style="fill:#5a595c" d="m146.88 64.43 15.51 8.96v-17.8l-15.51-8.96v17.8z"/><path style="fill:#4f4f51" d="m143.61 66.47 15.52 8.96v-17.8l-15.52-8.96v17.8z"/><path style="fill:#757779" d="m162.39 55.59-3.26 2.04v17.8l3.26-2.04v-17.8z"/><path style="fill:#8c8e91" d="m146.88 46.63-3.27 2.04 15.52 8.96 3.26-2.04-15.51-8.96z"/></g></g><g><path style="fill:#4f4f51" d="m180 66 1.56-.9-6.17-3.56-1.55.9L180 66zM172.84 61.84l1.55-.89-6.16-3.56-1.56.89 6.17 3.56z"/><path style="fill:#4f4f51" d="m180 67.41 1.56-.89-6.17-3.56-1.55.89 6.16 3.56zM172.84 63.26l1.55-.9-6.16-3.56-1.56.9 6.17 3.56z"/><path style="fill:#4f4f51" d="m180 68.83 1.56-.9-6.17-3.56-1.55.9 6.16 3.56zM172.84 64.67l1.55-.89-6.16-3.56-1.56.89 6.17 3.56z"/><path style="fill:#4f4f51" d="m180 70.24 1.56-.89-6.17-3.56-1.55.89 6.16 3.56zM172.84 66.09l1.55-.9-6.16-3.56-1.56.9 6.17 3.56z"/><path style="fill:#4f4f51" d="m180 71.66 1.56-.9-6.17-3.56-1.55.9 6.16 3.56zM172.84 67.5l1.55-.89-6.16-3.56-1.56.89 6.17 3.56z"/><path style="fill:#4f4f51" d="m180 73.07 1.56-.89-6.17-3.56-1.55.89 6.16 3.56zM172.84 68.92l1.55-.9-6.16-3.56-1.56.9 6.17 3.56z"/><path style="fill:#4f4f51" d="m180 74.49 1.56-.9-6.17-3.56-1.55.9 6.16 3.56zM172.84 70.33l1.55-.89-6.16-3.57-1.56.9 6.17 3.56z"/><path style="fill:#4f4f51" d="m180 75.9 1.56-.89-6.17-3.57-1.55.9L180 75.9zM172.84 71.75l1.55-.9-6.16-3.56-1.56.89 6.17 3.57z"/><path style="fill:#4f4f51" d="m180 77.32 1.56-.9-6.17-3.56-1.55.89 6.16 3.57zM172.84 73.16l1.55-.9-6.16-3.56-1.56.9 6.17 3.56z"/><path style="fill:#4f4f51" d="m180 78.73 1.56-.9-6.17-3.56-1.55.9 6.16 3.56zM172.84 74.57l1.55-.89-6.16-3.56-1.56.89 6.17 3.56z"/><path style="fill:#4f4f51" d="m180 80.14 1.56-.89-6.17-3.56-1.55.89 6.16 3.56zM172.84 75.99l1.55-.9-6.16-3.56-1.56.9 6.17 3.56z"/><path style="fill:#4f4f51" d="m180 81.56 1.56-.9-6.17-3.56-1.55.9 6.16 3.56zM172.84 77.4l1.55-.89-6.16-3.56-1.56.89 6.17 3.56z"/><path style="fill:#4f4f51" d="m180 82.97 1.56-.89-6.17-3.56-1.55.89 6.16 3.56zM172.84 78.82l1.55-.9-6.16-3.56-1.56.9 6.17 3.56z"/><g><path style="fill:#5a595c" d="m164.69 74.57 15.51 8.96V65.72l-15.51-8.96v17.81z"/><path style="fill:#4f4f51" d="m161.42 76.61 15.52 8.95v-17.8l-15.52-8.96v17.81z"/><path style="fill:#757779" d="m180.2 65.72-3.26 2.04v17.8l3.26-2.03V65.72z"/><path style="fill:#8c8e91" d="m164.69 56.76-3.27 2.04 15.52 8.96 3.26-2.04-15.51-8.96z"/></g></g></g><path d="m104.02 105.75 28.63 16.53 6.66 3.84c.7.41 1.6.61 2.44.61.71 0 1.38-.14 1.88-.43l7.22-4.17 28.94-16.71c.5-.29.75-.68.75-1.09 0-.49-.36-1.01-1.06-1.41l-35.29-20.37c-1.28-.74-3.22-.82-4.33-.18l-36.16 20.88c-1.11.64-.97 1.76.31 2.5Z" style="fill:#676767"/><path style="fill:#a5a6a9" d="M139.88 45.93v37.08l40.66 21.9V69.05l-40.66-23.12z"/><g><path style="fill:#909294" d="M150.14 87.26 120.49 70l.08-7.96 29.51 17.29.06 7.93z"/><path style="fill:#a5a6a9" d="m150.08 79.33-29.51-17.29.49-.29 29.51 17.28-.49.3z"/><path style="fill:#6e6f71" d="m150.57 87-.43.26-.06-7.93.49-.3V87z"/><path style="fill:#909294" d="m121.03 64.31 30.36 17.62.14 8.08-30.37-17.62"/><path style="fill:#a5a6a9" d="m121.03 64.31 30.36 17.62.5-.29-30.37-17.6"/><path style="fill:#6e6f71" d="m151.96 89.76-.43.25-.14-8.08.5-.29.07 8.12z"/><g><path style="fill:#909294" d="m146.58 88.89-28.63-16.38-.14-8.08 28.63 16.38.14 8.08z"/><path style="fill:#a5a6a9" d="m146.44 80.81-28.63-16.38.5-.26 28.63 16.35-.5.29z"/><path style="fill:#6e6f71" d="m147.01 88.64-.43.25-.14-8.08.5-.29.07 8.12z"/></g><g><path style="fill:#909294" d="m117.48 66.61 30.37 17.62.13 8.09-30.36-17.63"/><path style="fill:#a5a6a9" d="m117.48 66.61 30.37 17.63.49-.3-30.37-17.59"/><path style="fill:#6e6f71" d="m148.41 92.06-.43.26-.13-8.09.49-.29.07 8.12z"/></g></g><path d="M141.75 91.44v35.74c.71 0 1.38-.14 1.88-.43l36.16-20.88c.5-.29.75-.68.75-1.09V69.04c0 .41-.25.8-.75 1.09l-28.94 16.71-7.22 4.17c-.5.29-1.18.43-1.88.43Z" style="fill:url(#bd)"/><path d="M101.34 68.35v35.74c0 .49.36 1.01 1.06 1.41l36.91 21.07c.7.41 1.6.61 2.44.61V91.44c-.85 0-1.75-.21-2.44-.61l-6.66-3.84-30.25-17.23c-.7-.4-1.06-.92-1.06-1.41Z" style="fill:url(#be)"/><g><path d="m151.4 120 .67.48c.23.17.53.03.91-.19l6.24-3.58c1.15-.68 1.35-.8 1.35-2.09V91.36c0-.35.07-1.22-.57-1.22-.44 0-.65.1-.65.1s.37.45.41.68c.01.08.02.16.02.25v22.82c0 1.21-.25 1.43-1.26 2.04l-5.73 3.38-.56.34c-.12.07-.3.15-.42.18-.21.05-.27.17-.42.08Z" style="fill:#e4e5e5"/><path d="m151.83 119.98 7.39-4.26c.34-.2.62-.72.62-1.18V90.75c0-.45-.28-.66-.62-.47l-7.39 4.26c-.34.2-.62.72-.62 1.18v23.79c0 .45.28.66.62.47Z" style="fill:url(#bf)"/></g><g><path d="m151.72 93.25 7.61-4.39c.19-.11.35-.38.35-.6l-.02-4.17c0-.22-.16-.31-.35-.2l-7.61 4.39c-.19.11-.35.38-.35.6l.02 4.17c0 .22.16.31.35.2Z" style="fill:#a5a6a9"/><ellipse cx="159.19" cy="88.4" rx=".21" ry=".12" transform="rotate(-59.69 159.1875 88.3915)" style="fill:#909294"/><ellipse cx="157.35" cy="89.46" rx=".21" ry=".12" transform="rotate(-59.69 157.3488 89.4563)" style="fill:#909294"/><ellipse cx="155.51" cy="90.52" rx=".21" ry=".12" transform="rotate(-59.69 155.51 90.521)" style="fill:#909294"/><ellipse cx="153.66" cy="91.58" rx=".21" ry=".12" transform="rotate(-59.69 153.6626 91.5808)" style="fill:#909294"/><ellipse cx="151.82" cy="92.65" rx=".21" ry=".12" transform="rotate(-59.69 151.8238 92.6456)" style="fill:#909294"/><ellipse cx="159.19" cy="84.6" rx=".21" ry=".12" transform="rotate(-59.69 159.1892 84.593)" style="fill:#909294"/><ellipse cx="157.35" cy="85.66" rx=".21" ry=".12" transform="rotate(-59.69 157.3504 85.6579)" style="fill:#909294"/><ellipse cx="155.51" cy="86.72" rx=".21" ry=".12" transform="rotate(-59.69 155.5117 86.7226)" style="fill:#909294"/><ellipse cx="153.66" cy="87.78" rx=".21" ry=".12" transform="rotate(-59.69 153.6642 87.7824)" style="fill:#909294"/><ellipse cx="151.82" cy="88.85" rx=".21" ry=".12" transform="rotate(-59.69 151.8255 88.8472)" style="fill:#909294"/></g><g><path d="M172.35 97.28c0-.27-.26-.63-.59-.82l-10.4-6-.2-.12c-.22-.13-.41-.14-.51-.05l.95-.49c.21-.11.66.22.88.35l9.86 5.63c.32.19.59.56.59.82l-.58.68" style="fill:#4c86c5"/><path d="M172.35 97.28v24.64c0 .06-.01.1-.03.14l.52-.62c.08-.09.09-.13.09-.3V96.6l-.58.68" style="fill:#305b8f"/><path d="M160.58 90.48v24.64c0 .27.27.63.59.82l10.6 6.12c.25.15.47.14.55 0s.03-.09.03-.14V97.28c0-.27-.26-.63-.59-.82l-10.4-6-.2-.12c-.22-.13-.41-.14-.51-.05l-.02.02s-.05.1-.05.16Z" style="fill:#2a7de1"/></g><path d="m102.15 69.78 30.5 17.21 6.66 3.84c.7.41 1.6.61 2.44.61.71 0 1.38-.14 1.88-.43l7.22-4.17 28.94-16.71c.5-.29.75-.68.75-1.09 0-.49-.36-1.01-1.06-1.41l-37.14-21.16c-1.28-.74-3.22-.82-4.33-.18l-36.18 20.99c-1.11.64-.97 1.76.31 2.5Z" style="fill:#f1f1f1"/><g><path style="fill:url(#bg)" d="m152.46 82.45.29.16 18.02-10.4-.29-.17-18.02 10.41z"/><path style="fill:url(#bh)" d="m141.1 89 .29.17 9.01-5.2-.28-.17-9.02 5.2z"/><path style="fill:url(#bi)" d="m172.47 70.89.29.17 4.51-2.6-.29-.17-4.51 2.6z"/><path style="fill:url(#bj)" d="m149.85 81.03.29.17 18.02-10.4-.29-.17-18.02 10.4z"/><path style="fill:url(#bk)" d="m138.5 87.59.29.16 9.01-5.2-.29-.16-9.01 5.2z"/><path style="fill:url(#bl)" d="m169.87 69.48.29.16 4.5-2.6-.29-.16-4.5 2.6z"/><path style="fill:url(#bm)" d="m147.25 79.62.28.17 18.02-10.41-.28-.17-18.02 10.41z"/><path style="fill:url(#bn)" d="m135.89 86.17.29.17 9.01-5.2-.29-.17-9.01 5.2z"/><path style="fill:url(#bo)" d="m167.26 68.06.29.17 4.5-2.6-.28-.17-4.51 2.6z"/><path style="fill:url(#bp)" d="m144.64 78.2.29.17 18.02-10.4-.29-.17-18.02 10.4z"/><path style="fill:url(#bq)" d="m133.29 84.76.29.17 9.01-5.21-.29-.16-9.01 5.2z"/><path style="fill:url(#br)" d="m164.66 66.65.28.17 4.51-2.61-.29-.16-4.5 2.6z"/><path style="fill:url(#bs)" d="m142.03 76.79.29.17 18.02-10.41-.29-.16-18.02 10.4z"/><path style="fill:url(#bt)" d="m130.68 83.34.29.17 9.01-5.2-.29-.17-9.01 5.2z"/><path style="fill:url(#bu)" d="m162.05 65.23.29.17 4.5-2.6-.29-.17-4.5 2.6z"/><path style="fill:url(#bv)" d="m139.43 75.38.29.16 18.02-10.4-.29-.17-18.02 10.41z"/><path style="fill:url(#bw)" d="m128.08 81.93.28.17 9.02-5.21-.29-.16-9.01 5.2z"/><path style="fill:url(#bx)" d="m159.44 63.82.29.17 4.51-2.6-.29-.17-4.51 2.6z"/><path style="fill:url(#by)" d="m136.82 73.96.29.17 18.02-10.41-.29-.16-18.02 10.4z"/><path style="fill:url(#bz)" d="m125.47 80.52.29.16 9.01-5.2-.29-.17-9.01 5.21z"/><path style="fill:url(#bA)" d="m156.84 62.4.29.17 4.5-2.6-.29-.17-4.5 2.6z"/><path style="fill:url(#bB)" d="m134.22 72.55.29.16 18.02-10.4-.29-.17-18.02 10.41z"/><path style="fill:url(#bC)" d="m122.86 79.1.29.17 9.01-5.2-.29-.17-9.01 5.2z"/><path style="fill:url(#bD)" d="m154.23 60.99.29.17 4.51-2.6-.29-.17-4.51 2.6z"/><path style="fill:url(#bE)" d="m131.61 71.13.29.17 18.02-10.41-.29-.16-18.02 10.4z"/><path style="fill:url(#bF)" d="m120.26 77.69.29.16 9.01-5.2-.29-.17-9.01 5.21z"/><path style="fill:url(#bG)" d="m151.63 59.58.29.16 4.5-2.6-.29-.17-4.5 2.61z"/><path style="fill:url(#bH)" d="m129 69.72.29.16 18.02-10.4-.28-.17L129 69.72z"/><path style="fill:url(#bI)" d="m117.65 76.27.29.17 9.01-5.2-.29-.17-9.01 5.2z"/><path style="fill:url(#bJ)" d="m149.02 58.16.29.17 4.5-2.6-.28-.17-4.51 2.6z"/><path style="fill:url(#bK)" d="m126.4 68.3.29.17 18.02-10.4-.29-.17-18.02 10.4z"/><path style="fill:url(#bL)" d="m115.05 74.86.29.16 9.01-5.2-.29-.17-9.01 5.21z"/><path style="fill:url(#bM)" d="m146.41 56.75.29.16 4.51-2.6-.29-.16-4.51 2.6z"/><path style="fill:url(#bN)" d="m123.79 66.89.29.17 18.02-10.41-.29-.17-18.02 10.41z"/><path style="fill:url(#bO)" d="m112.44 73.44.29.17 9.01-5.2-.29-.17-9.01 5.2z"/><path style="fill:url(#bP)" d="m143.81 55.33.29.17 4.5-2.6-.29-.17-4.5 2.6z"/><path style="fill:url(#bQ)" d="m121.19 65.47.29.17 18.02-10.4-.29-.17-18.02 10.4z"/><path style="fill:url(#bR)" d="m109.84 72.03.28.16 9.01-5.2-.28-.16-9.01 5.2z"/><path style="fill:url(#bS)" d="m141.2 53.92.29.16 4.51-2.6-.29-.16-4.51 2.6z"/><path style="fill:url(#bT)" d="m118.58 64.06.29.17 18.02-10.41-.29-.16-18.02 10.4z"/><path style="fill:url(#bU)" d="m107.23 70.61.29.17 9.01-5.2-.29-.17-9.01 5.2z"/><path style="fill:url(#bV)" d="m138.6 52.5.29.17 4.5-2.6-.29-.17-4.5 2.6z"/><path style="fill:url(#bW)" d="m115.98 62.64.28.17 18.03-10.4-.29-.17-18.02 10.4z"/><path style="fill:url(#bX)" d="m104.62 69.2.29.17 9.01-5.21-.29-.16-9.01 5.2z"/><path style="fill:url(#bY)" d="m135.99 51.09.29.17 4.51-2.61-.29-.16-4.51 2.6z"/></g><path style="fill:#f1f1f1" d="m98.36 104.15 5.46 3.12V70.39l-5.46-2.84v36.6z"/><path style="fill:#f3f3f3" d="m103.82 70.39 40.1-23.27-5.72-2.97-39.84 23.4 5.46 2.84z"/><g><g style="filter:url(#bZ)"><path style="fill:#b8babc" d="m106.48 108.65-18.09 10.49 31.98 18.48 16.12-11.64-30.01-17.33z"/></g><g style="filter:url(#ca)"><path d="m107.16 107.61 28.17 16.03c.52.3.95-.02.95-.72V94.16c0-.7-.43-1.51-.95-1.81l-28.17-16.03c-.52-.3-.95.02-.95.72v28.76c0 .7.43 1.51.95 1.81Z" style="fill:gray"/></g><path style="fill:#18549f" d="m106.69 106.04 29.59 17.09v-8.49l-29.59-17.09v8.49z"/><path style="fill:#1a428a" d="m106.69 97.55-17.64 19.21v2.12l17.64-12.84v-8.49z"/><path style="fill:#1a428a" d="m89.05 118.88 29.6 17.09v-2.12l-29.6-17.09v2.12zM136.28 114.64l-17.63 19.21v2.12l17.63-12.84v-8.49z"/><path style="fill:#2a7de1" d="m118.65 133.85 17.63-19.21-29.59-17.09-17.64 19.21 29.6 17.09z"/><g style="filter:url(#cb)"><path style="fill:#1a428a" d="m105.27 101.85-12.03 13.98 24.69 13.72 17.34-15.49-30-12.21z"/></g><path style="fill:none;stroke:#1a428a;stroke-linecap:round;stroke-miterlimit:10;stroke-width:.25px" d="m116.62 131.62 15.96-17.39M114.02 130.1l15.96-17.39M94.92 119.2l15.96-17.38M92.32 117.68l15.96-17.38"/><path style="fill:none;stroke:#1a428a;stroke-linecap:round;stroke-miterlimit:10;stroke-width:.27px" d="m127.33 111.6-5.35 5.72-3.59-2.07 3.04-3.02-6.87-4.01-2.89 2.71-3.47-1.96 5.26-5.37 13.87 8z"/><path d="m118.3 112.72-4.28 4.23c-.1.1-.26.13-.39.07l-2.82-1.57c-.23-.1-.28-.4-.11-.58l4.31-4.17c.1-.1.26-.13.39-.07l2.79 1.5c.23.1.28.4.11.58Z" style="fill:none;stroke:#1a428a;stroke-linecap:round;stroke-miterlimit:10;stroke-width:.27px"/><path style="fill:none;stroke:#1a428a;stroke-linecap:round;stroke-miterlimit:10;stroke-width:.27px" d="m107.84 114.81.28 4.77 6.4-.6 2.97-2.57 3.47 2.01-3.63 3.5-13.27 1.52-.82-9.33 4.02-3.98 3.57 1.96-2.99 2.72z"/><g><path style="fill:#18549f" d="m106.69 95.22 29.59 17.09v-8.49l-29.59-17.09v8.49z"/><path style="fill:#1a428a" d="m106.69 86.73-17.64 19.21v2.13l17.64-12.85v-8.49z"/><path style="fill:#1a428a" d="m89.05 108.07 29.6 17.08v-2.12l-29.6-17.09v2.13zM136.28 103.82l-17.63 19.21v2.12l17.63-12.84v-8.49z"/><path style="fill:#2a7de1" d="m118.65 123.03 17.63-19.21-29.59-17.09-17.64 19.21 29.6 17.09z"/><g style="filter:url(#cc)"><path style="fill:#1a428a" d="m105.27 90.54-12.03 13.98 24.69 13.71 17.34-15.49-30-12.2z"/></g><path style="fill:none;stroke:#1a428a;stroke-linecap:round;stroke-miterlimit:10;stroke-width:.25px" d="m116.62 120.54 15.96-17.38M114.02 119.02l15.96-17.38M94.92 108.13l15.96-17.39M92.32 106.61l15.96-17.39"/><path style="fill:none;stroke:#1a428a;stroke-linecap:round;stroke-miterlimit:10;stroke-width:.27px" d="m127.33 100.53-5.35 5.71-3.59-2.07 3.04-3.02-6.87-4.01-2.89 2.71-3.47-1.95 5.26-5.38 13.87 8.01z"/><path d="m118.3 101.65-4.28 4.23c-.1.1-.26.13-.39.07l-2.82-1.57c-.23-.1-.28-.4-.11-.58l4.31-4.17c.1-.1.26-.13.39-.07l2.79 1.5c.23.1.28.4.11.58Z" style="fill:none;stroke:#1a428a;stroke-linecap:round;stroke-miterlimit:10;stroke-width:.27px"/><path style="fill:none;stroke:#1a428a;stroke-linecap:round;stroke-miterlimit:10;stroke-width:.27px" d="m107.84 103.74.28 4.77 6.4-.61 2.97-2.56 3.47 2-3.63 3.51-13.27 1.51-.82-9.33 4.02-3.97 3.57 1.96-2.99 2.72z"/></g><g><path style="fill:#18549f" d="m106.69 84.41 29.59 17.08V93l-29.59-17.09v8.5z"/><path style="fill:#1a428a" d="M106.69 75.91 89.05 95.13v2.12l17.64-12.84v-8.5z"/><path style="fill:#1a428a" d="m89.05 97.25 29.6 17.09v-2.13l-29.6-17.08v2.12zM136.28 93l-17.63 19.21v2.13l17.63-12.85V93z"/><path style="fill:#2a7de1" d="M118.65 112.21 136.28 93l-29.59-17.09-17.64 19.22 29.6 17.08z"/><path style="fill:none;stroke:#1a428a;stroke-linecap:round;stroke-miterlimit:10;stroke-width:.25px" d="m116.62 109.46 15.96-17.39M114.02 107.94l15.96-17.39M94.92 97.04l15.96-17.38M92.32 95.52l15.96-17.38"/><path style="fill:none;stroke:#1a428a;stroke-linecap:round;stroke-miterlimit:10;stroke-width:.27px" d="m127.33 89.44-5.35 5.71-3.59-2.06 3.04-3.02-6.87-4.01-2.89 2.71-3.47-1.96 5.26-5.38 13.87 8.01z"/><path d="m118.3 90.56-4.28 4.23c-.1.1-.26.13-.39.07l-2.82-1.57c-.23-.1-.28-.4-.11-.58l4.31-4.17c.1-.1.26-.13.39-.07l2.79 1.5c.23.1.28.4.11.58Z" style="fill:none;stroke:#1a428a;stroke-linecap:round;stroke-miterlimit:10;stroke-width:.27px"/><path style="fill:none;stroke:#1a428a;stroke-linecap:round;stroke-miterlimit:10;stroke-width:.27px" d="m107.84 92.65.28 4.77 6.4-.6 2.97-2.57 3.47 2-3.63 3.51-13.27 1.52-.82-9.33 4.02-3.98 3.57 1.96-2.99 2.72z"/></g></g></svg>