<svg width="572" height="401" viewBox="0 0 572 401" fill="none" xmlns="http://www.w3.org/2000/svg">
<g filter="url(#filter0_f_2631_39836)">
<path d="M210.25 378.065L319.711 314.748L167 237.815L56.25 285.315L210.25 378.065Z" fill="#F2F2F2"/>
</g>
<path d="M309.71 307.479L210.23 364.914V186.94L309.71 129.506V307.479Z" fill="#999999"/>
<path d="M210.23 186.94V364.87L161.461 336.644L55.7617 275.619V74.0117L161.461 151.383V151.309L210.23 186.94Z" fill="#B3B3B3"/>
<path d="M55.7617 275.605V281.552L210.23 370.815V364.871L55.7617 275.605ZM98.5553 306.043L84.0483 297.667V292.197L93.5226 297.667L98.5553 300.573V306.043ZM164.928 344.364L150.421 335.988V330.518L164.928 338.893V344.364Z" fill="#808080"/>
<path d="M93.5251 297.667L98.5578 300.572V306.043L84.0508 297.667V292.197L93.5251 297.667Z" fill="#999999"/>
<path d="M164.929 338.893V344.364L150.422 335.988V330.517L164.929 338.893Z" fill="#999999"/>
<path d="M89.2055 295.174L84.0508 297.667V292.197L89.2055 295.174Z" fill="#999999"/>
<path d="M164.929 338.893V344.364L150.422 335.988V330.517L164.929 338.893Z" fill="white"/>
<path d="M98.5578 300.572V306.043L84.0508 297.667L89.2055 295.174L93.5251 297.667L98.5578 300.572Z" fill="#4D4D4D"/>
<path d="M309.71 313.423L210.23 370.815V364.868L309.71 307.479V313.423Z" fill="#808080"/>
<g filter="url(#filter1_d_2631_39836)">
<path d="M294.745 321.818L280.238 330.194V324.724L294.745 316.348V321.818Z" fill="white"/>
</g>
<path d="M247.093 349.327L232.586 357.703V352.232L247.093 343.857V349.327Z" fill="white"/>
<path d="M210.231 186.94V182.183L55.7656 69.2855V74.0406L210.231 186.94Z" fill="#999999"/>
<path d="M210.23 186.94V182.183L309.71 124.748V129.506L210.23 186.94Z" fill="#808080"/>
<path d="M210.231 182.183L309.71 124.748L155.245 11.8149L55.7656 69.2496L210.231 182.183Z" fill="#F2F2F2"/>
<path d="M265.895 319.593L296.656 301.764C297.173 301.465 297.491 300.915 297.491 300.316V255.716C297.491 254.426 296.094 253.622 294.979 254.268L264.536 271.91C263.272 272.642 262.492 273.995 262.492 275.457V317.633C262.492 319.38 264.383 320.469 265.893 319.593H265.895Z" fill="#043E88"/>
<path d="M268.07 310.47L288.381 322.197V303.114L280.043 283.768L268.07 276.854V310.47Z" fill="#0552B5"/>
<path d="M292.66 262.665L304.632 269.562L280.043 283.768L268.07 276.869L292.66 262.665Z" fill="#7CC4FA"/>
<path d="M288.379 303.114L313.554 288.571V307.656L288.379 322.197V303.114Z" fill="#7CC4FA"/>
<path d="M280.043 283.768L304.632 269.562L313.556 288.657L288.381 303.198L280.043 283.768Z" fill="#BAE3FF"/>
<path d="M265.895 267.684L296.656 249.855C297.173 249.556 297.491 249.006 297.491 248.407V203.807C297.491 202.517 296.094 201.713 294.979 202.359L264.536 220.001C263.272 220.734 262.492 222.086 262.492 223.548V265.724C262.492 267.471 264.383 268.56 265.893 267.684H265.895Z" fill="#043E88"/>
<path d="M268.07 258.561L288.381 270.288V251.205L280.043 231.859L268.07 224.945V258.561Z" fill="#0552B5"/>
<path d="M292.66 210.757L304.632 217.654L280.043 231.859L268.07 224.96L292.66 210.757Z" fill="#7CC4FA"/>
<path d="M288.379 251.205L313.554 236.662V255.747L288.379 270.288V251.205Z" fill="#7CC4FA"/>
<path d="M280.043 231.859L304.632 217.654L313.556 236.748L288.381 251.289L280.043 231.859Z" fill="#BAE3FF"/>
<path d="M265.895 216.598L296.656 198.769C297.173 198.47 297.491 197.92 297.491 197.322V152.721C297.491 151.431 296.094 150.627 294.979 151.273L264.536 168.915C263.272 169.648 262.492 171 262.492 172.462V214.638C262.492 216.385 264.383 217.474 265.893 216.598H265.895Z" fill="#043E88"/>
<path d="M268.07 207.476L288.381 219.202V200.119L280.043 180.771L268.07 173.86V207.476Z" fill="#0552B5"/>
<path d="M292.66 159.669L304.632 166.568L280.043 180.771L268.07 173.874L292.66 159.669Z" fill="#E6F6FF"/>
<path d="M288.379 200.119L313.554 185.576V204.659L288.379 219.202V200.119Z" fill="#7CC4FA"/>
<path d="M280.043 180.771L304.632 166.568L313.556 185.66L288.381 200.203L280.043 180.771Z" fill="#BAE3FF"/>
<path d="M225.098 341.593L255.859 323.764C256.376 323.465 256.695 322.914 256.695 322.316V277.716C256.695 276.426 255.297 275.622 254.182 276.268L223.739 293.91C222.475 294.642 221.695 295.994 221.695 297.457V339.633C221.695 341.38 223.586 342.469 225.096 341.593H225.098Z" fill="#043E88"/>
<path d="M227.273 332.47L247.584 344.196V325.114L239.246 305.768L227.273 298.854V332.47Z" fill="#0552B5"/>
<path d="M251.863 284.663L263.835 291.562L239.246 305.768L227.273 298.868L251.863 284.663Z" fill="#7CC4FA"/>
<path d="M247.582 325.114L272.758 310.571V329.656L247.582 344.196V325.114Z" fill="#7CC4FA"/>
<path d="M239.246 305.768L263.835 291.562L272.759 310.655L247.584 325.198L239.246 305.768Z" fill="#BAE3FF"/>
<path d="M225.098 289.684L255.859 271.855C256.376 271.556 256.695 271.005 256.695 270.407V225.807C256.695 224.517 255.297 223.713 254.182 224.359L223.739 242.001C222.475 242.733 221.695 244.085 221.695 245.548V287.724C221.695 289.471 223.586 290.56 225.096 289.684H225.098Z" fill="#043E88"/>
<path d="M227.273 280.561L247.584 292.287V273.205L239.246 253.856L227.273 246.945V280.561Z" fill="#0552B5"/>
<path d="M251.863 232.754L263.835 239.653L239.246 253.856L227.273 246.96L251.863 232.754Z" fill="#7CC4FA"/>
<path d="M247.582 273.205L272.758 258.662V277.747L247.582 292.288V273.205Z" fill="#7CC4FA"/>
<path d="M239.246 253.856L263.835 239.653L272.759 258.746L247.584 273.288L239.246 253.856Z" fill="#BAE3FF"/>
<path d="M225.098 238.596L255.859 220.767C256.376 220.468 256.695 219.917 256.695 219.319V174.719C256.695 173.429 255.297 172.625 254.182 173.271L223.739 190.913C222.475 191.645 221.695 192.997 221.695 194.46V236.636C221.695 238.383 223.586 239.472 225.096 238.596H225.098Z" fill="#043E88"/>
<path d="M227.273 229.476L247.584 241.202V222.117L239.246 202.771L227.273 195.859V229.476Z" fill="#0552B5"/>
<path d="M251.863 181.668L263.835 188.568L239.246 202.771L227.273 195.871L251.863 181.668Z" fill="#E6F6FF"/>
<path d="M247.582 222.117L272.758 207.576V226.659L247.582 241.202V222.117Z" fill="#7CC4FA"/>
<path d="M239.246 202.771L263.835 188.568L272.759 207.66L247.584 222.203L239.246 202.771Z" fill="#BAE3FF"/>
<path d="M109.616 303.045L58.5781 275.572V91.6396L109.616 123.691V303.045Z" fill="#043E88"/>
<path d="M105.734 296.315L72.6758 297.007L105.734 238.837V296.315Z" fill="#0552B5"/>
<path d="M61.5037 268.778L28.4453 269.469L61.5037 211.302V268.778Z" fill="#043E88"/>
<path d="M72.6748 297.007L28.4453 269.469L61.5037 211.302L105.733 238.837L72.6748 297.007Z" fill="url(#paint0_linear_2631_39836)"/>
<path d="M105.734 239.598L72.6758 240.29L105.734 182.121V239.598Z" fill="#0552B5"/>
<path d="M61.5037 212.061L28.4453 212.753L61.5037 154.586V212.061Z" fill="#043E88"/>
<path d="M72.6748 240.29L28.4453 212.752L61.5037 154.586L105.733 182.121L72.6748 240.29Z" fill="url(#paint1_linear_2631_39836)"/>
<path d="M105.734 182.882L72.6758 183.573L105.734 125.404V182.882Z" fill="#0552B5"/>
<path d="M61.5037 155.344L28.4453 156.036L61.5037 97.8688V155.344Z" fill="#043E88"/>
<path d="M72.6748 183.573L28.4453 156.036L61.5037 97.8688L105.733 125.404L72.6748 183.573Z" fill="#2A7DE1"/>
<g clip-path="url(#clip0_2631_39836)">
<path d="M305 81.8149L368.45 45.075H411.86" stroke="#002159" stroke-miterlimit="10" stroke-linecap="round" stroke-dasharray="2 2"/>
<path d="M413.801 45.075H415.801" stroke="#002159" stroke-miterlimit="10" stroke-linecap="round"/>
<path d="M415.588 48.8349C417.665 48.8349 419.348 47.1515 419.348 45.0749C419.348 42.9984 417.665 41.3149 415.588 41.3149C413.512 41.3149 411.828 42.9984 411.828 45.0749C411.828 47.1515 413.512 48.8349 415.588 48.8349Z" fill="white"/>
<path d="M415.588 49.3349C413.238 49.3349 411.328 47.4249 411.328 45.0749C411.328 42.7249 413.238 40.8149 415.588 40.8149C417.938 40.8149 419.848 42.7249 419.848 45.0749C419.848 47.4249 417.938 49.3349 415.588 49.3349C417.938 49.3349 413.238 49.3349 415.588 49.3349ZM415.588 41.8149C413.788 41.8149 412.328 43.2749 412.328 45.0749C412.328 46.8749 413.788 48.3349 415.588 48.3349C417.388 48.3349 418.848 46.8749 418.848 45.0749C418.848 43.2749 417.388 41.8149 415.588 41.8149C417.388 41.8149 413.788 41.8149 415.588 41.8149Z" fill="#002159"/>
</g>
<path d="M442.977 7.72727V31H437.364V12.9773H437.227L432.023 16.1591V11.2955L437.761 7.72727H442.977ZM452.255 13.5455L455.13 19.2955L458.107 13.5455H463.709L458.834 22.2727L463.891 31H458.334L455.13 25.2045L452.005 31H446.369L451.437 22.2727L446.619 13.5455H452.255Z" fill="#002159"/>
<path d="M432.909 51V39.3636H436.841C437.75 39.3636 438.496 39.5189 439.08 39.8295C439.663 40.1364 440.095 40.5587 440.375 41.0966C440.655 41.6345 440.795 42.2462 440.795 42.9318C440.795 43.6174 440.655 44.2254 440.375 44.7557C440.095 45.286 439.665 45.7027 439.085 46.0057C438.506 46.3049 437.765 46.4545 436.864 46.4545H433.682V45.1818H436.818C437.439 45.1818 437.939 45.0909 438.318 44.9091C438.701 44.7273 438.977 44.4697 439.148 44.1364C439.322 43.7992 439.409 43.3977 439.409 42.9318C439.409 42.4659 439.322 42.0587 439.148 41.7102C438.973 41.3617 438.695 41.0928 438.312 40.9034C437.93 40.7102 437.424 40.6136 436.795 40.6136H434.318V51H432.909ZM438.386 45.7727L441.25 51H439.614L436.795 45.7727H438.386ZM445.21 51.2045C444.657 51.2045 444.155 51.1004 443.704 50.892C443.253 50.6799 442.895 50.375 442.63 49.9773C442.365 49.5758 442.233 49.0909 442.233 48.5227C442.233 48.0227 442.331 47.6174 442.528 47.3068C442.725 46.9924 442.988 46.7462 443.318 46.5682C443.647 46.3902 444.011 46.2576 444.409 46.1705C444.81 46.0795 445.214 46.0076 445.619 45.9545C446.149 45.8864 446.579 45.8352 446.909 45.8011C447.242 45.7633 447.484 45.7008 447.636 45.6136C447.791 45.5265 447.869 45.375 447.869 45.1591V45.1136C447.869 44.553 447.716 44.1174 447.409 43.8068C447.106 43.4962 446.645 43.3409 446.028 43.3409C445.388 43.3409 444.886 43.4811 444.522 43.7614C444.159 44.0417 443.903 44.3409 443.755 44.6591L442.483 44.2045C442.71 43.6742 443.013 43.2614 443.392 42.9659C443.774 42.6667 444.191 42.4583 444.642 42.3409C445.096 42.2197 445.543 42.1591 445.983 42.1591C446.263 42.1591 446.585 42.1932 446.948 42.2614C447.316 42.3258 447.67 42.4602 448.011 42.6648C448.356 42.8693 448.642 43.178 448.869 43.5909C449.096 44.0038 449.21 44.5568 449.21 45.25V51H447.869V49.8182H447.801C447.71 50.0076 447.558 50.2102 447.346 50.4261C447.134 50.642 446.852 50.8258 446.5 50.9773C446.147 51.1288 445.717 51.2045 445.21 51.2045ZM445.414 50C445.945 50 446.392 49.8958 446.755 49.6875C447.123 49.4792 447.399 49.2102 447.585 48.8807C447.774 48.5511 447.869 48.2045 447.869 47.8409V46.6136C447.812 46.6818 447.687 46.7443 447.494 46.8011C447.305 46.8542 447.085 46.9015 446.835 46.9432C446.589 46.9811 446.348 47.0152 446.113 47.0455C445.882 47.072 445.695 47.0947 445.551 47.1136C445.202 47.1591 444.876 47.233 444.573 47.3352C444.274 47.4337 444.032 47.5833 443.846 47.7841C443.664 47.9811 443.573 48.25 443.573 48.5909C443.573 49.0568 443.746 49.4091 444.091 49.6477C444.439 49.8826 444.88 50 445.414 50ZM454.883 51.1818C454.065 51.1818 453.36 50.9886 452.769 50.6023C452.178 50.2159 451.724 49.6837 451.405 49.0057C451.087 48.3277 450.928 47.553 450.928 46.6818C450.928 45.7955 451.091 45.0133 451.417 44.3352C451.746 43.6534 452.205 43.1212 452.792 42.7386C453.383 42.3523 454.072 42.1591 454.86 42.1591C455.474 42.1591 456.027 42.2727 456.519 42.5C457.012 42.7273 457.415 43.0455 457.729 43.4545C458.044 43.8636 458.239 44.3409 458.315 44.8864H456.974C456.871 44.4886 456.644 44.1364 456.292 43.8295C455.943 43.5189 455.474 43.3636 454.883 43.3636C454.36 43.3636 453.902 43.5 453.508 43.7727C453.118 44.0417 452.813 44.4223 452.593 44.9148C452.377 45.4034 452.269 45.9773 452.269 46.6364C452.269 47.3106 452.375 47.8977 452.587 48.3977C452.803 48.8977 453.106 49.286 453.496 49.5625C453.89 49.839 454.352 49.9773 454.883 49.9773C455.231 49.9773 455.548 49.9167 455.832 49.7955C456.116 49.6742 456.356 49.5 456.553 49.2727C456.75 49.0455 456.89 48.7727 456.974 48.4545H458.315C458.239 48.9697 458.051 49.4337 457.752 49.8466C457.457 50.2557 457.065 50.5814 456.576 50.8239C456.091 51.0625 455.527 51.1818 454.883 51.1818ZM461.205 47.8182L461.182 46.1591H461.455L465.273 42.2727H466.932L462.864 46.3864H462.75L461.205 47.8182ZM459.955 51V39.3636H461.296V51H459.955ZM465.5 51L462.091 46.6818L463.046 45.75L467.205 51H465.5ZM468.338 51V42.2727H469.679V51H468.338ZM469.02 40.8182C468.758 40.8182 468.533 40.7292 468.344 40.5511C468.158 40.3731 468.065 40.1591 468.065 39.9091C468.065 39.6591 468.158 39.4451 468.344 39.267C468.533 39.089 468.758 39 469.02 39C469.281 39 469.505 39.089 469.69 39.267C469.88 39.4451 469.974 39.6591 469.974 39.9091C469.974 40.1591 469.88 40.3731 469.69 40.5511C469.505 40.7292 469.281 40.8182 469.02 40.8182ZM473.156 45.75V51H471.815V42.2727H473.11V43.6364H473.224C473.428 43.1932 473.739 42.8371 474.156 42.5682C474.572 42.2955 475.11 42.1591 475.769 42.1591C476.36 42.1591 476.877 42.2803 477.32 42.5227C477.764 42.7614 478.108 43.125 478.355 43.6136C478.601 44.0985 478.724 44.7121 478.724 45.4545V51H477.383V45.5455C477.383 44.8598 477.205 44.3258 476.849 43.9432C476.493 43.5568 476.004 43.3636 475.383 43.3636C474.955 43.3636 474.572 43.4564 474.235 43.642C473.902 43.8277 473.639 44.0985 473.445 44.4545C473.252 44.8106 473.156 45.2424 473.156 45.75ZM484.377 54.4545C483.729 54.4545 483.172 54.3712 482.706 54.2045C482.241 54.0417 481.852 53.8258 481.542 53.5568C481.235 53.2917 480.991 53.0076 480.809 52.7045L481.877 51.9545C481.998 52.1136 482.151 52.2955 482.337 52.5C482.523 52.7083 482.776 52.8883 483.098 53.0398C483.424 53.1951 483.85 53.2727 484.377 53.2727C485.081 53.2727 485.663 53.1023 486.121 52.7614C486.58 52.4205 486.809 51.8864 486.809 51.1591V49.3864H486.695C486.597 49.5455 486.456 49.7424 486.275 49.9773C486.097 50.2083 485.839 50.4148 485.502 50.5966C485.169 50.7746 484.718 50.8636 484.15 50.8636C483.445 50.8636 482.812 50.697 482.252 50.3636C481.695 50.0303 481.254 49.5455 480.928 48.9091C480.606 48.2727 480.445 47.5 480.445 46.5909C480.445 45.697 480.602 44.9186 480.917 44.2557C481.231 43.589 481.669 43.0739 482.229 42.7102C482.79 42.3428 483.437 42.1591 484.172 42.1591C484.741 42.1591 485.191 42.2538 485.525 42.4432C485.862 42.6288 486.119 42.8409 486.297 43.0795C486.479 43.3144 486.619 43.5076 486.718 43.6591H486.854V42.2727H488.15V51.25C488.15 52 487.979 52.6098 487.638 53.0795C487.301 53.553 486.847 53.8996 486.275 54.1193C485.706 54.3428 485.074 54.4545 484.377 54.4545ZM484.331 49.6591C484.869 49.6591 485.324 49.536 485.695 49.2898C486.066 49.0436 486.348 48.6894 486.542 48.2273C486.735 47.7652 486.831 47.2121 486.831 46.5682C486.831 45.9394 486.737 45.3845 486.547 44.9034C486.358 44.4223 486.078 44.0455 485.706 43.7727C485.335 43.5 484.877 43.3636 484.331 43.3636C483.763 43.3636 483.29 43.5076 482.911 43.7955C482.536 44.0833 482.254 44.4697 482.064 44.9545C481.879 45.4394 481.786 45.9773 481.786 46.5682C481.786 47.1742 481.881 47.7102 482.07 48.1761C482.263 48.6383 482.547 49.0019 482.922 49.267C483.301 49.5284 483.771 49.6591 484.331 49.6591ZM501.01 42.2727C500.941 41.697 500.665 41.25 500.18 40.9318C499.695 40.6136 499.101 40.4545 498.396 40.4545C497.881 40.4545 497.43 40.5379 497.044 40.7045C496.661 40.8712 496.362 41.1004 496.146 41.392C495.934 41.6837 495.828 42.0152 495.828 42.3864C495.828 42.697 495.902 42.964 496.049 43.1875C496.201 43.4072 496.394 43.5909 496.629 43.7386C496.864 43.8826 497.11 44.0019 497.368 44.0966C497.625 44.1875 497.862 44.2614 498.078 44.3182L499.26 44.6364C499.563 44.7159 499.9 44.8258 500.271 44.9659C500.646 45.1061 501.004 45.2973 501.345 45.5398C501.69 45.7784 501.974 46.0852 502.197 46.4602C502.421 46.8352 502.532 47.2955 502.532 47.8409C502.532 48.4697 502.368 49.0379 502.038 49.5455C501.712 50.053 501.235 50.4564 500.606 50.7557C499.981 51.0549 499.222 51.2045 498.328 51.2045C497.494 51.2045 496.773 51.0701 496.163 50.8011C495.557 50.5322 495.08 50.1572 494.731 49.6761C494.386 49.1951 494.191 48.6364 494.146 48H495.601C495.638 48.4394 495.786 48.803 496.044 49.0909C496.305 49.375 496.635 49.5871 497.032 49.7273C497.434 49.8636 497.866 49.9318 498.328 49.9318C498.866 49.9318 499.349 49.8447 499.777 49.6705C500.205 49.4924 500.544 49.2462 500.794 48.9318C501.044 48.6136 501.169 48.2424 501.169 47.8182C501.169 47.4318 501.061 47.1174 500.845 46.875C500.629 46.6326 500.345 46.4356 499.993 46.2841C499.64 46.1326 499.26 46 498.851 45.8864L497.419 45.4773C496.51 45.2159 495.79 44.8428 495.26 44.358C494.729 43.8731 494.464 43.2386 494.464 42.4545C494.464 41.803 494.64 41.2348 494.993 40.75C495.349 40.2614 495.826 39.8826 496.424 39.6136C497.027 39.3409 497.699 39.2045 498.441 39.2045C499.191 39.2045 499.858 39.339 500.441 39.608C501.025 39.8731 501.487 40.2367 501.828 40.6989C502.172 41.161 502.354 41.6856 502.373 42.2727H501.01ZM505.688 45.75V51H504.347V39.3636H505.688V43.6364H505.802C506.006 43.1856 506.313 42.8277 506.722 42.5625C507.135 42.2936 507.684 42.1591 508.37 42.1591C508.965 42.1591 509.486 42.2784 509.933 42.517C510.379 42.7519 510.726 43.1136 510.972 43.6023C511.222 44.0871 511.347 44.7045 511.347 45.4545V51H510.006V45.5455C510.006 44.8523 509.826 44.3163 509.467 43.9375C509.111 43.5549 508.616 43.3636 507.984 43.3636C507.544 43.3636 507.15 43.4564 506.802 43.642C506.457 43.8277 506.184 44.0985 505.984 44.4545C505.787 44.8106 505.688 45.2424 505.688 45.75ZM517.139 51.1818C516.299 51.1818 515.573 50.9962 514.963 50.625C514.357 50.25 513.889 49.7273 513.56 49.0568C513.234 48.3826 513.071 47.5985 513.071 46.7045C513.071 45.8106 513.234 45.0227 513.56 44.3409C513.889 43.6553 514.348 43.1212 514.935 42.7386C515.526 42.3523 516.215 42.1591 517.003 42.1591C517.458 42.1591 517.907 42.2348 518.35 42.3864C518.793 42.5379 519.196 42.7841 519.56 43.125C519.924 43.4621 520.213 43.9091 520.429 44.4659C520.645 45.0227 520.753 45.7083 520.753 46.5227V47.0909H514.026V45.9318H519.389C519.389 45.4394 519.291 45 519.094 44.6136C518.901 44.2273 518.624 43.9223 518.264 43.6989C517.908 43.4754 517.488 43.3636 517.003 43.3636C516.469 43.3636 516.007 43.4962 515.617 43.7614C515.23 44.0227 514.933 44.3636 514.725 44.7841C514.516 45.2045 514.412 45.6553 514.412 46.1364V46.9091C514.412 47.5682 514.526 48.1269 514.753 48.5852C514.984 49.0398 515.304 49.3864 515.713 49.625C516.122 49.8598 516.598 49.9773 517.139 49.9773C517.492 49.9773 517.81 49.928 518.094 49.8295C518.382 49.7273 518.63 49.5758 518.838 49.375C519.047 49.1705 519.208 48.9167 519.321 48.6136L520.617 48.9773C520.48 49.4167 520.251 49.803 519.929 50.1364C519.607 50.4659 519.21 50.7235 518.736 50.9091C518.263 51.0909 517.73 51.1818 517.139 51.1818ZM523.814 39.3636V51H522.473V39.3636H523.814ZM529.836 42.2727V43.4091H525.132V42.2727H529.836ZM526.541 51V41.0682C526.541 40.5682 526.658 40.1515 526.893 39.8182C527.128 39.4848 527.433 39.2348 527.808 39.0682C528.183 38.9015 528.579 38.8182 528.995 38.8182C529.325 38.8182 529.594 38.8447 529.802 38.8977C530.01 38.9508 530.166 39 530.268 39.0455L529.882 40.2045C529.813 40.1818 529.719 40.1534 529.598 40.1193C529.48 40.0852 529.325 40.0682 529.132 40.0682C528.688 40.0682 528.368 40.1799 528.171 40.4034C527.978 40.6269 527.882 40.9545 527.882 41.3864V51H526.541Z" fill="#002159"/>
<path d="M432.403 72.1851V71.418L435.284 68.2646C435.622 67.8953 435.901 67.5743 436.119 67.3015C436.338 67.026 436.5 66.7674 436.605 66.526C436.713 66.2816 436.767 66.026 436.767 65.7589C436.767 65.4521 436.693 65.1865 436.545 64.962C436.401 64.7376 436.202 64.5643 435.949 64.4422C435.696 64.32 435.412 64.2589 435.097 64.2589C434.761 64.2589 434.469 64.3285 434.219 64.4677C433.972 64.6041 433.78 64.7959 433.643 65.043C433.51 65.2902 433.443 65.5799 433.443 65.9123H432.438C432.438 65.401 432.555 64.9521 432.791 64.5657C433.027 64.1794 433.348 63.8782 433.754 63.6623C434.163 63.4464 434.622 63.3385 435.131 63.3385C435.642 63.3385 436.095 63.4464 436.49 63.6623C436.885 63.8782 437.195 64.1694 437.419 64.5359C437.643 64.9024 437.756 65.3101 437.756 65.7589C437.756 66.0799 437.697 66.3939 437.581 66.7007C437.467 67.0047 437.268 67.3441 436.984 67.7191C436.703 68.0913 436.312 68.5459 435.812 69.0828L433.852 71.1794V71.2476H437.909V72.1851H432.403ZM439.702 72.1851L443.605 64.4635V64.3953H439.105V63.4578H444.696V64.4464L440.81 72.1851H439.702ZM446.812 65.6396L448.38 68.3157L449.948 65.6396H451.107L448.993 68.9123L451.107 72.1851H449.948L448.38 69.6453L446.812 72.1851H445.652L447.732 68.9123L445.652 65.6396H446.812ZM460.346 65.6396C460.295 65.2078 460.088 64.8726 459.724 64.6339C459.36 64.3953 458.914 64.276 458.386 64.276C458 64.276 457.661 64.3385 457.372 64.4635C457.085 64.5885 456.86 64.7603 456.698 64.9791C456.539 65.1978 456.46 65.4464 456.46 65.7248C456.46 65.9578 456.515 66.1581 456.626 66.3257C456.74 66.4905 456.884 66.6282 457.061 66.739C457.237 66.847 457.421 66.9365 457.615 67.0075C457.808 67.0757 457.985 67.1311 458.147 67.1737L459.034 67.4123C459.261 67.472 459.514 67.5544 459.792 67.6595C460.073 67.7646 460.342 67.9081 460.598 68.0899C460.856 68.2689 461.069 68.499 461.237 68.7802C461.404 69.0615 461.488 69.4066 461.488 69.8157C461.488 70.2873 461.365 70.7135 461.117 71.0941C460.873 71.4748 460.515 71.7774 460.044 72.0018C459.575 72.2263 459.005 72.3385 458.335 72.3385C457.71 72.3385 457.169 72.2376 456.711 72.0359C456.257 71.8342 455.899 71.553 455.637 71.1922C455.379 70.8314 455.232 70.4123 455.198 69.9351H456.289C456.318 70.2646 456.428 70.5373 456.622 70.7532C456.818 70.9663 457.065 71.1254 457.363 71.2305C457.664 71.3328 457.988 71.3839 458.335 71.3839C458.738 71.3839 459.1 71.3186 459.421 71.1879C459.742 71.0544 459.997 70.8697 460.184 70.6339C460.372 70.3953 460.465 70.1169 460.465 69.7987C460.465 69.5089 460.384 69.2731 460.223 69.0913C460.061 68.9095 459.848 68.7618 459.583 68.6481C459.319 68.5345 459.034 68.4351 458.727 68.3498L457.653 68.043C456.971 67.847 456.431 67.5672 456.034 67.2035C455.636 66.8399 455.437 66.364 455.437 65.776C455.437 65.2873 455.569 64.8612 455.833 64.4976C456.1 64.1311 456.458 63.847 456.907 63.6453C457.359 63.4407 457.863 63.3385 458.42 63.3385C458.982 63.3385 459.482 63.4393 459.92 63.641C460.357 63.8399 460.704 64.1126 460.96 64.4592C461.218 64.8058 461.355 65.1993 461.369 65.6396H460.346ZM465.9 63.4578V72.1851H464.844V64.5657H464.793L462.662 65.9805V64.9066L464.844 63.4578H465.9ZM470.949 63.3385C471.307 63.3413 471.665 63.4095 472.023 63.543C472.381 63.6765 472.707 63.8981 473.003 64.2078C473.298 64.5146 473.535 64.9336 473.714 65.4649C473.893 65.9961 473.983 66.6623 473.983 67.4635C473.983 68.239 473.909 68.928 473.761 69.5302C473.616 70.1297 473.406 70.6353 473.131 71.0473C472.858 71.4592 472.526 71.7717 472.134 71.9848C471.744 72.1978 471.304 72.3044 470.812 72.3044C470.324 72.3044 469.888 72.2078 469.504 72.0146C469.124 71.8186 468.811 71.5473 468.567 71.2007C468.325 70.8513 468.17 70.4464 468.102 69.9862H469.142C469.236 70.3868 469.422 70.7177 469.7 70.9791C469.982 71.2376 470.352 71.3669 470.812 71.3669C471.486 71.3669 472.017 71.0728 472.406 70.4848C472.798 69.8967 472.994 69.0657 472.994 67.9919H472.926C472.767 68.2305 472.578 68.4365 472.359 68.6098C472.141 68.7831 471.898 68.9166 471.631 69.0103C471.364 69.1041 471.08 69.151 470.778 69.151C470.278 69.151 469.82 69.0274 469.402 68.7802C468.987 68.5302 468.655 68.1879 468.405 67.7532C468.158 67.3157 468.034 66.8157 468.034 66.2532C468.034 65.7191 468.153 65.2305 468.392 64.7873C468.634 64.3413 468.972 63.9862 469.406 63.722C469.844 63.4578 470.358 63.3299 470.949 63.3385ZM470.949 64.276C470.591 64.276 470.268 64.3655 469.982 64.5444C469.697 64.7206 469.472 64.9592 469.304 65.2603C469.139 65.5586 469.057 65.8896 469.057 66.2532C469.057 66.6169 469.136 66.9478 469.295 67.2461C469.457 67.5416 469.678 67.7774 469.956 67.9535C470.237 68.1268 470.557 68.2135 470.915 68.2135C471.185 68.2135 471.436 68.1609 471.669 68.0558C471.902 67.9478 472.105 67.8015 472.278 67.6169C472.455 67.4294 472.592 67.2177 472.692 66.9819C472.791 66.7433 472.841 66.4947 472.841 66.2362C472.841 65.8953 472.759 65.5757 472.594 65.2774C472.432 64.9791 472.207 64.7376 471.92 64.553C471.636 64.3683 471.312 64.276 470.949 64.276ZM478.707 63.4578H479.968L482.934 70.7021H483.037L486.003 63.4578H487.264V72.1851H486.275V65.5544H486.19L483.463 72.1851H482.508L479.781 65.5544H479.696V72.1851H478.707V63.4578ZM489.007 72.1851V65.6396H490.012V72.1851H489.007ZM489.518 64.5487C489.322 64.5487 489.153 64.4819 489.011 64.3484C488.872 64.2149 488.802 64.0544 488.802 63.8669C488.802 63.6794 488.872 63.5189 489.011 63.3853C489.153 63.2518 489.322 63.1851 489.518 63.1851C489.714 63.1851 489.882 63.2518 490.021 63.3853C490.163 63.5189 490.234 63.6794 490.234 63.8669C490.234 64.0544 490.163 64.2149 490.021 64.3484C489.882 64.4819 489.714 64.5487 489.518 64.5487ZM492.62 68.2476V72.1851H491.614V65.6396H492.586V66.6623H492.671C492.824 66.3299 493.057 66.0629 493.37 65.8612C493.682 65.6566 494.086 65.5544 494.58 65.5544C495.023 65.5544 495.411 65.6453 495.743 65.8271C496.076 66.0061 496.334 66.2788 496.519 66.6453C496.704 67.0089 496.796 67.4691 496.796 68.026V72.1851H495.79V68.0941C495.79 67.5799 495.657 67.1794 495.39 66.8924C495.123 66.6027 494.756 66.4578 494.29 66.4578C493.969 66.4578 493.682 66.5274 493.43 66.6666C493.18 66.8058 492.982 67.0089 492.837 67.276C492.692 67.543 492.62 67.8669 492.62 68.2476ZM501.138 72.3214C500.507 72.3214 499.963 72.1822 499.506 71.9038C499.051 71.6226 498.701 71.2305 498.453 70.7277C498.209 70.222 498.087 69.6339 498.087 68.9635C498.087 68.293 498.209 67.7021 498.453 67.1907C498.701 66.6765 499.044 66.276 499.485 65.989C499.928 65.6993 500.445 65.5544 501.036 65.5544C501.377 65.5544 501.713 65.6112 502.046 65.7248C502.378 65.8385 502.681 66.0231 502.953 66.2788C503.226 66.5316 503.443 66.8669 503.605 67.2845C503.767 67.7021 503.848 68.2163 503.848 68.8271V69.2532H498.803V68.3839H502.826C502.826 68.0146 502.752 67.6851 502.604 67.3953C502.459 67.1055 502.252 66.8768 501.982 66.7092C501.715 66.5416 501.399 66.4578 501.036 66.4578C500.635 66.4578 500.289 66.5572 499.996 66.7561C499.706 66.9521 499.483 67.2078 499.327 67.5231C499.171 67.8385 499.093 68.1765 499.093 68.5373V69.1169C499.093 69.6112 499.178 70.0302 499.348 70.374C499.522 70.7149 499.762 70.9748 500.068 71.1538C500.375 71.3299 500.732 71.418 501.138 71.418C501.402 71.418 501.641 71.3811 501.854 71.3072C502.07 71.2305 502.256 71.1169 502.412 70.9663C502.568 70.8129 502.689 70.6226 502.774 70.3953L503.746 70.668C503.644 70.9976 503.472 71.2873 503.23 71.5373C502.989 71.7845 502.691 71.9777 502.335 72.1169C501.98 72.2532 501.581 72.3214 501.138 72.3214ZM505.138 72.1851V65.6396H506.11V66.6282H506.178C506.297 66.3044 506.513 66.0416 506.826 65.8399C507.138 65.6382 507.49 65.5373 507.882 65.5373C507.956 65.5373 508.049 65.5388 508.159 65.5416C508.27 65.5444 508.354 65.5487 508.411 65.5544V66.5771C508.377 66.5686 508.299 66.5558 508.176 66.5388C508.057 66.5189 507.931 66.5089 507.797 66.5089C507.479 66.5089 507.195 66.5757 506.945 66.7092C506.698 66.8399 506.502 67.0217 506.357 67.2547C506.215 67.4848 506.144 67.7476 506.144 68.043V72.1851H505.138ZM513.999 67.1055L513.096 67.3612C513.039 67.2106 512.955 67.0643 512.844 66.9223C512.737 66.7774 512.589 66.6581 512.401 66.5643C512.214 66.4706 511.974 66.4237 511.681 66.4237C511.281 66.4237 510.947 66.516 510.68 66.7007C510.416 66.8825 510.283 67.114 510.283 67.3953C510.283 67.6453 510.374 67.8427 510.556 67.9876C510.738 68.1325 511.022 68.2532 511.408 68.3498L512.38 68.5885C512.965 68.7305 513.401 68.9478 513.688 69.2405C513.975 69.5302 514.119 69.9038 514.119 70.3612C514.119 70.7362 514.011 71.0714 513.795 71.3669C513.582 71.6623 513.283 71.8953 512.9 72.0657C512.516 72.2362 512.07 72.3214 511.562 72.3214C510.894 72.3214 510.342 72.1765 509.904 71.8868C509.467 71.597 509.19 71.1737 509.073 70.6169L510.028 70.3782C510.119 70.7305 510.291 70.9947 510.543 71.1709C510.799 71.347 511.133 71.4351 511.545 71.4351C512.014 71.4351 512.386 71.3356 512.661 71.1368C512.94 70.9351 513.079 70.6936 513.079 70.4123C513.079 70.1851 512.999 69.9947 512.84 69.8413C512.681 69.6851 512.437 69.5686 512.107 69.4919L511.016 69.2362C510.417 69.0941 509.977 68.874 509.695 68.5757C509.417 68.2745 509.278 67.8981 509.278 67.4464C509.278 67.0771 509.381 66.7504 509.589 66.4663C509.799 66.1822 510.085 65.9592 510.445 65.7973C510.809 65.6353 511.221 65.5544 511.681 65.5544C512.329 65.5544 512.837 65.6964 513.207 65.9805C513.579 66.2646 513.843 66.6396 513.999 67.1055ZM435.352 88.3044C434.79 88.3044 434.288 88.2078 433.848 88.0146C433.411 87.8214 433.063 87.553 432.804 87.2092C432.548 86.8626 432.409 86.4606 432.386 86.0032H433.46C433.483 86.2845 433.58 86.5274 433.75 86.7319C433.92 86.9336 434.143 87.0899 434.419 87.2007C434.695 87.3115 435 87.3669 435.335 87.3669C435.71 87.3669 436.043 87.3015 436.332 87.1709C436.622 87.0402 436.849 86.8584 437.014 86.6254C437.179 86.3924 437.261 86.1226 437.261 85.8157C437.261 85.4947 437.182 85.212 437.023 84.9677C436.864 84.7206 436.631 84.5274 436.324 84.3882C436.017 84.249 435.642 84.1794 435.199 84.1794H434.5V83.2419H435.199C435.545 83.2419 435.849 83.1794 436.111 83.0544C436.375 82.9294 436.581 82.7532 436.729 82.526C436.879 82.2987 436.955 82.0316 436.955 81.7248C436.955 81.4294 436.889 81.1723 436.759 80.9535C436.628 80.7348 436.443 80.5643 436.205 80.4422C435.969 80.32 435.69 80.2589 435.369 80.2589C435.068 80.2589 434.784 80.3143 434.517 80.4251C434.253 80.5331 434.037 80.6907 433.869 80.8981C433.702 81.1027 433.611 81.3498 433.597 81.6396H432.574C432.591 81.1822 432.729 80.7816 432.987 80.4379C433.246 80.0913 433.584 79.8214 434.001 79.6282C434.422 79.4351 434.884 79.3385 435.386 79.3385C435.926 79.3385 436.389 79.4478 436.776 79.6666C437.162 79.8825 437.459 80.168 437.666 80.5231C437.874 80.8782 437.977 81.2618 437.977 81.6737C437.977 82.1652 437.848 82.5842 437.589 82.9308C437.334 83.2774 436.986 83.5174 436.545 83.651V83.7191C437.097 83.8101 437.527 84.0444 437.837 84.4223C438.146 84.7973 438.301 85.2618 438.301 85.8157C438.301 86.2902 438.172 86.7163 437.913 87.0941C437.658 87.4691 437.308 87.7646 436.865 87.9805C436.422 88.1964 435.918 88.3044 435.352 88.3044ZM442.531 88.3044C442.031 88.3044 441.581 88.2049 441.18 88.0061C440.78 87.8072 440.459 87.5345 440.217 87.1879C439.976 86.8413 439.844 86.4464 439.821 86.0032H440.844C440.884 86.3981 441.063 86.7248 441.381 86.9834C441.702 87.239 442.085 87.3669 442.531 87.3669C442.889 87.3669 443.207 87.2831 443.486 87.1155C443.767 86.9478 443.987 86.7177 444.146 86.4251C444.308 86.1297 444.389 85.7959 444.389 85.4237C444.389 85.043 444.305 84.7035 444.138 84.4052C443.973 84.1041 443.746 83.8669 443.456 83.6936C443.166 83.5203 442.835 83.4322 442.463 83.4294C442.196 83.4265 441.922 83.4677 441.641 83.553C441.359 83.6353 441.128 83.7419 440.946 83.8726L439.957 83.7532L440.486 79.4578H445.02V80.3953H441.372L441.065 82.9691H441.117C441.296 82.8271 441.52 82.7092 441.79 82.6155C442.06 82.5217 442.341 82.4748 442.634 82.4748C443.168 82.4748 443.644 82.6027 444.061 82.8584C444.482 83.1112 444.811 83.4578 445.05 83.8981C445.291 84.3385 445.412 84.8413 445.412 85.4066C445.412 85.9635 445.287 86.4606 445.037 86.8981C444.79 87.3328 444.449 87.6765 444.014 87.9294C443.58 88.1794 443.085 88.3044 442.531 88.3044ZM447.632 81.6396L449.2 84.3157L450.768 81.6396H451.927L449.814 84.9123L451.927 88.1851H450.768L449.2 85.6453L447.632 88.1851H446.473L448.552 84.9123L446.473 81.6396H447.632ZM457.979 88.1851L455.593 79.4578H456.666L458.49 86.5657H458.576L460.433 79.4578H461.627L463.485 86.5657H463.57L465.394 79.4578H466.468L464.081 88.1851H462.99L461.064 81.2305H460.996L459.07 88.1851H457.979ZM468.414 84.2476V88.1851H467.408V79.4578H468.414V82.6623H468.499C468.652 82.3243 468.882 82.0558 469.189 81.8569C469.499 81.6552 469.911 81.5544 470.425 81.5544C470.871 81.5544 471.262 81.6439 471.597 81.8228C471.932 81.999 472.192 82.2703 472.377 82.6368C472.564 83.0004 472.658 83.4635 472.658 84.026V88.1851H471.652V84.0941C471.652 83.5743 471.517 83.1723 471.247 82.8882C470.98 82.6013 470.61 82.4578 470.135 82.4578C469.806 82.4578 469.51 82.5274 469.249 82.6666C468.99 82.8058 468.786 83.0089 468.635 83.276C468.487 83.543 468.414 83.8669 468.414 84.2476ZM476.184 88.3385C475.769 88.3385 475.393 88.2603 475.055 88.1041C474.717 87.945 474.448 87.7163 474.249 87.418C474.05 87.1169 473.951 86.7532 473.951 86.3271C473.951 85.9521 474.025 85.6481 474.173 85.4152C474.32 85.1794 474.518 84.9947 474.765 84.8612C475.012 84.7277 475.285 84.6282 475.583 84.5629C475.884 84.4947 476.187 84.4407 476.491 84.401C476.888 84.3498 477.211 84.3115 477.458 84.2859C477.708 84.2575 477.89 84.2106 478.004 84.1453C478.12 84.0799 478.178 83.9663 478.178 83.8044V83.7703C478.178 83.3498 478.063 83.0231 477.833 82.7902C477.606 82.5572 477.261 82.4407 476.798 82.4407C476.317 82.4407 475.941 82.5459 475.668 82.7561C475.396 82.9663 475.204 83.1907 475.093 83.4294L474.138 83.0885C474.309 82.6907 474.536 82.3811 474.82 82.1595C475.107 81.9351 475.42 81.7788 475.758 81.6907C476.099 81.5998 476.434 81.5544 476.763 81.5544C476.974 81.5544 477.215 81.5799 477.488 81.6311C477.763 81.6794 478.029 81.7802 478.285 81.9336C478.543 82.087 478.758 82.3186 478.928 82.6282C479.099 82.9379 479.184 83.3527 479.184 83.8726V88.1851H478.178V87.2987H478.127C478.059 87.4407 477.945 87.5927 477.786 87.7547C477.627 87.9166 477.415 88.0544 477.151 88.168C476.887 88.2816 476.565 88.3385 476.184 88.3385ZM476.337 87.4351C476.735 87.4351 477.07 87.3569 477.343 87.2007C477.619 87.0444 477.826 86.8427 477.965 86.5956C478.107 86.3484 478.178 86.0885 478.178 85.8157V84.8953C478.136 84.9464 478.042 84.9933 477.897 85.0359C477.755 85.0757 477.59 85.1112 477.403 85.1424C477.218 85.1709 477.038 85.1964 476.861 85.2191C476.688 85.239 476.548 85.2561 476.44 85.2703C476.178 85.3044 475.934 85.3598 475.707 85.4365C475.482 85.5103 475.3 85.6226 475.161 85.7731C475.025 85.9209 474.957 86.1226 474.957 86.3782C474.957 86.7277 475.086 86.9919 475.344 87.1709C475.606 87.347 475.937 87.4351 476.337 87.4351ZM483.626 81.6396V82.4919H480.234V81.6396H483.626ZM481.223 80.0714H482.228V86.3101C482.228 86.5941 482.27 86.8072 482.352 86.9493C482.437 87.0885 482.545 87.1822 482.676 87.2305C482.809 87.276 482.95 87.2987 483.098 87.2987C483.208 87.2987 483.299 87.293 483.37 87.2816C483.441 87.2674 483.498 87.2561 483.541 87.2476L483.745 88.151C483.677 88.1765 483.582 88.2021 483.46 88.2277C483.338 88.2561 483.183 88.2703 482.995 88.2703C482.711 88.2703 482.433 88.2092 482.16 88.087C481.89 87.9649 481.666 87.7788 481.487 87.5288C481.311 87.2788 481.223 86.9635 481.223 86.5828V80.0714ZM489.418 83.1055L488.515 83.3612C488.458 83.2106 488.374 83.0643 488.263 82.9223C488.155 82.7774 488.008 82.6581 487.82 82.5643C487.633 82.4706 487.393 82.4237 487.1 82.4237C486.699 82.4237 486.366 82.516 486.098 82.7007C485.834 82.8825 485.702 83.114 485.702 83.3953C485.702 83.6453 485.793 83.8427 485.975 83.9876C486.157 84.1325 486.441 84.2532 486.827 84.3498L487.799 84.5885C488.384 84.7305 488.82 84.9478 489.107 85.2405C489.394 85.5302 489.537 85.9038 489.537 86.3612C489.537 86.7362 489.429 87.0714 489.214 87.3669C489 87.6623 488.702 87.8953 488.319 88.0657C487.935 88.2362 487.489 88.3214 486.981 88.3214C486.313 88.3214 485.76 88.1765 485.323 87.8868C484.885 87.597 484.608 87.1737 484.492 86.6169L485.446 86.3782C485.537 86.7305 485.709 86.9947 485.962 87.1709C486.218 87.347 486.552 87.4351 486.964 87.4351C487.432 87.4351 487.804 87.3356 488.08 87.1368C488.358 86.9351 488.498 86.6936 488.498 86.4123C488.498 86.1851 488.418 85.9947 488.259 85.8413C488.1 85.6851 487.856 85.5686 487.526 85.4919L486.435 85.2362C485.836 85.0941 485.395 84.874 485.114 84.5757C484.836 84.2745 484.696 83.8981 484.696 83.4464C484.696 83.0771 484.8 82.7504 485.008 82.4663C485.218 82.1822 485.503 81.9592 485.864 81.7973C486.228 81.6353 486.64 81.5544 487.1 81.5544C487.748 81.5544 488.256 81.6964 488.625 81.9805C488.998 82.2646 489.262 82.6396 489.418 83.1055ZM490.811 88.1851V81.6396H491.783V82.6623H491.868C492.004 82.3129 492.225 82.0416 492.529 81.8484C492.833 81.6524 493.198 81.5544 493.624 81.5544C494.056 81.5544 494.415 81.6524 494.702 81.8484C494.992 82.0416 495.217 82.3129 495.379 82.6623H495.448C495.615 82.3243 495.867 82.0558 496.202 81.8569C496.537 81.6552 496.939 81.5544 497.408 81.5544C497.993 81.5544 498.472 81.7376 498.844 82.1041C499.216 82.4677 499.402 83.0345 499.402 83.8044V88.1851H498.396V83.8044C498.396 83.3214 498.264 82.9763 498 82.7689C497.736 82.5615 497.425 82.4578 497.067 82.4578C496.607 82.4578 496.25 82.597 495.997 82.8754C495.744 83.151 495.618 83.5004 495.618 83.9237V88.1851H494.595V83.7021C494.595 83.3299 494.475 83.0302 494.233 82.803C493.992 82.5728 493.681 82.4578 493.3 82.4578C493.039 82.4578 492.794 82.5274 492.567 82.6666C492.342 82.8058 492.161 82.999 492.021 83.2461C491.885 83.4905 491.817 83.7731 491.817 84.0941V88.1851H490.811ZM501.001 88.1851V81.6396H502.007V88.1851H501.001ZM501.512 80.5487C501.316 80.5487 501.147 80.4819 501.005 80.3484C500.866 80.2149 500.796 80.0544 500.796 79.8669C500.796 79.6794 500.866 79.5189 501.005 79.3853C501.147 79.2518 501.316 79.1851 501.512 79.1851C501.708 79.1851 501.876 79.2518 502.015 79.3853C502.157 79.5189 502.228 79.6794 502.228 79.8669C502.228 80.0544 502.157 80.2149 502.015 80.3484C501.876 80.4819 501.708 80.5487 501.512 80.5487ZM504.614 84.2476V88.1851H503.609V81.6396H504.58V82.6623H504.665C504.819 82.3299 505.052 82.0629 505.364 81.8612C505.677 81.6566 506.08 81.5544 506.574 81.5544C507.018 81.5544 507.405 81.6453 507.738 81.8271C508.07 82.0061 508.329 82.2788 508.513 82.6453C508.698 83.0089 508.79 83.4691 508.79 84.026V88.1851H507.785V84.0941C507.785 83.5799 507.651 83.1794 507.384 82.8924C507.117 82.6027 506.751 82.4578 506.285 82.4578C505.964 82.4578 505.677 82.5274 505.424 82.6666C505.174 82.8058 504.976 83.0089 504.832 83.276C504.687 83.543 504.614 83.8669 504.614 84.2476ZM513.132 88.3214C512.502 88.3214 511.958 88.1822 511.5 87.9038C511.046 87.6226 510.695 87.2305 510.448 86.7277C510.203 86.222 510.081 85.6339 510.081 84.9635C510.081 84.293 510.203 83.7021 510.448 83.1907C510.695 82.6765 511.039 82.276 511.479 81.989C511.922 81.6993 512.439 81.5544 513.03 81.5544C513.371 81.5544 513.708 81.6112 514.04 81.7248C514.372 81.8385 514.675 82.0231 514.948 82.2788C515.221 82.5316 515.438 82.8669 515.6 83.2845C515.762 83.7021 515.843 84.2163 515.843 84.8271V85.2532H510.797V84.3839H514.82C514.82 84.0146 514.746 83.6851 514.598 83.3953C514.453 83.1055 514.246 82.8768 513.976 82.7092C513.709 82.5416 513.394 82.4578 513.03 82.4578C512.63 82.4578 512.283 82.5572 511.99 82.7561C511.701 82.9521 511.478 83.2078 511.321 83.5231C511.165 83.8385 511.087 84.1765 511.087 84.5373V85.1169C511.087 85.6112 511.172 86.0302 511.343 86.374C511.516 86.7149 511.756 86.9748 512.063 87.1538C512.37 87.3299 512.726 87.418 513.132 87.418C513.397 87.418 513.635 87.3811 513.848 87.3072C514.064 87.2305 514.25 87.1169 514.407 86.9663C514.563 86.8129 514.684 86.6226 514.769 86.3953L515.74 86.668C515.638 86.9976 515.466 87.2873 515.225 87.5373C514.983 87.7845 514.685 87.9777 514.33 88.1169C513.975 88.2532 513.576 88.3214 513.132 88.3214ZM517.132 88.1851V81.6396H518.104V82.6282H518.172C518.292 82.3044 518.507 82.0416 518.82 81.8399C519.132 81.6382 519.485 81.5373 519.877 81.5373C519.951 81.5373 520.043 81.5388 520.154 81.5416C520.265 81.5444 520.348 81.5487 520.405 81.5544V82.5771C520.371 82.5686 520.293 82.5558 520.171 82.5388C520.052 82.5189 519.925 82.5089 519.792 82.5089C519.473 82.5089 519.189 82.5757 518.939 82.7092C518.692 82.8399 518.496 83.0217 518.351 83.2547C518.209 83.4848 518.138 83.7476 518.138 84.043V88.1851H517.132Z" fill="#307FE2"/>
<g clip-path="url(#clip1_2631_39836)">
<path d="M415.141 242.075H413.141" stroke="#002159" stroke-miterlimit="10" stroke-linecap="round"/>
<path d="M409.5 241.815L325.5 241.815" stroke="#002159" stroke-miterlimit="10" stroke-linecap="round" stroke-dasharray="2 2"/>
<path d="M414.92 245.835C416.997 245.835 418.68 244.152 418.68 242.075C418.68 239.998 416.997 238.315 414.92 238.315C412.844 238.315 411.16 239.998 411.16 242.075C411.16 244.152 412.844 245.835 414.92 245.835Z" fill="white"/>
<path d="M414.92 237.815C412.57 237.815 410.66 239.725 410.66 242.075C410.66 244.425 412.57 246.335 414.92 246.335C417.27 246.335 419.18 244.425 419.18 242.075C419.18 239.725 417.27 237.815 414.92 237.815C417.27 237.815 412.57 237.815 414.92 237.815ZM414.92 245.335C413.12 245.335 411.66 243.875 411.66 242.075C411.66 240.275 413.12 238.815 414.92 238.815C416.72 238.815 418.18 240.275 418.18 242.075C418.18 243.875 416.72 245.335 414.92 245.335C416.72 245.335 413.12 245.335 414.92 245.335Z" fill="#002159"/>
</g>
<path d="M441.545 223.133C440.273 223.133 439.053 222.929 437.886 222.519C436.72 222.103 435.682 221.444 434.773 220.542C433.864 219.633 433.148 218.444 432.625 216.974C432.102 215.497 431.845 213.698 431.852 211.576C431.86 209.66 432.095 207.94 432.557 206.417C433.019 204.887 433.678 203.588 434.534 202.519C435.398 201.451 436.428 200.637 437.625 200.076C438.83 199.508 440.174 199.224 441.659 199.224C443.288 199.224 444.723 199.542 445.966 200.179C447.216 200.807 448.216 201.656 448.966 202.724C449.716 203.785 450.159 204.966 450.295 206.269H444.761C444.595 205.535 444.227 204.978 443.659 204.599C443.098 204.213 442.432 204.019 441.659 204.019C440.235 204.019 439.17 204.637 438.466 205.872C437.769 207.107 437.413 208.758 437.398 210.826H437.545C437.864 210.129 438.322 209.531 438.92 209.031C439.519 208.531 440.205 208.148 440.977 207.883C441.758 207.61 442.583 207.474 443.455 207.474C444.848 207.474 446.08 207.796 447.148 208.44C448.216 209.084 449.053 209.966 449.659 211.088C450.265 212.201 450.564 213.478 450.557 214.917C450.564 216.538 450.186 217.97 449.42 219.213C448.655 220.448 447.595 221.41 446.239 222.099C444.89 222.788 443.326 223.133 441.545 223.133ZM441.511 218.815C442.201 218.815 442.818 218.652 443.364 218.326C443.909 218.001 444.337 217.557 444.648 216.997C444.958 216.436 445.11 215.804 445.102 215.099C445.11 214.387 444.958 213.754 444.648 213.201C444.345 212.648 443.92 212.209 443.375 211.883C442.837 211.557 442.22 211.394 441.523 211.394C441.015 211.394 440.542 211.489 440.102 211.679C439.663 211.868 439.28 212.133 438.955 212.474C438.636 212.807 438.386 213.201 438.205 213.656C438.023 214.103 437.928 214.588 437.92 215.11C437.928 215.8 438.087 216.425 438.398 216.985C438.708 217.546 439.133 217.993 439.67 218.326C440.208 218.652 440.822 218.815 441.511 218.815ZM457.88 205.36L460.755 211.11L463.732 205.36H469.334L464.459 214.088L469.516 222.815H463.959L460.755 217.019L457.63 222.815H451.994L457.062 214.088L452.244 205.36H457.88Z" fill="#002159"/>
<path d="M432.705 242.815V241.792L436.545 237.588C436.996 237.095 437.367 236.667 437.659 236.304C437.951 235.936 438.167 235.591 438.307 235.269C438.451 234.944 438.523 234.603 438.523 234.247C438.523 233.838 438.424 233.484 438.227 233.184C438.034 232.885 437.769 232.654 437.432 232.491C437.095 232.328 436.716 232.247 436.295 232.247C435.848 232.247 435.458 232.34 435.125 232.525C434.795 232.707 434.54 232.963 434.358 233.292C434.18 233.622 434.091 234.008 434.091 234.451H432.75C432.75 233.769 432.907 233.171 433.222 232.656C433.536 232.141 433.964 231.739 434.506 231.451C435.051 231.163 435.663 231.019 436.341 231.019C437.023 231.019 437.627 231.163 438.153 231.451C438.68 231.739 439.093 232.127 439.392 232.616C439.691 233.105 439.841 233.648 439.841 234.247C439.841 234.675 439.763 235.093 439.608 235.502C439.456 235.908 439.191 236.36 438.812 236.86C438.438 237.357 437.917 237.963 437.25 238.679L434.636 241.474V241.565H440.045V242.815H432.705ZM444.095 241.224L444.004 241.838C443.939 242.269 443.841 242.732 443.708 243.224C443.58 243.716 443.445 244.18 443.305 244.616C443.165 245.052 443.049 245.398 442.958 245.656H441.936C441.985 245.413 442.049 245.093 442.129 244.696C442.208 244.298 442.288 243.853 442.368 243.36C442.451 242.872 442.519 242.372 442.572 241.86L442.64 241.224H444.095ZM448.937 231.179V242.815H447.528V232.656H447.459L444.619 234.542V233.11L447.528 231.179H448.937ZM455.759 242.974C454.903 242.974 454.174 242.741 453.571 242.275C452.969 241.805 452.509 241.126 452.191 240.235C451.872 239.341 451.713 238.262 451.713 236.997C451.713 235.739 451.872 234.665 452.191 233.775C452.513 232.881 452.975 232.199 453.577 231.73C454.183 231.256 454.91 231.019 455.759 231.019C456.607 231.019 457.333 231.256 457.935 231.73C458.541 232.199 459.003 232.881 459.321 233.775C459.643 234.665 459.804 235.739 459.804 236.997C459.804 238.262 459.645 239.341 459.327 240.235C459.009 241.126 458.549 241.805 457.946 242.275C457.344 242.741 456.615 242.974 455.759 242.974ZM455.759 241.724C456.607 241.724 457.266 241.315 457.736 240.497C458.206 239.679 458.441 238.512 458.441 236.997C458.441 235.989 458.333 235.131 458.117 234.423C457.905 233.715 457.598 233.175 457.196 232.804C456.799 232.432 456.319 232.247 455.759 232.247C454.918 232.247 454.261 232.662 453.787 233.491C453.314 234.317 453.077 235.485 453.077 236.997C453.077 238.004 453.183 238.86 453.395 239.565C453.607 240.269 453.912 240.805 454.31 241.173C454.711 241.54 455.194 241.724 455.759 241.724ZM465.439 242.974C464.583 242.974 463.854 242.741 463.251 242.275C462.649 241.805 462.189 241.126 461.871 240.235C461.552 239.341 461.393 238.262 461.393 236.997C461.393 235.739 461.552 234.665 461.871 233.775C462.193 232.881 462.655 232.199 463.257 231.73C463.863 231.256 464.59 231.019 465.439 231.019C466.287 231.019 467.013 231.256 467.615 231.73C468.221 232.199 468.683 232.881 469.001 233.775C469.323 234.665 469.484 235.739 469.484 236.997C469.484 238.262 469.325 239.341 469.007 240.235C468.689 241.126 468.229 241.805 467.626 242.275C467.024 242.741 466.295 242.974 465.439 242.974ZM465.439 241.724C466.287 241.724 466.946 241.315 467.416 240.497C467.886 239.679 468.121 238.512 468.121 236.997C468.121 235.989 468.013 235.131 467.797 234.423C467.585 233.715 467.278 233.175 466.876 232.804C466.479 232.432 465.999 232.247 465.439 232.247C464.598 232.247 463.941 232.662 463.467 233.491C462.994 234.317 462.757 235.485 462.757 236.997C462.757 238.004 462.863 238.86 463.075 239.565C463.287 240.269 463.592 240.805 463.99 241.173C464.391 241.54 464.874 241.724 465.439 241.724ZM485.071 234.815H483.662C483.579 234.41 483.433 234.054 483.225 233.747C483.02 233.44 482.77 233.182 482.475 232.974C482.183 232.762 481.859 232.603 481.503 232.497C481.147 232.391 480.776 232.338 480.39 232.338C479.685 232.338 479.047 232.516 478.475 232.872C477.907 233.228 477.454 233.752 477.117 234.446C476.784 235.139 476.617 235.989 476.617 236.997C476.617 238.004 476.784 238.855 477.117 239.548C477.454 240.241 477.907 240.766 478.475 241.122C479.047 241.478 479.685 241.656 480.39 241.656C480.776 241.656 481.147 241.603 481.503 241.497C481.859 241.391 482.183 241.234 482.475 241.025C482.77 240.813 483.02 240.554 483.225 240.247C483.433 239.936 483.579 239.58 483.662 239.179H485.071C484.965 239.773 484.772 240.305 484.492 240.775C484.212 241.245 483.863 241.644 483.446 241.974C483.03 242.3 482.562 242.548 482.043 242.718C481.528 242.889 480.977 242.974 480.39 242.974C479.397 242.974 478.515 242.732 477.742 242.247C476.969 241.762 476.361 241.073 475.918 240.179C475.475 239.285 475.253 238.224 475.253 236.997C475.253 235.769 475.475 234.709 475.918 233.815C476.361 232.921 476.969 232.232 477.742 231.747C478.515 231.262 479.397 231.019 480.39 231.019C480.977 231.019 481.528 231.105 482.043 231.275C482.562 231.446 483.03 231.696 483.446 232.025C483.863 232.351 484.212 232.749 484.492 233.218C484.772 233.684 484.965 234.216 485.071 234.815ZM487.028 242.815V231.179H494.006V232.429H488.438V236.36H493.483V237.61H488.438V242.815H487.028ZM496.099 231.179H497.781L501.735 240.838H501.872L505.826 231.179H507.508V242.815H506.19V233.974H506.076L502.44 242.815H501.167L497.531 233.974H497.417V242.815H496.099V231.179ZM514.193 242.815V231.179H521.171V232.429H515.603V236.36H520.648V237.61H515.603V242.815H514.193ZM525.65 243.019C525.097 243.019 524.596 242.915 524.145 242.707C523.694 242.495 523.336 242.19 523.071 241.792C522.806 241.391 522.673 240.906 522.673 240.338C522.673 239.838 522.772 239.432 522.969 239.122C523.166 238.807 523.429 238.561 523.758 238.383C524.088 238.205 524.452 238.073 524.849 237.985C525.251 237.894 525.654 237.823 526.06 237.769C526.59 237.701 527.02 237.65 527.349 237.616C527.683 237.578 527.925 237.516 528.077 237.429C528.232 237.341 528.31 237.19 528.31 236.974V236.929C528.31 236.368 528.156 235.932 527.849 235.622C527.546 235.311 527.086 235.156 526.469 235.156C525.828 235.156 525.327 235.296 524.963 235.576C524.599 235.857 524.344 236.156 524.196 236.474L522.923 236.019C523.15 235.489 523.453 235.076 523.832 234.781C524.215 234.482 524.632 234.273 525.082 234.156C525.537 234.035 525.984 233.974 526.423 233.974C526.703 233.974 527.025 234.008 527.389 234.076C527.757 234.141 528.111 234.275 528.452 234.48C528.796 234.684 529.082 234.993 529.31 235.406C529.537 235.819 529.65 236.372 529.65 237.065V242.815H528.31V241.633H528.241C528.15 241.823 527.999 242.025 527.787 242.241C527.575 242.457 527.293 242.641 526.94 242.792C526.588 242.944 526.158 243.019 525.65 243.019ZM525.855 241.815C526.385 241.815 526.832 241.711 527.196 241.502C527.563 241.294 527.84 241.025 528.025 240.696C528.215 240.366 528.31 240.019 528.31 239.656V238.429C528.253 238.497 528.128 238.559 527.935 238.616C527.745 238.669 527.525 238.716 527.275 238.758C527.029 238.796 526.789 238.83 526.554 238.86C526.323 238.887 526.135 238.91 525.991 238.929C525.643 238.974 525.317 239.048 525.014 239.15C524.715 239.249 524.472 239.398 524.287 239.599C524.105 239.796 524.014 240.065 524.014 240.406C524.014 240.872 524.186 241.224 524.531 241.463C524.88 241.698 525.321 241.815 525.855 241.815ZM533.119 237.565V242.815H531.778V234.088H533.073V235.451H533.187C533.392 235.008 533.702 234.652 534.119 234.383C534.535 234.11 535.073 233.974 535.732 233.974C536.323 233.974 536.84 234.095 537.284 234.338C537.727 234.576 538.071 234.94 538.318 235.429C538.564 235.913 538.687 236.527 538.687 237.269V242.815H537.346V237.36C537.346 236.675 537.168 236.141 536.812 235.758C536.456 235.372 535.967 235.179 535.346 235.179C534.918 235.179 534.535 235.271 534.198 235.457C533.865 235.643 533.602 235.913 533.409 236.269C533.215 236.626 533.119 237.057 533.119 237.565ZM546.999 236.042L545.795 236.383C545.719 236.182 545.607 235.987 545.459 235.798C545.315 235.605 545.118 235.446 544.868 235.321C544.618 235.196 544.298 235.133 543.908 235.133C543.374 235.133 542.929 235.256 542.573 235.502C542.221 235.745 542.045 236.054 542.045 236.429C542.045 236.762 542.166 237.025 542.408 237.218C542.651 237.412 543.029 237.573 543.545 237.701L544.84 238.019C545.62 238.209 546.202 238.499 546.584 238.889C546.967 239.275 547.158 239.773 547.158 240.383C547.158 240.883 547.014 241.33 546.726 241.724C546.442 242.118 546.045 242.429 545.533 242.656C545.022 242.883 544.427 242.997 543.749 242.997C542.859 242.997 542.122 242.804 541.539 242.417C540.956 242.031 540.586 241.466 540.431 240.724L541.704 240.406C541.825 240.876 542.054 241.228 542.391 241.463C542.732 241.698 543.177 241.815 543.726 241.815C544.351 241.815 544.848 241.682 545.215 241.417C545.586 241.148 545.772 240.826 545.772 240.451C545.772 240.148 545.666 239.894 545.454 239.69C545.242 239.482 544.916 239.326 544.476 239.224L543.022 238.883C542.223 238.694 541.635 238.4 541.26 238.002C540.889 237.601 540.704 237.099 540.704 236.497C540.704 236.004 540.842 235.569 541.118 235.19C541.399 234.811 541.779 234.514 542.26 234.298C542.745 234.082 543.295 233.974 543.908 233.974C544.772 233.974 545.45 234.163 545.942 234.542C546.438 234.921 546.791 235.421 546.999 236.042Z" fill="#002159"/>
<path d="M432.557 261.815V253.088H433.614V260.877H437.67V261.815H432.557ZM442.815 255.269L444.384 257.946L445.952 255.269H447.111L444.997 258.542L447.111 261.815H445.952L444.384 259.275L442.815 261.815H441.656L443.736 258.542L441.656 255.269H442.815ZM454.202 252.968C454.56 252.971 454.918 253.039 455.276 253.173C455.634 253.306 455.961 253.528 456.256 253.838C456.552 254.144 456.789 254.564 456.968 255.095C457.147 255.626 457.236 256.292 457.236 257.093C457.236 257.869 457.163 258.558 457.015 259.16C456.87 259.76 456.66 260.265 456.384 260.677C456.111 261.089 455.779 261.402 455.387 261.615C454.998 261.828 454.557 261.934 454.066 261.934C453.577 261.934 453.141 261.838 452.758 261.644C452.377 261.448 452.065 261.177 451.82 260.831C451.579 260.481 451.424 260.076 451.356 259.616H452.395C452.489 260.017 452.675 260.348 452.954 260.609C453.235 260.867 453.606 260.997 454.066 260.997C454.739 260.997 455.27 260.703 455.66 260.115C456.052 259.527 456.248 258.696 456.248 257.622H456.18C456.02 257.86 455.832 258.066 455.613 258.24C455.394 258.413 455.151 258.546 454.884 258.64C454.617 258.734 454.333 258.781 454.032 258.781C453.532 258.781 453.073 258.657 452.655 258.41C452.241 258.16 451.908 257.818 451.658 257.383C451.411 256.946 451.288 256.446 451.288 255.883C451.288 255.349 451.407 254.86 451.645 254.417C451.887 253.971 452.225 253.616 452.66 253.352C453.097 253.088 453.611 252.96 454.202 252.968ZM454.202 253.906C453.844 253.906 453.522 253.995 453.235 254.174C452.951 254.35 452.725 254.589 452.557 254.89C452.393 255.189 452.31 255.519 452.31 255.883C452.31 256.247 452.39 256.578 452.549 256.876C452.711 257.171 452.931 257.407 453.209 257.583C453.491 257.757 453.81 257.843 454.168 257.843C454.438 257.843 454.69 257.791 454.922 257.686C455.155 257.578 455.359 257.431 455.532 257.247C455.708 257.059 455.846 256.848 455.945 256.612C456.045 256.373 456.094 256.125 456.094 255.866C456.094 255.525 456.012 255.206 455.847 254.907C455.685 254.609 455.461 254.367 455.174 254.183C454.89 253.998 454.566 253.906 454.202 253.906ZM461.519 261.934C460.877 261.934 460.33 261.76 459.878 261.41C459.426 261.058 459.081 260.548 458.843 259.88C458.604 259.21 458.485 258.4 458.485 257.451C458.485 256.508 458.604 255.703 458.843 255.035C459.084 254.365 459.431 253.853 459.882 253.501C460.337 253.146 460.882 252.968 461.519 252.968C462.155 252.968 462.699 253.146 463.151 253.501C463.605 253.853 463.952 254.365 464.191 255.035C464.432 255.703 464.553 256.508 464.553 257.451C464.553 258.4 464.434 259.21 464.195 259.88C463.956 260.548 463.611 261.058 463.159 261.41C462.708 261.76 462.161 261.934 461.519 261.934ZM461.519 260.997C462.155 260.997 462.649 260.69 463.002 260.076C463.354 259.463 463.53 258.588 463.53 257.451C463.53 256.696 463.449 256.052 463.287 255.521C463.128 254.99 462.898 254.585 462.597 254.306C462.299 254.028 461.939 253.889 461.519 253.889C460.888 253.889 460.395 254.2 460.04 254.822C459.685 255.441 459.507 256.318 459.507 257.451C459.507 258.207 459.587 258.849 459.746 259.377C459.905 259.906 460.134 260.308 460.432 260.583C460.733 260.859 461.095 260.997 461.519 260.997ZM466.836 253.088V253.855C466.836 254.088 466.793 254.336 466.708 254.6C466.625 254.862 466.503 255.116 466.341 255.363C466.182 255.608 465.989 255.821 465.762 256.002L465.216 255.559C465.395 255.304 465.55 255.038 465.681 254.762C465.814 254.484 465.881 254.187 465.881 253.872V253.088H466.836ZM469.017 253.088V253.855C469.017 254.088 468.975 254.336 468.89 254.6C468.807 254.862 468.685 255.116 468.523 255.363C468.364 255.608 468.171 255.821 467.944 256.002L467.398 255.559C467.577 255.304 467.732 255.038 467.863 254.762C467.996 254.484 468.063 254.187 468.063 253.872V253.088H469.017ZM476.5 252.679L473.687 263.127H472.767L475.579 252.679H476.5ZM482.308 261.815L479.922 253.088H480.996L482.82 260.196H482.905L484.763 253.088H485.956L487.814 260.196H487.899L489.723 253.088H490.797L488.411 261.815H487.32L485.394 254.86H485.325L483.399 261.815H482.308ZM495.622 255.269L497.191 257.946L498.759 255.269H499.918L497.804 258.542L499.918 261.815H498.759L497.191 259.275L495.622 261.815H494.463L496.543 258.542L494.463 255.269H495.622ZM507.026 261.934C506.441 261.934 505.924 261.831 505.475 261.623C505.029 261.413 504.681 261.125 504.431 260.758C504.181 260.389 504.058 259.968 504.06 259.497C504.058 259.127 504.13 258.787 504.278 258.474C504.426 258.159 504.627 257.896 504.883 257.686C505.141 257.473 505.43 257.338 505.748 257.281V257.23C505.33 257.122 504.998 256.887 504.751 256.527C504.504 256.163 504.381 255.75 504.384 255.287C504.381 254.843 504.494 254.447 504.721 254.098C504.948 253.748 505.261 253.473 505.658 253.271C506.059 253.069 506.515 252.968 507.026 252.968C507.532 252.968 507.984 253.069 508.381 253.271C508.779 253.473 509.092 253.748 509.319 254.098C509.549 254.447 509.666 254.843 509.668 255.287C509.666 255.75 509.539 256.163 509.289 256.527C509.042 256.887 508.714 257.122 508.305 257.23V257.281C508.62 257.338 508.904 257.473 509.157 257.686C509.41 257.896 509.612 258.159 509.762 258.474C509.913 258.787 509.989 259.127 509.992 259.497C509.989 259.968 509.862 260.389 509.609 260.758C509.359 261.125 509.011 261.413 508.565 261.623C508.122 261.831 507.609 261.934 507.026 261.934ZM507.026 260.997C507.421 260.997 507.762 260.933 508.049 260.805C508.336 260.677 508.558 260.497 508.714 260.264C508.87 260.031 508.95 259.758 508.952 259.446C508.95 259.116 508.864 258.825 508.697 258.572C508.529 258.319 508.301 258.12 508.011 257.975C507.724 257.831 507.396 257.758 507.026 257.758C506.654 257.758 506.322 257.831 506.029 257.975C505.739 258.12 505.511 258.319 505.343 258.572C505.178 258.825 505.097 259.116 505.1 259.446C505.097 259.758 505.173 260.031 505.326 260.264C505.482 260.497 505.705 260.677 505.995 260.805C506.285 260.933 506.629 260.997 507.026 260.997ZM507.026 256.855C507.339 256.855 507.616 256.792 507.857 256.667C508.102 256.542 508.293 256.367 508.433 256.143C508.572 255.919 508.643 255.656 508.646 255.355C508.643 255.059 508.573 254.802 508.437 254.583C508.301 254.362 508.112 254.191 507.87 254.072C507.629 253.95 507.347 253.889 507.026 253.889C506.7 253.889 506.414 253.95 506.17 254.072C505.926 254.191 505.737 254.362 505.603 254.583C505.47 254.802 505.404 255.059 505.407 255.355C505.404 255.656 505.471 255.919 505.607 256.143C505.747 256.367 505.938 256.542 506.183 256.667C506.427 256.792 506.708 256.855 507.026 256.855ZM514.454 253.088V261.815H513.397V254.196H513.346L511.215 255.61V254.537L513.397 253.088H514.454ZM517.627 253.088V253.855C517.627 254.088 517.584 254.336 517.499 254.6C517.417 254.862 517.295 255.116 517.133 255.363C516.974 255.608 516.78 255.821 516.553 256.002L516.008 255.559C516.187 255.304 516.341 255.038 516.472 254.762C516.606 254.484 516.672 254.187 516.672 253.872V253.088H517.627ZM519.809 253.088V253.855C519.809 254.088 519.766 254.336 519.681 254.6C519.599 254.862 519.476 255.116 519.314 255.363C519.155 255.608 518.962 255.821 518.735 256.002L518.189 255.559C518.368 255.304 518.523 255.038 518.654 254.762C518.787 254.484 518.854 254.187 518.854 253.872V253.088H519.809ZM527.291 252.679L524.479 263.127H523.558L526.371 252.679H527.291ZM531.515 261.815V253.088H532.571V256.974H537.225V253.088H538.282V261.815H537.225V257.912H532.571V261.815H531.515ZM543.906 255.269L545.474 257.946L547.042 255.269H548.202L546.088 258.542L548.202 261.815H547.042L545.474 259.275L543.906 261.815H542.747L544.827 258.542L542.747 255.269H543.906ZM555.31 261.934C554.725 261.934 554.208 261.831 553.759 261.623C553.313 261.413 552.965 261.125 552.715 260.758C552.465 260.389 552.341 259.968 552.344 259.497C552.341 259.127 552.414 258.787 552.561 258.474C552.709 258.159 552.911 257.896 553.166 257.686C553.425 257.473 553.713 257.338 554.032 257.281V257.23C553.614 257.122 553.282 256.887 553.034 256.527C552.787 256.163 552.665 255.75 552.668 255.287C552.665 254.843 552.777 254.447 553.005 254.098C553.232 253.748 553.544 253.473 553.942 253.271C554.343 253.069 554.799 252.968 555.31 252.968C555.816 252.968 556.267 253.069 556.665 253.271C557.063 253.473 557.375 253.748 557.603 254.098C557.833 254.447 557.949 254.843 557.952 255.287C557.949 255.75 557.823 256.163 557.573 256.527C557.326 256.887 556.997 257.122 556.588 257.23V257.281C556.904 257.338 557.188 257.473 557.441 257.686C557.693 257.896 557.895 258.159 558.046 258.474C558.196 258.787 558.273 259.127 558.276 259.497C558.273 259.968 558.145 260.389 557.892 260.758C557.642 261.125 557.294 261.413 556.848 261.623C556.405 261.831 555.892 261.934 555.31 261.934ZM555.31 260.997C555.705 260.997 556.046 260.933 556.333 260.805C556.62 260.677 556.841 260.497 556.997 260.264C557.154 260.031 557.233 259.758 557.236 259.446C557.233 259.116 557.148 258.825 556.98 258.572C556.813 258.319 556.584 258.12 556.294 257.975C556.007 257.831 555.679 257.758 555.31 257.758C554.938 257.758 554.605 257.831 554.313 257.975C554.023 258.12 553.794 258.319 553.627 258.572C553.462 258.825 553.381 259.116 553.384 259.446C553.381 259.758 553.456 260.031 553.61 260.264C553.766 260.497 553.989 260.677 554.279 260.805C554.568 260.933 554.912 260.997 555.31 260.997ZM555.31 256.855C555.622 256.855 555.899 256.792 556.141 256.667C556.385 256.542 556.577 256.367 556.716 256.143C556.855 255.919 556.926 255.656 556.929 255.355C556.926 255.059 556.857 254.802 556.72 254.583C556.584 254.362 556.395 254.191 556.154 254.072C555.912 253.95 555.631 253.889 555.31 253.889C554.983 253.889 554.698 253.95 554.453 254.072C554.209 254.191 554.02 254.362 553.887 254.583C553.753 254.802 553.688 255.059 553.691 255.355C553.688 255.656 553.755 255.919 553.891 256.143C554.03 256.367 554.222 256.542 554.466 256.667C554.711 256.792 554.992 256.855 555.31 256.855ZM559.464 260.025V259.156L563.3 253.088H563.93V254.434H563.504L560.607 259.019V259.088H565.771V260.025H559.464ZM563.572 261.815V259.761V259.356V253.088H564.578V261.815H563.572ZM568.032 253.088V253.855C568.032 254.088 567.989 254.336 567.904 254.6C567.821 254.862 567.699 255.116 567.537 255.363C567.378 255.608 567.185 255.821 566.958 256.002L566.412 255.559C566.591 255.304 566.746 255.038 566.877 254.762C567.01 254.484 567.077 254.187 567.077 253.872V253.088H568.032ZM570.213 253.088V253.855C570.213 254.088 570.171 254.336 570.086 254.6C570.003 254.862 569.881 255.116 569.719 255.363C569.56 255.608 569.367 255.821 569.14 256.002L568.594 255.559C568.773 255.304 568.928 255.038 569.059 254.762C569.192 254.484 569.259 254.187 569.259 253.872V253.088H570.213Z" fill="#307FE2"/>
<defs>
<filter id="filter0_f_2631_39836" x="52.25" y="233.815" width="271.461" height="148.25" filterUnits="userSpaceOnUse" color-interpolation-filters="sRGB">
<feFlood flood-opacity="0" result="BackgroundImageFix"/>
<feBlend mode="normal" in="SourceGraphic" in2="BackgroundImageFix" result="shape"/>
<feGaussianBlur stdDeviation="2" result="effect1_foregroundBlur_2631_39836"/>
</filter>
<filter id="filter1_d_2631_39836" x="280.238" y="315.348" width="16.5078" height="15.8466" filterUnits="userSpaceOnUse" color-interpolation-filters="sRGB">
<feFlood flood-opacity="0" result="BackgroundImageFix"/>
<feColorMatrix in="SourceAlpha" type="matrix" values="0 0 0 0 0 0 0 0 0 0 0 0 0 0 0 0 0 0 127 0" result="hardAlpha"/>
<feOffset dx="1"/>
<feGaussianBlur stdDeviation="0.5"/>
<feColorMatrix type="matrix" values="0 0 0 0 0 0 0 0 0 0 0 0 0 0 0 0 0 0 0.4 0"/>
<feBlend mode="normal" in2="BackgroundImageFix" result="effect1_dropShadow_2631_39836"/>
<feBlend mode="normal" in="SourceGraphic" in2="effect1_dropShadow_2631_39836" result="shape"/>
</filter>
<linearGradient id="paint0_linear_2631_39836" x1="48.9184" y1="282.799" x2="84.389" y2="226.884" gradientUnits="userSpaceOnUse">
<stop stop-color="#307FE2"/>
<stop offset="1" stop-color="#133166"/>
</linearGradient>
<linearGradient id="paint1_linear_2631_39836" x1="49.2151" y1="229.062" x2="81.7614" y2="171.479" gradientUnits="userSpaceOnUse">
<stop stop-color="#307FE2"/>
<stop offset="1" stop-color="#133166"/>
</linearGradient>
<clipPath id="clip0_2631_39836">
<rect width="125.35" height="47.37" fill="white" transform="translate(294.5 40.8149)"/>
</clipPath>
<clipPath id="clip1_2631_39836">
<rect width="129" height="9" fill="white" transform="translate(290.5 237.815)"/>
</clipPath>
</defs>
</svg>
