<svg width="341" height="371" viewBox="0 0 341 371" fill="none" xmlns="http://www.w3.org/2000/svg">
<g filter="url(#filter0_f_2631_39563)">
<path d="M209.75 366.25L319.211 302.933L166.5 226L55.75 273.5L209.75 366.25Z" fill="#F2F2F2"/>
</g>
<path d="M309.21 295.664L209.73 353.099V175.125L309.21 117.691V295.664Z" fill="#999999"/>
<path d="M209.732 175.125V353.055L160.963 324.829L55.2637 263.804V62.1968L160.963 139.568V139.494L209.732 175.125Z" fill="#B3B3B3"/>
<path d="M55.2637 263.79V269.737L209.732 359V353.056L55.2637 263.79ZM98.0573 294.228L83.5502 285.852V280.382L93.0246 285.852L98.0573 288.758V294.228ZM164.43 332.549L149.923 324.173V318.703L164.43 327.078V332.549Z" fill="#808080"/>
<path d="M93.0241 285.852L98.0568 288.757V294.228L83.5498 285.852V280.382L93.0241 285.852Z" fill="#999999"/>
<path d="M164.43 327.078V332.549L149.923 324.173V318.703L164.43 327.078Z" fill="#999999"/>
<path d="M88.7046 283.359L83.5498 285.852V280.382L88.7046 283.359Z" fill="#999999"/>
<path d="M164.43 327.078V332.549L149.923 324.173V318.703L164.43 327.078Z" fill="white"/>
<path d="M98.0568 288.757V294.228L83.5498 285.852L88.7046 283.359L93.0241 285.852L98.0568 288.757Z" fill="#4D4D4D"/>
<path d="M309.21 301.609L209.73 359V353.053L309.21 295.664V301.609Z" fill="#808080"/>
<path d="M294.246 310.003L279.739 318.379V312.909L294.246 304.533V310.003Z" fill="white"/>
<path d="M246.594 337.512L232.087 345.888V340.418L246.594 332.042V337.512Z" fill="white"/>
<path d="M209.731 175.125V170.368L55.2656 57.4706V62.2257L209.731 175.125Z" fill="#999999"/>
<path d="M209.73 175.125V170.368L309.21 112.933V117.691L209.73 175.125Z" fill="#808080"/>
<path d="M209.731 170.368L309.21 112.933L154.745 0L55.2656 57.4346L209.731 170.368Z" fill="#F2F2F2"/>
<path d="M265.396 307.778L296.157 289.949C296.674 289.65 296.992 289.1 296.992 288.501V243.901C296.992 242.611 295.595 241.807 294.48 242.453L264.037 260.095C262.773 260.827 261.993 262.18 261.993 263.642V305.818C261.993 307.565 263.884 308.654 265.394 307.778H265.396Z" fill="#043E88"/>
<path d="M267.57 298.655L287.881 310.382V291.299L279.543 271.953L267.57 265.039V298.655Z" fill="#0552B5"/>
<path d="M292.16 250.85L304.132 257.747L279.543 271.953L267.57 265.054L292.16 250.85Z" fill="#7CC4FA"/>
<path d="M287.88 291.299L313.055 276.756V295.841L287.88 310.382V291.299Z" fill="#7CC4FA"/>
<path d="M279.543 271.953L304.132 257.748L313.056 276.842L287.881 291.383L279.543 271.953Z" fill="#BAE3FF"/>
<path d="M265.396 255.869L296.157 238.04C296.674 237.741 296.992 237.191 296.992 236.592V191.992C296.992 190.702 295.595 189.898 294.48 190.544L264.037 208.186C262.773 208.919 261.993 210.271 261.993 211.733V253.909C261.993 255.656 263.884 256.745 265.394 255.869H265.396Z" fill="#043E88"/>
<path d="M267.57 246.746L287.881 258.473V239.39L279.543 220.044L267.57 213.13V246.746Z" fill="#0552B5"/>
<path d="M292.16 198.942L304.132 205.839L279.543 220.044L267.57 213.145L292.16 198.942Z" fill="#7CC4FA"/>
<path d="M287.88 239.39L313.055 224.847V243.932L287.88 258.473V239.39Z" fill="#7CC4FA"/>
<path d="M279.543 220.044L304.132 205.839L313.056 224.933L287.881 239.474L279.543 220.044Z" fill="#BAE3FF"/>
<path d="M265.396 204.783L296.157 186.954C296.674 186.655 296.992 186.105 296.992 185.507V140.906C296.992 139.616 295.595 138.812 294.48 139.458L264.037 157.1C262.773 157.833 261.993 159.185 261.993 160.647V202.823C261.993 204.57 263.884 205.659 265.394 204.783H265.396Z" fill="#043E88"/>
<path d="M267.57 195.661L287.881 207.387V188.304L279.543 168.956L267.57 162.045V195.661Z" fill="#0552B5"/>
<path d="M292.16 147.854L304.132 154.753L279.543 168.956L267.57 162.059L292.16 147.854Z" fill="#E6F6FF"/>
<path d="M287.88 188.304L313.055 173.761V192.844L287.88 207.387V188.304Z" fill="#7CC4FA"/>
<path d="M279.543 168.956L304.132 154.753L313.056 173.845L287.881 188.388L279.543 168.956Z" fill="#BAE3FF"/>
<path d="M224.599 329.778L255.36 311.949C255.877 311.65 256.196 311.1 256.196 310.501V265.901C256.196 264.611 254.798 263.807 253.683 264.453L223.24 282.095C221.976 282.827 221.196 284.179 221.196 285.642V327.818C221.196 329.565 223.087 330.654 224.597 329.778H224.599Z" fill="#043E88"/>
<path d="M226.772 320.655L247.083 332.381V313.299L238.745 293.953L226.772 287.039V320.655Z" fill="#0552B5"/>
<path d="M251.362 272.848L263.334 279.747L238.745 293.953L226.772 287.054L251.362 272.848Z" fill="#7CC4FA"/>
<path d="M247.083 313.299L272.259 298.756V317.841L247.083 332.381V313.299Z" fill="#7CC4FA"/>
<path d="M238.744 293.953L263.333 279.747L272.257 298.84L247.082 313.383L238.744 293.953Z" fill="#BAE3FF"/>
<path d="M224.599 277.869L255.36 260.04C255.877 259.741 256.196 259.19 256.196 258.592V213.992C256.196 212.702 254.798 211.898 253.683 212.544L223.24 230.186C221.976 230.918 221.196 232.27 221.196 233.733V275.909C221.196 277.656 223.087 278.745 224.597 277.869H224.599Z" fill="#043E88"/>
<path d="M226.772 268.746L247.083 280.472V261.39L238.745 242.042L226.772 235.13V268.746Z" fill="#0552B5"/>
<path d="M251.362 220.939L263.334 227.838L238.745 242.042L226.772 235.145L251.362 220.939Z" fill="#7CC4FA"/>
<path d="M247.083 261.39L272.259 246.847V265.932L247.083 280.473V261.39Z" fill="#7CC4FA"/>
<path d="M238.744 242.041L263.333 227.838L272.257 246.931L247.082 261.474L238.744 242.041Z" fill="#BAE3FF"/>
<path d="M224.599 226.781L255.36 208.952C255.877 208.653 256.196 208.103 256.196 207.504V162.904C256.196 161.614 254.798 160.81 253.683 161.456L223.24 179.098C221.976 179.83 221.196 181.182 221.196 182.645V224.821C221.196 226.568 223.087 227.657 224.597 226.781H224.599Z" fill="#043E88"/>
<path d="M226.772 217.661L247.083 229.387V210.302L238.745 190.956L226.772 184.045V217.661Z" fill="#0552B5"/>
<path d="M251.362 169.853L263.334 176.753L238.745 190.956L226.772 184.056L251.362 169.853Z" fill="#E6F6FF"/>
<path d="M247.083 210.302L272.259 195.761V214.844L247.083 229.387V210.302Z" fill="#7CC4FA"/>
<path d="M238.744 190.956L263.333 176.753L272.257 195.845L247.082 210.388L238.744 190.956Z" fill="#BAE3FF"/>
<path d="M109.118 291.23L58.0801 263.757V79.8247L109.118 111.876V291.23Z" fill="#043E88"/>
<path d="M105.234 284.5L72.1758 285.192L105.234 227.022V284.5Z" fill="#0552B5"/>
<path d="M61.0037 256.963L27.9453 257.654L61.0037 199.487V256.963Z" fill="#043E88"/>
<path d="M72.1748 285.192L27.9453 257.654L61.0037 199.487L105.233 227.022L72.1748 285.192Z" fill="url(#paint0_linear_2631_39563)"/>
<path d="M105.234 227.784L72.1758 228.475L105.234 170.306V227.784Z" fill="#0552B5"/>
<path d="M61.0037 200.246L27.9453 200.938L61.0037 142.771V200.246Z" fill="#043E88"/>
<path d="M72.1748 228.475L27.9453 200.938L61.0037 142.771L105.233 170.306L72.1748 228.475Z" fill="url(#paint1_linear_2631_39563)"/>
<path d="M105.234 171.067L72.1758 171.758L105.234 113.589V171.067Z" fill="#0552B5"/>
<path d="M61.0037 143.529L27.9453 144.221L61.0037 86.0538V143.529Z" fill="#043E88"/>
<path d="M72.1748 171.758L27.9453 144.221L61.0037 86.0538L105.233 113.589L72.1748 171.758Z" fill="#2A7DE1"/>
<defs>
<filter id="filter0_f_2631_39563" x="51.75" y="222" width="271.461" height="148.25" filterUnits="userSpaceOnUse" color-interpolation-filters="sRGB">
<feFlood flood-opacity="0" result="BackgroundImageFix"/>
<feBlend mode="normal" in="SourceGraphic" in2="BackgroundImageFix" result="shape"/>
<feGaussianBlur stdDeviation="2" result="effect1_foregroundBlur_2631_39563"/>
</filter>
<linearGradient id="paint0_linear_2631_39563" x1="48.4184" y1="270.984" x2="83.889" y2="215.069" gradientUnits="userSpaceOnUse">
<stop stop-color="#307FE2"/>
<stop offset="1" stop-color="#133166"/>
</linearGradient>
<linearGradient id="paint1_linear_2631_39563" x1="48.7151" y1="217.247" x2="81.2614" y2="159.664" gradientUnits="userSpaceOnUse">
<stop stop-color="#307FE2"/>
<stop offset="1" stop-color="#133166"/>
</linearGradient>
</defs>
</svg>
