<?xml version="1.0" encoding="UTF-8"?>
<svg xmlns="http://www.w3.org/2000/svg" version="1.1" xmlns:xlink="http://www.w3.org/1999/xlink" viewBox="0 0 550 350">
  <defs>
    <style>
      .cls-1 {
        fill: #96999b;
      }

      .cls-2 {
        fill: url(#linear-gradient-2);
      }

      .cls-3 {
        fill: #fff;
      }

      .cls-4 {
        fill: #204283;
      }

      .cls-5 {
        fill: #b3b2b3;
      }

      .cls-6 {
        fill: #8a8a8a;
      }

      .cls-7 {
        fill: #f2f2f2;
      }

      .cls-8 {
        fill: #236ead;
      }

      .cls-9 {
        fill: #1c5d93;
      }

      .cls-10 {
        fill: #bbbdbf;
      }

      .cls-11 {
        fill: #2356a6;
      }

      .cls-12 {
        fill: none;
        stroke: #002159;
        stroke-dasharray: 2 2;
        stroke-linecap: round;
        stroke-miterlimit: 10;
      }

      .cls-13 {
        fill: #4d4e4e;
      }

      .cls-14 {
        fill: #6d6d6d;
      }

      .cls-15 {
        fill: #58595b;
      }

      .cls-16 {
        fill: #404041;
      }

      .cls-17 {
        fill: #185486;
      }

      .cls-18 {
        fill: #002159;
      }

      .cls-19 {
        fill: #979797;
      }

      .cls-20 {
        fill: gray;
      }

      .cls-21 {
        fill: url(#linear-gradient);
      }

      .cls-22 {
        fill: #1e75df;
      }

      .cls-23 {
        fill: #007ad1;
      }
    </style>
    <linearGradient id="linear-gradient" x1="27.7" y1="256.4" x2="55.7" y2="205.2" gradientUnits="userSpaceOnUse">
      <stop offset="0" stop-color="#457abd"/>
      <stop offset="1" stop-color="#263c85"/>
    </linearGradient>
    <linearGradient id="linear-gradient-2" x1="24" y1="213" x2="59.9" y2="155.4" xlink:href="#linear-gradient"/>
  </defs>
  <!-- Generator: Adobe Illustrator 28.7.1, SVG Export Plug-In . SVG Version: 1.2.0 Build 142)  -->
  <g>
    <g id="Layer_1">
      <g>
        <path class="cls-18" d="M368.6,239.1v-1.3l3.9-4.1c.4-.4.8-.8,1-1.2.3-.3.5-.7.6-1,.1-.3.2-.6.2-1s0-.7-.3-1-.4-.5-.7-.7-.7-.2-1.1-.2-.8,0-1.1.3c-.3.2-.5.4-.7.7s-.2.7-.2,1.1h-1.7c0-.7.2-1.3.5-1.9.3-.5.8-.9,1.3-1.2.6-.3,1.2-.4,1.9-.4s1.4.1,1.9.4c.6.3,1,.7,1.3,1.2s.5,1.1.5,1.7,0,.9-.2,1.3c-.2.4-.4.9-.8,1.4-.4.5-1,1.1-1.7,1.8l-2.3,2.4h0c0,0,5.2,0,5.2,0v1.5h-7.7Z"/>
        <path class="cls-18" d="M380,237.5v.6c-.1.5-.2.9-.4,1.4-.1.5-.3,1-.4,1.4-.1.4-.3.8-.3,1h-1.2c0-.2.1-.6.2-1,0-.4.2-.8.3-1.3,0-.5.1-1,.2-1.5v-.6h1.7Z"/>
        <path class="cls-18" d="M386.1,227.5v11.6h-1.8v-9.9h0l-2.8,1.8v-1.7l2.9-1.9h1.7Z"/>
        <path class="cls-18" d="M392.7,239.3c-.9,0-1.7-.2-2.3-.7-.6-.5-1.1-1.2-1.5-2.1s-.5-2-.5-3.2.2-2.3.5-3.2c.3-.9.8-1.6,1.5-2,.6-.5,1.4-.7,2.3-.7s1.7.2,2.3.7c.6.5,1.1,1.2,1.5,2,.3.9.5,2,.5,3.2s-.2,2.4-.5,3.2c-.3.9-.8,1.6-1.5,2.1-.6.5-1.4.7-2.3.7ZM392.7,237.8c.8,0,1.4-.4,1.8-1.2.4-.8.7-1.9.7-3.3s-.1-1.8-.3-2.5c-.2-.7-.5-1.2-.9-1.5-.4-.3-.8-.5-1.3-.5-.8,0-1.4.4-1.8,1.2-.4.8-.7,1.9-.7,3.3,0,1,.1,1.8.3,2.5.2.7.5,1.2.9,1.5s.8.5,1.4.5Z"/>
        <path class="cls-18" d="M402.4,239.3c-.9,0-1.7-.2-2.3-.7-.6-.5-1.1-1.2-1.5-2.1s-.5-2-.5-3.2.2-2.3.5-3.2c.3-.9.8-1.6,1.5-2,.6-.5,1.4-.7,2.3-.7s1.7.2,2.3.7c.6.5,1.1,1.2,1.5,2,.3.9.5,2,.5,3.2s-.2,2.4-.5,3.2c-.3.9-.8,1.6-1.5,2.1-.6.5-1.4.7-2.3.7ZM402.4,237.8c.8,0,1.4-.4,1.8-1.2.4-.8.7-1.9.7-3.3s-.1-1.8-.3-2.5c-.2-.7-.5-1.2-.9-1.5-.4-.3-.8-.5-1.3-.5-.8,0-1.4.4-1.8,1.2-.4.8-.7,1.9-.7,3.3,0,1,.1,1.8.3,2.5.2.7.5,1.2.9,1.5s.8.5,1.4.5Z"/>
        <path class="cls-18" d="M421.4,231.2h-1.8c0-.4-.2-.7-.4-1-.2-.3-.4-.5-.7-.7-.3-.2-.6-.4-.9-.5-.3-.1-.7-.2-1.1-.2-.7,0-1.3.2-1.8.5s-.9.8-1.2,1.5c-.3.7-.5,1.4-.5,2.4s.2,1.7.5,2.4c.3.7.7,1.1,1.3,1.5.5.3,1.1.5,1.8.5s.7,0,1-.2c.3-.1.6-.2.9-.4.3-.2.5-.4.7-.7.2-.3.3-.6.4-1h1.8c0,.6-.3,1.1-.5,1.6-.3.5-.6.9-1,1.2-.4.3-.9.6-1.4.8s-1.1.3-1.8.3c-1,0-1.9-.2-2.7-.7s-1.4-1.2-1.9-2.1c-.5-.9-.7-2-.7-3.2s.2-2.3.7-3.2c.5-.9,1.1-1.6,1.9-2.1.8-.5,1.7-.7,2.7-.7s1.2,0,1.7.3,1,.4,1.4.8.8.8,1.1,1.2c.3.5.5,1,.6,1.7Z"/>
        <path class="cls-18" d="M422.9,239.1v-11.6h7.2v1.5h-5.5v3.5h4.9v1.5h-4.9v5.1h-1.8Z"/>
        <path class="cls-18" d="M431.6,227.5h2.1l3.7,9h.1l3.7-9h2.1v11.6h-1.7v-8.4h-.1l-3.4,8.4h-1.4l-3.4-8.4h-.1v8.4h-1.7v-11.6Z"/>
        <path class="cls-18" d="M448.9,239.1v-11.6h4.3c.8,0,1.5.1,2.1.4.5.3.9.6,1.2,1.1.3.5.4,1,.4,1.6s0,.9-.3,1.2c-.2.3-.4.6-.7.8-.3.2-.6.3-1,.4h0c.4.1.8.3,1.1.5.4.2.7.6.9,1,.2.4.4.9.4,1.5s-.1,1.1-.4,1.6-.7.8-1.3,1.1c-.6.3-1.3.4-2.2.4h-4.5ZM450.7,232.5h2.4c.4,0,.7,0,1.1-.2.3-.2.6-.4.8-.6s.3-.6.3-1-.2-.9-.5-1.2c-.3-.3-.9-.5-1.6-.5h-2.4v3.5ZM450.7,237.6h2.5c.8,0,1.4-.2,1.8-.5.4-.3.5-.7.5-1.2s0-.7-.3-1-.4-.6-.8-.7-.7-.3-1.2-.3h-2.6v3.7Z"/>
        <path class="cls-18" d="M460.3,227.5v11.6h-1.7v-11.6h1.7Z"/>
        <path class="cls-18" d="M465.7,239.3c-.8,0-1.5-.2-2.1-.6-.6-.4-1.1-.9-1.4-1.6-.3-.7-.5-1.5-.5-2.4s.2-1.7.5-2.4c.3-.7.8-1.2,1.4-1.6.6-.4,1.3-.6,2.1-.6s1.5.2,2.1.6c.6.4,1.1.9,1.4,1.6.3.7.5,1.5.5,2.4s-.2,1.7-.5,2.4c-.3.7-.8,1.2-1.4,1.6-.6.4-1.3.6-2.1.6ZM465.7,237.8c.5,0,1-.1,1.3-.4.3-.3.6-.7.8-1.1.2-.5.3-1,.3-1.5s0-1.1-.3-1.5c-.2-.5-.4-.8-.8-1.1-.3-.3-.8-.4-1.3-.4s-1,.1-1.3.4-.6.7-.8,1.1-.3,1-.3,1.5,0,1.1.3,1.5.4.8.8,1.1c.4.3.8.4,1.3.4Z"/>
        <path class="cls-18" d="M472.9,239.1l-2.6-8.7h1.8l1.7,6.4h0l1.7-6.4h1.8l1.7,6.4h0l1.7-6.4h1.8l-2.6,8.7h-1.7l-1.8-6.3h-.1l-1.8,6.3h-1.7Z"/>
        <path class="cls-18" d="M487.3,239.3c-.9,0-1.6-.2-2.2-.6s-1.1-.9-1.4-1.6c-.3-.7-.5-1.5-.5-2.4s.2-1.7.5-2.4c.3-.7.8-1.2,1.4-1.6.6-.4,1.3-.6,2.1-.6s1,0,1.4.2.9.4,1.2.8c.4.3.7.8.9,1.4.2.6.3,1.2.3,2v.6h-6.9v-1.3h5.3c0-.4,0-.8-.3-1.2s-.4-.6-.8-.8c-.3-.2-.7-.3-1.2-.3s-.9.1-1.2.3c-.4.2-.6.5-.8.9-.2.4-.3.8-.3,1.2v1c0,.6.1,1.1.3,1.5.2.4.5.7.9.9.4.2.8.3,1.3.3s.6,0,.9-.1c.3,0,.5-.2.7-.4.2-.2.3-.4.4-.7l1.6.3c-.1.5-.4.9-.7,1.2-.3.4-.7.6-1.2.8-.5.2-1.1.3-1.7.3Z"/>
        <path class="cls-18" d="M492.3,239.1v-8.7h1.6v1.4h0c.2-.5.4-.8.8-1.1.4-.3.9-.4,1.4-.4s.2,0,.4,0,.3,0,.3,0v1.6c0,0-.2,0-.4,0-.2,0-.3,0-.5,0-.4,0-.8,0-1.1.3-.3.2-.6.4-.7.7-.2.3-.3.6-.3,1v5.3h-1.7Z"/>
        <path class="cls-18" d="M501.5,239.1v-11.6h7.2v1.5h-5.5v3.5h4.9v1.5h-4.9v5.1h-1.8Z"/>
        <path class="cls-18" d="M512.7,239.3c-.6,0-1.1-.1-1.5-.3-.4-.2-.8-.5-1.1-.9-.3-.4-.4-.9-.4-1.4s0-.9.3-1.2.4-.6.8-.8.7-.3,1.1-.4c.4,0,.8-.2,1.2-.2.5,0,.9-.1,1.3-.2.3,0,.6-.1.7-.2.1,0,.2-.2.2-.4h0c0-.5-.1-.9-.4-1.2s-.7-.4-1.2-.4-1,.1-1.3.4c-.3.3-.6.5-.7.8l-1.6-.4c.2-.5.5-1,.8-1.3.4-.3.8-.6,1.3-.7s1-.2,1.5-.2.7,0,1.1.1c.4,0,.8.2,1.1.4s.6.5.8.9.3.9.3,1.6v5.8h-1.7v-1.2h0c-.1.2-.3.4-.5.6-.2.2-.5.4-.8.5-.3.1-.8.2-1.2.2ZM513,237.9c.5,0,.9,0,1.2-.3.3-.2.6-.4.8-.7.2-.3.3-.6.3-1v-1.1c0,0-.2.1-.3.2-.2,0-.4,0-.6.1s-.4,0-.6,0c-.2,0-.4,0-.5,0-.3,0-.6.1-.9.2-.3,0-.5.2-.6.4-.2.2-.2.4-.2.7s.2.7.5,1,.7.3,1.2.3Z"/>
        <path class="cls-18" d="M520.3,233.9v5.2h-1.7v-8.7h1.6v1.4h.1c.2-.5.5-.8.9-1.1.4-.3,1-.4,1.6-.4s1.1.1,1.6.4c.4.2.8.6,1,1.1.2.5.4,1.1.4,1.8v5.6h-1.7v-5.3c0-.6-.2-1.1-.5-1.5-.3-.4-.8-.5-1.4-.5s-.7,0-1,.3c-.3.2-.5.4-.7.7-.2.3-.3.7-.3,1.2Z"/>
        <path class="cls-18" d="M534.1,232.5l-1.5.3c0-.2-.2-.4-.3-.6-.1-.2-.3-.3-.6-.4-.2-.1-.5-.2-.9-.2s-.9.1-1.2.3c-.3.2-.5.5-.5.8s.1.5.3.7c.2.2.6.3,1,.4l1.4.3c.8.2,1.4.5,1.8.9.4.4.6.9.6,1.5s-.2,1-.5,1.4c-.3.4-.7.7-1.3,1-.5.2-1.2.3-1.9.3s-1.8-.2-2.4-.6c-.6-.4-1-1-1.1-1.8l1.6-.2c.1.4.3.8.6,1s.7.3,1.2.3,1-.1,1.3-.3c.3-.2.5-.5.5-.9s-.1-.5-.3-.7c-.2-.2-.5-.3-.9-.4l-1.5-.3c-.8-.2-1.4-.5-1.8-.9s-.6-.9-.6-1.5.1-1,.4-1.4c.3-.4.7-.7,1.2-.9.5-.2,1.1-.3,1.7-.3.9,0,1.7.2,2.2.6.5.4.9,1,1.1,1.6Z"/>
      </g>
      <path class="cls-12" d="M249.2,78.1l63.5-36.7h36.7"/>
      <path class="cls-3" d="M349.7,45.1c2.1,0,3.8-1.7,3.8-3.8s-1.7-3.8-3.8-3.8-3.8,1.7-3.8,3.8,1.7,3.8,3.8,3.8Z"/>
      <path class="cls-18" d="M349.7,45.6c-2.4,0-4.3-1.9-4.3-4.3s1.9-4.3,4.3-4.3,4.3,1.9,4.3,4.3-1.9,4.3-4.3,4.3c2.3,0-2.4,0,0,0ZM349.7,38.1c-1.8,0-3.3,1.5-3.3,3.3s1.5,3.3,3.3,3.3,3.3-1.5,3.3-3.3-1.5-3.3-3.3-3.3c1.8,0-1.8,0,0,0Z"/>
      <path class="cls-18" d="M378.1,4v23.3h-5.6V9.2h-.1l-5.2,3.2v-4.9l5.7-3.6h5.2ZM387.4,9.8l2.9,5.8,3-5.8h5.6l-4.9,8.7,5.1,8.7h-5.6l-3.2-5.8-3.1,5.8h-5.6l5.1-8.7-4.8-8.7h5.6Z"/>
      <path class="cls-18" d="M368.1,47.3v-11.6h3.9c.9,0,1.7.2,2.2.5.6.3,1,.7,1.3,1.3s.4,1.1.4,1.8-.1,1.3-.4,1.8-.7.9-1.3,1.2c-.6.3-1.3.4-2.2.4h-3.2v-1.3h3.1c.6,0,1.1,0,1.5-.3.4-.2.7-.4.8-.8.2-.3.3-.7.3-1.2s0-.9-.3-1.2c-.2-.3-.5-.6-.8-.8-.4-.2-.9-.3-1.5-.3h-2.5v10.4h-1.4ZM373.5,42l2.9,5.2h-1.6l-2.8-5.2h1.6ZM380.4,47.5c-.6,0-1.1-.1-1.5-.3-.5-.2-.8-.5-1.1-.9-.3-.4-.4-.9-.4-1.5s0-.9.3-1.2c.2-.3.5-.6.8-.7.3-.2.7-.3,1.1-.4.4,0,.8-.2,1.2-.2.5,0,1-.1,1.3-.2.3,0,.6-.1.7-.2.2,0,.2-.2.2-.5h0c0-.6-.2-1-.5-1.4-.3-.3-.8-.5-1.4-.5s-1.1.1-1.5.4c-.4.3-.6.6-.8.9l-1.3-.5c.2-.5.5-.9.9-1.2.4-.3.8-.5,1.2-.6.5-.1.9-.2,1.3-.2s.6,0,1,.1c.4,0,.7.2,1.1.4.3.2.6.5.9.9.2.4.3,1,.3,1.7v5.8h-1.3v-1.2h0c0,.2-.2.4-.5.6-.2.2-.5.4-.8.6-.4.2-.8.2-1.3.2ZM380.6,46.3c.5,0,1-.1,1.3-.3.4-.2.6-.5.8-.8.2-.3.3-.7.3-1v-1.2c0,0-.2.1-.4.2-.2,0-.4.1-.7.1-.2,0-.5,0-.7.1-.2,0-.4,0-.6,0-.3,0-.7.1-1,.2-.3,0-.5.2-.7.4-.2.2-.3.5-.3.8s.2.8.5,1.1c.3.2.8.4,1.3.4ZM390,47.5c-.8,0-1.5-.2-2.1-.6-.6-.4-1-.9-1.4-1.6-.3-.7-.5-1.5-.5-2.3s.2-1.7.5-2.3c.3-.7.8-1.2,1.4-1.6.6-.4,1.3-.6,2.1-.6s1.2.1,1.7.3c.5.2.9.5,1.2,1,.3.4.5.9.6,1.4h-1.3c-.1-.4-.3-.8-.7-1.1-.3-.3-.8-.5-1.4-.5s-1,.1-1.4.4c-.4.3-.7.6-.9,1.1-.2.5-.3,1.1-.3,1.7s.1,1.3.3,1.8c.2.5.5.9.9,1.2.4.3.9.4,1.4.4s.7,0,.9-.2c.3-.1.5-.3.7-.5.2-.2.3-.5.4-.8h1.3c0,.5-.3,1-.6,1.4-.3.4-.7.7-1.2,1-.5.2-1,.4-1.7.4ZM396.4,44.1v-1.7s.2,0,.2,0l3.8-3.9h1.7l-4.1,4.1h-.1l-1.5,1.4ZM395.1,47.3v-11.6h1.3v11.6h-1.3ZM400.7,47.3l-3.4-4.3,1-.9,4.2,5.2h-1.7ZM403.5,47.3v-8.7h1.3v8.7h-1.3ZM404.2,37.1c-.3,0-.5,0-.7-.3-.2-.2-.3-.4-.3-.6s0-.5.3-.6c.2-.2.4-.3.7-.3s.5,0,.7.3c.2.2.3.4.3.6s0,.5-.3.6c-.2.2-.4.3-.7.3ZM408.3,42v5.2h-1.3v-8.7h1.3v1.4h.1c.2-.4.5-.8.9-1.1.4-.3,1-.4,1.6-.4s1.1.1,1.6.4c.4.2.8.6,1,1.1.2.5.4,1.1.4,1.8v5.5h-1.3v-5.5c0-.7-.2-1.2-.5-1.6-.4-.4-.8-.6-1.5-.6s-.8,0-1.1.3c-.3.2-.6.5-.8.8-.2.4-.3.8-.3,1.3ZM419.5,50.7c-.6,0-1.2,0-1.7-.2-.5-.2-.9-.4-1.2-.6-.3-.3-.6-.5-.7-.9l1.1-.8c.1.2.3.3.5.5.2.2.4.4.8.5.3.2.8.2,1.3.2s1.3-.2,1.7-.5c.5-.3.7-.9.7-1.6v-1.8h-.1c0,.2-.2.4-.4.6-.2.2-.4.4-.8.6-.3.2-.8.3-1.4.3s-1.3-.2-1.9-.5c-.6-.3-1-.8-1.3-1.5-.3-.6-.5-1.4-.5-2.3s.2-1.7.5-2.3c.3-.7.8-1.2,1.3-1.5.6-.4,1.2-.6,1.9-.6s1,0,1.4.3c.3.2.6.4.8.6.2.2.3.4.4.6h.1v-1.4h1.3v9c0,.8-.2,1.4-.5,1.8-.3.5-.8.8-1.4,1-.6.2-1.2.3-1.9.3ZM419.5,45.9c.5,0,1-.1,1.4-.4s.7-.6.8-1.1c.2-.5.3-1,.3-1.7s0-1.2-.3-1.7c-.2-.5-.5-.9-.8-1.1-.4-.3-.8-.4-1.4-.4s-1,.1-1.4.4c-.4.3-.7.7-.8,1.2-.2.5-.3,1-.3,1.6s0,1.1.3,1.6c.2.5.5.8.9,1.1.4.3.8.4,1.4.4ZM436.2,38.5c0-.6-.3-1-.8-1.3-.5-.3-1.1-.5-1.8-.5s-1,0-1.4.2c-.4.2-.7.4-.9.7-.2.3-.3.6-.3,1s0,.6.2.8c.2.2.3.4.6.6.2.1.5.3.7.4.3,0,.5.2.7.2l1.2.3c.3,0,.6.2,1,.3.4.1.7.3,1.1.6.3.2.6.5.9.9.2.4.3.8.3,1.4s-.2,1.2-.5,1.7c-.3.5-.8.9-1.4,1.2-.6.3-1.4.4-2.3.4s-1.6-.1-2.2-.4c-.6-.3-1.1-.6-1.4-1.1-.3-.5-.5-1-.6-1.7h1.5c0,.4.2.8.4,1.1.3.3.6.5,1,.6.4.1.8.2,1.3.2s1,0,1.4-.3c.4-.2.8-.4,1-.7.2-.3.4-.7.4-1.1s-.1-.7-.3-.9-.5-.4-.9-.6c-.4-.2-.7-.3-1.1-.4l-1.4-.4c-.9-.3-1.6-.6-2.2-1.1-.5-.5-.8-1.1-.8-1.9s.2-1.2.5-1.7c.4-.5.8-.9,1.4-1.1.6-.3,1.3-.4,2-.4s1.4.1,2,.4c.6.3,1,.6,1.4,1.1.3.5.5,1,.5,1.6h-1.4ZM440.8,42v5.2h-1.3v-11.6h1.3v4.3h.1c.2-.5.5-.8.9-1.1.4-.3,1-.4,1.6-.4s1.1.1,1.6.4c.4.2.8.6,1,1.1.2.5.4,1.1.4,1.9v5.5h-1.3v-5.5c0-.7-.2-1.2-.5-1.6-.4-.4-.9-.6-1.5-.6s-.8,0-1.2.3c-.3.2-.6.5-.8.8-.2.4-.3.8-.3,1.3ZM452.3,47.5c-.8,0-1.6-.2-2.2-.6-.6-.4-1.1-.9-1.4-1.6-.3-.7-.5-1.5-.5-2.4s.2-1.7.5-2.4c.3-.7.8-1.2,1.4-1.6.6-.4,1.3-.6,2.1-.6s.9,0,1.3.2c.4.2.8.4,1.2.7.4.3.7.8.9,1.3s.3,1.2.3,2.1v.6h-6.7v-1.2h5.4c0-.5,0-.9-.3-1.3-.2-.4-.5-.7-.8-.9-.4-.2-.8-.3-1.3-.3s-1,.1-1.4.4c-.4.3-.7.6-.9,1-.2.4-.3.9-.3,1.4v.8c0,.7.1,1.2.3,1.7.2.5.6.8,1,1,.4.2.9.4,1.4.4s.7,0,1-.1c.3-.1.5-.3.7-.5.2-.2.4-.5.5-.8l1.3.4c-.1.4-.4.8-.7,1.2-.3.3-.7.6-1.2.8-.5.2-1,.3-1.6.3ZM459,35.6v11.6h-1.3v-11.6h1.3ZM465,38.5v1.1h-4.7v-1.1h4.7ZM461.7,47.3v-9.9c0-.5.1-.9.4-1.2.2-.3.5-.6.9-.8.4-.2.8-.2,1.2-.2s.6,0,.8,0c.2,0,.4.1.5.1l-.4,1.2c0,0-.2,0-.3,0-.1,0-.3,0-.5,0-.4,0-.8.1-1,.3-.2.2-.3.6-.3,1v9.6h-1.3Z"/>
      <path class="cls-12" d="M349.9,238.1h-57.3"/>
      <path class="cls-3" d="M349.9,242.1c2.1,0,3.8-1.7,3.8-3.8s-1.7-3.8-3.8-3.8-3.8,1.7-3.8,3.8,1.7,3.8,3.8,3.8Z"/>
      <path class="cls-18" d="M349.9,234.1c-2.4,0-4.3,1.9-4.3,4.3s1.9,4.3,4.3,4.3,4.3-1.9,4.3-4.3-1.9-4.3-4.3-4.3c2.3,0-2.4,0,0,0ZM349.9,241.6c-1.8,0-3.3-1.5-3.3-3.3s1.5-3.3,3.3-3.3,3.3,1.5,3.3,3.3-1.5,3.3-3.3,3.3c1.8,0-1.8,0,0,0Z"/>
      <path class="cls-18" d="M377.6,219.4c-1.3,0-2.5-.2-3.7-.6-1.2-.4-2.2-1.1-3.1-2-.9-.9-1.6-2.1-2.1-3.6-.5-1.5-.8-3.3-.8-5.4,0-1.9.2-3.6.7-5.2.5-1.5,1.1-2.8,2-3.9.9-1.1,1.9-1.9,3.1-2.4,1.2-.6,2.5-.9,4-.9s3.1.3,4.3,1c1.2.6,2.2,1.5,3,2.5.8,1.1,1.2,2.2,1.3,3.5h-5.5c-.2-.7-.5-1.3-1.1-1.7-.6-.4-1.2-.6-2-.6-1.4,0-2.5.6-3.2,1.9-.7,1.2-1.1,2.9-1.1,5h.1c.3-.7.8-1.3,1.4-1.8.6-.5,1.3-.9,2.1-1.1.8-.3,1.6-.4,2.5-.4,1.4,0,2.6.3,3.7,1,1.1.6,1.9,1.5,2.5,2.6.6,1.1.9,2.4.9,3.8,0,1.6-.4,3.1-1.1,4.3-.8,1.2-1.8,2.2-3.2,2.9-1.3.7-2.9,1-4.7,1ZM377.5,215.1c.7,0,1.3-.2,1.9-.5.5-.3,1-.8,1.3-1.3.3-.6.5-1.2.5-1.9,0-.7-.1-1.3-.5-1.9-.3-.6-.7-1-1.3-1.3-.5-.3-1.2-.5-1.9-.5s-1,0-1.4.3c-.4.2-.8.5-1.1.8-.3.3-.6.7-.8,1.2-.2.4-.3.9-.3,1.5,0,.7.2,1.3.5,1.9.3.6.7,1,1.3,1.3.5.3,1.2.5,1.8.5ZM393.9,201.6l2.9,5.8,3-5.8h5.6l-4.9,8.7,5.1,8.7h-5.6l-3.2-5.8-3.1,5.8h-5.6l5.1-8.7-4.8-8.7h5.6Z"/>
      <g>
        <polygon class="cls-19" points="254.7 268.4 170.4 317.1 170.4 150.1 254.7 101.4 254.7 268.4"/>
        <polygon class="cls-5" points="170.4 154.1 170.4 317 129 293.1 39.4 241.4 39.4 70.5 170.4 154.1"/>
        <g>
          <path class="cls-20" d="M39.4,241.4v5l130.9,75.7v-5L39.4,241.4ZM75.7,267.2l-12.3-7.1v-4.6l8,4.6,4.3,2.5v4.6ZM132,299.7l-12.3-7.1v-4.6l12.3,7.1v4.6Z"/>
          <polygon class="cls-19" points="71.4 260.1 75.7 262.5 75.7 267.2 63.4 260.1 63.4 255.5 71.4 260.1"/>
          <polygon class="cls-19" points="132 295 132 299.7 119.7 292.6 119.7 287.9 132 295"/>
          <g>
            <polygon class="cls-19" points="67.8 258 63.4 260.1 63.4 255.5 67.8 258"/>
            <polygon class="cls-3" points="132 295 132 299.7 119.7 292.6 119.7 287.9 132 295"/>
          </g>
          <polygon class="cls-13" points="75.7 262.5 75.7 267.2 63.4 260.1 67.8 258 71.4 260.1 75.7 262.5"/>
        </g>
        <g>
          <polygon class="cls-20" points="254.7 273.4 170.4 322.1 170.4 317 254.7 268.4 254.7 273.4"/>
          <g>
            <polygon class="cls-3" points="242 280.6 229.7 287.7 229.7 283 242 275.9 242 280.6"/>
            <polygon class="cls-3" points="201.6 303.9 189.3 311 189.3 306.3 201.6 299.2 201.6 303.9"/>
          </g>
        </g>
        <g>
          <polygon class="cls-19" points="170.4 154.1 170.4 150.1 39.4 66.5 39.4 70.5 170.4 154.1"/>
          <polygon class="cls-20" points="170.4 154.1 170.4 150.1 254.7 101.4 254.7 105.4 170.4 154.1"/>
          <polygon class="cls-7" points="170.4 150.1 254.7 101.4 123.8 17.8 39.4 66.5 170.4 150.1"/>
        </g>
        <g>
          <path id="Axo_base" class="cls-6" d="M208.9,248.8c.5.3.8.9.8,1.7v25.8c0,1.7-1.2,3.7-2.6,4.6l-23.2,13.4c-.7.4-1.4.5-1.9.2s-.8-.9-.8-1.7v-25.8c0-1.7,1.2-3.7,2.6-4.6l23.2-13.4c.7-.4,1.4-.5,1.9-.2Z"/>
          <g id="Axo_Extrusion">
            <g id="Axo_Surface">
              <path id="Axo_panel" class="cls-10" d="M209.7,250.5c0-.8-.3-1.4-.8-1.7l-1.1-.6c.5.3.8.9.8,1.7l1.1.6Z"/>
              <polygon id="Axo_panel-2" data-name="Axo_panel" class="cls-10" points="209.7 276.4 209.7 250.5 208.6 249.9 208.6 275.7 209.7 276.4"/>
              <path id="Axo_panel-3" data-name="Axo_panel" class="cls-10" d="M207,280.9c1.5-.8,2.6-2.9,2.6-4.6l-1.1-.6c0,1.7-1.2,3.7-2.6,4.6l1.1.6Z"/>
              <polygon id="Axo_panel-4" data-name="Axo_panel" class="cls-10" points="183.9 294.3 207 280.9 205.9 280.3 182.8 293.7 183.9 294.3"/>
              <path id="Axo_panel-5" data-name="Axo_panel" class="cls-10" d="M182,294.5c.5.3,1.1.2,1.9-.2l-1.1-.6c-.7.4-1.4.5-1.9.2l1.1.6Z"/>
              <path id="Axo_panel-6" data-name="Axo_panel" class="cls-19" d="M181.2,292.8c0,.8.3,1.4.8,1.7l-1.1-.6c-.5-.3-.8-.9-.8-1.7l1.1.6Z"/>
            </g>
            <g id="Axo_Surface_x2A__x2A_">
              <polygon id="Axo_panel-7" data-name="Axo_panel" class="cls-19" points="181.2 266.9 181.2 292.8 180.1 292.2 180.1 266.3 181.2 266.9"/>
              <path id="Axo_panel-8" data-name="Axo_panel" class="cls-19" d="M183.9,262.3c-1.5.8-2.6,2.9-2.6,4.6l-1.1-.6c0-1.7,1.2-3.7,2.6-4.6l1.1.6Z"/>
              <polygon id="Axo_panel-9" data-name="Axo_panel" class="cls-19" points="207 249 183.9 262.3 182.8 261.7 205.9 248.4 207 249"/>
              <path id="Axo_panel-10" data-name="Axo_panel" class="cls-19" d="M208.9,248.8c-.5-.3-1.1-.2-1.9.2l-1.1-.6c.7-.4,1.4-.5,1.9-.2l1.1.6Z"/>
            </g>
          </g>
          <g>
            <g id="Axo_Extrusion-2" data-name="Axo_Extrusion">
              <polygon id="Axo_panel-11" data-name="Axo_panel" class="cls-15" points="205.2 278.5 205.2 263.2 204.7 262.9 204.7 278.2 205.2 278.5"/>
              <g id="Axo_Surface-2" data-name="Axo_Surface">
                <polygon id="Axo_panel-12" data-name="Axo_panel" class="cls-15" points="204.3 263.7 204.3 261.8 203.7 261.5 203.7 263.4 204.3 263.7"/>
                <polygon id="Axo_panel-13" data-name="Axo_panel" class="cls-15" points="205.2 263.2 204.3 263.7 203.7 263.4 204.7 262.9 205.2 263.2"/>
              </g>
              <g id="Axo_Surface-3" data-name="Axo_Surface">
                <polygon id="Axo_panel-14" data-name="Axo_panel" class="cls-15" points="184.9 290.2 205.2 278.5 204.7 278.2 184.4 289.9 184.9 290.2"/>
                <polygon id="Axo_panel-15" data-name="Axo_panel" class="cls-15" points="184.9 274.9 184.9 290.2 184.4 289.9 184.4 274.6 184.9 274.9"/>
              </g>
              <g id="Axo_Surface_x2A__x2A_-2" data-name="Axo_Surface_x2A__x2A_">
                <polygon id="Axo_panel-16" data-name="Axo_panel" class="cls-15" points="185.8 274.4 184.9 274.9 184.4 274.6 185.3 274.1 185.8 274.4"/>
                <polygon id="Axo_panel-17" data-name="Axo_panel" class="cls-15" points="185.8 272.4 185.8 274.4 185.3 274.1 185.3 272.1 185.8 272.4"/>
                <polygon id="Axo_panel-18" data-name="Axo_panel" class="cls-15" points="204.3 261.8 185.8 272.4 185.3 272.1 203.7 261.5 204.3 261.8"/>
              </g>
              <polygon id="Axo_base-2" data-name="Axo_base" class="cls-16" points="204.3 261.8 204.3 263.7 205.2 263.2 205.2 278.5 184.9 290.2 184.9 274.9 185.8 274.4 185.8 272.4 204.3 261.8"/>
            </g>
            <g id="Axo_Extrusion-3" data-name="Axo_Extrusion">
              <g id="Axo_Surface-4" data-name="Axo_Surface">
                <polygon id="Axo_panel-19" data-name="Axo_panel" class="cls-10" points="203.1 263 203.1 261.4 202.5 261.1 202.5 262.7 203.1 263"/>
                <polygon id="Axo_panel-20" data-name="Axo_panel" class="cls-10" points="200.5 264.5 203.1 263 202.5 262.7 200 264.2 200.5 264.5"/>
                <polygon id="Axo_panel-21" data-name="Axo_panel" class="cls-10" points="200.5 262.9 200.5 264.5 200 264.2 200 262.6 200.5 262.9"/>
              </g>
              <polygon id="Axo_panel-22" data-name="Axo_panel" class="cls-10" points="203.1 261.4 200.5 262.9 200 262.6 202.5 261.1 203.1 261.4"/>
              <polygon id="Axo_base-3" data-name="Axo_base" class="cls-1" points="203.1 261.4 203.1 263 200.5 264.5 200.5 262.9 203.1 261.4"/>
            </g>
            <g id="Axo_Extrusion-4" data-name="Axo_Extrusion">
              <g id="Axo_Surface-5" data-name="Axo_Surface">
                <polygon id="Axo_panel-23" data-name="Axo_panel" class="cls-10" points="196.3 266.9 196.3 265.3 195.8 265 195.8 266.6 196.3 266.9"/>
                <polygon id="Axo_panel-24" data-name="Axo_panel" class="cls-10" points="193.8 268.4 196.3 266.9 195.8 266.6 193.3 268.1 193.8 268.4"/>
                <polygon id="Axo_panel-25" data-name="Axo_panel" class="cls-10" points="193.8 266.8 193.8 268.4 193.3 268.1 193.3 266.5 193.8 266.8"/>
              </g>
              <polygon id="Axo_panel-26" data-name="Axo_panel" class="cls-10" points="196.3 265.3 193.8 266.8 193.3 266.5 195.8 265 196.3 265.3"/>
              <polygon id="Axo_base-4" data-name="Axo_base" class="cls-1" points="196.3 265.3 196.3 266.9 193.8 268.4 193.8 266.8 196.3 265.3"/>
            </g>
            <g id="Axo_Extrusion-5" data-name="Axo_Extrusion">
              <g id="Axo_Surface-6" data-name="Axo_Surface">
                <polygon id="Axo_panel-27" data-name="Axo_panel" class="cls-10" points="189.6 270.8 189.6 269.2 189 268.9 189 270.5 189.6 270.8"/>
                <polygon id="Axo_panel-28" data-name="Axo_panel" class="cls-10" points="187.1 272.3 189.6 270.8 189 270.5 186.5 272 187.1 272.3"/>
                <polygon id="Axo_panel-29" data-name="Axo_panel" class="cls-10" points="187.1 270.7 187.1 272.3 186.5 272 186.5 270.4 187.1 270.7"/>
              </g>
              <polygon id="Axo_panel-30" data-name="Axo_panel" class="cls-10" points="189.6 269.2 187.1 270.7 186.5 270.4 189 268.9 189.6 269.2"/>
              <polygon id="Axo_base-5" data-name="Axo_base" class="cls-1" points="189.6 269.2 189.6 270.8 187.1 272.3 187.1 270.7 189.6 269.2"/>
            </g>
            <g>
              <path class="cls-17" d="M182.9,284.3l1-.6c0,0,.2-.2.2-.3v-5.2c0-.1,0-.2-.2-.1l-1,.6c0,0-.2.2-.2.3v5.2c0,.1,0,.2.2.1Z"/>
              <g id="Axo_Extrusion-6" data-name="Axo_Extrusion">
                <g id="Axo_Surface-7" data-name="Axo_Surface">
                  <path id="Axo_panel-31" data-name="Axo_panel" class="cls-23" d="M183.1,283.6l.9.5c.2.1.4.1.6,0l.3-.2c-.1,0-.3,0-.6,0l-.9-.5-.3.2Z"/>
                  <polygon id="Axo_panel-32" data-name="Axo_panel" class="cls-23" points="183.1 282.9 183.1 283.6 183.4 283.4 183.4 282.8 183.1 282.9"/>
                  <path id="Axo_panel-33" data-name="Axo_panel" class="cls-9" d="M184.1,283.5s-.1,0-.2,0l-.9-.5.3-.2.9.5c0,0,.1,0,.2,0l-.3.2Z"/>
                </g>
                <path id="Axo_panel-34" data-name="Axo_panel" class="cls-23" d="M183.1,279.5l.9.5c.1,0,.3.3.3.5v2.8c0,0,0,.1,0,.2l.3-.2s0,0,0-.2v-2.8c0-.2-.1-.4-.3-.5l-.9-.5-.3.2Z"/>
                <g id="Axo_Surface-8" data-name="Axo_Surface">
                  <polygon id="Axo_panel-35" data-name="Axo_panel" class="cls-23" points="183.1 278.9 183.1 279.5 183.4 279.3 183.4 278.7 183.1 278.9"/>
                  <path id="Axo_panel-36" data-name="Axo_panel" class="cls-23" d="M184.5,284.1c.1,0,.2-.3.2-.5v-2.8c0-.5-.4-1.1-.8-1.4l-.9-.5.3-.2.9.5c.4.3.8.9.8,1.4v2.8c0,.3,0,.4-.2.5l-.3.2Z"/>
                </g>
                <path id="Axo_base-6" data-name="Axo_base" class="cls-8" d="M184.5,284.1c-.1,0-.3,0-.6,0l-.9-.5v-.6l.9.5c0,0,.1,0,.2,0s0,0,0-.2v-2.8c0-.2-.1-.4-.3-.5l-.9-.5v-.6l.9.5c.4.3.8.9.8,1.4v2.8c0,.3,0,.4-.2.5Z"/>
              </g>
            </g>
            <g>
              <path class="cls-17" d="M205.7,272.4l1-.6c0,0,.2-.2.2-.3v-5.2c0-.1,0-.2-.2-.1l-1,.6c0,0-.2.2-.2.3v5.2c0,.1,0,.2.2.1Z"/>
              <g id="Axo_Extrusion-7" data-name="Axo_Extrusion">
                <g id="Axo_Surface-9" data-name="Axo_Surface">
                  <path id="Axo_panel-37" data-name="Axo_panel" class="cls-23" d="M205.9,271.7l.9.5c.2.1.4.1.6,0l.3-.2c-.1,0-.3,0-.6,0l-.9-.5-.3.2Z"/>
                  <polygon id="Axo_panel-38" data-name="Axo_panel" class="cls-23" points="205.9 271.1 205.9 271.7 206.2 271.5 206.2 270.9 205.9 271.1"/>
                  <path id="Axo_panel-39" data-name="Axo_panel" class="cls-9" d="M206.9,271.6s-.1,0-.2,0l-.9-.5.3-.2.9.5c0,0,.1,0,.2,0l-.3.2Z"/>
                </g>
                <path id="Axo_panel-40" data-name="Axo_panel" class="cls-23" d="M205.9,267.6l.9.5c.1,0,.3.3.3.5v2.8c0,0,0,.1,0,.2l.3-.2s0,0,0-.2v-2.8c0-.2-.1-.4-.3-.5l-.9-.5-.3.2Z"/>
                <g id="Axo_Surface-10" data-name="Axo_Surface">
                  <polygon id="Axo_panel-41" data-name="Axo_panel" class="cls-23" points="205.9 267 205.9 267.6 206.2 267.4 206.2 266.8 205.9 267"/>
                  <path id="Axo_panel-42" data-name="Axo_panel" class="cls-23" d="M207.3,272.2c.1,0,.2-.3.2-.5v-2.8c0-.5-.4-1.1-.8-1.4l-.9-.5.3-.2.9.5c.4.3.8.9.8,1.4v2.8c0,.3,0,.4-.2.5l-.3.2Z"/>
                </g>
                <path id="Axo_base-7" data-name="Axo_base" class="cls-8" d="M207.3,272.2c-.1,0-.3,0-.6,0l-.9-.5v-.6l.9.5c0,0,.1,0,.2,0s0,0,0-.2v-2.8c0-.2-.1-.4-.3-.5l-.9-.5v-.6l.9.5c.4.3.8.9.8,1.4v2.8c0,.3,0,.4-.2.5Z"/>
              </g>
            </g>
          </g>
        </g>
        <g>
          <path id="Axo_base-8" data-name="Axo_base" class="cls-6" d="M244.5,227.3c.5.3.8.9.8,1.7v25.8c0,1.7-1.2,3.7-2.6,4.6l-23.2,13.4c-.7.4-1.4.5-1.9.2s-.8-.9-.8-1.7v-25.8c0-1.7,1.2-3.7,2.6-4.6l23.2-13.4c.7-.4,1.4-.5,1.9-.2Z"/>
          <g id="Axo_Extrusion-8" data-name="Axo_Extrusion">
            <g id="Axo_Surface-11" data-name="Axo_Surface">
              <path id="Axo_panel-43" data-name="Axo_panel" class="cls-10" d="M245.3,229.1c0-.8-.3-1.4-.8-1.7l-1.1-.6c.5.3.8.9.8,1.7l1.1.6Z"/>
              <polygon id="Axo_panel-44" data-name="Axo_panel" class="cls-10" points="245.3 254.9 245.3 229.1 244.2 228.4 244.2 254.3 245.3 254.9"/>
              <path id="Axo_panel-45" data-name="Axo_panel" class="cls-10" d="M242.7,259.5c1.5-.8,2.6-2.9,2.6-4.6l-1.1-.6c0,1.7-1.2,3.7-2.6,4.6l1.1.6Z"/>
              <polygon id="Axo_panel-46" data-name="Axo_panel" class="cls-10" points="219.5 272.9 242.7 259.5 241.6 258.9 218.4 272.2 219.5 272.9"/>
              <path id="Axo_panel-47" data-name="Axo_panel" class="cls-10" d="M217.6,273c.5.3,1.1.2,1.9-.2l-1.1-.6c-.7.4-1.4.5-1.9.2l1.1.6Z"/>
              <path id="Axo_panel-48" data-name="Axo_panel" class="cls-19" d="M216.9,271.3c0,.8.3,1.4.8,1.7l-1.1-.6c-.5-.3-.8-.9-.8-1.7l1.1.6Z"/>
            </g>
            <g id="Axo_Surface_x2A__x2A_-3" data-name="Axo_Surface_x2A__x2A_">
              <polygon id="Axo_panel-49" data-name="Axo_panel" class="cls-19" points="216.9 245.5 216.9 271.3 215.8 270.7 215.8 244.9 216.9 245.5"/>
              <path id="Axo_panel-50" data-name="Axo_panel" class="cls-19" d="M219.5,240.9c-1.5.8-2.6,2.9-2.6,4.6l-1.1-.6c0-1.7,1.2-3.7,2.6-4.6l1.1.6Z"/>
              <polygon id="Axo_panel-51" data-name="Axo_panel" class="cls-19" points="242.7 227.5 219.5 240.9 218.4 240.3 241.6 226.9 242.7 227.5"/>
              <path id="Axo_panel-52" data-name="Axo_panel" class="cls-19" d="M244.5,227.3c-.5-.3-1.1-.2-1.9.2l-1.1-.6c.7-.4,1.4-.5,1.9-.2l1.1.6Z"/>
            </g>
          </g>
          <g>
            <g id="Axo_Extrusion-9" data-name="Axo_Extrusion">
              <polygon id="Axo_panel-53" data-name="Axo_panel" class="cls-15" points="240.8 257 240.8 241.8 240.3 241.5 240.3 256.7 240.8 257"/>
              <g id="Axo_Surface-12" data-name="Axo_Surface">
                <polygon id="Axo_panel-54" data-name="Axo_panel" class="cls-15" points="239.9 242.3 239.9 240.3 239.4 240 239.4 242 239.9 242.3"/>
                <polygon id="Axo_panel-55" data-name="Axo_panel" class="cls-15" points="240.8 241.8 239.9 242.3 239.4 242 240.3 241.5 240.8 241.8"/>
              </g>
              <g id="Axo_Surface-13" data-name="Axo_Surface">
                <polygon id="Axo_panel-56" data-name="Axo_panel" class="cls-15" points="220.5 268.8 240.8 257 240.3 256.7 220 268.5 220.5 268.8"/>
                <polygon id="Axo_panel-57" data-name="Axo_panel" class="cls-15" points="220.5 253.5 220.5 268.8 220 268.5 220 253.2 220.5 253.5"/>
              </g>
              <g id="Axo_Surface_x2A__x2A_-4" data-name="Axo_Surface_x2A__x2A_">
                <polygon id="Axo_panel-58" data-name="Axo_panel" class="cls-15" points="221.5 252.9 220.5 253.5 220 253.2 221 252.6 221.5 252.9"/>
                <polygon id="Axo_panel-59" data-name="Axo_panel" class="cls-15" points="221.5 251 221.5 252.9 221 252.6 221 250.7 221.5 251"/>
                <polygon id="Axo_panel-60" data-name="Axo_panel" class="cls-15" points="239.9 240.3 221.5 251 221 250.7 239.4 240 239.9 240.3"/>
              </g>
              <polygon id="Axo_base-9" data-name="Axo_base" class="cls-16" points="239.9 240.3 239.9 242.3 240.8 241.8 240.8 257 220.5 268.8 220.5 253.5 221.5 252.9 221.5 251 239.9 240.3"/>
            </g>
            <g id="Axo_Extrusion-10" data-name="Axo_Extrusion">
              <g id="Axo_Surface-14" data-name="Axo_Surface">
                <polygon id="Axo_panel-61" data-name="Axo_panel" class="cls-10" points="238.7 241.6 238.7 240 238.2 239.7 238.2 241.3 238.7 241.6"/>
                <polygon id="Axo_panel-62" data-name="Axo_panel" class="cls-10" points="236.2 243.1 238.7 241.6 238.2 241.3 235.7 242.8 236.2 243.1"/>
                <polygon id="Axo_panel-63" data-name="Axo_panel" class="cls-10" points="236.2 241.5 236.2 243.1 235.7 242.8 235.7 241.1 236.2 241.5"/>
              </g>
              <polygon id="Axo_panel-64" data-name="Axo_panel" class="cls-10" points="238.7 240 236.2 241.5 235.7 241.1 238.2 239.7 238.7 240"/>
              <polygon id="Axo_base-10" data-name="Axo_base" class="cls-1" points="238.7 240 238.7 241.6 236.2 243.1 236.2 241.5 238.7 240"/>
            </g>
            <g id="Axo_Extrusion-11" data-name="Axo_Extrusion">
              <g id="Axo_Surface-15" data-name="Axo_Surface">
                <polygon id="Axo_panel-65" data-name="Axo_panel" class="cls-10" points="232 245.5 232 243.9 231.4 243.6 231.4 245.2 232 245.5"/>
                <polygon id="Axo_panel-66" data-name="Axo_panel" class="cls-10" points="229.4 247 232 245.5 231.4 245.2 228.9 246.6 229.4 247"/>
                <polygon id="Axo_panel-67" data-name="Axo_panel" class="cls-10" points="229.4 245.3 229.4 247 228.9 246.6 228.9 245 229.4 245.3"/>
              </g>
              <polygon id="Axo_panel-68" data-name="Axo_panel" class="cls-10" points="232 243.9 229.4 245.3 228.9 245 231.4 243.6 232 243.9"/>
              <polygon id="Axo_base-11" data-name="Axo_base" class="cls-1" points="232 243.9 232 245.5 229.4 247 229.4 245.3 232 243.9"/>
            </g>
            <g id="Axo_Extrusion-12" data-name="Axo_Extrusion">
              <g id="Axo_Surface-16" data-name="Axo_Surface">
                <polygon id="Axo_panel-69" data-name="Axo_panel" class="cls-10" points="225.2 249.4 225.2 247.8 224.7 247.5 224.7 249.1 225.2 249.4"/>
                <polygon id="Axo_panel-70" data-name="Axo_panel" class="cls-10" points="222.7 250.8 225.2 249.4 224.7 249.1 222.2 250.5 222.7 250.8"/>
                <polygon id="Axo_panel-71" data-name="Axo_panel" class="cls-10" points="222.7 249.2 222.7 250.8 222.2 250.5 222.2 248.9 222.7 249.2"/>
              </g>
              <polygon id="Axo_panel-72" data-name="Axo_panel" class="cls-10" points="225.2 247.8 222.7 249.2 222.2 248.9 224.7 247.5 225.2 247.8"/>
              <polygon id="Axo_base-12" data-name="Axo_base" class="cls-1" points="225.2 247.8 225.2 249.4 222.7 250.8 222.7 249.2 225.2 247.8"/>
            </g>
            <g>
              <path class="cls-17" d="M218.5,262.8l1-.6c0,0,.2-.2.2-.3v-5.2c0-.1,0-.2-.2-.1l-1,.6c0,0-.2.2-.2.3v5.2c0,.1,0,.2.2.1Z"/>
              <g id="Axo_Extrusion-13" data-name="Axo_Extrusion">
                <g id="Axo_Surface-17" data-name="Axo_Surface">
                  <path id="Axo_panel-73" data-name="Axo_panel" class="cls-23" d="M218.7,262.1l.9.5c.2.1.4.1.6,0l.3-.2c-.1,0-.3,0-.6,0l-.9-.5-.3.2Z"/>
                  <polygon id="Axo_panel-74" data-name="Axo_panel" class="cls-23" points="218.7 261.5 218.7 262.1 219.1 261.9 219.1 261.3 218.7 261.5"/>
                  <path id="Axo_panel-75" data-name="Axo_panel" class="cls-9" d="M219.8,262s-.1,0-.2,0l-.9-.5.3-.2.9.5c0,0,.1,0,.2,0l-.3.2Z"/>
                </g>
                <path id="Axo_panel-76" data-name="Axo_panel" class="cls-23" d="M218.7,258.1l.9.5c.1,0,.3.3.3.5v2.8c0,0,0,.1,0,.2l.3-.2s0,0,0-.2v-2.8c0-.2-.1-.4-.3-.5l-.9-.5-.3.2Z"/>
                <g id="Axo_Surface-18" data-name="Axo_Surface">
                  <polygon id="Axo_panel-77" data-name="Axo_panel" class="cls-23" points="218.7 257.4 218.7 258.1 219.1 257.9 219.1 257.3 218.7 257.4"/>
                  <path id="Axo_panel-78" data-name="Axo_panel" class="cls-23" d="M220.1,262.7c.1,0,.2-.3.2-.5v-2.8c0-.5-.4-1.1-.8-1.4l-.9-.5.3-.2.9.5c.4.3.8.9.8,1.4v2.8c0,.3,0,.4-.2.5l-.3.2Z"/>
                </g>
                <path id="Axo_base-13" data-name="Axo_base" class="cls-8" d="M220.1,262.7c-.1,0-.3,0-.6,0l-.9-.5v-.6l.9.5c0,0,.1,0,.2,0s0,0,0-.2v-2.8c0-.2-.1-.4-.3-.5l-.9-.5v-.6l.9.5c.4.3.8.9.8,1.4v2.8c0,.3,0,.4-.2.5Z"/>
              </g>
            </g>
            <g>
              <path class="cls-17" d="M241.3,250.9l1-.6c0,0,.2-.2.2-.3v-5.2c0-.1,0-.2-.2-.1l-1,.6c0,0-.2.2-.2.3v5.2c0,.1,0,.2.2.1Z"/>
              <g id="Axo_Extrusion-14" data-name="Axo_Extrusion">
                <g id="Axo_Surface-19" data-name="Axo_Surface">
                  <path id="Axo_panel-79" data-name="Axo_panel" class="cls-23" d="M241.5,250.2l.9.5c.2.1.4.1.6,0l.3-.2c-.1,0-.3,0-.6,0l-.9-.5-.3.2Z"/>
                  <polygon id="Axo_panel-80" data-name="Axo_panel" class="cls-23" points="241.5 249.6 241.5 250.2 241.8 250 241.8 249.4 241.5 249.6"/>
                  <path id="Axo_panel-81" data-name="Axo_panel" class="cls-9" d="M242.5,250.1s-.1,0-.2,0l-.9-.5.3-.2.9.5c0,0,.1,0,.2,0l-.3.2Z"/>
                </g>
                <path id="Axo_panel-82" data-name="Axo_panel" class="cls-23" d="M241.5,246.2l.9.5c.1,0,.3.3.3.5v2.8c0,0,0,.1,0,.2l.3-.2s0,0,0-.2v-2.8c0-.2-.1-.4-.3-.5l-.9-.5-.3.2Z"/>
                <g id="Axo_Surface-20" data-name="Axo_Surface">
                  <polygon id="Axo_panel-83" data-name="Axo_panel" class="cls-23" points="241.5 245.6 241.5 246.2 241.8 246 241.8 245.4 241.5 245.6"/>
                  <path id="Axo_panel-84" data-name="Axo_panel" class="cls-23" d="M242.9,250.8c.1,0,.2-.3.2-.5v-2.8c0-.5-.4-1.1-.8-1.4l-.9-.5.3-.2.9.5c.4.3.8.9.8,1.4v2.8c0,.3,0,.4-.2.5l-.3.2Z"/>
                </g>
                <path id="Axo_base-14" data-name="Axo_base" class="cls-8" d="M242.9,250.8c-.1,0-.3,0-.6,0l-.9-.5v-.6l.9.5c0,0,.1,0,.2,0s0,0,0-.2v-2.8c0-.2-.1-.4-.3-.5l-.9-.5v-.6l.9.5c.4.3.8.9.8,1.4v2.8c0,.3,0,.4-.2.5Z"/>
              </g>
            </g>
          </g>
        </g>
        <g>
          <path id="Axo_base-15" data-name="Axo_base" class="cls-6" d="M208.9,206.8c.5.3.8.9.8,1.7v25.8c0,1.7-1.2,3.7-2.6,4.6l-23.2,13.4c-.7.4-1.4.5-1.9.2s-.8-.9-.8-1.7v-25.8c0-1.7,1.2-3.7,2.6-4.6l23.2-13.4c.7-.4,1.4-.5,1.9-.2Z"/>
          <g id="Axo_Extrusion-15" data-name="Axo_Extrusion">
            <g id="Axo_Surface-21" data-name="Axo_Surface">
              <path id="Axo_panel-85" data-name="Axo_panel" class="cls-10" d="M209.7,208.5c0-.8-.3-1.4-.8-1.7l-1.1-.6c.5.3.8.9.8,1.7l1.1.6Z"/>
              <polygon id="Axo_panel-86" data-name="Axo_panel" class="cls-10" points="209.7 234.3 209.7 208.5 208.6 207.9 208.6 233.7 209.7 234.3"/>
              <path id="Axo_panel-87" data-name="Axo_panel" class="cls-10" d="M207,238.9c1.5-.8,2.6-2.9,2.6-4.6l-1.1-.6c0,1.7-1.2,3.7-2.6,4.6l1.1.6Z"/>
              <polygon id="Axo_panel-88" data-name="Axo_panel" class="cls-10" points="183.9 252.3 207 238.9 205.9 238.3 182.8 251.7 183.9 252.3"/>
              <path id="Axo_panel-89" data-name="Axo_panel" class="cls-10" d="M182,252.5c.5.3,1.1.2,1.9-.2l-1.1-.6c-.7.4-1.4.5-1.9.2l1.1.6Z"/>
              <path id="Axo_panel-90" data-name="Axo_panel" class="cls-19" d="M181.2,250.8c0,.8.3,1.4.8,1.7l-1.1-.6c-.5-.3-.8-.9-.8-1.7l1.1.6Z"/>
            </g>
            <g id="Axo_Surface_x2A__x2A_-5" data-name="Axo_Surface_x2A__x2A_">
              <polygon id="Axo_panel-91" data-name="Axo_panel" class="cls-19" points="181.2 224.9 181.2 250.8 180.1 250.1 180.1 224.3 181.2 224.9"/>
              <path id="Axo_panel-92" data-name="Axo_panel" class="cls-19" d="M183.9,220.3c-1.5.8-2.6,2.9-2.6,4.6l-1.1-.6c0-1.7,1.2-3.7,2.6-4.6l1.1.6Z"/>
              <polygon id="Axo_panel-93" data-name="Axo_panel" class="cls-19" points="207 207 183.9 220.3 182.8 219.7 205.9 206.3 207 207"/>
              <path id="Axo_panel-94" data-name="Axo_panel" class="cls-19" d="M208.9,206.8c-.5-.3-1.1-.2-1.9.2l-1.1-.6c.7-.4,1.4-.5,1.9-.2l1.1.6Z"/>
            </g>
          </g>
          <g>
            <g id="Axo_Extrusion-16" data-name="Axo_Extrusion">
              <polygon id="Axo_panel-95" data-name="Axo_panel" class="cls-15" points="205.2 236.5 205.2 221.2 204.7 220.9 204.7 236.2 205.2 236.5"/>
              <g id="Axo_Surface-22" data-name="Axo_Surface">
                <polygon id="Axo_panel-96" data-name="Axo_panel" class="cls-15" points="204.3 221.7 204.3 219.7 203.7 219.4 203.7 221.4 204.3 221.7"/>
                <polygon id="Axo_panel-97" data-name="Axo_panel" class="cls-15" points="205.2 221.2 204.3 221.7 203.7 221.4 204.7 220.9 205.2 221.2"/>
              </g>
              <g id="Axo_Surface-23" data-name="Axo_Surface">
                <polygon id="Axo_panel-98" data-name="Axo_panel" class="cls-15" points="184.9 248.2 205.2 236.5 204.7 236.2 184.4 247.9 184.9 248.2"/>
                <polygon id="Axo_panel-99" data-name="Axo_panel" class="cls-15" points="184.9 232.9 184.9 248.2 184.4 247.9 184.4 232.6 184.9 232.9"/>
              </g>
              <g id="Axo_Surface_x2A__x2A_-6" data-name="Axo_Surface_x2A__x2A_">
                <polygon id="Axo_panel-100" data-name="Axo_panel" class="cls-15" points="185.8 232.4 184.9 232.9 184.4 232.6 185.3 232.1 185.8 232.4"/>
                <polygon id="Axo_panel-101" data-name="Axo_panel" class="cls-15" points="185.8 230.4 185.8 232.4 185.3 232.1 185.3 230.1 185.8 230.4"/>
                <polygon id="Axo_panel-102" data-name="Axo_panel" class="cls-15" points="204.3 219.7 185.8 230.4 185.3 230.1 203.7 219.4 204.3 219.7"/>
              </g>
              <polygon id="Axo_base-16" data-name="Axo_base" class="cls-16" points="204.3 219.7 204.3 221.7 205.2 221.2 205.2 236.5 184.9 248.2 184.9 232.9 185.8 232.4 185.8 230.4 204.3 219.7"/>
            </g>
            <g id="Axo_Extrusion-17" data-name="Axo_Extrusion">
              <g id="Axo_Surface-24" data-name="Axo_Surface">
                <polygon id="Axo_panel-103" data-name="Axo_panel" class="cls-10" points="203.1 221 203.1 219.4 202.5 219.1 202.5 220.7 203.1 221"/>
                <polygon id="Axo_panel-104" data-name="Axo_panel" class="cls-10" points="200.5 222.5 203.1 221 202.5 220.7 200 222.2 200.5 222.5"/>
                <polygon id="Axo_panel-105" data-name="Axo_panel" class="cls-10" points="200.5 220.9 200.5 222.5 200 222.2 200 220.6 200.5 220.9"/>
              </g>
              <polygon id="Axo_panel-106" data-name="Axo_panel" class="cls-10" points="203.1 219.4 200.5 220.9 200 220.6 202.5 219.1 203.1 219.4"/>
              <polygon id="Axo_base-17" data-name="Axo_base" class="cls-1" points="203.1 219.4 203.1 221 200.5 222.5 200.5 220.9 203.1 219.4"/>
            </g>
            <g id="Axo_Extrusion-18" data-name="Axo_Extrusion">
              <g id="Axo_Surface-25" data-name="Axo_Surface">
                <polygon id="Axo_panel-107" data-name="Axo_panel" class="cls-10" points="196.3 224.9 196.3 223.3 195.8 223 195.8 224.6 196.3 224.9"/>
                <polygon id="Axo_panel-108" data-name="Axo_panel" class="cls-10" points="193.8 226.4 196.3 224.9 195.8 224.6 193.3 226.1 193.8 226.4"/>
                <polygon id="Axo_panel-109" data-name="Axo_panel" class="cls-10" points="193.8 224.8 193.8 226.4 193.3 226.1 193.3 224.5 193.8 224.8"/>
              </g>
              <polygon id="Axo_panel-110" data-name="Axo_panel" class="cls-10" points="196.3 223.3 193.8 224.8 193.3 224.5 195.8 223 196.3 223.3"/>
              <polygon id="Axo_base-18" data-name="Axo_base" class="cls-1" points="196.3 223.3 196.3 224.9 193.8 226.4 193.8 224.8 196.3 223.3"/>
            </g>
            <g id="Axo_Extrusion-19" data-name="Axo_Extrusion">
              <g id="Axo_Surface-26" data-name="Axo_Surface">
                <polygon id="Axo_panel-111" data-name="Axo_panel" class="cls-10" points="189.6 228.8 189.6 227.2 189 226.9 189 228.5 189.6 228.8"/>
                <polygon id="Axo_panel-112" data-name="Axo_panel" class="cls-10" points="187.1 230.3 189.6 228.8 189 228.5 186.5 230 187.1 230.3"/>
                <polygon id="Axo_panel-113" data-name="Axo_panel" class="cls-10" points="187.1 228.7 187.1 230.3 186.5 230 186.5 228.4 187.1 228.7"/>
              </g>
              <polygon id="Axo_panel-114" data-name="Axo_panel" class="cls-10" points="189.6 227.2 187.1 228.7 186.5 228.4 189 226.9 189.6 227.2"/>
              <polygon id="Axo_base-19" data-name="Axo_base" class="cls-1" points="189.6 227.2 189.6 228.8 187.1 230.3 187.1 228.7 189.6 227.2"/>
            </g>
            <g>
              <path class="cls-17" d="M182.9,242.2l1-.6c0,0,.2-.2.2-.3v-5.2c0-.1,0-.2-.2-.1l-1,.6c0,0-.2.2-.2.3v5.2c0,.1,0,.2.2.1Z"/>
              <g id="Axo_Extrusion-20" data-name="Axo_Extrusion">
                <g id="Axo_Surface-27" data-name="Axo_Surface">
                  <path id="Axo_panel-115" data-name="Axo_panel" class="cls-23" d="M183.1,241.5l.9.5c.2.1.4.1.6,0l.3-.2c-.1,0-.3,0-.6,0l-.9-.5-.3.2Z"/>
                  <polygon id="Axo_panel-116" data-name="Axo_panel" class="cls-23" points="183.1 240.9 183.1 241.5 183.4 241.3 183.4 240.7 183.1 240.9"/>
                  <path id="Axo_panel-117" data-name="Axo_panel" class="cls-9" d="M184.1,241.4s-.1,0-.2,0l-.9-.5.3-.2.9.5c0,0,.1,0,.2,0l-.3.2Z"/>
                </g>
                <path id="Axo_panel-118" data-name="Axo_panel" class="cls-23" d="M183.1,237.5l.9.5c.1,0,.3.3.3.5v2.8c0,0,0,.1,0,.2l.3-.2s0,0,0-.2v-2.8c0-.2-.1-.4-.3-.5l-.9-.5-.3.2Z"/>
                <g id="Axo_Surface-28" data-name="Axo_Surface">
                  <polygon id="Axo_panel-119" data-name="Axo_panel" class="cls-23" points="183.1 236.9 183.1 237.5 183.4 237.3 183.4 236.7 183.1 236.9"/>
                  <path id="Axo_panel-120" data-name="Axo_panel" class="cls-23" d="M184.5,242.1c.1,0,.2-.3.2-.5v-2.8c0-.5-.4-1.1-.8-1.4l-.9-.5.3-.2.9.5c.4.3.8.9.8,1.4v2.8c0,.3,0,.4-.2.5l-.3.2Z"/>
                </g>
                <path id="Axo_base-20" data-name="Axo_base" class="cls-8" d="M184.5,242.1c-.1,0-.3,0-.6,0l-.9-.5v-.6l.9.5c0,0,.1,0,.2,0s0,0,0-.2v-2.8c0-.2-.1-.4-.3-.5l-.9-.5v-.6l.9.5c.4.3.8.9.8,1.4v2.8c0,.3,0,.4-.2.5Z"/>
              </g>
            </g>
            <g>
              <path class="cls-17" d="M205.7,230.4l1-.6c0,0,.2-.2.2-.3v-5.2c0-.1,0-.2-.2-.1l-1,.6c0,0-.2.2-.2.3v5.2c0,.1,0,.2.2.1Z"/>
              <g id="Axo_Extrusion-21" data-name="Axo_Extrusion">
                <g id="Axo_Surface-29" data-name="Axo_Surface">
                  <path id="Axo_panel-121" data-name="Axo_panel" class="cls-23" d="M205.9,229.6l.9.5c.2.1.4.1.6,0l.3-.2c-.1,0-.3,0-.6,0l-.9-.5-.3.2Z"/>
                  <polygon id="Axo_panel-122" data-name="Axo_panel" class="cls-23" points="205.9 229 205.9 229.6 206.2 229.5 206.2 228.8 205.9 229"/>
                  <path id="Axo_panel-123" data-name="Axo_panel" class="cls-9" d="M206.9,229.5s-.1,0-.2,0l-.9-.5.3-.2.9.5c0,0,.1,0,.2,0l-.3.2Z"/>
                </g>
                <path id="Axo_panel-124" data-name="Axo_panel" class="cls-23" d="M205.9,225.6l.9.5c.1,0,.3.3.3.5v2.8c0,0,0,.1,0,.2l.3-.2s0,0,0-.2v-2.8c0-.2-.1-.4-.3-.5l-.9-.5-.3.2Z"/>
                <g id="Axo_Surface-30" data-name="Axo_Surface">
                  <polygon id="Axo_panel-125" data-name="Axo_panel" class="cls-23" points="205.9 225 205.9 225.6 206.2 225.4 206.2 224.8 205.9 225"/>
                  <path id="Axo_panel-126" data-name="Axo_panel" class="cls-23" d="M207.3,230.2c.1,0,.2-.3.2-.5v-2.8c0-.5-.4-1.1-.8-1.4l-.9-.5.3-.2.9.5c.4.3.8.9.8,1.4v2.8c0,.3,0,.4-.2.5l-.3.2Z"/>
                </g>
                <path id="Axo_base-21" data-name="Axo_base" class="cls-8" d="M207.3,230.2c-.1,0-.3,0-.6,0l-.9-.5v-.6l.9.5c0,0,.1,0,.2,0s0,0,0-.2v-2.8c0-.2-.1-.4-.3-.5l-.9-.5v-.6l.9.5c.4.3.8.9.8,1.4v2.8c0,.3,0,.4-.2.5Z"/>
              </g>
            </g>
          </g>
        </g>
        <g>
          <path id="Axo_base-22" data-name="Axo_base" class="cls-6" d="M244.5,185.3c.5.3.8.9.8,1.7v25.8c0,1.7-1.2,3.7-2.6,4.6l-23.2,13.4c-.7.4-1.4.5-1.9.2s-.8-.9-.8-1.7v-25.8c0-1.7,1.2-3.7,2.6-4.6l23.2-13.4c.7-.4,1.4-.5,1.9-.2Z"/>
          <g id="Axo_Extrusion-22" data-name="Axo_Extrusion">
            <g id="Axo_Surface-31" data-name="Axo_Surface">
              <path id="Axo_panel-127" data-name="Axo_panel" class="cls-10" d="M245.3,187c0-.8-.3-1.4-.8-1.7l-1.1-.6c.5.3.8.9.8,1.7l1.1.6Z"/>
              <polygon id="Axo_panel-128" data-name="Axo_panel" class="cls-10" points="245.3 212.9 245.3 187 244.2 186.4 244.2 212.3 245.3 212.9"/>
              <path id="Axo_panel-129" data-name="Axo_panel" class="cls-10" d="M242.7,217.5c1.5-.8,2.6-2.9,2.6-4.6l-1.1-.6c0,1.7-1.2,3.7-2.6,4.6l1.1.6Z"/>
              <polygon id="Axo_panel-130" data-name="Axo_panel" class="cls-10" points="219.5 230.8 242.7 217.5 241.6 216.8 218.4 230.2 219.5 230.8"/>
              <path id="Axo_panel-131" data-name="Axo_panel" class="cls-10" d="M217.6,231c.5.3,1.1.2,1.9-.2l-1.1-.6c-.7.4-1.4.5-1.9.2l1.1.6Z"/>
              <path id="Axo_panel-132" data-name="Axo_panel" class="cls-19" d="M216.9,229.3c0,.8.3,1.4.8,1.7l-1.1-.6c-.5-.3-.8-.9-.8-1.7l1.1.6Z"/>
            </g>
            <g id="Axo_Surface_x2A__x2A_-7" data-name="Axo_Surface_x2A__x2A_">
              <polygon id="Axo_panel-133" data-name="Axo_panel" class="cls-19" points="216.9 203.5 216.9 229.3 215.8 228.7 215.8 202.8 216.9 203.5"/>
              <path id="Axo_panel-134" data-name="Axo_panel" class="cls-19" d="M219.5,198.9c-1.5.8-2.6,2.9-2.6,4.6l-1.1-.6c0-1.7,1.2-3.7,2.6-4.6l1.1.6Z"/>
              <polygon id="Axo_panel-135" data-name="Axo_panel" class="cls-19" points="242.7 185.5 219.5 198.9 218.4 198.3 241.6 184.9 242.7 185.5"/>
              <path id="Axo_panel-136" data-name="Axo_panel" class="cls-19" d="M244.5,185.3c-.5-.3-1.1-.2-1.9.2l-1.1-.6c.7-.4,1.4-.5,1.9-.2l1.1.6Z"/>
            </g>
          </g>
          <g>
            <g id="Axo_Extrusion-23" data-name="Axo_Extrusion">
              <polygon id="Axo_panel-137" data-name="Axo_panel" class="cls-15" points="240.8 215 240.8 199.7 240.3 199.4 240.3 214.7 240.8 215"/>
              <g id="Axo_Surface-32" data-name="Axo_Surface">
                <polygon id="Axo_panel-138" data-name="Axo_panel" class="cls-15" points="239.9 200.3 239.9 198.3 239.4 198 239.4 200 239.9 200.3"/>
                <polygon id="Axo_panel-139" data-name="Axo_panel" class="cls-15" points="240.8 199.7 239.9 200.3 239.4 200 240.3 199.4 240.8 199.7"/>
              </g>
              <g id="Axo_Surface-33" data-name="Axo_Surface">
                <polygon id="Axo_panel-140" data-name="Axo_panel" class="cls-15" points="220.5 226.7 240.8 215 240.3 214.7 220 226.4 220.5 226.7"/>
                <polygon id="Axo_panel-141" data-name="Axo_panel" class="cls-15" points="220.5 211.5 220.5 226.7 220 226.4 220 211.2 220.5 211.5"/>
              </g>
              <g id="Axo_Surface_x2A__x2A_-8" data-name="Axo_Surface_x2A__x2A_">
                <polygon id="Axo_panel-142" data-name="Axo_panel" class="cls-15" points="221.5 210.9 220.5 211.5 220 211.2 221 210.6 221.5 210.9"/>
                <polygon id="Axo_panel-143" data-name="Axo_panel" class="cls-15" points="221.5 208.9 221.5 210.9 221 210.6 221 208.6 221.5 208.9"/>
                <polygon id="Axo_panel-144" data-name="Axo_panel" class="cls-15" points="239.9 198.3 221.5 208.9 221 208.6 239.4 198 239.9 198.3"/>
              </g>
              <polygon id="Axo_base-23" data-name="Axo_base" class="cls-16" points="239.9 198.3 239.9 200.3 240.8 199.7 240.8 215 220.5 226.7 220.5 211.5 221.5 210.9 221.5 208.9 239.9 198.3"/>
            </g>
            <g id="Axo_Extrusion-24" data-name="Axo_Extrusion">
              <g id="Axo_Surface-34" data-name="Axo_Surface">
                <polygon id="Axo_panel-145" data-name="Axo_panel" class="cls-10" points="238.7 199.6 238.7 198 238.2 197.7 238.2 199.3 238.7 199.6"/>
                <polygon id="Axo_panel-146" data-name="Axo_panel" class="cls-10" points="236.2 201 238.7 199.6 238.2 199.3 235.7 200.7 236.2 201"/>
                <polygon id="Axo_panel-147" data-name="Axo_panel" class="cls-10" points="236.2 199.4 236.2 201 235.7 200.7 235.7 199.1 236.2 199.4"/>
              </g>
              <polygon id="Axo_panel-148" data-name="Axo_panel" class="cls-10" points="238.7 198 236.2 199.4 235.7 199.1 238.2 197.7 238.7 198"/>
              <polygon id="Axo_base-24" data-name="Axo_base" class="cls-1" points="238.7 198 238.7 199.6 236.2 201 236.2 199.4 238.7 198"/>
            </g>
            <g id="Axo_Extrusion-25" data-name="Axo_Extrusion">
              <g id="Axo_Surface-35" data-name="Axo_Surface">
                <polygon id="Axo_panel-149" data-name="Axo_panel" class="cls-10" points="232 203.5 232 201.9 231.4 201.6 231.4 203.2 232 203.5"/>
                <polygon id="Axo_panel-150" data-name="Axo_panel" class="cls-10" points="229.4 204.9 232 203.5 231.4 203.2 228.9 204.6 229.4 204.9"/>
                <polygon id="Axo_panel-151" data-name="Axo_panel" class="cls-10" points="229.4 203.3 229.4 204.9 228.9 204.6 228.9 203 229.4 203.3"/>
              </g>
              <polygon id="Axo_panel-152" data-name="Axo_panel" class="cls-10" points="232 201.9 229.4 203.3 228.9 203 231.4 201.6 232 201.9"/>
              <polygon id="Axo_base-25" data-name="Axo_base" class="cls-1" points="232 201.9 232 203.5 229.4 204.9 229.4 203.3 232 201.9"/>
            </g>
            <g id="Axo_Extrusion-26" data-name="Axo_Extrusion">
              <g id="Axo_Surface-36" data-name="Axo_Surface">
                <polygon id="Axo_panel-153" data-name="Axo_panel" class="cls-10" points="225.2 207.4 225.2 205.8 224.7 205.5 224.7 207.1 225.2 207.4"/>
                <polygon id="Axo_panel-154" data-name="Axo_panel" class="cls-10" points="222.7 208.8 225.2 207.4 224.7 207.1 222.2 208.5 222.7 208.8"/>
                <polygon id="Axo_panel-155" data-name="Axo_panel" class="cls-10" points="222.7 207.2 222.7 208.8 222.2 208.5 222.2 206.9 222.7 207.2"/>
              </g>
              <polygon id="Axo_panel-156" data-name="Axo_panel" class="cls-10" points="225.2 205.8 222.7 207.2 222.2 206.9 224.7 205.5 225.2 205.8"/>
              <polygon id="Axo_base-26" data-name="Axo_base" class="cls-1" points="225.2 205.8 225.2 207.4 222.7 208.8 222.7 207.2 225.2 205.8"/>
            </g>
            <g>
              <path class="cls-17" d="M218.5,220.8l1-.6c0,0,.2-.2.2-.3v-5.2c0-.1,0-.2-.2-.1l-1,.6c0,0-.2.2-.2.3v5.2c0,.1,0,.2.2.1Z"/>
              <g id="Axo_Extrusion-27" data-name="Axo_Extrusion">
                <g id="Axo_Surface-37" data-name="Axo_Surface">
                  <path id="Axo_panel-157" data-name="Axo_panel" class="cls-23" d="M218.7,220.1l.9.5c.2.1.4.1.6,0l.3-.2c-.1,0-.3,0-.6,0l-.9-.5-.3.2Z"/>
                  <polygon id="Axo_panel-158" data-name="Axo_panel" class="cls-23" points="218.7 219.5 218.7 220.1 219.1 219.9 219.1 219.3 218.7 219.5"/>
                  <path id="Axo_panel-159" data-name="Axo_panel" class="cls-9" d="M219.8,220s-.1,0-.2,0l-.9-.5.3-.2.9.5c0,0,.1,0,.2,0l-.3.2Z"/>
                </g>
                <path id="Axo_panel-160" data-name="Axo_panel" class="cls-23" d="M218.7,216l.9.5c.1,0,.3.3.3.5v2.8c0,0,0,.1,0,.2l.3-.2s0,0,0-.2v-2.8c0-.2-.1-.4-.3-.5l-.9-.5-.3.2Z"/>
                <g id="Axo_Surface-38" data-name="Axo_Surface">
                  <polygon id="Axo_panel-161" data-name="Axo_panel" class="cls-23" points="218.7 215.4 218.7 216 219.1 215.8 219.1 215.2 218.7 215.4"/>
                  <path id="Axo_panel-162" data-name="Axo_panel" class="cls-23" d="M220.1,220.6c.1,0,.2-.3.2-.5v-2.8c0-.5-.4-1.1-.8-1.4l-.9-.5.3-.2.9.5c.4.3.8.9.8,1.4v2.8c0,.3,0,.4-.2.5l-.3.2Z"/>
                </g>
                <path id="Axo_base-27" data-name="Axo_base" class="cls-8" d="M220.1,220.6c-.1,0-.3,0-.6,0l-.9-.5v-.6l.9.5c0,0,.1,0,.2,0s0,0,0-.2v-2.8c0-.2-.1-.4-.3-.5l-.9-.5v-.6l.9.5c.4.3.8.9.8,1.4v2.8c0,.3,0,.4-.2.5Z"/>
              </g>
            </g>
            <g>
              <path class="cls-17" d="M241.3,208.9l1-.6c0,0,.2-.2.2-.3v-5.2c0-.1,0-.2-.2-.1l-1,.6c0,0-.2.2-.2.3v5.2c0,.1,0,.2.2.1Z"/>
              <g id="Axo_Extrusion-28" data-name="Axo_Extrusion">
                <g id="Axo_Surface-39" data-name="Axo_Surface">
                  <path id="Axo_panel-163" data-name="Axo_panel" class="cls-23" d="M241.5,208.2l.9.5c.2.1.4.1.6,0l.3-.2c-.1,0-.3,0-.6,0l-.9-.5-.3.2Z"/>
                  <polygon id="Axo_panel-164" data-name="Axo_panel" class="cls-23" points="241.5 207.6 241.5 208.2 241.8 208 241.8 207.4 241.5 207.6"/>
                  <path id="Axo_panel-165" data-name="Axo_panel" class="cls-9" d="M242.5,208.1s-.1,0-.2,0l-.9-.5.3-.2.9.5c0,0,.1,0,.2,0l-.3.2Z"/>
                </g>
                <path id="Axo_panel-166" data-name="Axo_panel" class="cls-23" d="M241.5,204.1l.9.5c.1,0,.3.3.3.5v2.8c0,0,0,.1,0,.2l.3-.2s0,0,0-.2v-2.8c0-.2-.1-.4-.3-.5l-.9-.5-.3.2Z"/>
                <g id="Axo_Surface-40" data-name="Axo_Surface">
                  <polygon id="Axo_panel-167" data-name="Axo_panel" class="cls-23" points="241.5 203.5 241.5 204.1 241.8 204 241.8 203.4 241.5 203.5"/>
                  <path id="Axo_panel-168" data-name="Axo_panel" class="cls-23" d="M242.9,208.7c.1,0,.2-.3.2-.5v-2.8c0-.5-.4-1.1-.8-1.4l-.9-.5.3-.2.9.5c.4.3.8.9.8,1.4v2.8c0,.3,0,.4-.2.5l-.3.2Z"/>
                </g>
                <path id="Axo_base-28" data-name="Axo_base" class="cls-8" d="M242.9,208.7c-.1,0-.3,0-.6,0l-.9-.5v-.6l.9.5c0,0,.1,0,.2,0s0,0,0-.2v-2.8c0-.2-.1-.4-.3-.5l-.9-.5v-.6l.9.5c.4.3.8.9.8,1.4v2.8c0,.3,0,.4-.2.5Z"/>
              </g>
            </g>
          </g>
        </g>
        <g>
          <path id="Axo_base-29" data-name="Axo_base" class="cls-6" d="M208.9,164.7c.5.3.8.9.8,1.7v25.8c0,1.7-1.2,3.7-2.6,4.6l-23.2,13.4c-.7.4-1.4.5-1.9.2s-.8-.9-.8-1.7v-25.8c0-1.7,1.2-3.7,2.6-4.6l23.2-13.4c.7-.4,1.4-.5,1.9-.2Z"/>
          <g id="Axo_Extrusion-29" data-name="Axo_Extrusion">
            <g id="Axo_Surface-41" data-name="Axo_Surface">
              <path id="Axo_panel-169" data-name="Axo_panel" class="cls-10" d="M209.7,166.5c0-.8-.3-1.4-.8-1.7l-1.1-.6c.5.3.8.9.8,1.7l1.1.6Z"/>
              <polygon id="Axo_panel-170" data-name="Axo_panel" class="cls-10" points="209.7 192.3 209.7 166.5 208.6 165.8 208.6 191.7 209.7 192.3"/>
              <path id="Axo_panel-171" data-name="Axo_panel" class="cls-10" d="M207,196.9c1.5-.8,2.6-2.9,2.6-4.6l-1.1-.6c0,1.7-1.2,3.7-2.6,4.6l1.1.6Z"/>
              <polygon id="Axo_panel-172" data-name="Axo_panel" class="cls-10" points="183.9 210.3 207 196.9 205.9 196.3 182.8 209.6 183.9 210.3"/>
              <path id="Axo_panel-173" data-name="Axo_panel" class="cls-10" d="M182,210.4c.5.3,1.1.2,1.9-.2l-1.1-.6c-.7.4-1.4.5-1.9.2l1.1.6Z"/>
              <path id="Axo_panel-174" data-name="Axo_panel" class="cls-19" d="M181.2,208.7c0,.8.3,1.4.8,1.7l-1.1-.6c-.5-.3-.8-.9-.8-1.7l1.1.6Z"/>
            </g>
            <g id="Axo_Surface_x2A__x2A_-9" data-name="Axo_Surface_x2A__x2A_">
              <polygon id="Axo_panel-175" data-name="Axo_panel" class="cls-19" points="181.2 182.9 181.2 208.7 180.1 208.1 180.1 182.3 181.2 182.9"/>
              <path id="Axo_panel-176" data-name="Axo_panel" class="cls-19" d="M183.9,178.3c-1.5.8-2.6,2.9-2.6,4.6l-1.1-.6c0-1.7,1.2-3.7,2.6-4.6l1.1.6Z"/>
              <polygon id="Axo_panel-177" data-name="Axo_panel" class="cls-19" points="207 164.9 183.9 178.3 182.8 177.7 205.9 164.3 207 164.9"/>
              <path id="Axo_panel-178" data-name="Axo_panel" class="cls-19" d="M208.9,164.7c-.5-.3-1.1-.2-1.9.2l-1.1-.6c.7-.4,1.4-.5,1.9-.2l1.1.6Z"/>
            </g>
          </g>
          <g>
            <g id="Axo_Extrusion-30" data-name="Axo_Extrusion">
              <polygon id="Axo_panel-179" data-name="Axo_panel" class="cls-15" points="205.2 194.4 205.2 179.2 204.7 178.9 204.7 194.1 205.2 194.4"/>
              <g id="Axo_Surface-42" data-name="Axo_Surface">
                <polygon id="Axo_panel-180" data-name="Axo_panel" class="cls-15" points="204.3 179.7 204.3 177.7 203.7 177.4 203.7 179.4 204.3 179.7"/>
                <polygon id="Axo_panel-181" data-name="Axo_panel" class="cls-15" points="205.2 179.2 204.3 179.7 203.7 179.4 204.7 178.9 205.2 179.2"/>
              </g>
              <g id="Axo_Surface-43" data-name="Axo_Surface">
                <polygon id="Axo_panel-182" data-name="Axo_panel" class="cls-15" points="184.9 206.2 205.2 194.4 204.7 194.1 184.4 205.9 184.9 206.2"/>
                <polygon id="Axo_panel-183" data-name="Axo_panel" class="cls-15" points="184.9 190.9 184.9 206.2 184.4 205.9 184.4 190.6 184.9 190.9"/>
              </g>
              <g id="Axo_Surface_x2A__x2A_-10" data-name="Axo_Surface_x2A__x2A_">
                <polygon id="Axo_panel-184" data-name="Axo_panel" class="cls-15" points="185.8 190.3 184.9 190.9 184.4 190.6 185.3 190 185.8 190.3"/>
                <polygon id="Axo_panel-185" data-name="Axo_panel" class="cls-15" points="185.8 188.4 185.8 190.3 185.3 190 185.3 188.1 185.8 188.4"/>
                <polygon id="Axo_panel-186" data-name="Axo_panel" class="cls-15" points="204.3 177.7 185.8 188.4 185.3 188.1 203.7 177.4 204.3 177.7"/>
              </g>
              <polygon id="Axo_base-30" data-name="Axo_base" class="cls-16" points="204.3 177.7 204.3 179.7 205.2 179.2 205.2 194.4 184.9 206.2 184.9 190.9 185.8 190.3 185.8 188.4 204.3 177.7"/>
            </g>
            <g id="Axo_Extrusion-31" data-name="Axo_Extrusion">
              <g id="Axo_Surface-44" data-name="Axo_Surface">
                <polygon id="Axo_panel-187" data-name="Axo_panel" class="cls-10" points="203.1 179 203.1 177.4 202.5 177.1 202.5 178.7 203.1 179"/>
                <polygon id="Axo_panel-188" data-name="Axo_panel" class="cls-10" points="200.5 180.5 203.1 179 202.5 178.7 200 180.2 200.5 180.5"/>
                <polygon id="Axo_panel-189" data-name="Axo_panel" class="cls-10" points="200.5 178.8 200.5 180.5 200 180.2 200 178.5 200.5 178.8"/>
              </g>
              <polygon id="Axo_panel-190" data-name="Axo_panel" class="cls-10" points="203.1 177.4 200.5 178.8 200 178.5 202.5 177.1 203.1 177.4"/>
              <polygon id="Axo_base-31" data-name="Axo_base" class="cls-1" points="203.1 177.4 203.1 179 200.5 180.5 200.5 178.8 203.1 177.4"/>
            </g>
            <g id="Axo_Extrusion-32" data-name="Axo_Extrusion">
              <g id="Axo_Surface-45" data-name="Axo_Surface">
                <polygon id="Axo_panel-191" data-name="Axo_panel" class="cls-10" points="196.3 182.9 196.3 181.3 195.8 181 195.8 182.6 196.3 182.9"/>
                <polygon id="Axo_panel-192" data-name="Axo_panel" class="cls-10" points="193.8 184.3 196.3 182.9 195.8 182.6 193.3 184 193.8 184.3"/>
                <polygon id="Axo_panel-193" data-name="Axo_panel" class="cls-10" points="193.8 182.7 193.8 184.3 193.3 184 193.3 182.4 193.8 182.7"/>
              </g>
              <polygon id="Axo_panel-194" data-name="Axo_panel" class="cls-10" points="196.3 181.3 193.8 182.7 193.3 182.4 195.8 181 196.3 181.3"/>
              <polygon id="Axo_base-32" data-name="Axo_base" class="cls-1" points="196.3 181.3 196.3 182.9 193.8 184.3 193.8 182.7 196.3 181.3"/>
            </g>
            <g id="Axo_Extrusion-33" data-name="Axo_Extrusion">
              <g id="Axo_Surface-46" data-name="Axo_Surface">
                <polygon id="Axo_panel-195" data-name="Axo_panel" class="cls-10" points="189.6 186.8 189.6 185.2 189 184.9 189 186.5 189.6 186.8"/>
                <polygon id="Axo_panel-196" data-name="Axo_panel" class="cls-10" points="187.1 188.2 189.6 186.8 189 186.5 186.5 187.9 187.1 188.2"/>
                <polygon id="Axo_panel-197" data-name="Axo_panel" class="cls-10" points="187.1 186.6 187.1 188.2 186.5 187.9 186.5 186.3 187.1 186.6"/>
              </g>
              <polygon id="Axo_panel-198" data-name="Axo_panel" class="cls-10" points="189.6 185.2 187.1 186.6 186.5 186.3 189 184.9 189.6 185.2"/>
              <polygon id="Axo_base-33" data-name="Axo_base" class="cls-1" points="189.6 185.2 189.6 186.8 187.1 188.2 187.1 186.6 189.6 185.2"/>
            </g>
            <g>
              <path class="cls-17" d="M182.9,200.2l1-.6c0,0,.2-.2.2-.3v-5.2c0-.1,0-.2-.2-.1l-1,.6c0,0-.2.2-.2.3v5.2c0,.1,0,.2.2.1Z"/>
              <g id="Axo_Extrusion-34" data-name="Axo_Extrusion">
                <g id="Axo_Surface-47" data-name="Axo_Surface">
                  <path id="Axo_panel-199" data-name="Axo_panel" class="cls-23" d="M183.1,199.5l.9.5c.2.1.4.1.6,0l.3-.2c-.1,0-.3,0-.6,0l-.9-.5-.3.2Z"/>
                  <polygon id="Axo_panel-200" data-name="Axo_panel" class="cls-23" points="183.1 198.9 183.1 199.5 183.4 199.3 183.4 198.7 183.1 198.9"/>
                  <path id="Axo_panel-201" data-name="Axo_panel" class="cls-9" d="M184.1,199.4s-.1,0-.2,0l-.9-.5.3-.2.9.5c0,0,.1,0,.2,0l-.3.2Z"/>
                </g>
                <path id="Axo_panel-202" data-name="Axo_panel" class="cls-23" d="M183.1,195.5l.9.5c.1,0,.3.3.3.5v2.8c0,0,0,.1,0,.2l.3-.2s0,0,0-.2v-2.8c0-.2-.1-.4-.3-.5l-.9-.5-.3.2Z"/>
                <g id="Axo_Surface-48" data-name="Axo_Surface">
                  <polygon id="Axo_panel-203" data-name="Axo_panel" class="cls-23" points="183.1 194.8 183.1 195.5 183.4 195.3 183.4 194.7 183.1 194.8"/>
                  <path id="Axo_panel-204" data-name="Axo_panel" class="cls-23" d="M184.5,200.1c.1,0,.2-.3.2-.5v-2.8c0-.5-.4-1.1-.8-1.4l-.9-.5.3-.2.9.5c.4.3.8.9.8,1.4v2.8c0,.3,0,.4-.2.5l-.3.2Z"/>
                </g>
                <path id="Axo_base-34" data-name="Axo_base" class="cls-8" d="M184.5,200.1c-.1,0-.3,0-.6,0l-.9-.5v-.6l.9.5c0,0,.1,0,.2,0s0,0,0-.2v-2.8c0-.2-.1-.4-.3-.5l-.9-.5v-.6l.9.5c.4.3.8.9.8,1.4v2.8c0,.3,0,.4-.2.5Z"/>
              </g>
            </g>
            <g>
              <path class="cls-17" d="M205.7,188.3l1-.6c0,0,.2-.2.2-.3v-5.2c0-.1,0-.2-.2-.1l-1,.6c0,0-.2.2-.2.3v5.2c0,.1,0,.2.2.1Z"/>
              <g id="Axo_Extrusion-35" data-name="Axo_Extrusion">
                <g id="Axo_Surface-49" data-name="Axo_Surface">
                  <path id="Axo_panel-205" data-name="Axo_panel" class="cls-23" d="M205.9,187.6l.9.5c.2.1.4.1.6,0l.3-.2c-.1,0-.3,0-.6,0l-.9-.5-.3.2Z"/>
                  <polygon id="Axo_panel-206" data-name="Axo_panel" class="cls-23" points="205.9 187 205.9 187.6 206.2 187.4 206.2 186.8 205.9 187"/>
                  <path id="Axo_panel-207" data-name="Axo_panel" class="cls-9" d="M206.9,187.5s-.1,0-.2,0l-.9-.5.3-.2.9.5c0,0,.1,0,.2,0l-.3.2Z"/>
                </g>
                <path id="Axo_panel-208" data-name="Axo_panel" class="cls-23" d="M205.9,183.6l.9.5c.1,0,.3.3.3.5v2.8c0,0,0,.1,0,.2l.3-.2s0,0,0-.2v-2.8c0-.2-.1-.4-.3-.5l-.9-.5-.3.2Z"/>
                <g id="Axo_Surface-50" data-name="Axo_Surface">
                  <polygon id="Axo_panel-209" data-name="Axo_panel" class="cls-23" points="205.9 183 205.9 183.6 206.2 183.4 206.2 182.8 205.9 183"/>
                  <path id="Axo_panel-210" data-name="Axo_panel" class="cls-23" d="M207.3,188.2c.1,0,.2-.3.2-.5v-2.8c0-.5-.4-1.1-.8-1.4l-.9-.5.3-.2.9.5c.4.3.8.9.8,1.4v2.8c0,.3,0,.4-.2.5l-.3.2Z"/>
                </g>
                <path id="Axo_base-35" data-name="Axo_base" class="cls-8" d="M207.3,188.2c-.1,0-.3,0-.6,0l-.9-.5v-.6l.9.5c0,0,.1,0,.2,0s0,0,0-.2v-2.8c0-.2-.1-.4-.3-.5l-.9-.5v-.6l.9.5c.4.3.8.9.8,1.4v2.8c0,.3,0,.4-.2.5Z"/>
              </g>
            </g>
          </g>
        </g>
        <g>
          <path id="Axo_base-36" data-name="Axo_base" class="cls-6" d="M244.5,143.3c.5.3.8.9.8,1.7v25.8c0,1.7-1.2,3.7-2.6,4.6l-23.2,13.4c-.7.4-1.4.5-1.9.2s-.8-.9-.8-1.7v-25.8c0-1.7,1.2-3.7,2.6-4.6l23.2-13.4c.7-.4,1.4-.5,1.9-.2Z"/>
          <g id="Axo_Extrusion-36" data-name="Axo_Extrusion">
            <g id="Axo_Surface-51" data-name="Axo_Surface">
              <path id="Axo_panel-211" data-name="Axo_panel" class="cls-10" d="M245.3,145c0-.8-.3-1.4-.8-1.7l-1.1-.6c.5.3.8.9.8,1.7l1.1.6Z"/>
              <polygon id="Axo_panel-212" data-name="Axo_panel" class="cls-10" points="245.3 170.9 245.3 145 244.2 144.4 244.2 170.2 245.3 170.9"/>
              <path id="Axo_panel-213" data-name="Axo_panel" class="cls-10" d="M242.7,175.4c1.5-.8,2.6-2.9,2.6-4.6l-1.1-.6c0,1.7-1.2,3.7-2.6,4.6l1.1.6Z"/>
              <polygon id="Axo_panel-214" data-name="Axo_panel" class="cls-10" points="219.5 188.8 242.7 175.4 241.6 174.8 218.4 188.2 219.5 188.8"/>
              <path id="Axo_panel-215" data-name="Axo_panel" class="cls-10" d="M217.6,189c.5.3,1.1.2,1.9-.2l-1.1-.6c-.7.4-1.4.5-1.9.2l1.1.6Z"/>
              <path id="Axo_panel-216" data-name="Axo_panel" class="cls-19" d="M216.9,187.3c0,.8.3,1.4.8,1.7l-1.1-.6c-.5-.3-.8-.9-.8-1.7l1.1.6Z"/>
            </g>
            <g id="Axo_Surface_x2A__x2A_-11" data-name="Axo_Surface_x2A__x2A_">
              <polygon id="Axo_panel-217" data-name="Axo_panel" class="cls-19" points="216.9 161.4 216.9 187.3 215.8 186.7 215.8 160.8 216.9 161.4"/>
              <path id="Axo_panel-218" data-name="Axo_panel" class="cls-19" d="M219.5,156.9c-1.5.8-2.6,2.9-2.6,4.6l-1.1-.6c0-1.7,1.2-3.7,2.6-4.6l1.1.6Z"/>
              <polygon id="Axo_panel-219" data-name="Axo_panel" class="cls-19" points="242.7 143.5 219.5 156.9 218.4 156.2 241.6 142.9 242.7 143.5"/>
              <path id="Axo_panel-220" data-name="Axo_panel" class="cls-19" d="M244.5,143.3c-.5-.3-1.1-.2-1.9.2l-1.1-.6c.7-.4,1.4-.5,1.9-.2l1.1.6Z"/>
            </g>
          </g>
          <g>
            <g id="Axo_Extrusion-37" data-name="Axo_Extrusion">
              <polygon id="Axo_panel-221" data-name="Axo_panel" class="cls-15" points="240.8 173 240.8 157.7 240.3 157.4 240.3 172.7 240.8 173"/>
              <g id="Axo_Surface-52" data-name="Axo_Surface">
                <polygon id="Axo_panel-222" data-name="Axo_panel" class="cls-15" points="239.9 158.3 239.9 156.3 239.4 156 239.4 158 239.9 158.3"/>
                <polygon id="Axo_panel-223" data-name="Axo_panel" class="cls-15" points="240.8 157.7 239.9 158.3 239.4 158 240.3 157.4 240.8 157.7"/>
              </g>
              <g id="Axo_Surface-53" data-name="Axo_Surface">
                <polygon id="Axo_panel-224" data-name="Axo_panel" class="cls-15" points="220.5 184.7 240.8 173 240.3 172.7 220 184.4 220.5 184.7"/>
                <polygon id="Axo_panel-225" data-name="Axo_panel" class="cls-15" points="220.5 169.4 220.5 184.7 220 184.4 220 169.1 220.5 169.4"/>
              </g>
              <g id="Axo_Surface_x2A__x2A_-12" data-name="Axo_Surface_x2A__x2A_">
                <polygon id="Axo_panel-226" data-name="Axo_panel" class="cls-15" points="221.5 168.9 220.5 169.4 220 169.1 221 168.6 221.5 168.9"/>
                <polygon id="Axo_panel-227" data-name="Axo_panel" class="cls-15" points="221.5 166.9 221.5 168.9 221 168.6 221 166.6 221.5 166.9"/>
                <polygon id="Axo_panel-228" data-name="Axo_panel" class="cls-15" points="239.9 156.3 221.5 166.9 221 166.6 239.4 156 239.9 156.3"/>
              </g>
              <polygon id="Axo_base-37" data-name="Axo_base" class="cls-16" points="239.9 156.3 239.9 158.3 240.8 157.7 240.8 173 220.5 184.7 220.5 169.4 221.5 168.9 221.5 166.9 239.9 156.3"/>
            </g>
            <g id="Axo_Extrusion-38" data-name="Axo_Extrusion">
              <g id="Axo_Surface-54" data-name="Axo_Surface">
                <polygon id="Axo_panel-229" data-name="Axo_panel" class="cls-10" points="238.7 157.6 238.7 156 238.2 155.6 238.2 157.3 238.7 157.6"/>
                <polygon id="Axo_panel-230" data-name="Axo_panel" class="cls-10" points="236.2 159 238.7 157.6 238.2 157.3 235.7 158.7 236.2 159"/>
                <polygon id="Axo_panel-231" data-name="Axo_panel" class="cls-10" points="236.2 157.4 236.2 159 235.7 158.7 235.7 157.1 236.2 157.4"/>
              </g>
              <polygon id="Axo_panel-232" data-name="Axo_panel" class="cls-10" points="238.7 156 236.2 157.4 235.7 157.1 238.2 155.6 238.7 156"/>
              <polygon id="Axo_base-38" data-name="Axo_base" class="cls-1" points="238.7 156 238.7 157.6 236.2 159 236.2 157.4 238.7 156"/>
            </g>
            <g id="Axo_Extrusion-39" data-name="Axo_Extrusion">
              <g id="Axo_Surface-55" data-name="Axo_Surface">
                <polygon id="Axo_panel-233" data-name="Axo_panel" class="cls-10" points="232 161.4 232 159.8 231.4 159.5 231.4 161.1 232 161.4"/>
                <polygon id="Axo_panel-234" data-name="Axo_panel" class="cls-10" points="229.4 162.9 232 161.4 231.4 161.1 228.9 162.6 229.4 162.9"/>
                <polygon id="Axo_panel-235" data-name="Axo_panel" class="cls-10" points="229.4 161.3 229.4 162.9 228.9 162.6 228.9 161 229.4 161.3"/>
              </g>
              <polygon id="Axo_panel-236" data-name="Axo_panel" class="cls-10" points="232 159.8 229.4 161.3 228.9 161 231.4 159.5 232 159.8"/>
              <polygon id="Axo_base-39" data-name="Axo_base" class="cls-1" points="232 159.8 232 161.4 229.4 162.9 229.4 161.3 232 159.8"/>
            </g>
            <g id="Axo_Extrusion-40" data-name="Axo_Extrusion">
              <g id="Axo_Surface-56" data-name="Axo_Surface">
                <polygon id="Axo_panel-237" data-name="Axo_panel" class="cls-10" points="225.2 165.3 225.2 163.7 224.7 163.4 224.7 165 225.2 165.3"/>
                <polygon id="Axo_panel-238" data-name="Axo_panel" class="cls-10" points="222.7 166.8 225.2 165.3 224.7 165 222.2 166.5 222.7 166.8"/>
                <polygon id="Axo_panel-239" data-name="Axo_panel" class="cls-10" points="222.7 165.2 222.7 166.8 222.2 166.5 222.2 164.9 222.7 165.2"/>
              </g>
              <polygon id="Axo_panel-240" data-name="Axo_panel" class="cls-10" points="225.2 163.7 222.7 165.2 222.2 164.9 224.7 163.4 225.2 163.7"/>
              <polygon id="Axo_base-40" data-name="Axo_base" class="cls-1" points="225.2 163.7 225.2 165.3 222.7 166.8 222.7 165.2 225.2 163.7"/>
            </g>
            <g>
              <path class="cls-17" d="M218.5,178.8l1-.6c0,0,.2-.2.2-.3v-5.2c0-.1,0-.2-.2-.1l-1,.6c0,0-.2.2-.2.3v5.2c0,.1,0,.2.2.1Z"/>
              <g id="Axo_Extrusion-41" data-name="Axo_Extrusion">
                <g id="Axo_Surface-57" data-name="Axo_Surface">
                  <path id="Axo_panel-241" data-name="Axo_panel" class="cls-23" d="M218.7,178.1l.9.5c.2.1.4.1.6,0l.3-.2c-.1,0-.3,0-.6,0l-.9-.5-.3.2Z"/>
                  <polygon id="Axo_panel-242" data-name="Axo_panel" class="cls-23" points="218.7 177.5 218.7 178.1 219.1 177.9 219.1 177.3 218.7 177.5"/>
                  <path id="Axo_panel-243" data-name="Axo_panel" class="cls-9" d="M219.8,178s-.1,0-.2,0l-.9-.5.3-.2.9.5c0,0,.1,0,.2,0l-.3.2Z"/>
                </g>
                <path id="Axo_panel-244" data-name="Axo_panel" class="cls-23" d="M218.7,174l.9.5c.1,0,.3.3.3.5v2.8c0,0,0,.1,0,.2l.3-.2s0,0,0-.2v-2.8c0-.2-.1-.4-.3-.5l-.9-.5-.3.2Z"/>
                <g id="Axo_Surface-58" data-name="Axo_Surface">
                  <polygon id="Axo_panel-245" data-name="Axo_panel" class="cls-23" points="218.7 173.4 218.7 174 219.1 173.8 219.1 173.2 218.7 173.4"/>
                  <path id="Axo_panel-246" data-name="Axo_panel" class="cls-23" d="M220.1,178.6c.1,0,.2-.3.2-.5v-2.8c0-.5-.4-1.1-.8-1.4l-.9-.5.3-.2.9.5c.4.3.8.9.8,1.4v2.8c0,.3,0,.4-.2.5l-.3.2Z"/>
                </g>
                <path id="Axo_base-41" data-name="Axo_base" class="cls-8" d="M220.1,178.6c-.1,0-.3,0-.6,0l-.9-.5v-.6l.9.5c0,0,.1,0,.2,0s0,0,0-.2v-2.8c0-.2-.1-.4-.3-.5l-.9-.5v-.6l.9.5c.4.3.8.9.8,1.4v2.8c0,.3,0,.4-.2.5Z"/>
              </g>
            </g>
            <g>
              <path class="cls-17" d="M241.3,166.9l1-.6c0,0,.2-.2.2-.3v-5.2c0-.1,0-.2-.2-.1l-1,.6c0,0-.2.2-.2.3v5.2c0,.1,0,.2.2.1Z"/>
              <g id="Axo_Extrusion-42" data-name="Axo_Extrusion">
                <g id="Axo_Surface-59" data-name="Axo_Surface">
                  <path id="Axo_panel-247" data-name="Axo_panel" class="cls-23" d="M241.5,166.2l.9.5c.2.1.4.1.6,0l.3-.2c-.1,0-.3,0-.6,0l-.9-.5-.3.2Z"/>
                  <polygon id="Axo_panel-248" data-name="Axo_panel" class="cls-23" points="241.5 165.6 241.5 166.2 241.8 166 241.8 165.4 241.5 165.6"/>
                  <path id="Axo_panel-249" data-name="Axo_panel" class="cls-9" d="M242.5,166.1s-.1,0-.2,0l-.9-.5.3-.2.9.5c0,0,.1,0,.2,0l-.3.2Z"/>
                </g>
                <path id="Axo_panel-250" data-name="Axo_panel" class="cls-23" d="M241.5,162.1l.9.5c.1,0,.3.3.3.5v2.8c0,0,0,.1,0,.2l.3-.2s0,0,0-.2v-2.8c0-.2-.1-.4-.3-.5l-.9-.5-.3.2Z"/>
                <g id="Axo_Surface-60" data-name="Axo_Surface">
                  <polygon id="Axo_panel-251" data-name="Axo_panel" class="cls-23" points="241.5 161.5 241.5 162.1 241.8 161.9 241.8 161.3 241.5 161.5"/>
                  <path id="Axo_panel-252" data-name="Axo_panel" class="cls-23" d="M242.9,166.7c.1,0,.2-.3.2-.5v-2.8c0-.5-.4-1.1-.8-1.4l-.9-.5.3-.2.9.5c.4.3.8.9.8,1.4v2.8c0,.3,0,.4-.2.5l-.3.2Z"/>
                </g>
                <path id="Axo_base-42" data-name="Axo_base" class="cls-8" d="M242.9,166.7c-.1,0-.3,0-.6,0l-.9-.5v-.6l.9.5c0,0,.1,0,.2,0s0,0,0-.2v-2.8c0-.2-.1-.4-.3-.5l-.9-.5v-.6l.9.5c.4.3.8.9.8,1.4v2.8c0,.3,0,.4-.2.5Z"/>
              </g>
            </g>
          </g>
        </g>
        <g>
          <polygon class="cls-4" points="85.1 264.6 41.8 241.4 41.8 85.5 85.1 112.6 85.1 264.6"/>
          <g>
            <polygon class="cls-4" points="5.1 245.8 42.5 269.2 81.8 258.1 44.3 234.8 5.1 245.8"/>
            <polygon class="cls-11" points="81.8 258.1 42.5 269.2 81.8 209.4 81.8 258.1"/>
            <polygon class="cls-4" points="44.3 234.8 5.1 245.8 44.3 186 44.3 234.8"/>
            <polygon class="cls-21" points="42.5 269.2 5.1 245.8 44.3 186 81.8 209.4 42.5 269.2"/>
          </g>
          <g>
            <polygon class="cls-11" points="81.8 212.3 42.5 223.4 81.8 163.6 81.8 212.3"/>
            <polygon class="cls-4" points="44.3 189 5.1 200 44.3 140.2 44.3 189"/>
            <polygon class="cls-2" points="42.5 223.4 5.1 200 44.3 140.2 81.8 163.6 42.5 223.4"/>
          </g>
          <g>
            <polygon class="cls-11" points="81.8 162.8 42.5 173.9 81.8 114.1 81.8 162.8"/>
            <polygon class="cls-4" points="44.3 139.5 5.1 150.5 44.3 90.7 44.3 139.5"/>
            <polygon class="cls-23" points="42.5 173.9 5.1 150.5 44.3 90.7 81.8 114.1 42.5 173.9"/>
          </g>
        </g>
        <g id="Axo_Extrusion-43" data-name="Axo_Extrusion">
          <g id="Axo_Extrusion-44" data-name="Axo_Extrusion">
            <g id="Axo_Surface-61" data-name="Axo_Surface">
              <polygon id="Axo_panel-253" data-name="Axo_panel" class="cls-13" points="173.8 319.7 171.4 321.1 171.4 321.7 173.8 320.3 173.8 319.7"/>
              <polygon id="Axo_panel-254" data-name="Axo_panel" class="cls-13" points="215.2 343.4 173.8 319.7 173.8 320.3 215.2 344 215.2 343.4"/>
              <polygon id="Axo_panel-255" data-name="Axo_panel" class="cls-14" points="212.8 344.8 215.2 343.4 215.2 344 212.8 345.4 212.8 344.8"/>
            </g>
            <polygon id="Axo_panel-256" data-name="Axo_panel" class="cls-14" points="171.4 321.1 212.8 344.8 212.8 345.4 171.4 321.7 171.4 321.1"/>
            <polygon id="Axo_base-43" data-name="Axo_base" class="cls-10" points="171.4 321.1 173.8 319.7 215.2 343.4 212.8 344.8 171.4 321.1"/>
          </g>
          <g id="Axo_Surface-62" data-name="Axo_Surface">
            <polygon id="Axo_panel-257" data-name="Axo_panel" class="cls-13" points="170.3 322.1 211.7 346 212.8 345.4 171.4 321.5 170.3 322.1"/>
            <polygon id="Axo_panel-258" data-name="Axo_panel" class="cls-13" points="170.3 202.4 170.3 322.1 171.4 321.5 171.4 201.8 170.3 202.4"/>
            <polygon id="Axo_panel-259" data-name="Axo_panel" class="cls-10" points="211.7 346 170.3 202.4 171.4 201.8 212.8 345.4 211.7 346"/>
          </g>
          <polygon id="Axo_base-44" data-name="Axo_base" class="cls-14" points="211.7 346 170.3 322.1 170.3 202.4 211.7 346"/>
        </g>
        <g id="Axo_Extrusion-45" data-name="Axo_Extrusion">
          <g id="Axo_Surface-63" data-name="Axo_Surface">
            <polygon id="Axo_panel-260" data-name="Axo_panel" class="cls-13" points="253.7 273.8 295.1 297.7 296.1 297.1 254.7 273.2 253.7 273.8"/>
            <polygon id="Axo_panel-261" data-name="Axo_panel" class="cls-13" points="253.7 154.1 253.7 273.8 254.7 273.2 254.7 153.5 253.7 154.1"/>
            <polygon id="Axo_panel-262" data-name="Axo_panel" class="cls-10" points="295.1 297.7 253.7 154.1 254.7 153.5 296.1 297.1 295.1 297.7"/>
          </g>
          <polygon id="Axo_base-45" data-name="Axo_base" class="cls-14" points="295.1 297.7 253.7 273.8 253.7 154.1 295.1 297.7"/>
          <g id="Axo_Extrusion-46" data-name="Axo_Extrusion">
            <g id="Axo_Surface-64" data-name="Axo_Surface">
              <polygon id="Axo_panel-263" data-name="Axo_panel" class="cls-13" points="253.7 273.4 251.2 274.8 251.2 275.4 253.7 274 253.7 273.4"/>
              <polygon id="Axo_panel-264" data-name="Axo_panel" class="cls-13" points="295.1 297.1 253.7 273.4 253.7 274 295.1 297.7 295.1 297.1"/>
              <polygon id="Axo_panel-265" data-name="Axo_panel" class="cls-14" points="292.6 298.5 295.1 297.1 295.1 297.7 292.6 299.1 292.6 298.5"/>
            </g>
            <polygon id="Axo_panel-266" data-name="Axo_panel" class="cls-14" points="251.2 274.8 292.6 298.5 292.6 299.1 251.2 275.4 251.2 274.8"/>
            <polygon id="Axo_base-46" data-name="Axo_base" class="cls-10" points="251.2 274.8 253.7 273.4 295.1 297.1 292.6 298.5 251.2 274.8"/>
          </g>
        </g>
      </g>
      <g>
        <path class="cls-22" d="M368.5,68.6v-1.8l4.1-3.8c.4-.3.6-.6.9-.9.2-.3.4-.5.5-.8.1-.3.2-.5.2-.9s0-.6-.2-.9-.4-.4-.6-.6c-.3-.1-.6-.2-.9-.2s-.7,0-.9.2c-.3.1-.5.4-.6.6-.1.3-.2.6-.2,1h-2.3c0-.8.2-1.4.5-2s.8-1,1.4-1.3c.6-.3,1.3-.5,2.1-.5s1.6.1,2.2.4,1.1.7,1.4,1.2.5,1.1.5,1.8,0,.9-.3,1.3c-.2.4-.5.9-.9,1.4-.4.5-1.1,1.1-1.9,1.9l-1.7,1.7h0c0,0,4.9,0,4.9,0v2h-8.3Z"/>
        <path class="cls-22" d="M378.4,68.6l4.8-9.5h0c0,0-5.6,0-5.6,0v-2h8.2v2l-4.8,9.6h-2.5Z"/>
        <path class="cls-22" d="M388.9,59.9l1.6,3.1,1.6-3.1h2.5l-2.5,4.4,2.6,4.4h-2.5l-1.7-3-1.7,3h-2.5l2.6-4.4-2.5-4.4h2.5Z"/>
        <path class="cls-22" d="M404.8,60.3c0-.5-.2-.8-.6-1.1s-.8-.4-1.4-.4-.7,0-1,.2c-.3.1-.5.3-.6.5s-.2.4-.2.7c0,.2,0,.4.1.5s.2.3.4.4c.2.1.4.2.6.3s.5.2.7.2l1,.2c.5.1,1,.3,1.4.5s.8.4,1.1.7.6.6.7,1c.2.4.3.8.3,1.3,0,.7-.2,1.3-.5,1.8-.4.5-.9.9-1.5,1.2-.7.3-1.5.4-2.4.4s-1.8-.1-2.5-.4c-.7-.3-1.2-.7-1.6-1.3s-.6-1.3-.6-2.1h2.4c0,.4.1.7.3,1,.2.3.5.5.8.6s.7.2,1.1.2.8,0,1.1-.2.5-.3.7-.5c.2-.2.3-.5.3-.7s0-.5-.2-.7c-.2-.2-.4-.3-.7-.5-.3-.1-.7-.2-1.1-.3l-1.3-.3c-1-.2-1.8-.6-2.3-1.1-.6-.5-.9-1.2-.8-2.1,0-.7.2-1.3.6-1.8.4-.5.9-.9,1.6-1.2.7-.3,1.4-.4,2.3-.4s1.6.1,2.3.4c.6.3,1.1.7,1.5,1.2.4.5.5,1.1.6,1.8h-2.4Z"/>
        <path class="cls-22" d="M413.3,57v11.6h-2.5v-9.3h0l-2.7,1.7v-2.2l2.9-1.8h2.3Z"/>
        <path class="cls-22" d="M419.7,56.8c.6,0,1.2.1,1.7.3.6.2,1.1.5,1.5,1s.8,1,1,1.7c.3.7.4,1.6.4,2.7,0,1-.1,1.9-.3,2.6-.2.8-.5,1.4-1,2-.4.5-.9,1-1.5,1.2-.6.3-1.2.4-2,.4s-1.5-.2-2.1-.5c-.6-.3-1.1-.7-1.4-1.2-.4-.5-.6-1.1-.7-1.8h2.4c0,.4.3.8.6,1,.3.2.7.3,1.1.3.8,0,1.3-.3,1.7-1,.4-.7.6-1.6.6-2.7h0c-.2.3-.4.6-.7.9-.3.2-.6.4-1,.6-.4.1-.8.2-1.2.2-.7,0-1.3-.2-1.8-.5-.5-.3-1-.8-1.3-1.3s-.5-1.2-.5-1.9c0-.8.2-1.5.5-2.1s.9-1.1,1.5-1.4,1.4-.5,2.3-.5ZM419.7,58.7c-.4,0-.7,0-1,.3-.3.2-.5.4-.7.7-.2.3-.3.6-.3,1,0,.4,0,.7.3,1,.2.3.4.5.7.7.3.2.6.3,1,.3s.5,0,.8-.2c.2-.1.5-.3.6-.4.2-.2.3-.4.4-.7.1-.2.2-.5.2-.8,0-.4,0-.7-.3-1-.2-.3-.4-.6-.7-.7-.3-.2-.6-.3-1-.3Z"/>
        <path class="cls-22" d="M428.5,57h3l3.2,7.8h.1l3.2-7.8h3v11.6h-2.4v-7.6h0l-3,7.5h-1.6l-3-7.5h0v7.6h-2.4v-11.6Z"/>
        <path class="cls-22" d="M443.7,58.8c-.4,0-.7-.1-.9-.4-.3-.2-.4-.5-.4-.9s.1-.6.4-.9c.3-.2.6-.4.9-.4s.7.1.9.4c.3.2.4.5.4.9s-.1.6-.4.9c-.3.2-.6.4-.9.4ZM442.5,68.6v-8.7h2.4v8.7h-2.4Z"/>
        <path class="cls-22" d="M448.6,63.6v5h-2.4v-8.7h2.3v1.5h.1c.2-.5.5-.9,1-1.2.5-.3,1-.4,1.7-.4s1.1.1,1.6.4c.5.3.8.6,1.1,1.1s.4,1.1.4,1.8v5.6h-2.4v-5.1c0-.5-.1-1-.4-1.3s-.7-.5-1.1-.5-.6,0-.9.2-.4.3-.6.6c-.1.3-.2.6-.2,1Z"/>
        <path class="cls-22" d="M459.5,68.8c-.9,0-1.7-.2-2.3-.5-.6-.4-1.1-.9-1.5-1.6-.3-.7-.5-1.5-.5-2.4s.2-1.7.5-2.4c.3-.7.8-1.2,1.5-1.6.6-.4,1.4-.6,2.2-.6s1.1,0,1.6.3c.5.2.9.5,1.3.8.4.4.7.8.9,1.4.2.6.3,1.2.3,1.9v.7h-7.4v-1.5h5.1c0-.3,0-.7-.2-.9s-.4-.5-.6-.6c-.3-.2-.6-.2-.9-.2s-.7,0-1,.3-.5.4-.7.7-.2.6-.2.9v1.4c0,.4,0,.8.2,1.1s.4.6.7.7c.3.2.6.3,1.1.3s.5,0,.7-.1.4-.2.6-.3c.2-.2.3-.3.4-.6h2.2c-.1.7-.3,1.2-.7,1.6-.4.4-.8.7-1.4.9-.6.2-1.2.3-1.9.3Z"/>
        <path class="cls-22" d="M464.4,68.6v-8.7h2.3v1.5h0c.2-.5.4-1,.8-1.2s.8-.4,1.3-.4.3,0,.4,0c.1,0,.3,0,.4,0v2.1c-.1,0-.3,0-.5,0-.2,0-.4,0-.6,0-.4,0-.7,0-1,.2s-.5.4-.7.6c-.2.3-.2.6-.2.9v4.9h-2.4Z"/>
        <path class="cls-22" d="M477.6,62.4h-2.2c0,0-.1-.2-.2-.4-.1-.2-.3-.3-.5-.4-.2,0-.4-.1-.7-.1s-.7,0-.9.2c-.3.2-.4.4-.4.6s0,.4.2.5.5.3.9.3l1.6.3c.8.2,1.5.5,1.9.8.4.4.6.9.6,1.5s-.2,1.1-.5,1.5c-.3.4-.8.8-1.4,1-.6.2-1.3.4-2,.4-1.2,0-2.1-.2-2.8-.7-.7-.5-1.1-1.1-1.2-2h2.4c0,.2.2.5.5.7.3.2.6.3,1.1.3s.8,0,1-.2c.3-.2.4-.4.4-.6,0-.2,0-.4-.3-.5s-.5-.3-.8-.3l-1.5-.3c-.9-.2-1.5-.5-1.9-.9s-.6-1-.6-1.6.2-1,.5-1.4c.3-.4.7-.7,1.3-.9s1.2-.3,2-.3c1.1,0,2,.2,2.6.7.6.5,1,1.1,1.1,1.9Z"/>
      </g>
      <g>
        <path class="cls-22" d="M372.8,86.7c-.8,0-1.6-.1-2.3-.4-.7-.3-1.2-.7-1.6-1.2-.4-.5-.6-1.1-.6-1.8h2.5c0,.3.1.5.3.7.2.2.4.4.7.5s.6.2,1,.2.7,0,1-.2c.3-.1.5-.3.7-.6.2-.2.2-.5.2-.8s0-.6-.3-.8c-.2-.2-.4-.4-.7-.6-.3-.1-.7-.2-1.1-.2h-1.1v-1.8h1.1c.4,0,.7,0,1-.2.3-.1.5-.3.7-.5.2-.2.2-.5.2-.8s0-.5-.2-.8c-.1-.2-.3-.4-.6-.5s-.5-.2-.9-.2-.6,0-.9.2c-.3.1-.5.3-.7.5s-.3.5-.3.8h-2.4c0-.7.2-1.3.6-1.8.4-.5.9-.9,1.5-1.2.6-.3,1.3-.4,2.1-.4s1.5.1,2.1.4c.6.3,1.1.7,1.4,1.2.3.5.5,1,.5,1.7,0,.7-.2,1.2-.6,1.6s-.9.7-1.6.8h0c.9.2,1.5.5,2,1,.4.5.7,1.1.7,1.8,0,.7-.2,1.3-.6,1.8s-.9.9-1.6,1.2-1.4.4-2.3.4Z"/>
        <path class="cls-22" d="M382.7,86.7c-.8,0-1.5-.1-2.1-.4s-1.1-.7-1.5-1.2c-.4-.5-.6-1.1-.6-1.8h2.4c0,.5.2.8.6,1.1.4.3.8.4,1.3.4s.7,0,1-.3c.3-.2.5-.4.7-.7.2-.3.3-.7.3-1.1s0-.8-.3-1.1c-.2-.3-.4-.6-.7-.7-.3-.2-.7-.3-1-.3-.3,0-.7,0-1,.2-.3.1-.6.3-.7.6l-2.2-.4.6-6.1h7.1v2h-5.1l-.3,2.9h0c.2-.3.5-.5.9-.7s.9-.3,1.4-.3,1.3.2,1.9.5c.5.3,1,.8,1.3,1.4s.5,1.2.5,2c0,.8-.2,1.5-.5,2.1s-.9,1.1-1.5,1.4-1.4.5-2.3.5Z"/>
        <path class="cls-22" d="M390.1,77.8l1.6,3.1,1.6-3.1h2.5l-2.5,4.4,2.6,4.4h-2.5l-1.7-3-1.7,3h-2.5l2.6-4.4-2.5-4.4h2.5Z"/>
        <path class="cls-22" d="M402.4,86.5l-3.3-11.6h2.7l1.9,8.1h0l2.1-8.1h2.3l2.1,8.1h.1l1.9-8.1h2.7l-3.3,11.6h-2.4l-2.2-7.6h0l-2.2,7.6h-2.4Z"/>
        <path class="cls-22" d="M418.1,81.5v5h-2.4v-11.6h2.4v4.4h.1c.2-.5.5-.9,1-1.2s1-.4,1.7-.4,1.1.1,1.6.4c.5.3.8.6,1.1,1.1.3.5.4,1.1.4,1.8v5.6h-2.4v-5.1c0-.5-.1-1-.4-1.3-.3-.3-.7-.4-1.2-.4s-.6,0-.9.2-.4.3-.6.6c-.1.3-.2.6-.2,1Z"/>
        <path class="cls-22" d="M427.5,86.7c-.6,0-1.1,0-1.5-.3-.4-.2-.8-.5-1-.9s-.4-.9-.4-1.4,0-.9.3-1.2c.2-.3.4-.6.7-.8.3-.2.7-.4,1-.5.4-.1.8-.2,1.2-.2.5,0,.9-.1,1.2-.2s.5-.1.7-.2c.1,0,.2-.2.2-.4h0c0-.4-.1-.7-.3-.9-.2-.2-.5-.3-1-.3s-.8,0-1,.3c-.3.2-.4.4-.5.7l-2.2-.2c.1-.5.3-1,.7-1.4s.8-.7,1.3-.9c.5-.2,1.1-.3,1.8-.3s.9,0,1.4.2.8.3,1.2.5.6.5.8.9c.2.4.3.8.3,1.3v5.9h-2.3v-1.2h0c-.1.3-.3.5-.6.7-.2.2-.5.4-.8.5-.3.1-.7.2-1.1.2ZM428.2,85c.4,0,.7,0,.9-.2s.5-.3.6-.6c.2-.2.2-.5.2-.8v-.9c0,0-.2,0-.3.1-.1,0-.3,0-.4.1-.2,0-.3,0-.5,0-.2,0-.3,0-.4,0-.3,0-.5.1-.7.2-.2,0-.4.2-.5.4-.1.2-.2.3-.2.6,0,.3.1.6.4.8.2.2.5.3.9.3Z"/>
        <path class="cls-22" d="M438.3,77.8v1.8h-5.3v-1.8h5.3ZM434.2,75.7h2.4v8.1c0,.2,0,.4.1.5,0,.1.2.2.3.3s.3,0,.4,0,.2,0,.3,0c.1,0,.2,0,.3,0l.4,1.8c-.1,0-.3,0-.5.1-.2,0-.5,0-.8,0-.6,0-1.1,0-1.5-.2-.4-.2-.8-.5-1-.8s-.4-.8-.4-1.4v-8.5Z"/>
        <path class="cls-22" d="M446.5,80.3h-2.2c0,0-.1-.2-.2-.4-.1-.2-.3-.3-.5-.4-.2,0-.4-.1-.7-.1s-.7,0-.9.2c-.3.2-.4.4-.4.6s0,.4.2.5.5.3.9.3l1.6.3c.8.2,1.5.5,1.9.8.4.4.6.9.6,1.5s-.2,1.1-.5,1.5c-.3.4-.8.8-1.4,1-.6.2-1.3.4-2,.4-1.2,0-2.1-.2-2.8-.7-.7-.5-1.1-1.1-1.2-2h2.4c0,.2.2.5.5.7.3.2.6.3,1.1.3s.8,0,1-.2c.3-.2.4-.4.4-.6,0-.2,0-.4-.3-.5s-.5-.3-.8-.3l-1.5-.3c-.9-.2-1.5-.5-1.9-.9s-.6-1-.6-1.6.2-1,.5-1.4c.3-.4.7-.7,1.3-.9s1.2-.3,2-.3c1.1,0,2,.2,2.6.7.6.5,1,1.1,1.1,1.9Z"/>
        <path class="cls-22" d="M447.6,86.5v-8.7h2.3v1.5h.1c.2-.5.5-.9.9-1.2.4-.3.9-.4,1.5-.4s1.1.1,1.5.4c.4.3.7.7.8,1.2h0c.2-.5.5-.9,1-1.2s1-.5,1.7-.5,1.5.3,2,.8c.5.5.8,1.2.8,2.2v5.9h-2.4v-5.4c0-.5-.1-.8-.4-1.1s-.6-.4-1-.4-.8.1-1,.4c-.2.3-.4.6-.4,1.1v5.3h-2.3v-5.4c0-.4-.1-.8-.4-1-.2-.3-.6-.4-1-.4s-.5,0-.7.2c-.2.1-.4.3-.5.6-.1.2-.2.5-.2.8v5.2h-2.4Z"/>
        <path class="cls-22" d="M462.7,76.7c-.4,0-.7-.1-.9-.4-.3-.2-.4-.5-.4-.9s.1-.6.4-.9c.3-.2.6-.4.9-.4s.7.1.9.4c.3.2.4.5.4.9s-.1.6-.4.9c-.3.2-.6.4-.9.4ZM461.5,86.5v-8.7h2.4v8.7h-2.4Z"/>
        <path class="cls-22" d="M467.7,81.5v5h-2.4v-8.7h2.3v1.5h.1c.2-.5.5-.9,1-1.2.5-.3,1-.4,1.7-.4s1.1.1,1.6.4c.5.3.8.6,1.1,1.1s.4,1.1.4,1.8v5.6h-2.4v-5.1c0-.5-.1-1-.4-1.3s-.7-.5-1.1-.5-.6,0-.9.2-.4.3-.6.6c-.1.3-.2.6-.2,1Z"/>
        <path class="cls-22" d="M478.5,86.7c-.9,0-1.7-.2-2.3-.5-.6-.4-1.1-.9-1.5-1.6-.3-.7-.5-1.5-.5-2.4s.2-1.7.5-2.4c.3-.7.8-1.2,1.5-1.6.6-.4,1.4-.6,2.2-.6s1.1,0,1.6.3c.5.2.9.5,1.3.8.4.4.7.8.9,1.4.2.6.3,1.2.3,1.9v.7h-7.4v-1.5h5.1c0-.3,0-.7-.2-.9s-.4-.5-.6-.6c-.3-.2-.6-.2-.9-.2s-.7,0-1,.3-.5.4-.7.7-.2.6-.2.9v1.4c0,.4,0,.8.2,1.1s.4.6.7.7c.3.2.6.3,1.1.3s.5,0,.7-.1.4-.2.6-.3c.2-.2.3-.3.4-.6h2.2c-.1.7-.3,1.2-.7,1.6-.4.4-.8.7-1.4.9-.6.2-1.2.3-1.9.3Z"/>
        <path class="cls-22" d="M483.5,86.5v-8.7h2.3v1.5h0c.2-.5.4-1,.8-1.2s.8-.4,1.3-.4.3,0,.4,0c.1,0,.3,0,.4,0v2.1c-.1,0-.3,0-.5,0-.2,0-.4,0-.6,0-.4,0-.7,0-1,.2s-.5.4-.7.6c-.2.3-.2.6-.2.9v4.9h-2.4Z"/>
      </g>
      <g>
        <path class="cls-22" d="M368.6,259.4v-11.6h2.5v9.6h5v2h-7.4Z"/>
        <path class="cls-22" d="M382.1,250.7l1.6,3.1,1.6-3.1h2.5l-2.5,4.4,2.6,4.4h-2.5l-1.7-3-1.7,3h-2.5l2.6-4.4-2.5-4.4h2.5Z"/>
        <path class="cls-22" d="M395.8,247.6c.6,0,1.2.1,1.7.3.6.2,1.1.5,1.5,1s.8,1,1,1.7.4,1.6.4,2.7c0,1-.1,1.9-.3,2.6s-.5,1.4-1,2c-.4.5-.9,1-1.5,1.2-.6.3-1.2.4-2,.4s-1.5-.2-2.1-.5-1.1-.7-1.4-1.2c-.4-.5-.6-1.1-.7-1.8h2.4c0,.4.3.8.6,1,.3.2.7.3,1.1.3.8,0,1.3-.3,1.7-1,.4-.7.6-1.6.6-2.7h0c-.2.3-.4.6-.7.9-.3.2-.6.4-1,.6-.4.1-.8.2-1.2.2-.7,0-1.3-.2-1.8-.5-.5-.3-1-.8-1.3-1.3s-.5-1.2-.5-1.9c0-.8.2-1.5.5-2.1.4-.6.9-1.1,1.5-1.4s1.4-.5,2.3-.5ZM395.8,249.5c-.4,0-.7,0-1,.3-.3.2-.5.4-.7.7-.2.3-.3.6-.3,1,0,.4,0,.7.3,1,.2.3.4.5.7.7.3.2.6.3,1,.3s.5,0,.8-.2c.2-.1.5-.3.6-.4.2-.2.3-.4.4-.7.1-.2.2-.5.2-.8,0-.4,0-.7-.3-1-.2-.3-.4-.6-.7-.7-.3-.2-.6-.3-1-.3Z"/>
        <path class="cls-22" d="M406.1,259.7c-1,0-1.8-.2-2.5-.7-.7-.5-1.2-1.2-1.6-2.1s-.6-2-.6-3.3c0-1.3.2-2.4.6-3.2.4-.9.9-1.6,1.6-2,.7-.5,1.5-.7,2.5-.7s1.8.2,2.5.7c.7.5,1.2,1.2,1.6,2,.4.9.6,2,.6,3.2,0,1.3-.2,2.4-.6,3.3-.4.9-.9,1.6-1.6,2.1-.7.5-1.5.7-2.5.7ZM406.1,257.6c.7,0,1.2-.3,1.6-1,.4-.7.6-1.7.6-3,0-.9,0-1.6-.3-2.2-.2-.6-.4-1-.8-1.3-.3-.3-.7-.4-1.2-.4-.7,0-1.2.3-1.6,1-.4.7-.6,1.7-.6,3,0,.9,0,1.6.3,2.2.2.6.4,1,.8,1.3.3.3.7.4,1.2.4Z"/>
        <path class="cls-22" d="M414,247.8v1.2c0,.3,0,.7-.2,1.1-.1.4-.3.7-.5,1s-.5.6-.7.8l-1.1-.6c.2-.3.4-.6.5-1,.1-.4.2-.8.2-1.3v-1.2h1.8ZM416.8,247.8v1.2c0,.3,0,.7-.2,1.1-.1.4-.3.7-.5,1s-.5.6-.7.8l-1.1-.6c.2-.3.4-.6.5-1s.2-.8.2-1.3v-1.2h1.8Z"/>
        <path class="cls-22" d="M426.2,247.2l-3.8,13.9h-2.1l3.8-13.9h2.1Z"/>
        <path class="cls-22" d="M432.4,259.4l-3.3-11.6h2.7l1.9,8.1h0l2.1-8.1h2.3l2.1,8.1h.1l1.9-8.1h2.7l-3.3,11.6h-2.4l-2.2-7.6h0l-2.2,7.6h-2.4Z"/>
        <path class="cls-22" d="M450.8,250.7l1.6,3.1,1.6-3.1h2.5l-2.5,4.4,2.6,4.4h-2.5l-1.7-3-1.7,3h-2.5l2.6-4.4-2.5-4.4h2.5Z"/>
        <path class="cls-22" d="M464.7,259.6c-.9,0-1.7-.1-2.3-.4-.7-.3-1.2-.7-1.6-1.2-.4-.5-.6-1.1-.6-1.7s.1-.9.3-1.3.5-.7.9-1c.4-.3.8-.4,1.3-.5h0c-.6-.2-1.1-.5-1.5-1-.4-.5-.6-1-.6-1.7s.2-1.1.5-1.6c.4-.5.8-.8,1.5-1.1.6-.3,1.3-.4,2.1-.4s1.5.1,2.1.4c.6.3,1.1.6,1.5,1.1.4.5.5,1,.5,1.6,0,.6-.2,1.2-.6,1.7-.4.5-.9.8-1.5.9h0c.5.2.9.3,1.3.6.4.3.7.6.9,1,.2.4.3.9.3,1.3,0,.6-.2,1.2-.6,1.7s-.9.9-1.6,1.2c-.7.3-1.5.4-2.3.4ZM464.7,257.8c.4,0,.7,0,1-.2.3-.1.5-.3.7-.6.2-.3.2-.5.2-.9s0-.6-.3-.9c-.2-.3-.4-.5-.7-.6-.3-.1-.6-.2-1-.2s-.7,0-1,.2c-.3.2-.5.4-.7.6-.2.3-.3.6-.3.9s0,.6.2.9c.2.3.4.4.7.6.3.1.6.2,1,.2ZM464.7,252.6c.3,0,.6,0,.9-.2s.5-.3.6-.6c.1-.2.2-.5.2-.8s0-.6-.2-.8c-.1-.2-.3-.4-.6-.5-.2-.1-.5-.2-.9-.2s-.6,0-.9.2c-.3.1-.5.3-.6.5-.1.2-.2.5-.2.8s0,.6.2.8c.1.2.3.4.6.6s.5.2.9.2Z"/>
        <path class="cls-22" d="M475.4,247.8v11.6h-2.5v-9.3h0l-2.7,1.7v-2.2l2.9-1.8h2.3Z"/>
        <path class="cls-22" d="M479.5,247.8v1.2c0,.3,0,.7-.2,1.1-.1.4-.3.7-.5,1s-.5.6-.7.8l-1.1-.6c.2-.3.4-.6.5-1,.1-.4.2-.8.2-1.3v-1.2h1.8ZM482.4,247.8v1.2c0,.3,0,.7-.2,1.1-.1.4-.3.7-.5,1s-.5.6-.7.8l-1.1-.6c.2-.3.4-.6.5-1s.2-.8.2-1.3v-1.2h1.8Z"/>
        <path class="cls-22" d="M491.7,247.2l-3.8,13.9h-2.1l3.8-13.9h2.1Z"/>
        <path class="cls-22" d="M495.4,259.4v-11.6h2.5v4.8h5v-4.8h2.5v11.6h-2.5v-4.8h-5v4.8h-2.5Z"/>
        <path class="cls-22" d="M511.7,250.7l1.6,3.1,1.6-3.1h2.5l-2.5,4.4,2.6,4.4h-2.5l-1.7-3-1.7,3h-2.5l2.6-4.4-2.5-4.4h2.5Z"/>
        <path class="cls-22" d="M525.6,259.6c-.9,0-1.7-.1-2.3-.4-.7-.3-1.2-.7-1.6-1.2-.4-.5-.6-1.1-.6-1.7s.1-.9.3-1.3.5-.7.9-1c.4-.3.8-.4,1.3-.5h0c-.6-.2-1.1-.5-1.5-1-.4-.5-.6-1-.6-1.7s.2-1.1.5-1.6c.4-.5.8-.8,1.5-1.1.6-.3,1.3-.4,2.1-.4s1.5.1,2.1.4c.6.3,1.1.6,1.5,1.1.4.5.5,1,.5,1.6,0,.6-.2,1.2-.6,1.7-.4.5-.9.8-1.5.9h0c.5.2.9.3,1.3.6.4.3.7.6.9,1,.2.4.3.9.3,1.3,0,.6-.2,1.2-.6,1.7s-.9.9-1.6,1.2c-.7.3-1.5.4-2.3.4ZM525.6,257.8c.4,0,.7,0,1-.2.3-.1.5-.3.7-.6.2-.3.2-.5.2-.9s0-.6-.3-.9c-.2-.3-.4-.5-.7-.6-.3-.1-.6-.2-1-.2s-.7,0-1,.2c-.3.2-.5.4-.7.6-.2.3-.3.6-.3.9s0,.6.2.9c.2.3.4.4.7.6.3.1.6.2,1,.2ZM525.6,252.6c.3,0,.6,0,.9-.2s.5-.3.6-.6c.1-.2.2-.5.2-.8s0-.6-.2-.8c-.1-.2-.3-.4-.6-.5-.2-.1-.5-.2-.9-.2s-.6,0-.9.2c-.3.1-.5.3-.6.5-.1.2-.2.5-.2.8s0,.6.2.8c.1.2.3.4.6.6s.5.2.9.2Z"/>
        <path class="cls-22" d="M531.1,257.4v-1.9l4.9-7.7h1.7v2.7h-1l-3.1,4.8h0c0,0,6.9,0,6.9,0v2h-9.4ZM536.6,259.4v-3.5s0-8.1,0-8.1h2.3v11.6h-2.4Z"/>
        <path class="cls-22" d="M543.5,247.8v1.2c0,.3,0,.7-.2,1.1-.1.4-.3.7-.5,1s-.5.6-.7.8l-1.1-.6c.2-.3.4-.6.5-1,.1-.4.2-.8.2-1.3v-1.2h1.8ZM546.3,247.8v1.2c0,.3,0,.7-.2,1.1-.1.4-.3.7-.5,1s-.5.6-.7.8l-1.1-.6c.2-.3.4-.6.5-1s.2-.8.2-1.3v-1.2h1.8Z"/>
      </g>
    </g>
  </g>
</svg>