<svg width="569" height="401" viewBox="0 0 569 401" fill="none" xmlns="http://www.w3.org/2000/svg">
<g clip-path="url(#clip0_2631_39860)">
<g filter="url(#filter0_f_2631_39860)">
<path d="M367.001 407.246L259.001 339.895L413.689 260.746L522 306.22L367.001 407.246Z" fill="#F2F2F2"/>
</g>
<path d="M516.68 102.099V299.675L472.961 327.176L369.409 392.122V174.109L472.584 123.781L516.68 102.099Z" fill="#B3B3B3"/>
<path d="M369.41 392.127L365.349 394.674V176.46L369.41 173.913V392.127Z" fill="#808080"/>
<path d="M347.074 383.213L286.161 345.01V126.796L347.074 164.999V383.213Z" fill="#043E88"/>
<path d="M365.348 394.674L347.074 383.213V164.999L365.348 176.46V394.674Z" fill="#666666"/>
<path d="M286.164 345.01L267.891 333.549V115.335L286.164 126.796V345.01Z" fill="#666666"/>
<path d="M516.68 306.002L365.35 401V394.674L516.68 299.673V306.002Z" fill="#999999"/>
<path d="M488.969 323.152L474.756 332.066V326.244L488.969 317.33V323.152Z" fill="white"/>
<path d="M423.945 363.935L409.733 372.849V367.027L423.945 358.113V363.935Z" fill="white"/>
<path d="M267.888 339.923L365.348 401V394.674L267.888 333.597V339.923Z" fill="#808080"/>
<path d="M286.163 351.097L300.375 360.011V354.188L286.163 345.274V351.097Z" fill="white"/>
<path d="M332.862 380.37L347.074 389.284V383.465L332.862 374.551V380.37Z" fill="white"/>
<path d="M267.888 115.345V110.285L365.348 171.41V176.47L267.888 115.345Z" fill="#808080"/>
<path d="M365.35 176.47V171.41L516.684 97.1072V102.17L365.35 176.47Z" fill="#999999"/>
<path d="M365.35 171.41L267.89 110.285L419.224 36L516.684 97.125L365.35 171.41Z" fill="#F2F2F2"/>
<path d="M267.891 293.535V294.222L267.527 294.23L267.891 293.535Z" fill="#D9E021"/>
<path d="M267.891 313.523L233.318 284.394L267.891 261.37V313.523Z" fill="#0552B5"/>
<path d="M267.891 230.087V230.775L267.527 230.782L267.891 230.087Z" fill="#D9E021"/>
<path d="M267.891 250.077L233.318 220.946L267.891 197.923V250.077Z" fill="#0552B5"/>
<path d="M267.891 166.639V167.327L267.527 167.334L267.891 166.639Z" fill="#D9E021"/>
<path d="M267.891 186.63L233.318 157.499L267.891 134.475V186.63Z" fill="#0552B5"/>
<path d="M374.12 382.1L424.121 352.862V157.112L374.12 191.222V382.1Z" fill="#666666"/>
<path d="M377.925 374.938L410.312 375.674L377.925 313.767V374.938Z" fill="#0552B5"/>
<path d="M421.257 345.631L453.645 346.37L421.257 284.463V345.631Z" fill="#D9E021"/>
<path d="M410.313 375.674L453.645 346.37L421.257 284.463L377.926 313.767L410.313 375.674Z" fill="url(#paint0_linear_2631_39860)"/>
<path d="M377.925 314.577L410.312 315.313L377.925 253.409V314.577Z" fill="#0552B5"/>
<path d="M421.257 285.27L453.645 286.009L421.257 224.102V285.27Z" fill="#D9E021"/>
<path d="M410.313 315.313L453.645 286.009L421.257 224.102L377.926 253.409L410.313 315.313Z" fill="url(#paint1_linear_2631_39860)"/>
<path d="M377.925 254.216L410.312 254.952L377.925 193.048V254.216Z" fill="#0552B5"/>
<path d="M421.257 224.909L453.645 225.648L421.257 163.741V224.909Z" fill="#D9E021"/>
<path d="M410.313 254.952L453.645 225.648L421.257 163.741L377.926 193.048L410.313 254.952Z" fill="#2A7DE1"/>
<path d="M85.7309 31V26.9545L94.2195 19.5227C94.8559 18.947 95.3976 18.4205 95.8445 17.9432C96.2915 17.4583 96.6324 16.9735 96.8673 16.4886C97.1021 15.9962 97.2195 15.4621 97.2195 14.8864C97.2195 14.2424 97.0794 13.6932 96.7991 13.2386C96.5188 12.7765 96.1324 12.4205 95.64 12.1705C95.1476 11.9205 94.5832 11.7955 93.9468 11.7955C93.3029 11.7955 92.7385 11.928 92.2536 12.1932C91.7688 12.4508 91.39 12.8258 91.1173 13.3182C90.8521 13.8106 90.7195 14.4091 90.7195 15.1136H85.39C85.39 13.5303 85.7461 12.1629 86.4582 11.0114C87.1703 9.85985 88.1703 8.97348 89.4582 8.35227C90.7536 7.72348 92.2574 7.40909 93.9695 7.40909C95.7347 7.40909 97.2688 7.70454 98.5718 8.29545C99.8748 8.88636 100.882 9.71212 101.595 10.7727C102.314 11.8258 102.674 13.0492 102.674 14.4432C102.674 15.3295 102.496 16.2083 102.14 17.0795C101.784 17.9508 101.144 18.9129 100.22 19.9659C99.3029 21.0189 97.9998 22.2803 96.3105 23.75L93.5264 26.3182V26.4659H102.958V31H85.7309ZM110.27 13.5455L113.145 19.2955L116.122 13.5455H121.724L116.849 22.2727L121.906 31H116.349L113.145 25.2045L110.02 31H104.384L109.452 22.2727L104.634 13.5455H110.27Z" fill="#002159"/>
<path d="M41.3402 42.2727C41.272 41.697 40.9955 41.25 40.5107 40.9318C40.0258 40.6136 39.4311 40.4545 38.7266 40.4545C38.2114 40.4545 37.7607 40.5379 37.3743 40.7045C36.9917 40.8712 36.6925 41.1004 36.4766 41.392C36.2645 41.6837 36.1584 42.0152 36.1584 42.3864C36.1584 42.697 36.2323 42.964 36.38 43.1875C36.5315 43.4072 36.7247 43.5909 36.9595 43.7386C37.1944 43.8826 37.4406 44.0019 37.6982 44.0966C37.9558 44.1875 38.1925 44.2614 38.4084 44.3182L39.5902 44.6364C39.8933 44.7159 40.2304 44.8258 40.6016 44.9659C40.9766 45.1061 41.3345 45.2973 41.6755 45.5398C42.0201 45.7784 42.3042 46.0852 42.5277 46.4602C42.7512 46.8352 42.863 47.2955 42.863 47.8409C42.863 48.4697 42.6982 49.0379 42.3686 49.5455C42.0429 50.053 41.5656 50.4564 40.9368 50.7557C40.3118 51.0549 39.5523 51.2045 38.6584 51.2045C37.8251 51.2045 37.1035 51.0701 36.4936 50.8011C35.8876 50.5322 35.4103 50.1572 35.0618 49.6761C34.7171 49.1951 34.522 48.6364 34.4766 48H35.9311C35.969 48.4394 36.1167 48.803 36.3743 49.0909C36.6357 49.375 36.9652 49.5871 37.363 49.7273C37.7645 49.8636 38.1963 49.9318 38.6584 49.9318C39.1963 49.9318 39.6792 49.8447 40.1073 49.6705C40.5353 49.4924 40.8743 49.2462 41.1243 48.9318C41.3743 48.6136 41.4993 48.2424 41.4993 47.8182C41.4993 47.4318 41.3914 47.1174 41.1755 46.875C40.9595 46.6326 40.6755 46.4356 40.3232 46.2841C39.9709 46.1326 39.5902 46 39.1811 45.8864L37.7493 45.4773C36.8402 45.2159 36.1205 44.8428 35.5902 44.358C35.0599 43.8731 34.7948 43.2386 34.7948 42.4545C34.7948 41.803 34.9709 41.2348 35.3232 40.75C35.6792 40.2614 36.1565 39.8826 36.755 39.6136C37.3573 39.3409 38.0296 39.2045 38.772 39.2045C39.522 39.2045 40.1887 39.339 40.772 39.608C41.3554 39.8731 41.8175 40.2367 42.1584 40.6989C42.5031 41.161 42.6849 41.6856 42.7039 42.2727H41.3402ZM44.6779 51V42.2727H45.9733V43.6364H46.087C46.2688 43.1705 46.5624 42.8087 46.9677 42.5511C47.373 42.2898 47.8597 42.1591 48.4279 42.1591C49.0037 42.1591 49.4828 42.2898 49.8654 42.5511C50.2518 42.8087 50.5529 43.1705 50.7688 43.6364H50.8597C51.0832 43.1856 51.4184 42.8277 51.8654 42.5625C52.3124 42.2936 52.8484 42.1591 53.4734 42.1591C54.2537 42.1591 54.8919 42.4034 55.3881 42.892C55.8843 43.3769 56.1324 44.1326 56.1324 45.1591V51H54.7915V45.1591C54.7915 44.5152 54.6154 44.0549 54.2631 43.7784C53.9108 43.5019 53.4961 43.3636 53.0188 43.3636C52.4052 43.3636 51.9298 43.5492 51.5927 43.9205C51.2555 44.2879 51.087 44.7538 51.087 45.3182V51H49.7234V45.0227C49.7234 44.5265 49.5624 44.1269 49.2404 43.8239C48.9184 43.517 48.5037 43.3636 47.9961 43.3636C47.6476 43.3636 47.3218 43.4564 47.0188 43.642C46.7196 43.8277 46.4771 44.0852 46.2915 44.4148C46.1097 44.7405 46.0188 45.1174 46.0188 45.5455V51H44.6779ZM60.8323 51.2045C60.2793 51.2045 59.7774 51.1004 59.3266 50.892C58.8759 50.6799 58.5179 50.375 58.2528 49.9773C57.9876 49.5758 57.8551 49.0909 57.8551 48.5227C57.8551 48.0227 57.9535 47.6174 58.1505 47.3068C58.3475 46.9924 58.6107 46.7462 58.9403 46.5682C59.2698 46.3902 59.6335 46.2576 60.0312 46.1705C60.4327 46.0795 60.8361 46.0076 61.2414 45.9545C61.7717 45.8864 62.2016 45.8352 62.5312 45.8011C62.8645 45.7633 63.1069 45.7008 63.2585 45.6136C63.4138 45.5265 63.4914 45.375 63.4914 45.1591V45.1136C63.4914 44.553 63.338 44.1174 63.0312 43.8068C62.7282 43.4962 62.2679 43.3409 61.6505 43.3409C61.0104 43.3409 60.5085 43.4811 60.1448 43.7614C59.7812 44.0417 59.5255 44.3409 59.3778 44.6591L58.1051 44.2045C58.3323 43.6742 58.6354 43.2614 59.0141 42.9659C59.3967 42.6667 59.8134 42.4583 60.2641 42.3409C60.7187 42.2197 61.1657 42.1591 61.6051 42.1591C61.8854 42.1591 62.2073 42.1932 62.571 42.2614C62.9384 42.3258 63.2926 42.4602 63.6335 42.6648C63.9782 42.8693 64.2641 43.178 64.4914 43.5909C64.7187 44.0038 64.8323 44.5568 64.8323 45.25V51H63.4914V49.8182H63.4232C63.3323 50.0076 63.1808 50.2102 62.9687 50.4261C62.7566 50.642 62.4744 50.8258 62.1221 50.9773C61.7698 51.1288 61.3399 51.2045 60.8323 51.2045ZM61.0369 50C61.5672 50 62.0141 49.8958 62.3778 49.6875C62.7452 49.4792 63.0217 49.2102 63.2073 48.8807C63.3967 48.5511 63.4914 48.2045 63.4914 47.8409V46.6136C63.4346 46.6818 63.3096 46.7443 63.1164 46.8011C62.927 46.8542 62.7073 46.9015 62.4573 46.9432C62.2111 46.9811 61.9706 47.0152 61.7357 47.0455C61.5047 47.072 61.3172 47.0947 61.1732 47.1136C60.8248 47.1591 60.499 47.233 60.196 47.3352C59.8967 47.4337 59.6543 47.5833 59.4687 47.7841C59.2869 47.9811 59.196 48.25 59.196 48.5909C59.196 49.0568 59.3683 49.4091 59.713 49.6477C60.0615 49.8826 60.5028 50 61.0369 50ZM66.9598 51V42.2727H68.2552V43.5909H68.3461C68.5052 43.1591 68.7931 42.8087 69.2098 42.5398C69.6264 42.2708 70.0961 42.1364 70.6189 42.1364C70.7173 42.1364 70.8405 42.1383 70.9882 42.142C71.1359 42.1458 71.2476 42.1515 71.3234 42.1591V43.5227C71.278 43.5114 71.1738 43.4943 71.0109 43.4716C70.8518 43.4451 70.6833 43.4318 70.5052 43.4318C70.081 43.4318 69.7022 43.5208 69.3689 43.6989C69.0393 43.8731 68.778 44.1155 68.5848 44.4261C68.3954 44.733 68.3007 45.0833 68.3007 45.4773V51H66.9598ZM76.9352 42.2727V43.4091H72.4125V42.2727H76.9352ZM73.7307 40.1818H75.0716V48.5C75.0716 48.8788 75.1265 49.1629 75.2364 49.3523C75.35 49.5379 75.4939 49.6629 75.6682 49.7273C75.8462 49.7879 76.0337 49.8182 76.2307 49.8182C76.3784 49.8182 76.4996 49.8106 76.5943 49.7955C76.689 49.7765 76.7648 49.7614 76.8216 49.75L77.0943 50.9545C77.0034 50.9886 76.8765 51.0227 76.7136 51.0568C76.5508 51.0947 76.3443 51.1136 76.0943 51.1136C75.7155 51.1136 75.3443 51.0322 74.9807 50.8693C74.6208 50.7064 74.3216 50.4583 74.083 50.125C73.8481 49.7917 73.7307 49.3712 73.7307 48.8636V40.1818ZM82.9941 51V39.3636H86.9259C87.8388 39.3636 88.585 39.5284 89.1645 39.858C89.7479 40.1837 90.1797 40.625 90.46 41.1818C90.7403 41.7386 90.8805 42.3598 90.8805 43.0455C90.8805 43.7311 90.7403 44.3542 90.46 44.9148C90.1835 45.4754 89.7555 45.9223 89.1759 46.2557C88.5964 46.5852 87.8539 46.75 86.9486 46.75H84.1305V45.5H86.9032C87.5282 45.5 88.0301 45.392 88.4089 45.1761C88.7877 44.9602 89.0623 44.6686 89.2327 44.3011C89.407 43.9299 89.4941 43.5114 89.4941 43.0455C89.4941 42.5795 89.407 42.1629 89.2327 41.7955C89.0623 41.428 88.7858 41.1402 88.4032 40.9318C88.0206 40.7197 87.513 40.6136 86.8805 40.6136H84.4032V51H82.9941ZM96.4212 51H92.8303V39.3636H96.5803C97.7091 39.3636 98.675 39.5966 99.4781 40.0625C100.281 40.5246 100.897 41.1894 101.325 42.0568C101.753 42.9205 101.967 43.9545 101.967 45.1591C101.967 46.3712 101.751 47.4148 101.319 48.2898C100.887 49.161 100.258 49.8314 99.4326 50.3011C98.6069 50.767 97.6031 51 96.4212 51ZM94.2394 49.75H96.3303C97.2925 49.75 98.0898 49.5644 98.7224 49.1932C99.355 48.822 99.8265 48.2936 100.137 47.608C100.448 46.9223 100.603 46.1061 100.603 45.1591C100.603 44.2197 100.45 43.411 100.143 42.733C99.836 42.0511 99.3777 41.5284 98.7678 41.1648C98.158 40.7973 97.3985 40.6136 96.4894 40.6136H94.2394V49.75ZM111.647 39.3636H113.056V47.0682C113.056 47.8636 112.868 48.5739 112.493 49.1989C112.122 49.8201 111.597 50.3106 110.919 50.6705C110.241 51.0265 109.446 51.2045 108.533 51.2045C107.62 51.2045 106.825 51.0265 106.147 50.6705C105.469 50.3106 104.942 49.8201 104.567 49.1989C104.196 48.5739 104.01 47.8636 104.01 47.0682V39.3636H105.419V46.9545C105.419 47.5227 105.544 48.0284 105.794 48.4716C106.044 48.911 106.4 49.2576 106.863 49.5114C107.329 49.7614 107.885 49.8864 108.533 49.8864C109.181 49.8864 109.738 49.7614 110.204 49.5114C110.669 49.2576 111.025 48.911 111.272 48.4716C111.522 48.0284 111.647 47.5227 111.647 46.9545V39.3636ZM121.55 44.2273L120.345 44.5682C120.269 44.3674 120.158 44.1723 120.01 43.983C119.866 43.7898 119.669 43.6307 119.419 43.5057C119.169 43.3807 118.849 43.3182 118.459 43.3182C117.925 43.3182 117.48 43.4413 117.124 43.6875C116.771 43.9299 116.595 44.2386 116.595 44.6136C116.595 44.947 116.716 45.2102 116.959 45.4034C117.201 45.5966 117.58 45.7576 118.095 45.8864L119.391 46.2045C120.171 46.3939 120.752 46.6837 121.135 47.0739C121.518 47.4602 121.709 47.9583 121.709 48.5682C121.709 49.0682 121.565 49.5152 121.277 49.9091C120.993 50.303 120.595 50.6136 120.084 50.8409C119.572 51.0682 118.978 51.1818 118.3 51.1818C117.41 51.1818 116.673 50.9886 116.089 50.6023C115.506 50.2159 115.137 49.6515 114.982 48.9091L116.254 48.5909C116.375 49.0606 116.605 49.4129 116.942 49.6477C117.283 49.8826 117.728 50 118.277 50C118.902 50 119.398 49.8674 119.766 49.6023C120.137 49.3333 120.322 49.0114 120.322 48.6364C120.322 48.3333 120.216 48.0795 120.004 47.875C119.792 47.6667 119.466 47.5114 119.027 47.4091L117.572 47.0682C116.773 46.8788 116.186 46.5852 115.811 46.1875C115.44 45.786 115.254 45.2841 115.254 44.6818C115.254 44.1894 115.393 43.7538 115.669 43.375C115.949 42.9962 116.33 42.6989 116.811 42.483C117.296 42.267 117.845 42.1591 118.459 42.1591C119.322 42.1591 120 42.3485 120.493 42.7273C120.989 43.1061 121.341 43.6061 121.55 44.2273Z" fill="#002159"/>
<path d="M59.2092 62.2727V71H58.1524V63.3807H58.1013L55.9706 64.7955V63.7216L58.1524 62.2727H59.2092ZM62.2462 64.4545L63.8144 67.1307L65.3826 64.4545H66.5417L64.4281 67.7273L66.5417 71H65.3826L63.8144 68.4602L62.2462 71H61.0871L63.1667 67.7273L61.0871 64.4545H62.2462ZM73.616 71.1364C72.9853 71.1364 72.4413 70.9972 71.9839 70.7188C71.5294 70.4375 71.1785 70.0455 70.9314 69.5426C70.687 69.0369 70.5649 68.4489 70.5649 67.7784C70.5649 67.108 70.687 66.517 70.9314 66.0057C71.1785 65.4915 71.5223 65.0909 71.9626 64.804C72.4058 64.5142 72.9228 64.3693 73.5137 64.3693C73.8547 64.3693 74.1913 64.4261 74.5237 64.5398C74.8561 64.6534 75.1586 64.8381 75.4314 65.0938C75.7041 65.3466 75.9214 65.6818 76.0834 66.0994C76.2453 66.517 76.3262 67.0312 76.3262 67.642V68.0682H71.2808V67.1989H75.3035C75.3035 66.8295 75.2297 66.5 75.0819 66.2102C74.937 65.9205 74.7297 65.6918 74.4598 65.5241C74.1927 65.3565 73.8774 65.2727 73.5137 65.2727C73.1132 65.2727 72.7666 65.3722 72.474 65.571C72.1842 65.767 71.9612 66.0227 71.8049 66.3381C71.6487 66.6534 71.5706 66.9915 71.5706 67.3523V67.9318C71.5706 68.4261 71.6558 68.8452 71.8262 69.1889C71.9995 69.5298 72.2396 69.7898 72.5464 69.9688C72.8532 70.1449 73.2098 70.233 73.616 70.233C73.8802 70.233 74.1189 70.196 74.3319 70.1222C74.5478 70.0455 74.7339 69.9318 74.8902 69.7812C75.0464 69.6278 75.1672 69.4375 75.2524 69.2102L76.224 69.483C76.1217 69.8125 75.9498 70.1023 75.7084 70.3523C75.4669 70.5994 75.1686 70.7926 74.8135 70.9318C74.4584 71.0682 74.0592 71.1364 73.616 71.1364ZM79.5422 71.1534C79.1274 71.1534 78.751 71.0753 78.413 70.919C78.0749 70.7599 77.8064 70.5312 77.6076 70.233C77.4087 69.9318 77.3093 69.5682 77.3093 69.142C77.3093 68.767 77.3831 68.4631 77.5309 68.2301C77.6786 67.9943 77.876 67.8097 78.1232 67.6761C78.3703 67.5426 78.6431 67.4432 78.9414 67.3778C79.2425 67.3097 79.5451 67.2557 79.849 67.2159C80.2468 67.1648 80.5692 67.1264 80.8164 67.1009C81.0664 67.0724 81.2482 67.0256 81.3618 66.9602C81.4783 66.8949 81.5365 66.7812 81.5365 66.6193V66.5852C81.5365 66.1648 81.4215 65.8381 81.1914 65.6051C80.9641 65.3722 80.6189 65.2557 80.1559 65.2557C79.6757 65.2557 79.2993 65.3608 79.0266 65.571C78.7539 65.7812 78.5621 66.0057 78.4513 66.2443L77.4968 65.9034C77.6672 65.5057 77.8945 65.196 78.1786 64.9744C78.4655 64.75 78.778 64.5937 79.1161 64.5057C79.457 64.4148 79.7922 64.3693 80.1218 64.3693C80.332 64.3693 80.5735 64.3949 80.8462 64.446C81.1218 64.4943 81.3874 64.5952 81.6431 64.7486C81.9016 64.902 82.1161 65.1335 82.2865 65.4432C82.457 65.7528 82.5422 66.1676 82.5422 66.6875V71H81.5365V70.1136H81.4854C81.4172 70.2557 81.3036 70.4077 81.1445 70.5696C80.9854 70.7315 80.7738 70.8693 80.5095 70.983C80.2453 71.0966 79.9229 71.1534 79.5422 71.1534ZM79.6956 70.25C80.0934 70.25 80.4286 70.1719 80.7013 70.0156C80.9769 69.8594 81.1843 69.6577 81.3235 69.4105C81.4655 69.1634 81.5365 68.9034 81.5365 68.6307V67.7102C81.4939 67.7614 81.4002 67.8082 81.2553 67.8509C81.1132 67.8906 80.9485 67.9261 80.761 67.9574C80.5763 67.9858 80.3959 68.0114 80.2198 68.0341C80.0465 68.054 79.9059 68.071 79.7979 68.0852C79.5365 68.1193 79.2922 68.1747 79.0649 68.2514C78.8405 68.3253 78.6587 68.4375 78.5195 68.5881C78.3831 68.7358 78.3149 68.9375 78.3149 69.1932C78.3149 69.5426 78.4442 69.8068 78.7027 69.9858C78.9641 70.1619 79.2951 70.25 79.6956 70.25ZM86.7969 71.1364C86.1833 71.1364 85.6548 70.9915 85.2117 70.7017C84.7685 70.4119 84.4276 70.0128 84.1889 69.5043C83.9503 68.9957 83.831 68.4148 83.831 67.7614C83.831 67.0966 83.9531 66.5099 84.1975 66.0014C84.4446 65.4901 84.7884 65.0909 85.2287 64.804C85.6719 64.5142 86.1889 64.3693 86.7798 64.3693C87.2401 64.3693 87.6548 64.4545 88.0242 64.625C88.3935 64.7955 88.696 65.0341 88.9318 65.3409C89.1676 65.6477 89.3139 66.0057 89.3708 66.4148H88.3651C88.2884 66.1165 88.1179 65.8523 87.8537 65.6222C87.5923 65.3892 87.2401 65.2727 86.7969 65.2727C86.4048 65.2727 86.0611 65.375 85.7656 65.5795C85.473 65.7812 85.2443 66.0668 85.0796 66.4361C84.9176 66.8026 84.8367 67.233 84.8367 67.7273C84.8367 68.233 84.9162 68.6733 85.0753 69.0483C85.2372 69.4233 85.4645 69.7145 85.7571 69.9219C86.0526 70.1293 86.3992 70.233 86.7969 70.233C87.0583 70.233 87.2955 70.1875 87.5085 70.0966C87.7216 70.0057 87.902 69.875 88.0497 69.7045C88.1975 69.5341 88.3026 69.3295 88.3651 69.0909H89.3708C89.3139 69.4773 89.1733 69.8253 88.9489 70.1349C88.7273 70.4418 88.4333 70.6861 88.0668 70.8679C87.7031 71.0469 87.2798 71.1364 86.7969 71.1364ZM91.6066 67.0625V71H90.6009V62.2727H91.6066V65.4773H91.6918C91.8452 65.1392 92.0754 64.8707 92.3822 64.6719C92.6918 64.4702 93.1038 64.3693 93.618 64.3693C94.064 64.3693 94.4546 64.4588 94.7898 64.6378C95.1251 64.8139 95.385 65.0852 95.5697 65.4517C95.7572 65.8153 95.8509 66.2784 95.8509 66.8409V71H94.8452V66.9091C94.8452 66.3892 94.7103 65.9872 94.4404 65.7031C94.1734 65.4162 93.8026 65.2727 93.3282 65.2727C92.9987 65.2727 92.7032 65.3423 92.4418 65.4815C92.1833 65.6207 91.9788 65.8239 91.8282 66.0909C91.6805 66.358 91.6066 66.6818 91.6066 67.0625ZM105.222 65.9205L104.319 66.1761C104.262 66.0256 104.178 65.8793 104.067 65.7372C103.959 65.5923 103.812 65.473 103.624 65.3793C103.437 65.2855 103.197 65.2386 102.904 65.2386C102.503 65.2386 102.17 65.331 101.903 65.5156C101.638 65.6974 101.506 65.929 101.506 66.2102C101.506 66.4602 101.597 66.6577 101.779 66.8026C101.961 66.9474 102.245 67.0682 102.631 67.1648L103.603 67.4034C104.188 67.5455 104.624 67.7628 104.911 68.0554C105.198 68.3452 105.341 68.7187 105.341 69.1761C105.341 69.5511 105.233 69.8864 105.018 70.1818C104.805 70.4773 104.506 70.7102 104.123 70.8807C103.739 71.0511 103.293 71.1364 102.785 71.1364C102.117 71.1364 101.564 70.9915 101.127 70.7017C100.689 70.4119 100.412 69.9886 100.296 69.4318L101.251 69.1932C101.341 69.5455 101.513 69.8097 101.766 69.9858C102.022 70.1619 102.356 70.25 102.768 70.25C103.236 70.25 103.608 70.1506 103.884 69.9517C104.162 69.75 104.302 69.5085 104.302 69.2273C104.302 69 104.222 68.8097 104.063 68.6562C103.904 68.5 103.66 68.3835 103.33 68.3068L102.239 68.0511C101.64 67.9091 101.199 67.6889 100.918 67.3906C100.64 67.0895 100.501 66.7131 100.501 66.2614C100.501 65.892 100.604 65.5653 100.812 65.2812C101.022 64.9972 101.307 64.7741 101.668 64.6122C102.032 64.4503 102.444 64.3693 102.904 64.3693C103.552 64.3693 104.06 64.5114 104.43 64.7955C104.802 65.0795 105.066 65.4545 105.222 65.9205ZM106.615 71V64.4545H107.621V71H106.615ZM107.127 63.3636C106.931 63.3636 106.762 63.2969 106.62 63.1634C106.48 63.0298 106.411 62.8693 106.411 62.6818C106.411 62.4943 106.48 62.3338 106.62 62.2003C106.762 62.0668 106.931 62 107.127 62C107.323 62 107.49 62.0668 107.63 62.2003C107.772 62.3338 107.843 62.4943 107.843 62.6818C107.843 62.8693 107.772 63.0298 107.63 63.1634C107.49 63.2969 107.323 63.3636 107.127 63.3636ZM111.695 71.1364C111.149 71.1364 110.668 70.9986 110.25 70.723C109.832 70.4446 109.506 70.0526 109.27 69.5469C109.034 69.0384 108.916 68.4375 108.916 67.7443C108.916 67.0568 109.034 66.4602 109.27 65.9545C109.506 65.4489 109.834 65.0582 110.254 64.7827C110.675 64.5071 111.16 64.3693 111.712 64.3693C112.138 64.3693 112.474 64.4403 112.722 64.5824C112.972 64.7216 113.162 64.8807 113.293 65.0597C113.426 65.2358 113.53 65.3807 113.604 65.4943H113.689V62.2727H114.695V71H113.723V69.9943H113.604C113.53 70.1136 113.425 70.2642 113.288 70.446C113.152 70.625 112.957 70.7855 112.704 70.9276C112.452 71.0668 112.115 71.1364 111.695 71.1364ZM111.831 70.233C112.234 70.233 112.575 70.1278 112.854 69.9176C113.132 69.7045 113.344 69.4105 113.489 69.0355C113.633 68.6577 113.706 68.2216 113.706 67.7273C113.706 67.2386 113.635 66.8111 113.493 66.4446C113.351 66.0753 113.141 65.7884 112.862 65.5838C112.584 65.3764 112.24 65.2727 111.831 65.2727C111.405 65.2727 111.05 65.3821 110.766 65.6009C110.484 65.8168 110.273 66.1108 110.131 66.483C109.991 66.8523 109.922 67.267 109.922 67.7273C109.922 68.1932 109.993 68.6165 110.135 68.9972C110.28 69.375 110.493 69.6761 110.774 69.9006C111.058 70.1222 111.41 70.233 111.831 70.233ZM119.18 71.1364C118.55 71.1364 118.006 70.9972 117.548 70.7188C117.094 70.4375 116.743 70.0455 116.496 69.5426C116.251 69.0369 116.129 68.4489 116.129 67.7784C116.129 67.108 116.251 66.517 116.496 66.0057C116.743 65.4915 117.087 65.0909 117.527 64.804C117.97 64.5142 118.487 64.3693 119.078 64.3693C119.419 64.3693 119.756 64.4261 120.088 64.5398C120.42 64.6534 120.723 64.8381 120.996 65.0938C121.268 65.3466 121.486 65.6818 121.648 66.0994C121.81 66.517 121.891 67.0312 121.891 67.642V68.0682H116.845V67.1989H120.868C120.868 66.8295 120.794 66.5 120.646 66.2102C120.501 65.9205 120.294 65.6918 120.024 65.5241C119.757 65.3565 119.442 65.2727 119.078 65.2727C118.678 65.2727 118.331 65.3722 118.038 65.571C117.749 65.767 117.526 66.0227 117.369 66.3381C117.213 66.6534 117.135 66.9915 117.135 67.3523V67.9318C117.135 68.4261 117.22 68.8452 117.391 69.1889C117.564 69.5298 117.804 69.7898 118.111 69.9688C118.418 70.1449 118.774 70.233 119.18 70.233C119.445 70.233 119.683 70.196 119.896 70.1222C120.112 70.0455 120.298 69.9318 120.455 69.7812C120.611 69.6278 120.732 69.4375 120.817 69.2102L121.788 69.483C121.686 69.8125 121.514 70.1023 121.273 70.3523C121.031 70.5994 120.733 70.7926 120.378 70.9318C120.023 71.0682 119.624 71.1364 119.18 71.1364Z" fill="#307FE2"/>
<g clip-path="url(#clip1_2631_39860)">
<path d="M266.5 90L188.9 46.26H145.49" stroke="#002159" stroke-miterlimit="10" stroke-linecap="round" stroke-dasharray="2 2"/>
<path d="M143.551 46.26H141.551" stroke="#002159" stroke-miterlimit="10" stroke-linecap="round"/>
<path d="M141.76 50.02C139.683 50.02 138 48.3366 138 46.26C138 44.1834 139.683 42.5 141.76 42.5C143.836 42.5 145.52 44.1834 145.52 46.26C145.52 48.3366 143.836 50.02 141.76 50.02Z" fill="white"/>
<path d="M141.76 50.52C144.11 50.52 146.02 48.61 146.02 46.26C146.02 43.91 144.11 42 141.76 42C139.41 42 137.5 43.91 137.5 46.26C137.5 48.61 139.41 50.52 141.76 50.52C139.41 50.52 144.11 50.52 141.76 50.52ZM141.76 43C143.56 43 145.02 44.46 145.02 46.26C145.02 48.06 143.56 49.52 141.76 49.52C139.96 49.52 138.5 48.06 138.5 46.26C138.5 44.46 139.96 43 141.76 43C139.96 43 143.56 43 141.76 43Z" fill="#002159"/>
</g>
<path d="M93.9355 240.665C92.6627 240.665 91.443 240.46 90.2764 240.051C89.1097 239.634 88.0718 238.975 87.1627 238.074C86.2536 237.165 85.5377 235.975 85.015 234.506C84.4923 233.028 84.2347 231.229 84.2423 229.108C84.2498 227.191 84.4847 225.471 84.9468 223.949C85.4089 222.418 86.068 221.119 86.9241 220.051C87.7877 218.983 88.818 218.168 90.015 217.608C91.2195 217.04 92.5642 216.756 94.0491 216.756C95.6779 216.756 97.1135 217.074 98.3559 217.71C99.6059 218.339 100.606 219.187 101.356 220.256C102.106 221.316 102.549 222.498 102.685 223.801H97.1514C96.9847 223.066 96.6173 222.509 96.0491 222.131C95.4885 221.744 94.8218 221.551 94.0491 221.551C92.6248 221.551 91.5605 222.168 90.8559 223.403C90.1589 224.638 89.8029 226.29 89.7877 228.358H89.9355C90.2536 227.661 90.712 227.062 91.3105 226.562C91.9089 226.062 92.5945 225.68 93.3673 225.415C94.1476 225.142 94.9733 225.006 95.8445 225.006C97.2385 225.006 98.4695 225.327 99.5377 225.971C100.606 226.615 101.443 227.498 102.049 228.619C102.655 229.733 102.954 231.009 102.947 232.449C102.954 234.07 102.576 235.502 101.81 236.744C101.045 237.979 99.9847 238.941 98.6286 239.631C97.2802 240.32 95.7158 240.665 93.9355 240.665ZM93.9014 236.346C94.5908 236.346 95.2082 236.184 95.7536 235.858C96.2991 235.532 96.7271 235.089 97.0377 234.528C97.3483 233.968 97.4998 233.335 97.4923 232.631C97.4998 231.918 97.3483 231.286 97.0377 230.733C96.7347 230.18 96.3105 229.74 95.765 229.415C95.2271 229.089 94.6097 228.926 93.9127 228.926C93.4052 228.926 92.9317 229.021 92.4923 229.21C92.0529 229.399 91.6703 229.665 91.3445 230.006C91.0264 230.339 90.7764 230.733 90.5945 231.187C90.4127 231.634 90.318 232.119 90.3105 232.642C90.318 233.331 90.4771 233.956 90.7877 234.517C91.0983 235.077 91.5226 235.524 92.0605 235.858C92.5983 236.184 93.212 236.346 93.9014 236.346ZM110.27 222.892L113.145 228.642L116.122 222.892H121.724L116.849 231.619L121.906 240.346H116.349L113.145 234.551L110.02 240.346H104.384L109.452 231.619L104.634 222.892H110.27Z" fill="#002159"/>
<path d="M62.9626 260.346H61.4853L65.7581 248.71H67.2126L71.4853 260.346H70.0081L66.5308 250.551H66.4399L62.9626 260.346ZM63.5081 255.801H69.4626V257.051H63.5081V255.801ZM73.6795 260.346L71.0205 251.619H72.4295L74.3159 258.301H74.4068L76.2705 251.619H77.7023L79.5432 258.278H79.6341L81.5205 251.619H82.9295L80.2705 260.346H78.9523L77.0432 253.642H76.9068L74.9977 260.346H73.6795ZM85.7232 255.096V260.346H84.3823V251.619H85.6777V252.983H85.7914C85.9959 252.54 86.3065 252.184 86.7232 251.915C87.1398 251.642 87.6777 251.506 88.3368 251.506C88.9277 251.506 89.4448 251.627 89.888 251.869C90.3311 252.108 90.6758 252.471 90.922 252.96C91.1683 253.445 91.2914 254.059 91.2914 254.801V260.346H89.9505V254.892C89.9505 254.206 89.7724 253.672 89.4164 253.29C89.0603 252.903 88.5717 252.71 87.9505 252.71C87.5224 252.71 87.1398 252.803 86.8027 252.988C86.4694 253.174 86.2061 253.445 86.013 253.801C85.8198 254.157 85.7232 254.589 85.7232 255.096ZM93.4216 260.346V251.619H94.7626V260.346H93.4216ZM94.1035 250.165C93.8421 250.165 93.6167 250.076 93.4273 249.898C93.2417 249.72 93.1489 249.506 93.1489 249.256C93.1489 249.006 93.2417 248.792 93.4273 248.613C93.6167 248.435 93.8421 248.346 94.1035 248.346C94.3648 248.346 94.5883 248.435 94.7739 248.613C94.9633 248.792 95.058 249.006 95.058 249.256C95.058 249.506 94.9633 249.72 94.7739 249.898C94.5883 250.076 94.3648 250.165 94.1035 250.165ZM98.2394 255.096V260.346H96.8985V251.619H98.194V252.983H98.3076C98.5122 252.54 98.8228 252.184 99.2394 251.915C99.6561 251.642 100.194 251.506 100.853 251.506C101.444 251.506 101.961 251.627 102.404 251.869C102.847 252.108 103.192 252.471 103.438 252.96C103.685 253.445 103.808 254.059 103.808 254.801V260.346H102.467V254.892C102.467 254.206 102.289 253.672 101.933 253.29C101.577 252.903 101.088 252.71 100.467 252.71C100.039 252.71 99.6561 252.803 99.319 252.988C98.9856 253.174 98.7224 253.445 98.5292 253.801C98.336 254.157 98.2394 254.589 98.2394 255.096ZM109.461 263.801C108.813 263.801 108.256 263.718 107.79 263.551C107.324 263.388 106.936 263.172 106.625 262.903C106.319 262.638 106.074 262.354 105.892 262.051L106.961 261.301C107.082 261.46 107.235 261.642 107.421 261.846C107.606 262.055 107.86 262.235 108.182 262.386C108.508 262.542 108.934 262.619 109.461 262.619C110.165 262.619 110.747 262.449 111.205 262.108C111.663 261.767 111.892 261.233 111.892 260.506V258.733H111.779C111.68 258.892 111.54 259.089 111.358 259.324C111.18 259.555 110.923 259.761 110.586 259.943C110.252 260.121 109.802 260.21 109.233 260.21C108.529 260.21 107.896 260.043 107.336 259.71C106.779 259.377 106.338 258.892 106.012 258.256C105.69 257.619 105.529 256.846 105.529 255.937C105.529 255.043 105.686 254.265 106 253.602C106.315 252.935 106.752 252.42 107.313 252.057C107.874 251.689 108.521 251.506 109.256 251.506C109.824 251.506 110.275 251.6 110.608 251.79C110.945 251.975 111.203 252.187 111.381 252.426C111.563 252.661 111.703 252.854 111.802 253.006H111.938V251.619H113.233V260.596C113.233 261.346 113.063 261.956 112.722 262.426C112.385 262.899 111.93 263.246 111.358 263.466C110.79 263.689 110.158 263.801 109.461 263.801ZM109.415 259.006C109.953 259.006 110.408 258.882 110.779 258.636C111.15 258.39 111.432 258.036 111.625 257.574C111.819 257.112 111.915 256.559 111.915 255.915C111.915 255.286 111.82 254.731 111.631 254.25C111.442 253.769 111.161 253.392 110.79 253.119C110.419 252.846 109.961 252.71 109.415 252.71C108.847 252.71 108.374 252.854 107.995 253.142C107.62 253.43 107.338 253.816 107.148 254.301C106.963 254.786 106.87 255.324 106.87 255.915C106.87 256.521 106.964 257.057 107.154 257.523C107.347 257.985 107.631 258.348 108.006 258.613C108.385 258.875 108.855 259.006 109.415 259.006ZM121.55 253.574L120.345 253.915C120.269 253.714 120.158 253.519 120.01 253.329C119.866 253.136 119.669 252.977 119.419 252.852C119.169 252.727 118.849 252.665 118.459 252.665C117.925 252.665 117.48 252.788 117.124 253.034C116.771 253.276 116.595 253.585 116.595 253.96C116.595 254.293 116.716 254.557 116.959 254.75C117.201 254.943 117.58 255.104 118.095 255.233L119.391 255.551C120.171 255.74 120.752 256.03 121.135 256.42C121.518 256.807 121.709 257.305 121.709 257.915C121.709 258.415 121.565 258.862 121.277 259.256C120.993 259.649 120.595 259.96 120.084 260.187C119.572 260.415 118.978 260.528 118.3 260.528C117.41 260.528 116.673 260.335 116.089 259.949C115.506 259.562 115.137 258.998 114.982 258.256L116.254 257.937C116.375 258.407 116.605 258.759 116.942 258.994C117.283 259.229 117.728 259.346 118.277 259.346C118.902 259.346 119.398 259.214 119.766 258.949C120.137 258.68 120.322 258.358 120.322 257.983C120.322 257.68 120.216 257.426 120.004 257.221C119.792 257.013 119.466 256.858 119.027 256.756L117.572 256.415C116.773 256.225 116.186 255.932 115.811 255.534C115.44 255.132 115.254 254.631 115.254 254.028C115.254 253.536 115.393 253.1 115.669 252.721C115.949 252.343 116.33 252.045 116.811 251.829C117.296 251.613 117.845 251.506 118.459 251.506C119.322 251.506 120 251.695 120.493 252.074C120.989 252.452 121.341 252.952 121.55 253.574Z" fill="#002159"/>
<path d="M57.0274 279.466C56.4649 279.466 55.9635 279.369 55.5232 279.176C55.0857 278.983 54.7377 278.714 54.4791 278.371C54.2235 278.024 54.0842 277.622 54.0615 277.165H55.1354C55.1581 277.446 55.2547 277.689 55.4252 277.893C55.5956 278.095 55.8186 278.251 56.0942 278.362C56.3698 278.473 56.6752 278.528 57.0104 278.528C57.3854 278.528 57.7178 278.463 58.0075 278.332C58.2973 278.202 58.5246 278.02 58.6894 277.787C58.8541 277.554 58.9365 277.284 58.9365 276.977C58.9365 276.656 58.857 276.373 58.6979 276.129C58.5388 275.882 58.3058 275.689 57.999 275.55C57.6922 275.41 57.3172 275.341 56.874 275.341H56.1752V274.403H56.874C57.2206 274.403 57.5246 274.341 57.786 274.216C58.0502 274.091 58.2561 273.915 58.4038 273.687C58.5544 273.46 58.6297 273.193 58.6297 272.886C58.6297 272.591 58.5644 272.334 58.4337 272.115C58.303 271.896 58.1183 271.726 57.8797 271.604C57.6439 271.481 57.3655 271.42 57.0445 271.42C56.7433 271.42 56.4592 271.476 56.1922 271.586C55.928 271.694 55.7121 271.852 55.5445 272.06C55.3769 272.264 55.286 272.511 55.2717 272.801H54.249C54.2661 272.344 54.4038 271.943 54.6624 271.599C54.9209 271.253 55.259 270.983 55.6766 270.79C56.097 270.596 56.5587 270.5 57.0615 270.5C57.6013 270.5 58.0644 270.609 58.4507 270.828C58.8371 271.044 59.134 271.329 59.3413 271.685C59.5487 272.04 59.6524 272.423 59.6524 272.835C59.6524 273.327 59.5232 273.746 59.2646 274.092C59.009 274.439 58.661 274.679 58.2206 274.812V274.881C58.7717 274.971 59.2021 275.206 59.5118 275.584C59.8215 275.959 59.9763 276.423 59.9763 276.977C59.9763 277.452 59.847 277.878 59.5885 278.256C59.3328 278.631 58.9834 278.926 58.5402 279.142C58.097 279.358 57.5928 279.466 57.0274 279.466ZM62.2462 272.801L63.8144 275.477L65.3826 272.801H66.5417L64.4281 276.074L66.5417 279.346H65.3826L63.8144 276.807L62.2462 279.346H61.0871L63.1667 276.074L61.0871 272.801H62.2462ZM73.616 279.483C72.9853 279.483 72.4413 279.344 71.9839 279.065C71.5294 278.784 71.1785 278.392 70.9314 277.889C70.687 277.383 70.5649 276.795 70.5649 276.125C70.5649 275.454 70.687 274.863 70.9314 274.352C71.1785 273.838 71.5223 273.437 71.9626 273.15C72.4058 272.861 72.9228 272.716 73.5138 272.716C73.8547 272.716 74.1913 272.773 74.5237 272.886C74.8561 273 75.1586 273.185 75.4314 273.44C75.7041 273.693 75.9214 274.028 76.0834 274.446C76.2453 274.863 76.3263 275.378 76.3263 275.988V276.415H71.2808V275.545H75.3035C75.3035 275.176 75.2297 274.846 75.0819 274.557C74.937 274.267 74.7297 274.038 74.4598 273.871C74.1927 273.703 73.8774 273.619 73.5138 273.619C73.1132 273.619 72.7666 273.719 72.474 273.917C72.1842 274.113 71.9612 274.369 71.8049 274.685C71.6487 275 71.5706 275.338 71.5706 275.699V276.278C71.5706 276.773 71.6558 277.192 71.8263 277.535C71.9995 277.876 72.2396 278.136 72.5464 278.315C72.8532 278.491 73.2098 278.579 73.616 278.579C73.8802 278.579 74.1189 278.542 74.3319 278.469C74.5478 278.392 74.7339 278.278 74.8902 278.128C75.0464 277.974 75.1672 277.784 75.2524 277.557L76.224 277.829C76.1217 278.159 75.9498 278.449 75.7084 278.699C75.4669 278.946 75.1686 279.139 74.8135 279.278C74.4584 279.415 74.0592 279.483 73.616 279.483ZM79.5422 279.5C79.1274 279.5 78.751 279.422 78.413 279.265C78.0749 279.106 77.8064 278.878 77.6076 278.579C77.4087 278.278 77.3093 277.915 77.3093 277.488C77.3093 277.113 77.3831 276.81 77.5309 276.577C77.6786 276.341 77.876 276.156 78.1232 276.023C78.3703 275.889 78.6431 275.79 78.9414 275.724C79.2425 275.656 79.5451 275.602 79.849 275.562C80.2468 275.511 80.5692 275.473 80.8164 275.447C81.0664 275.419 81.2482 275.372 81.3618 275.307C81.4783 275.241 81.5365 275.128 81.5365 274.966V274.932C81.5365 274.511 81.4215 274.185 81.1914 273.952C80.9641 273.719 80.6189 273.602 80.1559 273.602C79.6757 273.602 79.2993 273.707 79.0266 273.917C78.7539 274.128 78.5621 274.352 78.4513 274.591L77.4968 274.25C77.6672 273.852 77.8945 273.542 78.1786 273.321C78.4655 273.096 78.778 272.94 79.1161 272.852C79.457 272.761 79.7922 272.716 80.1218 272.716C80.332 272.716 80.5735 272.741 80.8462 272.792C81.1218 272.841 81.3874 272.942 81.6431 273.095C81.9016 273.248 82.1161 273.48 82.2865 273.79C82.457 274.099 82.5422 274.514 82.5422 275.034V279.346H81.5365V278.46H81.4854C81.4172 278.602 81.3036 278.754 81.1445 278.916C80.9854 279.078 80.7738 279.216 80.5095 279.329C80.2453 279.443 79.9229 279.5 79.5422 279.5ZM79.6956 278.596C80.0934 278.596 80.4286 278.518 80.7013 278.362C80.9769 278.206 81.1843 278.004 81.3235 277.757C81.4655 277.51 81.5365 277.25 81.5365 276.977V276.057C81.4939 276.108 81.4002 276.155 81.2553 276.197C81.1132 276.237 80.9485 276.273 80.761 276.304C80.5763 276.332 80.3959 276.358 80.2198 276.381C80.0465 276.4 79.9059 276.417 79.7979 276.432C79.5365 276.466 79.2922 276.521 79.0649 276.598C78.8405 276.672 78.6587 276.784 78.5195 276.935C78.3831 277.082 78.3149 277.284 78.3149 277.54C78.3149 277.889 78.4442 278.153 78.7027 278.332C78.9641 278.508 79.2951 278.596 79.6956 278.596ZM86.7969 279.483C86.1833 279.483 85.6548 279.338 85.2117 279.048C84.7685 278.758 84.4276 278.359 84.1889 277.851C83.9503 277.342 83.831 276.761 83.831 276.108C83.831 275.443 83.9531 274.856 84.1975 274.348C84.4446 273.836 84.7884 273.437 85.2287 273.15C85.6719 272.861 86.1889 272.716 86.7798 272.716C87.2401 272.716 87.6548 272.801 88.0242 272.971C88.3935 273.142 88.696 273.381 88.9318 273.687C89.1676 273.994 89.3139 274.352 89.3708 274.761H88.3651C88.2884 274.463 88.1179 274.199 87.8537 273.969C87.5923 273.736 87.2401 273.619 86.7969 273.619C86.4048 273.619 86.0611 273.721 85.7656 273.926C85.473 274.128 85.2443 274.413 85.0796 274.783C84.9176 275.149 84.8367 275.579 84.8367 276.074C84.8367 276.579 84.9162 277.02 85.0753 277.395C85.2372 277.77 85.4645 278.061 85.7571 278.268C86.0526 278.476 86.3992 278.579 86.7969 278.579C87.0583 278.579 87.2955 278.534 87.5085 278.443C87.7216 278.352 87.902 278.221 88.0497 278.051C88.1975 277.881 88.3026 277.676 88.3651 277.437H89.3708C89.3139 277.824 89.1733 278.172 88.9489 278.481C88.7273 278.788 88.4333 279.033 88.0668 279.214C87.7031 279.393 87.2798 279.483 86.7969 279.483ZM91.6066 275.409V279.346H90.6009V270.619H91.6066V273.824H91.6918C91.8452 273.486 92.0754 273.217 92.3822 273.018C92.6918 272.817 93.1038 272.716 93.618 272.716C94.064 272.716 94.4546 272.805 94.7898 272.984C95.1251 273.16 95.385 273.432 95.5697 273.798C95.7572 274.162 95.8509 274.625 95.8509 275.187V279.346H94.8452V275.256C94.8452 274.736 94.7103 274.334 94.4404 274.05C94.1734 273.763 93.8026 273.619 93.3282 273.619C92.9987 273.619 92.7032 273.689 92.4418 273.828C92.1833 273.967 91.9788 274.17 91.8282 274.437C91.6805 274.704 91.6066 275.028 91.6066 275.409ZM105.222 274.267L104.319 274.523C104.262 274.372 104.178 274.226 104.067 274.084C103.959 273.939 103.812 273.819 103.624 273.726C103.437 273.632 103.197 273.585 102.904 273.585C102.503 273.585 102.17 273.677 101.903 273.862C101.638 274.044 101.506 274.275 101.506 274.557C101.506 274.807 101.597 275.004 101.779 275.149C101.961 275.294 102.245 275.415 102.631 275.511L103.603 275.75C104.188 275.892 104.624 276.109 104.911 276.402C105.198 276.692 105.341 277.065 105.341 277.523C105.341 277.898 105.233 278.233 105.018 278.528C104.805 278.824 104.506 279.057 104.123 279.227C103.739 279.398 103.293 279.483 102.785 279.483C102.117 279.483 101.564 279.338 101.127 279.048C100.689 278.758 100.412 278.335 100.296 277.778L101.251 277.54C101.341 277.892 101.513 278.156 101.766 278.332C102.022 278.508 102.356 278.596 102.768 278.596C103.236 278.596 103.608 278.497 103.884 278.298C104.162 278.096 104.302 277.855 104.302 277.574C104.302 277.346 104.222 277.156 104.063 277.003C103.904 276.846 103.66 276.73 103.33 276.653L102.239 276.398C101.64 276.256 101.199 276.035 100.918 275.737C100.64 275.436 100.501 275.06 100.501 274.608C100.501 274.238 100.604 273.912 100.812 273.628C101.022 273.344 101.307 273.121 101.668 272.959C102.032 272.797 102.444 272.716 102.904 272.716C103.552 272.716 104.06 272.858 104.43 273.142C104.802 273.426 105.066 273.801 105.222 274.267ZM106.615 279.346V272.801H107.621V279.346H106.615ZM107.127 271.71C106.931 271.71 106.762 271.643 106.62 271.51C106.48 271.376 106.411 271.216 106.411 271.028C106.411 270.841 106.48 270.68 106.62 270.547C106.762 270.413 106.931 270.346 107.127 270.346C107.323 270.346 107.49 270.413 107.63 270.547C107.772 270.68 107.843 270.841 107.843 271.028C107.843 271.216 107.772 271.376 107.63 271.51C107.49 271.643 107.323 271.71 107.127 271.71ZM111.695 279.483C111.149 279.483 110.668 279.345 110.25 279.069C109.832 278.791 109.506 278.399 109.27 277.893C109.034 277.385 108.916 276.784 108.916 276.091C108.916 275.403 109.034 274.807 109.27 274.301C109.506 273.795 109.834 273.405 110.254 273.129C110.675 272.854 111.16 272.716 111.712 272.716C112.138 272.716 112.474 272.787 112.722 272.929C112.972 273.068 113.162 273.227 113.293 273.406C113.426 273.582 113.53 273.727 113.604 273.841H113.689V270.619H114.695V279.346H113.723V278.341H113.604C113.53 278.46 113.425 278.611 113.288 278.792C113.152 278.971 112.957 279.132 112.704 279.274C112.452 279.413 112.115 279.483 111.695 279.483ZM111.831 278.579C112.234 278.579 112.575 278.474 112.854 278.264C113.132 278.051 113.344 277.757 113.489 277.382C113.633 277.004 113.706 276.568 113.706 276.074C113.706 275.585 113.635 275.158 113.493 274.791C113.351 274.422 113.141 274.135 112.862 273.93C112.584 273.723 112.24 273.619 111.831 273.619C111.405 273.619 111.05 273.729 110.766 273.947C110.484 274.163 110.273 274.457 110.131 274.829C109.991 275.199 109.922 275.613 109.922 276.074C109.922 276.54 109.993 276.963 110.135 277.344C110.28 277.721 110.493 278.023 110.774 278.247C111.058 278.469 111.41 278.579 111.831 278.579ZM119.18 279.483C118.55 279.483 118.006 279.344 117.548 279.065C117.094 278.784 116.743 278.392 116.496 277.889C116.251 277.383 116.129 276.795 116.129 276.125C116.129 275.454 116.251 274.863 116.496 274.352C116.743 273.838 117.087 273.437 117.527 273.15C117.97 272.861 118.487 272.716 119.078 272.716C119.419 272.716 119.756 272.773 120.088 272.886C120.42 273 120.723 273.185 120.996 273.44C121.268 273.693 121.486 274.028 121.648 274.446C121.81 274.863 121.891 275.378 121.891 275.988V276.415H116.845V275.545H120.868C120.868 275.176 120.794 274.846 120.646 274.557C120.501 274.267 120.294 274.038 120.024 273.871C119.757 273.703 119.442 273.619 119.078 273.619C118.678 273.619 118.331 273.719 118.038 273.917C117.749 274.113 117.526 274.369 117.369 274.685C117.213 275 117.135 275.338 117.135 275.699V276.278C117.135 276.773 117.22 277.192 117.391 277.535C117.564 277.876 117.804 278.136 118.111 278.315C118.418 278.491 118.774 278.579 119.18 278.579C119.445 278.579 119.683 278.542 119.896 278.469C120.112 278.392 120.298 278.278 120.455 278.128C120.611 277.974 120.732 277.784 120.817 277.557L121.788 277.829C121.686 278.159 121.514 278.449 121.273 278.699C121.031 278.946 120.733 279.139 120.378 279.278C120.023 279.415 119.624 279.483 119.18 279.483Z" fill="#307FE2"/>
<g clip-path="url(#clip2_2631_39860)">
<path d="M142 258.346L221 258.346L241 244.846" stroke="#002159" stroke-miterlimit="10" stroke-linecap="round" stroke-dasharray="2 2"/>
</g>
<path d="M141.76 262.366C139.683 262.366 138 260.683 138 258.606C138 256.53 139.683 254.846 141.76 254.846C143.836 254.846 145.52 256.53 145.52 258.606C145.52 260.683 143.836 262.366 141.76 262.366Z" fill="white"/>
<path d="M141.76 254.346C144.11 254.346 146.02 256.256 146.02 258.606C146.02 260.956 144.11 262.866 141.76 262.866C139.41 262.866 137.5 260.956 137.5 258.606C137.5 256.256 139.41 254.346 141.76 254.346C139.41 254.346 144.11 254.346 141.76 254.346ZM141.76 261.866C143.56 261.866 145.02 260.406 145.02 258.606C145.02 256.806 143.56 255.346 141.76 255.346C139.96 255.346 138.5 256.806 138.5 258.606C138.5 260.406 139.96 261.866 141.76 261.866C139.96 261.866 143.56 261.866 141.76 261.866Z" fill="#002159"/>
</g>
<defs>
<filter id="filter0_f_2631_39860" x="256" y="257.746" width="269" height="152.5" filterUnits="userSpaceOnUse" color-interpolation-filters="sRGB">
<feFlood flood-opacity="0" result="BackgroundImageFix"/>
<feBlend mode="normal" in="SourceGraphic" in2="BackgroundImageFix" result="shape"/>
<feGaussianBlur stdDeviation="1.5" result="effect1_foregroundBlur_2631_39860"/>
</filter>
<linearGradient id="paint0_linear_2631_39860" x1="433.585" y1="360.553" x2="394.594" y2="303.969" gradientUnits="userSpaceOnUse">
<stop stop-color="#307FE2"/>
<stop offset="1" stop-color="#133166"/>
</linearGradient>
<linearGradient id="paint1_linear_2631_39860" x1="433.296" y1="303.363" x2="397.241" y2="244.64" gradientUnits="userSpaceOnUse">
<stop stop-color="#307FE2"/>
<stop offset="1" stop-color="#133166"/>
</linearGradient>
<clipPath id="clip0_2631_39860">
<rect width="568" height="401" fill="white" transform="translate(0.5)"/>
</clipPath>
<clipPath id="clip1_2631_39860">
<rect width="135" height="52" fill="white" transform="matrix(-1 0 0 1 272.5 42)"/>
</clipPath>
<clipPath id="clip2_2631_39860">
<rect width="100" height="15" fill="white" transform="matrix(-1 0 0 1 241.5 244.346)"/>
</clipPath>
</defs>
</svg>
