<?xml version="1.0" encoding="UTF-8"?>
<svg xmlns="http://www.w3.org/2000/svg" version="1.1" xmlns:xlink="http://www.w3.org/1999/xlink" viewBox="0 0 355 345">
  <defs>
    <style>
      .cls-1 {
        fill: #d8df25;
      }

      .cls-2 {
        fill: url(#linear-gradient-2);
      }

      .cls-3 {
        fill: #fff;
      }

      .cls-4 {
        fill: #204283;
      }

      .cls-5 {
        fill: #b3b2b3;
      }

      .cls-6 {
        fill: #f2f2f2;
      }

      .cls-7 {
        fill: #2356a6;
      }

      .cls-8 {
        fill: #4d4e4e;
      }

      .cls-9 {
        fill: #6d6d6d;
      }

      .cls-10 {
        fill: #979797;
      }

      .cls-11 {
        fill: gray;
      }

      .cls-12 {
        fill: url(#linear-gradient);
      }

      .cls-13 {
        fill: #676767;
      }

      .cls-14 {
        fill: #007ad1;
      }
    </style>
    <linearGradient id="linear-gradient" x1="296.3" y1="311.5" x2="327.1" y2="255.2" gradientTransform="translate(517.4) rotate(-180) scale(1 -1)" gradientUnits="userSpaceOnUse">
      <stop offset="0" stop-color="#457abd"/>
      <stop offset="1" stop-color="#263c85"/>
    </linearGradient>
    <linearGradient id="linear-gradient-2" x1="292.2" y1="263.9" x2="331.6" y2="200.7" xlink:href="#linear-gradient"/>
  </defs>
  <!-- Generator: Adobe Illustrator 28.7.1, SVG Export Plug-In . SVG Version: 1.2.0 Build 142)  -->
  <g>
    <g id="Layer_1">
      <g>
        <g id="Axo_Extrusion">
          <g id="Axo_Surface">
            <polygon id="Axo_panel" class="cls-8" points="334 232.5 290 257.9 289 257.3 332.9 231.9 334 232.5"/>
            <polygon id="Axo_panel-2" data-name="Axo_panel" class="cls-8" points="290 130.9 334 232.5 332.9 231.9 289 130.2 290 130.9"/>
            <polygon id="Axo_panel-3" data-name="Axo_panel" class="cls-8" points="290 257.9 290 130.9 289 130.2 289 257.3 290 257.9"/>
          </g>
          <polygon id="Axo_base" class="cls-9" points="290 257.9 334 232.5 290 130.9 290 257.9"/>
        </g>
        <g>
          <polygon class="cls-5" points="290.1 61.8 290.1 252.4 248.6 276.4 150.2 333.2 150.2 142.6 290.1 61.8"/>
          <polygon class="cls-11" points="150.2 333.2 146.4 335.4 146.4 144.7 150.2 142.4 150.2 333.2"/>
          <polygon class="cls-4" points="129 325.4 71.2 292 71.2 101.2 129 134.6 129 325.4"/>
          <polygon class="cls-13" points="146.4 335.4 129 325.4 129 134.6 146.4 144.7 146.4 335.4"/>
          <polygon class="cls-13" points="71.2 292 53.8 282 53.8 91.2 71.2 101.2 71.2 292"/>
          <g>
            <polygon class="cls-10" points="290.1 257.9 146.4 340.9 146.4 335.4 290.1 252.4 290.1 257.9"/>
            <g>
              <polygon class="cls-3" points="263.8 272.9 250.3 280.7 250.3 275.6 263.8 267.8 263.8 272.9"/>
              <polygon class="cls-3" points="202 308.5 188.5 316.3 188.5 311.2 202 303.4 202 308.5"/>
            </g>
          </g>
          <g>
            <polygon class="cls-11" points="53.8 287.5 146.4 340.9 146.4 335.4 53.8 282 53.8 287.5"/>
            <g>
              <polygon class="cls-3" points="71.2 297.3 84.7 305.1 84.7 300 71.2 292.2 71.2 297.3"/>
              <polygon class="cls-3" points="115.5 322.9 129 330.7 129 325.6 115.5 317.8 115.5 322.9"/>
            </g>
          </g>
          <g>
            <polygon class="cls-11" points="53.8 91.2 53.8 86.8 146.4 140.2 146.4 144.7 53.8 91.2"/>
            <polygon class="cls-10" points="146.4 144.7 146.4 140.2 290.1 57.5 290.1 61.9 146.4 144.7"/>
            <polygon class="cls-6" points="146.4 140.2 53.8 86.8 197.5 4.1 290.1 57.5 146.4 140.2"/>
          </g>
          <g>
            <polygon class="cls-1" points="53.8 247 53.8 247.6 53.5 247.6 53.8 247"/>
            <polygon class="cls-7" points="53.8 264.5 21 239 53.8 218.9 53.8 264.5"/>
          </g>
          <g>
            <polygon class="cls-1" points="53.8 191.5 53.8 192.1 53.5 192.1 53.8 191.5"/>
            <polygon class="cls-7" points="53.8 209 21 183.5 53.8 163.4 53.8 209"/>
          </g>
          <g>
            <polygon class="cls-1" points="53.8 136.1 53.8 136.7 53.5 136.7 53.8 136.1"/>
            <polygon class="cls-7" points="53.8 153.5 21 128.1 53.8 108 53.8 153.5"/>
          </g>
        </g>
        <g>
          <polygon class="cls-4" points="158.1 320.5 205.6 295 205.6 123.9 158.1 153.7 158.1 320.5"/>
          <g>
            <polygon class="cls-4" points="161.7 313.4 202.9 287.7 245.9 299.9 204.8 325.5 161.7 313.4"/>
            <polygon class="cls-7" points="161.7 313.4 204.8 325.5 161.7 259.9 161.7 313.4"/>
            <polygon class="cls-4" points="202.9 287.7 245.9 299.9 202.9 234.3 202.9 287.7"/>
            <polygon class="cls-12" points="204.8 325.5 245.9 299.9 202.9 234.3 161.7 259.9 204.8 325.5"/>
          </g>
          <g>
            <polygon class="cls-7" points="161.7 263.1 204.8 275.3 161.7 209.6 161.7 263.1"/>
            <polygon class="cls-4" points="202.9 237.5 245.9 249.6 202.9 184 202.9 237.5"/>
            <polygon class="cls-2" points="204.8 275.3 245.9 249.6 202.9 184 161.7 209.6 204.8 275.3"/>
          </g>
          <g>
            <polygon class="cls-7" points="161.7 208.8 204.8 220.9 161.7 155.3 161.7 208.8"/>
            <polygon class="cls-4" points="202.9 183.1 245.9 195.3 202.9 129.7 202.9 183.1"/>
            <polygon class="cls-14" points="204.8 220.9 245.9 195.3 202.9 129.7 161.7 155.3 204.8 220.9"/>
          </g>
        </g>
      </g>
    </g>
  </g>
</svg>