<svg width="355" height="345" viewBox="0 0 355 345" fill="none" xmlns="http://www.w3.org/2000/svg">
<g filter="url(#filter0_f_2631_38942)">
<path d="M185.5 341.75L293.5 279.75L138.812 206.889L30.5007 248.75L185.5 341.75Z" fill="#F2F2F2"/>
</g>
<path d="M35.8193 60.8474V242.726L79.5376 268.042L183.09 327.827V127.136L79.915 80.8062L35.8193 60.8474Z" fill="#B3B3B3"/>
<path d="M183.092 327.832L187.153 330.176V129.3L183.092 126.956V327.832Z" fill="#808080"/>
<path d="M205.426 319.626L266.339 284.458V83.5822L205.426 118.75V319.626Z" fill="#043E88"/>
<path d="M187.151 330.176L205.425 319.626V118.75L187.151 129.3V330.176Z" fill="#666666"/>
<path d="M266.338 284.458L284.611 273.908V73.0317L266.338 83.5821V284.458Z" fill="#666666"/>
<path d="M35.8223 248.55L187.152 336V330.176L35.8223 242.723V248.55Z" fill="#999999"/>
<path d="M63.5322 264.337L77.7447 272.543V267.184L63.5322 258.978V264.337Z" fill="white"/>
<path d="M128.558 301.88L142.77 310.086V304.726L128.558 296.521V301.88Z" fill="white"/>
<path d="M284.611 279.776L187.151 336V330.176L284.611 273.952V279.776Z" fill="#808080"/>
<path d="M266.338 290.062L252.126 298.267V292.908L266.338 284.702V290.062Z" fill="white"/>
<path d="M219.638 317.009L205.426 325.215V319.858L219.638 311.652V317.009Z" fill="white"/>
<path d="M284.611 73.0411V68.3826L187.151 124.651V129.31L284.611 73.0411Z" fill="#808080"/>
<path d="M187.151 129.31V124.651L35.8174 56.2521V60.913L187.151 129.31Z" fill="#999999"/>
<path d="M187.151 124.651L284.611 68.3826L133.277 0L35.8174 56.2684L187.151 124.651Z" fill="#F2F2F2"/>
<path d="M284.611 237.073V237.706L284.975 237.713L284.611 237.073Z" fill="#D9E021"/>
<path d="M284.611 255.473L319.184 228.659L284.611 207.464V255.473Z" fill="#0552B5"/>
<path d="M284.611 178.666V179.299L284.975 179.306L284.611 178.666Z" fill="#D9E021"/>
<path d="M284.611 197.069L319.184 170.252L284.611 149.057V197.069Z" fill="#0552B5"/>
<path d="M284.611 120.26V120.893L284.975 120.9L284.611 120.26Z" fill="#D9E021"/>
<path d="M284.611 138.662L319.184 111.845L284.611 90.6509V138.662Z" fill="#0552B5"/>
<path d="M178.38 318.601L128.379 291.686V111.489L178.38 142.889V318.601Z" fill="#666666"/>
<path d="M174.576 312.009L142.188 312.686L174.576 255.698V312.009Z" fill="#0552B5"/>
<path d="M131.245 285.03L98.8574 285.71L131.245 228.722V285.03Z" fill="#D9E021"/>
<path d="M142.189 312.686L98.8574 285.71L131.245 228.722L174.576 255.698L142.189 312.686Z" fill="url(#paint0_linear_2631_38942)"/>
<path d="M174.576 256.444L142.188 257.121L174.576 200.135V256.444Z" fill="#0552B5"/>
<path d="M131.245 229.465L98.8574 230.145L131.245 173.157V229.465Z" fill="#D9E021"/>
<path d="M142.189 257.121L98.8574 230.145L131.245 173.157L174.576 200.135L142.189 257.121Z" fill="url(#paint1_linear_2631_38942)"/>
<path d="M174.576 200.878L142.188 201.556L174.576 144.57V200.878Z" fill="#0552B5"/>
<path d="M131.245 173.9L98.8574 174.58L131.245 117.592V173.9Z" fill="#D9E021"/>
<path d="M142.189 201.556L98.8574 174.58L131.245 117.592L174.576 144.57L142.189 201.556Z" fill="#2A7DE1"/>
<defs>
<filter id="filter0_f_2631_38942" x="27.501" y="203.889" width="268.999" height="140.861" filterUnits="userSpaceOnUse" color-interpolation-filters="sRGB">
<feFlood flood-opacity="0" result="BackgroundImageFix"/>
<feBlend mode="normal" in="SourceGraphic" in2="BackgroundImageFix" result="shape"/>
<feGaussianBlur stdDeviation="1.5" result="effect1_foregroundBlur_2631_38942"/>
</filter>
<linearGradient id="paint0_linear_2631_38942" x1="118.917" y1="298.767" x2="153.665" y2="243.987" gradientUnits="userSpaceOnUse">
<stop stop-color="#307FE2"/>
<stop offset="1" stop-color="#133166"/>
</linearGradient>
<linearGradient id="paint1_linear_2631_38942" x1="119.206" y1="246.121" x2="151.091" y2="189.707" gradientUnits="userSpaceOnUse">
<stop stop-color="#307FE2"/>
<stop offset="1" stop-color="#133166"/>
</linearGradient>
</defs>
</svg>
