<?xml version="1.0" encoding="UTF-8"?>
<svg xmlns="http://www.w3.org/2000/svg" version="1.1" xmlns:xlink="http://www.w3.org/1999/xlink" viewBox="0 0 550 350">
  <defs>
    <style>
      .cls-1 {
        fill: #d8df25;
      }

      .cls-2, .cls-3 {
        fill: none;
        stroke: #002159;
        stroke-linecap: round;
        stroke-miterlimit: 10;
      }

      .cls-4 {
        fill: url(#linear-gradient-2);
      }

      .cls-5 {
        fill: #fff;
      }

      .cls-6 {
        fill: #204283;
      }

      .cls-7 {
        fill: #b3b2b3;
      }

      .cls-8 {
        fill: #f2f2f2;
      }

      .cls-9 {
        fill: #2356a6;
      }

      .cls-3 {
        stroke-dasharray: 2 2;
      }

      .cls-10 {
        fill: #4d4e4e;
      }

      .cls-11 {
        fill: #6d6d6d;
      }

      .cls-12 {
        fill: #002159;
      }

      .cls-13 {
        fill: #979797;
      }

      .cls-14 {
        fill: gray;
      }

      .cls-15 {
        fill: url(#linear-gradient);
      }

      .cls-16 {
        fill: #676767;
      }

      .cls-17 {
        fill: #1e75df;
      }

      .cls-18 {
        fill: #007ad1;
      }
    </style>
    <linearGradient id="linear-gradient" x1="292.1" y1="316.1" x2="321" y2="263.2" gradientTransform="translate(712.4) rotate(-180) scale(1 -1)" gradientUnits="userSpaceOnUse">
      <stop offset="0" stop-color="#457abd"/>
      <stop offset="1" stop-color="#263c85"/>
    </linearGradient>
    <linearGradient id="linear-gradient-2" x1="288.3" y1="271.3" x2="325.3" y2="211.9" xlink:href="#linear-gradient"/>
  </defs>
  <!-- Generator: Adobe Illustrator 28.7.1, SVG Export Plug-In . SVG Version: 1.2.0 Build 142)  -->
  <g>
    <g id="Layer_1">
      <path class="cls-12" d="M74.6,39.9v-4l8.5-7.4c.6-.6,1.2-1.1,1.6-1.6.4-.5.8-1,1-1.5.2-.5.4-1,.4-1.6s-.1-1.2-.4-1.6c-.3-.5-.7-.8-1.2-1.1s-1.1-.4-1.7-.4-1.2.1-1.7.4c-.5.3-.9.6-1.1,1.1-.3.5-.4,1.1-.4,1.8h-5.3c0-1.6.4-3,1.1-4.1.7-1.2,1.7-2,3-2.7,1.3-.6,2.8-.9,4.5-.9s3.3.3,4.6.9c1.3.6,2.3,1.4,3,2.5.7,1.1,1.1,2.3,1.1,3.7s-.2,1.8-.5,2.6c-.4.9-1,1.8-1.9,2.9-.9,1.1-2.2,2.3-3.9,3.8l-2.8,2.6h0c0,.1,9.4.1,9.4.1v4.5h-17.2ZM99.1,22.5l2.9,5.8,3-5.8h5.6l-4.9,8.7,5.1,8.7h-5.6l-3.2-5.8-3.1,5.8h-5.6l5.1-8.7-4.8-8.7h5.6Z"/>
      <path class="cls-12" d="M30.2,51.2c0-.6-.3-1-.8-1.3-.5-.3-1.1-.5-1.8-.5s-1,0-1.4.2c-.4.2-.7.4-.9.7-.2.3-.3.6-.3,1s0,.6.2.8c.2.2.3.4.6.6.2.1.5.3.7.4.3,0,.5.2.7.2l1.2.3c.3,0,.6.2,1,.3.4.1.7.3,1.1.6.3.2.6.5.9.9.2.4.3.8.3,1.4s-.2,1.2-.5,1.7c-.3.5-.8.9-1.4,1.2-.6.3-1.4.4-2.3.4s-1.6-.1-2.2-.4c-.6-.3-1.1-.6-1.4-1.1-.3-.5-.5-1-.6-1.7h1.5c0,.4.2.8.4,1.1.3.3.6.5,1,.6.4.1.8.2,1.3.2s1,0,1.4-.3c.4-.2.8-.4,1-.7.2-.3.4-.7.4-1.1s-.1-.7-.3-.9c-.2-.2-.5-.4-.9-.6s-.7-.3-1.1-.4l-1.4-.4c-.9-.3-1.6-.6-2.2-1.1-.5-.5-.8-1.1-.8-1.9s.2-1.2.5-1.7c.4-.5.8-.9,1.4-1.1.6-.3,1.3-.4,2-.4s1.4.1,2,.4c.6.3,1,.6,1.4,1.1.3.5.5,1,.5,1.6h-1.4ZM33.5,59.9v-8.7h1.3v1.4h.1c.2-.5.5-.8.9-1.1.4-.3.9-.4,1.5-.4s1.1.1,1.4.4c.4.3.7.6.9,1.1h0c.2-.5.6-.8,1-1.1.4-.3,1-.4,1.6-.4s1.4.2,1.9.7c.5.5.7,1.2.7,2.3v5.8h-1.3v-5.8c0-.6-.2-1.1-.5-1.4s-.8-.4-1.2-.4-1.1.2-1.4.6c-.3.4-.5.8-.5,1.4v5.7h-1.4v-6c0-.5-.2-.9-.5-1.2-.3-.3-.7-.5-1.2-.5s-.7,0-1,.3c-.3.2-.5.4-.7.8-.2.3-.3.7-.3,1.1v5.5h-1.3ZM49.7,60.1c-.6,0-1.1-.1-1.5-.3-.5-.2-.8-.5-1.1-.9-.3-.4-.4-.9-.4-1.5s0-.9.3-1.2c.2-.3.5-.6.8-.7.3-.2.7-.3,1.1-.4.4,0,.8-.2,1.2-.2.5,0,1-.1,1.3-.2.3,0,.6-.1.7-.2.2,0,.2-.2.2-.5h0c0-.6-.2-1-.5-1.4-.3-.3-.8-.5-1.4-.5s-1.1.1-1.5.4c-.4.3-.6.6-.8.9l-1.3-.5c.2-.5.5-.9.9-1.2.4-.3.8-.5,1.2-.6.5-.1.9-.2,1.3-.2s.6,0,1,.1c.4,0,.7.2,1.1.4.3.2.6.5.9.9.2.4.3,1,.3,1.7v5.8h-1.3v-1.2h0c0,.2-.2.4-.5.6-.2.2-.5.4-.8.6-.4.2-.8.2-1.3.2ZM49.9,58.9c.5,0,1-.1,1.3-.3.4-.2.6-.5.8-.8.2-.3.3-.7.3-1v-1.2c0,0-.2.1-.4.2-.2,0-.4.1-.7.1-.2,0-.5,0-.7.1-.2,0-.4,0-.6,0-.3,0-.7.1-1,.2-.3,0-.5.2-.7.4-.2.2-.3.5-.3.8s.2.8.5,1.1c.3.2.8.4,1.3.4ZM55.8,59.9v-8.7h1.3v1.3h0c.2-.4.4-.8.9-1.1.4-.3.9-.4,1.4-.4s.2,0,.4,0c.1,0,.3,0,.3,0v1.4s-.1,0-.3,0c-.2,0-.3,0-.5,0-.4,0-.8,0-1.1.3-.3.2-.6.4-.8.7-.2.3-.3.7-.3,1.1v5.5h-1.3ZM65.8,51.2v1.1h-4.5v-1.1h4.5ZM62.6,49.1h1.3v8.3c0,.4,0,.7.2.9.1.2.3.3.4.4.2,0,.4,0,.6,0s.3,0,.4,0c0,0,.2,0,.2,0l.3,1.2c0,0-.2,0-.4.1-.2,0-.4,0-.6,0-.4,0-.8,0-1.1-.2-.4-.2-.7-.4-.9-.7-.2-.3-.4-.8-.4-1.3v-8.7ZM71.8,59.9v-11.6h3.9c.9,0,1.7.2,2.2.5.6.3,1,.8,1.3,1.3.3.6.4,1.2.4,1.9s-.1,1.3-.4,1.9c-.3.6-.7,1-1.3,1.3-.6.3-1.3.5-2.2.5h-2.8v-1.2h2.8c.6,0,1.1-.1,1.5-.3.4-.2.7-.5.8-.9.2-.4.3-.8.3-1.3s0-.9-.3-1.2c-.2-.4-.4-.7-.8-.9-.4-.2-.9-.3-1.5-.3h-2.5v10.4h-1.4ZM85.3,59.9h-3.6v-11.6h3.8c1.1,0,2.1.2,2.9.7.8.5,1.4,1.1,1.8,2,.4.9.6,1.9.6,3.1s-.2,2.3-.6,3.1c-.4.9-1.1,1.5-1.9,2-.8.5-1.8.7-3,.7ZM83.1,58.7h2.1c1,0,1.8-.2,2.4-.6.6-.4,1.1-.9,1.4-1.6.3-.7.5-1.5.5-2.4s-.2-1.7-.5-2.4c-.3-.7-.8-1.2-1.4-1.6-.6-.4-1.4-.6-2.3-.6h-2.2v9.1ZM100.5,48.3h1.4v7.7c0,.8-.2,1.5-.6,2.1-.4.6-.9,1.1-1.6,1.5-.7.4-1.5.5-2.4.5s-1.7-.2-2.4-.5c-.7-.4-1.2-.9-1.6-1.5-.4-.6-.6-1.3-.6-2.1v-7.7h1.4v7.6c0,.6.1,1.1.4,1.5.2.4.6.8,1.1,1,.5.2,1,.4,1.7.4s1.2-.1,1.7-.4c.5-.3.8-.6,1.1-1,.2-.4.4-.9.4-1.5v-7.6ZM110.4,53.2l-1.2.3c0-.2-.2-.4-.3-.6-.1-.2-.3-.4-.6-.5s-.6-.2-1-.2-1,.1-1.3.4c-.4.2-.5.6-.5.9s.1.6.4.8c.2.2.6.4,1.1.5l1.3.3c.8.2,1.4.5,1.7.9.4.4.6.9.6,1.5s-.1.9-.4,1.3c-.3.4-.7.7-1.2.9-.5.2-1.1.3-1.8.3s-1.6-.2-2.2-.6c-.6-.4-1-1-1.1-1.7l1.3-.3c.1.5.4.8.7,1.1.3.2.8.4,1.3.4s1.1-.1,1.5-.4c.4-.3.6-.6.6-1s-.1-.6-.3-.8c-.2-.2-.5-.4-1-.5l-1.5-.3c-.8-.2-1.4-.5-1.8-.9-.4-.4-.6-.9-.6-1.5s.1-.9.4-1.3c.3-.4.7-.7,1.1-.9.5-.2,1-.3,1.6-.3s1.5.2,2,.6c.5.4.8.9,1.1,1.5Z"/>
      <g>
        <path class="cls-3" d="M255.3,98.9l-77.6-43.7h-43.4"/>
        <path class="cls-2" d="M132.4,55.2h-2"/>
        <path class="cls-5" d="M130.6,58.9c-2.1,0-3.8-1.7-3.8-3.8s1.7-3.8,3.8-3.8,3.8,1.7,3.8,3.8-1.7,3.8-3.8,3.8Z"/>
        <path class="cls-12" d="M130.6,59.4c2.4,0,4.3-1.9,4.3-4.3s-1.9-4.3-4.3-4.3-4.3,1.9-4.3,4.3,1.9,4.3,4.3,4.3c-2.3,0,2.4,0,0,0ZM130.6,51.9c1.8,0,3.3,1.5,3.3,3.3s-1.5,3.3-3.3,3.3-3.3-1.5-3.3-3.3,1.5-3.3,3.3-3.3c-1.8,0,1.8,0,0,0Z"/>
      </g>
      <path class="cls-12" d="M82.8,261.1c-1.3,0-2.5-.2-3.7-.6-1.2-.4-2.2-1.1-3.1-2-.9-.9-1.6-2.1-2.1-3.6-.5-1.5-.8-3.3-.8-5.4,0-1.9.2-3.6.7-5.2.5-1.5,1.1-2.8,2-3.9.9-1.1,1.9-1.9,3.1-2.4,1.2-.6,2.5-.9,4-.9s3.1.3,4.3,1c1.2.6,2.3,1.5,3,2.5.8,1.1,1.2,2.2,1.3,3.5h-5.5c-.2-.7-.5-1.3-1.1-1.7-.6-.4-1.2-.6-2-.6-1.4,0-2.5.6-3.2,1.9-.7,1.2-1.1,2.9-1.1,5h.1c.3-.7.8-1.3,1.4-1.8.6-.5,1.3-.9,2.1-1.1.8-.3,1.6-.4,2.5-.4,1.4,0,2.6.3,3.7,1,1.1.6,1.9,1.5,2.5,2.6.6,1.1.9,2.4.9,3.8,0,1.6-.4,3.1-1.1,4.3-.8,1.2-1.8,2.2-3.2,2.9-1.3.7-2.9,1-4.7,1ZM82.7,256.8c.7,0,1.3-.2,1.9-.5.5-.3,1-.8,1.3-1.3.3-.6.5-1.2.5-1.9,0-.7-.1-1.3-.5-1.9-.3-.6-.7-1-1.3-1.3-.5-.3-1.2-.5-1.9-.5s-1,0-1.4.3c-.4.2-.8.5-1.1.8-.3.3-.6.7-.8,1.2-.2.4-.3.9-.3,1.5,0,.7.2,1.3.5,1.9.3.6.7,1,1.3,1.3.5.3,1.2.5,1.8.5ZM99.1,243.3l2.9,5.8,3-5.8h5.6l-4.9,8.7,5.1,8.7h-5.6l-3.2-5.8-3.1,5.8h-5.6l5.1-8.7-4.8-8.7h5.6Z"/>
      <path class="cls-12" d="M51.8,280.8h-1.5l4.3-11.6h1.5l4.3,11.6h-1.5l-3.5-9.8h0l-3.5,9.8ZM52.4,276.2h6v1.2h-6v-1.2ZM62.5,280.8l-2.7-8.7h1.4l1.9,6.7h0l1.9-6.7h1.4l1.8,6.7h0l1.9-6.7h1.4l-2.7,8.7h-1.3l-1.9-6.7h-.1l-1.9,6.7h-1.3ZM74.6,275.5v5.3h-1.3v-8.7h1.3v1.4h.1c.2-.4.5-.8.9-1.1.4-.3,1-.4,1.6-.4s1.1.1,1.6.4c.4.2.8.6,1,1.1.2.5.4,1.1.4,1.8v5.5h-1.3v-5.5c0-.7-.2-1.2-.5-1.6-.4-.4-.8-.6-1.5-.6s-.8,0-1.1.3c-.3.2-.6.5-.8.8-.2.4-.3.8-.3,1.3ZM82.3,280.8v-8.7h1.3v8.7h-1.3ZM82.9,270.6c-.3,0-.5,0-.7-.3-.2-.2-.3-.4-.3-.6s0-.5.3-.6c.2-.2.4-.3.7-.3s.5,0,.7.3c.2.2.3.4.3.6s0,.5-.3.6c-.2.2-.4.3-.7.3ZM87.1,275.5v5.3h-1.3v-8.7h1.3v1.4h.1c.2-.4.5-.8.9-1.1.4-.3,1-.4,1.6-.4s1.1.1,1.6.4c.4.2.8.6,1,1.1.2.5.4,1.1.4,1.8v5.5h-1.3v-5.5c0-.7-.2-1.2-.5-1.6-.4-.4-.8-.6-1.5-.6s-.8,0-1.1.3c-.3.2-.6.5-.8.8-.2.4-.3.8-.3,1.3ZM98.3,284.2c-.6,0-1.2,0-1.7-.2-.5-.2-.9-.4-1.2-.6-.3-.3-.6-.5-.7-.9l1.1-.8c.1.2.3.3.5.5.2.2.4.4.8.5.3.2.8.2,1.3.2s1.3-.2,1.7-.5.7-.9.7-1.6v-1.8h-.1c0,.2-.2.4-.4.6-.2.2-.4.4-.8.6-.3.2-.8.3-1.4.3s-1.3-.2-1.9-.5c-.6-.3-1-.8-1.3-1.5-.3-.6-.5-1.4-.5-2.3s.2-1.7.5-2.3c.3-.7.8-1.2,1.3-1.5.6-.4,1.2-.6,1.9-.6s1,0,1.4.3c.3.2.6.4.8.6.2.2.3.4.4.6h.1v-1.4h1.3v9c0,.8-.2,1.4-.5,1.8-.3.5-.8.8-1.4,1-.6.2-1.2.3-1.9.3ZM98.3,279.4c.5,0,1-.1,1.4-.4.4-.2.7-.6.8-1.1.2-.5.3-1,.3-1.7s0-1.2-.3-1.7c-.2-.5-.5-.9-.8-1.1-.4-.3-.8-.4-1.4-.4s-1,.1-1.4.4c-.4.3-.7.7-.8,1.2-.2.5-.3,1-.3,1.6s0,1.1.3,1.6c.2.5.5.8.9,1.1.4.3.8.4,1.4.4ZM110.4,274l-1.2.3c0-.2-.2-.4-.3-.6-.1-.2-.3-.4-.6-.5s-.6-.2-1-.2-1,.1-1.3.4c-.4.2-.5.6-.5.9s.1.6.4.8c.2.2.6.4,1.1.5l1.3.3c.8.2,1.4.5,1.7.9.4.4.6.9.6,1.5s-.1.9-.4,1.3c-.3.4-.7.7-1.2.9-.5.2-1.1.3-1.8.3s-1.6-.2-2.2-.6c-.6-.4-1-1-1.1-1.7l1.3-.3c.1.5.4.8.7,1.1.3.2.8.4,1.3.4s1.1-.1,1.5-.4c.4-.3.6-.6.6-1s-.1-.6-.3-.8c-.2-.2-.5-.4-1-.5l-1.5-.3c-.8-.2-1.4-.5-1.8-.9-.4-.4-.6-.9-.6-1.5s.1-.9.4-1.3c.3-.4.7-.7,1.1-.9.5-.2,1-.3,1.6-.3s1.5.2,2,.6c.5.4.8.9,1.1,1.5Z"/>
      <path class="cls-3" d="M130.8,278.8h79l20-13.5"/>
      <path class="cls-5" d="M130.6,282.8c-2.1,0-3.8-1.7-3.8-3.8s1.7-3.8,3.8-3.8,3.8,1.7,3.8,3.8-1.7,3.8-3.8,3.8Z"/>
      <path class="cls-12" d="M130.6,274.8c2.4,0,4.3,1.9,4.3,4.3s-1.9,4.3-4.3,4.3-4.3-1.9-4.3-4.3,1.9-4.3,4.3-4.3c-2.3,0,2.4,0,0,0ZM130.6,282.3c1.8,0,3.3-1.5,3.3-3.3s-1.5-3.3-3.3-3.3-3.3,1.5-3.3,3.3,1.5,3.3,3.3,3.3c-1.8,0,1.8,0,0,0Z"/>
      <g>
        <g id="Axo_Extrusion">
          <g id="Axo_Surface">
            <polygon id="Axo_panel" class="cls-10" points="526.4 241.9 485.1 265.7 484.1 265.2 525.4 241.3 526.4 241.9"/>
            <polygon id="Axo_panel-2" data-name="Axo_panel" class="cls-10" points="485.1 146.3 526.4 241.9 525.4 241.3 484.1 145.7 485.1 146.3"/>
            <polygon id="Axo_panel-3" data-name="Axo_panel" class="cls-10" points="485.1 265.7 485.1 146.3 484.1 145.7 484.1 265.2 485.1 265.7"/>
          </g>
          <polygon id="Axo_base" class="cls-11" points="485.1 265.7 526.4 241.9 485.1 146.3 485.1 265.7"/>
        </g>
        <g>
          <polygon class="cls-7" points="485.2 81.4 485.2 260.5 446.1 283.1 353.7 336.5 353.7 157.4 485.2 81.4"/>
          <polygon class="cls-14" points="353.7 336.5 350.1 338.6 350.1 159.3 353.7 157.2 353.7 336.5"/>
          <polygon class="cls-6" points="333.8 329.2 279.4 297.8 279.4 118.5 333.8 149.9 333.8 329.2"/>
          <polygon class="cls-16" points="350.1 338.6 333.8 329.2 333.8 149.9 350.1 159.3 350.1 338.6"/>
          <polygon class="cls-16" points="279.4 297.8 263.1 288.4 263.1 109.1 279.4 118.5 279.4 297.8"/>
          <g>
            <polygon class="cls-13" points="485.2 265.7 350.1 343.8 350.1 338.6 485.2 260.5 485.2 265.7"/>
            <g>
              <polygon class="cls-5" points="460.4 279.8 447.7 287.2 447.7 282.4 460.4 275 460.4 279.8"/>
              <polygon class="cls-5" points="402.4 313.3 389.7 320.7 389.7 315.9 402.4 308.6 402.4 313.3"/>
            </g>
          </g>
          <g>
            <polygon class="cls-14" points="263.1 293.6 350.1 343.8 350.1 338.6 263.1 288.4 263.1 293.6"/>
            <g>
              <polygon class="cls-5" points="279.4 302.8 292.1 310.1 292.1 305.3 279.4 298 279.4 302.8"/>
              <polygon class="cls-5" points="321.1 326.8 333.8 334.2 333.8 329.4 321.1 322.1 321.1 326.8"/>
            </g>
          </g>
          <g>
            <polygon class="cls-14" points="263.1 109.1 263.1 104.9 350.1 155.1 350.1 159.3 263.1 109.1"/>
            <polygon class="cls-13" points="350.1 159.3 350.1 155.1 485.2 77.3 485.2 81.5 350.1 159.3"/>
            <polygon class="cls-8" points="350.1 155.1 263.1 104.9 398.2 27.1 485.2 77.4 350.1 155.1"/>
          </g>
          <g>
            <polygon class="cls-1" points="263.1 255.5 263.1 256.1 262.7 256.1 263.1 255.5"/>
            <polygon class="cls-9" points="263.1 271.9 232.2 248 263.1 229.1 263.1 271.9"/>
          </g>
          <g>
            <polygon class="cls-1" points="263.1 203.4 263.1 203.9 262.7 203.9 263.1 203.4"/>
            <polygon class="cls-9" points="263.1 219.8 232.2 195.8 263.1 176.9 263.1 219.8"/>
          </g>
          <g>
            <polygon class="cls-1" points="263.1 151.2 263.1 151.8 262.7 151.8 263.1 151.2"/>
            <polygon class="cls-9" points="263.1 167.6 232.2 143.7 263.1 124.8 263.1 167.6"/>
          </g>
        </g>
        <g>
          <polygon class="cls-6" points="361.1 324.6 405.7 300.6 405.7 139.7 361.1 167.8 361.1 324.6"/>
          <g>
            <polygon class="cls-6" points="364.5 317.9 403.2 293.8 443.7 305.2 405 329.3 364.5 317.9"/>
            <polygon class="cls-9" points="364.5 317.9 405 329.3 364.5 267.6 364.5 317.9"/>
            <polygon class="cls-6" points="403.2 293.8 443.7 305.2 403.2 243.5 403.2 293.8"/>
            <polygon class="cls-15" points="405 329.3 443.7 305.2 403.2 243.5 364.5 267.6 405 329.3"/>
          </g>
          <g>
            <polygon class="cls-9" points="364.5 270.6 405 282.1 364.5 220.4 364.5 270.6"/>
            <polygon class="cls-6" points="403.2 246.5 443.7 258 403.2 196.3 403.2 246.5"/>
            <polygon class="cls-4" points="405 282.1 443.7 258 403.2 196.3 364.5 220.4 405 282.1"/>
          </g>
          <g>
            <polygon class="cls-9" points="364.5 219.5 405 231 364.5 169.3 364.5 219.5"/>
            <polygon class="cls-6" points="403.2 195.5 443.7 206.9 403.2 145.2 403.2 195.5"/>
            <polygon class="cls-18" points="405 231 443.7 206.9 403.2 145.2 364.5 169.3 405 231"/>
          </g>
        </g>
      </g>
      <g>
        <path class="cls-17" d="M28.3,71.5v11.1h-2.4v-8.9h0l-2.5,1.6v-2.1l2.8-1.7h2.2Z"/>
        <path class="cls-17" d="M32.6,74.3l1.5,2.9,1.6-2.9h2.4l-2.4,4.2,2.5,4.2h-2.4l-1.6-2.9-1.6,2.9h-2.4l2.5-4.2-2.4-4.2h2.4Z"/>
        <path class="cls-17" d="M46.2,82.8c-.9,0-1.6-.2-2.2-.5-.6-.3-1.1-.8-1.4-1.5-.3-.6-.5-1.4-.5-2.3s.2-1.6.5-2.3c.3-.6.8-1.2,1.4-1.5s1.3-.5,2.1-.5,1.1,0,1.5.3.9.4,1.2.8c.4.4.6.8.8,1.3.2.5.3,1.1.3,1.9v.6h-7v-1.4h4.9c0-.3,0-.6-.2-.9s-.3-.5-.6-.6-.6-.2-.9-.2-.7,0-.9.2-.5.4-.6.6c-.2.3-.2.6-.2.9v1.4c0,.4,0,.8.2,1.1.2.3.4.5.7.7s.6.2,1,.2.5,0,.7-.1.4-.2.5-.3c.2-.1.3-.3.3-.5h2.1c-.1.7-.3,1.1-.7,1.5s-.8.7-1.3.9c-.5.2-1.1.3-1.8.3Z"/>
        <path class="cls-17" d="M53.6,82.8c-.5,0-1,0-1.4-.3-.4-.2-.7-.5-1-.8-.2-.4-.4-.8-.4-1.4s0-.9.3-1.2c.2-.3.4-.6.7-.8.3-.2.6-.3,1-.4s.8-.2,1.2-.2c.5,0,.9,0,1.2-.1.3,0,.5-.1.6-.2.1,0,.2-.2.2-.4h0c0-.4-.1-.6-.3-.8-.2-.2-.5-.3-.9-.3s-.7,0-1,.3c-.2.2-.4.4-.5.7l-2.1-.2c.1-.5.3-.9.6-1.3.3-.4.7-.7,1.2-.9s1.1-.3,1.8-.3.9,0,1.3.2c.4.1.8.3,1.1.5.3.2.6.5.8.9.2.4.3.8.3,1.3v5.6h-2.2v-1.2h0c-.1.3-.3.5-.5.7-.2.2-.5.4-.8.5-.3.1-.7.2-1.1.2ZM54.2,81.2c.3,0,.6,0,.9-.2.3-.1.5-.3.6-.6.1-.2.2-.5.2-.8v-.9c0,0-.2,0-.3.1-.1,0-.3,0-.4.1-.2,0-.3,0-.5,0s-.3,0-.4,0c-.3,0-.5.1-.7.2-.2,0-.4.2-.5.4-.1.1-.2.3-.2.5,0,.3.1.6.3.7.2.2.5.2.9.2Z"/>
        <path class="cls-17" d="M63.5,82.8c-.9,0-1.6-.2-2.2-.5-.6-.4-1.1-.9-1.4-1.5-.3-.6-.5-1.4-.5-2.2s.2-1.6.5-2.3c.3-.6.8-1.2,1.4-1.5.6-.4,1.3-.5,2.2-.5s1.4.1,1.9.4c.5.3,1,.6,1.3,1.1s.5,1,.5,1.7h-2.2c0-.4-.2-.8-.5-1s-.6-.4-1-.4-.7,0-.9.3c-.3.2-.5.5-.6.8-.1.4-.2.8-.2,1.3s0,1,.2,1.4c.1.4.4.7.6.9.3.2.6.3.9.3s.5,0,.7-.2c.2-.1.4-.3.5-.5.1-.2.2-.5.3-.8h2.2c0,.6-.2,1.2-.5,1.7-.3.5-.7.9-1.3,1.1s-1.2.4-1.9.4Z"/>
        <path class="cls-17" d="M70.7,77.8v4.8h-2.3v-11.1h2.2v4.3h0c.2-.5.5-.9.9-1.2.4-.3.9-.4,1.6-.4s1.1.1,1.5.4c.4.3.8.6,1,1.1.2.5.4,1,.4,1.7v5.3h-2.3v-4.9c0-.5-.1-.9-.4-1.2-.3-.3-.6-.4-1.1-.4s-.6,0-.8.2c-.2.1-.4.3-.6.6s-.2.6-.2.9Z"/>
        <path class="cls-17" d="M87.9,76.6h-2.1c0,0-.1-.2-.2-.4s-.3-.3-.5-.4c-.2,0-.4-.1-.7-.1s-.7,0-.9.2c-.2.2-.4.4-.4.6s0,.4.2.5.4.2.8.3l1.5.3c.8.2,1.4.4,1.8.8.4.4.6.9.6,1.5s-.2,1-.5,1.4c-.3.4-.8.7-1.3,1-.6.2-1.2.3-1.9.3-1.1,0-2-.2-2.6-.7s-1-1.1-1.1-1.9h2.3c0,.2.2.5.5.6.3.2.6.3,1,.3s.7,0,1-.2c.2-.2.4-.4.4-.6,0-.2,0-.4-.3-.5-.2-.1-.4-.2-.8-.3l-1.4-.3c-.8-.2-1.4-.4-1.8-.8-.4-.4-.6-.9-.6-1.5s.1-1,.4-1.4c.3-.4.7-.7,1.2-.9.5-.2,1.2-.3,1.9-.3,1.1,0,1.9.2,2.5.7.6.4,1,1.1,1.1,1.8Z"/>
        <path class="cls-17" d="M90.4,73.2c-.3,0-.6-.1-.9-.3-.2-.2-.4-.5-.4-.8s.1-.6.4-.8c.2-.2.5-.3.9-.3s.6.1.9.3c.2.2.4.5.4.8s-.1.6-.4.8c-.2.2-.5.3-.9.3ZM89.2,82.6v-8.3h2.3v8.3h-2.3Z"/>
        <path class="cls-17" d="M96.1,82.7c-.6,0-1.2-.2-1.7-.5-.5-.3-.9-.8-1.2-1.4s-.4-1.4-.4-2.4.2-1.8.5-2.4.7-1.1,1.2-1.4c.5-.3,1.1-.5,1.7-.5s.9,0,1.2.2c.3.2.6.4.8.6.2.2.3.5.4.7h0v-4.2h2.3v11.1h-2.3v-1.3h0c-.1.2-.3.5-.5.7-.2.2-.5.4-.8.6-.3.1-.7.2-1.1.2ZM96.9,80.9c.4,0,.7-.1.9-.3.3-.2.5-.5.6-.9.1-.4.2-.8.2-1.3s0-.9-.2-1.3c-.1-.4-.3-.6-.6-.8-.3-.2-.6-.3-1-.3s-.7.1-1,.3c-.3.2-.5.5-.6.9-.1.4-.2.8-.2,1.3s0,.9.2,1.3c.1.4.3.7.6.9.3.2.6.3,1,.3Z"/>
        <path class="cls-17" d="M106.3,82.8c-.9,0-1.6-.2-2.2-.5-.6-.3-1.1-.8-1.4-1.5-.3-.6-.5-1.4-.5-2.3s.2-1.6.5-2.3c.3-.6.8-1.2,1.4-1.5s1.3-.5,2.1-.5,1.1,0,1.5.3.9.4,1.2.8c.4.4.6.8.8,1.3.2.5.3,1.1.3,1.9v.6h-7v-1.4h4.9c0-.3,0-.6-.2-.9s-.3-.5-.6-.6-.6-.2-.9-.2-.7,0-.9.2-.5.4-.6.6c-.2.3-.2.6-.2.9v1.4c0,.4,0,.8.2,1.1.2.3.4.5.7.7s.6.2,1,.2.5,0,.7-.1.4-.2.5-.3c.2-.1.3-.3.3-.5h2.1c-.1.7-.3,1.1-.7,1.5s-.8.7-1.3.9c-.5.2-1.1.3-1.8.3Z"/>
      </g>
      <g>
        <path class="cls-17" d="M29.8,301.9c-.8,0-1.5-.1-2.1-.4-.6-.3-1.1-.6-1.4-1.1-.3-.5-.5-1-.5-1.6h2.3c0,.3,0,.5.3.7.2.2.4.3.6.5.3.1.6.2.9.2s.6,0,.9-.2.5-.3.6-.5c.1-.2.2-.5.2-.7s0-.5-.2-.8c-.2-.2-.4-.4-.7-.5-.3-.1-.6-.2-1-.2h-1v-1.6h1c.3,0,.6,0,.9-.2.3-.1.5-.3.6-.5.1-.2.2-.5.2-.7s0-.5-.2-.7c-.1-.2-.3-.4-.5-.5s-.5-.2-.8-.2-.6,0-.8.2c-.3.1-.5.3-.6.5s-.2.4-.2.7h-2.2c0-.6.2-1.2.5-1.6.3-.5.8-.8,1.4-1.1.6-.3,1.2-.4,2-.4s1.4.1,1.9.4c.6.3,1,.6,1.3,1.1.3.5.5,1,.5,1.5,0,.6-.2,1.1-.6,1.5-.4.4-.9.7-1.5.8h0c.8.2,1.4.5,1.8.9.4.4.6,1,.6,1.7,0,.6-.2,1.1-.5,1.6-.4.5-.8.8-1.5,1.1s-1.3.4-2.1.4Z"/>
        <path class="cls-17" d="M37.1,293.8l1.5,2.8,1.5-2.8h2.3l-2.3,4,2.4,4h-2.3l-1.6-2.8-1.5,2.8h-2.3l2.4-4-2.3-4h2.3Z"/>
        <path class="cls-17" d="M50.1,301.9c-.8,0-1.5-.2-2.1-.5s-1-.8-1.4-1.4c-.3-.6-.5-1.3-.5-2.2s.2-1.5.5-2.2c.3-.6.8-1.1,1.3-1.4.6-.3,1.3-.5,2-.5s1,0,1.5.3c.5.2.9.4,1.2.8s.6.8.8,1.3.3,1.1.3,1.8v.6h-6.7v-1.4h4.7c0-.3,0-.6-.2-.8-.1-.2-.3-.4-.6-.6-.2-.1-.5-.2-.8-.2s-.6,0-.9.2c-.3.2-.5.4-.6.6-.1.3-.2.5-.2.9v1.3c0,.4,0,.7.2,1,.1.3.4.5.6.7s.6.2,1,.2.5,0,.7-.1c.2,0,.4-.2.5-.3.1-.1.3-.3.3-.5h2c-.1.6-.3,1.1-.6,1.4s-.7.6-1.2.9c-.5.2-1.1.3-1.7.3Z"/>
        <path class="cls-17" d="M57.2,301.9c-.5,0-1,0-1.4-.3-.4-.2-.7-.4-.9-.8-.2-.4-.3-.8-.3-1.3s0-.8.2-1.1c.2-.3.4-.5.7-.7.3-.2.6-.3,1-.4.4,0,.7-.2,1.1-.2.5,0,.8,0,1.1-.1.3,0,.5-.1.6-.2.1,0,.2-.2.2-.4h0c0-.4-.1-.6-.3-.8s-.5-.3-.9-.3-.7,0-.9.3c-.2.2-.4.4-.5.7l-2-.2c.1-.5.3-.9.6-1.3s.7-.6,1.2-.8c.5-.2,1-.3,1.7-.3s.9,0,1.3.2c.4.1.8.3,1.1.5.3.2.6.5.8.8.2.3.3.7.3,1.2v5.4h-2.1v-1.1h0c-.1.2-.3.5-.5.7-.2.2-.5.3-.8.4-.3.1-.6.2-1,.2ZM57.8,300.4c.3,0,.6,0,.9-.2s.4-.3.6-.5c.1-.2.2-.5.2-.8v-.8c0,0-.2,0-.3.1-.1,0-.3,0-.4,0-.1,0-.3,0-.4,0s-.3,0-.4,0c-.3,0-.5,0-.7.2s-.3.2-.5.3c-.1.1-.2.3-.2.5,0,.3.1.5.3.7.2.2.5.2.8.2Z"/>
        <path class="cls-17" d="M66.7,301.9c-.8,0-1.5-.2-2.1-.5-.6-.3-1-.8-1.3-1.5-.3-.6-.5-1.3-.5-2.1s.2-1.5.5-2.2.8-1.1,1.4-1.4c.6-.3,1.3-.5,2.1-.5s1.3.1,1.8.4c.5.3.9.6,1.2,1.1s.5,1,.5,1.6h-2.1c0-.4-.2-.7-.5-1-.3-.2-.6-.4-1-.4s-.6,0-.9.3c-.3.2-.5.5-.6.8-.1.4-.2.8-.2,1.3s0,.9.2,1.3c.1.4.3.6.6.8.3.2.6.3.9.3s.5,0,.7-.2c.2-.1.4-.3.5-.5.1-.2.2-.4.3-.7h2.1c0,.6-.2,1.1-.5,1.6-.3.5-.7.8-1.2,1.1-.5.3-1.1.4-1.8.4Z"/>
        <path class="cls-17" d="M73.6,297.2v4.6h-2.2v-10.6h2.1v4.1h0c.2-.5.5-.8.9-1.1.4-.3.9-.4,1.5-.4s1,.1,1.5.4c.4.2.7.6,1,1s.3,1,.3,1.6v5.1h-2.2v-4.7c0-.5-.1-.9-.4-1.1-.3-.3-.6-.4-1.1-.4s-.6,0-.8.2c-.2.1-.4.3-.5.6-.1.2-.2.5-.2.9Z"/>
        <path class="cls-17" d="M90,296.1h-2s-.1-.2-.2-.3c-.1-.1-.3-.3-.4-.3s-.4-.1-.7-.1-.6,0-.9.2-.4.3-.4.6,0,.4.2.5c.2.1.4.2.8.3l1.4.3c.8.2,1.4.4,1.7.8.4.4.6.8.6,1.4s-.2,1-.5,1.4c-.3.4-.7.7-1.3.9s-1.1.3-1.8.3c-1.1,0-1.9-.2-2.5-.7-.6-.4-1-1-1.1-1.8h2.2c0,.2.2.5.5.6.3.2.6.3,1,.3s.7,0,.9-.2c.2-.1.4-.3.4-.6,0-.2,0-.4-.3-.5s-.4-.2-.8-.3l-1.4-.3c-.8-.2-1.4-.4-1.7-.8s-.6-.9-.6-1.5.1-1,.4-1.3c.3-.4.7-.7,1.2-.9.5-.2,1.1-.3,1.8-.3,1,0,1.8.2,2.4.6.6.4.9,1,1,1.7Z"/>
        <path class="cls-17" d="M92.4,292.8c-.3,0-.6-.1-.8-.3-.2-.2-.4-.5-.4-.8s.1-.6.4-.8c.2-.2.5-.3.8-.3s.6.1.8.3c.2.2.4.5.4.8s-.1.6-.4.8c-.2.2-.5.3-.8.3ZM91.2,301.8v-8h2.2v8h-2.2Z"/>
        <path class="cls-17" d="M97.9,301.9c-.6,0-1.2-.2-1.6-.5-.5-.3-.9-.8-1.2-1.4-.3-.6-.4-1.4-.4-2.3s.1-1.7.4-2.3c.3-.6.7-1.1,1.2-1.4.5-.3,1-.5,1.6-.5s.8,0,1.1.2.5.3.7.6c.2.2.3.4.4.7h0v-4h2.2v10.6h-2.2v-1.3h0c-.1.2-.2.4-.4.7-.2.2-.4.4-.7.5-.3.1-.7.2-1.1.2ZM98.6,300.2c.4,0,.7,0,.9-.3.2-.2.4-.5.6-.8.1-.4.2-.8.2-1.2s0-.9-.2-1.2-.3-.6-.6-.8c-.2-.2-.6-.3-.9-.3s-.7,0-.9.3-.4.5-.6.8c-.1.3-.2.8-.2,1.2s0,.9.2,1.2.3.6.6.8.6.3.9.3Z"/>
        <path class="cls-17" d="M107.6,301.9c-.8,0-1.5-.2-2.1-.5s-1-.8-1.4-1.4c-.3-.6-.5-1.3-.5-2.2s.2-1.5.5-2.2c.3-.6.8-1.1,1.3-1.4.6-.3,1.3-.5,2-.5s1,0,1.5.3c.5.2.9.4,1.2.8s.6.8.8,1.3.3,1.1.3,1.8v.6h-6.7v-1.4h4.7c0-.3,0-.6-.2-.8-.1-.2-.3-.4-.6-.6-.2-.1-.5-.2-.8-.2s-.6,0-.9.2c-.3.2-.5.4-.6.6-.1.3-.2.5-.2.9v1.3c0,.4,0,.7.2,1,.1.3.4.5.6.7s.6.2,1,.2.5,0,.7-.1c.2,0,.4-.2.5-.3.1-.1.3-.3.3-.5h2c-.1.6-.3,1.1-.6,1.4s-.7.6-1.2.9c-.5.2-1.1.3-1.7.3Z"/>
      </g>
    </g>
  </g>
</svg>