<svg width="572" height="383" viewBox="0 0 572 383" fill="none" xmlns="http://www.w3.org/2000/svg">
<g filter="url(#filter0_f_2631_39836)">
<path d="M210.25 378.25L319.711 314.933L167 238L56.25 285.5L210.25 378.25Z" fill="#F2F2F2"/>
</g>
<path d="M309.71 307.664L210.23 365.099V187.125L309.71 129.691V307.664Z" fill="#999999"/>
<path d="M210.23 187.125V365.055L161.461 336.829L55.7617 275.804V74.1968L161.461 151.568V151.494L210.23 187.125Z" fill="#B3B3B3"/>
<path d="M55.7617 275.79V281.737L210.23 371V365.056L55.7617 275.79ZM98.5553 306.228L84.0483 297.852V292.382L93.5226 297.852L98.5553 300.758V306.228ZM164.928 344.549L150.421 336.173V330.703L164.928 339.078V344.549Z" fill="#808080"/>
<path d="M93.5251 297.852L98.5578 300.757V306.228L84.0508 297.852V292.382L93.5251 297.852Z" fill="#999999"/>
<path d="M164.929 339.078V344.549L150.422 336.173V330.703L164.929 339.078Z" fill="#999999"/>
<path d="M89.2055 295.359L84.0508 297.852V292.382L89.2055 295.359Z" fill="#999999"/>
<path d="M164.929 339.078V344.549L150.422 336.173V330.703L164.929 339.078Z" fill="white"/>
<path d="M98.5578 300.757V306.228L84.0508 297.852L89.2055 295.359L93.5251 297.852L98.5578 300.757Z" fill="#4D4D4D"/>
<path d="M309.71 313.609L210.23 371V365.053L309.71 307.664V313.609Z" fill="#808080"/>
<g filter="url(#filter1_d_2631_39836)">
<path d="M294.745 322.003L280.238 330.379V324.909L294.745 316.533V322.003Z" fill="white"/>
</g>
<path d="M247.093 349.512L232.586 357.888V352.418L247.093 344.042V349.512Z" fill="white"/>
<path d="M210.231 187.125V182.368L55.7656 69.4706V74.2257L210.231 187.125Z" fill="#999999"/>
<path d="M210.23 187.125V182.368L309.71 124.933V129.691L210.23 187.125Z" fill="#808080"/>
<path d="M210.231 182.368L309.71 124.933L155.245 12L55.7656 69.4346L210.231 182.368Z" fill="#F2F2F2"/>
<path d="M265.895 319.778L296.656 301.949C297.173 301.65 297.491 301.1 297.491 300.501V255.901C297.491 254.611 296.094 253.807 294.979 254.453L264.536 272.095C263.272 272.827 262.492 274.18 262.492 275.642V317.818C262.492 319.565 264.383 320.654 265.893 319.778H265.895Z" fill="#043E88"/>
<path d="M268.07 310.655L288.381 322.382V303.299L280.043 283.953L268.07 277.039V310.655Z" fill="#0552B5"/>
<path d="M292.66 262.85L304.632 269.747L280.043 283.953L268.07 277.054L292.66 262.85Z" fill="#7CC4FA"/>
<path d="M288.379 303.299L313.554 288.756V307.841L288.379 322.382V303.299Z" fill="#7CC4FA"/>
<path d="M280.043 283.953L304.632 269.748L313.556 288.842L288.381 303.383L280.043 283.953Z" fill="#BAE3FF"/>
<path d="M265.895 267.869L296.656 250.04C297.173 249.741 297.491 249.191 297.491 248.592V203.992C297.491 202.702 296.094 201.898 294.979 202.544L264.536 220.186C263.272 220.919 262.492 222.271 262.492 223.733V265.909C262.492 267.656 264.383 268.745 265.893 267.869H265.895Z" fill="#043E88"/>
<path d="M268.07 258.746L288.381 270.473V251.39L280.043 232.044L268.07 225.13V258.746Z" fill="#0552B5"/>
<path d="M292.66 210.942L304.632 217.839L280.043 232.044L268.07 225.145L292.66 210.942Z" fill="#7CC4FA"/>
<path d="M288.379 251.39L313.554 236.847V255.932L288.379 270.473V251.39Z" fill="#7CC4FA"/>
<path d="M280.043 232.044L304.632 217.839L313.556 236.933L288.381 251.474L280.043 232.044Z" fill="#BAE3FF"/>
<path d="M265.895 216.783L296.656 198.954C297.173 198.655 297.491 198.105 297.491 197.507V152.906C297.491 151.616 296.094 150.812 294.979 151.458L264.536 169.1C263.272 169.833 262.492 171.185 262.492 172.647V214.823C262.492 216.57 264.383 217.659 265.893 216.783H265.895Z" fill="#043E88"/>
<path d="M268.07 207.661L288.381 219.387V200.304L280.043 180.956L268.07 174.045V207.661Z" fill="#0552B5"/>
<path d="M292.66 159.854L304.632 166.753L280.043 180.956L268.07 174.059L292.66 159.854Z" fill="#E6F6FF"/>
<path d="M288.379 200.304L313.554 185.761V204.844L288.379 219.387V200.304Z" fill="#7CC4FA"/>
<path d="M280.043 180.956L304.632 166.753L313.556 185.845L288.381 200.388L280.043 180.956Z" fill="#BAE3FF"/>
<path d="M225.098 341.778L255.859 323.949C256.376 323.65 256.695 323.1 256.695 322.501V277.901C256.695 276.611 255.297 275.807 254.182 276.453L223.739 294.095C222.475 294.827 221.695 296.179 221.695 297.642V339.818C221.695 341.565 223.586 342.654 225.096 341.778H225.098Z" fill="#043E88"/>
<path d="M227.273 332.655L247.584 344.381V325.299L239.246 305.953L227.273 299.039V332.655Z" fill="#0552B5"/>
<path d="M251.863 284.848L263.835 291.747L239.246 305.953L227.273 299.054L251.863 284.848Z" fill="#7CC4FA"/>
<path d="M247.582 325.299L272.758 310.756V329.841L247.582 344.381V325.299Z" fill="#7CC4FA"/>
<path d="M239.246 305.953L263.835 291.747L272.759 310.84L247.584 325.383L239.246 305.953Z" fill="#BAE3FF"/>
<path d="M225.098 289.869L255.859 272.04C256.376 271.741 256.695 271.19 256.695 270.592V225.992C256.695 224.702 255.297 223.898 254.182 224.544L223.739 242.186C222.475 242.918 221.695 244.27 221.695 245.733V287.909C221.695 289.656 223.586 290.745 225.096 289.869H225.098Z" fill="#043E88"/>
<path d="M227.273 280.746L247.584 292.472V273.39L239.246 254.042L227.273 247.13V280.746Z" fill="#0552B5"/>
<path d="M251.863 232.939L263.835 239.838L239.246 254.042L227.273 247.145L251.863 232.939Z" fill="#7CC4FA"/>
<path d="M247.582 273.39L272.758 258.847V277.932L247.582 292.473V273.39Z" fill="#7CC4FA"/>
<path d="M239.246 254.041L263.835 239.838L272.759 258.931L247.584 273.474L239.246 254.041Z" fill="#BAE3FF"/>
<path d="M225.098 238.781L255.859 220.952C256.376 220.653 256.695 220.103 256.695 219.504V174.904C256.695 173.614 255.297 172.81 254.182 173.456L223.739 191.098C222.475 191.83 221.695 193.182 221.695 194.645V236.821C221.695 238.568 223.586 239.657 225.096 238.781H225.098Z" fill="#043E88"/>
<path d="M227.273 229.661L247.584 241.387V222.302L239.246 202.956L227.273 196.045V229.661Z" fill="#0552B5"/>
<path d="M251.863 181.853L263.835 188.753L239.246 202.956L227.273 196.056L251.863 181.853Z" fill="#E6F6FF"/>
<path d="M247.582 222.302L272.758 207.761V226.844L247.582 241.387V222.302Z" fill="#7CC4FA"/>
<path d="M239.246 202.956L263.835 188.753L272.759 207.845L247.584 222.388L239.246 202.956Z" fill="#BAE3FF"/>
<path d="M109.616 303.23L58.5781 275.757V91.8247L109.616 123.876V303.23Z" fill="#043E88"/>
<path d="M105.734 296.5L72.6758 297.192L105.734 239.022V296.5Z" fill="#0552B5"/>
<path d="M61.5037 268.963L28.4453 269.654L61.5037 211.487V268.963Z" fill="#043E88"/>
<path d="M72.6748 297.192L28.4453 269.654L61.5037 211.487L105.733 239.022L72.6748 297.192Z" fill="url(#paint0_linear_2631_39836)"/>
<path d="M105.734 239.784L72.6758 240.475L105.734 182.306V239.784Z" fill="#0552B5"/>
<path d="M61.5037 212.246L28.4453 212.938L61.5037 154.771V212.246Z" fill="#043E88"/>
<path d="M72.6748 240.475L28.4453 212.938L61.5037 154.771L105.733 182.306L72.6748 240.475Z" fill="url(#paint1_linear_2631_39836)"/>
<path d="M105.734 183.067L72.6758 183.758L105.734 125.589V183.067Z" fill="#0552B5"/>
<path d="M61.5037 155.529L28.4453 156.221L61.5037 98.0538V155.529Z" fill="#043E88"/>
<path d="M72.6748 183.758L28.4453 156.221L61.5037 98.0538L105.733 125.589L72.6748 183.758Z" fill="#2A7DE1"/>
<g clip-path="url(#clip0_2631_39836)">
<path d="M305 82L368.45 45.26H411.86" stroke="#002159" stroke-miterlimit="10" stroke-linecap="round" stroke-dasharray="2 2"/>
<path d="M413.801 45.26H415.801" stroke="#002159" stroke-miterlimit="10" stroke-linecap="round"/>
<path d="M415.588 49.02C417.665 49.02 419.348 47.3366 419.348 45.26C419.348 43.1834 417.665 41.5 415.588 41.5C413.512 41.5 411.828 43.1834 411.828 45.26C411.828 47.3366 413.512 49.02 415.588 49.02Z" fill="white"/>
<path d="M415.588 49.52C413.238 49.52 411.328 47.61 411.328 45.26C411.328 42.91 413.238 41 415.588 41C417.938 41 419.848 42.91 419.848 45.26C419.848 47.61 417.938 49.52 415.588 49.52C417.938 49.52 413.238 49.52 415.588 49.52ZM415.588 42C413.788 42 412.328 43.46 412.328 45.26C412.328 47.06 413.788 48.52 415.588 48.52C417.388 48.52 418.848 47.06 418.848 45.26C418.848 43.46 417.388 42 415.588 42C417.388 42 413.788 42 415.588 42Z" fill="#002159"/>
</g>
<path d="M442.977 7.91233V31.1851H437.364V13.1623H437.227L432.023 16.3441V11.4805L437.761 7.91233H442.977ZM452.255 13.7305L455.13 19.4805L458.107 13.7305H463.709L458.834 22.4578L463.891 31.1851H458.334L455.13 25.3896L452.005 31.1851H446.369L451.437 22.4578L446.619 13.7305H452.255Z" fill="#002159"/>
<path d="M432.909 51.1851V39.5487H436.841C437.75 39.5487 438.496 39.704 439.08 40.0146C439.663 40.3214 440.095 40.7438 440.375 41.2816C440.655 41.8195 440.795 42.4313 440.795 43.1169C440.795 43.8025 440.655 44.4104 440.375 44.9407C440.095 45.471 439.665 45.8877 439.085 46.1907C438.506 46.49 437.765 46.6396 436.864 46.6396H433.682V45.3669H436.818C437.439 45.3669 437.939 45.276 438.318 45.0941C438.701 44.9123 438.977 44.6548 439.148 44.3214C439.322 43.9843 439.409 43.5828 439.409 43.1169C439.409 42.651 439.322 42.2438 439.148 41.8953C438.973 41.5468 438.695 41.2779 438.312 41.0885C437.93 40.8953 437.424 40.7987 436.795 40.7987H434.318V51.1851H432.909ZM438.386 45.9578L441.25 51.1851H439.614L436.795 45.9578H438.386ZM445.21 51.3896C444.657 51.3896 444.155 51.2854 443.704 51.0771C443.253 50.865 442.895 50.5601 442.63 50.1623C442.365 49.7608 442.233 49.276 442.233 48.7078C442.233 48.2078 442.331 47.8025 442.528 47.4919C442.725 47.1775 442.988 46.9313 443.318 46.7532C443.647 46.5752 444.011 46.4426 444.409 46.3555C444.81 46.2646 445.214 46.1926 445.619 46.1396C446.149 46.0714 446.579 46.0203 446.909 45.9862C447.242 45.9483 447.484 45.8858 447.636 45.7987C447.791 45.7116 447.869 45.5601 447.869 45.3441V45.2987C447.869 44.7381 447.716 44.3025 447.409 43.9919C447.106 43.6813 446.645 43.526 446.028 43.526C445.388 43.526 444.886 43.6661 444.522 43.9464C444.159 44.2267 443.903 44.526 443.755 44.8441L442.483 44.3896C442.71 43.8593 443.013 43.4464 443.392 43.151C443.774 42.8517 444.191 42.6434 444.642 42.526C445.096 42.4048 445.543 42.3441 445.983 42.3441C446.263 42.3441 446.585 42.3782 446.948 42.4464C447.316 42.5108 447.67 42.6453 448.011 42.8498C448.356 43.0544 448.642 43.3631 448.869 43.776C449.096 44.1888 449.21 44.7419 449.21 45.4351V51.1851H447.869V50.0032H447.801C447.71 50.1926 447.558 50.3953 447.346 50.6112C447.134 50.8271 446.852 51.0108 446.5 51.1623C446.147 51.3138 445.717 51.3896 445.21 51.3896ZM445.414 50.1851C445.945 50.1851 446.392 50.0809 446.755 49.8726C447.123 49.6642 447.399 49.3953 447.585 49.0657C447.774 48.7362 447.869 48.3896 447.869 48.026V46.7987C447.812 46.8669 447.687 46.9294 447.494 46.9862C447.305 47.0392 447.085 47.0866 446.835 47.1282C446.589 47.1661 446.348 47.2002 446.113 47.2305C445.882 47.257 445.695 47.2798 445.551 47.2987C445.202 47.3441 444.876 47.418 444.573 47.5203C444.274 47.6188 444.032 47.7684 443.846 47.9691C443.664 48.1661 443.573 48.4351 443.573 48.776C443.573 49.2419 443.746 49.5941 444.091 49.8328C444.439 50.0676 444.88 50.1851 445.414 50.1851ZM454.883 51.3669C454.065 51.3669 453.36 51.1737 452.769 50.7873C452.178 50.401 451.724 49.8688 451.405 49.1907C451.087 48.5127 450.928 47.7381 450.928 46.8669C450.928 45.9805 451.091 45.1983 451.417 44.5203C451.746 43.8385 452.205 43.3063 452.792 42.9237C453.383 42.5373 454.072 42.3441 454.86 42.3441C455.474 42.3441 456.027 42.4578 456.519 42.6851C457.012 42.9123 457.415 43.2305 457.729 43.6396C458.044 44.0487 458.239 44.526 458.315 45.0714H456.974C456.871 44.6737 456.644 44.3214 456.292 44.0146C455.943 43.704 455.474 43.5487 454.883 43.5487C454.36 43.5487 453.902 43.6851 453.508 43.9578C453.118 44.2267 452.813 44.6074 452.593 45.0998C452.377 45.5885 452.269 46.1623 452.269 46.8214C452.269 47.4957 452.375 48.0828 452.587 48.5828C452.803 49.0828 453.106 49.471 453.496 49.7476C453.89 50.0241 454.352 50.1623 454.883 50.1623C455.231 50.1623 455.548 50.1017 455.832 49.9805C456.116 49.8593 456.356 49.6851 456.553 49.4578C456.75 49.2305 456.89 48.9578 456.974 48.6396H458.315C458.239 49.1548 458.051 49.6188 457.752 50.0316C457.457 50.4407 457.065 50.7665 456.576 51.0089C456.091 51.2476 455.527 51.3669 454.883 51.3669ZM461.205 48.0032L461.182 46.3441H461.455L465.273 42.4578H466.932L462.864 46.5714H462.75L461.205 48.0032ZM459.955 51.1851V39.5487H461.296V51.1851H459.955ZM465.5 51.1851L462.091 46.8669L463.046 45.9351L467.205 51.1851H465.5ZM468.338 51.1851V42.4578H469.679V51.1851H468.338ZM469.02 41.0032C468.758 41.0032 468.533 40.9142 468.344 40.7362C468.158 40.5582 468.065 40.3441 468.065 40.0941C468.065 39.8441 468.158 39.6301 468.344 39.4521C468.533 39.2741 468.758 39.1851 469.02 39.1851C469.281 39.1851 469.505 39.2741 469.69 39.4521C469.88 39.6301 469.974 39.8441 469.974 40.0941C469.974 40.3441 469.88 40.5582 469.69 40.7362C469.505 40.9142 469.281 41.0032 469.02 41.0032ZM473.156 45.9351V51.1851H471.815V42.4578H473.11V43.8214H473.224C473.428 43.3782 473.739 43.0222 474.156 42.7532C474.572 42.4805 475.11 42.3441 475.769 42.3441C476.36 42.3441 476.877 42.4654 477.32 42.7078C477.764 42.9464 478.108 43.3101 478.355 43.7987C478.601 44.2835 478.724 44.8972 478.724 45.6396V51.1851H477.383V45.7305C477.383 45.0449 477.205 44.5108 476.849 44.1282C476.493 43.7419 476.004 43.5487 475.383 43.5487C474.955 43.5487 474.572 43.6415 474.235 43.8271C473.902 44.0127 473.639 44.2835 473.445 44.6396C473.252 44.9957 473.156 45.4275 473.156 45.9351ZM484.377 54.6396C483.729 54.6396 483.172 54.5563 482.706 54.3896C482.241 54.2267 481.852 54.0108 481.542 53.7419C481.235 53.4767 480.991 53.1926 480.809 52.8896L481.877 52.1396C481.998 52.2987 482.151 52.4805 482.337 52.6851C482.523 52.8934 482.776 53.0733 483.098 53.2248C483.424 53.3801 483.85 53.4578 484.377 53.4578C485.081 53.4578 485.663 53.2873 486.121 52.9464C486.58 52.6055 486.809 52.0714 486.809 51.3441V49.5714H486.695C486.597 49.7305 486.456 49.9275 486.275 50.1623C486.097 50.3934 485.839 50.5998 485.502 50.7816C485.169 50.9597 484.718 51.0487 484.15 51.0487C483.445 51.0487 482.812 50.882 482.252 50.5487C481.695 50.2154 481.254 49.7305 480.928 49.0941C480.606 48.4578 480.445 47.6851 480.445 46.776C480.445 45.882 480.602 45.1036 480.917 44.4407C481.231 43.7741 481.669 43.2589 482.229 42.8953C482.79 42.5279 483.437 42.3441 484.172 42.3441C484.741 42.3441 485.191 42.4388 485.525 42.6282C485.862 42.8138 486.119 43.026 486.297 43.2646C486.479 43.4995 486.619 43.6926 486.718 43.8441H486.854V42.4578H488.15V51.4351C488.15 52.1851 487.979 52.7949 487.638 53.2646C487.301 53.7381 486.847 54.0847 486.275 54.3044C485.706 54.5279 485.074 54.6396 484.377 54.6396ZM484.331 49.8441C484.869 49.8441 485.324 49.721 485.695 49.4748C486.066 49.2286 486.348 48.8745 486.542 48.4123C486.735 47.9502 486.831 47.3972 486.831 46.7532C486.831 46.1245 486.737 45.5695 486.547 45.0885C486.358 44.6074 486.078 44.2305 485.706 43.9578C485.335 43.6851 484.877 43.5487 484.331 43.5487C483.763 43.5487 483.29 43.6926 482.911 43.9805C482.536 44.2684 482.254 44.6548 482.064 45.1396C481.879 45.6245 481.786 46.1623 481.786 46.7532C481.786 47.3593 481.881 47.8953 482.07 48.3612C482.263 48.8233 482.547 49.187 482.922 49.4521C483.301 49.7135 483.771 49.8441 484.331 49.8441ZM501.01 42.4578C500.941 41.882 500.665 41.4351 500.18 41.1169C499.695 40.7987 499.101 40.6396 498.396 40.6396C497.881 40.6396 497.43 40.7229 497.044 40.8896C496.661 41.0563 496.362 41.2854 496.146 41.5771C495.934 41.8688 495.828 42.2002 495.828 42.5714C495.828 42.882 495.902 43.1491 496.049 43.3726C496.201 43.5923 496.394 43.776 496.629 43.9237C496.864 44.0676 497.11 44.187 497.368 44.2816C497.625 44.3726 497.862 44.4464 498.078 44.5032L499.26 44.8214C499.563 44.901 499.9 45.0108 500.271 45.151C500.646 45.2911 501.004 45.4824 501.345 45.7248C501.69 45.9635 501.974 46.2703 502.197 46.6453C502.421 47.0203 502.532 47.4805 502.532 48.026C502.532 48.6548 502.368 49.2229 502.038 49.7305C501.712 50.2381 501.235 50.6415 500.606 50.9407C499.981 51.24 499.222 51.3896 498.328 51.3896C497.494 51.3896 496.773 51.2551 496.163 50.9862C495.557 50.7173 495.08 50.3423 494.731 49.8612C494.386 49.3801 494.191 48.8214 494.146 48.1851H495.601C495.638 48.6245 495.786 48.9881 496.044 49.276C496.305 49.5601 496.635 49.7722 497.032 49.9123C497.434 50.0487 497.866 50.1169 498.328 50.1169C498.866 50.1169 499.349 50.0298 499.777 49.8555C500.205 49.6775 500.544 49.4313 500.794 49.1169C501.044 48.7987 501.169 48.4275 501.169 48.0032C501.169 47.6169 501.061 47.3025 500.845 47.0601C500.629 46.8176 500.345 46.6207 499.993 46.4691C499.64 46.3176 499.26 46.1851 498.851 46.0714L497.419 45.6623C496.51 45.401 495.79 45.0279 495.26 44.543C494.729 44.0582 494.464 43.4237 494.464 42.6396C494.464 41.9881 494.64 41.4199 494.993 40.9351C495.349 40.4464 495.826 40.0676 496.424 39.7987C497.027 39.526 497.699 39.3896 498.441 39.3896C499.191 39.3896 499.858 39.5241 500.441 39.793C501.025 40.0582 501.487 40.4218 501.828 40.8839C502.172 41.346 502.354 41.8707 502.373 42.4578H501.01ZM505.688 45.9351V51.1851H504.347V39.5487H505.688V43.8214H505.802C506.006 43.3707 506.313 43.0127 506.722 42.7476C507.135 42.4786 507.684 42.3441 508.37 42.3441C508.965 42.3441 509.486 42.4635 509.933 42.7021C510.379 42.937 510.726 43.2987 510.972 43.7873C511.222 44.2722 511.347 44.8896 511.347 45.6396V51.1851H510.006V45.7305C510.006 45.0373 509.826 44.5013 509.467 44.1226C509.111 43.74 508.616 43.5487 507.984 43.5487C507.544 43.5487 507.15 43.6415 506.802 43.8271C506.457 44.0127 506.184 44.2835 505.984 44.6396C505.787 44.9957 505.688 45.4275 505.688 45.9351ZM517.139 51.3669C516.299 51.3669 515.573 51.1813 514.963 50.8101C514.357 50.4351 513.889 49.9123 513.56 49.2419C513.234 48.5676 513.071 47.7835 513.071 46.8896C513.071 45.9957 513.234 45.2078 513.56 44.526C513.889 43.8404 514.348 43.3063 514.935 42.9237C515.526 42.5373 516.215 42.3441 517.003 42.3441C517.458 42.3441 517.907 42.4199 518.35 42.5714C518.793 42.7229 519.196 42.9691 519.56 43.3101C519.924 43.6472 520.213 44.0941 520.429 44.651C520.645 45.2078 520.753 45.8934 520.753 46.7078V47.276H514.026V46.1169H519.389C519.389 45.6245 519.291 45.1851 519.094 44.7987C518.901 44.4123 518.624 44.1074 518.264 43.8839C517.908 43.6604 517.488 43.5487 517.003 43.5487C516.469 43.5487 516.007 43.6813 515.617 43.9464C515.23 44.2078 514.933 44.5487 514.725 44.9691C514.516 45.3896 514.412 45.8404 514.412 46.3214V47.0941C514.412 47.7532 514.526 48.312 514.753 48.7703C514.984 49.2248 515.304 49.5714 515.713 49.8101C516.122 50.0449 516.598 50.1623 517.139 50.1623C517.492 50.1623 517.81 50.1131 518.094 50.0146C518.382 49.9123 518.63 49.7608 518.838 49.5601C519.047 49.3555 519.208 49.1017 519.321 48.7987L520.617 49.1623C520.48 49.6017 520.251 49.9881 519.929 50.3214C519.607 50.651 519.21 50.9085 518.736 51.0941C518.263 51.276 517.73 51.3669 517.139 51.3669ZM523.814 39.5487V51.1851H522.473V39.5487H523.814ZM529.836 42.4578V43.5941H525.132V42.4578H529.836ZM526.541 51.1851V41.2532C526.541 40.7532 526.658 40.3366 526.893 40.0032C527.128 39.6699 527.433 39.4199 527.808 39.2532C528.183 39.0866 528.579 39.0032 528.995 39.0032C529.325 39.0032 529.594 39.0298 529.802 39.0828C530.01 39.1358 530.166 39.1851 530.268 39.2305L529.882 40.3896C529.813 40.3669 529.719 40.3385 529.598 40.3044C529.48 40.2703 529.325 40.2532 529.132 40.2532C528.688 40.2532 528.368 40.365 528.171 40.5885C527.978 40.812 527.882 41.1396 527.882 41.5714V51.1851H526.541Z" fill="#002159"/>
<path d="M432.403 72.3701V71.6031L435.284 68.4497C435.622 68.0803 435.901 67.7593 436.119 67.4866C436.338 67.211 436.5 66.9525 436.605 66.711C436.713 66.4667 436.767 66.211 436.767 65.944C436.767 65.6372 436.693 65.3715 436.545 65.1471C436.401 64.9227 436.202 64.7494 435.949 64.6272C435.696 64.5051 435.412 64.444 435.097 64.444C434.761 64.444 434.469 64.5136 434.219 64.6528C433.972 64.7892 433.78 64.9809 433.643 65.2281C433.51 65.4752 433.443 65.765 433.443 66.0974H432.438C432.438 65.586 432.555 65.1372 432.791 64.7508C433.027 64.3644 433.348 64.0633 433.754 63.8474C434.163 63.6315 434.622 63.5235 435.131 63.5235C435.642 63.5235 436.095 63.6315 436.49 63.8474C436.885 64.0633 437.195 64.3545 437.419 64.721C437.643 65.0874 437.756 65.4951 437.756 65.944C437.756 66.265 437.697 66.5789 437.581 66.8857C437.467 67.1897 437.268 67.5292 436.984 67.9042C436.703 68.2764 436.312 68.7309 435.812 69.2678L433.852 71.3644V71.4326H437.909V72.3701H432.403ZM442.224 72.4894C441.639 72.4894 441.122 72.3857 440.673 72.1784C440.227 71.9681 439.879 71.6798 439.629 71.3133C439.379 70.944 439.256 70.5235 439.259 70.0519C439.256 69.6826 439.328 69.3417 439.476 69.0292C439.624 68.7139 439.825 68.4511 440.081 68.2409C440.34 68.0278 440.628 67.8928 440.946 67.836V67.7849C440.528 67.6769 440.196 67.4426 439.949 67.0818C439.702 66.7181 439.58 66.3048 439.582 65.8417C439.58 65.3985 439.692 65.0022 439.919 64.6528C440.146 64.3034 440.459 64.0278 440.857 63.8261C441.257 63.6244 441.713 63.5235 442.224 63.5235C442.73 63.5235 443.182 63.6244 443.58 63.8261C443.977 64.0278 444.29 64.3034 444.517 64.6528C444.747 65.0022 444.864 65.3985 444.867 65.8417C444.864 66.3048 444.737 66.7181 444.487 67.0818C444.24 67.4426 443.912 67.6769 443.503 67.7849V67.836C443.818 67.8928 444.102 68.0278 444.355 68.2409C444.608 68.4511 444.81 68.7139 444.96 69.0292C445.111 69.3417 445.188 69.6826 445.19 70.0519C445.188 70.5235 445.06 70.944 444.807 71.3133C444.557 71.6798 444.209 71.9681 443.763 72.1784C443.32 72.3857 442.807 72.4894 442.224 72.4894ZM442.224 71.5519C442.619 71.5519 442.96 71.488 443.247 71.3602C443.534 71.2323 443.756 71.0519 443.912 70.819C444.068 70.586 444.148 70.3133 444.151 70.0008C444.148 69.6713 444.063 69.3801 443.895 69.1272C443.727 68.8744 443.499 68.6755 443.209 68.5306C442.922 68.3857 442.594 68.3133 442.224 68.3133C441.852 68.3133 441.52 68.3857 441.227 68.5306C440.938 68.6755 440.709 68.8744 440.541 69.1272C440.376 69.3801 440.296 69.6713 440.298 70.0008C440.296 70.3133 440.371 70.586 440.524 70.819C440.68 71.0519 440.903 71.2323 441.193 71.3602C441.483 71.488 441.827 71.5519 442.224 71.5519ZM442.224 67.4099C442.537 67.4099 442.814 67.3474 443.055 67.2224C443.3 67.0974 443.492 66.9227 443.631 66.6982C443.77 66.4738 443.841 66.211 443.844 65.9099C443.841 65.6144 443.771 65.3573 443.635 65.1386C443.499 64.917 443.31 64.7465 443.068 64.6272C442.827 64.5051 442.546 64.444 442.224 64.444C441.898 64.444 441.612 64.5051 441.368 64.6272C441.124 64.7465 440.935 64.917 440.801 65.1386C440.668 65.3573 440.602 65.6144 440.605 65.9099C440.602 66.211 440.669 66.4738 440.805 66.6982C440.945 66.9227 441.136 67.0974 441.381 67.2224C441.625 67.3474 441.906 67.4099 442.224 67.4099ZM447.351 65.8247L448.919 68.5008L450.487 65.8247H451.646L449.532 69.0974L451.646 72.3701H450.487L448.919 69.8303L447.351 72.3701H446.192L448.271 69.0974L446.192 65.8247H447.351ZM460.885 65.8247C460.834 65.3928 460.627 65.0576 460.263 64.819C459.899 64.5803 459.453 64.461 458.925 64.461C458.539 64.461 458.201 64.5235 457.911 64.6485C457.624 64.7735 457.399 64.9454 457.237 65.1642C457.078 65.3829 456.999 65.6315 456.999 65.9099C456.999 66.1428 457.054 66.3431 457.165 66.5107C457.279 66.6755 457.424 66.8133 457.6 66.9241C457.776 67.032 457.96 67.1215 458.154 67.1926C458.347 67.2607 458.524 67.3161 458.686 67.3588L459.573 67.5974C459.8 67.657 460.053 67.7394 460.331 67.8445C460.612 67.9497 460.881 68.0931 461.137 68.2749C461.395 68.4539 461.608 68.684 461.776 68.9653C461.943 69.2465 462.027 69.5917 462.027 70.0008C462.027 70.4724 461.904 70.8985 461.656 71.2792C461.412 71.6599 461.054 71.9624 460.583 72.1869C460.114 72.4113 459.544 72.5235 458.874 72.5235C458.249 72.5235 457.708 72.4227 457.25 72.221C456.796 72.0193 456.438 71.738 456.176 71.3772C455.918 71.0164 455.772 70.5974 455.737 70.1201H456.828C456.857 70.4497 456.968 70.7224 457.161 70.9383C457.357 71.1514 457.604 71.3105 457.902 71.4156C458.203 71.5178 458.527 71.569 458.874 71.569C459.277 71.569 459.639 71.5036 459.96 71.373C460.281 71.2394 460.536 71.0548 460.723 70.819C460.911 70.5803 461.004 70.3019 461.004 69.9838C461.004 69.694 460.924 69.4582 460.762 69.2764C460.6 69.0945 460.387 68.9468 460.122 68.8332C459.858 68.7195 459.573 68.6201 459.266 68.5349L458.192 68.2281C457.51 68.032 456.97 67.7522 456.573 67.3886C456.175 67.0249 455.976 66.5491 455.976 65.961C455.976 65.4724 456.108 65.0463 456.372 64.6826C456.639 64.3161 456.997 64.032 457.446 63.8303C457.898 63.6258 458.402 63.5235 458.959 63.5235C459.522 63.5235 460.022 63.6244 460.459 63.8261C460.897 64.0249 461.243 64.2977 461.499 64.6443C461.757 64.9909 461.894 65.3843 461.908 65.8247H460.885ZM466.44 63.6428V72.3701H465.383V64.7508H465.332L463.201 66.1656V65.0917L465.383 63.6428H466.44ZM471.488 63.5235C471.846 63.5264 472.204 63.5945 472.562 63.7281C472.92 63.8616 473.246 64.0832 473.542 64.3928C473.837 64.6997 474.075 65.1187 474.254 65.6499C474.433 66.1812 474.522 66.8474 474.522 67.6485C474.522 68.4241 474.448 69.113 474.3 69.7153C474.156 70.3147 473.945 70.8204 473.67 71.2323C473.397 71.6443 473.065 71.9568 472.673 72.1698C472.283 72.3829 471.843 72.4894 471.352 72.4894C470.863 72.4894 470.427 72.3928 470.043 72.1997C469.663 72.0036 469.35 71.7323 469.106 71.3857C468.864 71.0363 468.71 70.6315 468.641 70.1713H469.681C469.775 70.5718 469.961 70.9028 470.239 71.1642C470.521 71.4227 470.891 71.5519 471.352 71.5519C472.025 71.5519 472.556 71.2579 472.945 70.6698C473.337 70.0818 473.533 69.2508 473.533 68.1769H473.465C473.306 68.4156 473.117 68.6215 472.898 68.7948C472.68 68.9681 472.437 69.1017 472.17 69.1954C471.903 69.2892 471.619 69.336 471.317 69.336C470.817 69.336 470.359 69.2124 469.941 68.9653C469.526 68.7153 469.194 68.373 468.944 67.9383C468.697 67.5008 468.573 67.0008 468.573 66.4383C468.573 65.9042 468.692 65.4156 468.931 64.9724C469.173 64.5264 469.511 64.1713 469.945 63.907C470.383 63.6428 470.897 63.515 471.488 63.5235ZM471.488 64.461C471.13 64.461 470.808 64.5505 470.521 64.7295C470.236 64.9056 470.011 65.1443 469.843 65.4454C469.678 65.7437 469.596 66.0747 469.596 66.4383C469.596 66.8019 469.675 67.1329 469.835 67.4312C469.996 67.7267 470.217 67.9624 470.495 68.1386C470.776 68.3119 471.096 68.3985 471.454 68.3985C471.724 68.3985 471.975 68.346 472.208 68.2409C472.441 68.1329 472.644 67.9866 472.817 67.8019C472.994 67.6144 473.131 67.4028 473.231 67.167C473.33 66.9284 473.38 66.6798 473.38 66.4213C473.38 66.0803 473.298 65.7607 473.133 65.4624C472.971 65.1642 472.746 64.9227 472.46 64.738C472.175 64.5534 471.852 64.461 471.488 64.461ZM479.246 63.6428H480.508L483.473 70.8872H483.576L486.542 63.6428H487.803V72.3701H486.814V65.7394H486.729L484.002 72.3701H483.047L480.32 65.7394H480.235V72.3701H479.246V63.6428ZM489.546 72.3701V65.8247H490.551V72.3701H489.546ZM490.057 64.7338C489.861 64.7338 489.692 64.667 489.55 64.5335C489.411 64.3999 489.341 64.2394 489.341 64.0519C489.341 63.8644 489.411 63.7039 489.55 63.5704C489.692 63.4369 489.861 63.3701 490.057 63.3701C490.253 63.3701 490.421 63.4369 490.56 63.5704C490.702 63.7039 490.773 63.8644 490.773 64.0519C490.773 64.2394 490.702 64.3999 490.56 64.5335C490.421 64.667 490.253 64.7338 490.057 64.7338ZM493.159 68.4326V72.3701H492.153V65.8247H493.125V66.8474H493.21C493.363 66.515 493.596 66.248 493.909 66.0463C494.221 65.8417 494.625 65.7394 495.119 65.7394C495.562 65.7394 495.95 65.8303 496.283 66.0122C496.615 66.1911 496.873 66.4639 497.058 66.8303C497.243 67.194 497.335 67.6542 497.335 68.211V72.3701H496.329V68.2792C496.329 67.765 496.196 67.3644 495.929 67.0775C495.662 66.7877 495.295 66.6428 494.829 66.6428C494.508 66.6428 494.221 66.7124 493.969 66.8517C493.719 66.9909 493.521 67.194 493.376 67.461C493.231 67.7281 493.159 68.0519 493.159 68.4326ZM501.677 72.5065C501.046 72.5065 500.502 72.3673 500.045 72.0889C499.59 71.8076 499.24 71.4156 498.992 70.9127C498.748 70.407 498.626 69.819 498.626 69.1485C498.626 68.4781 498.748 67.8872 498.992 67.3758C499.24 66.8616 499.583 66.461 500.024 66.1741C500.467 65.8843 500.984 65.7394 501.575 65.7394C501.916 65.7394 502.252 65.7963 502.585 65.9099C502.917 66.0235 503.22 66.2082 503.492 66.4639C503.765 66.7167 503.983 67.0519 504.144 67.4695C504.306 67.8872 504.387 68.4014 504.387 69.0122V69.4383H499.342V68.569H503.365C503.365 68.1997 503.291 67.8701 503.143 67.5803C502.998 67.2906 502.791 67.0619 502.521 66.8943C502.254 66.7267 501.938 66.6428 501.575 66.6428C501.174 66.6428 500.828 66.7423 500.535 66.9411C500.245 67.1372 500.022 67.3928 499.866 67.7082C499.71 68.0235 499.632 68.3616 499.632 68.7224V69.3019C499.632 69.7963 499.717 70.2153 499.887 70.559C500.061 70.8999 500.301 71.1599 500.608 71.3389C500.914 71.515 501.271 71.6031 501.677 71.6031C501.941 71.6031 502.18 71.5661 502.393 71.4923C502.609 71.4156 502.795 71.3019 502.951 71.1514C503.108 70.998 503.228 70.8076 503.313 70.5803L504.285 70.8531C504.183 71.1826 504.011 71.4724 503.769 71.7224C503.528 71.9695 503.23 72.1627 502.875 72.3019C502.519 72.4383 502.12 72.5065 501.677 72.5065ZM505.677 72.3701V65.8247H506.649V66.8133H506.717C506.836 66.4894 507.052 66.2267 507.365 66.0249C507.677 65.8232 508.029 65.7224 508.421 65.7224C508.495 65.7224 508.588 65.7238 508.698 65.7267C508.809 65.7295 508.893 65.7338 508.95 65.7394V66.7622C508.916 66.7536 508.838 66.7409 508.716 66.7238C508.596 66.7039 508.47 66.694 508.336 66.694C508.018 66.694 507.734 66.7607 507.484 66.8943C507.237 67.0249 507.041 67.2068 506.896 67.4397C506.754 67.6698 506.683 67.9326 506.683 68.2281V72.3701H505.677ZM514.538 67.2906L513.635 67.5463C513.578 67.3957 513.494 67.2494 513.384 67.1073C513.276 66.9624 513.128 66.8431 512.94 66.7494C512.753 66.6556 512.513 66.6088 512.22 66.6088C511.82 66.6088 511.486 66.7011 511.219 66.8857C510.955 67.0676 510.822 67.2991 510.822 67.5803C510.822 67.8303 510.913 68.0278 511.095 68.1727C511.277 68.3176 511.561 68.4383 511.947 68.5349L512.919 68.7735C513.504 68.9156 513.94 69.1329 514.227 69.4255C514.514 69.7153 514.658 70.0889 514.658 70.5463C514.658 70.9213 514.55 71.2565 514.334 71.5519C514.121 71.8474 513.822 72.0803 513.439 72.2508C513.055 72.4213 512.609 72.5065 512.101 72.5065C511.433 72.5065 510.881 72.3616 510.443 72.0718C510.006 71.782 509.729 71.3588 509.612 70.8019L510.567 70.5633C510.658 70.9156 510.83 71.1798 511.082 71.3559C511.338 71.532 511.672 71.6201 512.084 71.6201C512.553 71.6201 512.925 71.5207 513.2 71.3218C513.479 71.1201 513.618 70.8786 513.618 70.5974C513.618 70.3701 513.538 70.1798 513.379 70.0264C513.22 69.8701 512.976 69.7536 512.646 69.6769L511.555 69.4213C510.956 69.2792 510.516 69.059 510.234 68.7607C509.956 68.4596 509.817 68.0832 509.817 67.6315C509.817 67.2622 509.92 66.9355 510.128 66.6514C510.338 66.3673 510.624 66.1443 510.984 65.9823C511.348 65.8204 511.76 65.7394 512.22 65.7394C512.868 65.7394 513.376 65.8815 513.746 66.1656C514.118 66.4497 514.382 66.8247 514.538 67.2906ZM435.352 88.4894C434.79 88.4894 434.288 88.3928 433.848 88.1997C433.411 88.0065 433.063 87.738 432.804 87.3943C432.548 87.0477 432.409 86.6457 432.386 86.1883H433.46C433.483 86.4695 433.58 86.7124 433.75 86.917C433.92 87.1187 434.143 87.2749 434.419 87.3857C434.695 87.4965 435 87.5519 435.335 87.5519C435.71 87.5519 436.043 87.4866 436.332 87.3559C436.622 87.2252 436.849 87.0434 437.014 86.8105C437.179 86.5775 437.261 86.3076 437.261 86.0008C437.261 85.6798 437.182 85.3971 437.023 85.1528C436.864 84.9056 436.631 84.7124 436.324 84.5732C436.017 84.434 435.642 84.3644 435.199 84.3644H434.5V83.4269H435.199C435.545 83.4269 435.849 83.3644 436.111 83.2394C436.375 83.1144 436.581 82.9383 436.729 82.711C436.879 82.4838 436.955 82.2167 436.955 81.9099C436.955 81.6144 436.889 81.3573 436.759 81.1386C436.628 80.9198 436.443 80.7494 436.205 80.6272C435.969 80.5051 435.69 80.444 435.369 80.444C435.068 80.444 434.784 80.4994 434.517 80.6102C434.253 80.7181 434.037 80.8758 433.869 81.0832C433.702 81.2877 433.611 81.5349 433.597 81.8247H432.574C432.591 81.3673 432.729 80.9667 432.987 80.623C433.246 80.2764 433.584 80.0065 434.001 79.8133C434.422 79.6201 434.884 79.5235 435.386 79.5235C435.926 79.5235 436.389 79.6329 436.776 79.8517C437.162 80.0676 437.459 80.3531 437.666 80.7082C437.874 81.0633 437.977 81.4468 437.977 81.8588C437.977 82.3502 437.848 82.7693 437.589 83.1159C437.334 83.4624 436.986 83.7025 436.545 83.836V83.9042C437.097 83.9951 437.527 84.2295 437.837 84.6073C438.146 84.9823 438.301 85.4468 438.301 86.0008C438.301 86.4752 438.172 86.9014 437.913 87.2792C437.658 87.6542 437.308 87.9497 436.865 88.1656C436.422 88.3815 435.918 88.4894 435.352 88.4894ZM442.702 88.4894C442.344 88.4838 441.986 88.4156 441.628 88.2849C441.27 88.1542 440.943 87.934 440.648 87.6244C440.352 87.3119 440.115 86.89 439.936 86.3588C439.757 85.8247 439.668 85.1542 439.668 84.3474C439.668 83.5747 439.74 82.89 439.885 82.2934C440.03 81.694 440.24 81.1897 440.516 80.7806C440.791 80.3687 441.124 80.0562 441.513 79.8431C441.905 79.6301 442.347 79.5235 442.838 79.5235C443.327 79.5235 443.761 79.6215 444.142 79.8176C444.526 80.0107 444.838 80.2806 445.08 80.6272C445.321 80.9738 445.477 81.373 445.548 81.8247H444.509C444.412 81.4326 444.224 81.1073 443.946 80.8488C443.668 80.5903 443.298 80.461 442.838 80.461C442.162 80.461 441.629 80.7551 441.24 81.3431C440.854 81.9312 440.659 82.7565 440.656 83.819H440.724C440.884 83.5775 441.073 83.3715 441.291 83.2011C441.513 83.0278 441.757 82.8943 442.024 82.8005C442.291 82.7068 442.574 82.6599 442.872 82.6599C443.372 82.6599 443.83 82.7849 444.244 83.0349C444.659 83.282 444.992 83.6244 445.242 84.0619C445.492 84.4965 445.617 84.9951 445.617 85.5576C445.617 86.0974 445.496 86.5917 445.254 87.0406C445.013 87.4866 444.673 87.8417 444.236 88.1059C443.801 88.3673 443.29 88.4951 442.702 88.4894ZM442.702 87.5519C443.06 87.5519 443.381 87.4624 443.665 87.2835C443.952 87.1045 444.178 86.8644 444.342 86.5633C444.51 86.2622 444.594 85.9269 444.594 85.5576C444.594 85.1968 444.513 84.8687 444.351 84.5732C444.192 84.2749 443.972 84.0377 443.69 83.8616C443.412 83.6855 443.094 83.5974 442.736 83.5974C442.466 83.5974 442.215 83.6514 441.982 83.7593C441.749 83.8644 441.544 84.0093 441.368 84.194C441.195 84.3786 441.058 84.5903 440.959 84.8289C440.859 85.0647 440.81 85.3133 440.81 85.5747C440.81 85.9213 440.891 86.2451 441.053 86.5463C441.217 86.8474 441.442 87.0903 441.726 87.2749C442.013 87.4596 442.338 87.5519 442.702 87.5519ZM447.819 81.8247L449.388 84.5008L450.956 81.8247H452.115L450.001 85.0974L452.115 88.3701H450.956L449.388 85.8303L447.819 88.3701H446.66L448.74 85.0974L446.66 81.8247H447.819ZM458.166 88.3701L455.78 79.6428H456.854L458.678 86.7508H458.763L460.621 79.6428H461.814L463.672 86.7508H463.757L465.581 79.6428H466.655L464.269 88.3701H463.178L461.252 81.4156H461.183L459.257 88.3701H458.166ZM468.601 84.4326V88.3701H467.595V79.6428H468.601V82.8474H468.686C468.84 82.5093 469.07 82.2409 469.377 82.042C469.686 81.8403 470.098 81.7394 470.612 81.7394C471.059 81.7394 471.449 81.8289 471.784 82.0079C472.12 82.184 472.38 82.4553 472.564 82.8218C472.752 83.1855 472.845 83.6485 472.845 84.211V88.3701H471.84V84.2792C471.84 83.7593 471.705 83.3573 471.435 83.0732C471.168 82.7863 470.797 82.6428 470.323 82.6428C469.993 82.6428 469.698 82.7124 469.436 82.8517C469.178 82.9909 468.973 83.194 468.823 83.461C468.675 83.7281 468.601 84.0519 468.601 84.4326ZM476.371 88.5235C475.957 88.5235 475.58 88.4454 475.242 88.2892C474.904 88.1301 474.636 87.9014 474.437 87.6031C474.238 87.3019 474.138 86.9383 474.138 86.5122C474.138 86.1372 474.212 85.8332 474.36 85.6002C474.508 85.3644 474.705 85.1798 474.952 85.0463C475.2 84.9127 475.472 84.8133 475.771 84.748C476.072 84.6798 476.374 84.6258 476.678 84.586C477.076 84.5349 477.398 84.4965 477.646 84.471C477.896 84.4426 478.077 84.3957 478.191 84.3303C478.308 84.265 478.366 84.1514 478.366 83.9894V83.9553C478.366 83.5349 478.251 83.2082 478.021 82.9752C477.793 82.7423 477.448 82.6258 476.985 82.6258C476.505 82.6258 476.129 82.7309 475.856 82.9411C475.583 83.1514 475.391 83.3758 475.281 83.6144L474.326 83.2735C474.496 82.8758 474.724 82.5661 475.008 82.3445C475.295 82.1201 475.607 81.9639 475.945 81.8758C476.286 81.7849 476.621 81.7394 476.951 81.7394C477.161 81.7394 477.403 81.765 477.675 81.8161C477.951 81.8644 478.217 81.9653 478.472 82.1187C478.731 82.2721 478.945 82.5036 479.116 82.8133C479.286 83.123 479.371 83.5377 479.371 84.0576V88.3701H478.366V87.4838H478.315C478.246 87.6258 478.133 87.7778 477.974 87.9397C477.815 88.1017 477.603 88.2394 477.339 88.3531C477.075 88.4667 476.752 88.5235 476.371 88.5235ZM476.525 87.6201C476.923 87.6201 477.258 87.542 477.531 87.3857C477.806 87.2295 478.013 87.0278 478.153 86.7806C478.295 86.5335 478.366 86.2735 478.366 86.0008V85.0803C478.323 85.1315 478.229 85.1784 478.085 85.221C477.942 85.2607 477.778 85.2963 477.59 85.3275C477.406 85.3559 477.225 85.3815 477.049 85.4042C476.876 85.4241 476.735 85.4411 476.627 85.4553C476.366 85.4894 476.121 85.5448 475.894 85.6215C475.67 85.6954 475.488 85.8076 475.349 85.9582C475.212 86.1059 475.144 86.3076 475.144 86.5633C475.144 86.9127 475.273 87.1769 475.532 87.3559C475.793 87.532 476.124 87.6201 476.525 87.6201ZM483.814 81.8247V82.6769H480.422V81.8247H483.814ZM481.41 80.2565H482.416V86.4951C482.416 86.7792 482.457 86.9923 482.539 87.1343C482.625 87.2735 482.733 87.3673 482.863 87.4156C482.997 87.461 483.137 87.4838 483.285 87.4838C483.396 87.4838 483.487 87.4781 483.558 87.4667C483.629 87.4525 483.686 87.4411 483.728 87.4326L483.933 88.336C483.865 88.3616 483.77 88.3872 483.647 88.4127C483.525 88.4411 483.37 88.4553 483.183 88.4553C482.899 88.4553 482.62 88.3943 482.348 88.2721C482.078 88.1499 481.853 87.9639 481.674 87.7139C481.498 87.4639 481.41 87.1485 481.41 86.7678V80.2565ZM489.606 83.2906L488.702 83.5463C488.645 83.3957 488.562 83.2494 488.451 83.1073C488.343 82.9624 488.195 82.8431 488.008 82.7494C487.82 82.6556 487.58 82.6088 487.287 82.6088C486.887 82.6088 486.553 82.7011 486.286 82.8857C486.022 83.0676 485.89 83.2991 485.89 83.5803C485.89 83.8303 485.981 84.0278 486.162 84.1727C486.344 84.3176 486.628 84.4383 487.015 84.5349L487.986 84.7735C488.571 84.9156 489.008 85.1329 489.294 85.4255C489.581 85.7153 489.725 86.0889 489.725 86.5463C489.725 86.9213 489.617 87.2565 489.401 87.5519C489.188 87.8474 488.89 88.0803 488.506 88.2508C488.123 88.4213 487.677 88.5065 487.168 88.5065C486.5 88.5065 485.948 88.3616 485.51 88.0718C485.073 87.782 484.796 87.3588 484.679 86.8019L485.634 86.5633C485.725 86.9156 485.897 87.1798 486.15 87.3559C486.405 87.532 486.739 87.6201 487.151 87.6201C487.62 87.6201 487.992 87.5207 488.268 87.3218C488.546 87.1201 488.685 86.8786 488.685 86.5974C488.685 86.3701 488.606 86.1798 488.446 86.0264C488.287 85.8701 488.043 85.7536 487.714 85.6769L486.623 85.4213C486.023 85.2792 485.583 85.059 485.302 84.7607C485.023 84.4596 484.884 84.0832 484.884 83.6315C484.884 83.2622 484.988 82.9355 485.195 82.6514C485.405 82.3673 485.691 82.1443 486.052 81.9823C486.415 81.8204 486.827 81.7394 487.287 81.7394C487.935 81.7394 488.444 81.8815 488.813 82.1656C489.185 82.4497 489.449 82.8247 489.606 83.2906ZM490.999 88.3701V81.8247H491.97V82.8474H492.056C492.192 82.498 492.412 82.2267 492.716 82.0335C493.02 81.8374 493.385 81.7394 493.811 81.7394C494.243 81.7394 494.602 81.8374 494.889 82.0335C495.179 82.2267 495.405 82.498 495.567 82.8474H495.635C495.803 82.5093 496.054 82.2409 496.389 82.042C496.725 81.8403 497.127 81.7394 497.595 81.7394C498.181 81.7394 498.659 81.9227 499.031 82.2892C499.404 82.6528 499.59 83.2195 499.59 83.9894V88.3701H498.584V83.9894C498.584 83.5065 498.452 83.1613 498.188 82.9539C497.923 82.7465 497.612 82.6428 497.254 82.6428C496.794 82.6428 496.438 82.782 496.185 83.0605C495.932 83.336 495.806 83.6855 495.806 84.1088V88.3701H494.783V83.8872C494.783 83.515 494.662 83.2153 494.421 82.988C494.179 82.7579 493.868 82.6428 493.487 82.6428C493.226 82.6428 492.982 82.7124 492.754 82.8517C492.53 82.9909 492.348 83.184 492.209 83.4312C492.073 83.6755 492.004 83.9582 492.004 84.2792V88.3701H490.999ZM501.188 88.3701V81.8247H502.194V88.3701H501.188ZM501.7 80.7338C501.504 80.7338 501.335 80.667 501.193 80.5335C501.053 80.3999 500.984 80.2394 500.984 80.0519C500.984 79.8644 501.053 79.7039 501.193 79.5704C501.335 79.4369 501.504 79.3701 501.7 79.3701C501.896 79.3701 502.063 79.4369 502.203 79.5704C502.345 79.7039 502.416 79.8644 502.416 80.0519C502.416 80.2394 502.345 80.3999 502.203 80.5335C502.063 80.667 501.896 80.7338 501.7 80.7338ZM504.802 84.4326V88.3701H503.796V81.8247H504.768V82.8474H504.853C505.006 82.515 505.239 82.248 505.552 82.0463C505.864 81.8417 506.268 81.7394 506.762 81.7394C507.205 81.7394 507.593 81.8303 507.925 82.0122C508.258 82.1911 508.516 82.4639 508.701 82.8303C508.886 83.194 508.978 83.6542 508.978 84.211V88.3701H507.972V84.2792C507.972 83.765 507.839 83.3644 507.572 83.0775C507.305 82.7877 506.938 82.6428 506.472 82.6428C506.151 82.6428 505.864 82.7124 505.611 82.8517C505.361 82.9909 505.164 83.194 505.019 83.461C504.874 83.7281 504.802 84.0519 504.802 84.4326ZM513.32 88.5065C512.689 88.5065 512.145 88.3673 511.688 88.0889C511.233 87.8076 510.882 87.4156 510.635 86.9127C510.391 86.407 510.269 85.819 510.269 85.1485C510.269 84.4781 510.391 83.8872 510.635 83.3758C510.882 82.8616 511.226 82.461 511.667 82.1741C512.11 81.8843 512.627 81.7394 513.218 81.7394C513.559 81.7394 513.895 81.7963 514.228 81.9099C514.56 82.0235 514.863 82.2082 515.135 82.4639C515.408 82.7167 515.625 83.0519 515.787 83.4695C515.949 83.8872 516.03 84.4014 516.03 85.0122V85.4383H510.985V84.569H515.007C515.007 84.1997 514.934 83.8701 514.786 83.5803C514.641 83.2906 514.434 83.0619 514.164 82.8943C513.897 82.7267 513.581 82.6428 513.218 82.6428C512.817 82.6428 512.47 82.7423 512.178 82.9411C511.888 83.1372 511.665 83.3928 511.509 83.7082C511.353 84.0235 511.274 84.3616 511.274 84.7224V85.3019C511.274 85.7963 511.36 86.2153 511.53 86.559C511.703 86.8999 511.944 87.1599 512.25 87.3389C512.557 87.515 512.914 87.6031 513.32 87.6031C513.584 87.6031 513.823 87.5661 514.036 87.4923C514.252 87.4156 514.438 87.3019 514.594 87.1514C514.75 86.998 514.871 86.8076 514.956 86.5803L515.928 86.8531C515.826 87.1826 515.654 87.4724 515.412 87.7224C515.171 87.9695 514.872 88.1627 514.517 88.3019C514.162 88.4383 513.763 88.5065 513.32 88.5065ZM517.32 88.3701V81.8247H518.292V82.8133H518.36C518.479 82.4894 518.695 82.2267 519.007 82.0249C519.32 81.8232 519.672 81.7224 520.064 81.7224C520.138 81.7224 520.23 81.7238 520.341 81.7267C520.452 81.7295 520.536 81.7338 520.593 81.7394V82.7622C520.559 82.7536 520.48 82.7409 520.358 82.7238C520.239 82.7039 520.113 82.694 519.979 82.694C519.661 82.694 519.377 82.7607 519.127 82.8943C518.88 83.0249 518.684 83.2068 518.539 83.4397C518.397 83.6698 518.326 83.9326 518.326 84.2281V88.3701H517.32Z" fill="#307FE2"/>
<g clip-path="url(#clip1_2631_39836)">
<path d="M415.141 242.26H413.141" stroke="#002159" stroke-miterlimit="10" stroke-linecap="round"/>
<path d="M409.5 242L325.5 242" stroke="#002159" stroke-miterlimit="10" stroke-linecap="round" stroke-dasharray="2 2"/>
<path d="M414.92 246.02C416.997 246.02 418.68 244.337 418.68 242.26C418.68 240.183 416.997 238.5 414.92 238.5C412.844 238.5 411.16 240.183 411.16 242.26C411.16 244.337 412.844 246.02 414.92 246.02Z" fill="white"/>
<path d="M414.92 238C412.57 238 410.66 239.91 410.66 242.26C410.66 244.61 412.57 246.52 414.92 246.52C417.27 246.52 419.18 244.61 419.18 242.26C419.18 239.91 417.27 238 414.92 238C417.27 238 412.57 238 414.92 238ZM414.92 245.52C413.12 245.52 411.66 244.06 411.66 242.26C411.66 240.46 413.12 239 414.92 239C416.72 239 418.18 240.46 418.18 242.26C418.18 244.06 416.72 245.52 414.92 245.52C416.72 245.52 413.12 245.52 414.92 245.52Z" fill="#002159"/>
</g>
<path d="M441.545 223.318C440.273 223.318 439.053 223.114 437.886 222.705C436.72 222.288 435.682 221.629 434.773 220.727C433.864 219.818 433.148 218.629 432.625 217.159C432.102 215.682 431.845 213.883 431.852 211.761C431.86 209.845 432.095 208.125 432.557 206.602C433.019 205.072 433.678 203.773 434.534 202.705C435.398 201.636 436.428 200.822 437.625 200.261C438.83 199.693 440.174 199.409 441.659 199.409C443.288 199.409 444.723 199.727 445.966 200.364C447.216 200.992 448.216 201.841 448.966 202.909C449.716 203.97 450.159 205.152 450.295 206.455H444.761C444.595 205.72 444.227 205.163 443.659 204.784C443.098 204.398 442.432 204.205 441.659 204.205C440.235 204.205 439.17 204.822 438.466 206.057C437.769 207.292 437.413 208.943 437.398 211.011H437.545C437.864 210.314 438.322 209.716 438.92 209.216C439.519 208.716 440.205 208.333 440.977 208.068C441.758 207.795 442.583 207.659 443.455 207.659C444.848 207.659 446.08 207.981 447.148 208.625C448.216 209.269 449.053 210.152 449.659 211.273C450.265 212.386 450.564 213.663 450.557 215.102C450.564 216.723 450.186 218.155 449.42 219.398C448.655 220.633 447.595 221.595 446.239 222.284C444.89 222.973 443.326 223.318 441.545 223.318ZM441.511 219C442.201 219 442.818 218.837 443.364 218.511C443.909 218.186 444.337 217.742 444.648 217.182C444.958 216.621 445.11 215.989 445.102 215.284C445.11 214.572 444.958 213.939 444.648 213.386C444.345 212.833 443.92 212.394 443.375 212.068C442.837 211.742 442.22 211.58 441.523 211.58C441.015 211.58 440.542 211.674 440.102 211.864C439.663 212.053 439.28 212.318 438.955 212.659C438.636 212.992 438.386 213.386 438.205 213.841C438.023 214.288 437.928 214.773 437.92 215.295C437.928 215.985 438.087 216.61 438.398 217.17C438.708 217.731 439.133 218.178 439.67 218.511C440.208 218.837 440.822 219 441.511 219ZM457.88 205.545L460.755 211.295L463.732 205.545H469.334L464.459 214.273L469.516 223H463.959L460.755 217.205L457.63 223H451.994L457.062 214.273L452.244 205.545H457.88Z" fill="#002159"/>
<path d="M432.705 243V241.977L436.545 237.773C436.996 237.28 437.367 236.852 437.659 236.489C437.951 236.121 438.167 235.777 438.307 235.455C438.451 235.129 438.523 234.788 438.523 234.432C438.523 234.023 438.424 233.669 438.227 233.369C438.034 233.07 437.769 232.839 437.432 232.676C437.095 232.513 436.716 232.432 436.295 232.432C435.848 232.432 435.458 232.525 435.125 232.71C434.795 232.892 434.54 233.148 434.358 233.477C434.18 233.807 434.091 234.193 434.091 234.636H432.75C432.75 233.955 432.907 233.356 433.222 232.841C433.536 232.326 433.964 231.924 434.506 231.636C435.051 231.348 435.663 231.205 436.341 231.205C437.023 231.205 437.627 231.348 438.153 231.636C438.68 231.924 439.093 232.312 439.392 232.801C439.691 233.29 439.841 233.833 439.841 234.432C439.841 234.86 439.763 235.278 439.608 235.688C439.456 236.093 439.191 236.545 438.812 237.045C438.438 237.542 437.917 238.148 437.25 238.864L434.636 241.659V241.75H440.045V243H432.705ZM444.095 241.409L444.004 242.023C443.939 242.455 443.841 242.917 443.708 243.409C443.58 243.902 443.445 244.366 443.305 244.801C443.165 245.237 443.049 245.583 442.958 245.841H441.936C441.985 245.598 442.049 245.278 442.129 244.881C442.208 244.483 442.288 244.038 442.368 243.545C442.451 243.057 442.519 242.557 442.572 242.045L442.64 241.409H444.095ZM448.937 231.364V243H447.528V232.841H447.459L444.619 234.727V233.295L447.528 231.364H448.937ZM455.759 243.159C454.903 243.159 454.174 242.926 453.571 242.46C452.969 241.991 452.509 241.311 452.191 240.42C451.872 239.527 451.713 238.447 451.713 237.182C451.713 235.924 451.872 234.85 452.191 233.96C452.513 233.066 452.975 232.384 453.577 231.915C454.183 231.441 454.91 231.205 455.759 231.205C456.607 231.205 457.333 231.441 457.935 231.915C458.541 232.384 459.003 233.066 459.321 233.96C459.643 234.85 459.804 235.924 459.804 237.182C459.804 238.447 459.645 239.527 459.327 240.42C459.009 241.311 458.549 241.991 457.946 242.46C457.344 242.926 456.615 243.159 455.759 243.159ZM455.759 241.909C456.607 241.909 457.266 241.5 457.736 240.682C458.206 239.864 458.441 238.697 458.441 237.182C458.441 236.174 458.333 235.316 458.117 234.608C457.905 233.9 457.598 233.36 457.196 232.989C456.799 232.617 456.319 232.432 455.759 232.432C454.918 232.432 454.261 232.847 453.787 233.676C453.314 234.502 453.077 235.67 453.077 237.182C453.077 238.189 453.183 239.045 453.395 239.75C453.607 240.455 453.912 240.991 454.31 241.358C454.711 241.725 455.194 241.909 455.759 241.909ZM465.439 243.159C464.583 243.159 463.854 242.926 463.251 242.46C462.649 241.991 462.189 241.311 461.871 240.42C461.552 239.527 461.393 238.447 461.393 237.182C461.393 235.924 461.552 234.85 461.871 233.96C462.193 233.066 462.655 232.384 463.257 231.915C463.863 231.441 464.59 231.205 465.439 231.205C466.287 231.205 467.013 231.441 467.615 231.915C468.221 232.384 468.683 233.066 469.001 233.96C469.323 234.85 469.484 235.924 469.484 237.182C469.484 238.447 469.325 239.527 469.007 240.42C468.689 241.311 468.229 241.991 467.626 242.46C467.024 242.926 466.295 243.159 465.439 243.159ZM465.439 241.909C466.287 241.909 466.946 241.5 467.416 240.682C467.886 239.864 468.121 238.697 468.121 237.182C468.121 236.174 468.013 235.316 467.797 234.608C467.585 233.9 467.278 233.36 466.876 232.989C466.479 232.617 465.999 232.432 465.439 232.432C464.598 232.432 463.941 232.847 463.467 233.676C462.994 234.502 462.757 235.67 462.757 237.182C462.757 238.189 462.863 239.045 463.075 239.75C463.287 240.455 463.592 240.991 463.99 241.358C464.391 241.725 464.874 241.909 465.439 241.909ZM485.071 235H483.662C483.579 234.595 483.433 234.239 483.225 233.932C483.02 233.625 482.77 233.367 482.475 233.159C482.183 232.947 481.859 232.788 481.503 232.682C481.147 232.576 480.776 232.523 480.39 232.523C479.685 232.523 479.047 232.701 478.475 233.057C477.907 233.413 477.454 233.938 477.117 234.631C476.784 235.324 476.617 236.174 476.617 237.182C476.617 238.189 476.784 239.04 477.117 239.733C477.454 240.426 477.907 240.951 478.475 241.307C479.047 241.663 479.685 241.841 480.39 241.841C480.776 241.841 481.147 241.788 481.503 241.682C481.859 241.576 482.183 241.419 482.475 241.21C482.77 240.998 483.02 240.739 483.225 240.432C483.433 240.121 483.579 239.765 483.662 239.364H485.071C484.965 239.958 484.772 240.491 484.492 240.96C484.212 241.43 483.863 241.83 483.446 242.159C483.03 242.485 482.562 242.733 482.043 242.903C481.528 243.074 480.977 243.159 480.39 243.159C479.397 243.159 478.515 242.917 477.742 242.432C476.969 241.947 476.361 241.258 475.918 240.364C475.475 239.47 475.253 238.409 475.253 237.182C475.253 235.955 475.475 234.894 475.918 234C476.361 233.106 476.969 232.417 477.742 231.932C478.515 231.447 479.397 231.205 480.39 231.205C480.977 231.205 481.528 231.29 482.043 231.46C482.562 231.631 483.03 231.881 483.446 232.21C483.863 232.536 484.212 232.934 484.492 233.403C484.772 233.869 484.965 234.402 485.071 235ZM487.028 243V231.364H494.006V232.614H488.438V236.545H493.483V237.795H488.438V243H487.028ZM496.099 231.364H497.781L501.735 241.023H501.872L505.826 231.364H507.508V243H506.19V234.159H506.076L502.44 243H501.167L497.531 234.159H497.417V243H496.099V231.364ZM514.193 243V231.364H521.171V232.614H515.603V236.545H520.648V237.795H515.603V243H514.193ZM525.65 243.205C525.097 243.205 524.596 243.1 524.145 242.892C523.694 242.68 523.336 242.375 523.071 241.977C522.806 241.576 522.673 241.091 522.673 240.523C522.673 240.023 522.772 239.617 522.969 239.307C523.166 238.992 523.429 238.746 523.758 238.568C524.088 238.39 524.452 238.258 524.849 238.17C525.251 238.08 525.654 238.008 526.06 237.955C526.59 237.886 527.02 237.835 527.349 237.801C527.683 237.763 527.925 237.701 528.077 237.614C528.232 237.527 528.31 237.375 528.31 237.159V237.114C528.31 236.553 528.156 236.117 527.849 235.807C527.546 235.496 527.086 235.341 526.469 235.341C525.828 235.341 525.327 235.481 524.963 235.761C524.599 236.042 524.344 236.341 524.196 236.659L522.923 236.205C523.15 235.674 523.453 235.261 523.832 234.966C524.215 234.667 524.632 234.458 525.082 234.341C525.537 234.22 525.984 234.159 526.423 234.159C526.703 234.159 527.025 234.193 527.389 234.261C527.757 234.326 528.111 234.46 528.452 234.665C528.796 234.869 529.082 235.178 529.31 235.591C529.537 236.004 529.65 236.557 529.65 237.25V243H528.31V241.818H528.241C528.15 242.008 527.999 242.21 527.787 242.426C527.575 242.642 527.293 242.826 526.94 242.977C526.588 243.129 526.158 243.205 525.65 243.205ZM525.855 242C526.385 242 526.832 241.896 527.196 241.688C527.563 241.479 527.84 241.21 528.025 240.881C528.215 240.551 528.31 240.205 528.31 239.841V238.614C528.253 238.682 528.128 238.744 527.935 238.801C527.745 238.854 527.525 238.902 527.275 238.943C527.029 238.981 526.789 239.015 526.554 239.045C526.323 239.072 526.135 239.095 525.991 239.114C525.643 239.159 525.317 239.233 525.014 239.335C524.715 239.434 524.472 239.583 524.287 239.784C524.105 239.981 524.014 240.25 524.014 240.591C524.014 241.057 524.186 241.409 524.531 241.648C524.88 241.883 525.321 242 525.855 242ZM533.119 237.75V243H531.778V234.273H533.073V235.636H533.187C533.392 235.193 533.702 234.837 534.119 234.568C534.535 234.295 535.073 234.159 535.732 234.159C536.323 234.159 536.84 234.28 537.284 234.523C537.727 234.761 538.071 235.125 538.318 235.614C538.564 236.098 538.687 236.712 538.687 237.455V243H537.346V237.545C537.346 236.86 537.168 236.326 536.812 235.943C536.456 235.557 535.967 235.364 535.346 235.364C534.918 235.364 534.535 235.456 534.198 235.642C533.865 235.828 533.602 236.098 533.409 236.455C533.215 236.811 533.119 237.242 533.119 237.75ZM546.999 236.227L545.795 236.568C545.719 236.367 545.607 236.172 545.459 235.983C545.315 235.79 545.118 235.631 544.868 235.506C544.618 235.381 544.298 235.318 543.908 235.318C543.374 235.318 542.929 235.441 542.573 235.688C542.221 235.93 542.045 236.239 542.045 236.614C542.045 236.947 542.166 237.21 542.408 237.403C542.651 237.597 543.029 237.758 543.545 237.886L544.84 238.205C545.62 238.394 546.202 238.684 546.584 239.074C546.967 239.46 547.158 239.958 547.158 240.568C547.158 241.068 547.014 241.515 546.726 241.909C546.442 242.303 546.045 242.614 545.533 242.841C545.022 243.068 544.427 243.182 543.749 243.182C542.859 243.182 542.122 242.989 541.539 242.602C540.956 242.216 540.586 241.652 540.431 240.909L541.704 240.591C541.825 241.061 542.054 241.413 542.391 241.648C542.732 241.883 543.177 242 543.726 242C544.351 242 544.848 241.867 545.215 241.602C545.586 241.333 545.772 241.011 545.772 240.636C545.772 240.333 545.666 240.08 545.454 239.875C545.242 239.667 544.916 239.511 544.476 239.409L543.022 239.068C542.223 238.879 541.635 238.585 541.26 238.188C540.889 237.786 540.704 237.284 540.704 236.682C540.704 236.189 540.842 235.754 541.118 235.375C541.399 234.996 541.779 234.699 542.26 234.483C542.745 234.267 543.295 234.159 543.908 234.159C544.772 234.159 545.45 234.348 545.942 234.727C546.438 235.106 546.791 235.606 546.999 236.227Z" fill="#002159"/>
<path d="M432.557 262V253.273H433.614V261.062H437.67V262H432.557ZM442.815 255.455L444.384 258.131L445.952 255.455H447.111L444.997 258.727L447.111 262H445.952L444.384 259.46L442.815 262H441.656L443.736 258.727L441.656 255.455H442.815ZM454.202 253.153C454.56 253.156 454.918 253.224 455.276 253.358C455.634 253.491 455.961 253.713 456.256 254.023C456.552 254.33 456.789 254.749 456.968 255.28C457.147 255.811 457.236 256.477 457.236 257.278C457.236 258.054 457.163 258.743 457.015 259.345C456.87 259.945 456.66 260.45 456.384 260.862C456.111 261.274 455.779 261.587 455.387 261.8C454.998 262.013 454.557 262.119 454.066 262.119C453.577 262.119 453.141 262.023 452.758 261.83C452.377 261.634 452.065 261.362 451.82 261.016C451.579 260.666 451.424 260.261 451.356 259.801H452.395C452.489 260.202 452.675 260.533 452.954 260.794C453.235 261.053 453.606 261.182 454.066 261.182C454.739 261.182 455.27 260.888 455.66 260.3C456.052 259.712 456.248 258.881 456.248 257.807H456.18C456.02 258.045 455.832 258.251 455.613 258.425C455.394 258.598 455.151 258.732 454.884 258.825C454.617 258.919 454.333 258.966 454.032 258.966C453.532 258.966 453.073 258.842 452.655 258.595C452.241 258.345 451.908 258.003 451.658 257.568C451.411 257.131 451.288 256.631 451.288 256.068C451.288 255.534 451.407 255.045 451.645 254.602C451.887 254.156 452.225 253.801 452.66 253.537C453.097 253.273 453.611 253.145 454.202 253.153ZM454.202 254.091C453.844 254.091 453.522 254.18 453.235 254.359C452.951 254.536 452.725 254.774 452.557 255.075C452.393 255.374 452.31 255.705 452.31 256.068C452.31 256.432 452.39 256.763 452.549 257.061C452.711 257.357 452.931 257.592 453.209 257.768C453.491 257.942 453.81 258.028 454.168 258.028C454.438 258.028 454.69 257.976 454.922 257.871C455.155 257.763 455.359 257.616 455.532 257.432C455.708 257.244 455.846 257.033 455.945 256.797C456.045 256.558 456.094 256.31 456.094 256.051C456.094 255.71 456.012 255.391 455.847 255.092C455.685 254.794 455.461 254.553 455.174 254.368C454.89 254.183 454.566 254.091 454.202 254.091ZM461.519 262.119C460.877 262.119 460.33 261.945 459.878 261.595C459.426 261.243 459.081 260.733 458.843 260.065C458.604 259.395 458.485 258.585 458.485 257.636C458.485 256.693 458.604 255.888 458.843 255.22C459.084 254.55 459.431 254.038 459.882 253.686C460.337 253.331 460.882 253.153 461.519 253.153C462.155 253.153 462.699 253.331 463.151 253.686C463.605 254.038 463.952 254.55 464.191 255.22C464.432 255.888 464.553 256.693 464.553 257.636C464.553 258.585 464.434 259.395 464.195 260.065C463.956 260.733 463.611 261.243 463.159 261.595C462.708 261.945 462.161 262.119 461.519 262.119ZM461.519 261.182C462.155 261.182 462.649 260.875 463.002 260.261C463.354 259.648 463.53 258.773 463.53 257.636C463.53 256.881 463.449 256.237 463.287 255.706C463.128 255.175 462.898 254.77 462.597 254.491C462.299 254.213 461.939 254.074 461.519 254.074C460.888 254.074 460.395 254.385 460.04 255.007C459.685 255.626 459.507 256.503 459.507 257.636C459.507 258.392 459.587 259.034 459.746 259.562C459.905 260.091 460.134 260.493 460.432 260.768C460.733 261.044 461.095 261.182 461.519 261.182ZM466.836 253.273V254.04C466.836 254.273 466.793 254.521 466.708 254.786C466.625 255.047 466.503 255.301 466.341 255.548C466.182 255.793 465.989 256.006 465.762 256.188L465.216 255.744C465.395 255.489 465.55 255.223 465.681 254.947C465.814 254.669 465.881 254.372 465.881 254.057V253.273H466.836ZM469.017 253.273V254.04C469.017 254.273 468.975 254.521 468.89 254.786C468.807 255.047 468.685 255.301 468.523 255.548C468.364 255.793 468.171 256.006 467.944 256.188L467.398 255.744C467.577 255.489 467.732 255.223 467.863 254.947C467.996 254.669 468.063 254.372 468.063 254.057V253.273H469.017ZM476.5 252.864L473.687 263.312H472.767L475.579 252.864H476.5ZM482.308 262L479.922 253.273H480.996L482.82 260.381H482.905L484.763 253.273H485.956L487.814 260.381H487.899L489.723 253.273H490.797L488.411 262H487.32L485.394 255.045H485.325L483.399 262H482.308ZM495.622 255.455L497.191 258.131L498.759 255.455H499.918L497.804 258.727L499.918 262H498.759L497.191 259.46L495.622 262H494.463L496.543 258.727L494.463 255.455H495.622ZM507.026 262.119C506.441 262.119 505.924 262.016 505.475 261.808C505.029 261.598 504.681 261.31 504.431 260.943C504.181 260.574 504.058 260.153 504.06 259.682C504.058 259.312 504.13 258.972 504.278 258.659C504.426 258.344 504.627 258.081 504.883 257.871C505.141 257.658 505.43 257.523 505.748 257.466V257.415C505.33 257.307 504.998 257.072 504.751 256.712C504.504 256.348 504.381 255.935 504.384 255.472C504.381 255.028 504.494 254.632 504.721 254.283C504.948 253.933 505.261 253.658 505.658 253.456C506.059 253.254 506.515 253.153 507.026 253.153C507.532 253.153 507.984 253.254 508.381 253.456C508.779 253.658 509.092 253.933 509.319 254.283C509.549 254.632 509.666 255.028 509.668 255.472C509.666 255.935 509.539 256.348 509.289 256.712C509.042 257.072 508.714 257.307 508.305 257.415V257.466C508.62 257.523 508.904 257.658 509.157 257.871C509.41 258.081 509.612 258.344 509.762 258.659C509.913 258.972 509.989 259.312 509.992 259.682C509.989 260.153 509.862 260.574 509.609 260.943C509.359 261.31 509.011 261.598 508.565 261.808C508.122 262.016 507.609 262.119 507.026 262.119ZM507.026 261.182C507.421 261.182 507.762 261.118 508.049 260.99C508.336 260.862 508.558 260.682 508.714 260.449C508.87 260.216 508.95 259.943 508.952 259.631C508.95 259.301 508.864 259.01 508.697 258.757C508.529 258.504 508.301 258.305 508.011 258.161C507.724 258.016 507.396 257.943 507.026 257.943C506.654 257.943 506.322 258.016 506.029 258.161C505.739 258.305 505.511 258.504 505.343 258.757C505.178 259.01 505.097 259.301 505.1 259.631C505.097 259.943 505.173 260.216 505.326 260.449C505.482 260.682 505.705 260.862 505.995 260.99C506.285 261.118 506.629 261.182 507.026 261.182ZM507.026 257.04C507.339 257.04 507.616 256.977 507.857 256.852C508.102 256.727 508.293 256.553 508.433 256.328C508.572 256.104 508.643 255.841 508.646 255.54C508.643 255.244 508.573 254.987 508.437 254.768C508.301 254.547 508.112 254.376 507.87 254.257C507.629 254.135 507.347 254.074 507.026 254.074C506.7 254.074 506.414 254.135 506.17 254.257C505.926 254.376 505.737 254.547 505.603 254.768C505.47 254.987 505.404 255.244 505.407 255.54C505.404 255.841 505.471 256.104 505.607 256.328C505.747 256.553 505.938 256.727 506.183 256.852C506.427 256.977 506.708 257.04 507.026 257.04ZM514.454 253.273V262H513.397V254.381H513.346L511.215 255.795V254.722L513.397 253.273H514.454ZM517.627 253.273V254.04C517.627 254.273 517.584 254.521 517.499 254.786C517.417 255.047 517.295 255.301 517.133 255.548C516.974 255.793 516.78 256.006 516.553 256.188L516.008 255.744C516.187 255.489 516.341 255.223 516.472 254.947C516.606 254.669 516.672 254.372 516.672 254.057V253.273H517.627ZM519.809 253.273V254.04C519.809 254.273 519.766 254.521 519.681 254.786C519.599 255.047 519.476 255.301 519.314 255.548C519.155 255.793 518.962 256.006 518.735 256.188L518.189 255.744C518.368 255.489 518.523 255.223 518.654 254.947C518.787 254.669 518.854 254.372 518.854 254.057V253.273H519.809ZM527.291 252.864L524.479 263.312H523.558L526.371 252.864H527.291ZM531.515 262V253.273H532.571V257.159H537.225V253.273H538.282V262H537.225V258.097H532.571V262H531.515ZM543.906 255.455L545.474 258.131L547.042 255.455H548.202L546.088 258.727L548.202 262H547.042L545.474 259.46L543.906 262H542.747L544.827 258.727L542.747 255.455H543.906ZM555.31 262.119C554.725 262.119 554.208 262.016 553.759 261.808C553.313 261.598 552.965 261.31 552.715 260.943C552.465 260.574 552.341 260.153 552.344 259.682C552.341 259.312 552.414 258.972 552.561 258.659C552.709 258.344 552.911 258.081 553.166 257.871C553.425 257.658 553.713 257.523 554.032 257.466V257.415C553.614 257.307 553.282 257.072 553.034 256.712C552.787 256.348 552.665 255.935 552.668 255.472C552.665 255.028 552.777 254.632 553.005 254.283C553.232 253.933 553.544 253.658 553.942 253.456C554.343 253.254 554.799 253.153 555.31 253.153C555.816 253.153 556.267 253.254 556.665 253.456C557.063 253.658 557.375 253.933 557.603 254.283C557.833 254.632 557.949 255.028 557.952 255.472C557.949 255.935 557.823 256.348 557.573 256.712C557.326 257.072 556.997 257.307 556.588 257.415V257.466C556.904 257.523 557.188 257.658 557.441 257.871C557.693 258.081 557.895 258.344 558.046 258.659C558.196 258.972 558.273 259.312 558.276 259.682C558.273 260.153 558.145 260.574 557.892 260.943C557.642 261.31 557.294 261.598 556.848 261.808C556.405 262.016 555.892 262.119 555.31 262.119ZM555.31 261.182C555.705 261.182 556.046 261.118 556.333 260.99C556.62 260.862 556.841 260.682 556.997 260.449C557.154 260.216 557.233 259.943 557.236 259.631C557.233 259.301 557.148 259.01 556.98 258.757C556.813 258.504 556.584 258.305 556.294 258.161C556.007 258.016 555.679 257.943 555.31 257.943C554.938 257.943 554.605 258.016 554.313 258.161C554.023 258.305 553.794 258.504 553.627 258.757C553.462 259.01 553.381 259.301 553.384 259.631C553.381 259.943 553.456 260.216 553.61 260.449C553.766 260.682 553.989 260.862 554.279 260.99C554.568 261.118 554.912 261.182 555.31 261.182ZM555.31 257.04C555.622 257.04 555.899 256.977 556.141 256.852C556.385 256.727 556.577 256.553 556.716 256.328C556.855 256.104 556.926 255.841 556.929 255.54C556.926 255.244 556.857 254.987 556.72 254.768C556.584 254.547 556.395 254.376 556.154 254.257C555.912 254.135 555.631 254.074 555.31 254.074C554.983 254.074 554.698 254.135 554.453 254.257C554.209 254.376 554.02 254.547 553.887 254.768C553.753 254.987 553.688 255.244 553.691 255.54C553.688 255.841 553.755 256.104 553.891 256.328C554.03 256.553 554.222 256.727 554.466 256.852C554.711 256.977 554.992 257.04 555.31 257.04ZM559.464 260.21V259.341L563.3 253.273H563.93V254.619H563.504L560.607 259.205V259.273H565.771V260.21H559.464ZM563.572 262V259.946V259.541V253.273H564.578V262H563.572ZM568.032 253.273V254.04C568.032 254.273 567.989 254.521 567.904 254.786C567.821 255.047 567.699 255.301 567.537 255.548C567.378 255.793 567.185 256.006 566.958 256.188L566.412 255.744C566.591 255.489 566.746 255.223 566.877 254.947C567.01 254.669 567.077 254.372 567.077 254.057V253.273H568.032ZM570.213 253.273V254.04C570.213 254.273 570.171 254.521 570.086 254.786C570.003 255.047 569.881 255.301 569.719 255.548C569.56 255.793 569.367 256.006 569.14 256.188L568.594 255.744C568.773 255.489 568.928 255.223 569.059 254.947C569.192 254.669 569.259 254.372 569.259 254.057V253.273H570.213Z" fill="#307FE2"/>
<defs>
<filter id="filter0_f_2631_39836" x="52.25" y="234" width="271.461" height="148.25" filterUnits="userSpaceOnUse" color-interpolation-filters="sRGB">
<feFlood flood-opacity="0" result="BackgroundImageFix"/>
<feBlend mode="normal" in="SourceGraphic" in2="BackgroundImageFix" result="shape"/>
<feGaussianBlur stdDeviation="2" result="effect1_foregroundBlur_2631_39836"/>
</filter>
<filter id="filter1_d_2631_39836" x="280.238" y="315.533" width="16.5078" height="15.8466" filterUnits="userSpaceOnUse" color-interpolation-filters="sRGB">
<feFlood flood-opacity="0" result="BackgroundImageFix"/>
<feColorMatrix in="SourceAlpha" type="matrix" values="0 0 0 0 0 0 0 0 0 0 0 0 0 0 0 0 0 0 127 0" result="hardAlpha"/>
<feOffset dx="1"/>
<feGaussianBlur stdDeviation="0.5"/>
<feColorMatrix type="matrix" values="0 0 0 0 0 0 0 0 0 0 0 0 0 0 0 0 0 0 0.4 0"/>
<feBlend mode="normal" in2="BackgroundImageFix" result="effect1_dropShadow_2631_39836"/>
<feBlend mode="normal" in="SourceGraphic" in2="effect1_dropShadow_2631_39836" result="shape"/>
</filter>
<linearGradient id="paint0_linear_2631_39836" x1="48.9184" y1="282.984" x2="84.389" y2="227.069" gradientUnits="userSpaceOnUse">
<stop stop-color="#307FE2"/>
<stop offset="1" stop-color="#133166"/>
</linearGradient>
<linearGradient id="paint1_linear_2631_39836" x1="49.2151" y1="229.247" x2="81.7614" y2="171.664" gradientUnits="userSpaceOnUse">
<stop stop-color="#307FE2"/>
<stop offset="1" stop-color="#133166"/>
</linearGradient>
<clipPath id="clip0_2631_39836">
<rect width="125.35" height="47.37" fill="white" transform="translate(294.5 41)"/>
</clipPath>
<clipPath id="clip1_2631_39836">
<rect width="129" height="9" fill="white" transform="translate(290.5 238)"/>
</clipPath>
</defs>
</svg>
