<svg width="1029" height="442" fill="none" xmlns="http://www.w3.org/2000/svg">
  <path d="M.5 113c96.483 0 62.765 34.503 164.677 34.503M824.5 143.5c76.5 0 120.776-4.92 106.5 65.202-14.998 73.668 76 42.971 93 102.971 17 60-31 113-107 113H725.211" stroke="#CCE3FF" stroke-width="3" stroke-dasharray="5 5"/>
  <path d="M264.038 144.57h475.796" stroke="#CCE3FF" stroke-width="3" stroke-miterlimit="10"/>
  <path d="m326.845 136.03 8.381 8.41-8.594 8.63M661.457 136.2l8.381 8.41-8.594 8.63" stroke="#2A7DE1" stroke-width="3" stroke-linecap="round" stroke-linejoin="round"/>
  <path d="M181.405 129v-11.636h4.364c.894 0 1.644.166 2.25.5a3.32 3.32 0 0 1 1.38 1.375c.315.579.472 1.238.472 1.977 0 .746-.157 1.409-.472 1.989a3.365 3.365 0 0 1-1.392 1.369c-.613.329-1.369.494-2.267.494h-2.892v-1.733h2.608c.523 0 .951-.091 1.284-.273a1.71 1.71 0 0 0 .739-.75c.163-.318.244-.683.244-1.096 0-.413-.081-.777-.244-1.091a1.66 1.66 0 0 0-.744-.733c-.334-.178-.764-.267-1.29-.267h-1.932V129h-2.108Zm13.248.17c-.852 0-1.591-.187-2.216-.562a3.825 3.825 0 0 1-1.455-1.574c-.341-.674-.511-1.462-.511-2.364 0-.901.17-1.691.511-2.369a3.814 3.814 0 0 1 1.455-1.579c.625-.375 1.364-.563 2.216-.563.852 0 1.591.188 2.216.563a3.774 3.774 0 0 1 1.449 1.579c.344.678.517 1.468.517 2.369 0 .902-.173 1.69-.517 2.364a3.785 3.785 0 0 1-1.449 1.574c-.625.375-1.364.562-2.216.562Zm.011-1.647c.462 0 .849-.127 1.159-.381.311-.258.542-.602.693-1.034.156-.432.233-.913.233-1.443 0-.534-.077-1.017-.233-1.449-.151-.436-.382-.782-.693-1.04-.31-.257-.697-.386-1.159-.386-.473 0-.867.129-1.182.386-.31.258-.543.604-.699 1.04a4.37 4.37 0 0 0-.227 1.449c0 .53.076 1.011.227 1.443.156.432.389.776.699 1.034.315.254.709.381 1.182.381Zm6.828 1.477-2.466-8.727h2.096l1.534 6.136h.08l1.568-6.136h2.074l1.568 6.102h.085l1.512-6.102h2.102L209.173 129h-2.142l-1.636-5.898h-.119L203.639 129h-2.147Zm14.563.17c-.875 0-1.631-.181-2.267-.545a3.689 3.689 0 0 1-1.461-1.557c-.341-.674-.511-1.468-.511-2.38 0-.898.17-1.686.511-2.364a3.867 3.867 0 0 1 1.444-1.591c.617-.383 1.342-.574 2.176-.574.538 0 1.045.087 1.522.261.481.171.906.436 1.273.796.371.36.663.818.875 1.375.212.553.318 1.212.318 1.977v.631h-7.153v-1.387h5.182a2.214 2.214 0 0 0-.256-1.051c-.167-.31-.4-.555-.699-.733a1.963 1.963 0 0 0-1.034-.267c-.42 0-.79.103-1.108.307a2.114 2.114 0 0 0-.744.796 2.29 2.29 0 0 0-.267 1.074v1.21c0 .507.093.943.278 1.307.186.359.445.636.779.829.333.189.723.284 1.17.284.299 0 .57-.041.813-.125.242-.087.452-.214.63-.381.178-.166.313-.373.404-.619l1.92.216a2.991 2.991 0 0 1-.693 1.33 3.385 3.385 0 0 1-1.296.875c-.526.204-1.128.306-1.806.306Zm4.98-.17v-8.727h1.995v1.454h.091c.159-.504.431-.892.818-1.165.39-.276.835-.414 1.335-.414.114 0 .241.005.381.017.144.007.263.021.358.04v1.892a2.13 2.13 0 0 0-.415-.08 3.906 3.906 0 0 0-.54-.04c-.375 0-.712.082-1.011.245a1.78 1.78 0 0 0-.699.664 1.869 1.869 0 0 0-.256.983V129h-2.057Zm15.448-8.438a1.553 1.553 0 0 0-.671-1.159c-.39-.276-.898-.414-1.523-.414-.439 0-.816.066-1.13.199-.315.132-.555.312-.722.539a1.314 1.314 0 0 0-.255.779c0 .242.054.452.164.63.114.178.267.33.461.455.193.121.407.223.642.307.234.083.471.153.71.21l1.091.273c.439.102.861.24 1.267.414.409.175.774.394 1.096.66.326.265.584.585.773.96.189.375.284.814.284 1.318 0 .682-.174 1.282-.523 1.801-.348.515-.852.919-1.511 1.21-.655.288-1.449.432-2.381.432-.905 0-1.691-.14-2.358-.42-.662-.281-1.181-.69-1.556-1.228-.372-.537-.572-1.193-.603-1.966h2.074c.03.406.155.743.375 1.012s.506.47.858.602a3.39 3.39 0 0 0 1.193.199c.459 0 .86-.068 1.205-.205.348-.14.621-.333.818-.579.197-.25.297-.542.301-.875-.004-.303-.093-.553-.267-.75-.174-.201-.418-.368-.733-.5a7.061 7.061 0 0 0-1.091-.364l-1.324-.341c-.958-.246-1.715-.619-2.272-1.119-.553-.504-.83-1.172-.83-2.006 0-.685.186-1.286.557-1.801.375-.515.884-.915 1.528-1.199.644-.288 1.373-.431 2.188-.431.826 0 1.549.143 2.17.431.625.284 1.116.68 1.472 1.188.356.504.54 1.083.551 1.738h-2.028Zm8.898 4.768v-5.057h2.057V129h-1.995v-1.551h-.09a2.63 2.63 0 0 1-.972 1.199c-.447.31-.998.466-1.653.466-.572 0-1.078-.127-1.517-.381a2.648 2.648 0 0 1-1.023-1.119c-.246-.493-.37-1.087-.37-1.784v-5.557h2.057v5.238c0 .553.152.993.455 1.319.303.325.701.488 1.193.488.303 0 .597-.074.881-.221a1.8 1.8 0 0 0 .699-.659c.185-.296.278-.665.278-1.108Zm3.532 6.943v-12h2.023v1.443h.119c.106-.212.256-.438.449-.676.193-.243.454-.449.784-.62.329-.174.75-.261 1.261-.261.674 0 1.282.172 1.824.517.546.341.977.847 1.296 1.517.322.667.483 1.485.483 2.455 0 .958-.158 1.772-.472 2.443-.314.67-.743 1.182-1.284 1.534a3.304 3.304 0 0 1-1.841.528c-.5 0-.915-.083-1.244-.25a2.519 2.519 0 0 1-.796-.602 3.922 3.922 0 0 1-.46-.676h-.085v4.648h-2.057Zm2.017-7.637c0 .565.079 1.059.239 1.483.162.425.395.756.698.995.307.234.678.352 1.114.352.455 0 .835-.121 1.142-.364.307-.246.538-.581.693-1.005.159-.428.239-.915.239-1.461a4.16 4.16 0 0 0-.233-1.443c-.155-.42-.386-.75-.693-.988-.307-.239-.69-.358-1.148-.358-.439 0-.812.115-1.119.346-.307.231-.54.555-.699.972-.155.416-.233.907-.233 1.471Zm7.343 7.637v-12h2.023v1.443h.119c.106-.212.256-.438.449-.676.193-.243.454-.449.784-.62.329-.174.75-.261 1.261-.261.674 0 1.282.172 1.824.517.546.341.977.847 1.296 1.517.322.667.483 1.485.483 2.455 0 .958-.158 1.772-.472 2.443-.314.67-.743 1.182-1.284 1.534a3.304 3.304 0 0 1-1.841.528c-.5 0-.915-.083-1.244-.25a2.519 2.519 0 0 1-.796-.602 3.922 3.922 0 0 1-.46-.676h-.085v4.648h-2.057Zm2.017-7.637c0 .565.079 1.059.239 1.483.162.425.395.756.698.995.307.234.678.352 1.114.352.455 0 .835-.121 1.142-.364.307-.246.538-.581.693-1.005.159-.428.239-.915.239-1.461a4.16 4.16 0 0 0-.233-1.443c-.155-.42-.386-.75-.693-.988-.307-.239-.69-.358-1.148-.358-.439 0-.812.115-1.119.346-.307.231-.54.555-.699.972-.155.416-.233.907-.233 1.471Zm9.4-7.272V129h-2.057v-11.636h2.057Zm2.753 14.909c-.28 0-.54-.023-.778-.068a2.892 2.892 0 0 1-.563-.148l.478-1.602c.299.087.566.128.801.125a.983.983 0 0 0 .619-.222c.182-.14.335-.375.46-.705l.176-.471-3.164-8.909h2.181l2.012 6.591h.091l2.017-6.591h2.187l-3.494 9.784a3.913 3.913 0 0 1-.648 1.187 2.635 2.635 0 0 1-.988.762c-.387.178-.849.267-1.387.267Z" fill="#2163B3"/>
  <path d="M280.772 99h-101.96c-5.523 0-10 4.477-10 10v70.78c0 5.523 4.477 10 10 10h101.96c5.523 0 10-4.477 10-10V109c0-5.523-4.477-10-10-10Z" fill="#CCE3FF"/>
  <path d="m270.992 139.26-11.08 23.01c-.38.8-1.57.61-1.69-.27l-1.94-14.45a.889.889 0 0 0-1.28-.68l-4.27 2.13c-.76.38-1.57-.42-1.2-1.19l11.08-23.01c.38-.8 1.57-.61 1.69.27l1.94 14.45c.08.61.73.95 1.28.68l4.27-2.13c.76-.38 1.57.42 1.2 1.19Z" fill="#307FE2"/>
  <path d="m271.172 129.94-2.77 5.75c-.1.2-.39.15-.42-.07l-.49-3.61a.222.222 0 0 0-.32-.17l-1.07.53c-.19.09-.39-.1-.3-.3l2.77-5.75c.1-.2.39-.15.42.07l.49 3.61c.02.15.18.24.32.17l1.07-.53c.19-.09.39.1.3.3ZM254.832 155.28l-2.77 5.75c-.1.2-.39.15-.42-.07l-.49-3.61a.222.222 0 0 0-.32-.17l-1.07.53c-.19.09-.39-.1-.3-.3l2.77-5.75c.1-.2.39-.15.42.07l.49 3.61c.02.15.18.24.32.17l1.07-.53c.19-.09.39.1.3.3Z" fill="#2163B3"/>
  <path d="M208.562 148.98v16.25c0 1.93-1.8 3.39-3.66 2.93-3.29-.82-6.33-2.27-8.98-4.22l-3.02 3.01c-.82.82-1.89 1.23-2.96 1.23s-2.15-.41-2.97-1.23a4.189 4.189 0 0 1 0-5.93l3.09-3.09a25.522 25.522 0 0 1-3.78-8.27c-.48-1.88.99-3.68 2.92-3.68h16.36c1.66 0 3 1.34 3 3ZM235.222 166.95c-.82.82-1.89 1.23-2.96 1.23s-2.15-.41-2.97-1.23l-3.05-3.04a25.403 25.403 0 0 1-9.02 4.25c-1.86.46-3.66-1-3.66-2.93v-16.25c0-1.66 1.34-3 3-3h16.36c1.93 0 3.4 1.8 2.92 3.68a25.56 25.56 0 0 1-3.75 8.23l3.13 3.13a4.189 4.189 0 0 1 0 5.93Z" fill="#307FE2"/>
  <path d="M204.992 161.47V151.2c0-1.03-.83-1.86-1.86-1.86h-10.2c-1.19 0-2.11 1.11-1.83 2.27.47 1.97 1.46 4.44 4.42 7.4s5.18 3.79 7.19 4.28c1.16.29 2.28-.62 2.28-1.82ZM217.402 161.47V151.2c0-1.03.83-1.86 1.86-1.86h10.2c1.19 0 2.11 1.11 1.83 2.27-.47 1.97-1.46 4.44-4.42 7.4s-5.18 3.79-7.19 4.28c-1.16.29-2.28-.62-2.28-1.82Z" fill="#2163B3"/>
  <path d="M235.912 137.32c.45 1.87-1.02 3.66-2.94 3.66h-16.41c-1.66 0-3-1.35-3-3v-16.52c0-1.93 1.8-3.39 3.67-2.93 3.26.81 6.26 2.23 8.89 4.16l3.17-3.17c.82-.82 1.89-1.23 2.97-1.23 1.08 0 2.14.41 2.96 1.23a4.189 4.189 0 0 1 0 5.93l-3.22 3.23c1.81 2.57 3.15 5.49 3.91 8.64ZM208.562 121.46v16.52c0 1.65-1.34 3-3 3h-16.41c-1.92 0-3.39-1.79-2.94-3.66.76-3.17 2.12-6.1 3.94-8.69l-3.18-3.18a4.189 4.189 0 0 1 0-5.93c.82-.82 1.89-1.23 2.97-1.23 1.08 0 2.14.41 2.96 1.23l3.14 3.14c2.62-1.91 5.61-3.33 8.85-4.13 1.87-.46 3.67 1 3.67 2.93Z" fill="#307FE2"/>
  <path d="M204.992 125.11v10.27c0 1.03-.83 1.86-1.86 1.86h-10.2c-1.19 0-2.11-1.11-1.83-2.27.47-1.97 1.46-4.44 4.42-7.4s5.18-3.79 7.19-4.28c1.16-.29 2.28.62 2.28 1.82ZM217.402 125.11v10.27c0 1.03.83 1.86 1.86 1.86h10.2c1.19 0 2.11-1.11 1.83-2.27-.47-1.97-1.46-4.44-4.42-7.4s-5.18-3.79-7.19-4.28c-1.16-.29-2.28.62-2.28 1.82Z" fill="#2163B3"/>
  <path d="M190.082 124.78a2.15 2.15 0 1 0 0-4.3 2.15 2.15 0 0 0 0 4.3ZM232.102 124.78a2.15 2.15 0 1 0 0-4.3 2.15 2.15 0 0 0 0 4.3ZM232.102 165.99a2.15 2.15 0 1 0 0-4.3 2.15 2.15 0 0 0 0 4.3ZM190.082 165.99a2.15 2.15 0 1 0 0-4.3 2.15 2.15 0 0 0 0 4.3Z" fill="#CCE3FF"/>
  <path d="M470.125 77.364h2.579l3.455 8.431h.136l3.455-8.431h2.579V89h-2.022v-7.994h-.108l-3.216 7.96h-1.512l-3.215-7.977h-.108V89h-2.023V77.364ZM483.894 89v-8.727h2.057V89h-2.057Zm1.034-9.966a1.2 1.2 0 0 1-.841-.324 1.043 1.043 0 0 1-.352-.79c0-.31.117-.573.352-.79.235-.219.515-.329.841-.329.33 0 .61.11.841.33.235.216.352.479.352.79 0 .306-.117.57-.352.79a1.186 1.186 0 0 1-.841.323Zm4.555 4.852V89h-2.057v-8.727h1.966v1.483h.102c.201-.489.521-.877.96-1.165.443-.288.991-.432 1.642-.432.603 0 1.127.129 1.574.386.451.258.799.631 1.046 1.12.25.488.373 1.081.369 1.778V89h-2.057v-5.239c0-.583-.151-1.04-.454-1.369-.3-.33-.714-.494-1.245-.494-.36 0-.68.08-.96.238a1.65 1.65 0 0 0-.653.677c-.156.295-.233.653-.233 1.073ZM496.536 89v-8.727h2.057V89h-2.057Zm1.034-9.966a1.2 1.2 0 0 1-.841-.324 1.043 1.043 0 0 1-.352-.79c0-.31.117-.573.352-.79.235-.219.515-.329.841-.329.329 0 .61.11.841.33.235.216.352.479.352.79 0 .306-.117.57-.352.79a1.188 1.188 0 0 1-.841.323Zm2.498 13.239v-12h2.022v1.443h.12c.106-.212.255-.438.449-.676.193-.243.454-.45.784-.62.329-.174.75-.26 1.261-.26.674 0 1.282.171 1.824.516.545.341.977.847 1.295 1.517.322.667.483 1.485.483 2.455 0 .958-.157 1.773-.471 2.443-.315.67-.743 1.182-1.284 1.534a3.304 3.304 0 0 1-1.841.528c-.5 0-.915-.083-1.245-.25a2.538 2.538 0 0 1-.795-.602 3.903 3.903 0 0 1-.46-.676h-.085v4.648h-2.057Zm2.017-7.637c0 .565.079 1.06.238 1.483.163.425.396.756.699.995.307.234.678.352 1.114.352.454 0 .835-.121 1.142-.364.307-.246.538-.581.693-1.005.159-.428.239-.915.239-1.46 0-.542-.078-1.023-.233-1.444-.156-.42-.387-.75-.693-.989-.307-.238-.69-.357-1.148-.357-.44 0-.813.115-1.119.346-.307.231-.54.555-.699.972-.156.416-.233.907-.233 1.471Zm11.15 4.535c-.853 0-1.591-.188-2.216-.563a3.823 3.823 0 0 1-1.455-1.574c-.341-.674-.511-1.462-.511-2.364 0-.901.17-1.69.511-2.369a3.815 3.815 0 0 1 1.455-1.58c.625-.374 1.363-.562 2.216-.562.852 0 1.59.188 2.215.563a3.775 3.775 0 0 1 1.449 1.58c.345.677.517 1.467.517 2.368 0 .902-.172 1.69-.517 2.364a3.783 3.783 0 0 1-1.449 1.574c-.625.375-1.363.563-2.215.563Zm.011-1.648c.462 0 .848-.127 1.159-.381.311-.257.542-.602.693-1.034.155-.432.233-.913.233-1.443 0-.534-.078-1.017-.233-1.45-.151-.435-.382-.781-.693-1.039-.311-.257-.697-.386-1.159-.386-.474 0-.868.129-1.182.386-.311.258-.543.604-.699 1.04a4.369 4.369 0 0 0-.227 1.449c0 .53.076 1.011.227 1.443.156.432.388.776.699 1.034.314.254.708.38 1.182.38Zm8.515 1.63a3.3 3.3 0 0 1-1.841-.528c-.542-.352-.97-.864-1.284-1.534-.315-.67-.472-1.485-.472-2.443 0-.97.159-1.788.477-2.455.322-.67.756-1.176 1.302-1.517a3.34 3.34 0 0 1 1.823-.517c.512 0 .932.087 1.262.261.329.17.591.377.784.62.193.238.343.464.449.676h.085v-4.352h2.062V89h-2.022v-1.375h-.125c-.106.212-.26.438-.461.676-.2.235-.465.436-.795.602-.33.167-.744.25-1.244.25Zm.574-1.687c.435 0 .806-.117 1.113-.352.307-.239.54-.57.699-.995.159-.424.239-.918.239-1.483 0-.564-.08-1.055-.239-1.471-.155-.417-.386-.74-.693-.972-.303-.23-.676-.346-1.119-.346-.459 0-.841.119-1.148.358-.307.238-.538.568-.693.988-.156.42-.233.902-.233 1.443 0 .546.077 1.033.233 1.46.159.425.392.76.699 1.006.31.243.691.364 1.142.364Z" fill="#2163B3"/>
  <path d="M598.41 41H396.76c-5.523 0-10 4.477-10 10v185.23c0 5.523 4.477 10 10 10h201.65c5.523 0 10-4.477 10-10V51c0-5.523-4.477-10-10-10Z" fill="#CCE3FF"/>
  <path d="M426.4 102.55h142.36v7.85c0 1.1-.74 2-1.645 2H428.046c-.905 0-1.646-.9-1.646-2v-7.85Z" fill="#2163B3"/>
  <path d="M568.76 102.55H426.4l6.524-29.56c.486-2.19 2.115-3.7 3.974-3.7h120.978c1.843 0 3.455 1.48 3.957 3.63l6.927 29.63Z" fill="#307FE2"/>
  <path d="M503.685 76h-19.161v6.95h6.392v-3.47h12.769v3.47h6.384V76h-6.384Z" fill="#2163B3"/>
  <path d="M499.786 81.22h-4.972c-.39 0-.706.423-.706.945v5.069c0 .522.316.945.706.945h4.972c.39 0 .706-.423.706-.945v-5.069c0-.522-.316-.945-.706-.945Z" fill="#2163B3"/>
  <path d="m503.685 88.766-6.477 3.527-6.292-3.433v-4.17h-6.392v5.627h.029l12.655 6.893 12.833-6.988h.028V84.69h-6.384v4.076ZM426.4 155.32h142.36v7.85c0 1.1-.74 2-1.645 2H428.046c-.905 0-1.646-.9-1.646-2v-7.85Z" fill="#2163B3"/>
  <path d="M568.76 155.32H426.4l6.524-29.56c.486-2.19 2.115-3.7 3.974-3.7h120.978c1.843 0 3.455 1.48 3.957 3.63l6.927 29.63Z" fill="#307FE2"/>
  <path d="M503.685 128h-19.161v6.95h6.392v-3.47h12.769v3.47h6.384V128h-6.384Z" fill="#2163B3"/>
  <path d="M499.786 133.22h-4.972c-.39 0-.706.423-.706.945v5.069c0 .522.316.945.706.945h4.972c.39 0 .706-.423.706-.945v-5.069c0-.522-.316-.945-.706-.945Z" fill="#2163B3"/>
  <path d="m503.685 140.766-6.477 3.527-6.292-3.433v-4.17h-6.392v5.627h.029l12.655 6.893 12.833-6.988h.028v-5.532h-6.384v4.076ZM426.4 208.1h142.36v7.85c0 1.1-.74 2-1.645 2H428.046c-.905 0-1.646-.9-1.646-2v-7.85Z" fill="#2163B3"/>
  <path d="M568.76 208.1H426.4l6.524-29.56c.486-2.19 2.115-3.7 3.974-3.7h120.978c1.843 0 3.455 1.48 3.957 3.63l6.927 29.63Z" fill="#307FE2"/>
  <path d="M503.685 180h-19.161v6.95h6.392v-3.47h12.769v3.47h6.384V180h-6.384Z" fill="#2163B3"/>
  <path d="M499.786 185.22h-4.972c-.39 0-.706.423-.706.945v5.069c0 .522.316.945.706.945h4.972c.39 0 .706-.423.706-.945v-5.069c0-.522-.316-.945-.706-.945Z" fill="#2163B3"/>
  <path d="m503.685 192.766-6.477 3.527-6.292-3.433v-4.17h-6.392v5.627h.029l12.655 6.893 12.833-6.988h.028v-5.532h-6.384v4.076ZM749.933 116.29h-2.125a2.666 2.666 0 0 0-.335-.926 2.508 2.508 0 0 0-.608-.694 2.55 2.55 0 0 0-.83-.426 3.25 3.25 0 0 0-.994-.147c-.633 0-1.193.159-1.682.477-.489.314-.871.776-1.148 1.386-.276.606-.415 1.347-.415 2.222 0 .89.139 1.64.415 2.25.281.606.663 1.064 1.148 1.375.489.307 1.047.46 1.676.46.349 0 .674-.045.977-.136.307-.095.582-.233.824-.415a2.44 2.44 0 0 0 .62-.671c.17-.265.287-.568.352-.909l2.125.012a4.591 4.591 0 0 1-.517 1.557 4.613 4.613 0 0 1-1.029 1.284c-.424.367-.92.655-1.488.863a5.542 5.542 0 0 1-1.892.307c-1.023 0-1.936-.237-2.739-.71-.803-.474-1.436-1.157-1.898-2.051-.462-.894-.693-1.966-.693-3.216 0-1.254.233-2.326.699-3.216.466-.894 1.1-1.578 1.903-2.051.803-.474 1.713-.71 2.728-.71.647 0 1.25.09 1.806.272a4.63 4.63 0 0 1 1.489.801c.436.349.794.777 1.074 1.284.284.504.47 1.08.557 1.728Zm1.199 7.71v-8.727h1.995v1.454h.091c.159-.504.431-.892.818-1.165.39-.276.835-.414 1.335-.414.114 0 .24.005.381.017.144.007.263.021.358.04v1.892a2.147 2.147 0 0 0-.415-.08 3.906 3.906 0 0 0-.54-.04c-.375 0-.712.082-1.011.245a1.78 1.78 0 0 0-.699.664 1.869 1.869 0 0 0-.256.983V124h-2.057Zm7.248 3.273c-.28 0-.54-.023-.778-.068a2.892 2.892 0 0 1-.563-.148l.477-1.602c.3.087.567.128.802.125a.985.985 0 0 0 .619-.222c.182-.14.335-.375.46-.705l.176-.471-3.165-8.909h2.182l2.012 6.591h.091l2.017-6.591h2.187l-3.494 9.784a3.913 3.913 0 0 1-.648 1.187 2.63 2.63 0 0 1-.989.762c-.386.178-.848.267-1.386.267Zm7.3 0v-12h2.023v1.443h.119a3.83 3.83 0 0 1 .449-.676c.194-.243.455-.449.784-.62.33-.174.75-.261 1.262-.261.674 0 1.282.172 1.824.517.545.341.977.847 1.295 1.517.322.667.483 1.485.483 2.455 0 .958-.157 1.772-.472 2.443-.314.67-.742 1.182-1.284 1.534a3.302 3.302 0 0 1-1.841.528c-.5 0-.914-.083-1.244-.25a2.514 2.514 0 0 1-.795-.602 3.932 3.932 0 0 1-.461-.676h-.085v4.648h-2.057Zm2.017-7.637c0 .565.08 1.059.239 1.483.163.425.396.756.699.995.307.234.678.352 1.114.352.454 0 .835-.121 1.142-.364.306-.246.538-.581.693-1.005.159-.428.238-.915.238-1.461a4.16 4.16 0 0 0-.232-1.443c-.156-.42-.387-.75-.694-.988-.306-.239-.689-.358-1.147-.358-.44 0-.813.115-1.12.346-.307.231-.539.555-.699.972-.155.416-.233.907-.233 1.471Zm11.701-4.363v1.591h-5.017v-1.591h5.017Zm-3.778-2.091h2.057v8.193c0 .277.041.489.125.636a.676.676 0 0 0 .341.296c.14.053.295.079.466.079.128 0 .246-.009.352-.028.11-.019.193-.036.25-.051l.346 1.608a4.662 4.662 0 0 1-.471.125 3.86 3.86 0 0 1-.739.079 3.348 3.348 0 0 1-1.392-.233 2.169 2.169 0 0 1-.983-.806c-.238-.364-.356-.819-.352-1.364v-8.534Zm8.572 10.988c-.853 0-1.591-.187-2.216-.562a3.825 3.825 0 0 1-1.455-1.574c-.341-.674-.511-1.462-.511-2.364 0-.901.17-1.691.511-2.369a3.814 3.814 0 0 1 1.455-1.579c.625-.375 1.363-.563 2.216-.563.852 0 1.591.188 2.216.563a3.772 3.772 0 0 1 1.448 1.579c.345.678.517 1.468.517 2.369 0 .902-.172 1.69-.517 2.364a3.783 3.783 0 0 1-1.448 1.574c-.625.375-1.364.562-2.216.562Zm.011-1.647c.462 0 .848-.127 1.159-.381.311-.258.542-.602.693-1.034.156-.432.233-.913.233-1.443 0-.534-.077-1.017-.233-1.449-.151-.436-.382-.782-.693-1.04-.311-.257-.697-.386-1.159-.386-.473 0-.867.129-1.182.386-.31.258-.543.604-.699 1.04a4.37 4.37 0 0 0-.227 1.449c0 .53.076 1.011.227 1.443.156.432.389.776.699 1.034.315.254.709.381 1.182.381ZM795.348 124l-3.284-11.636h2.267l2.096 8.551h.108l2.239-8.551h2.062l2.245 8.556h.102l2.097-8.556h2.267L804.262 124h-2.079l-2.33-8.165h-.091L797.427 124h-2.079Zm14.55.176a3.639 3.639 0 0 1-1.494-.295 2.443 2.443 0 0 1-1.046-.887c-.254-.39-.38-.871-.38-1.443 0-.492.091-.899.272-1.221.182-.322.43-.58.745-.773a3.767 3.767 0 0 1 1.062-.438 8.628 8.628 0 0 1 1.233-.221c.511-.053.926-.101 1.244-.142.319-.046.55-.114.694-.205.147-.095.221-.24.221-.437v-.034c0-.428-.127-.76-.38-.995-.254-.235-.62-.352-1.097-.352-.504 0-.903.11-1.199.329-.292.22-.489.48-.591.779l-1.92-.273c.151-.53.401-.973.75-1.329.348-.36.774-.629 1.278-.807a4.89 4.89 0 0 1 1.671-.273c.42 0 .839.049 1.255.148.417.098.798.261 1.142.488.345.224.621.529.83.915.212.387.318.87.318 1.449V124h-1.977v-1.199h-.068a2.51 2.51 0 0 1-.529.682 2.552 2.552 0 0 1-.846.506c-.338.125-.733.187-1.188.187Zm.534-1.511c.413 0 .771-.082 1.074-.245a1.8 1.8 0 0 0 .699-.659c.167-.272.25-.57.25-.892v-1.028a.98.98 0 0 1-.33.148 4.739 4.739 0 0 1-.511.119c-.189.034-.377.064-.563.091l-.482.068c-.307.042-.582.11-.824.205a1.36 1.36 0 0 0-.574.397c-.14.167-.21.383-.21.648 0 .379.138.665.414.858.277.193.629.29 1.057.29Zm7.559-10.301V124h-2.057v-11.636h2.057Zm3.532 0V124h-2.057v-11.636h2.057Zm5.339 11.806c-.875 0-1.631-.181-2.267-.545a3.689 3.689 0 0 1-1.461-1.557c-.341-.674-.511-1.468-.511-2.38 0-.898.17-1.686.511-2.364a3.872 3.872 0 0 1 1.443-1.591c.618-.383 1.343-.574 2.177-.574a4.41 4.41 0 0 1 1.522.261c.481.171.906.436 1.273.796.371.36.663.818.875 1.375.212.553.318 1.212.318 1.977v.631h-7.153v-1.387h5.182a2.214 2.214 0 0 0-.256-1.051c-.167-.31-.4-.555-.699-.733a1.963 1.963 0 0 0-1.034-.267c-.42 0-.79.103-1.108.307a2.114 2.114 0 0 0-.744.796 2.278 2.278 0 0 0-.267 1.074v1.21c0 .507.093.943.278 1.307.186.359.445.636.779.829.333.189.723.284 1.17.284.299 0 .57-.041.812-.125.243-.087.453-.214.631-.381.178-.166.313-.373.404-.619l1.92.216a2.991 2.991 0 0 1-.693 1.33 3.385 3.385 0 0 1-1.296.875c-.526.204-1.128.306-1.806.306Zm9.338-8.897v1.591h-5.017v-1.591h5.017Zm-3.778-2.091h2.057v8.193c0 .277.041.489.125.636.087.144.2.243.341.296.14.053.295.079.465.079.129 0 .247-.009.353-.028.11-.019.193-.036.25-.051l.346 1.608a4.662 4.662 0 0 1-.471.125 3.86 3.86 0 0 1-.739.079 3.348 3.348 0 0 1-1.392-.233 2.169 2.169 0 0 1-.983-.806c-.239-.364-.356-.819-.352-1.364v-8.534Z" fill="#2163B3"/>
  <path d="M786.324 118.9c17.646 0 31.95-14.305 31.95-31.95S803.97 55 786.324 55c-17.645 0-31.95 14.305-31.95 31.95s14.305 31.95 31.95 31.95Z" fill="#2163B3"/>
  <path d="M786.324 112.22c13.956 0 25.27-11.314 25.27-25.27s-11.314-25.27-25.27-25.27-25.27 11.314-25.27 25.27 11.314 25.27 25.27 25.27Z" fill="#307FE2"/>
  <path d="M795.294 85.7c1.86-.95 3.03-2.62 2.76-5.4-.37-3.8-3.65-5.08-7.8-5.44v-5.27h-3.21v5.13c-.85 0-1.71.02-2.57.03v-5.17h-3.21v5.27c-.7.01-1.38.03-2.05.03v-.02h-4.43v3.43s2.37-.04 2.33 0c1.3 0 1.73.76 1.85 1.41v14.45c-.06.41-.3 1.06-1.21 1.06.04.04-2.34 0-2.34 0l-.64 3.83h4.18c.78 0 1.54.01 2.3.02v5.33h3.21v-5.28c.88.02 1.73.03 2.57.02v5.25h3.21v-5.32c5.4-.31 9.18-1.67 9.65-6.74.38-4.08-1.54-5.9-4.61-6.64l.01.02Zm-10.75-7.17c1.81 0 7.51-.58 7.51 3.21 0 3.63-5.7 3.2-7.51 3.2v-6.41Zm0 16.71v-7.07c2.18 0 9.01-.63 9.01 3.53 0 3.99-6.83 3.53-9.01 3.53v.01Z" fill="#fff"/>
  <path d="M839.304 97.59h-101.96c-5.523 0-10 4.477-10 10v70.78c0 5.523 4.477 10 10 10h101.96c5.523 0 10-4.477 10-10v-70.78c0-5.523-4.477-10-10-10Z" fill="#CCE3FF"/>
  <path d="M816.864 133.4h32.33v19.15h-32.33c-1.66 0-3-1.34-3-3V136.4c0-1.66 1.34-3 3-3Z" fill="#307FE2"/>
  <path d="M823.754 147.75a4.47 4.47 0 1 0 0-8.94 4.47 4.47 0 0 0 0 8.94Z" fill="#2163B3"/>
  <path fill-rule="evenodd" clip-rule="evenodd" d="M721.428 407.096h12.491c5.522 0 10 4.477 10 10V432c0 5.523-4.478 10-10 10h-12.491v-7.632h-14.214v-6.015h14.214v-7.618h-14.209v-5.996h14.209v-7.643Z" fill="#CCE3FF"/>
</svg>