<svg width="396" height="977" viewBox="0 0 396 977" fill="none" xmlns="http://www.w3.org/2000/svg">
<path d="M155.311 0.214844C155.311 0.214844 155.311 38.2917 155.311 157.419M204.48 743.565H394.5V964.25H305.003" stroke="#CCE3FF" stroke-width="3" stroke-dasharray="5 5"/>
<path fill-rule="evenodd" clip-rule="evenodd" d="M304.277 953.176H309.27C314.793 953.176 319.27 957.653 319.27 963.176V966.443C319.27 971.966 314.793 976.443 309.27 976.443H304.277V971.356H294.802V967.346H304.277V962.268H294.804V958.27H304.277V953.176Z" fill="#CCE3FF"/>
<path d="M155.5 205.26L155.5 763.88" stroke="#CCE3FF" stroke-width="3" stroke-miterlimit="10"/>
<path d="M164.02 597.591L155.61 607.431L146.98 597.341" stroke="#2A7DE1" stroke-width="3" stroke-linecap="round" stroke-linejoin="round"/>
<path d="M163.893 285.345L155.474 295.435L147.107 285.345" stroke="#2A7DE1" stroke-width="3" stroke-linecap="round" stroke-linejoin="round"/>
<path d="M106.649 185V173.364H111.013C111.907 173.364 112.657 173.53 113.263 173.864C113.873 174.197 114.333 174.655 114.643 175.239C114.958 175.818 115.115 176.477 115.115 177.216C115.115 177.962 114.958 178.625 114.643 179.205C114.329 179.784 113.865 180.241 113.251 180.574C112.638 180.903 111.882 181.068 110.984 181.068H108.092V179.335H110.7C111.223 179.335 111.651 179.244 111.984 179.062C112.318 178.881 112.564 178.631 112.723 178.312C112.886 177.994 112.967 177.629 112.967 177.216C112.967 176.803 112.886 176.439 112.723 176.125C112.564 175.811 112.316 175.566 111.979 175.392C111.645 175.214 111.215 175.125 110.689 175.125H108.757V185H106.649ZM119.897 185.17C119.045 185.17 118.306 184.983 117.681 184.608C117.056 184.233 116.571 183.708 116.227 183.034C115.886 182.36 115.715 181.572 115.715 180.67C115.715 179.769 115.886 178.979 116.227 178.301C116.571 177.623 117.056 177.097 117.681 176.722C118.306 176.347 119.045 176.159 119.897 176.159C120.749 176.159 121.488 176.347 122.113 176.722C122.738 177.097 123.221 177.623 123.562 178.301C123.906 178.979 124.079 179.769 124.079 180.67C124.079 181.572 123.906 182.36 123.562 183.034C123.221 183.708 122.738 184.233 122.113 184.608C121.488 184.983 120.749 185.17 119.897 185.17ZM119.908 183.523C120.37 183.523 120.757 183.396 121.067 183.142C121.378 182.884 121.609 182.54 121.761 182.108C121.916 181.676 121.994 181.195 121.994 180.665C121.994 180.131 121.916 179.648 121.761 179.216C121.609 178.78 121.378 178.434 121.067 178.176C120.757 177.919 120.37 177.79 119.908 177.79C119.435 177.79 119.041 177.919 118.727 178.176C118.416 178.434 118.183 178.78 118.028 179.216C117.876 179.648 117.8 180.131 117.8 180.665C117.8 181.195 117.876 181.676 118.028 182.108C118.183 182.54 118.416 182.884 118.727 183.142C119.041 183.396 119.435 183.523 119.908 183.523ZM126.736 185L124.27 176.273H126.366L127.9 182.409H127.98L129.548 176.273H131.622L133.19 182.375H133.275L134.787 176.273H136.889L134.417 185H132.275L130.639 179.102H130.52L128.883 185H126.736ZM141.299 185.17C140.424 185.17 139.668 184.989 139.032 184.625C138.399 184.258 137.912 183.739 137.572 183.068C137.231 182.394 137.06 181.6 137.06 180.688C137.06 179.79 137.231 179.002 137.572 178.324C137.916 177.642 138.397 177.112 139.015 176.733C139.632 176.35 140.357 176.159 141.191 176.159C141.729 176.159 142.236 176.246 142.714 176.42C143.195 176.591 143.619 176.856 143.986 177.216C144.357 177.576 144.649 178.034 144.861 178.591C145.073 179.144 145.179 179.803 145.179 180.568V181.199H138.026V179.812H143.208C143.204 179.419 143.119 179.068 142.952 178.761C142.786 178.451 142.553 178.206 142.253 178.028C141.958 177.85 141.613 177.761 141.219 177.761C140.799 177.761 140.429 177.864 140.111 178.068C139.793 178.269 139.545 178.534 139.367 178.864C139.193 179.189 139.104 179.547 139.1 179.938V181.148C139.1 181.655 139.193 182.091 139.378 182.455C139.564 182.814 139.823 183.091 140.157 183.284C140.49 183.473 140.88 183.568 141.327 183.568C141.626 183.568 141.897 183.527 142.14 183.443C142.382 183.356 142.592 183.229 142.77 183.062C142.948 182.896 143.083 182.689 143.174 182.443L145.094 182.659C144.973 183.167 144.742 183.61 144.401 183.989C144.064 184.364 143.632 184.655 143.106 184.864C142.579 185.068 141.977 185.17 141.299 185.17ZM146.28 185V176.273H148.274V177.727H148.365C148.524 177.223 148.797 176.835 149.183 176.562C149.573 176.286 150.018 176.148 150.518 176.148C150.632 176.148 150.759 176.153 150.899 176.165C151.043 176.172 151.162 176.186 151.257 176.205V178.097C151.17 178.066 151.031 178.04 150.842 178.017C150.656 177.991 150.476 177.977 150.302 177.977C149.927 177.977 149.59 178.059 149.291 178.222C148.995 178.381 148.762 178.602 148.592 178.886C148.422 179.17 148.336 179.498 148.336 179.869V185H146.28ZM161.727 176.562C161.674 176.066 161.45 175.68 161.056 175.403C160.666 175.127 160.159 174.989 159.534 174.989C159.094 174.989 158.717 175.055 158.403 175.188C158.089 175.32 157.848 175.5 157.681 175.727C157.515 175.955 157.429 176.214 157.426 176.506C157.426 176.748 157.481 176.958 157.59 177.136C157.704 177.314 157.857 177.466 158.051 177.591C158.244 177.712 158.458 177.814 158.693 177.898C158.928 177.981 159.164 178.051 159.403 178.108L160.494 178.381C160.933 178.483 161.356 178.621 161.761 178.795C162.17 178.97 162.535 179.189 162.857 179.455C163.183 179.72 163.441 180.04 163.63 180.415C163.82 180.79 163.914 181.229 163.914 181.733C163.914 182.415 163.74 183.015 163.392 183.534C163.043 184.049 162.539 184.453 161.88 184.744C161.225 185.032 160.431 185.176 159.5 185.176C158.594 185.176 157.808 185.036 157.142 184.756C156.479 184.475 155.96 184.066 155.585 183.528C155.214 182.991 155.013 182.335 154.982 181.562H157.056C157.087 181.968 157.212 182.305 157.431 182.574C157.651 182.843 157.937 183.044 158.289 183.176C158.645 183.309 159.043 183.375 159.482 183.375C159.941 183.375 160.342 183.307 160.687 183.17C161.035 183.03 161.308 182.837 161.505 182.591C161.702 182.341 161.803 182.049 161.806 181.716C161.803 181.413 161.714 181.163 161.539 180.966C161.365 180.765 161.121 180.598 160.806 180.466C160.496 180.33 160.132 180.208 159.715 180.102L158.392 179.761C157.433 179.515 156.676 179.142 156.119 178.642C155.566 178.138 155.289 177.47 155.289 176.636C155.289 175.951 155.475 175.35 155.846 174.835C156.221 174.32 156.731 173.92 157.375 173.636C158.018 173.348 158.748 173.205 159.562 173.205C160.388 173.205 161.111 173.348 161.732 173.636C162.357 173.92 162.848 174.316 163.204 174.824C163.56 175.328 163.744 175.907 163.755 176.562H161.727ZM170.625 181.33V176.273H172.682V185H170.688V183.449H170.597C170.4 183.937 170.076 184.337 169.625 184.648C169.178 184.958 168.627 185.114 167.972 185.114C167.4 185.114 166.894 184.987 166.455 184.733C166.019 184.475 165.678 184.102 165.432 183.614C165.186 183.121 165.063 182.527 165.063 181.83V176.273H167.119V181.511C167.119 182.064 167.271 182.504 167.574 182.83C167.877 183.155 168.275 183.318 168.767 183.318C169.07 183.318 169.364 183.244 169.648 183.097C169.932 182.949 170.165 182.729 170.347 182.438C170.532 182.142 170.625 181.773 170.625 181.33ZM174.157 188.273V176.273H176.18V177.716H176.299C176.405 177.504 176.555 177.278 176.748 177.04C176.941 176.797 177.202 176.591 177.532 176.42C177.862 176.246 178.282 176.159 178.793 176.159C179.468 176.159 180.076 176.331 180.617 176.676C181.163 177.017 181.595 177.523 181.913 178.193C182.235 178.86 182.396 179.678 182.396 180.648C182.396 181.606 182.238 182.42 181.924 183.091C181.61 183.761 181.182 184.273 180.64 184.625C180.098 184.977 179.485 185.153 178.799 185.153C178.299 185.153 177.884 185.07 177.555 184.903C177.225 184.737 176.96 184.536 176.759 184.301C176.562 184.062 176.409 183.837 176.299 183.625H176.214V188.273H174.157ZM176.174 180.636C176.174 181.201 176.254 181.695 176.413 182.119C176.576 182.544 176.809 182.875 177.112 183.114C177.418 183.348 177.79 183.466 178.225 183.466C178.68 183.466 179.06 183.345 179.367 183.102C179.674 182.856 179.905 182.521 180.06 182.097C180.22 181.669 180.299 181.182 180.299 180.636C180.299 180.095 180.221 179.614 180.066 179.193C179.911 178.773 179.68 178.443 179.373 178.205C179.066 177.966 178.684 177.847 178.225 177.847C177.786 177.847 177.413 177.962 177.106 178.193C176.799 178.424 176.566 178.748 176.407 179.165C176.252 179.581 176.174 180.072 176.174 180.636ZM183.517 188.273V176.273H185.54V177.716H185.659C185.765 177.504 185.915 177.278 186.108 177.04C186.301 176.797 186.562 176.591 186.892 176.42C187.222 176.246 187.642 176.159 188.153 176.159C188.828 176.159 189.436 176.331 189.977 176.676C190.523 177.017 190.955 177.523 191.273 178.193C191.595 178.86 191.756 179.678 191.756 180.648C191.756 181.606 191.598 182.42 191.284 183.091C190.97 183.761 190.542 184.273 190 184.625C189.458 184.977 188.845 185.153 188.159 185.153C187.659 185.153 187.244 185.07 186.915 184.903C186.585 184.737 186.32 184.536 186.119 184.301C185.922 184.062 185.769 183.837 185.659 183.625H185.574V188.273H183.517ZM185.534 180.636C185.534 181.201 185.614 181.695 185.773 182.119C185.936 182.544 186.169 182.875 186.472 183.114C186.778 183.348 187.15 183.466 187.585 183.466C188.04 183.466 188.42 183.345 188.727 183.102C189.034 182.856 189.265 182.521 189.42 182.097C189.58 181.669 189.659 181.182 189.659 180.636C189.659 180.095 189.581 179.614 189.426 179.193C189.271 178.773 189.04 178.443 188.733 178.205C188.426 177.966 188.044 177.847 187.585 177.847C187.146 177.847 186.773 177.962 186.466 178.193C186.159 178.424 185.926 178.748 185.767 179.165C185.612 179.581 185.534 180.072 185.534 180.636ZM194.934 173.364V185H192.877V173.364H194.934ZM197.687 188.273C197.407 188.273 197.148 188.25 196.909 188.205C196.674 188.163 196.487 188.114 196.346 188.057L196.824 186.455C197.123 186.542 197.39 186.583 197.625 186.58C197.86 186.576 198.066 186.502 198.244 186.358C198.426 186.218 198.579 185.983 198.704 185.653L198.88 185.182L195.716 176.273H197.898L199.909 182.864H200L202.017 176.273H204.204L200.71 186.057C200.547 186.519 200.331 186.915 200.062 187.244C199.793 187.578 199.464 187.831 199.074 188.006C198.687 188.184 198.225 188.273 197.687 188.273Z" fill="#2163B3"/>
<path d="M206.016 155H104.056C98.5333 155 94.0562 159.477 94.0562 165V235.78C94.0562 241.303 98.5333 245.78 104.056 245.78H206.016C211.539 245.78 216.016 241.303 216.016 235.78V165C216.016 159.477 211.539 155 206.016 155Z" fill="#CCE3FF"/>
<path d="M196.236 195.26L185.156 218.27C184.776 219.07 183.586 218.88 183.466 218L181.526 203.55C181.446 202.94 180.796 202.6 180.246 202.87L175.976 205C175.216 205.38 174.406 204.58 174.776 203.81L185.856 180.8C186.236 180 187.426 180.19 187.546 181.07L189.486 195.52C189.566 196.13 190.216 196.47 190.766 196.2L195.036 194.07C195.796 193.69 196.606 194.49 196.236 195.26Z" fill="#307FE2"/>
<path d="M196.416 185.94L193.646 191.69C193.546 191.89 193.256 191.84 193.226 191.62L192.736 188.01C192.716 187.86 192.556 187.77 192.416 187.84L191.346 188.37C191.156 188.46 190.956 188.27 191.046 188.07L193.816 182.32C193.916 182.12 194.206 182.17 194.236 182.39L194.726 186C194.746 186.15 194.906 186.24 195.046 186.17L196.116 185.64C196.306 185.55 196.506 185.74 196.416 185.94Z" fill="#2163B3"/>
<path d="M180.076 211.28L177.306 217.03C177.206 217.23 176.916 217.18 176.886 216.96L176.396 213.35C176.376 213.2 176.216 213.11 176.076 213.18L175.006 213.71C174.816 213.8 174.616 213.61 174.706 213.41L177.476 207.66C177.576 207.46 177.866 207.51 177.896 207.73L178.386 211.34C178.406 211.49 178.566 211.58 178.706 211.51L179.776 210.98C179.966 210.89 180.166 211.08 180.076 211.28Z" fill="#2163B3"/>
<path d="M133.806 204.98V221.23C133.806 223.16 132.006 224.62 130.146 224.16C126.856 223.34 123.816 221.89 121.166 219.94L118.146 222.95C117.326 223.77 116.256 224.18 115.186 224.18C114.116 224.18 113.036 223.77 112.216 222.95C110.576 221.31 110.576 218.66 112.216 217.02L115.306 213.93C113.586 211.46 112.296 208.67 111.526 205.66C111.046 203.78 112.516 201.98 114.446 201.98H130.806C132.466 201.98 133.806 203.32 133.806 204.98Z" fill="#307FE2"/>
<path d="M160.466 222.95C159.646 223.77 158.576 224.18 157.506 224.18C156.436 224.18 155.356 223.77 154.536 222.95L151.486 219.91C148.826 221.88 145.776 223.34 142.466 224.16C140.606 224.62 138.806 223.16 138.806 221.23V204.98C138.806 203.32 140.146 201.98 141.806 201.98H158.166C160.096 201.98 161.566 203.78 161.086 205.66C160.326 208.65 159.036 211.43 157.336 213.89L160.466 217.02C162.106 218.66 162.106 221.31 160.466 222.95Z" fill="#307FE2"/>
<path d="M130.236 217.47V207.2C130.236 206.17 129.406 205.34 128.376 205.34H118.176C116.986 205.34 116.066 206.45 116.346 207.61C116.816 209.58 117.806 212.05 120.766 215.01C123.726 217.97 125.946 218.8 127.956 219.29C129.116 219.58 130.236 218.67 130.236 217.47Z" fill="#2163B3"/>
<path d="M142.646 217.47V207.2C142.646 206.17 143.476 205.34 144.506 205.34H154.706C155.896 205.34 156.816 206.45 156.536 207.61C156.066 209.58 155.076 212.05 152.116 215.01C149.156 217.97 146.936 218.8 144.926 219.29C143.766 219.58 142.646 218.67 142.646 217.47Z" fill="#2163B3"/>
<path d="M161.156 193.32C161.606 195.19 160.136 196.98 158.216 196.98H141.806C140.146 196.98 138.806 195.63 138.806 193.98V177.46C138.806 175.53 140.606 174.07 142.476 174.53C145.736 175.34 148.736 176.76 151.366 178.69L154.536 175.52C155.356 174.7 156.426 174.29 157.506 174.29C158.586 174.29 159.646 174.7 160.466 175.52C162.106 177.16 162.106 179.81 160.466 181.45L157.246 184.68C159.056 187.25 160.396 190.17 161.156 193.32Z" fill="#307FE2"/>
<path d="M133.806 177.46V193.98C133.806 195.63 132.466 196.98 130.806 196.98H114.396C112.476 196.98 111.006 195.19 111.456 193.32C112.216 190.15 113.576 187.22 115.396 184.63L112.216 181.45C110.576 179.81 110.576 177.16 112.216 175.52C113.036 174.7 114.106 174.29 115.186 174.29C116.266 174.29 117.326 174.7 118.146 175.52L121.286 178.66C123.906 176.75 126.896 175.33 130.136 174.53C132.006 174.07 133.806 175.53 133.806 177.46Z" fill="#307FE2"/>
<path d="M130.236 181.11V191.38C130.236 192.41 129.406 193.24 128.376 193.24H118.176C116.986 193.24 116.066 192.13 116.346 190.97C116.816 189 117.806 186.53 120.766 183.57C123.726 180.61 125.946 179.78 127.956 179.29C129.116 179 130.236 179.91 130.236 181.11Z" fill="#2163B3"/>
<path d="M142.646 181.11V191.38C142.646 192.41 143.476 193.24 144.506 193.24H154.706C155.896 193.24 156.816 192.13 156.536 190.97C156.066 189 155.076 186.53 152.116 183.57C149.156 180.61 146.936 179.78 144.926 179.29C143.766 179 142.646 179.91 142.646 181.11Z" fill="#2163B3"/>
<path d="M115.326 180.78C116.514 180.78 117.476 179.817 117.476 178.63C117.476 177.443 116.514 176.48 115.326 176.48C114.139 176.48 113.176 177.443 113.176 178.63C113.176 179.817 114.139 180.78 115.326 180.78Z" fill="#CCE3FF"/>
<path d="M157.346 180.78C158.534 180.78 159.496 179.817 159.496 178.63C159.496 177.443 158.534 176.48 157.346 176.48C156.159 176.48 155.196 177.443 155.196 178.63C155.196 179.817 156.159 180.78 157.346 180.78Z" fill="#CCE3FF"/>
<path d="M157.346 221.99C158.534 221.99 159.496 221.027 159.496 219.84C159.496 218.653 158.534 217.69 157.346 217.69C156.159 217.69 155.196 218.653 155.196 219.84C155.196 221.027 156.159 221.99 157.346 221.99Z" fill="#CCE3FF"/>
<path d="M115.326 221.99C116.514 221.99 117.476 221.027 117.476 219.84C117.476 218.653 116.514 217.69 115.326 217.69C114.139 217.69 113.176 218.653 113.176 219.84C113.176 221.027 114.139 221.99 115.326 221.99Z" fill="#CCE3FF"/>
<path d="M127.865 389.584H130.444L133.899 398.015H134.035L137.49 389.584H140.069V401.22H138.046V393.226H137.938L134.723 401.186H133.211L129.995 393.209H129.887V401.22H127.865V389.584ZM141.634 401.22V392.493H143.691V401.22H141.634ZM142.668 391.254C142.342 391.254 142.062 391.146 141.827 390.93C141.592 390.711 141.475 390.447 141.475 390.14C141.475 389.83 141.592 389.567 141.827 389.351C142.062 389.131 142.342 389.021 142.668 389.021C142.997 389.021 143.278 389.131 143.509 389.351C143.744 389.567 143.861 389.83 143.861 390.14C143.861 390.447 143.744 390.711 143.509 390.93C143.278 391.146 142.997 391.254 142.668 391.254ZM147.222 396.106V401.22H145.166V392.493H147.131V393.976H147.234C147.435 393.487 147.755 393.099 148.194 392.811C148.637 392.523 149.185 392.379 149.836 392.379C150.438 392.379 150.963 392.508 151.41 392.765C151.861 393.023 152.209 393.396 152.455 393.885C152.705 394.373 152.828 394.966 152.825 395.663V401.22H150.768V395.981C150.768 395.398 150.616 394.942 150.313 394.612C150.014 394.282 149.599 394.118 149.069 394.118C148.709 394.118 148.389 394.197 148.109 394.356C147.832 394.512 147.614 394.737 147.455 395.032C147.3 395.328 147.222 395.686 147.222 396.106ZM154.276 401.22V392.493H156.332V401.22H154.276ZM155.31 391.254C154.984 391.254 154.704 391.146 154.469 390.93C154.234 390.711 154.116 390.447 154.116 390.14C154.116 389.83 154.234 389.567 154.469 389.351C154.704 389.131 154.984 389.021 155.31 389.021C155.639 389.021 155.92 389.131 156.151 389.351C156.385 389.567 156.503 389.83 156.503 390.14C156.503 390.447 156.385 390.711 156.151 390.93C155.92 391.146 155.639 391.254 155.31 391.254ZM157.807 404.493V392.493H159.83V393.936H159.949C160.056 393.724 160.205 393.498 160.398 393.26C160.592 393.017 160.853 392.811 161.182 392.64C161.512 392.466 161.932 392.379 162.444 392.379C163.118 392.379 163.726 392.551 164.268 392.896C164.813 393.237 165.245 393.743 165.563 394.413C165.885 395.08 166.046 395.898 166.046 396.868C166.046 397.826 165.889 398.64 165.574 399.311C165.26 399.981 164.832 400.493 164.29 400.845C163.749 401.197 163.135 401.373 162.449 401.373C161.949 401.373 161.535 401.29 161.205 401.123C160.876 400.957 160.61 400.756 160.41 400.521C160.213 400.282 160.059 400.057 159.949 399.845H159.864V404.493H157.807ZM159.824 396.856C159.824 397.421 159.904 397.915 160.063 398.339C160.226 398.764 160.459 399.095 160.762 399.334C161.069 399.568 161.44 399.686 161.876 399.686C162.33 399.686 162.711 399.565 163.018 399.322C163.324 399.076 163.556 398.741 163.711 398.317C163.87 397.889 163.949 397.402 163.949 396.856C163.949 396.315 163.872 395.834 163.717 395.413C163.561 394.993 163.33 394.663 163.023 394.425C162.717 394.186 162.334 394.067 161.876 394.067C161.436 394.067 161.063 394.182 160.756 394.413C160.449 394.644 160.217 394.968 160.057 395.385C159.902 395.801 159.824 396.292 159.824 396.856ZM170.974 401.39C170.122 401.39 169.383 401.203 168.758 400.828C168.133 400.453 167.649 399.928 167.304 399.254C166.963 398.58 166.792 397.792 166.792 396.89C166.792 395.989 166.963 395.199 167.304 394.521C167.649 393.843 168.133 393.317 168.758 392.942C169.383 392.567 170.122 392.379 170.974 392.379C171.827 392.379 172.565 392.567 173.19 392.942C173.815 393.317 174.298 393.843 174.639 394.521C174.984 395.199 175.156 395.989 175.156 396.89C175.156 397.792 174.984 398.58 174.639 399.254C174.298 399.928 173.815 400.453 173.19 400.828C172.565 401.203 171.827 401.39 170.974 401.39ZM170.986 399.743C171.448 399.743 171.834 399.616 172.145 399.362C172.455 399.104 172.686 398.76 172.838 398.328C172.993 397.896 173.071 397.415 173.071 396.885C173.071 396.351 172.993 395.868 172.838 395.436C172.686 395 172.455 394.654 172.145 394.396C171.834 394.139 171.448 394.01 170.986 394.01C170.512 394.01 170.118 394.139 169.804 394.396C169.493 394.654 169.26 395 169.105 395.436C168.953 395.868 168.878 396.351 168.878 396.885C168.878 397.415 168.953 397.896 169.105 398.328C169.26 398.76 169.493 399.104 169.804 399.362C170.118 399.616 170.512 399.743 170.986 399.743ZM179.5 401.373C178.815 401.373 178.201 401.197 177.66 400.845C177.118 400.493 176.69 399.981 176.375 399.311C176.061 398.64 175.904 397.826 175.904 396.868C175.904 395.898 176.063 395.08 176.381 394.413C176.703 393.743 177.137 393.237 177.682 392.896C178.228 392.551 178.836 392.379 179.506 392.379C180.018 392.379 180.438 392.466 180.768 392.64C181.097 392.811 181.358 393.017 181.552 393.26C181.745 393.498 181.894 393.724 182 393.936H182.086V389.584H184.148V401.22H182.125V399.845H182C181.894 400.057 181.741 400.282 181.54 400.521C181.339 400.756 181.074 400.957 180.745 401.123C180.415 401.29 180 401.373 179.5 401.373ZM180.074 399.686C180.51 399.686 180.881 399.568 181.188 399.334C181.495 399.095 181.728 398.764 181.887 398.339C182.046 397.915 182.125 397.421 182.125 396.856C182.125 396.292 182.046 395.801 181.887 395.385C181.732 394.968 181.5 394.644 181.194 394.413C180.891 394.182 180.518 394.067 180.074 394.067C179.616 394.067 179.233 394.186 178.927 394.425C178.62 394.663 178.389 394.993 178.233 395.413C178.078 395.834 178 396.315 178 396.856C178 397.402 178.078 397.889 178.233 398.317C178.393 398.741 178.625 399.076 178.932 399.322C179.243 399.565 179.624 399.686 180.074 399.686Z" fill="#2163B3"/>
<path d="M256.15 353.22H54.5C48.9772 353.22 44.5 357.697 44.5 363.22V548.45C44.5 553.973 48.9772 558.45 54.5 558.45H256.15C261.673 558.45 266.15 553.973 266.15 548.45V363.22C266.15 357.697 261.673 353.22 256.15 353.22Z" fill="#CCE3FF"/>
<path d="M84.1401 414.77H226.5V422.62C226.5 423.72 225.76 424.62 224.855 424.62H85.7855C84.8806 424.62 84.1401 423.72 84.1401 422.62V414.77Z" fill="#2163B3"/>
<path d="M226.5 414.77H84.1401L90.6641 385.21C91.1495 383.02 92.7785 381.51 94.6378 381.51H215.616C217.458 381.51 219.071 382.99 219.573 385.14L226.5 414.77Z" fill="#307FE2"/>
<path d="M161.424 388.22H148.655H142.264V395.17H148.655V391.7H161.424V395.17H167.808V388.22H161.424Z" fill="#2163B3"/>
<path d="M157.525 393.44H152.553C152.163 393.44 151.847 393.863 151.847 394.385V399.454C151.847 399.976 152.163 400.399 152.553 400.399H157.525C157.915 400.399 158.232 399.976 158.232 399.454V394.385C158.232 393.863 157.915 393.44 157.525 393.44Z" fill="#2163B3"/>
<path d="M161.424 400.986L154.948 404.513L148.655 401.08V396.91H142.264V402.537H142.292L154.948 409.43L167.78 402.442H167.808V396.91H161.424V400.986Z" fill="#2163B3"/>
<path d="M84.1401 467.54H226.5V475.39C226.5 476.49 225.76 477.39 224.855 477.39H85.7855C84.8806 477.39 84.1401 476.49 84.1401 475.39V467.54Z" fill="#2163B3"/>
<path d="M226.5 467.54H84.1401L90.6641 437.98C91.1495 435.79 92.7785 434.28 94.6378 434.28H215.616C217.458 434.28 219.071 435.76 219.573 437.91L226.5 467.54Z" fill="#307FE2"/>
<path d="M161.424 440.22H148.655H142.264V447.17H148.655V443.7H161.424V447.17H167.808V440.22H161.424Z" fill="#2163B3"/>
<path d="M157.525 445.44H152.553C152.163 445.44 151.847 445.863 151.847 446.385V451.454C151.847 451.976 152.163 452.399 152.553 452.399H157.525C157.915 452.399 158.232 451.976 158.232 451.454V446.385C158.232 445.863 157.915 445.44 157.525 445.44Z" fill="#2163B3"/>
<path d="M161.424 452.986L154.948 456.513L148.655 453.08V448.91H142.264V454.537H142.292L154.948 461.43L167.78 454.442H167.808V448.91H161.424V452.986Z" fill="#2163B3"/>
<path d="M84.1401 520.32H226.5V528.17C226.5 529.27 225.76 530.17 224.855 530.17H85.7855C84.8806 530.17 84.1401 529.27 84.1401 528.17V520.32Z" fill="#2163B3"/>
<path d="M226.5 520.32H84.1401L90.6641 490.76C91.1495 488.57 92.7785 487.06 94.6378 487.06H215.616C217.458 487.06 219.071 488.54 219.573 490.69L226.5 520.32Z" fill="#307FE2"/>
<path d="M161.424 492.22H148.655H142.264V499.17H148.655V495.7H161.424V499.17H167.808V492.22H161.424Z" fill="#2163B3"/>
<path d="M157.525 497.44H152.553C152.163 497.44 151.847 497.863 151.847 498.385V503.454C151.847 503.976 152.163 504.399 152.553 504.399H157.525C157.915 504.399 158.232 503.976 158.232 503.454V498.385C158.232 497.863 157.915 497.44 157.525 497.44Z" fill="#2163B3"/>
<path d="M161.424 504.986L154.948 508.513L148.655 505.08V500.91H142.264V506.537H142.292L154.948 513.43L167.78 506.442H167.808V500.91H161.424V504.986Z" fill="#2163B3"/>
<path d="M117.089 717.29H114.964C114.903 716.941 114.791 716.633 114.628 716.364C114.465 716.091 114.263 715.86 114.02 715.67C113.778 715.481 113.501 715.339 113.191 715.244C112.884 715.146 112.553 715.097 112.197 715.097C111.564 715.097 111.003 715.256 110.515 715.574C110.026 715.888 109.644 716.35 109.367 716.96C109.09 717.566 108.952 718.307 108.952 719.182C108.952 720.072 109.09 720.822 109.367 721.432C109.647 722.038 110.03 722.496 110.515 722.807C111.003 723.114 111.562 723.267 112.191 723.267C112.539 723.267 112.865 723.222 113.168 723.131C113.475 723.036 113.75 722.898 113.992 722.716C114.238 722.534 114.445 722.311 114.611 722.045C114.782 721.78 114.899 721.477 114.964 721.136L117.089 721.148C117.009 721.701 116.837 722.22 116.572 722.705C116.31 723.189 115.967 723.617 115.543 723.989C115.119 724.356 114.623 724.644 114.054 724.852C113.486 725.057 112.856 725.159 112.162 725.159C111.14 725.159 110.227 724.922 109.424 724.449C108.621 723.975 107.988 723.292 107.526 722.398C107.064 721.504 106.833 720.432 106.833 719.182C106.833 717.928 107.066 716.856 107.532 715.966C107.998 715.072 108.632 714.388 109.435 713.915C110.238 713.441 111.147 713.205 112.162 713.205C112.81 713.205 113.412 713.295 113.969 713.477C114.526 713.659 115.022 713.926 115.458 714.278C115.894 714.627 116.251 715.055 116.532 715.562C116.816 716.066 117.001 716.642 117.089 717.29ZM118.288 725V716.273H120.282V717.727H120.373C120.532 717.223 120.805 716.835 121.191 716.562C121.582 716.286 122.027 716.148 122.527 716.148C122.64 716.148 122.767 716.153 122.907 716.165C123.051 716.172 123.171 716.186 123.265 716.205V718.097C123.178 718.066 123.04 718.04 122.851 718.017C122.665 717.991 122.485 717.977 122.311 717.977C121.936 717.977 121.599 718.059 121.299 718.222C121.004 718.381 120.771 718.602 120.601 718.886C120.43 719.17 120.345 719.498 120.345 719.869V725H118.288ZM125.536 728.273C125.256 728.273 124.996 728.25 124.757 728.205C124.523 728.163 124.335 728.114 124.195 728.057L124.672 726.455C124.971 726.542 125.239 726.583 125.473 726.58C125.708 726.576 125.915 726.502 126.093 726.358C126.274 726.218 126.428 725.983 126.553 725.653L126.729 725.182L123.564 716.273H125.746L127.757 722.864H127.848L129.865 716.273H132.053L128.559 726.057C128.396 726.519 128.18 726.915 127.911 727.244C127.642 727.578 127.312 727.831 126.922 728.006C126.536 728.184 126.074 728.273 125.536 728.273ZM132.836 728.273V716.273H134.859V717.716H134.978C135.084 717.504 135.234 717.278 135.427 717.04C135.62 716.797 135.882 716.591 136.211 716.42C136.541 716.246 136.961 716.159 137.473 716.159C138.147 716.159 138.755 716.331 139.296 716.676C139.842 717.017 140.274 717.523 140.592 718.193C140.914 718.86 141.075 719.678 141.075 720.648C141.075 721.606 140.918 722.42 140.603 723.091C140.289 723.761 139.861 724.273 139.319 724.625C138.777 724.977 138.164 725.153 137.478 725.153C136.978 725.153 136.563 725.07 136.234 724.903C135.904 724.737 135.639 724.536 135.438 724.301C135.241 724.062 135.088 723.837 134.978 723.625H134.893V728.273H132.836ZM134.853 720.636C134.853 721.201 134.933 721.695 135.092 722.119C135.255 722.544 135.488 722.875 135.791 723.114C136.098 723.348 136.469 723.466 136.904 723.466C137.359 723.466 137.74 723.345 138.046 723.102C138.353 722.856 138.584 722.521 138.74 722.097C138.899 721.669 138.978 721.182 138.978 720.636C138.978 720.095 138.901 719.614 138.745 719.193C138.59 718.773 138.359 718.443 138.052 718.205C137.745 717.966 137.363 717.847 136.904 717.847C136.465 717.847 136.092 717.962 135.785 718.193C135.478 718.424 135.245 718.748 135.086 719.165C134.931 719.581 134.853 720.072 134.853 720.636ZM146.554 716.273V717.864H141.537V716.273H146.554ZM142.776 714.182H144.833V722.375C144.833 722.652 144.874 722.864 144.958 723.011C145.045 723.155 145.158 723.254 145.298 723.307C145.439 723.36 145.594 723.386 145.764 723.386C145.893 723.386 146.011 723.377 146.117 723.358C146.226 723.339 146.31 723.322 146.367 723.307L146.713 724.915C146.603 724.953 146.446 724.994 146.242 725.04C146.041 725.085 145.795 725.112 145.503 725.119C144.988 725.134 144.524 725.057 144.111 724.886C143.698 724.712 143.37 724.443 143.128 724.08C142.889 723.716 142.772 723.261 142.776 722.716V714.182ZM151.347 725.17C150.495 725.17 149.756 724.983 149.131 724.608C148.506 724.233 148.022 723.708 147.677 723.034C147.336 722.36 147.166 721.572 147.166 720.67C147.166 719.769 147.336 718.979 147.677 718.301C148.022 717.623 148.506 717.097 149.131 716.722C149.756 716.347 150.495 716.159 151.347 716.159C152.2 716.159 152.938 716.347 153.563 716.722C154.188 717.097 154.671 717.623 155.012 718.301C155.357 718.979 155.529 719.769 155.529 720.67C155.529 721.572 155.357 722.36 155.012 723.034C154.671 723.708 154.188 724.233 153.563 724.608C152.938 724.983 152.2 725.17 151.347 725.17ZM151.359 723.523C151.821 723.523 152.207 723.396 152.518 723.142C152.828 722.884 153.06 722.54 153.211 722.108C153.366 721.676 153.444 721.195 153.444 720.665C153.444 720.131 153.366 719.648 153.211 719.216C153.06 718.78 152.828 718.434 152.518 718.176C152.207 717.919 151.821 717.79 151.359 717.79C150.885 717.79 150.491 717.919 150.177 718.176C149.866 718.434 149.633 718.78 149.478 719.216C149.327 719.648 149.251 720.131 149.251 720.665C149.251 721.195 149.327 721.676 149.478 722.108C149.633 722.54 149.866 722.884 150.177 723.142C150.491 723.396 150.885 723.523 151.359 723.523ZM162.503 725L159.219 713.364H161.486L163.583 721.915H163.691L165.93 713.364H167.992L170.236 721.92H170.339L172.435 713.364H174.702L171.418 725H169.339L167.009 716.835H166.918L164.583 725H162.503ZM177.054 725.176C176.501 725.176 176.003 725.078 175.559 724.881C175.12 724.68 174.772 724.384 174.514 723.994C174.26 723.604 174.133 723.123 174.133 722.551C174.133 722.059 174.224 721.652 174.406 721.33C174.588 721.008 174.836 720.75 175.15 720.557C175.465 720.364 175.819 720.218 176.213 720.119C176.611 720.017 177.022 719.943 177.446 719.898C177.957 719.845 178.372 719.797 178.69 719.756C179.008 719.71 179.239 719.642 179.383 719.551C179.531 719.456 179.605 719.311 179.605 719.114V719.08C179.605 718.652 179.478 718.32 179.224 718.085C178.97 717.85 178.605 717.733 178.128 717.733C177.624 717.733 177.224 717.843 176.929 718.062C176.637 718.282 176.44 718.542 176.338 718.841L174.417 718.568C174.569 718.038 174.819 717.595 175.167 717.239C175.516 716.879 175.942 716.61 176.446 716.432C176.95 716.25 177.506 716.159 178.116 716.159C178.537 716.159 178.955 716.208 179.372 716.307C179.789 716.405 180.169 716.568 180.514 716.795C180.859 717.019 181.135 717.324 181.344 717.71C181.556 718.097 181.662 718.58 181.662 719.159V725H179.684V723.801H179.616C179.491 724.044 179.315 724.271 179.088 724.483C178.864 724.691 178.582 724.86 178.241 724.989C177.904 725.114 177.508 725.176 177.054 725.176ZM177.588 723.665C178.001 723.665 178.359 723.583 178.662 723.42C178.965 723.254 179.198 723.034 179.361 722.761C179.527 722.489 179.611 722.191 179.611 721.869V720.841C179.546 720.894 179.436 720.943 179.281 720.989C179.13 721.034 178.959 721.074 178.77 721.108C178.58 721.142 178.393 721.172 178.207 721.199C178.022 721.225 177.861 721.248 177.724 721.267C177.417 721.309 177.143 721.377 176.9 721.472C176.658 721.566 176.467 721.699 176.327 721.869C176.186 722.036 176.116 722.252 176.116 722.517C176.116 722.896 176.255 723.182 176.531 723.375C176.808 723.568 177.16 723.665 177.588 723.665ZM185.147 713.364V725H183.09V713.364H185.147ZM188.679 713.364V725H186.622V713.364H188.679ZM194.017 725.17C193.142 725.17 192.387 724.989 191.75 724.625C191.118 724.258 190.631 723.739 190.29 723.068C189.949 722.394 189.779 721.6 189.779 720.688C189.779 719.79 189.949 719.002 190.29 718.324C190.635 717.642 191.116 717.112 191.733 716.733C192.351 716.35 193.076 716.159 193.909 716.159C194.447 716.159 194.955 716.246 195.432 716.42C195.913 716.591 196.337 716.856 196.705 717.216C197.076 717.576 197.368 718.034 197.58 718.591C197.792 719.144 197.898 719.803 197.898 720.568V721.199H190.745V719.812H195.926C195.923 719.419 195.837 719.068 195.671 718.761C195.504 718.451 195.271 718.206 194.972 718.028C194.676 717.85 194.332 717.761 193.938 717.761C193.517 717.761 193.148 717.864 192.83 718.068C192.512 718.269 192.264 718.534 192.086 718.864C191.911 719.189 191.822 719.547 191.818 719.938V721.148C191.818 721.655 191.911 722.091 192.097 722.455C192.282 722.814 192.542 723.091 192.875 723.284C193.209 723.473 193.599 723.568 194.046 723.568C194.345 723.568 194.616 723.527 194.858 723.443C195.101 723.356 195.311 723.229 195.489 723.062C195.667 722.896 195.801 722.689 195.892 722.443L197.813 722.659C197.692 723.167 197.461 723.61 197.12 723.989C196.782 724.364 196.351 724.655 195.824 724.864C195.298 725.068 194.695 725.17 194.017 725.17ZM203.356 716.273V717.864H198.339V716.273H203.356ZM199.578 714.182H201.634V722.375C201.634 722.652 201.676 722.864 201.759 723.011C201.847 723.155 201.96 723.254 202.1 723.307C202.24 723.36 202.396 723.386 202.566 723.386C202.695 723.386 202.812 723.377 202.919 723.358C203.028 723.339 203.112 723.322 203.169 723.307L203.515 724.915C203.405 724.953 203.248 724.994 203.044 725.04C202.843 725.085 202.597 725.112 202.305 725.119C201.79 725.134 201.326 725.057 200.913 724.886C200.5 724.712 200.172 724.443 199.93 724.08C199.691 723.716 199.574 723.261 199.578 722.716V714.182Z" fill="#2163B3"/>
<path d="M153.48 719.9C171.125 719.9 185.43 705.595 185.43 687.95C185.43 670.305 171.125 656 153.48 656C135.834 656 121.53 670.305 121.53 687.95C121.53 705.595 135.834 719.9 153.48 719.9Z" fill="#2163B3"/>
<path d="M153.48 713.22C167.436 713.22 178.75 701.906 178.75 687.95C178.75 673.994 167.436 662.68 153.48 662.68C139.524 662.68 128.21 673.994 128.21 687.95C128.21 701.906 139.524 713.22 153.48 713.22Z" fill="#307FE2"/>
<path d="M162.45 686.7C164.31 685.75 165.48 684.08 165.21 681.3C164.84 677.5 161.56 676.22 157.41 675.86V670.59H154.2V675.72C153.35 675.72 152.49 675.74 151.63 675.75V670.58H148.42V675.85C147.72 675.86 147.04 675.88 146.37 675.88V675.86H141.94V679.29C141.94 679.29 144.31 679.25 144.27 679.29C145.57 679.29 146 680.05 146.12 680.7V695.15C146.06 695.56 145.82 696.21 144.91 696.21C144.95 696.25 142.57 696.21 142.57 696.21L141.93 700.04H146.11C146.89 700.04 147.65 700.05 148.41 700.06V705.39H151.62V700.11C152.5 700.13 153.35 700.14 154.19 700.13V705.38H157.4V700.06C162.8 699.75 166.58 698.39 167.05 693.32C167.43 689.24 165.51 687.42 162.44 686.68L162.45 686.7ZM151.7 679.53C153.51 679.53 159.21 678.95 159.21 682.74C159.21 686.37 153.51 685.94 151.7 685.94V679.53ZM151.7 696.24V689.17C153.88 689.17 160.71 688.54 160.71 692.7C160.71 696.69 153.88 696.23 151.7 696.23V696.24Z" fill="white"/>
<path d="M206.46 698.59H104.5C98.9772 698.59 94.5 703.067 94.5 708.59V779.37C94.5 784.893 98.9772 789.37 104.5 789.37H206.46C211.983 789.37 216.46 784.893 216.46 779.37V708.59C216.46 703.067 211.983 698.59 206.46 698.59Z" fill="#CCE3FF"/>
<path d="M184.02 734.4H216.35V753.55H184.02C182.36 753.55 181.02 752.21 181.02 750.55V737.4C181.02 735.74 182.36 734.4 184.02 734.4Z" fill="#307FE2"/>
<path d="M190.91 748.75C193.379 748.75 195.38 746.749 195.38 744.28C195.38 741.811 193.379 739.81 190.91 739.81C188.441 739.81 186.44 741.811 186.44 744.28C186.44 746.749 188.441 748.75 190.91 748.75Z" fill="#2163B3"/>
</svg>
