<svg width="172" height="152" viewBox="0 0 172 152" fill="none" xmlns="http://www.w3.org/2000/svg">
<circle cx="109.084" cy="89.8278" r="37.1045" transform="rotate(45 109.084 89.8278)" fill="#F0F7FF"/>
<path d="M104.312 94.5982C109.878 89.0328 117.033 96.1883 122.599 90.6229C126.533 86.6886 125.252 82.1451 121.659 78.5525C119.396 76.2899 116.139 75.5621 113.054 76.3162" stroke="#307FE2" stroke-width="6.74628" stroke-linecap="round" stroke-linejoin="round"/>
<circle cx="97.1592" cy="101.754" r="3.37314" transform="rotate(45 97.1592 101.754)" fill="#307FE2"/>
<circle cx="56.3986" cy="41.5284" r="18.9489" transform="rotate(-15 56.3986 41.5284)" stroke="#F0F7FF" stroke-width="3.78979"/>
<path d="M57.3788 45.189C56.2345 40.9182 61.7255 39.4469 60.5811 35.1762C59.7722 32.1571 57.2019 31.5043 54.445 32.243C52.7087 32.7082 51.4396 34.0888 50.94 35.8013" stroke="#307FE2" stroke-width="3.78979" stroke-linecap="round" stroke-linejoin="round"/>
<circle cx="58.851" cy="50.68" r="1.89489" transform="rotate(-15 58.851 50.68)" fill="#307FE2"/>
</svg>
