<?xml version="1.0" encoding="UTF-8"?>
<svg id="Layer_2" data-name="Layer 2" xmlns="http://www.w3.org/2000/svg" viewBox="0 0 58.54 10.68">
  <defs>
    <style>
      .cls-1 {
        opacity: .9;
      }

      .cls-2 {
        fill: #e12d39;
        stroke-width: 0px;
      }
    </style>
  </defs>
  <g id="Layer_1-2" data-name="Layer 1">
    <g class="cls-1">
      <path class="cls-2" d="m10.81,5.53s-.09.04-.08.04c.04.02.1.05.14.05.17-.03.35-.07.52-.09.18-.02.37-.02.45.05.14.14.42.13.76.1.62-.05,1.17-.19,1.64-.37.7-.27,1.5-.36,2.31-.45.13-.01.27-.02.4-.02.39-.01.66.16,1.12.04.36-.1.71-.07,1.07-.1.41-.04.83-.07,1.21-.15.59-.13,1.17-.09,1.75-.16.25-.03.54,0,.64.11.16.19.57.16.97.16.26,0,.41-.1.31-.2-.03-.03-.11-.05-.13-.08,0-.03.03-.09.08-.1.34-.08.69-.15,1.03-.22.12.01.23.04.36.04.06,0,.15-.03.22-.05-.07,0-.14-.03-.21-.02-.14,0-.27.03-.41.05.04-.11-.08-.19-.25-.25h.02c.26-.04.51-.11.77-.15.17-.03.36-.04.48.03.1.06.23.08.43.06.36-.04.72-.07,1.08-.09.11,0,.25.02.3.06.09.07.08.18.38.16.27-.02.54-.05.75-.15.07-.03.13-.06.18-.1.15-.11.39-.18.64-.25.4-.12.79-.23,1.27-.26.36-.03.71-.1,1.07-.14.36-.04.71-.06,1.07-.09.26.12.73.08,1.03.16.13.04.21.1.32.15.02,0,.08,0,.11,0,.03,0,.08-.03.08-.04.02-.06.03-.11.03-.17.02-.22.13-.27.63-.29.45-.02.9-.05,1.35-.07.12,0,.29-.04.3.04,0,.03-.12.07-.14.1-.02.03,0,.1.03.1.38.02.77.03,1.17-.03.13-.02.19-.14.41-.14.07,0,.15-.02.21-.02-.08,0-.16.02-.24.03l.22-.2h-.03c.23,0,.45,0,.68-.01.21,0,.41,0,.62-.01.03,0,.07-.02.1-.03-.04-.01-.09-.05-.13-.04-.21.03-.41.06-.62.09.44-.22.95-.28,1.47-.21.45.07.87.03,1.25-.13.79-.33,1.68-.46,2.65-.49.3,0,.53-.06.43-.21,0,0,.14-.06.21-.07.31-.03.63-.08.81.06.11.08.37.07.59.05.54-.06,1.08-.12,1.61-.2.93-.14,1.78-.15,2.56,0-.09,0-.2-.03-.24.05.07-.02.14-.04.21-.06.11-.07.28-.13.33-.2.1-.13.26-.2.58-.23.31-.03.64-.07.75-.24.01-.02.3-.08.35-.06.56.18,1.12.05,1.71-.13.19-.06.41-.11.62-.14.59-.06,1.17-.1,1.72-.27.12-.03.26-.04.4-.06.59-.08.89-.02.87.23,0,.12-.11.23.11.32.11.05.06.18,0,.26-.05.08-.05.14.09.19.22.07.26.17.09.29-.39.29-.26.56-.25.83.3.15.15.3-.17.46-.07.03-.04.1-.02.15.02.05.1.09.1.15,0,.18-.04.37-.06.55,0,.02-.02.04-.03.06-.07.1-.2.18-.45.22-.94.13-1.88.26-2.82.4-.8.12-1.62.22-2.39.37-.54.11-1.03.15-1.58.18-.79.05-1.59.1-2.4.24-.66.12-1.34.17-2.01.25-.27.03-.54.05-.81.1-.3.05-.58.14-.89.08-.09-.02-.26.02-.4.03-1.76.18-3.51.37-5.26.61-.22.03-.44.06-.66.1-.52.1-1.03.18-1.57.17-.29,0-.63.06-.94.1-.71.11-1.42.17-2.14.23-.9.07-1.8.18-2.69.3-1.43.2-2.88.33-4.32.5-1.98.22-3.96.47-5.94.7-.45.05-.9.11-1.35.15-1.85.17-3.68.46-5.52.7-.18.02-.37.04-.53.08-.43.11-.84.18-1.31.17-.21,0-.45.04-.67.07-.77.09-1.53.18-2.29.29-.49.07-.97.17-1.47.23-1.75.22-3.5.47-5.21.78-.4.07-.8.12-1.2.09-.08,0-.21,0-.23-.03-.18-.19-.73-.3-.51-.56.25-.32.03-.55-.34-.76-.18-.1-.13-.19.04-.3.11-.07.29-.17.25-.21-.17-.17.14-.39-.12-.53-.24-.13-.21-.29-.1-.47.1-.17.16-.34.06-.5-.04-.07,0-.15.01-.22.02-.09.25-.2.46-.2.54.02.89-.09,1.06-.32.25-.33.75-.49,1.54-.55.67-.05,1.33-.12,2.01-.24.46-.09.98-.09,1.48-.14.49-.05,1.01-.07,1.48-.16.83-.16,1.66-.3,2.53-.37m-4.51,3.89l.03.02-.03-.04h.06s-.06.02-.06.02Zm13.29-3.89c.05-.09-.03-.14-.2-.17-.06,0-.16.02-.24.02,0,.02,0,.04.02.05.14.03.29.05.44.08h.03s-.06.02-.06.02h0Zm9.5.89c.55.08,1.09-.04,1.61-.17.08-.02.12-.1.14-.15,0-.01-.12-.04-.19-.03-.22,0-.44.02-.66.04-.33.03-.58.1-.73.25-.03.03-.14.05-.21.08-.06-.04-.11-.09-.19-.11-.09-.02-.23-.03-.34-.02-.08.01-.16.07-.24.11.05.02.11.05.16.05.21,0,.43-.02.64-.04h0Zm5.66-.57c.1.02.21.07.31.06.31-.02.63-.08.93-.09.44-.01.78-.12,1.12-.24.14-.05.25-.12.33-.19.06-.05-.27-.1-.52-.08-.27.02-.53.04-.8.08-.12.01-.3.06-.33.09-.18.23-.73.25-1.07.38v-.03s.04.01.04.01h-.01Zm12.48-3.72h.03s.01,0,.01,0c-.25-.01-.5-.05-.76-.03-.49.03-.99.07-1.48.13-.21.02-.48.07-.61.14-.28.14-.43.09-.65.04-.13-.03-.4.06-.38.13.01.05.1.11.18.11.68.02,1.33-.05,1.95-.26.18-.06.41-.15.62-.11.44.08.76-.03,1.09-.17h0ZM14.04,7.11l.04.02-.02-.04c.26.05.54.08.87.04.26-.03.54-.06.8-.1.4-.06.79-.13,1.18-.2.17-.03.21-.12.12-.19-.08-.07-.22-.1-.41-.09-.54.05-1.07.11-1.6.17-.45.05-.74.18-.96.35v-.04s-.02.03-.02.03l-.02.05h.01Zm1.46.44l.04-.02c-.09,0-.17,0-.26,0-.09,0-.17,0-.26,0-.19,0-.19.01-.19.17,0,.2.07.23.41.2.32-.03.63-.06.86-.19.25-.14.53-.15.85-.12.36.03.36.03.6-.13.08-.05.17-.1.25-.15.11-.07.01-.14-.19-.14-.79-.02-1.52.07-2.12.38h0Zm3.77-1.55s.05.03.08.04c.32.02.36.13.34.24-.02.15.12.23.49.24.11,0,.22.04.28.08.06.04.07.1.05.15,0,.02-.14.05-.2.07-.07.03-.13.05-.19.08.06.01.12.03.18.03.13,0,.28-.03.39-.01.35.04.67.02,1.02-.1.14-.05.34-.07.51-.1.13-.02.17-.05.11-.07-.02-.01-.08,0-.12-.01-.46-.08-.5-.1-.32-.26.06-.05.14-.11.2-.16.19-.17.07-.31-.31-.32-.49,0-.95-.02-1.39-.08-.36-.05-.7.05-1.04.13-.03,0-.05.03-.08.05h0Zm16.51-1.32s0-.02,0-.03c.63-.06,1.26-.13,1.89-.2.06,0,.17-.05.17-.07,0-.05-.19-.06-.11-.13.09-.08-.04-.09-.18-.08-1.21.12-2.42.23-3.63.35-.18.02-.35.06-.52.09-.13.03-.18.16-.08.2.2.07.45.09.72.06.58-.06,1.16-.13,1.74-.2h0Zm-9.48.73v.02c-.27.02-.54.05-.8.06-.54.03-1.05.13-1.56.22,0,0,0,.04,0,.05.12,0,.27,0,.37.02.13.03-.12.16.15.16.25,0,.48.04.77-.02.39-.08.79-.13,1.18-.19.13-.02.32-.04.36-.08.24-.2.66-.22,1.05-.28.04,0,.07-.02.1-.04-.05-.01-.11-.04-.16-.03-.49.03-.98.08-1.47.12h0Zm18.17-2.09c-.2.03-.6.09-.98.16-.09.02-.19.1-.19.15,0,.04.12.09.22.09.17,0,.35-.02.53-.03.51-.03.95-.15,1.37-.29.06-.02.1-.07.08-.1-.01-.02-.11-.05-.18-.05-.22,0-.44.03-.85.07h0ZM11.69,8.59c.69-.02,1.03-.26,1.39-.47.05-.03,0-.13-.05-.14-.41-.04-.84-.05-1.28.07-.06.01-.12.08-.09.09.08.04.21.05.29.09.23.08.16.19-.15.27-.12.03-.26.05-.39.07-.04,0-.08.02-.12.03.05,0,.09.02.14.02.09,0,.18-.01.27-.02h0Zm12.39-2.02c.25.22.36.23.87.14.09-.01.17-.03.26-.05.2-.05.39-.21.37-.3-.02-.09-.36-.14-.63-.09-.26.05-.52.1-.78.15-.28.05-.22.11-.08.16Zm-16.32,1.87c-.15.02-.38.05-.59.09-.06.01-.09.06-.12.08,0,0,.06.02.09.03.22.01.21.08.16.16-.01.03.06.07.12.08.34.03.89-.07,1.07-.21.08-.06.09-.15.06-.21-.01-.03-.2-.04-.32-.04-.13,0-.27.01-.47.02h0Zm32.32-3.45c.37,0,.68-.14.87-.35.07-.08-.05-.13-.26-.11-.56.03-.91.18-1.18.38-.06.05.02.11.15.11.09,0,.18-.01.42-.03h0Zm-6.79-.46s0,0,0-.01c.4-.05.81-.1,1.21-.16.04,0,.11-.03.11-.04-.03-.03-.06-.07-.12-.07-.57,0-1.12-.02-1.7.16-.22.07-.52.07-.78.11-.06,0-.14.07-.13.08.04.03.13.05.2.05.4-.03.81-.08,1.21-.12h0Zm-21.09,2.6c-.08.01-.21.03-.34.05-.21.03-.29.11-.16.17.31.17.54.19,1.14.07.07-.01.18-.07.17-.09-.03-.06-.11-.12-.16-.18-.05-.07-.2-.04-.32-.04-.09,0-.18,0-.32.02h0Zm17.5-1.73c-.05,0,.18-.01.38-.06.08-.02.12-.1.14-.15.03-.06-.02-.11-.19-.1-.18,0-.36.03-.53.04-.39,0-.54.12-.67.25-.08.08-.07.12.07.1.18-.02.35-.04.8-.08h0Zm-19.92,2.79c-.07,0-.18,0-.24.03-.1.03-.24.08-.26.11-.02.04.07.09.14.12.05.02.15.03.23.03.16,0,.38.06.46-.03.07-.08-.03-.17-.08-.25-.01-.02-.15-.01-.25-.01Zm-1.36-2.21c.11-.03.23-.05.33-.09.06-.02.08-.06.12-.1-.07,0-.15-.03-.21-.02-.25.05-.48.1-.72.16-.02,0-.03.03-.02.04.02.01.06.02.1.02.13,0,.25,0,.39,0h0Zm31.99-.38c.08-.02.19-.03.25-.05.05-.02.08-.07.1-.1,0,0-.06-.02-.1-.02-.09,0-.18,0-.26.02-.17.02-.29.09-.2.12.05.02.14.02.22.03Zm-31.92,2.34c.06.01.12.04.2.03.07,0,.17-.03.21-.05.03-.02-.02-.08-.04-.07-.11,0-.23.03-.35.05-.01,0-.01.03-.02.05Zm-4.35-1.19c.08-.02.17-.03.25-.05.07-.02.11-.06.17-.09-.06-.01-.13-.05-.2-.04-.16.02-.33.05-.49.08-.04,0-.06.05-.07.08,0,0,.06.02.09.02.08,0,.17,0,.25,0h0Zm36.4-2.73s.07-.02.09-.04c.02-.01.02-.04,0-.05-.06-.02-.13-.04-.19-.04-.11.01-.21.04-.32.07.06.02.11.04.18.05.07,0,.15,0,.23,0h0Zm-13.72,3.17c.16-.02.35-.03.41-.12,0-.01,0-.04-.03-.05-.13-.06-.3-.02-.47,0-.08.02-.16.04-.24.06-.03.01-.08.04-.06.04.03.02.07.05.13.06.08,0,.17,0,.26,0h0Zm4.75-3.48c.14-.03.3-.06.45-.1.04-.01.07-.07.05-.08-.15-.06-.36-.06-.55,0-.06.02-.12.07-.11.09,0,.03.09.04.17.08ZM5.7,8.31c.06,0,.13.03.19.02.06-.01.1-.05.14-.08-.06,0-.13-.03-.19-.02-.05,0-.09.05-.14.07Zm.5-.26s.08-.02.12-.03c-.03,0-.06-.02-.09-.02-.04,0-.09,0-.12.01-.04,0-.07.02-.11.03.07,0,.14,0,.22,0h0Zm8.33.12s.08-.02.12-.03c-.03,0-.08-.02-.1-.01-.05,0-.1.03-.14.05.05,0,.09,0,.13,0h0Zm19.37-1.86s.03.03.06.04c.03,0,.09-.01.11-.03.06-.05.02-.06-.09-.05-.03,0-.05.03-.08.04h0Zm9.83-3.1c-.07,0-.15,0-.23,0-.13.02-.14.05-.02.06.07,0,.15-.02.23-.03.01,0,0-.02.01-.03h0Zm-4.92,1.05c.08-.04.16-.07.16-.09,0-.03-.04-.06-.09-.08-.02,0-.18.04-.18.05.02.04.07.08.12.12h0Zm-6.66,2.28c.07,0,.14.03.2.02.05,0,.09-.04.14-.07-.04,0-.08-.02-.12-.01-.08.02-.15.04-.22.06ZM55.9.8l-.04-.02-.04.03h.08s0-.01,0-.01Zm-14.11,2.65h.1s-.08-.02-.11-.03c0,0,0,.02,0,.03Zm-13.87,2.07v.03s.09-.02.09-.02h-.09Zm-.42.86l.08-.02h-.09s0,.02,0,.02h0Z"/>
    </g>
  </g>
</svg>