<svg width="114" height="21" viewBox="0 0 114 21" fill="none" xmlns="http://www.w3.org/2000/svg">
<g opacity="0.9" clip-path="url(#clip0_1999_20606)">
<path d="M21.4052 10.7875C21.3405 10.7986 21.2375 10.8628 21.2493 10.8705C21.3303 10.9112 21.4357 10.9761 21.5225 10.9672C21.8575 10.9191 22.1884 10.8314 22.5244 10.7922C22.8716 10.7563 23.2433 10.7447 23.39 10.8901C23.6584 11.1523 24.205 11.1359 24.858 11.0862C26.0435 10.9904 27.1132 10.7282 28.0091 10.3769C29.3584 9.84931 30.8988 9.6856 32.4483 9.50311C32.6979 9.47731 32.9602 9.46804 33.2224 9.45877C33.9658 9.43545 34.483 9.77006 35.3681 9.52689C36.0508 9.34035 36.7363 9.39437 37.4204 9.32811C38.2018 9.24734 39.0193 9.19851 39.7381 9.0439C40.8756 8.80142 41.979 8.86577 43.0949 8.73257C43.5823 8.67326 44.1372 8.73633 44.3241 8.95342C44.6247 9.31488 45.4205 9.26829 46.1865 9.25155C46.6898 9.23967 46.9677 9.06374 46.7727 8.87426C46.7116 8.81366 46.5537 8.77199 46.5256 8.71245C46.5088 8.6562 46.5743 8.54683 46.6706 8.5235C47.3243 8.37563 47.9907 8.24428 48.6459 8.10965C48.8788 8.13464 49.0918 8.17953 49.3332 8.18133C49.454 8.18223 49.6226 8.11573 49.7614 8.07908C49.6284 8.06606 49.4932 8.03098 49.3521 8.04556C49.0908 8.06366 48.8322 8.10823 48.5726 8.14399C48.6488 7.92646 48.4253 7.78006 48.0947 7.65812L48.13 7.68124C48.6232 7.57226 49.1047 7.45558 49.6106 7.36313C49.9442 7.30187 50.3051 7.29133 50.5259 7.41125C50.724 7.52458 50.9701 7.57052 51.3612 7.53455C52.0557 7.46275 52.7407 7.40531 53.4275 7.36553C53.6346 7.35305 53.915 7.41327 54.0101 7.48374C54.1888 7.62138 54.1555 7.83001 54.7433 7.78708C55.266 7.75089 55.7855 7.6838 56.1932 7.48999C56.3189 7.4324 56.4436 7.36598 56.5354 7.2985C56.8309 7.08061 57.2902 6.96175 57.7586 6.82413C58.5352 6.59218 59.282 6.39007 60.1963 6.32232C60.8818 6.2693 61.569 6.12689 62.2522 6.0518C62.9354 5.97671 63.6217 5.93252 64.3176 5.87396C64.8134 6.10818 65.7146 6.01949 66.2903 6.17853C66.5387 6.24654 66.6939 6.36877 66.9006 6.45891C66.935 6.4732 67.0548 6.46527 67.119 6.44971C67.1832 6.43416 67.2668 6.39429 67.2749 6.36669C67.3079 6.26069 67.3295 6.1514 67.3402 6.04324C67.3742 5.62935 67.5943 5.53076 68.5543 5.48059C69.4166 5.44051 70.2779 5.39161 71.1398 5.34712C71.369 5.3368 71.7027 5.27555 71.7074 5.42672C71.7133 5.4841 71.4796 5.55733 71.4425 5.6236C71.4055 5.68988 71.4396 5.8068 71.506 5.81331C72.2336 5.8496 72.9825 5.87924 73.7479 5.75104C74.0065 5.70647 74.1036 5.47787 74.5426 5.48154C74.6837 5.46696 74.8248 5.45238 74.955 5.43891C74.8031 5.45462 74.6403 5.47145 74.4888 5.49157L74.9095 5.10462L74.8466 5.13341C75.2834 5.11502 75.7094 5.09775 76.1462 5.07936C76.5405 5.07428 76.9348 5.0692 77.3286 5.05971C77.3834 5.05852 77.4566 5.02418 77.5208 5.00862C77.4412 4.98117 77.3471 4.91953 77.2711 4.92738C76.8705 4.97772 76.4821 5.04017 76.0829 5.10374C76.9277 4.68187 77.9133 4.56213 78.9042 4.70503C79.7617 4.83049 80.5774 4.76401 81.3137 4.4604C82.8393 3.83432 84.5447 3.56881 86.404 3.51933C86.9729 3.50513 87.4236 3.40946 87.2393 3.11181C87.2375 3.09416 87.5015 2.9955 87.643 2.98533C88.2299 2.93358 88.8552 2.82879 89.2005 3.09196C89.4145 3.25272 89.9164 3.22759 90.3396 3.18384C91.3696 3.06844 92.41 2.94751 93.425 2.79351C95.2064 2.52014 96.8392 2.50746 98.3489 2.78853C98.1739 2.79324 97.9586 2.72629 97.8868 2.88091C98.0256 2.84425 98.1536 2.80873 98.2923 2.77208C98.5097 2.64701 98.8262 2.52508 98.9224 2.3947C99.1157 2.14277 99.4199 2.00873 100.039 1.9492C100.636 1.89191 101.265 1.82243 101.483 1.48769C101.511 1.44019 102.06 1.33884 102.151 1.36959C103.228 1.7176 104.31 1.46307 105.438 1.12789C105.81 1.01802 106.227 0.908064 106.628 0.866556C107.757 0.754301 108.878 0.665234 109.931 0.35557C110.155 0.29229 110.438 0.27195 110.697 0.231786C111.822 0.0753962 112.404 0.193599 112.376 0.664863C112.367 0.893314 112.169 1.10111 112.583 1.28581C112.79 1.37596 112.694 1.62221 112.592 1.79343C112.499 1.95471 112.488 2.06288 112.771 2.15399C113.191 2.28461 113.276 2.47207 112.95 2.7154C112.195 3.26624 112.457 3.78336 112.468 4.30864C113.045 4.58797 112.757 4.87648 112.142 5.18541C112.016 5.24741 112.074 5.38416 112.106 5.47901C112.138 5.57828 112.3 5.65967 112.289 5.759C112.27 6.11328 112.219 6.4665 112.168 6.81972C112.172 6.85503 112.131 6.89041 112.102 6.92908C111.969 7.12133 111.722 7.28065 111.236 7.3532C109.431 7.61116 107.625 7.86029 105.821 8.12266C104.276 8.34929 102.705 8.53843 101.223 8.83888C100.181 9.05362 99.2347 9.12915 98.1884 9.19271C96.6623 9.28357 95.1254 9.37554 93.5747 9.65183C92.3146 9.87577 90.9979 9.9762 89.7089 10.1318C89.1889 10.1944 88.6662 10.2306 88.1603 10.3231C87.5789 10.4278 87.0468 10.5854 86.4534 10.4683C86.2743 10.4333 85.9529 10.5067 85.692 10.5292C82.3162 10.8692 78.9441 11.2446 75.592 11.7071C75.1702 11.7641 74.7384 11.8311 74.3184 11.9057C73.3174 12.0895 72.3467 12.2478 71.2917 12.2275C70.7314 12.2185 70.0854 12.3344 69.4917 12.427C68.1209 12.6401 66.7617 12.7538 65.3808 12.8698C63.6518 13.0129 61.9178 13.2144 60.2097 13.4534C57.453 13.841 54.6714 14.0929 51.907 14.4054C48.1017 14.8345 44.3006 15.3033 40.4972 15.75C39.6304 15.853 38.7646 15.9648 37.9064 16.0446C34.3435 16.3773 30.8255 16.9327 27.2979 17.3956C26.9516 17.4403 26.5817 17.4696 26.272 17.5507C25.4492 17.7606 24.6522 17.901 23.7618 17.8816C23.3661 17.8734 22.9031 17.9569 22.47 18.0106C20.9969 18.1897 19.5342 18.3632 18.0634 18.5643C17.1225 18.6928 16.1994 18.8864 15.2462 19.0027C11.8783 19.4178 8.52843 19.9024 5.23478 20.5061C4.45986 20.6486 3.6894 20.7283 2.92832 20.6865C2.77366 20.6758 2.52179 20.6795 2.48422 20.6343C2.14023 20.2773 1.08734 20.065 1.49565 19.5589C1.9812 18.9511 1.55074 18.5005 0.851287 18.1C0.512871 17.903 0.605416 17.7373 0.933509 17.5161C1.13913 17.3833 1.48126 17.1918 1.40703 17.1103C1.08885 16.7908 1.68128 16.3682 1.1809 16.0899C0.726663 15.8335 0.784272 15.5421 0.989699 15.1952C1.18701 14.876 1.29524 14.5436 1.10955 14.2327C1.03075 14.107 1.09165 13.9535 1.13177 13.8111C1.17908 13.6323 1.60665 13.4186 2.01364 13.43C3.05868 13.4603 3.72819 13.2528 4.04568 12.823C4.52758 12.1799 5.48322 11.8759 7.00791 11.7718C8.29296 11.6836 9.57253 11.5424 10.8638 11.3018C11.7567 11.1337 12.7542 11.1287 13.7101 11.0388C14.655 10.95 15.6485 10.9053 16.5523 10.7361C18.1554 10.4365 19.7496 10.1557 21.4135 10.0194M12.7551 17.5028L12.8144 17.5457L12.7628 17.4708L12.8722 17.4684L12.7551 17.5028ZM38.3042 10.0263C38.3968 9.86058 38.2429 9.75159 37.92 9.70468C37.8088 9.68942 37.6162 9.73609 37.4642 9.7518C37.4674 9.78269 37.4725 9.83124 37.5064 9.84111C37.7755 9.89805 38.0654 9.94391 38.3449 9.9953L38.4109 9.9974L38.2938 10.0318L38.3042 10.0263ZM56.5548 11.7303C57.6122 11.8797 58.652 11.6473 59.6584 11.4095C59.808 11.3717 59.8802 11.2215 59.9254 11.1276C59.9339 11.1045 59.6987 11.0574 59.5676 11.062C59.1525 11.0782 58.7275 11.1043 58.3034 11.1392C57.6622 11.1966 57.1835 11.3397 56.8939 11.615C56.8342 11.6747 56.6303 11.7181 56.4929 11.768C56.3753 11.6909 56.2884 11.5928 56.1192 11.5479C55.95 11.5029 55.6846 11.4813 55.468 11.5081C55.3057 11.5294 55.1638 11.6422 55.007 11.7164C55.1092 11.7504 55.2142 11.8109 55.3236 11.8086C55.7283 11.7979 56.1416 11.7641 56.5444 11.7359L56.5548 11.7303ZM67.4412 10.6272C67.6429 10.6688 67.8383 10.7557 68.0454 10.7432C68.6337 10.7047 69.2468 10.5878 69.826 10.568C70.668 10.5434 71.3262 10.3327 71.9726 10.1142C72.2375 10.0243 72.4535 9.88602 72.6157 9.75774C72.7269 9.66596 72.091 9.56219 71.623 9.59719C71.1116 9.63667 70.6002 9.67616 70.0916 9.74212C69.8642 9.7701 69.5106 9.85125 69.4524 9.92418C69.1032 10.3662 68.0424 10.3956 67.3888 10.6505L67.405 10.5953L67.4625 10.6206L67.4412 10.6272ZM91.4333 3.47224L91.4852 3.44456L91.512 3.49086C91.0267 3.4652 90.5487 3.4031 90.0468 3.42822C89.0982 3.48169 88.1419 3.56716 87.1991 3.678C86.7976 3.71951 86.2818 3.82191 86.0323 3.95475C85.5017 4.23264 85.2063 4.13381 84.7789 4.0308C84.5202 3.96833 84.0017 4.15129 84.0488 4.28916C84.0688 4.3763 84.2353 4.50183 84.4004 4.50707C85.6991 4.55123 86.9574 4.41669 88.1549 4.01187C88.5044 3.891 88.9374 3.73025 89.3508 3.8035C90.1888 3.95327 90.8136 3.73703 91.4441 3.47111L91.4333 3.47224ZM27.6202 13.8294L27.6908 13.8757L27.65 13.7996C28.1538 13.8992 28.697 13.9545 29.325 13.8762C29.8341 13.8147 30.3545 13.7564 30.8623 13.6816C31.6286 13.5623 32.3832 13.4352 33.1373 13.3037C33.4606 13.248 33.5418 13.079 33.3739 12.9402C33.2178 12.8092 32.9474 12.739 32.5888 12.7716C31.557 12.8693 30.5388 12.9924 29.5083 13.1034C28.6511 13.1921 28.0847 13.4424 27.6685 13.7665L27.6603 13.687L27.6328 13.7389L27.5985 13.8317L27.6202 13.8294ZM30.4277 14.6767L30.5009 14.6423C30.3363 14.6415 30.1713 14.6363 30.0067 14.6354C29.8421 14.6346 29.677 14.6294 29.5021 14.6341C29.1304 14.6457 29.1313 14.6546 29.142 14.9702C29.16 15.3564 29.2753 15.4114 29.9386 15.3562C30.5477 15.3066 31.1549 15.2393 31.6005 14.9881C32.0773 14.7202 32.6236 14.6994 33.2327 14.7569C33.9192 14.8198 33.9287 14.8054 34.3924 14.5166C34.5469 14.4203 34.7237 14.3262 34.8778 14.2255C35.0933 14.0828 34.9046 13.9551 34.509 13.947C32.9923 13.9164 31.5947 14.0832 30.4386 14.6755L30.4277 14.6767ZM37.6664 11.707C37.7234 11.7278 37.7605 11.7686 37.827 11.7751C38.4451 11.8138 38.51 12.0167 38.4781 12.2386C38.4318 12.5333 38.7001 12.6885 39.4146 12.7038C39.6235 12.709 39.8397 12.7848 39.946 12.8585C40.0528 12.9367 40.0755 13.0503 40.0421 13.1519C40.0246 13.1939 39.7777 13.2462 39.6511 13.2949C39.5246 13.3437 39.4089 13.3913 39.2936 13.4434C39.4058 13.4675 39.5197 13.5092 39.6405 13.5101C39.8928 13.5108 40.1831 13.4541 40.3943 13.4813C41.0722 13.5673 41.6812 13.5177 42.3484 13.2882C42.6237 13.1928 43.0031 13.1491 43.3367 13.0879C43.5845 13.0444 43.6568 13.0013 43.5415 12.9463C43.4953 12.9243 43.3863 12.9311 43.3194 12.9202C42.4266 12.7716 42.3674 12.7287 42.6976 12.4224C42.8074 12.3174 42.9615 12.2167 43.0826 12.115C43.4554 11.7954 43.2177 11.5122 42.4825 11.5079C41.5496 11.5018 40.6474 11.4746 39.813 11.3601C39.1234 11.2664 38.4747 11.4628 37.82 11.6019C37.7558 11.6174 37.717 11.666 37.6655 11.6981L37.6664 11.707ZM69.3969 9.17607C69.3969 9.17607 69.3938 9.14517 69.3919 9.12752C70.5964 9.003 71.8118 8.87735 73.0159 8.74842C73.1353 8.73608 73.3454 8.64744 73.3422 8.61655C73.3327 8.52386 72.9686 8.50351 73.1295 8.36198C73.3102 8.20056 73.0461 8.19218 72.7852 8.21469C70.4612 8.4371 68.1263 8.66064 65.8031 8.89188C65.4667 8.92666 65.1349 9.00557 64.8121 9.06571C64.5539 9.1147 64.4714 9.37748 64.6655 9.45109C65.0418 9.59061 65.5275 9.62069 66.0588 9.56131C67.1765 9.44576 68.2915 9.30373 69.4073 9.17053L69.3969 9.17607ZM51.1709 10.574L51.1755 10.6182C50.6532 10.6588 50.1427 10.7071 49.63 10.7333C48.5941 10.7914 47.6152 10.9773 46.6364 11.1633C46.6256 11.1644 46.6234 11.2494 46.6455 11.2515C46.8775 11.2677 47.1606 11.2473 47.3514 11.2901C47.5984 11.3448 47.1193 11.5906 47.6353 11.5953C48.1182 11.5989 48.5537 11.6743 49.1234 11.5619C49.8644 11.4094 50.6335 11.3165 51.3881 11.1895C51.6358 11.146 52.0043 11.1035 52.0843 11.0283C52.5375 10.638 53.3573 10.6112 54.1015 10.4897C54.1774 10.4818 54.2285 10.4453 54.2918 10.4209C54.1905 10.3957 54.0869 10.3484 53.9887 10.3541C53.0415 10.4208 52.1064 10.4996 51.16 10.5752L51.1709 10.574ZM86.0826 6.56346C85.6943 6.62592 84.9378 6.73534 84.2063 6.87341C84.0341 6.9046 83.8425 7.06714 83.8403 7.15212C83.8481 7.22715 84.077 7.31946 84.2642 7.32687C84.5834 7.33847 84.9402 7.28821 85.2779 7.26668C86.2591 7.20985 87.1013 6.97558 87.9078 6.71378C88.014 6.6805 88.0908 6.57443 88.0532 6.52925C88.0265 6.48294 87.8461 6.43469 87.7149 6.43933C87.289 6.4566 86.8658 6.50035 86.0718 6.56458L86.0826 6.56346ZM23.1099 16.6687C24.4439 16.629 25.0874 16.1699 25.7807 15.7682C25.8842 15.7084 25.7981 15.5121 25.6764 15.5024C24.89 15.4276 24.0656 15.4102 23.2107 15.6279C23.1036 15.6524 22.9852 15.7806 23.0309 15.7982C23.1915 15.8663 23.4253 15.9001 23.5963 15.9628C24.0292 16.1187 23.9082 16.3275 23.3092 16.4742C23.0741 16.5342 22.8141 16.5655 22.556 16.6145C22.4809 16.6312 22.395 16.649 22.3204 16.6701C22.41 16.6876 22.4896 16.715 22.5882 16.7138C22.7523 16.7102 22.9363 16.6867 23.0996 16.6743L23.1099 16.6687ZM46.9255 12.7927C47.407 13.2068 47.6078 13.2396 48.5885 13.0713C48.7612 13.0445 48.9221 13.0101 49.0826 12.9712C49.4678 12.8778 49.8306 12.5682 49.7898 12.3851C49.7507 12.2196 49.0927 12.1137 48.5755 12.2028C48.0691 12.2909 47.5754 12.3954 47.0808 12.4912C46.5432 12.5958 46.6631 12.6949 46.9255 12.7927ZM15.5568 16.3835C15.2651 16.427 14.8324 16.4851 14.4237 16.5631C14.3161 16.5831 14.2484 16.6704 14.1883 16.7257C14.1892 16.7345 14.3023 16.7674 14.3688 16.7739C14.7988 16.7964 14.7677 16.92 14.6743 17.0769C14.6467 17.1288 14.7874 17.2169 14.9091 17.2266C15.563 17.2928 16.6173 17.0946 16.9725 16.817C17.1248 16.6987 17.1513 16.5309 17.0838 16.4085C17.0557 16.349 16.6926 16.3374 16.4615 16.3301C16.2196 16.3239 15.9488 16.3564 15.5667 16.3736L15.5568 16.3835ZM77.6703 9.74371C78.382 9.73258 78.9687 9.46674 79.3342 9.07657C79.472 8.92405 79.2431 8.83174 78.8397 8.85559C77.7713 8.91698 77.0874 9.19733 76.5799 9.59326C76.4584 9.69058 76.6244 9.81169 76.8645 9.80025C77.0391 9.79112 77.2023 9.77871 77.6707 9.74813L77.6703 9.74371ZM64.626 8.85745C64.626 8.85745 64.6242 8.83979 64.6233 8.83097C65.3915 8.72925 66.171 8.63083 66.9391 8.52911C67.0151 8.52126 67.1516 8.46254 67.1512 8.45812C67.091 8.40636 67.0276 8.3237 66.9286 8.32056C65.8415 8.30804 64.7747 8.28004 63.6586 8.62292C63.2441 8.75052 62.6639 8.76143 62.1566 8.84064C62.0486 8.85627 61.8854 8.97573 61.9099 8.99996C61.9809 9.05061 62.1618 9.10327 62.292 9.08981C63.0639 9.0234 63.8443 8.9338 64.6147 8.85416L64.626 8.85745ZM24.1017 13.8497C23.9503 13.8698 23.6907 13.9056 23.4421 13.9402C23.0311 13.9961 22.8928 14.1442 23.1254 14.2718C23.718 14.5941 24.1712 14.6276 25.3114 14.4116C25.4511 14.3838 25.6604 14.2863 25.6454 14.2477C25.5888 14.1242 25.4349 14.0152 25.3457 13.8951C25.2448 13.7672 24.964 13.8096 24.723 13.8122C24.548 13.817 24.3848 13.8294 24.1013 13.8453L24.1017 13.8497ZM57.7254 10.5343C57.6277 10.5444 58.0627 10.5084 58.4478 10.415C58.5979 10.3817 58.6702 10.2315 58.7148 10.1332C58.7685 10.0161 58.6712 9.92357 58.3547 9.93845C58.0165 9.95557 57.6706 10.0047 57.3419 10.0075C56.5976 10.022 56.3129 10.2387 56.0536 10.4886C55.8941 10.6433 55.9231 10.7117 56.1948 10.6881C56.5312 10.6533 56.8676 10.6185 57.7249 10.5299L57.7254 10.5343ZM19.4438 15.8969C19.3027 15.9115 19.1051 15.9096 18.9776 15.9496C18.7864 16.0095 18.5102 16.096 18.4849 16.17C18.4497 16.2539 18.6126 16.3441 18.7511 16.4101C18.8429 16.4497 19.0306 16.4615 19.1843 16.4635C19.4913 16.463 19.9192 16.5704 20.0769 16.398C20.2042 16.251 20.0214 16.0736 19.9182 15.9237C19.8928 15.8906 19.631 15.9043 19.4438 15.8969ZM16.8334 11.6526C17.036 11.596 17.2724 11.5493 17.4731 11.475C17.5893 11.4318 17.6358 11.3511 17.7058 11.2859C17.5724 11.2685 17.4141 11.2224 17.2957 11.2435C16.8223 11.3326 16.3729 11.4415 15.9122 11.5471C15.8797 11.5505 15.8531 11.6112 15.8766 11.6267C15.9119 11.6498 16.001 11.6629 16.067 11.665C16.3085 11.6668 16.5486 11.6553 16.8226 11.6538L16.8334 11.6526ZM78.318 10.9168C78.479 10.8823 78.6747 10.8665 78.79 10.8145C78.8949 10.768 78.9414 10.6873 78.9784 10.621C78.977 10.6078 78.8535 10.5804 78.7771 10.5839C78.613 10.5874 78.4384 10.5966 78.2761 10.6178C77.9406 10.6614 77.7246 10.7997 77.8952 10.8579C77.9978 10.8964 78.1737 10.9005 78.318 10.9168ZM16.9812 15.4155C17.1042 15.4385 17.2191 15.489 17.3606 15.4789C17.4917 15.4742 17.6843 15.4276 17.767 15.3789C17.8186 15.3468 17.7298 15.231 17.6864 15.2355C17.4689 15.2536 17.242 15.2859 17.0159 15.3272C16.9942 15.3294 16.9888 15.3835 16.9812 15.4155ZM8.61761 13.1265C8.779 13.0964 8.95263 13.0784 9.09051 13.033C9.21799 12.993 9.30926 12.9211 9.41322 12.8658C9.28974 12.8384 9.16216 12.7713 9.03195 12.7848C8.71725 12.8173 8.39399 12.873 8.09334 12.9353C8.01829 12.952 7.97225 13.0371 7.95602 13.0923C7.95739 13.1055 8.06955 13.1296 8.13557 13.1317C8.28932 13.1336 8.453 13.1256 8.61715 13.122L8.61761 13.1265ZM78.5748 7.88381C78.6381 7.85943 78.7126 7.83833 78.7538 7.81178C78.784 7.78634 78.8007 7.73555 78.7664 7.72126C78.6533 7.68835 78.5162 7.63561 78.3968 7.64795C78.1907 7.66926 77.9886 7.7303 77.7847 7.77368C77.8978 7.8066 77.9905 7.855 78.1239 7.87243C78.2573 7.88986 78.4206 7.87745 78.5743 7.8794L78.5748 7.88381ZM52.2018 13.969C52.5161 13.9321 52.8765 13.9171 52.9893 13.736C53.0083 13.7072 52.982 13.6654 52.9364 13.6478C52.6835 13.5356 52.3503 13.6013 52.0279 13.6659C51.8665 13.6959 51.7173 13.7381 51.5686 13.7847C51.5049 13.8047 51.4226 13.8578 51.4457 13.8688C51.505 13.9117 51.5873 13.9657 51.6986 13.9809C51.8428 13.9972 52.0269 13.9738 52.191 13.9702L52.2018 13.969ZM61.3372 7.27939C61.6057 7.22486 61.9181 7.17026 62.1952 7.09255C62.2698 7.07145 62.3349 6.95768 62.2887 6.93568C62.0019 6.81367 61.5963 6.81546 61.2256 6.94299C61.109 6.98181 60.9974 7.06918 61.0142 7.12543C61.0196 7.17839 61.1874 7.21011 61.3372 7.27939ZM11.594 16.1375C11.7161 16.1516 11.8522 16.1955 11.9603 16.1799C12.0679 16.1598 12.1479 16.0847 12.2301 16.0315C12.108 16.0174 11.9728 15.9823 11.8647 15.998C11.7675 16.0125 11.6875 16.0876 11.594 16.1375ZM12.5513 15.637C12.6259 15.6159 12.7009 15.5993 12.7755 15.5782C12.7194 15.5661 12.6624 15.5453 12.5964 15.5432C12.5195 15.5422 12.4327 15.5512 12.3572 15.5634C12.2817 15.5757 12.2184 15.6001 12.1438 15.6212C12.2872 15.6287 12.4192 15.6328 12.5626 15.6403L12.5513 15.637ZM28.5667 15.8771C28.6418 15.8605 28.7163 15.8394 28.7914 15.8227C28.7245 15.8118 28.6449 15.7843 28.591 15.7943C28.4943 15.8133 28.3998 15.8542 28.3158 15.8897C28.403 15.8851 28.4794 15.8817 28.5672 15.8816L28.5667 15.8771ZM65.7945 12.3096C65.8298 12.3327 65.8561 12.3746 65.9112 12.3778C65.9664 12.381 66.0844 12.3555 66.1255 12.3289C66.2371 12.2415 66.1675 12.2041 65.9504 12.2266C65.8962 12.2322 65.8573 12.2808 65.8054 12.3085L65.7945 12.3096ZM84.6797 6.36056C84.5378 6.36632 84.3831 6.35555 84.2429 6.37896C83.9947 6.418 83.9785 6.4732 84.21 6.48495C84.3421 6.48914 84.503 6.45466 84.654 6.43013C84.6757 6.42789 84.6716 6.38817 84.6802 6.36498L84.6797 6.36056ZM75.215 8.37834C75.3601 8.29643 75.5187 8.23988 75.5255 8.19904C75.5309 8.14496 75.4471 8.07778 75.3458 8.05257C75.3006 8.0394 74.9918 8.12931 75.0041 8.14143C75.0448 8.21751 75.1399 8.28797 75.2259 8.37722L75.215 8.37834ZM62.4193 12.7611C62.5527 12.7785 62.688 12.8136 62.8073 12.8013C62.8942 12.7923 62.9741 12.7171 63.0677 12.6673C62.9904 12.6619 62.9107 12.6345 62.8461 12.6456C62.6955 12.6746 62.5577 12.72 62.4193 12.7611ZM108.075 1.71165L107.994 1.67095L107.924 1.73177L108.076 1.71606L108.075 1.71165ZM80.9532 6.80826L81.1485 6.78806C81.0816 6.77714 81.0038 6.76734 80.9369 6.75642C80.9387 6.77407 80.9405 6.79173 80.9532 6.80826ZM54.2957 10.7774L54.2804 10.8414L54.4734 10.7991L54.2957 10.7774ZM53.4797 12.4319L53.6284 12.3853L53.4633 12.38L53.4688 12.433L53.4797 12.4319Z" fill="#E12D39"/>
</g>
<defs>
<clipPath id="clip0_1999_20606">
<rect width="9.3753" height="113.501" fill="white" transform="translate(112.899) rotate(84.0978)"/>
</clipPath>
</defs>
</svg>
