<svg width="240" height="224" viewBox="0 0 240 224" fill="none" xmlns="http://www.w3.org/2000/svg">
<path d="M235.325 223.407C235.325 223.407 235.325 220.812 235.325 219.255C235.325 205.76 224.416 194.341 210.39 194.341C205.714 194.341 190.13 194.341 185.455 194.341C171.948 194.341 160.52 205.24 160.52 219.255C160.52 220.812 160.52 223.407 160.52 223.407H235.325Z" fill="#092649"/>
<path d="M218.182 166.312C218.182 177.212 209.35 186.555 197.922 186.555C187.013 186.555 177.662 177.731 177.662 166.312C177.662 155.412 186.493 146.069 197.922 146.069C209.35 146.588 218.182 155.412 218.182 166.312Z" fill="#092649"/>
<path d="M198.442 97.2791L196.883 123.231C196.883 127.384 191.688 129.46 188.572 126.346L163.636 101.951C160.52 98.8363 162.597 93.6458 166.753 93.6458L193.247 92.0887C196.364 92.0887 198.961 94.6839 198.442 97.2791Z" fill="#092649"/>
<path d="M159.246 107.74L239.999 107.141V27.2081L214.025 27.2081C216.623 23.5748 217.662 18.3844 216.623 13.1939C215.064 7.48443 210.909 2.81303 204.675 1.2559C193.246 -1.85837 182.857 6.96539 182.857 17.8653C182.857 21.4986 183.896 24.6129 185.974 27.7272L158.839 27.7272" fill="#092649"/>
<path d="M156.364 223.407C156.364 223.407 156.364 220.812 156.364 219.255C156.364 205.759 145.455 194.34 131.429 194.34C126.753 194.34 111.169 194.34 106.494 194.34C92.9872 194.34 81.5586 205.24 81.5586 219.255C81.5586 220.812 81.5586 223.407 81.5586 223.407H156.364Z" fill="#307FE2"/>
<path d="M139.74 166.312C139.74 177.212 130.909 186.555 119.48 186.555C108.571 186.555 99.2207 177.731 99.2207 166.312C99.2207 155.412 108.052 146.069 119.48 146.069C130.39 146.588 139.74 155.412 139.74 166.312Z" fill="#307FE2"/>
<path d="M125.195 124.789C122.598 128.941 116.364 128.941 113.767 124.789L104.416 109.217L95.0654 93.6459C92.468 89.4935 95.5849 83.784 100.78 83.784H119.481L137.663 83.784C142.858 83.784 145.975 88.9745 143.377 93.6459L134.026 109.217L125.195 124.789Z" fill="#307FE2"/>
<path d="M78.9609 27.2081V107.66L159.48 107.66V81.7078C163.636 84.303 168.312 85.3411 173.506 84.303C179.221 82.7459 183.896 78.0745 185.454 72.365C188.571 60.946 179.74 50.5651 168.831 50.5651C165.195 50.5651 162.078 51.6032 158.961 53.6794V27.7272" fill="#307FE2"/>
<path d="M77.9224 223.407C77.9224 223.407 77.9224 220.812 77.9224 219.255C77.9224 205.76 67.0133 194.341 52.9873 194.341C48.312 194.341 32.7276 194.341 28.0523 194.341C14.5458 194.341 3.11719 205.241 3.11719 219.255C3.11719 220.812 3.11719 223.407 3.11719 223.407H77.9224Z" fill="#99C7FF"/>
<path d="M61.2978 166.312C61.2978 177.212 52.4666 186.555 41.0381 186.555C30.129 186.555 20.7783 177.731 20.7783 166.312C20.7783 155.412 29.6095 146.069 41.0381 146.069C51.9471 146.588 61.2978 155.412 61.2978 166.312Z" fill="#99C7FF"/>
<path d="M40.5195 97.2792L42.078 123.231C42.078 127.384 47.2728 129.46 50.3897 126.346L75.3247 101.951C78.4416 98.8363 76.3637 93.6458 72.2078 93.6458L45.7143 92.0887C43.1169 92.0887 40.5195 94.6839 40.5195 97.2792Z" fill="#99C7FF"/>
<path d="M27.5325 49.008C21.8182 41.2223 22.4295 32.4005 26.0659 26.691L0.0918797 26.691L0 107.66L80.5195 107.66V81.7078C86.2338 85.8602 96.7099 86.455 103.856 78.0082C111.003 69.5614 106.3 50.5651 90.3896 50.5651C86.7533 50.5651 83.6364 51.6032 80.5195 53.6794L80.6113 27.21L54.6373 27.21C56.1958 29.2862 57.1429 32.9176 57.1429 36.5509C57.1429 50.0461 41.5584 59.9079 27.5325 49.008Z" fill="#99C7FF"/>
</svg>
