<svg width="280" height="263" viewBox="0 0 280 263" fill="none" xmlns="http://www.w3.org/2000/svg">
<g filter="url(#filter0_d_604_9435)">
<path d="M255.325 233.407C255.325 233.407 255.325 230.812 255.325 229.255C255.325 215.76 244.416 204.341 230.39 204.341C225.714 204.341 210.13 204.341 205.455 204.341C191.948 204.341 180.52 215.24 180.52 229.255C180.52 230.812 180.52 233.407 180.52 233.407H255.325Z" fill="#092649"/>
<path d="M238.182 176.312C238.182 187.212 229.35 196.555 217.922 196.555C207.013 196.555 197.662 187.731 197.662 176.312C197.662 165.412 206.493 156.069 217.922 156.069C229.35 156.588 238.182 165.412 238.182 176.312Z" fill="#092649"/>
<path d="M218.442 107.279L216.883 133.231C216.883 137.384 211.688 139.46 208.572 136.346L183.636 111.951C180.52 108.836 182.597 103.646 186.753 103.646L213.247 102.089C216.364 102.089 218.961 104.684 218.442 107.279Z" fill="#092649"/>
<path d="M179.246 117.74L259.999 117.141V37.2081H234.025C236.623 33.5748 237.662 28.3844 236.623 23.1939C235.064 17.4844 230.909 12.813 224.675 11.2559C213.246 8.14163 202.857 16.9654 202.857 27.8653C202.857 31.4986 203.896 34.6129 205.974 37.7272H178.839" fill="#092649"/>
<path d="M176.364 233.407C176.364 233.407 176.364 230.812 176.364 229.255C176.364 215.759 165.455 204.34 151.429 204.34C146.753 204.34 131.169 204.34 126.494 204.34C112.987 204.34 101.559 215.24 101.559 229.255C101.559 230.812 101.559 233.407 101.559 233.407H176.364Z" fill="#307FE2"/>
<path d="M159.74 176.312C159.74 187.212 150.909 196.555 139.48 196.555C128.571 196.555 119.221 187.731 119.221 176.312C119.221 165.412 128.052 156.069 139.48 156.069C150.39 156.588 159.74 165.412 159.74 176.312Z" fill="#307FE2"/>
<path d="M145.195 134.789C142.598 138.941 136.364 138.941 133.767 134.789L124.416 119.217L115.065 103.646C112.468 99.4935 115.585 93.784 120.78 93.784H139.481L157.663 93.784C162.858 93.784 165.975 98.9745 163.377 103.646L154.026 119.217L145.195 134.789Z" fill="#307FE2"/>
<path d="M98.9609 37.2081V117.66L179.48 117.66V91.7078C183.636 94.303 188.312 95.3411 193.506 94.303C199.221 92.7459 203.896 88.0745 205.454 82.365C208.571 70.946 199.74 60.5651 188.831 60.5651C185.195 60.5651 182.078 61.6032 178.961 63.6794V37.7272" fill="#307FE2"/>
<path d="M97.9224 233.407C97.9224 233.407 97.9224 230.812 97.9224 229.255C97.9224 215.76 87.0133 204.341 72.9873 204.341C68.312 204.341 52.7276 204.341 48.0523 204.341C34.5458 204.341 23.1172 215.241 23.1172 229.255C23.1172 230.812 23.1172 233.407 23.1172 233.407H97.9224Z" fill="#99C7FF"/>
<path d="M81.2978 176.312C81.2978 187.212 72.4666 196.555 61.0381 196.555C50.129 196.555 40.7783 187.731 40.7783 176.312C40.7783 165.412 49.6095 156.069 61.0381 156.069C71.9471 156.588 81.2978 165.412 81.2978 176.312Z" fill="#99C7FF"/>
<path d="M60.5195 107.279L62.078 133.231C62.078 137.384 67.2728 139.46 70.3897 136.346L95.3247 111.951C98.4416 108.836 96.3637 103.646 92.2078 103.646L65.7143 102.089C63.1169 102.089 60.5195 104.684 60.5195 107.279Z" fill="#99C7FF"/>
<path d="M47.5325 59.008C41.8182 51.2223 42.4295 42.4005 46.0659 36.691L20.0919 36.691L20 117.66L100.519 117.66V91.7078C106.234 95.8602 116.71 96.455 123.856 88.0082C131.003 79.5614 126.3 60.5651 110.39 60.5651C106.753 60.5651 103.636 61.6032 100.519 63.6794L100.611 37.21L74.6373 37.21C76.1958 39.2862 77.1429 42.9176 77.1429 46.5509C77.1429 60.0461 61.5584 69.9079 47.5325 59.008Z" fill="#99C7FF"/>
</g>
<defs>
<filter id="filter0_d_604_9435" x="0.450573" y="0.847998" width="279.098" height="261.883" filterUnits="userSpaceOnUse" color-interpolation-filters="sRGB">
<feFlood flood-opacity="0" result="BackgroundImageFix"/>
<feColorMatrix in="SourceAlpha" type="matrix" values="0 0 0 0 0 0 0 0 0 0 0 0 0 0 0 0 0 0 127 0" result="hardAlpha"/>
<feOffset dy="9.77471"/>
<feGaussianBlur stdDeviation="9.77471"/>
<feComposite in2="hardAlpha" operator="out"/>
<feColorMatrix type="matrix" values="0 0 0 0 0.0359375 0 0 0 0 0.149658 0 0 0 0 0.2875 0 0 0 0.17 0"/>
<feBlend mode="normal" in2="BackgroundImageFix" result="effect1_dropShadow_604_9435"/>
<feBlend mode="normal" in="SourceGraphic" in2="effect1_dropShadow_604_9435" result="shape"/>
</filter>
</defs>
</svg>
