<svg width="32" height="32" viewBox="0 0 32 32" fill="none" xmlns="http://www.w3.org/2000/svg">
<path d="M3.73096 16.1208H6.25655C6.35345 16.1202 6.44821 16.085 6.52972 16.0192C6.61123 15.9534 6.67611 15.8597 6.71675 15.7492L11.0722 4.31283C11.11 4.19872 11.1739 4.10123 11.2558 4.03266C11.3377 3.96408 11.4339 3.92749 11.5324 3.92749C11.6308 3.92749 11.727 3.96408 11.8089 4.03266C11.8908 4.10123 11.9547 4.19872 11.9926 4.31283L19.8871 27.6604C19.9249 27.7745 19.9889 27.872 20.0707 27.9406C20.1526 28.0091 20.2489 28.0457 20.3473 28.0457C20.4457 28.0457 20.5419 28.0091 20.6238 27.9406C20.7057 27.872 20.7696 27.7745 20.8075 27.6604L25.0752 16.4511C25.1141 16.3399 25.1777 16.245 25.2583 16.1779C25.3389 16.1108 25.4332 16.0743 25.53 16.0726H28.2692" fill="#CCE3FF"/>
<path d="M3.73096 16.1208H6.25655C6.35345 16.1202 6.44821 16.085 6.52972 16.0192C6.61123 15.9534 6.67611 15.8597 6.71675 15.7492L11.0722 4.31283C11.11 4.19872 11.1739 4.10123 11.2558 4.03266C11.3377 3.96408 11.4339 3.92749 11.5324 3.92749C11.6308 3.92749 11.727 3.96408 11.8089 4.03266C11.8908 4.10123 11.9547 4.19872 11.9926 4.31283L19.8871 27.6604C19.9249 27.7745 19.9889 27.872 20.0707 27.9406C20.1526 28.0091 20.2489 28.0457 20.3473 28.0457C20.4457 28.0457 20.5419 28.0091 20.6238 27.9406C20.7057 27.872 20.7696 27.7745 20.8075 27.6604L25.0752 16.4511C25.1141 16.3399 25.1777 16.245 25.2583 16.1779C25.3389 16.1108 25.4332 16.0743 25.53 16.0726H28.2692" stroke="#307FE2" stroke-width="2.90909" stroke-linecap="round"/>
</svg>
