<svg width="37" height="37" viewBox="0 0 37 37" fill="none" xmlns="http://www.w3.org/2000/svg">
<path d="M4.5 10.3054H32.5V31.3054C32.5 32.41 31.6046 33.3054 30.5 33.3054H6.5C5.39543 33.3054 4.5 32.41 4.5 31.3054V10.3054Z" fill="#E6F1FF"/>
<path d="M7.02411 6.24882C7.38917 5.66212 8.03122 5.30542 8.72222 5.30542H28.2778C28.9688 5.30542 29.6108 5.66212 29.9759 6.24882L32.5 10.3054H4.5L7.02411 6.24882Z" fill="#B8D8FF"/>
<rect x="8.21045" y="29.3962" width="20.5789" height="0.909084" fill="#03449E"/>
<path d="M10.497 25.3054L8.21045 29.3963H28.7894L26.5028 25.3054H10.497Z" fill="#307FE2"/>
<rect x="8.21045" y="23.3962" width="20.5789" height="0.909084" fill="#03449E"/>
<path d="M10.497 19.3054L8.21045 23.3963H28.7894L26.5028 19.3054H10.497Z" fill="#307FE2"/>
<rect x="8.21045" y="17.3965" width="20.5789" height="0.909084" fill="#03449E"/>
<path d="M10.497 13.3054L8.21045 17.3963H28.7894L26.5028 13.3054H10.497Z" fill="#307FE2"/>
</svg>
