<?xml version="1.0" encoding="UTF-8"?><svg id="uuid-ae04cadf-4ba7-4c15-94f6-0434f4bfea0d" xmlns="http://www.w3.org/2000/svg" width="70.55" height="70.55" viewBox="0 0 70.55 70.55"><g id="uuid-1ed8358c-edf7-4add-9d7b-6d2f93fbbb65"><path d="m36.48,55.69c10.91,0,19.75-8.84,19.75-19.75s-8.16-19.05-18.47-19.71c-.71-.05-1.28.53-1.28,1.24v17.19c0,.71-.57,1.28-1.28,1.28h-17.19c-.71,0-1.28.57-1.24,1.28.66,10.31,9.23,18.47,19.71,18.47Z" style="fill:#d8e0eb;"/><path d="m30.59,31.29H13.49c-.71,0-1.28-.58-1.24-1.28.64-11.14,9.64-17.82,18.34-18.42.71-.05,1.28.53,1.28,1.24v17.19c0,.71-.57,1.28-1.28,1.28Z" style="fill:#d8e0eb;"/><path d="m51.08,47.99h1.66v-4.72c0-1.98-1.61-3.59-3.59-3.59h-4.11c-1.98,0-3.59,1.61-3.59,3.59v4.72h9.62Z" style="fill:none; stroke:#2356a6; stroke-width:3.33px;"/><rect x="35.89" y="44.51" width="22.42" height="14.1" rx="1.92" ry="1.92" style="fill:#2a7de1;"/><path d="m35.89,54.16v2.54c0,1.06.86,1.92,1.92,1.92h18.57c1.06,0,1.92-.86,1.92-1.92v-2.54c0,1.06-.86,1.92-1.92,1.92h-18.57c-1.06,0-1.92-.86-1.92-1.92Z" style="fill:#2356a6; fill-rule:evenodd;"/><path d="m15.22,26.46c-.71,0-1.28-.57-1.28-1.28v-7.62c0-.4.19-.78.51-1.02l5.08-3.81c.46-.34,1.08-.34,1.54,0l5.08,3.81c.32.24.51.62.51,1.02v7.62c0,.71-.57,1.28-1.28,1.28h-3.49v-4.28c0-.71-.57-1.28-1.28-1.28h-.62c-.71,0-1.28.57-1.28,1.28v4.28h-3.49Z" style="fill:#2a7de1;"/><path d="m18.71,21.54c0-.35.29-.64.64-.64h1.9c.35,0,.64.29.64.64v4.93h-3.18v-4.93Z" style="fill:#2356a6;"/><path d="m66.78,1c1.53,0,2.78,1.25,2.78,2.78v63c0,1.53-1.25,2.78-2.78,2.78H3.78c-1.53,0-2.78-1.25-2.78-2.78V3.78c0-1.53,1.25-2.78,2.78-2.78h63m0-1H3.78C1.69,0,0,1.69,0,3.78v63c0,2.09,1.69,3.78,3.78,3.78h63c2.09,0,3.78-1.69,3.78-3.78V3.78c0-2.09-1.69-3.78-3.78-3.78h0Z" style="fill:#d8e0eb;"/></g></svg>