<svg width="48" height="48" viewBox="0 0 48 48" fill="none" xmlns="http://www.w3.org/2000/svg">
<path d="M13 22.5H28" stroke="#102A43" stroke-width="2.5" stroke-linecap="round"/>
<path d="M13 32.5H20" stroke="#102A43" stroke-width="2.5" stroke-linecap="round"/>
<path fill-rule="evenodd" clip-rule="evenodd" d="M11.75 27.5C11.75 26.8096 12.3096 26.25 13 26.25H24C24.6904 26.25 25.25 26.8096 25.25 27.5C25.25 28.1904 24.6904 28.75 24 28.75H13C12.3096 28.75 11.75 28.1904 11.75 27.5Z" fill="#102A43"/>
<path d="M15.5 17.5V15H17.5V17.5C17.5 17.775 17.725 18 18 18H19.5C19.775 18 20 17.775 20 17.5V14H20.85C21.08 14 21.19 13.715 21.015 13.565L16.835 9.79999C16.645 9.62999 16.355 9.62999 16.165 9.79999L11.985 13.565C11.815 13.715 11.92 14 12.15 14H13V17.5C13 17.775 13.225 18 13.5 18H15C15.275 18 15.5 17.775 15.5 17.5Z" fill="#307FE2"/>
<path fill-rule="evenodd" clip-rule="evenodd" d="M9 10.2515C9 8.1804 10.6789 6.50146 12.75 6.50146H23.8333V12.1323C23.8333 13.9273 25.2884 15.3823 27.0833 15.3823H32.5V20.8899L35 18.3899V14.1323C35 13.8061 34.8725 13.4928 34.6446 13.2593L25.9779 4.37844C25.7427 4.13739 25.4201 4.00146 25.0833 4.00146H12.75C9.29822 4.00146 6.5 6.79969 6.5 10.2515V37.7485C6.5 41.2003 9.29822 43.9985 12.75 43.9985H28.75C32.2018 43.9985 35 41.2003 35 37.7485V32.6102L32.5 35.1102V37.7485C32.5 39.8196 30.8211 41.4985 28.75 41.4985H12.75C10.6789 41.4985 9 39.8196 9 37.7485V10.2515ZM32.5 32.2818L35 29.7818V21.2183L32.5 23.7183V32.2818ZM30.7836 12.8823L26.3333 8.32211V12.1323C26.3333 12.5466 26.6691 12.8823 27.0833 12.8823H30.7836Z" fill="#102A43"/>
<path d="M42.6132 17.8868C41.4309 16.7044 39.5139 16.7044 38.3315 17.8868L23.3455 32.8728L21.527 38.3282C21.3942 38.7267 21.7733 39.1058 22.1718 38.973L27.6272 37.1545L42.6132 22.1685C43.7956 20.9861 43.7956 19.0691 42.6132 17.8868Z" fill="#307FE2"/>
</svg>
