<svg width="12" height="12" viewBox="0 0 12 12" fill="none" xmlns="http://www.w3.org/2000/svg">
<path d="M10.0039 6.25V9C10.0039 9.55228 9.55619 10 9.00391 10H3.00391C2.45162 10 2.00391 9.55228 2.00391 9V6.11111V3.5C2.00391 2.94771 2.45162 2.5 3.00391 2.5H5.55946" stroke="#CCE3FF" stroke-linecap="round"/>
<path fill-rule="evenodd" clip-rule="evenodd" d="M7.61155 2.69301C7.61799 2.78887 7.65999 2.87713 7.72953 2.94091C7.77046 2.98439 7.82146 3.01738 7.87856 3.03731C7.93566 3.05725 7.99733 3.0636 8.05878 3.05586L8.82029 2.95827L5.57837 6.17447C5.38233 6.36895 5.38233 6.68427 5.57837 6.87875C5.77441 7.07323 6.09225 7.07323 6.28829 6.87875L9.54552 3.64736L9.43696 4.40386C9.42688 4.45711 9.4277 4.51127 9.43935 4.56305C9.451 4.61484 9.47324 4.66319 9.50474 4.70518C9.53624 4.74717 9.57634 4.78193 9.62262 4.80737C9.6689 4.83281 9.7204 4.84839 9.77402 4.85318C9.82763 4.85797 9.88225 4.85187 9.93457 4.83525C9.9869 4.81862 10.0358 4.79182 10.0785 4.75645C10.1211 4.72108 10.1565 4.67789 10.1825 4.62947C10.2086 4.58105 10.2247 4.52841 10.23 4.47473L10.481 2.64917C10.4946 2.56392 10.4884 2.47775 10.4631 2.39725C10.4378 2.31675 10.3939 2.24405 10.3348 2.18471C10.2752 2.12653 10.2027 2.08272 10.1225 2.05635C10.0423 2.02999 9.95635 2.02171 9.87061 2.03211L7.98724 2.27285C7.88456 2.28404 7.78811 2.33402 7.71809 2.41233C7.64806 2.49065 7.60988 2.59122 7.61155 2.69301Z" fill="#307FE2"/>
</svg>
