<svg width="48" height="48" viewBox="0 0 48 48" fill="none" xmlns="http://www.w3.org/2000/svg">
<g clip-path="url(#clip0_1826_15179)">
<rect x="6.24609" y="6.25" width="35.5" height="29.5" rx="5" stroke="#102A43" stroke-width="2.5" stroke-linejoin="round"/>
<path fill-rule="evenodd" clip-rule="evenodd" d="M27.0382 20.0463C26.7188 20.1376 26.4009 19.8978 26.4009 19.5656V12.3862C26.4009 11.8973 25.7716 11.699 25.4913 12.0995L18.8092 21.6453C18.5391 22.0311 18.9034 22.5422 19.3562 22.4128L20.9635 21.9535C21.2829 21.8623 21.6009 22.1021 21.6009 22.4343V29.6137C21.6009 30.1026 22.2302 30.3009 22.5105 29.9004L29.1926 20.3546C29.4626 19.9688 29.0984 19.4577 28.6456 19.5871L27.0382 20.0463Z" fill="#307FE2"/>
<rect x="10.7598" y="35.75" width="6.5" height="4.5" stroke="#102A43" stroke-width="2.5" stroke-linejoin="round"/>
<path d="M14 41V43" stroke="#102A43" stroke-width="2.5" stroke-linecap="round"/>
<path d="M23.9961 41V43" stroke="#102A43" stroke-width="2.5" stroke-linecap="round"/>
<path d="M33.9902 41V43" stroke="#102A43" stroke-width="2.5" stroke-linecap="round"/>
<rect x="20.75" y="35.75" width="6.5" height="4.5" stroke="#102A43" stroke-width="2.5" stroke-linejoin="round"/>
<rect x="30.7402" y="35.75" width="6.5" height="4.5" stroke="#102A43" stroke-width="2.5" stroke-linejoin="round"/>
</g>
<defs>
<clipPath id="clip0_1826_15179">
<rect width="48" height="48" fill="white"/>
</clipPath>
</defs>
</svg>
