<svg width="15" height="12" viewBox="0 0 15 12" fill="none" xmlns="http://www.w3.org/2000/svg">
<path d="M14.0061 1.4321C13.4926 1.65952 12.9409 1.81318 12.361 1.88263C12.9594 1.52478 13.4071 0.961569 13.6205 0.298082C13.0583 0.631827 12.443 0.866747 11.8014 0.992629C11.3699 0.532179 10.7983 0.226984 10.1755 0.12443C9.55267 0.0218753 8.91338 0.127698 8.3569 0.425469C7.80041 0.72324 7.35786 1.1963 7.09795 1.7712C6.83804 2.3461 6.77531 2.99068 6.9195 3.60486C5.78034 3.5477 4.66593 3.25178 3.6486 2.73631C2.63127 2.22085 1.73375 1.49735 1.0143 0.61278C0.768304 1.03688 0.626854 1.5286 0.626854 2.05227C0.62658 2.5237 0.74274 2.98791 0.965028 3.40371C1.18732 3.81951 1.50886 4.17405 1.90113 4.43586C1.4462 4.42139 1.00131 4.29854 0.603485 4.07752V4.1144C0.603439 4.7756 0.832283 5.41645 1.25119 5.92821C1.67009 6.43997 2.25326 6.79113 2.90173 6.92209C2.47971 7.03624 2.03725 7.05305 1.60777 6.97126C1.79073 7.54018 2.14712 8.03769 2.62705 8.39412C3.10698 8.75055 3.68641 8.94807 4.28424 8.95902C3.26939 9.75524 2.01606 10.1871 0.725869 10.1852C0.497324 10.1853 0.268973 10.172 0.0419922 10.1453C1.35161 10.9868 2.87611 11.4335 4.43307 11.4317C9.7036 11.4317 12.5849 7.06899 12.5849 3.28525C12.5849 3.16232 12.5818 3.03816 12.5762 2.91523C13.1367 2.51017 13.6205 2.00857 14.0049 1.43394L14.0061 1.4321Z" fill="#ECF1F9"/>
</svg>
