<svg width="32" height="33" viewBox="0 0 32 33" fill="none" xmlns="http://www.w3.org/2000/svg">
<g clip-path="url(#clip0_823_272)">
<path fill-rule="evenodd" clip-rule="evenodd" d="M14.7071 4H17.2929L19.2929 6L16 9.29289L12.7071 6L14.7071 4ZM18.7071 4L20 5.29289L21.2929 4H18.7071ZM16.7071 10L20 6.70711L22.7929 9.5L19.5 12.7929L16.7071 10ZM20.7071 6L23.5 8.79289L27.6464 4.64645L28 5V4H22.7071L20.7071 6ZM20.2071 13.5L23.5 10.2071L26.7929 13.5L23.5 16.7929L20.2071 13.5ZM24.2071 9.5L27.5 12.7929L28 12.2929V5.70711L24.2071 9.5ZM28 14.7071L27.5 14.2071L24.2071 17.5L27.5 20.7929L28 20.2929V14.7071ZM15.2929 10L12 6.70711L9.20711 9.5L12.5 12.7929L15.2929 10ZM4.5 12.7929L7.79289 9.5L4 5.70711V12.2929L4.5 12.7929ZM4.5 14.2071L4 14.7071V20.2929L4.5 20.7929L7.79289 17.5L4.5 14.2071ZM4.5 22.2071L4 22.7071V28H4.29289L7.29289 25L4.5 22.2071ZM8 24.2929L5.20711 21.5L8.5 18.2071L11.2929 21L8 24.2929ZM8 25.7071L5.70711 28H10.2929L8 25.7071ZM11.7071 28L8.70711 25L12 21.7071L15.2929 25L12.2929 28H11.7071ZM8.5 16.7929L5.20711 13.5L8.5 10.2071L11.7929 13.5L8.5 16.7929ZM12 20.2929L9.20711 17.5L12.5 14.2071L15.2929 17L12 20.2929ZM16 24.2929L12.7071 21L16 17.7071L19.2929 21L16 24.2929ZM16 25.7071L13.7071 28H18.2929L16 25.7071ZM19.7071 28L16.7071 25L20 21.7071L23.2929 25L20.2929 28H19.7071ZM4.35355 4.64645L8.5 8.79289L11.2929 6L9.29289 4H4V5L4.35355 4.64645ZM16.7071 17L20 20.2929L22.7929 17.5L19.5 14.2071L16.7071 17ZM20.7071 21L24 24.2929L26.7929 21.5L23.5 18.2071L20.7071 21ZM21.7071 28L24 25.7071L26.2929 28H21.7071ZM24.7071 25L27.7071 28H28V22.7071L27.5 22.2071L24.7071 25ZM13.2071 13.5L16 16.2929L18.7929 13.5L16 10.7071L13.2071 13.5ZM10.7071 4L12 5.29289L13.2929 4H10.7071Z" fill="#307FE2"/>
</g>
<defs>
<clipPath id="clip0_823_272">
<rect x="4" y="4" width="24" height="24" rx="4" fill="white"/>
</clipPath>
</defs>
</svg>
