<svg width="48" height="48" viewBox="0 0 48 48" fill="none" xmlns="http://www.w3.org/2000/svg">
<path d="M6.25 39.5C6.25 38.1193 7.36929 37 8.75 37H32.25V42H8.75C7.36929 42 6.25 40.8807 6.25 39.5V39.5Z" stroke="#102A43" stroke-width="2.5"/>
<path fill-rule="evenodd" clip-rule="evenodd" d="M7.5 6C7.5 5.58579 7.83579 5.25 8.25 5.25H11.5V36.5H14V5.25H31V13.0804C31.8834 13.2018 32.7238 13.4579 33.5 13.8273V4V2.75H32.25H12.75H8.25C6.45508 2.75 5 4.20507 5 6V40C5 41.7949 6.45507 43.25 8.25 43.25H32.25H33.5V42V29.3156C32.7238 29.6849 31.8834 29.941 31 30.0625V40.75H8.25C7.83579 40.75 7.5 40.4142 7.5 40V6Z" fill="#102A43"/>
<path d="M41.9375 35.4553C42.4257 35.9435 43.2172 35.9435 43.7053 35.4553C44.1935 34.9672 44.1935 34.1757 43.7053 33.6875L41.9375 35.4553ZM33.3661 26.8839L41.9375 35.4553L43.7053 33.6875L35.1339 25.1161L33.3661 26.8839Z" fill="#307FE2"/>
<path d="M37.1429 21.5714C37.1429 25.6149 33.8649 28.8929 29.8214 28.8929C25.7779 28.8929 22.5 25.6149 22.5 21.5714C22.5 17.5279 25.7779 14.25 29.8214 14.25C33.8649 14.25 37.1429 17.5279 37.1429 21.5714Z" stroke="#307FE2" stroke-width="2.5"/>
</svg>
