<svg width="22" height="23" viewBox="0 0 22 23" fill="none" xmlns="http://www.w3.org/2000/svg">
<path d="M16.7017 3.27295H5.2983C4.58127 3.27295 4 3.84058 4 4.54078V18.0051C4 18.7053 4.58127 19.2729 5.2983 19.2729H16.7017C17.4187 19.2729 18 18.7053 18 18.0051V4.54078C18 3.84058 17.4187 3.27295 16.7017 3.27295Z" fill="#307FE2"/>
<path fill-rule="evenodd" clip-rule="evenodd" d="M12 7.27295C12 6.72066 11.5523 6.27295 11 6.27295C10.4477 6.27295 10 6.72066 10 7.27295V12.2729C10 12.8252 9.55228 13.2729 9 13.2729H8C7.44772 13.2729 7 13.7207 7 14.2729C7 14.8252 7.44772 15.2729 8 15.2729H14C14.5523 15.2729 15 14.8252 15 14.2729C15 13.7207 14.5523 13.2729 14 13.2729H13C12.4477 13.2729 12 12.8252 12 12.2729V7.27295Z" fill="white"/>
</svg>
