<svg width="25" height="10" viewBox="0 0 25 10" fill="none" xmlns="http://www.w3.org/2000/svg">
<rect x="0.5" width="24" height="10" rx="5" fill="#C6F7E9"/>
<path d="M5.5789 4.59169V7.27404H4.5V2.69616H5.53122V3.47404H5.58486C5.69017 3.21773 5.85807 3.01407 6.08855 2.86306C6.32102 2.71205 6.60813 2.63655 6.94988 2.63655C7.26581 2.63655 7.541 2.70411 7.77545 2.83922C8.0119 2.97433 8.19469 3.17004 8.32385 3.42636C8.45498 3.68267 8.51956 3.99362 8.51757 4.35922V7.27404H7.43867V4.52612C7.43867 4.22013 7.35919 3.98071 7.20024 3.80785C7.04327 3.63498 6.8257 3.54855 6.54753 3.54855C6.35877 3.54855 6.19088 3.59028 6.04384 3.67373C5.8988 3.75519 5.78455 3.87341 5.7011 4.0284C5.61963 4.18338 5.5789 4.37114 5.5789 4.59169Z" fill="#016457"/>
<path d="M11.4732 7.36346C11.0142 7.36346 10.6178 7.26808 10.284 7.07734C9.95217 6.88461 9.69685 6.6124 9.51803 6.26071C9.33921 5.90704 9.24979 5.49077 9.24979 5.01192C9.24979 4.54102 9.33921 4.12774 9.51803 3.77208C9.69884 3.41443 9.95118 3.13626 10.275 2.93757C10.5989 2.73689 10.9794 2.63655 11.4165 2.63655C11.6987 2.63655 11.9649 2.68225 12.2153 2.77365C12.4676 2.86306 12.6902 3.00215 12.8829 3.1909C13.0776 3.37966 13.2306 3.62008 13.3419 3.91216C13.4531 4.20225 13.5088 4.54798 13.5088 4.94934V5.28016H9.75646V4.55294H12.4746C12.4726 4.3463 12.4279 4.16251 12.3405 4.00157C12.253 3.83864 12.1308 3.71049 11.9739 3.6171C11.8189 3.52372 11.6381 3.47702 11.4314 3.47702C11.2109 3.47702 11.0172 3.53067 10.8503 3.63796C10.6834 3.74327 10.5532 3.88236 10.4598 4.05522C10.3684 4.22609 10.3217 4.41386 10.3198 4.61851V5.25334C10.3198 5.51959 10.3684 5.74808 10.4658 5.93883C10.5632 6.12759 10.6993 6.27263 10.8741 6.37397C11.049 6.47331 11.2536 6.52298 11.4881 6.52298C11.645 6.52298 11.7871 6.50113 11.9143 6.45742C12.0414 6.41172 12.1517 6.34515 12.2451 6.25773C12.3385 6.1703 12.409 6.06202 12.4567 5.93287L13.4641 6.04612C13.4005 6.31237 13.2793 6.54484 13.1005 6.74353C12.9236 6.94024 12.6971 7.09323 12.4209 7.20251C12.1447 7.30981 11.8288 7.36346 11.4732 7.36346Z" fill="#016457"/>
<path d="M15.1739 7.27404L13.8804 2.69616H14.9801L15.7848 5.91498H15.8266L16.6492 2.69616H17.737L18.5596 5.8971H18.6043L19.3971 2.69616H20.4998L19.2034 7.27404H18.0797L17.2214 4.1804H17.1588L16.3005 7.27404H15.1739Z" fill="#016457"/>
</svg>
