<svg width="32" height="32" viewBox="0 0 32 32" fill="none" xmlns="http://www.w3.org/2000/svg">
<path fill-rule="evenodd" clip-rule="evenodd" d="M11.0162 10.2984L14.2404 13.2949C14.3264 13.3764 14.434 13.4304 14.5497 13.4503C14.6655 13.4701 14.7844 13.455 14.8919 13.4067C14.9993 13.3584 15.0905 13.279 15.1543 13.1784C15.2181 13.0778 15.2517 12.9604 15.2509 12.8405V6.89041C15.2507 6.80473 15.2329 6.72003 15.1988 6.64177C15.1646 6.56351 15.1147 6.49343 15.0524 6.43602L11.8283 3.43946C11.742 3.35996 11.635 3.30769 11.5202 3.28895C11.4055 3.27022 11.2878 3.28583 11.1816 3.3339C11.0753 3.38196 10.985 3.46043 10.9215 3.5598C10.858 3.65918 10.824 3.7752 10.8237 3.89385V9.84399C10.8232 9.92922 10.84 10.0136 10.8731 10.0919C10.9063 10.1701 10.955 10.2404 11.0162 10.2984ZM17.212 13.2949L20.4361 10.2984C20.4973 10.2404 20.5461 10.1701 20.5792 10.0919C20.6123 10.0136 20.6292 9.92922 20.6286 9.84399V3.89385C20.6283 3.7752 20.5944 3.65918 20.5309 3.5598C20.4674 3.46043 20.377 3.38196 20.2708 3.3339C20.1645 3.28583 20.0469 3.27022 19.9321 3.28895C19.8173 3.30769 19.7103 3.35996 19.6241 3.43946L16.3999 6.43602C16.3376 6.49343 16.2878 6.56351 16.2536 6.64177C16.2194 6.72003 16.2016 6.80473 16.2014 6.89041V12.8405C16.2006 12.9604 16.2342 13.0778 16.298 13.1784C16.3618 13.279 16.453 13.3584 16.5605 13.4067C16.6679 13.455 16.7868 13.4701 16.9026 13.4503C17.0184 13.4304 17.1259 13.3764 17.212 13.2949ZM28.2615 11.9625L25.1938 14.9345C25.0822 15.0442 24.9336 15.1058 24.7787 15.1065H18.5049C18.3839 15.1073 18.2655 15.0708 18.1651 15.0019C18.0647 14.9329 17.987 14.8346 17.9422 14.7199C17.8974 14.6052 17.8875 14.4793 17.9138 14.3588C17.9402 14.2382 18.0015 14.1286 18.0898 14.0442L21.1576 11.0722C21.2691 10.9624 21.4177 10.9009 21.5726 10.9002H27.8464C27.9674 10.8994 28.0859 10.9359 28.1862 11.0048C28.2866 11.0738 28.3643 11.172 28.4091 11.2868C28.4539 11.4015 28.4638 11.5274 28.4375 11.6479C28.4112 11.7685 28.3498 11.8781 28.2615 11.9625ZM20.4361 20.8846L17.212 17.888C17.1259 17.8066 17.0184 17.7526 16.9026 17.7327C16.7868 17.7128 16.6679 17.728 16.5605 17.7763C16.453 17.8246 16.3618 17.904 16.298 18.0046C16.2342 18.1052 16.2006 18.2226 16.2014 18.3424V24.2926C16.2016 24.3783 16.2194 24.463 16.2536 24.5412C16.2878 24.6195 16.3376 24.6896 16.3999 24.747L19.6241 27.7435C19.7103 27.823 19.8173 27.8753 19.9321 27.894C20.0469 27.9128 20.1645 27.8972 20.2708 27.8491C20.377 27.801 20.4674 27.7226 20.5309 27.6232C20.5944 27.5238 20.6283 27.4078 20.6286 27.2891V21.339C20.6292 21.2538 20.6123 21.1694 20.5792 21.0911C20.5461 21.0129 20.4973 20.9426 20.4361 20.8846ZM28.2615 19.2206L25.1938 16.2486C25.0822 16.1389 24.9336 16.0773 24.7787 16.0767H18.5049C18.3839 16.0759 18.2655 16.1123 18.1651 16.1813C18.0647 16.2502 17.987 16.3485 17.9422 16.4632C17.8974 16.578 17.8875 16.7038 17.9138 16.8244C17.9402 16.9449 18.0015 17.0546 18.0898 17.139L21.1576 20.111C21.2691 20.2207 21.4177 20.2823 21.5726 20.2829H27.8464C27.9674 20.2837 28.0859 20.2473 28.1862 20.1783C28.2866 20.1093 28.3643 20.0111 28.4091 19.8964C28.4539 19.7816 28.4638 19.6558 28.4375 19.5352C28.4112 19.4147 28.3498 19.305 28.2615 19.2206ZM3.19043 11.9625L6.25816 14.9345C6.317 14.9926 6.38682 15.0378 6.46336 15.0673C6.53989 15.0969 6.62153 15.1102 6.70328 15.1065H12.947C13.068 15.1073 13.1864 15.0708 13.2868 15.0019C13.3872 14.9329 13.4649 14.8346 13.5097 14.7199C13.5545 14.6052 13.5644 14.4793 13.5381 14.3588C13.5117 14.2382 13.4504 14.1286 13.3621 14.0442L10.2943 11.0722C10.1828 10.9624 10.0342 10.9009 9.87929 10.9002H3.60547C3.48448 10.8994 3.36606 10.9359 3.26568 11.0048C3.1653 11.0738 3.08762 11.172 3.0428 11.2868C2.99798 11.4015 2.98809 11.5274 3.01442 11.6479C3.04076 11.7685 3.1021 11.8781 3.19043 11.9625ZM11.0162 20.8846L14.2404 17.888C14.3264 17.8066 14.434 17.7526 14.5497 17.7327C14.6655 17.7128 14.7844 17.728 14.8919 17.7763C14.9993 17.8246 15.0905 17.904 15.1543 18.0046C15.2181 18.1052 15.2517 18.2226 15.2509 18.3424V24.2926C15.2507 24.3783 15.2329 24.463 15.1988 24.5412C15.1646 24.6195 15.1147 24.6896 15.0524 24.747L11.8283 27.7435C11.742 27.823 11.635 27.8753 11.5202 27.894C11.4055 27.9128 11.2878 27.8972 11.1816 27.8491C11.0753 27.801 10.985 27.7226 10.9215 27.6232C10.858 27.5238 10.824 27.4078 10.8237 27.2891V21.339C10.8232 21.2538 10.84 21.1694 10.8731 21.0911C10.9063 21.0129 10.955 20.9426 11.0162 20.8846ZM3.19043 19.2205L6.25816 16.2485C6.317 16.1905 6.38682 16.1453 6.46336 16.1157C6.53989 16.0861 6.62153 16.0728 6.70328 16.0766H12.947C13.068 16.0758 13.1864 16.1122 13.2868 16.1812C13.3872 16.2501 13.4649 16.3484 13.5097 16.4631C13.5545 16.5779 13.5644 16.7037 13.5381 16.8243C13.5117 16.9448 13.4504 17.0545 13.3621 17.1389L10.2943 20.1109C10.1828 20.2206 10.0342 20.2822 9.87929 20.2828H3.60547C3.48448 20.2836 3.36606 20.2472 3.26568 20.1782C3.1653 20.1093 3.08762 20.011 3.0428 19.8963C2.99798 19.7815 2.98809 19.6557 3.01442 19.5351C3.04076 19.4146 3.1021 19.3049 3.19043 19.2205Z" fill="#2A7DE1"/>
</svg>
