<svg width="57" height="48" viewBox="0 0 57 48" fill="none" xmlns="http://www.w3.org/2000/svg">
<path fill-rule="evenodd" clip-rule="evenodd" d="M25.1624 27.6784H23.9176L20.5565 15.9702C20.1699 14.614 18.9775 13.6836 17.5623 13.6836H13.6312C11.9212 13.6836 10.637 15.0726 10.5322 16.7433L10.0015 25.3L4.70105 26.0535C4.29483 26.1059 4 26.4597 4 26.8659V31.7208C4 31.937 4.13759 32.1205 4.3407 32.1926C4.55035 32.2581 4.76656 32.1795 4.89105 31.996C5.88038 30.5481 7.52489 29.5391 9.57561 29.5391C12.845 29.5391 15.3805 32.2581 15.2823 35.475C15.2692 35.9271 16.0095 35.9271 15.9964 35.475C15.9178 32.4677 18.224 29.5391 21.7162 29.5391C23.02 29.5391 24.219 29.978 25.1821 30.7184C25.3328 30.8363 25.5228 30.856 25.6997 30.7708C25.87 30.6856 25.9683 30.5218 25.9683 30.3318V28.5104C25.9683 28.0584 25.6014 27.6915 25.1559 27.6915L25.1624 27.6784ZM16.5533 27.6784L14.6729 26.879L14.3191 22.509C14.2864 22.0569 13.8933 21.7227 13.4412 21.762C12.9891 21.8014 12.655 22.1879 12.6943 22.6465L12.9826 26.1714L11.6329 25.6014L12.1767 16.8416C12.2226 16.0423 12.8122 15.3216 13.6443 15.3216H17.5754C18.2633 15.3216 18.8137 15.7671 18.9971 16.4223L22.2338 27.6849H16.5599L16.5533 27.6784ZM21.7227 31.1639C18.1061 31.1639 16.2585 35.5733 18.8399 38.1547C21.4082 40.7165 25.8045 38.882 25.8045 35.2588C25.8045 33.005 23.97 31.1639 21.7227 31.1639V31.1639ZM20.5827 36.4054C19.5672 35.3899 20.2879 33.6471 21.7162 33.6471C22.6072 33.6471 23.3279 34.3743 23.3279 35.2588C23.3279 36.6937 21.5917 37.4144 20.5827 36.4054ZM9.58216 31.1639C5.96555 31.1639 4.12448 35.5733 6.70591 38.1547C9.26767 40.7165 13.664 38.882 13.664 35.2588C13.664 33.005 11.8294 31.1639 9.58216 31.1639ZM8.44214 36.4054C7.42661 35.3899 8.15386 33.6471 9.58216 33.6471C10.4667 33.6471 11.1939 34.3743 11.1939 35.2588C11.1939 36.6937 9.45768 37.4144 8.44214 36.4054V36.4054ZM29.3097 34.0533V14.0112C29.3097 12.9302 27.6783 12.9302 27.6783 14.0112V34.8723C27.6783 35.3243 28.0452 35.6912 28.4908 35.6912H32.1991V34.0533H29.3032H29.3097Z" fill="#102A43"/>
<path d="M50.3734 22.0307C50.7337 22.0307 51.0286 22.3255 51.0286 22.6859V35.5668C51.0286 35.9271 50.7337 36.2219 50.3734 36.2219H36.359C35.9987 36.2219 35.7038 35.9271 35.7038 35.5668V22.6859C35.7038 22.3255 35.9987 22.0307 36.359 22.0307H50.3734ZM50.3734 20.0651H36.359C34.9111 20.0651 33.7383 21.2379 33.7383 22.6859V35.5668C33.7383 37.0147 34.9111 38.1875 36.359 38.1875H50.3734C51.8213 38.1875 52.9941 37.0147 52.9941 35.5668V22.6859C52.9941 21.2379 51.8213 20.0651 50.3734 20.0651Z" fill="#102A43"/>
<path d="M38.5209 27.331H48.2045C48.5452 27.331 48.8269 27.0493 48.8269 26.7086L48.2962 24.8348C48.2569 24.6972 48.1324 24.6055 47.9948 24.6055H38.7043C38.5602 24.6055 38.4357 24.7037 38.3964 24.8413L37.8984 26.7086C37.8984 27.0493 38.1802 27.331 38.5209 27.331V27.331Z" fill="#2A7DE1"/>
<path d="M47.9948 27.9473H38.7043C38.5602 27.9473 38.4357 28.0455 38.3964 28.1831L37.8984 30.0504C37.8984 30.3911 38.1802 30.6728 38.5209 30.6728H48.2045C48.5452 30.6728 48.8269 30.3911 48.8269 30.0504L48.2962 28.1766C48.2569 28.039 48.1324 27.9473 47.9948 27.9473V27.9473Z" fill="#2A7DE1"/>
<path d="M47.9948 31.2753H38.7043C38.5602 31.2753 38.4357 31.3735 38.3964 31.5111L37.8984 33.3784C37.8984 33.7191 38.1802 34.0008 38.5209 34.0008H48.2045C48.5452 34.0008 48.8269 33.7191 48.8269 33.3784L48.2962 31.5046C48.2569 31.367 48.1324 31.2753 47.9948 31.2753V31.2753Z" fill="#2A7DE1"/>
</svg>
