<svg width="48" height="48" viewBox="0 0 48 48" fill="none" xmlns="http://www.w3.org/2000/svg">
<path d="M23 5L27.2658 18.1287H41.0701L29.9022 26.2426L34.1679 39.3713L23 31.2574L11.8321 39.3713L16.0978 26.2426L4.92993 18.1287H18.7342L23 5Z" stroke="#102A43" stroke-width="2.5"/>
<path d="M11 4L12.1226 7.45492H15.7553L12.8164 9.59017L13.9389 13.0451L11 10.9098L8.06107 13.0451L9.18364 9.59017L6.24472 7.45492H9.87743L11 4Z" fill="#307FE2"/>
<path d="M34 4L35.1226 7.45492H38.7553L35.8164 9.59017L36.9389 13.0451L34 10.9098L31.0611 13.0451L32.1836 9.59017L29.2447 7.45492H32.8774L34 4Z" fill="#307FE2"/>
<path d="M6 24L7.12257 27.4549H10.7553L7.81636 29.5902L8.93893 33.0451L6 30.9098L3.06107 33.0451L4.18364 29.5902L1.24472 27.4549H4.87743L6 24Z" fill="#307FE2"/>
<path d="M40 24L41.1226 27.4549H44.7553L41.8164 29.5902L42.9389 33.0451L40 30.9098L37.0611 33.0451L38.1836 29.5902L35.2447 27.4549H38.8774L40 24Z" fill="#307FE2"/>
<path d="M23 37L24.1226 40.4549H27.7553L24.8164 42.5902L25.9389 46.0451L23 43.9098L20.0611 46.0451L21.1836 42.5902L18.2447 40.4549H21.8774L23 37Z" fill="#307FE2"/>
</svg>
