<svg width="22" height="23" viewBox="0 0 22 23" fill="none" xmlns="http://www.w3.org/2000/svg">
  <path
    d="M11 22.5C16.799 22.5 21.5 17.5751 21.5 11.5C21.5 5.42487 16.799 0.5 11 0.5C5.20101 0.5 0.5 5.42487 0.5 11.5C0.5 17.5751 5.20101 22.5 11 22.5Z"
    fill="hsla(360, 54%, 55%, 1)" />
  <path
    d="M11 19.6518C15.2975 19.6518 18.7813 16.0021 18.7813 11.5C18.7813 6.99784 15.2975 3.34814 11 3.34814C6.70255 3.34814 3.21875 6.99784 3.21875 11.5C3.21875 16.0021 6.70255 19.6518 11 19.6518Z"
    fill="hsla(360, 54%, 55%, 1)" />
  <path
    d="M10.9999 2.60718C8.74856 2.60718 6.58944 3.5441 4.9975 5.21184C3.40557 6.87958 2.51123 9.14153 2.51123 11.5001C2.51123 13.8586 3.40557 16.1205 4.9975 17.7883C6.58944 19.456 8.74856 20.393 10.9999 20.393C13.2512 20.393 15.4104 19.456 17.0023 17.7883C18.5942 16.1205 19.4886 13.8586 19.4886 11.5001C19.4886 9.14153 18.5942 6.87958 17.0023 5.21184C15.4104 3.5441 13.2512 2.60718 10.9999 2.60718V2.60718ZM10.9999 19.6519C8.93617 19.6519 6.95697 18.793 5.4977 17.2643C4.03843 15.7355 3.21862 13.6621 3.21862 11.5001C3.21862 9.33807 4.03843 7.26462 5.4977 5.73586C6.95697 4.2071 8.93617 3.34825 10.9999 3.34825C13.0636 3.34825 15.0428 4.2071 16.5021 5.73586C17.9614 7.26462 18.7812 9.33807 18.7812 11.5001C18.7812 13.6621 17.9614 15.7355 16.5021 17.2643C15.0428 18.793 13.0636 19.6519 10.9999 19.6519V19.6519Z"
    fill="white" />
  <path
    d="M13.7963 12.4239C13.6384 12.1401 13.4236 11.8957 13.1667 11.7075C12.921 11.5244 12.654 11.375 12.3721 11.2629C12.1255 11.1673 11.8745 11.0848 11.6199 11.0158L11.2851 10.9195V7.78475C11.6462 7.81237 11.9953 7.93285 12.3013 8.13552C12.4733 8.24768 12.6183 8.39984 12.725 8.5802C12.8318 8.76056 12.8974 8.96426 12.9168 9.1755H13.926C13.9162 8.73505 13.7762 8.30865 13.5251 7.9552C13.2571 7.58443 12.9022 7.29255 12.4947 7.1079C12.1125 6.93099 11.7024 6.82965 11.2851 6.809V5.79126H10.5942V6.81888C10.2246 6.85466 9.86308 6.95311 9.52367 7.11037C9.10166 7.30069 8.73548 7.60503 8.46258 7.99225C8.19792 8.37822 8.05976 8.84363 8.0688 9.31877C8.05781 9.59593 8.10488 9.87225 8.20672 10.1283C8.30856 10.3844 8.4627 10.6139 8.6583 10.8009C9.11932 11.2172 9.66675 11.5149 10.257 11.6704L10.5942 11.7717V15.1066C10.383 15.0845 10.175 15.0373 9.97404 14.9658C9.69295 14.8702 9.44029 14.7 9.24071 14.4717C9.04323 14.2369 8.92695 13.9393 8.9106 13.6269H7.83301C7.85744 14.0954 8.00875 14.547 8.26923 14.9287C8.54059 15.3151 8.90746 15.6166 9.33031 15.8007C9.7313 15.9782 10.1593 16.0795 10.5942 16.0996V17.0877H11.2851V16.0996C11.746 16.0797 12.1991 15.9673 12.6197 15.7686C13.0504 15.5662 13.4181 15.2409 13.6808 14.8299C13.9233 14.4355 14.0496 13.975 14.0439 13.5058C14.0576 13.1282 13.972 12.7539 13.7963 12.4239V12.4239ZM10.2193 10.586C10.028 10.5145 9.84464 10.4217 9.67222 10.3093C9.50285 10.1999 9.35742 10.0543 9.24543 9.88199C9.13081 9.69792 9.07241 9.48165 9.07801 9.26196C9.07408 8.98496 9.15691 8.71424 9.31381 8.49124C9.48492 8.25324 9.71485 8.06874 9.97875 7.95767C10.1744 7.87136 10.3809 7.8148 10.5918 7.78969V10.7169C10.4763 10.6799 10.3513 10.6404 10.2193 10.5885V10.586ZM12.7564 14.3383C12.5575 14.5946 12.2983 14.7921 12.0042 14.9114C11.7744 15.0089 11.532 15.0705 11.2851 15.0942V11.9693H11.3181C11.6055 12.0531 11.8875 12.1563 12.1622 12.2781C12.4024 12.3811 12.618 12.538 12.7942 12.7376C12.9602 12.944 13.0445 13.2092 13.03 13.4787C13.0371 13.7906 12.9404 14.0954 12.7564 14.3408V14.3383Z"
    fill="white" />
</svg>