<svg width="88" height="81" viewBox="0 0 88 81" fill="none" xmlns="http://www.w3.org/2000/svg">
<g class="testimonials__chat-bubble">
  <path fill-rule="evenodd" clip-rule="evenodd" d="M33.0207 0.523521C30.1603 0.523521 27.8414 2.84236 27.8414 5.7028L27.8414 16.0614C27.8414 18.9218 30.1603 21.2407 33.0207 21.2407L53.7379 21.2407C56.5983 21.2407 58.9171 18.9218 58.9171 16.0614V5.70281C58.9171 2.84237 56.5983 0.523521 53.7379 0.523521L33.0207 0.523521ZM48.5587 21.2408H39.9265L42.9163 24.8286C43.6065 25.6568 44.8786 25.6568 45.5689 24.8286L48.5587 21.2408Z" fill="#307FE2"/>
  <path d="M34.7472 7.42889L52.0115 7.42889" stroke="#F0F7FF" stroke-width="3" stroke-linecap="round"/>
  <path d="M34.7472 14.3349L45.1058 14.3349" stroke="#F0F7FF" stroke-width="3" stroke-linecap="round"/>
  <path d="M50.2849 14.3349H52.0114" stroke="#F0F7FF" stroke-width="3" stroke-linecap="round"/>
</g>
<circle cx="28" cy="44" r="6" fill="#CCE3FF"/>
<path d="M18 64C18 58.4772 22.4772 54 28 54C33.5228 54 38 58.4772 38 64V70.6667C38 72.5076 36.5076 74 34.6667 74H21.3333C19.4924 74 18 72.5076 18 70.6667V64Z" fill="#CCE3FF"/>
<circle cx="60" cy="44" r="6" fill="#CCE3FF"/>
<path d="M50 64C50 58.4772 54.4772 54 60 54C65.5228 54 70 58.4772 70 64V70.6667C70 72.5076 68.5076 74 66.6667 74H53.3333C51.4924 74 50 72.5076 50 70.6667V64Z" fill="#CCE3FF"/>
<circle cx="44" cy="38" r="8" fill="#307FE2"/>
<path d="M32 62C32 55.3726 37.3726 50 44 50C50.6274 50 56 55.3726 56 62V70C56 72.2091 54.2091 74 52 74H36C33.7909 74 32 72.2091 32 70V62Z" fill="#307FE2"/>
</svg>
