<svg width="48" height="48" viewBox="0 0 48 48" fill="none" xmlns="http://www.w3.org/2000/svg">
<g clip-path="url(#clip0_173_1067)">
<rect x="6" y="6" width="36" height="28" rx="5" stroke="#102A43" stroke-width="2.5" stroke-linejoin="round"/>
<path fill-rule="evenodd" clip-rule="evenodd" d="M26.926 18.5988C26.6071 18.6883 26.2909 18.4486 26.2909 18.1174V11.501C26.2909 11.0143 25.6662 10.8144 25.3838 11.2107L19.0949 20.0331C18.821 20.4173 19.1828 20.9322 19.6371 20.8048L21.0733 20.4018C21.3922 20.3123 21.7084 20.552 21.7084 20.8832V27.4997C21.7084 27.9863 22.333 28.1862 22.6155 27.7899L28.9044 18.9675C29.1783 18.5833 28.8165 18.0684 28.3622 18.1959L26.926 18.5988Z" fill="#307FE2"/>
<path d="M14 42V43" stroke="#102A43" stroke-width="2.5" stroke-linecap="round"/>
<path d="M24 42L23.9971 43" stroke="#102A43" stroke-width="2.5" stroke-linecap="round"/>
<path d="M34 42L33.991 43" stroke="#102A43" stroke-width="2.5" stroke-linecap="round"/>
<path d="M11 37V39.4C11 39.9601 11 40.2401 11.109 40.454C11.2049 40.6422 11.3578 40.7951 11.546 40.891C11.7599 41 12.0399 41 12.6 41H15.4C15.9601 41 16.2401 41 16.454 40.891C16.6422 40.7951 16.7951 40.6422 16.891 40.454C17 40.2401 17 39.9601 17 39.4V37" stroke="#102A43" stroke-width="2.5"/>
<path d="M21 37V39.4C21 39.9601 21 40.2401 21.109 40.454C21.2049 40.6422 21.3578 40.7951 21.546 40.891C21.7599 41 22.0399 41 22.6 41H25.4C25.9601 41 26.2401 41 26.454 40.891C26.6422 40.7951 26.7951 40.6422 26.891 40.454C27 40.2401 27 39.9601 27 39.4V37" stroke="#102A43" stroke-width="2.5"/>
<path d="M31 37V39.4C31 39.9601 31 40.2401 31.109 40.454C31.2049 40.6422 31.3578 40.7951 31.546 40.891C31.7599 41 32.0399 41 32.6 41H35.4C35.9601 41 36.2401 41 36.454 40.891C36.6422 40.7951 36.7951 40.6422 36.891 40.454C37 40.2401 37 39.9601 37 39.4V37" stroke="#102A43" stroke-width="2.5"/>
</g>
<defs>
<clipPath id="clip0_173_1067">
<rect width="48" height="48" fill="white"/>
</clipPath>
</defs>
</svg>
