<svg width="48" height="48" viewBox="0 0 48 48" fill="none" xmlns="http://www.w3.org/2000/svg">
<g clip-path="url(#clip0_2348_15031)">
<path d="M7.65625 43.2368V34.3947C7.65625 33.7843 8.15109 33.2894 8.76151 33.2894H15.3931M15.3931 33.2894V43.2368M15.3931 33.2894V23.3421C15.3931 22.7317 15.8879 22.2368 16.4984 22.2368H30.3141C30.9246 22.2368 31.4194 22.7317 31.4194 23.3421V28.8684M31.4194 43.2368V28.8684M31.4194 28.8684H38.6036C39.214 28.8684 39.7089 29.3632 39.7089 29.9737V43.2368" stroke="#102A43" stroke-width="2.5" stroke-linecap="round"/>
<path d="M14.8455 16.5199L12.4318 9.55657C12.1051 8.61407 13.0955 7.7552 13.9823 8.21202L17.8516 10.2053C18.3297 10.4516 18.9158 10.318 19.2399 9.88868L22.8031 5.16854C23.2453 4.58275 24.1252 4.58275 24.5674 5.16854L28.1306 9.88868C28.4547 10.318 29.0407 10.4516 29.5189 10.2053L33.1552 8.33206C34.0712 7.8602 35.0776 8.78776 34.6819 9.7391L31.8353 16.5824C31.6638 16.9946 31.2612 17.2632 30.8148 17.2632H15.8899C15.419 17.2632 14.9998 16.9648 14.8455 16.5199Z" fill="#307FE2"/>
<path d="M6 43.7894H41.3684" stroke="#102A43" stroke-width="2.5" stroke-linecap="round"/>
<path d="M25 39V27H22.9584C22.8688 28.7486 22.5808 28.9886 21 29.1171V31.1571H22.6896V39H25Z" fill="#307FE2"/>
</g>
<defs>
<clipPath id="clip0_2348_15031">
<rect width="39" height="42" fill="white" transform="translate(4 4)"/>
</clipPath>
</defs>
</svg>
