<svg width="48" height="48" viewBox="0 0 48 48" fill="none" xmlns="http://www.w3.org/2000/svg">
<path fill-rule="evenodd" clip-rule="evenodd" d="M31.9962 25.9325H30.2906L25.6853 9.8133C25.1556 7.94612 23.5218 6.66524 21.5827 6.66524H16.1964C13.8534 6.66524 12.0939 8.57753 11.9502 10.8777L11.2231 22.6581L3.96056 23.6954C3.40397 23.7676 3 24.2547 3 24.814V31.498C3 31.7956 3.18852 32.0482 3.46681 32.1474C3.75408 32.2376 4.05033 32.1294 4.22089 31.8768C5.57644 29.8833 7.82971 28.4942 10.6396 28.4942C15.1192 28.4942 18.5933 32.2376 18.4587 36.6665C18.4407 37.2889 19.4551 37.2889 19.4372 36.6665C19.3294 32.5263 22.4894 28.4942 27.2742 28.4942C29.0607 28.4942 30.7035 29.0986 32.0231 30.1179C32.2296 30.2802 32.49 30.3073 32.7323 30.19C32.9657 30.0728 33.1004 29.8472 33.1004 29.5857V27.078C33.1004 26.4556 32.5977 25.9505 31.9872 25.9505L31.9962 25.9325ZM20.2002 25.9325L17.6238 24.832L17.139 18.8155C17.0941 18.1931 16.5555 17.7331 15.9361 17.7872C15.3167 17.8413 14.8588 18.3735 14.9127 19.0049L15.3077 23.8578L13.4584 23.073L14.2035 11.013C14.2663 9.91253 15.0743 8.9203 16.2144 8.9203H21.6007C22.5433 8.9203 23.2973 9.53368 23.5487 10.4357L27.9834 25.9415H20.2092L20.2002 25.9325ZM37.6788 34.7092V7.11625C37.6788 5.62792 35.4434 5.62792 35.4434 7.11625V35.8367C35.4434 36.4591 35.9462 36.9642 36.5566 36.9642L43.2 36.9642C44.8742 36.9642 44.9179 34.7092 43.2 34.7092L37.6698 34.7092H37.6788Z" fill="#102A43"/>
<path fill-rule="evenodd" clip-rule="evenodd" d="M27.2831 30.7312C22.3277 30.7312 19.7962 36.8018 23.3332 40.3558C26.8522 43.8827 32.8759 41.3571 32.8759 36.3689C32.8759 33.2659 30.3623 30.7312 27.2831 30.7312ZM25.7212 37.9474C24.3298 36.5493 25.3172 34.1499 27.2743 34.1499C28.4952 34.1499 29.4826 35.1511 29.4826 36.3689C29.4826 38.3443 27.1037 39.3365 25.7212 37.9474Z" fill="#307FE2"/>
<path fill-rule="evenodd" clip-rule="evenodd" d="M11.0009 30.7312C6.0455 30.7312 3.51394 36.8018 7.05094 40.3558C10.57 43.8827 16.5937 41.3571 16.5937 36.3689C16.5937 33.2659 14.0801 30.7312 11.0009 30.7312ZM9.43888 37.9474C8.04742 36.5493 9.03491 34.1499 10.9919 34.1499C12.2128 34.1499 13.2003 35.1511 13.2003 36.3689C13.2003 38.3443 10.8214 39.3365 9.43888 37.9474Z" fill="#307FE2"/>
</svg>
