<svg width="48" height="48" viewBox="0 0 48 48" fill="none" xmlns="http://www.w3.org/2000/svg">
<g clip-path="url(#clip0_2348_24780)">
<path d="M22.5008 18.9736H24.4987C24.9858 18.9736 25.4021 19.3246 25.4844 19.8047L28.0176 34.5819C28.0725 34.9019 27.9686 35.2285 27.7391 35.458L24.2069 38.9902C23.8164 39.3807 23.1832 39.3807 22.7927 38.9902L19.2605 35.458C19.031 35.2285 18.9271 34.9019 18.982 34.5819L21.5152 19.8047C21.5975 19.3246 22.0138 18.9736 22.5008 18.9736Z" fill="#307FE2"/>
<path d="M33.6316 9.76316L37.4961 10.2462C39.4979 10.4964 41 12.198 41 14.2153V38C41 40.2091 39.2091 42 37 42H10C7.79086 42 6 40.2091 6 38V14.2412C6 12.2129 7.51819 10.5056 9.53264 10.2686L13.8289 9.76316M33.6316 9.76316L30.8684 7M33.6316 9.76316L28.7899 16.6222C28.4322 17.1289 27.7044 17.1912 27.2658 16.7527L26.4646 15.9515M30.8684 7H16.1316M30.8684 7L23.5 12.9868M16.1316 7L13.8289 9.76316M16.1316 7L23.5 12.9868M13.8289 9.76316L18.2227 16.5536C18.5686 17.0881 19.3192 17.1676 19.7694 16.7174L20.5354 15.9515M23.5 12.9868L26.4646 15.9515M23.5 12.9868L20.5354 15.9515M26.4646 15.9515L24.7953 18.5417C24.6112 18.8274 24.2946 19 23.9548 19H22.629C22.2445 19 21.8941 18.7796 21.7276 18.4331L20.5354 15.9515" stroke="#102A43" stroke-width="2.5" stroke-linecap="round"/>
</g>
<defs>
<clipPath id="clip0_2348_24780">
<rect width="39" height="39" fill="white" transform="translate(4 5)"/>
</clipPath>
</defs>
</svg>
