<?xml version="1.0" encoding="UTF-8"?><svg id="uuid-8a8e51fc-1082-4998-85ec-fb12baa50eec" xmlns="http://www.w3.org/2000/svg" width="70.55" height="70.55" viewBox="0 0 70.55 70.55"><g id="uuid-f8e39e7f-70f4-4980-93ed-c87fa600a4f1"><path d="m51.64,43.02v9.44c0,.09-.01.18-.04.26-.03.09-.08.17-.14.23-.06.07-.14.12-.22.15-.08.03-.17.04-.26.04h-4.6c-.08,0-.17-.01-.25-.05-.08-.03-.16-.08-.22-.14-.06-.07-.11-.14-.14-.23-.03-.08-.04-.17-.04-.26v-9.44c-.32-1.12-.76-2.21-1.3-3.23v17.38c0,.09-.01.18-.04.27-.03.08-.08.16-.14.22-.06.07-.14.12-.22.15-.08.03-.17.05-.25.04h-17.01c-.09,0-.18-.01-.26-.04-.08-.03-.15-.08-.21-.15-.07-.06-.11-.14-.14-.22-.03-.09-.05-.18-.04-.27v-17.38c-.55,1.02-.98,2.11-1.31,3.23v9.44c.01.09-.01.18-.04.26-.03.09-.07.16-.14.23-.06.06-.13.11-.21.14-.08.04-.17.05-.26.05h-4.58c-.08,0-.17-.01-.26-.04-.08-.03-.15-.08-.22-.15-.06-.06-.11-.14-.14-.23-.03-.08-.04-.17-.04-.26v-9.44c.18-3.34,1.22-6.57,3.02-9.37,1.18-1.98,2.56-3.83,4.11-5.52,0,0-.23-1.95,2.24-2.78,2.25-.81,4.6-1.27,6.98-1.37,1.59.04,3.16.27,4.69.69.76.2,1.53.43,2.3.68,2.17.73,2.24,2.31,2.24,2.69,1.35,1.49,7.12,8.28,7.14,14.98Z" style="fill:#2a7de1;"/><path d="m24.81,50.08v2.38c.01.09-.01.18-.04.26-.03.09-.07.16-.14.23-.06.06-.13.11-.21.14-.08.04-.17.05-.26.05h-4.58c-.08,0-.17-.01-.26-.04-.08-.03-.15-.08-.22-.15-.06-.06-.11-.14-.14-.23-.03-.08-.04-.17-.04-.26v-2.43c0,.09.01.19.04.27.03.09.08.16.14.23.07.06.14.11.22.14.09.04.18.05.26.04h4.58c.09.01.18-.01.26-.04.08-.03.15-.08.21-.15.07-.06.11-.14.14-.22.02-.07.04-.15.04-.22Z" style="fill:#2356a6;"/><path d="m44.43,54.75v2.42c0,.09-.01.18-.04.27-.03.08-.08.16-.14.22-.06.07-.14.12-.22.15-.08.03-.17.05-.25.04h-17.01c-.09,0-.18-.01-.26-.04-.08-.03-.15-.08-.21-.15-.07-.06-.11-.14-.14-.22-.03-.09-.05-.18-.04-.27v-2.37c0,.07.02.14.04.21.03.09.07.17.14.23.06.06.13.11.21.15.08.03.17.04.26.04h17.01c.08,0,.17,0,.25-.04.08-.04.16-.09.22-.15s.11-.14.14-.23c.03-.08.04-.17.04-.26Z" style="fill:#2356a6;"/><path d="m51.64,50.08v2.38c0,.09-.01.18-.04.26-.03.09-.08.17-.14.23-.06.07-.14.12-.22.15-.08.03-.17.04-.26.04h-4.6c-.08,0-.17-.01-.25-.05-.08-.03-.16-.08-.22-.14-.06-.07-.11-.14-.14-.23-.03-.08-.04-.17-.04-.26v-2.43c0,.09.01.18.04.27.03.08.08.16.14.22.06.07.14.12.22.15.08.03.17.05.25.04h4.6c.09.01.18,0,.26-.04.08-.03.16-.08.22-.14.06-.07.11-.14.14-.23.02-.07.04-.15.04-.22Z" style="fill:#2356a6;"/><path d="m44.5,28.04c0-.38-.07-1.96-2.24-2.69-.77-.25-1.54-.48-2.3-.68-1.53-.42-3.1-.65-4.69-.69-2.38.1-4.73.56-6.98,1.37-2.47.83-2.24,2.78-2.24,2.78-1.55,1.69-2.93,3.54-4.11,5.52-1.8,2.8-2.84,6.03-3.02,9.37v7.01c0,.09.01.19.04.27.03.09.08.16.14.23.07.06.14.11.22.14.09.04.18.05.26.04h4.58c.09.01.18-.01.26-.04.08-.03.15-.08.21-.15.07-.06.11-.14.14-.22.02-.07.04-.15.04-.22v-7.06c.33-1.12.76-2.21,1.31-3.23v15.01c0,.07.02.14.04.21.03.09.07.17.14.23.06.06.13.11.21.15.08.03.17.04.26.04h17.01c.08,0,.17,0,.25-.04.08-.04.16-.09.22-.15s.11-.14.14-.23c.03-.08.04-.17.04-.26v-14.96c.54,1.02.98,2.11,1.3,3.23v7.01c0,.09.01.18.04.27.03.08.08.16.14.22.06.07.14.12.22.15.08.03.17.05.25.04h4.6c.09.01.18,0,.26-.04.08-.03.16-.08.22-.14.06-.07.11-.14.14-.23.02-.07.04-.15.04-.22v-7.06c-.02-6.7-5.79-13.49-7.14-14.98Zm-7.53,1.05c-.5.3-1.06.48-1.63.52-.58-.04-1.15-.2-1.65-.5-.51-.29-.95-.7-1.28-1.19.93-.26,1.9-.4,2.86-.4.99-.01,1.98.11,2.95.36-.32.5-.75.91-1.25,1.21Z" style="fill:#2a7de1;"/><path d="m37.92,33.92h-7.96v5.48h2.67v-2.73h5.29v2.73h2.67v-5.48h-2.67Z" style="fill:#eff3f7;"/><path d="m36.05,38.03h-1.55c-.3,0-.55.25-.55.55v4.38c0,.3.25.55.55.55h1.55c.3,0,.55-.25.55-.55v-4.38c0-.3-.25-.55-.55-.55Z" style="fill:#eff3f7;"/><path d="m37.92,43.96l-2.69,2.79-2.6-2.71v-3.29h-2.67v4.43h.02l5.25,5.43,5.34-5.5h.02v-4.36h-2.67v3.2Z" style="fill:#eff3f7;"/><path d="m38.22,27.88c-.32.5-.75.91-1.24,1.21-.5.3-1.06.48-1.64.52-.58-.03-1.14-.2-1.65-.49-.51-.29-.94-.7-1.27-1.19.93-.27,1.89-.4,2.86-.4.99-.02,1.98.1,2.94.36Z" style="fill:#2356a6;"/><path d="m41.81,21.83c0,1.55-.54,3.05-1.51,4.23-.65.78-1.45,1.4-2.35,1.83s-1.89.65-2.88.64c-1.76.03-3.45-.66-4.72-1.92-1.26-1.26-1.99-2.98-2.03-4.79.03-1.81.76-3.54,2.02-4.8,1.26-1.26,2.96-1.95,4.72-1.92,1.75,0,3.43.71,4.68,1.96,1.26,1.25,1.99,2.96,2.05,4.76h.01Z" style="fill:#915a32;"/><path d="m41.41,16.27v2.71s-.02.04-.03.05c-.01.02-.03.03-.05.04s-.04.01-.06.01-.04,0-.06-.01c-.31-.09-.61-.2-.9-.33-.87-.37-1.75-.68-2.66-.93l-.21-.06h-.17l-.65-.12-.68-.09h-.68c-.2-.01-.41-.01-.61,0h-.68l-.38.06h-.23l-.47.12c-.91.24-1.8.55-2.67.93-.31.14-.62.25-.94.36-.07,0-.14,0-.14-.09v-2.64c.09-1.07.47-2.1,1.1-2.96.63-.86,1.48-1.53,2.45-1.92.81-.37,1.68-.57,2.57-.57,3.35,0,6.14,2.76,6.14,5.45Z" style="fill:#d8e0eb;"/><path d="m41.41,19c-.29.93-.67,1.83-1.14,2.68-.09.18-.22.35-.38.48s-.34.23-.53.28h-.21c-.33-.03-.66-.11-.96-.25-1.88-.78-3.97-.78-5.84,0-.31.14-.64.22-.97.25-.43,0-.75-.23-1.05-.79-.47-.84-.86-1.73-1.14-2.66.42-.08.82-.21,1.2-.4,1.54-.73,3.2-1.14,4.89-1.22.83,0,1.65.13,2.45.37.85.23,1.68.52,2.49.87.37.2.78.33,1.19.39Z" style="fill:#2a7de1;"/><path d="m35.78,12.66h-1.51v1.04h.5v-.52h1.01v.52h.5v-1.04h-.5Z" style="fill:#528ecb;"/><path d="m35.53,13.44h-.5v1.04h.5v-1.04Z" style="fill:#528ecb;"/><path d="m35.78,14.56l-.51.52-.49-.51v-.62h-.5v.83h.01l.98,1.03,1.01-1.04h.01v-.82h-.5v.6Z" style="fill:#528ecb;"/><rect x="18.93" y="10.82" width="32.7" height="47.04" style="fill:none;"/><path d="m66.78,1c1.53,0,2.78,1.25,2.78,2.78v63c0,1.53-1.25,2.78-2.78,2.78H3.78c-1.53,0-2.78-1.25-2.78-2.78V3.78c0-1.53,1.25-2.78,2.78-2.78h63m0-1H3.78C1.69,0,0,1.69,0,3.78v63c0,2.09,1.69,3.78,3.78,3.78h63c2.09,0,3.78-1.69,3.78-3.78V3.78c0-2.09-1.69-3.78-3.78-3.78h0Z" style="fill:#d8e0eb;"/></g></svg>