<svg width="32" height="32" viewBox="0 0 32 32" fill="none" xmlns="http://www.w3.org/2000/svg">
<path d="M24.7919 12.0585L16.1562 30.5995C16.0908 30.7382 15.984 30.8516 15.8515 30.9228C15.7189 30.9941 15.5676 31.0195 15.42 30.9954C15.2724 30.9712 15.1362 30.8987 15.0315 30.7886C14.9269 30.6785 14.8593 30.5366 14.8388 30.3839L13.3264 18.7373C13.3125 18.6232 13.2723 18.5141 13.2092 18.4194C13.146 18.3246 13.0618 18.2468 12.9634 18.1926C12.8651 18.1383 12.7556 18.1092 12.6441 18.1077C12.5326 18.1061 12.4224 18.1322 12.3227 18.1837L8.98409 19.9019C8.85462 19.9623 8.71036 19.9804 8.57063 19.9538C8.4309 19.9273 8.30238 19.8573 8.20229 19.7533C8.1022 19.6493 8.03532 19.5162 8.01062 19.3718C7.98591 19.2275 8.00456 19.0789 8.06406 18.9458L16.6998 0.404718C16.7652 0.266035 16.872 0.152693 17.0045 0.0814195C17.1371 0.0101461 17.2884 -0.0152818 17.436 0.00888988C17.5836 0.0330616 17.7198 0.105552 17.8245 0.21566C17.9291 0.325769 17.9967 0.467662 18.0171 0.620395L19.5296 12.267C19.5435 12.3811 19.5837 12.4901 19.6468 12.5849C19.71 12.6797 19.7942 12.7574 19.8926 12.8117C19.9909 12.8659 20.1004 12.895 20.2119 12.8966C20.3234 12.8981 20.4336 12.872 20.5333 12.8205L23.8719 11.1023C24.0014 11.0419 24.1456 11.0238 24.2854 11.0504C24.4251 11.077 24.5536 11.147 24.6537 11.251C24.7538 11.355 24.8207 11.4881 24.8454 11.6324C24.8701 11.7767 24.8514 11.9254 24.7919 12.0585Z" fill="#307FE2"/>
</svg>
