<svg width="48" height="48" viewBox="0 0 48 48" fill="none" xmlns="http://www.w3.org/2000/svg">
<g clip-path="url(#clip0_2348_15083)">
<rect x="9" y="8" width="25" height="32" rx="5" stroke="#102A43" stroke-width="2.5"/>
<path d="M14 14H29" stroke="#307FE2" stroke-width="2.5" stroke-linecap="round"/>
<path d="M14 19H23" stroke="#307FE2" stroke-width="2.5" stroke-linecap="round"/>
<path d="M14 24H20" stroke="#307FE2" stroke-width="2.5" stroke-linecap="round"/>
<path d="M14 29H20" stroke="#307FE2" stroke-width="2.5" stroke-linecap="round"/>
<path d="M34.5 41H29.5C28.9477 41 28.5 40.5523 28.5 40V37.5C28.5 37.5 26.8 37.6667 26 36.8333C25.2 36 25.5 34.3333 25.5 34.3333H23.9339C23.4544 34.3333 23.0981 33.8896 23.2015 33.4215L24.3296 28.3171C24.1623 24.2164 27.277 21 31.1648 21C34.3546 21 38 21.9756 38 27.8293C38 33.6829 35.5 34.6992 35.5 36.8333V40.0009C35.5 40.5531 35.0523 41 34.5 41Z" fill="white" stroke="#102A43" stroke-width="2.5" stroke-linejoin="round"/>
</g>
<defs>
<clipPath id="clip0_2348_15083">
<rect width="33" height="37" fill="white" transform="translate(7 6)"/>
</clipPath>
</defs>
</svg>
