<?xml version="1.0" encoding="UTF-8"?><svg id="uuid-1b7b743d-eaf6-4b5d-b606-7567effaae99" xmlns="http://www.w3.org/2000/svg" width="70.55" height="70.55" xmlns:xlink="http://www.w3.org/1999/xlink" viewBox="0 0 70.55 70.55"><defs><clipPath id="uuid-9d803b60-04fa-427b-a756-cf2535d82cd1"><rect x="9.8" y="21.09" width="50.96" height="25.48" style="fill:none;"/></clipPath></defs><g id="uuid-370bfdf0-5f92-489f-a04e-0e3676b3c440"><g style="clip-path:url(#uuid-9d803b60-04fa-427b-a756-cf2535d82cd1);"><path d="m59.29,30.05H11.26c-.81,0-1.46.66-1.46,1.48v4.6c0,.82.66,1.48,1.46,1.48h48.03c.81,0,1.46-.66,1.46-1.48v-4.6c0-.82-.66-1.48-1.46-1.48" style="fill:#dfe7f4;"/><path d="m59.29,35.49H11.26c-.19,0-.38-.04-.56-.11-.18-.08-.34-.18-.47-.32s-.24-.3-.32-.48c-.07-.18-.11-.37-.11-.57v2.15c0,.39.15.77.43,1.05.27.28.65.43,1.03.43h48.03c.19,0,.39-.04.57-.12.18-.07.34-.19.48-.33.14-.14.24-.31.32-.49.07-.18.11-.38.11-.57v-2.15c0,.2-.03.39-.11.57-.07.18-.18.35-.32.49-.14.14-.3.25-.48.33-.18.08-.37.11-.57.11" style="fill:#ccd8e4;"/><path d="m51.52,40.85h3.09c.71,0,1.28-.58,1.28-1.3v-11.44c0-.72-.58-1.3-1.28-1.3h-3.09c-.71,0-1.28.58-1.28,1.3v11.44c0,.72.57,1.3,1.28,1.3" style="fill:#2356a6;"/><path d="m44.4,46.57h4.37c.81,0,1.46-.66,1.46-1.48v-22.52c0-.82-.66-1.48-1.46-1.48h-4.37c-.81,0-1.46.66-1.46,1.48v22.52c0,.82.66,1.48,1.46,1.48" style="fill:#2a7de1;"/><path d="m19.03,26.81h-3.09c-.71,0-1.28.58-1.28,1.3v11.44c0,.72.58,1.3,1.28,1.3h3.09c.71,0,1.28-.58,1.28-1.3v-11.44c0-.72-.57-1.3-1.28-1.3" style="fill:#2356a6;"/><path d="m26.16,21.09h-4.37c-.81,0-1.46.66-1.46,1.48v22.52c0,.82.66,1.48,1.46,1.48h4.37c.81,0,1.46-.66,1.46-1.48v-22.52c0-.82-.66-1.48-1.46-1.48" style="fill:#2a7de1;"/></g><path d="m66.78,1c1.53,0,2.78,1.25,2.78,2.78v63c0,1.53-1.25,2.78-2.78,2.78H3.78c-1.53,0-2.78-1.25-2.78-2.78V3.78c0-1.53,1.25-2.78,2.78-2.78h63m0-1H3.78C1.69,0,0,1.69,0,3.78v63c0,2.09,1.69,3.78,3.78,3.78h63c2.09,0,3.78-1.69,3.78-3.78V3.78c0-2.09-1.69-3.78-3.78-3.78h0Z" style="fill:#d8e0eb;"/></g></svg>