<svg width="32" height="32" viewBox="0 0 32 32" fill="none" xmlns="http://www.w3.org/2000/svg">
<path fill-rule="evenodd" clip-rule="evenodd" d="M18.4674 14.5947C20.6027 13.7643 22.1353 11.8232 22.1353 9.48137C21.845 1.68046 9.31369 2.41392 10.2854 10.3589C12.4551 10.3772 14.6568 11.4512 15.909 13.3687C16.3975 13.331 16.8871 13.4234 17.3337 13.6374C17.7803 13.8514 18.1699 14.1804 18.4674 14.5947ZM28.241 16.9522C28.2066 22.6706 20.0812 24.4649 17.1611 19.7891C17.5625 19.666 17.9349 19.4542 18.2543 19.1675C18.5737 18.8809 18.8328 18.5259 19.0147 18.1256C19.1966 17.7252 19.2974 17.2886 19.3103 16.844C19.3232 16.3995 19.2481 15.9571 19.0898 15.5455C20.9225 14.7911 22.3296 13.2849 22.8733 11.4407C25.8868 11.7158 28.241 14.0786 28.241 16.9522ZM12.9225 16.8395C12.9212 16.8142 12.9212 16.7889 12.9225 16.7636C12.9227 16.1175 13.1099 15.4873 13.4585 14.9586C13.8071 14.4299 14.3003 14.0284 14.8708 13.8087C11.8179 9.50488 4 11.3778 4 16.9522C4 19.7891 6.28043 22.1126 9.23245 22.4479C9.23245 19.996 10.7429 17.8716 12.9225 16.8395ZM10.2656 23.5403C11.2668 29.8088 21.0724 29.8114 22.0737 23.5403C19.5005 23.556 17.2397 22.186 16.1204 20.1689C15.4817 20.1681 14.8602 19.9476 14.3487 19.5403C13.8371 19.1329 13.4629 18.5605 13.2816 17.9083C11.2151 18.9561 9.89412 21.1827 10.2656 23.5403Z" fill="#2A7DE1"/>
</svg>
