<svg width="48" height="48" viewBox="0 0 48 48" fill="none" xmlns="http://www.w3.org/2000/svg">
<path fill-rule="evenodd" clip-rule="evenodd" d="M12.9307 33.429C14.5588 33.429 15.3841 35.4097 14.2286 36.5727C13.0732 37.7281 11.1 36.9028 11.1 35.2672C11.1 34.2543 11.9253 33.429 12.9382 33.429H12.9307ZM12.9307 30.6079C17.0497 30.6079 19.1505 35.6273 16.2094 38.5684C13.2833 41.4946 8.27888 39.4013 8.27888 35.2672C8.27888 32.7012 10.3647 30.6079 12.9307 30.6079ZM34.9515 33.429C36.5797 33.429 37.405 35.4097 36.242 36.5727C35.0866 37.7281 33.1133 36.9028 33.1133 35.2672C33.1133 34.2543 33.9387 33.429 34.9515 33.429ZM34.9515 30.6079C39.0706 30.6079 41.1714 35.6273 38.2303 38.5684C35.3042 41.4946 30.2998 39.4013 30.2998 35.2672C30.2998 32.7012 32.3856 30.6079 34.9515 30.6079ZM41.3515 32.4011C44.135 32.4011 43.8499 32.2435 43.8499 35.3497C43.8499 36.6627 41.6741 36.3101 41.5391 36.16C41.2389 35.8299 41.7942 34.907 41.0064 32.9113C40.9088 32.6637 41.0889 32.4011 41.3515 32.4011ZM19.3306 32.4011H28.5366C29.452 32.4011 28.2665 33.6466 28.4691 35.8749L28.1014 36.2801H19.7958C19.0155 36.2801 19.8708 35.1621 18.993 32.9113C18.8954 32.6637 19.0755 32.4011 19.3381 32.4011H19.3306ZM4.96262 32.4011C8.39142 32.4011 6.13306 32.3261 6.44818 35.8749C6.5007 36.4376 5.66038 36.2801 4.96262 36.2801C3.73215 36.2801 4.03226 34.6595 4.03226 33.3314C4.03226 32.8137 4.44492 32.4011 4.96262 32.4011ZM29.0393 29.6025V15.5272C29.0393 15.0095 29.4595 14.5968 29.9697 14.5968H40.2786C41.5015 14.5968 41.5015 16.465 40.2786 16.465H38.4104L39.4758 22.7974C39.8059 24.7557 44 22.9925 44 24.9282V29.595C44 30.1127 43.5873 30.5254 43.0696 30.5254H39.8509C38.8155 30.5254 38.1703 28.7322 34.944 28.7322C31.7178 28.7322 31.1851 30.5254 29.9697 30.5254C29.4595 30.5254 29.0393 30.1052 29.0393 29.595V29.6025ZM37.5851 22.7224L36.5196 16.4725H30.9V22.2422C30.9 22.5273 31.1176 22.7674 31.4027 22.7974L36.9773 23.3676C37.345 23.4052 37.6451 23.0825 37.5851 22.7149V22.7224Z" fill="#102A43"/>
<path d="M10.8217 18.8133H21.3933C21.7684 18.8133 22.076 18.5057 22.076 18.1305L21.4983 16.0898C21.4533 15.9397 21.3182 15.8422 21.1682 15.8422H11.0243C10.8668 15.8422 10.7317 15.9472 10.6942 16.0973L10.1465 18.138C10.1465 18.5132 10.4541 18.8208 10.8292 18.8208L10.8217 18.8133Z" fill="#2A7DE1"/>
<path d="M21.1604 19.4811H11.0165C10.8589 19.4811 10.7239 19.5861 10.6864 19.7362L10.1387 21.777C10.1387 22.1521 10.4463 22.4597 10.8214 22.4597H21.393C21.7681 22.4597 22.0757 22.1521 22.0757 21.777L21.498 19.7362C21.453 19.5861 21.3179 19.4886 21.1679 19.4886L21.1604 19.4811Z" fill="#2A7DE1"/>
<path d="M21.1604 23.12H11.0165C10.8589 23.12 10.7239 23.225 10.6864 23.3751L10.1387 25.4159C10.1387 25.791 10.4463 26.0986 10.8214 26.0986H21.393C21.7681 26.0986 22.0757 25.791 22.0757 25.4159L21.498 23.3751C21.453 23.225 21.3179 23.1275 21.1679 23.1275L21.1604 23.12Z" fill="#2A7DE1"/>
<path d="M24.1318 10.5902H8.08318C6.43255 10.5902 5.08203 11.9407 5.08203 13.5914V28.342C5.08203 29.8801 6.24497 31.148 7.73054 31.3206C8.49583 30.3077 9.55374 29.5199 10.7692 29.0923H8.08318C7.67052 29.0923 7.33289 28.7546 7.33289 28.342V13.5914C7.33289 13.1787 7.67052 12.8411 8.08318 12.8411H24.1318C24.5445 12.8411 24.8821 13.1787 24.8821 13.5914V28.342C24.8821 28.7546 24.5445 29.0923 24.1318 29.0923H15.1059C16.3213 29.5049 17.3792 30.2852 18.152 31.3431H24.1318C25.7899 31.3431 27.1329 30.0001 27.1329 28.342V13.5914C27.1329 11.9407 25.7899 10.5902 24.1318 10.5902Z" fill="#102A43"/>
</svg>
