<?xml version="1.0" encoding="UTF-8"?>
<svg id="Layer_2" data-name="Layer 2" xmlns="http://www.w3.org/2000/svg" viewBox="0 0 90.35 79.36">
  <defs>
    <style>
      .cls-1 {
        fill: none;
      }

      .cls-2 {
        fill: #1e75df;
      }
    </style>
  </defs>
  <g id="Layer_2-2" data-name="Layer 2">
    <g>
      <rect class="cls-1" x="9.85" width="79.36" height="79.36"/>
      <path class="cls-2" d="M89.96,42.4l-30.29,35.79c-1.07,1.28-3.15.33-2.89-1.32l4.07-26.43,5.16-6.1c1.18-1.4,1.44-3.3.67-4.96-.77-1.66-2.39-2.7-4.22-2.7h-6.17l1-6.47L81.86,1.17c1.08-1.27,3.15-.33,2.89,1.32l-5.43,35.29c-.15,1,.63,1.9,1.64,1.9h7.73c1.41,0,2.17,1.65,1.27,2.72Z"/>
      <path class="cls-2" d="M63.72,42.4l-30.28,35.79c-1.08,1.28-3.15.33-2.9-1.32l3.78-24.56,6.74-7.97c1.19-1.4,1.44-3.3.67-4.96-.77-1.66-2.38-2.7-4.22-2.7h-6.16l1.28-8.34L55.62,1.17c1.08-1.27,3.15-.33,2.9,1.32l-5.43,35.29c-.16,1,.62,1.9,1.63,1.9h7.74c1.4,0,2.17,1.65,1.26,2.72Z"/>
      <path class="cls-2" d="M9.39,39.68c1.01,0,1.79.9,1.63,1.9l-5.43,35.29c-.25,1.65,1.82,2.59,2.9,1.32l30.28-35.79c.91-1.07.15-2.72-1.26-2.72h-7.73c-1.01,0-1.79-.9-1.63-1.9L33.57,2.49c.25-1.65-1.82-2.59-2.9-1.32L.39,36.96c-.91,1.07-.15,2.72,1.26,2.72h7.73Z"/>
    </g>
  </g>
</svg>