<svg width="22" height="23" viewBox="0 0 22 23" fill="none" xmlns="http://www.w3.org/2000/svg">
<g clip-path="url(#clip0_488_9379)">
<path d="M21.0458 7.15363H21.4728C21.6126 7.15363 21.7467 7.10035 21.8456 7.00551C21.9445 6.91068 22 6.78206 22 6.64794V5.78828C22 5.65416 21.9445 5.52554 21.8456 5.4307C21.7467 5.33587 21.6126 5.28259 21.4728 5.28259H0.527199C0.387377 5.28259 0.253282 5.33587 0.154413 5.4307C0.0555441 5.52554 0 5.65416 0 5.78828V6.64794C0 6.78206 0.0555441 6.91068 0.154413 7.00551C0.253282 7.10035 0.387377 7.15363 0.527199 7.15363H0.948958C1.08878 7.15363 1.22287 7.2069 1.32174 7.30174C1.42061 7.39657 1.47616 7.52519 1.47616 7.65931V15.3457C1.47616 15.4798 1.42061 15.6085 1.32174 15.7033C1.22287 15.7981 1.08878 15.8514 0.948958 15.8514H0.527199C0.387377 15.8514 0.253282 15.9047 0.154413 15.9995C0.0555441 16.0943 0 16.223 0 16.3571V17.2117C0 17.3458 0.0555441 17.4744 0.154413 17.5693C0.253282 17.6641 0.387377 17.7174 0.527199 17.7174H21.4728C21.6126 17.7174 21.7467 17.6641 21.8456 17.5693C21.9445 17.4744 22 17.3458 22 17.2117V16.3571C22 16.223 21.9445 16.0943 21.8456 15.9995C21.7467 15.9047 21.6126 15.8514 21.4728 15.8514H21.0458C20.9059 15.8514 20.7719 15.7981 20.673 15.7033C20.5741 15.6085 20.5186 15.4798 20.5186 15.3457V7.65931C20.5186 7.52519 20.5741 7.39657 20.673 7.30174C20.7719 7.2069 20.9059 7.15363 21.0458 7.15363ZM6.63743 12.1043H5.46705V13.232H4.56027V12.1043H3.38462V11.2396H4.56027V10.1321H5.46705V11.2598H6.63743V12.1043ZM10.66 15.285L10.1908 11.9475L8.7515 12.6605L11.2715 7.60368L11.7407 10.9412L13.18 10.2484L10.66 15.285ZM18.22 12.1043H14.9672V11.2396H18.22V12.1043Z" fill="#2A7DE1"/>
</g>
<defs>
<clipPath id="clip0_488_9379">
<rect width="22" height="22" fill="white" transform="translate(0 0.5)"/>
</clipPath>
</defs>
</svg>
