<svg width="71" height="72" viewBox="0 0 71 72" fill="none" xmlns="http://www.w3.org/2000/svg">
<path d="M0 36C0 16.5579 15.8079 0.796936 35.25 0.796936C54.6921 0.796936 70.5 16.5579 70.5 36C70.5 55.4421 54.6921 71.2031 35.25 71.2031C15.8079 71.2031 0 55.4421 0 36Z" fill="#307FE2"/>
<circle cx="35.2497" cy="36.0001" r="28.7834" fill="#CCE3FF"/>
<path d="M43.2334 39.0397C45.4482 39.1675 47.3998 38.2674 48.611 35.59C50.2714 31.9341 47.9142 29.0258 44.2836 26.489L47.0544 21.688L44.0936 19.9786L41.394 24.6524C40.615 24.2026 39.8121 23.7592 39.0126 23.3185L41.7293 18.615L38.7713 16.9068L35.9998 21.7059C35.3512 21.3487 34.7146 20.9975 34.0998 20.6425L34.108 20.6283L30.025 18.2688L28.2239 21.3895C28.2239 21.3895 30.4339 22.6113 30.3751 22.6299C31.5735 23.3229 31.5682 24.2361 31.3383 24.8943L28.1818 30.3637L23.7466 38.0456C23.4789 38.3874 22.9134 38.854 22.0745 38.3711C22.0935 38.4263 19.9208 37.1272 19.9208 37.1272L17.319 40.2775L21.1715 42.5017C21.8888 42.917 22.5878 43.3352 23.2766 43.7402L20.4762 48.5965L23.4332 50.3049L26.206 45.5004C27.0102 45.9865 27.7915 46.447 28.5592 46.889L25.7977 51.67L28.7585 53.3794L31.5585 48.5336C36.6983 51.1248 40.897 51.8988 43.9939 47.5352C46.4886 44.0228 45.674 41.3424 43.2352 39.0412L43.2334 39.0397ZM37.1005 26.7949C38.7704 27.759 44.3253 30.2662 42.3379 33.7101C40.4312 37.0109 35.4038 33.5941 33.7322 32.629L37.1002 26.7955L37.1005 26.7949ZM28.3158 42.0062L32.031 35.5743C34.0376 36.7321 40.6593 39.796 38.475 43.5812C36.3816 47.2113 30.3251 43.1636 28.3166 42.0065L28.3158 42.0062Z" fill="#307FE2"/>
</svg>
