<svg width="32" height="33" viewBox="0 0 32 33" fill="none" xmlns="http://www.w3.org/2000/svg">
<path fill-rule="evenodd" clip-rule="evenodd" d="M13.1621 5.75012C13.4747 5.43756 13.8986 5.26196 14.3406 5.26196H17.6583C18.1004 5.26196 18.5243 5.43756 18.8368 5.75012C19.1494 6.06268 19.325 6.4866 19.325 6.92863V7.42472H19.3341V15.262C19.3341 15.4388 19.4043 15.6083 19.5294 15.7334C19.6544 15.8584 19.824 15.9286 20.0008 15.9286C20.1776 15.9286 20.3472 15.8584 20.4722 15.7334C20.5972 15.6083 20.6674 15.4388 20.6674 15.262V7.92342C25.5888 9.92887 29.7492 13.7377 29.9839 24.0127H2.01953C2.2618 14.0875 6.41766 10.224 11.3341 8.06144V15.262C11.3341 15.4388 11.4043 15.6083 11.5294 15.7334C11.6544 15.8584 11.824 15.9286 12.0008 15.9286C12.1776 15.9286 12.3472 15.8584 12.4722 15.7334C12.5972 15.6083 12.6674 15.4388 12.6674 15.262V7.51457H12.674V6.92863C12.674 6.4866 12.8495 6.06268 13.1621 5.75012Z" fill="#E6F1FF"/>
<rect y="24.0127" width="32" height="3.12305" rx="1.56152" fill="#002159"/>
</svg>
