<?xml version="1.0" encoding="UTF-8"?><svg id="uuid-6ccb4574-3c19-4c87-9380-8e18b8be25c4" xmlns="http://www.w3.org/2000/svg" width="70.55" height="70.55" viewBox="0 0 70.55 70.55"><g id="uuid-d2e37f10-f45d-4c99-9e39-6ae22682d086"><path d="m58.81,32.81v4.57c0,1.35-1.1,2.45-2.45,2.45h-13.89c-1.35,0-2.45,1.1-2.45,2.45v13.89c0,1.35-1.1,2.45-2.45,2.45h-4.57c-1.35,0-2.45-1.1-2.45-2.45v-13.89c0-1.35-1.1-2.45-2.45-2.45h-13.89c-1.35,0-2.45-1.1-2.45-2.45v-4.57c0-1.35,1.1-2.45,2.45-2.45h13.89c1.35,0,2.45-1.1,2.45-2.45v-13.88c0-1.35,1.1-2.45,2.45-2.45h4.57c1.35,0,2.45,1.1,2.45,2.45v13.88c0,1.35,1.1,2.45,2.45,2.45h13.89c1.35,0,2.45,1.1,2.45,2.45Z" style="fill:#2a7de1;"/><path d="m40.02,52.45v3.72c0,1.35-1.1,2.45-2.45,2.45h-4.57c-1.35,0-2.45-1.1-2.45-2.45v-3.72c0,1.35,1.1,2.45,2.45,2.45h4.57c1.35,0,2.45-1.1,2.45-2.45Z" style="fill:#2356a6;"/><path d="m58.81,32.8v4.57c0,1.35-1.1,2.45-2.45,2.45h-13.89c-1.35,0-2.45,1.1-2.45,2.45v10.17c0,1.35-1.1,2.45-2.45,2.45h-4.57c-1.35,0-2.45-1.1-2.45-2.45v-10.17c0-1.35-1.1-2.45-2.45-2.45h-13.89c-1.35,0-2.45-1.1-2.45-2.45v-4.57c0-1.35,1.1-2.45,2.45-2.45h13.89c1.35,0,2.45-1.1,2.45-2.45v-13.88c0-1.35,1.1-2.45,2.45-2.45h4.57c1.35,0,2.45,1.1,2.45,2.45v13.88c0,1.35,1.1,2.45,2.45,2.45h13.89c1.35,0,2.45,1.1,2.45,2.45Z" style="fill:#2a7de1;"/><path d="m18.65,12.26l1.15,5.75,5.76,1.15-5.76,1.15-1.15,5.76-1.15-5.76-5.75-1.15,5.75-1.15,1.15-5.75Z" style="fill:#d8e0eb;"/><path d="m51.9,44.82l1.15,5.75,5.75,1.15-5.75,1.15-1.15,5.75-1.15-5.75-5.75-1.15,5.75-1.15,1.15-5.75Z" style="fill:#d8e0eb;"/><path d="m66.78,1c1.53,0,2.78,1.25,2.78,2.78v63c0,1.53-1.25,2.78-2.78,2.78H3.78c-1.53,0-2.78-1.25-2.78-2.78V3.78c0-1.53,1.25-2.78,2.78-2.78h63m0-1H3.78C1.69,0,0,1.69,0,3.78v63c0,2.09,1.69,3.78,3.78,3.78h63c2.09,0,3.78-1.69,3.78-3.78V3.78c0-2.09-1.69-3.78-3.78-3.78h0Z" style="fill:#d8e0eb;"/></g></svg>