<?xml version="1.0" encoding="UTF-8"?><svg id="uuid-1d21c120-2b1d-41e9-a1d4-e18ff9018e08" xmlns="http://www.w3.org/2000/svg" width="70.55" height="70.55" viewBox="0 0 70.55 70.55"><g id="uuid-006fec00-8778-48c9-87b4-051570abf9e9"><circle cx="50.72" cy="23.99" r="4.84" style="fill:#2356a6;"/><path d="m42.65,40.14c0-4.46,3.62-8.07,8.07-8.07h0c4.46,0,8.07,3.62,8.07,8.07v16.44c0,.68-.55,1.23-1.23,1.23h-13.7c-.68,0-1.23-.55-1.23-1.23v-16.44Z" style="fill:#2356a6;"/><circle cx="19.83" cy="23.99" r="4.84" style="fill:#d8e0eb;"/><path d="m11.76,40.14c0-4.46,3.62-8.07,8.07-8.07h0c4.46,0,8.07,3.62,8.07,8.07v16.48c0,.68-.55,1.23-1.23,1.23h-13.69c-.68,0-1.23-.55-1.23-1.23v-16.48Z" style="fill:#d8e0eb;"/><circle cx="35.28" cy="19.14" r="6.46" style="fill:#2a7de1;"/><path d="m25.59,38.52c0-5.35,4.34-9.69,9.69-9.69h0c5.35,0,9.69,4.34,9.69,9.69v17.93c0,.76-.62,1.38-1.38,1.38h-16.62c-.76,0-1.38-.62-1.38-1.38v-17.93Z" style="fill:#2a7de1;"/><path d="m66.78,1c1.53,0,2.78,1.25,2.78,2.78v63c0,1.53-1.25,2.78-2.78,2.78H3.78c-1.53,0-2.78-1.25-2.78-2.78V3.78c0-1.53,1.25-2.78,2.78-2.78h63m0-1H3.78C1.69,0,0,1.69,0,3.78v63c0,2.09,1.69,3.78,3.78,3.78h63c2.09,0,3.78-1.69,3.78-3.78V3.78c0-2.09-1.69-3.78-3.78-3.78h0Z" style="fill:#d8e0eb;"/></g></svg>