<svg width="36" height="36" viewBox="0 0 36 36" fill="none" xmlns="http://www.w3.org/2000/svg">
<path d="M18.7438 13.0909H4.16529C1.86486 13.0909 0 14.9558 0 17.2562V31.8347C0 34.1351 1.86486 36 4.16529 36H18.7438C21.0442 36 22.9091 34.1351 22.9091 31.8347V17.2562C22.9091 14.9558 21.0442 13.0909 18.7438 13.0909Z" fill="#307FE2"/>
<path d="M16.3637 1.63637L21.2726 4.90894M21.2726 4.90894L16.3637 8.18182M21.2726 4.90894H1.63656M1.63656 4.90894L6.5455 1.63637M1.63656 4.90894L6.5455 8.18182" stroke="#307FE2" stroke-width="3.27273" stroke-linecap="round" stroke-linejoin="round"/>
<path d="M34.3637 29.4545L31.0911 34.3635M31.0911 34.3635L27.8183 29.4545M31.0911 34.3635V14.7274M31.0911 14.7274L34.3637 19.6364M31.0911 14.7274L27.8183 19.6364" stroke="#307FE2" stroke-width="3.27273" stroke-linecap="round" stroke-linejoin="round"/>
</svg>
