<svg width="36" height="36" viewBox="0 0 36 36" fill="none" xmlns="http://www.w3.org/2000/svg">
<path d="M4 10H31V31C31 32.1046 30.1046 33 29 33H6C4.89543 33 4 32.1046 4 31V10Z" fill="#CCE3FF"/>
<path d="M6.41739 5.97101C6.77884 5.3686 7.42986 5 8.13238 5H26.8676C27.5701 5 28.2212 5.3686 28.5826 5.97101L31 10H4L6.41739 5.97101Z" fill="#99C7FF"/>
<path d="M21.9441 19.8381L17.6366 28.7835C17.4889 29.0946 17.0262 29.0207 16.9796 28.6786L16.2254 23.0609C16.1943 22.8238 15.9416 22.6916 15.7278 22.7966L14.0677 23.6246C13.7723 23.7724 13.4574 23.4613 13.6012 23.162L17.9087 14.2165C18.0565 13.9055 18.5191 13.9794 18.5657 14.3215L19.3199 19.9391C19.351 20.1763 19.6037 20.3085 19.8176 20.2035L21.4776 19.3754C21.7731 19.2277 22.088 19.5387 21.9441 19.8381Z" fill="#307FE2"/>
<path d="M14.2431 17.0723L11.9855 21.7587C11.904 21.9217 11.6676 21.8809 11.6432 21.7016L11.2438 18.7594C11.2275 18.6372 11.0971 18.5638 10.983 18.6209L10.1109 19.0528C9.95609 19.1262 9.7931 18.9713 9.86645 18.8083L12.124 14.122C12.2055 13.959 12.4419 13.9997 12.4663 14.179L12.8657 17.1212C12.882 17.2435 13.0124 17.3168 13.1265 17.2598L13.9986 16.8278C14.1534 16.7545 14.3164 16.9093 14.2431 17.0723Z" fill="#307FE2"/>
<path d="M25.1358 24.2054L23.1351 28.3584C23.0629 28.5029 22.8535 28.4667 22.8318 28.3078L22.4779 25.7005C22.4634 25.5922 22.3479 25.5271 22.2468 25.5777L21.4739 25.9605C21.3367 26.0255 21.1923 25.8883 21.2573 25.7438L23.2579 21.5908C23.3301 21.4464 23.5396 21.4825 23.5613 21.6414L23.9152 24.2487C23.9296 24.3571 24.0452 24.4221 24.1463 24.3715L24.9191 23.9887C25.0563 23.9237 25.2008 24.061 25.1358 24.2054Z" fill="#307FE2"/>
</svg>
