<?xml version="1.0" encoding="UTF-8"?><svg id="uuid-4524b7e8-e728-49f4-86db-cc174e28dca6" xmlns="http://www.w3.org/2000/svg" width="70.55" height="70.55" xmlns:xlink="http://www.w3.org/1999/xlink" viewBox="0 0 70.55 70.55"><defs><clipPath id="uuid-e4c21772-2f8c-4758-b487-9f07003b0a9f"><rect x="20.22" y="11.76" width="30.12" height="47.04" style="fill:none;"/></clipPath></defs><g id="uuid-fc1faa82-c3ea-4dfa-a09d-c93392e2124c"><g style="clip-path:url(#uuid-e4c21772-2f8c-4758-b487-9f07003b0a9f);"><path d="m36.54,58.8h-2.53v-25.65c0-.33.13-.66.37-.89.24-.24.56-.37.89-.37s.66.13.89.37c.24.24.37.56.37.89v25.65Z" style="fill:#dfe7f4;"/><path d="m40.62,20.94c0-1.78-.62-3.5-1.73-4.9-.99-1.2-1.9-2.45-2.74-3.75-.08-.16-.21-.3-.36-.39-.15-.09-.33-.14-.51-.14s-.36.05-.51.14c-.16.09-.28.23-.36.39-.84,1.3-1.76,2.55-2.74,3.75-1.11,1.39-1.72,3.12-1.72,4.9s.61,3.51,1.72,4.9c.98,1.2,1.9,2.45,2.74,3.75.08.16.21.3.36.39.15.09.33.14.51.14s.36-.05.51-.14c.16-.09.28-.23.36-.39.84-1.3,1.76-2.55,2.74-3.75,1.11-1.39,1.72-3.12,1.73-4.9" style="fill:#2a7de1;"/><path d="m36.15,29.57c.84-1.29,1.76-2.54,2.74-3.73,1.11-1.39,1.72-3.12,1.72-4.9s-.61-3.51-1.72-4.9c-.98-1.2-1.9-2.45-2.74-3.75-.09-.15-.22-.28-.37-.36-.15-.08-.33-.13-.5-.12v18.23c.17,0,.35-.04.5-.12.15-.08.28-.21.37-.36" style="fill:#2356a6;"/><path d="m46.69,32.69c1.18-.88,2.03-2.13,2.42-3.54.32-1.24.71-2.47,1.17-3.67.05-.13.07-.28.05-.42-.02-.14-.07-.28-.16-.4-.08-.12-.2-.21-.33-.27-.13-.06-.28-.08-.42-.07-1.28.07-2.57.07-3.85,0-1.47-.07-2.93.37-4.12,1.24-1.19.87-2.04,2.12-2.42,3.55-.33,1.21-.72,2.41-1.17,3.58-.05.13-.07.28-.05.42.02.14.07.28.16.4.08.12.2.21.33.27s.28.09.42.08c1.28-.07,2.57-.07,3.85,0,1.46.08,2.91-.33,4.12-1.17" style="fill:#2a7de1;"/><path d="m38.72,33.89c1.28-.07,2.57-.07,3.85,0,1.47.07,2.93-.37,4.12-1.24,1.19-.87,2.04-2.12,2.42-3.55.32-1.24.71-2.47,1.17-3.67.05-.13.07-.28.05-.42-.02-.14-.08-.28-.16-.39l-12.21,8.93c.08.12.2.21.33.27.13.06.28.08.42.07" style="fill:#2356a6;"/><path d="m46.69,43.94c1.18-.88,2.03-2.13,2.42-3.54.32-1.24.71-2.47,1.17-3.67.05-.13.07-.28.05-.42-.02-.14-.07-.28-.16-.4-.08-.12-.2-.21-.33-.27-.13-.06-.28-.08-.42-.07-1.28.07-2.57.07-3.85,0-1.47-.07-2.93.37-4.12,1.24-1.19.87-2.04,2.12-2.42,3.55-.33,1.24-.71,2.46-1.17,3.66-.05.13-.07.28-.05.42.02.14.07.28.16.4.08.12.2.21.33.27s.28.09.42.08c1.28-.07,2.57-.07,3.85,0,1.47.06,2.92-.38,4.12-1.24" style="fill:#2a7de1;"/><path d="m38.72,45.18c1.28-.07,2.57-.07,3.85,0,1.47.07,2.93-.37,4.12-1.24,1.19-.87,2.04-2.12,2.42-3.55.32-1.24.71-2.47,1.17-3.67.05-.13.07-.28.05-.42-.02-.14-.07-.28-.16-.39l-12.21,8.93c.08.12.2.21.33.27.13.06.28.08.42.07" style="fill:#2356a6;"/><path d="m46.69,55.21c1.18-.88,2.03-2.13,2.42-3.54.32-1.24.71-2.47,1.17-3.67.05-.13.07-.28.05-.42-.02-.14-.07-.28-.16-.4-.08-.12-.2-.21-.33-.27-.13-.06-.28-.09-.42-.08-1.28.07-2.57.07-3.85,0-1.47-.07-2.93.36-4.12,1.24-1.19.87-2.04,2.13-2.42,3.55-.33,1.24-.71,2.46-1.17,3.66-.05.13-.07.28-.05.42.02.14.07.28.16.4.08.12.2.21.33.27.13.06.28.09.42.08,1.28-.07,2.57-.07,3.85,0,1.47.06,2.92-.37,4.12-1.23" style="fill:#2a7de1;"/><path d="m38.72,56.48c1.28-.07,2.57-.07,3.85,0,1.47.07,2.93-.37,4.12-1.24,1.19-.87,2.04-2.12,2.42-3.55.32-1.24.71-2.47,1.17-3.67.05-.13.07-.28.05-.42-.02-.14-.07-.28-.16-.39l-12.21,8.93c.08.12.2.21.33.27.13.06.28.08.42.07" style="fill:#2356a6;"/><path d="m23.87,32.69c-1.18-.88-2.03-2.13-2.42-3.54-.32-1.24-.71-2.47-1.17-3.67-.05-.13-.07-.28-.05-.42.02-.14.07-.28.16-.4.08-.12.2-.21.33-.27.13-.06.28-.08.42-.07,1.28.07,2.57.07,3.85,0,1.47-.07,2.93.37,4.12,1.24,1.19.87,2.04,2.12,2.42,3.55.33,1.21.72,2.41,1.17,3.58.05.13.07.28.05.42-.02.14-.07.28-.16.4-.08.12-.2.21-.33.27s-.28.09-.42.08c-1.28-.07-2.57-.07-3.85,0-1.46.08-2.91-.33-4.12-1.17" style="fill:#2a7de1;"/><path d="m31.84,33.89c-1.28-.07-2.57-.07-3.85,0-1.47.07-2.93-.37-4.12-1.24-1.19-.87-2.04-2.12-2.42-3.55-.32-1.24-.71-2.47-1.17-3.67-.05-.13-.07-.28-.05-.42.02-.14.07-.28.16-.39l12.21,8.93c-.08.12-.2.21-.33.27-.13.06-.28.08-.42.07" style="fill:#2356a6;"/><path d="m23.87,43.94c-1.18-.88-2.03-2.13-2.42-3.54-.32-1.24-.71-2.47-1.17-3.67-.05-.13-.07-.28-.05-.42.02-.14.07-.28.16-.4.08-.12.2-.21.33-.27.13-.06.28-.08.42-.07,1.28.07,2.57.07,3.85,0,1.47-.07,2.93.37,4.12,1.24,1.19.87,2.04,2.12,2.42,3.55.33,1.24.71,2.46,1.17,3.66.05.13.07.28.05.42-.02.14-.07.28-.16.4-.08.12-.2.21-.33.27s-.28.09-.42.08c-1.28-.07-2.57-.07-3.85,0-1.47.06-2.92-.38-4.12-1.24" style="fill:#2a7de1;"/><path d="m31.84,45.18c-1.28-.07-2.57-.07-3.85,0-1.47.07-2.93-.37-4.12-1.24-1.19-.87-2.04-2.12-2.42-3.55-.32-1.24-.71-2.47-1.17-3.67-.05-.13-.07-.28-.05-.42.02-.14.07-.28.16-.39l12.21,8.93c-.08.12-.2.21-.33.27-.13.06-.28.08-.42.07" style="fill:#2356a6;"/><path d="m23.87,55.21c-1.18-.88-2.03-2.13-2.42-3.54-.32-1.24-.71-2.47-1.17-3.67-.05-.13-.07-.28-.05-.42.02-.14.07-.28.16-.4.08-.12.2-.21.33-.27.13-.06.28-.09.42-.08,1.28.07,2.57.07,3.85,0,1.47-.07,2.93.36,4.12,1.24,1.19.87,2.04,2.13,2.42,3.55.33,1.24.71,2.46,1.17,3.66.05.13.07.28.05.42-.02.14-.07.28-.16.4-.08.12-.2.21-.33.27-.13.06-.28.09-.42.08-1.28-.07-2.57-.07-3.85,0-1.47.06-2.92-.37-4.12-1.23" style="fill:#2a7de1;"/><path d="m31.84,56.48c-1.28-.07-2.57-.07-3.85,0-1.47.07-2.93-.37-4.12-1.24-1.19-.87-2.04-2.12-2.42-3.55-.32-1.24-.71-2.47-1.17-3.67-.05-.13-.07-.28-.05-.42.02-.14.07-.28.16-.39l12.21,8.93c-.08.12-.2.21-.33.27-.13.06-.28.08-.42.07" style="fill:#2356a6;"/><rect x="34.01" y="50.05" width="2.53" height="8.74" style="fill:#ccd8e4;"/></g><path d="m66.78,1c1.53,0,2.78,1.25,2.78,2.78v63c0,1.53-1.25,2.78-2.78,2.78H3.78c-1.53,0-2.78-1.25-2.78-2.78V3.78c0-1.53,1.25-2.78,2.78-2.78h63m0-1H3.78C1.69,0,0,1.69,0,3.78v63c0,2.09,1.69,3.78,3.78,3.78h63c2.09,0,3.78-1.69,3.78-3.78V3.78c0-2.09-1.69-3.78-3.78-3.78h0Z" style="fill:#d8e0eb;"/></g></svg>