<?xml version="1.0" encoding="UTF-8"?><svg id="uuid-cdfe8f17-280d-4c0a-8b51-c0e5fb3507d3" xmlns="http://www.w3.org/2000/svg" width="70.55" height="70.55" viewBox="0 0 70.55 70.55"><g id="uuid-5e6a6f08-30f8-4499-9580-ee1e28e195d7"><path d="m55.66,31.47c0-4.4-2.75-7.84-6.27-7.84-.03,0-.06,0-.09,0,.06-.56.09-1.13.09-1.7,0-2.63-.65-5.14-1.84-7.08-1.46-2.39-3.65-3.76-6-3.76s-4.54,1.37-6,3.76c-.09.15-.18.31-.27.47-.09-.16-.18-.32-.27-.47-1.46-2.39-3.65-3.76-6-3.76s-4.54,1.37-6,3.76c-1.18,1.94-1.84,4.46-1.84,7.08,0,.57.03,1.14.09,1.7-.03,0-.06,0-.09,0-3.52,0-6.27,3.44-6.27,7.84,0,1.33.25,2.57.7,3.65.58,1.4.87,2.91.87,4.43v18.57h37.63v-18.57c0-1.52.29-3.03.87-4.43.45-1.09.7-2.33.7-3.65Z" style="fill:#2a7de1;"/><path d="m45.03,37.28c-.86-.25-1.58-.85-1.96-1.65-1.38-2.92-4.35-4.95-7.8-4.95s-6.42,2.02-7.8,4.95c-.38.81-1.1,1.4-1.96,1.65-3.42,1-5.92,4.16-5.92,7.9,0,4.56,3.76,8.28,8.31,8.23,1.72-.02,3.32-.56,4.63-1.48,1.65-1.15,3.82-1.15,5.47,0,1.31.92,2.91,1.46,4.63,1.48,4.56.04,8.31-3.68,8.31-8.23,0-3.74-2.5-6.9-5.92-7.9Z" style="fill:#d8e0eb;"/><path d="m41.55,29.64c2.6,0,4.7-3.45,4.7-7.71s-2.11-7.71-4.7-7.71-4.7,3.45-4.7,7.71,2.11,7.71,4.7,7.71Z" style="fill:#d8e0eb;"/><path d="m29.01,29.64c2.6,0,4.7-3.45,4.7-7.71s-2.11-7.71-4.7-7.71-4.7,3.45-4.7,7.71,2.11,7.71,4.7,7.71Z" style="fill:#d8e0eb;"/><path d="m49.39,36.17c1.73,0,3.14-2.11,3.14-4.7s-1.4-4.7-3.14-4.7-3.14,2.11-3.14,4.7,1.4,4.7,3.14,4.7Z" style="fill:#d8e0eb;"/><path d="m21.17,36.17c1.73,0,3.14-2.11,3.14-4.7s-1.4-4.7-3.14-4.7-3.14,2.11-3.14,4.7,1.4,4.7,3.14,4.7Z" style="fill:#d8e0eb;"/><path d="m41.55,11.08c2.36,0,4.54,1.37,6,3.76,1.18,1.94,1.84,4.46,1.84,7.08,0,.56-.03,1.13-.09,1.7h0s.03,0,.04,0c0,0,0,0,0,0,.02,0,.04,0,.06,0,3.51.01,6.25,3.46,6.25,7.84,0,1.28-.24,2.54-.7,3.65-.58,1.39-.87,2.89-.87,4.43v17s0,0,0,0v1.57h-1.57s0,0,0,0,0,0,0,0h-1.57v-1.57h0v-17c0-1.96.37-3.85,1.11-5.63.3-.73.46-1.58.46-2.46,0-2.57-1.39-4.67-3.1-4.7-.03,0-.05,0-.08,0l-1.78.03c-.45,0-.88-.18-1.19-.51-.3-.33-.45-.78-.4-1.23l.19-1.77c.05-.46.08-.92.08-1.36,0-2.06-.49-3.99-1.38-5.45-.88-1.43-2.09-2.26-3.33-2.26-.87,0-1.57-.7-1.57-1.57s.7-1.57,1.57-1.57Z" style="fill:#2356a6;"/><path d="m66.78,1c1.53,0,2.78,1.25,2.78,2.78v63c0,1.53-1.25,2.78-2.78,2.78H3.78c-1.53,0-2.78-1.25-2.78-2.78V3.78c0-1.53,1.25-2.78,2.78-2.78h63m0-1H3.78C1.69,0,0,1.69,0,3.78v63c0,2.09,1.69,3.78,3.78,3.78h63c2.09,0,3.78-1.69,3.78-3.78V3.78c0-2.09-1.69-3.78-3.78-3.78h0Z" style="fill:#d8e0eb;"/></g></svg>