<?xml version="1.0" encoding="UTF-8"?><svg id="uuid-bae1681f-e8f9-42f0-8fb0-bf3f2e954c03" xmlns="http://www.w3.org/2000/svg" width="70.55" height="70.55" viewBox="0 0 70.55 70.55"><g id="uuid-41637bd8-121b-410b-8b04-a7b0c633cd29"><path d="m20.75,14.9c.84-.85,1.85-1.52,2.95-1.98,1.1-.46,2.29-.69,3.48-.69s2.38.24,3.48.69c1.1.46,2.11,1.13,2.95,1.98l1.66,1.65,1.63-1.63c.84-.85,1.85-1.52,2.95-1.98,1.1-.46,2.29-.69,3.48-.69s2.38.24,3.48.69c1.1.46,2.11,1.13,2.95,1.98h0c1.71,1.71,2.66,4.02,2.66,6.43s-.96,4.72-2.66,6.43l-1.63,1.63-11.09,11.09c-.47.47-1.11.74-1.78.74s-1.31-.26-1.78-.74l-11.09-11.09-1.66-1.65c-1.71-1.71-2.66-4.02-2.66-6.43s.96-4.72,2.66-6.43h0Z" style="fill:#2a7de1;"/><path d="m49.81,14.9c-1.22-1.22-2.77-2.06-4.46-2.42.18.16.36.31.53.48,1.71,1.71,2.66,4.02,2.66,6.43s-.96,4.72-2.66,6.43l-1.66,1.62-11.09,11.09c-.28.28-.62.49-.99.61l1.36,1.36c.47.47,1.11.74,1.78.74s1.31-.27,1.78-.74l11.09-11.09,1.66-1.65c1.71-1.71,2.66-4.02,2.66-6.43s-.96-4.72-2.66-6.43h0Z" style="fill:#2356a6;"/><path d="m56.53,17.64c-.59.03-1.15.28-1.56.71s-.63,1-.62,1.59v9.82c0,.26-.05.52-.15.75-.1.24-.25.46-.43.64l-9.62,9.62c-.73.73-1.31,1.59-1.7,2.54-.39.95-.6,1.97-.6,3v4.02h10.14v-2.6c0-.95.35-1.87.97-2.59l4.84-5.55c.62-.71.97-1.63.97-2.58v-17.15c0-.29-.06-.58-.17-.86-.11-.27-.28-.52-.49-.72-.21-.21-.46-.37-.73-.48-.27-.11-.56-.17-.86-.17Z" style="fill:#e2b49c;"/><path d="m57.68,17.94c.09.24.13.49.13.75v17.15c0,.95-.35,1.86-.97,2.58l-4.84,5.55c-.62.72-.97,1.64-.97,2.59v3.78h.98v-2.6c0-.95.35-1.87.97-2.59l4.84-5.55c.62-.71.97-1.63.97-2.58v-17.15c0-.39-.1-.77-.3-1.11-.2-.34-.48-.62-.81-.81h0Z" style="fill:#cea18a;"/><path d="m54.8,33.2c-.33-.31-.75-.51-1.19-.58-.45-.07-.91,0-1.31.2.2.1.38.22.54.38.21.21.38.45.49.73.11.27.17.56.17.86s-.06.59-.17.86c-.11.27-.28.52-.49.73l-4.97,5c-.07.07-.12.14-.16.23-.04.09-.06.18-.06.27s.02.19.06.27c.04.09.09.16.16.23.13.12.3.19.48.19s.35-.07.48-.19l5.98-5.98c.21-.21.38-.46.5-.73.12-.27.17-.57.17-.87,0-.3-.06-.59-.18-.87-.12-.27-.29-.52-.5-.73Z" style="fill:#cea18a;"/><path d="m54.41,57.34v-6.02c0-.54-.44-.98-.98-.98h-13.02c-.54,0-.98.44-.98.98v6.02c0,.54.44.98.98.98h13.02c.54,0,.98-.44.98-.98Z" style="fill:#d8e0eb;"/><path d="m18.57,47.73v2.6h10.14v-4.02c0-1.03-.2-2.05-.6-3-.39-.95-.97-1.82-1.7-2.54l-9.62-9.62c-.18-.18-.33-.4-.43-.64-.1-.24-.15-.5-.15-.75v-9.82c0-.59-.22-1.16-.62-1.59-.41-.43-.96-.68-1.56-.71-.3,0-.59.05-.86.16-.27.11-.52.27-.74.48-.21.21-.38.45-.49.73-.11.27-.17.57-.17.86v17.15c0,.95.35,1.86.97,2.58l4.84,5.55c.63.72.98,1.64.99,2.59h0Z" style="fill:#e2b49c;"/><path d="m27.72,50.33h.98v-4.02c0-1.03-.2-2.05-.6-3-.39-.95-.97-1.82-1.7-2.54l-.98-.98c.73.73,1.31,1.59,1.7,2.54.39.95.6,1.97.6,3v5Z" style="fill:#cea18a;"/><path d="m15.76,33.2c.34-.32.76-.53,1.22-.6.46-.07.93.01,1.34.22-.2.1-.38.22-.54.38-.21.21-.38.45-.49.73-.11.27-.17.56-.17.86s.06.59.17.86c.11.27.28.52.49.73l4.9,5c.07.07.12.14.16.23.04.09.06.18.06.27s-.02.19-.06.27c-.04.09-.09.16-.16.23h0c-.13.12-.3.19-.48.19s-.35-.07-.48-.19l-5.98-5.98c-.21-.21-.38-.46-.5-.73-.12-.28-.17-.57-.17-.87,0-.3.06-.59.18-.87.12-.27.29-.52.5-.73h0Z" style="fill:#cea18a;"/><path d="m31.12,57.34v-6.02c0-.54-.44-.98-.98-.98h-13.02c-.54,0-.98.44-.98.98v6.02c0,.54.44.98.98.98h13.02c.54,0,.98-.44.98-.98Z" style="fill:#d8e0eb;"/><path d="m35.28,30.98c3.47,0,6.29-2.81,6.29-6.29s-2.81-6.29-6.29-6.29-6.29,2.81-6.29,6.29,2.81,6.29,6.29,6.29Z" style="fill:#9eb3c7;"/><path d="m35.28,29.69c2.76,0,4.99-2.23,4.99-4.99s-2.23-4.99-4.99-4.99-4.99,2.23-4.99,4.99,2.23,4.99,4.99,4.99Z" style="fill:#d8e0eb;"/><path d="m35.79,24.16h-.23v-1.96h.23c.13,0,.26.03.37.07.12.05.23.12.32.21.09.09.16.2.21.32.05.12.07.25.07.37.01.07.05.12.1.17.05.04.12.07.18.07s.13-.02.18-.07c.05-.04.09-.1.1-.17,0-.41-.16-.8-.45-1.09-.29-.29-.68-.45-1.09-.45h-.23v-.25c0-.07-.03-.14-.08-.2-.05-.05-.12-.08-.2-.08s-.14.03-.2.08c-.05.05-.08.12-.08.2v.23h-.23c-.41,0-.8.16-1.09.45-.29.29-.45.68-.45,1.09s.16.8.45,1.09c.29.29.68.45,1.09.45h.23v2.42h-.23c-.13,0-.26-.03-.37-.07-.12-.05-.23-.12-.32-.21-.09-.09-.16-.2-.21-.32-.05-.12-.07-.25-.07-.37-.01-.07-.05-.12-.1-.17-.05-.04-.12-.07-.18-.07s-.13.02-.18.07c-.05.04-.09.1-.1.17,0,.41.16.8.45,1.09.29.29.68.45,1.09.45h.23v.23c0,.07.03.14.08.2.05.05.12.08.2.08s.14-.03.2-.08c.05-.05.08-.12.08-.2v-.23h.23c.39,0,.77-.15,1.05-.42.29-.27.46-.63.48-1.03v-.5c0-.2-.03-.41-.11-.6-.08-.19-.19-.36-.33-.51-.14-.15-.31-.26-.5-.34-.19-.08-.39-.12-.6-.12h0Zm-1.02,0c-.26,0-.51-.1-.69-.29-.18-.18-.29-.43-.29-.69s.1-.51.29-.69c.18-.18.43-.29.69-.29h.23v1.96h-.23Zm1.99,2.07c0,.13-.02.26-.07.37-.05.12-.12.23-.21.32-.09.09-.2.16-.32.21-.12.05-.25.07-.37.07h-.23v-2.42h.23c.13,0,.26.03.37.07.12.05.23.12.32.21.09.09.16.2.21.32.05.12.07.25.07.37v.46Z" style="fill:#2a7de1;"/><path d="m66.78,1c1.53,0,2.78,1.25,2.78,2.78v63c0,1.53-1.25,2.78-2.78,2.78H3.78c-1.53,0-2.78-1.25-2.78-2.78V3.78c0-1.53,1.25-2.78,2.78-2.78h63m0-1H3.78C1.69,0,0,1.69,0,3.78v63c0,2.09,1.69,3.78,3.78,3.78h63c2.09,0,3.78-1.69,3.78-3.78V3.78c0-2.09-1.69-3.78-3.78-3.78h0Z" style="fill:#d8e0eb;"/></g></svg>