<?xml version="1.0" encoding="UTF-8"?><svg id="uuid-c157da2c-f0a9-4527-8c17-73d725ef11e3" xmlns="http://www.w3.org/2000/svg" width="70.55" height="70.55" xmlns:xlink="http://www.w3.org/1999/xlink" viewBox="0 0 70.55 70.55"><defs><clipPath id="uuid-27add847-4107-410c-9d27-85071fc9fe97"><rect x="14.7" y="9.07" width="39.57" height="47.04" style="fill:none;"/></clipPath></defs><g id="uuid-07d47656-d450-4cfd-84b0-4b1c91a833b1"><g style="clip-path:url(#uuid-27add847-4107-410c-9d27-85071fc9fe97);"><path d="m54.18,32.06c-.3-3.39-1.39-6.3-3.38-7.98-1-.85-2.13-1.53-3.35-2.02l-.31-.1c-1.94-.69-4.01-.87-6.04-.52-2.36.41-4.61,1.3-6.61,2.63-.43-.3-8.97-6.17-16.32,0-1.98,1.68-3.06,4.58-3.36,7.96-.87,9.46,4.33,22.73,12.84,23.95,2.27.16,4.54.16,6.81,0,.34,0,2.59.16,4.62.13.7,0,1.39-.04,2.08-.12h.13c8.54-1.19,13.75-14.46,12.89-23.93Z" style="fill:#2a7de1;"/><path d="m41.29,55.99h-.13c-.69.08-1.38.12-2.08.12-2.03.03-4.28-.13-4.62-.13-2.27.16-4.54.16-6.81,0-8.51-1.22-13.71-14.49-12.84-23.95.71,8.75,5.56,18.6,12.84,19.64,2.27.17,4.54.17,6.81,0,.34,0,2.59.16,4.62.13.7,0,1.39-.04,2.08-.12h.13c7.31-1.02,12.18-10.87,12.89-19.62.86,9.47-4.35,22.74-12.89,23.93Z" style="fill:#2356a6;"/><path d="m54.18,32.06c-.71,8.75-5.58,18.6-12.89,19.62h-.13c-.69.08-1.38.12-2.08.12-2.03.03-4.28-.13-4.62-.13-2.27.17-4.54.17-6.81,0-7.28-1.04-12.13-10.89-12.84-19.64.3-3.38,1.38-6.28,3.36-7.96,7.35-6.17,15.89-.3,16.32,0,2-1.33,4.25-2.22,6.61-2.63,2.03-.35,4.1-.17,6.04.52l.31.1c1.22.49,2.35,1.17,3.35,2.02,1.99,1.68,3.08,4.59,3.38,7.98Z" style="fill:#2a7de1;"/><path d="m34.59,20.4v.16h.08c1.74,0,12.14-.26,12.47-11.37v-.08c-11.01-.84-12.38,9.54-12.55,11.28" style="fill:#dfe7f4;"/></g><path d="m66.78,1c1.53,0,2.78,1.25,2.78,2.78v63c0,1.53-1.25,2.78-2.78,2.78H3.78c-1.53,0-2.78-1.25-2.78-2.78V3.78c0-1.53,1.25-2.78,2.78-2.78h63m0-1H3.78C1.69,0,0,1.69,0,3.78v63c0,2.09,1.69,3.78,3.78,3.78h63c2.09,0,3.78-1.69,3.78-3.78V3.78c0-2.09-1.69-3.78-3.78-3.78h0Z" style="fill:#d8e0eb;"/></g></svg>