<svg width="133" height="95" viewBox="0 0 133 95" fill="none" xmlns="http://www.w3.org/2000/svg">
<path d="M24.1089 59.3584V50.2162H0.988281V59.3584H24.1089Z" fill="white"/>
<path d="M45.2766 95C56.7375 95 62.5674 89.2364 62.5674 77.643V48.825C62.5674 39.0865 57.7975 34.1841 49.1852 34.1841C45.3428 34.1841 42.2291 35.1778 39.5792 37.364L40.7054 10.401H61.4411V1.12622H30.0395L28.317 54.7873L38.5192 55.7148C39.6455 45.5788 41.7654 42.9289 45.8728 42.9289C49.5827 42.9289 51.5039 45.4463 51.5039 50.8124V77.643C51.5039 83.539 49.4502 86.3215 45.2766 86.3215C41.0367 86.3215 38.6517 83.4066 38.6517 76.1855V64.592L27.7208 66.5795V76.9142C27.7208 89.7001 33.7494 95 45.2766 95Z" fill="white"/>
<path d="M81.1513 46.9038C90.5586 46.9038 95.3947 41.9351 95.3947 32.0642V14.9059C95.3947 4.96862 90.5586 0 81.1513 0C71.8103 0 67.0404 4.96862 67.0404 14.9059V32.0642C67.0404 41.9351 71.8103 46.9038 81.1513 46.9038ZM88.7036 93.8738L120.967 1.12622H110.698L78.4351 93.8738H88.7036ZM81.2176 39.219C78.3689 39.219 76.9114 37.0328 76.9114 32.6604V14.3096C76.9114 9.80474 78.3689 7.61855 81.2176 7.61855C84.0662 7.61855 85.4575 9.80474 85.4575 14.3096V32.6604C85.4575 37.0328 84.0662 39.219 81.2176 39.219ZM118.25 94.5363C127.658 94.5363 132.494 89.5676 132.494 79.6967V62.5384C132.494 52.6011 127.658 47.6325 118.25 47.6325C108.909 47.6325 104.139 52.6011 104.139 62.5384V79.6967C104.139 89.5676 108.909 94.5363 118.25 94.5363ZM118.317 86.8515C115.468 86.8515 114.01 84.6653 114.01 80.2929V61.9421C114.01 57.4372 115.468 55.251 118.317 55.251C121.165 55.251 122.556 57.4372 122.556 61.9421V80.2929C122.556 84.6653 121.165 86.8515 118.317 86.8515Z" fill="white"/>
</svg>
