<svg width="48" height="74" viewBox="0 0 48 74" fill="none" xmlns="http://www.w3.org/2000/svg">
<g clip-path="url(#clip0_734_12625)">
<path d="M35.9977 0.5H12.0023H0V24.439H12.0023V12.4695H35.9977V24.439H48V0.5H35.9977Z" fill="#2A7DE1"/>
<path d="M26.265 18.4497H21.735C19.6716 18.4497 17.9988 20.1179 17.9988 22.1756V38.6628C17.9988 40.7206 19.6716 42.3887 21.735 42.3887H26.265C28.3285 42.3887 30.0012 40.7206 30.0012 38.6628V22.1756C30.0012 20.1179 28.3285 18.4497 26.265 18.4497Z" fill="#2A7DE1"/>
<path d="M35.9977 44.4379L23.8365 56.5751L12.0023 44.7733V30.4192H0V49.7846H0.056042L23.8365 73.5001L47.944 49.4493H48V30.4192H35.9977V44.4379Z" fill="#2A7DE1"/>
</g>
<defs>
<clipPath id="clip0_734_12625">
<rect y="0.5" width="48" height="73" fill="white"/>
</clipPath>
</defs>
</svg>
