<svg width="23" height="23" viewBox="0 0 23 23" fill="none" xmlns="http://www.w3.org/2000/svg">
<path d="M19.5 11.8054V17.3054C19.5 18.41 18.6046 19.3054 17.5 19.3054H5.5C4.39543 19.3054 3.5 18.41 3.5 17.3054V11.5276V6.30542C3.5 5.20085 4.39543 4.30542 5.5 4.30542H10.6111" stroke="#CBD2D9" stroke-width="2" stroke-linecap="round"/>
<path fill-rule="evenodd" clip-rule="evenodd" d="M14.7153 4.69144C14.7282 4.88316 14.8122 5.05968 14.9512 5.18725C15.0331 5.2742 15.1351 5.34017 15.2493 5.38004C15.3635 5.41991 15.4868 5.43261 15.6098 5.41715L17.1323 5.22201L10.6486 11.6543C10.2565 12.0433 10.2565 12.6739 10.6486 13.0629C11.0406 13.4519 11.6763 13.4519 12.0684 13.0629L18.5833 6.59969L18.3661 8.11314C18.346 8.21964 18.3476 8.32795 18.3709 8.43153C18.3942 8.5351 18.4387 8.6318 18.5017 8.71578C18.5647 8.79976 18.6449 8.86929 18.7374 8.92016C18.83 8.97103 18.933 9.0022 19.0402 9.01179C19.1475 9.02137 19.2567 9.00917 19.3613 8.97592C19.466 8.94267 19.5639 8.88905 19.6491 8.81832C19.7343 8.74759 19.8051 8.66119 19.8572 8.56436C19.9093 8.46752 19.9416 8.36224 19.9522 8.25488L20.4541 4.60376C20.4813 4.43326 20.4691 4.26093 20.4184 4.09993C20.3678 3.93892 20.28 3.79352 20.1618 3.67484C20.0426 3.55848 19.8977 3.47085 19.7373 3.41812C19.5769 3.36539 19.4049 3.34884 19.2334 3.36963L15.4667 3.85113C15.2613 3.8735 15.0684 3.97346 14.9284 4.13008C14.7883 4.28671 14.712 4.48786 14.7153 4.69144Z" fill="#1F2933"/>
</svg>
