<svg width="32" height="32" viewBox="0 0 32 32" fill="none" xmlns="http://www.w3.org/2000/svg">
<path d="M24.1421 12.3797H23.2899C23.2899 12.0992 23.3414 11.8298 23.3414 11.5219C23.3414 7.37606 20.1383 4 16.2031 4C12.2679 4 9.06485 7.37606 9.06485 11.5219C9.06456 11.8085 9.08174 12.095 9.11632 12.3797H8.26408C8.09787 12.3789 7.93315 12.4099 7.77945 12.4707C7.62574 12.5315 7.48609 12.621 7.36856 12.734C7.25103 12.8469 7.15795 12.9812 7.09469 13.1289C7.03143 13.2767 6.99926 13.435 7.00001 13.5948V26.3678C7.00001 26.69 7.13319 26.9991 7.37025 27.227C7.60731 27.4549 7.92883 27.5829 8.26408 27.5829H24.1421C24.4774 27.5829 24.7989 27.4549 25.036 27.227C25.273 26.9991 25.4062 26.69 25.4062 26.3678V13.5948C25.4069 13.435 25.3748 13.2767 25.3115 13.1289C25.2483 12.9812 25.1552 12.8469 25.0376 12.734C24.9201 12.621 24.7805 12.5315 24.6268 12.4707C24.4731 12.4099 24.3083 12.3789 24.1421 12.3797ZM17.0782 19.5552V22.9862C17.0782 23.2093 16.986 23.4233 16.8219 23.5811C16.6578 23.7388 16.4352 23.8275 16.2031 23.8275C15.971 23.8275 15.7484 23.7388 15.5843 23.5811C15.4202 23.4233 15.328 23.2093 15.328 22.9862V19.5552C14.9875 19.3694 14.7206 19.0806 14.5688 18.7338C14.4169 18.3869 14.3888 18.0015 14.4887 17.6377C14.5886 17.2738 14.811 16.952 15.1211 16.7223C15.4312 16.4927 15.8116 16.3682 16.2031 16.3682C16.5946 16.3682 16.975 16.4927 17.2851 16.7223C17.5952 16.952 17.8176 17.2738 17.9175 17.6377C18.0174 18.0015 17.9893 18.3869 17.8374 18.7338C17.6856 19.0806 17.4187 19.3694 17.0782 19.5552ZM20.8533 12.4072H11.5529C11.5097 12.1231 11.4868 11.8365 11.4843 11.5494C11.4843 8.68469 13.6006 6.35334 16.2031 6.35334C18.8056 6.35334 20.9219 8.68469 20.9219 11.5494C20.9181 11.8273 20.8952 12.1047 20.8533 12.3797V12.4072Z" fill="#2A7DE1"/>
</svg>
