<svg width="16" height="16" viewBox="0 0 16 16" fill="none" xmlns="http://www.w3.org/2000/svg">
  <path
    d="M1.43003 7.30027C1.22003 7.30027 1.02003 7.22027 0.870026 7.05027C0.590026 6.74027 0.620026 6.27027 0.930026 5.99027C2.90003 4.22027 5.45003 3.25027 8.10003 3.25027C10.75 3.25027 13.29 4.22027 15.27 5.99027C15.58 6.27027 15.6 6.74027 15.33 7.05027C15.06 7.36027 14.58 7.38027 14.27 7.11027C12.57 5.59027 10.38 4.75027 8.10003 4.75027C5.82003 4.75027 3.63003 5.59027 1.93003 7.11027C1.79003 7.24027 1.61003 7.30027 1.43003 7.30027Z"
    fill="#1e75df" />
  <path
    d="M12.67 9.64027C12.48 9.64027 12.29 9.57027 12.14 9.43027C11.03 8.34027 9.56001 7.74026 8.00001 7.74026C6.44001 7.74026 4.97001 8.34027 3.86001 9.43027C3.56001 9.72027 3.09001 9.72027 2.80001 9.42027C2.51001 9.12027 2.51001 8.65026 2.81001 8.36026C4.20001 6.99026 6.05001 6.24026 8.00001 6.24026C9.95001 6.24026 11.8 6.99026 13.19 8.36026C13.49 8.65026 13.49 9.12027 13.19 9.42027C13.04 9.57027 12.85 9.64026 12.65 9.65026L12.67 9.64027Z"
    fill="#1e75df" />
  <path
    d="M10.3298 11.7003C10.1398 11.7003 9.94984 11.6303 9.79984 11.4903C8.82984 10.5403 7.15984 10.5403 6.17984 11.4903C5.88984 11.7803 5.40984 11.7803 5.11984 11.4903C4.82984 11.1903 4.82984 10.7203 5.11984 10.4303C5.88984 9.68028 6.89984 9.26028 7.97984 9.26028C9.05984 9.26028 10.0698 9.68028 10.8398 10.4303C11.1398 10.7203 11.1398 11.1903 10.8398 11.4903C10.6898 11.6403 10.4998 11.7103 10.2998 11.7103L10.3298 11.7003Z"
    fill="#1e75df" />
  <path
    d="M8 14.0003C8.55228 14.0003 9 13.5526 9 13.0003C9 12.448 8.55228 12.0003 8 12.0003C7.44772 12.0003 7 12.448 7 13.0003C7 13.5526 7.44772 14.0003 8 14.0003Z"
    fill="#1e75df" />
</svg>