<svg width="36" height="36" viewBox="0 0 36 36" fill="none" xmlns="http://www.w3.org/2000/svg">
<rect x="5" y="5" width="26" height="26" rx="2.23232" fill="#B8D8FF"/>
<path fill-rule="evenodd" clip-rule="evenodd" d="M19.8879 16.7726C21.6055 16.1046 22.8384 14.5432 22.8384 12.6593C22.6049 6.38412 12.5244 6.97413 13.3061 13.3653C15.0515 13.38 16.8226 14.244 17.8298 15.7864C18.2228 15.7561 18.6166 15.8304 18.9759 16.0025C19.3352 16.1747 19.6486 16.4393 19.8879 16.7726ZM27.75 18.669C27.7223 23.269 21.1861 24.7125 18.8371 20.9511C19.16 20.852 19.4596 20.6817 19.7165 20.4511C19.9734 20.2206 20.1818 19.935 20.3282 19.6129C20.4745 19.2909 20.5555 18.9396 20.566 18.582C20.5764 18.2244 20.5159 17.8685 20.3886 17.5375C21.8628 16.9306 22.9948 15.719 23.4321 14.2355C25.8562 14.4567 27.75 16.3574 27.75 18.669ZM15.4274 18.5784C15.4264 18.558 15.4264 18.5376 15.4274 18.5173C15.4276 17.9976 15.5782 17.4906 15.8586 17.0653C16.1391 16.64 16.5358 16.3171 16.9947 16.1404C14.5389 12.6782 8.25 14.1849 8.25 18.669C8.25 20.9511 10.0844 22.8202 12.4591 23.0899C12.4591 21.1176 13.6741 19.4086 15.4274 18.5784ZM13.2902 23.9686C14.0956 29.0111 21.9835 29.0132 22.7889 23.9686C20.719 23.9813 18.9004 22.8792 18 21.2567C17.4861 21.256 16.9862 21.0786 16.5747 20.7509C16.1632 20.4233 15.8622 19.9628 15.7163 19.4381C14.0541 20.281 12.9914 22.0721 13.2902 23.9686Z" fill="#307FE2"/>
<rect x="5" y="12" width="26" height="2" fill="#E6F1FF"/>
<rect x="5" y="7" width="26" height="2" fill="#E6F1FF"/>
<rect x="5" y="17" width="26" height="2" fill="#E6F1FF"/>
<rect x="5" y="22" width="26" height="2" fill="#E6F1FF"/>
<rect x="5" y="27" width="26" height="2" fill="#E6F1FF"/>
</svg>
