<?xml version="1.0" encoding="utf-8"?>
<!-- Generator: Adobe Illustrator 27.5.0, SVG Export Plug-In . SVG Version: 6.00 Build 0)  -->
<svg version="1.1" id="Layer_2_00000062900283267483822360000009478708761025992121_"
	 xmlns="http://www.w3.org/2000/svg" xmlns:xlink="http://www.w3.org/1999/xlink" x="0px" y="0px" viewBox="0 0 616.2 800.7"
	 style="enable-background:new 0 0 616.2 800.7;" xml:space="preserve">
<style type="text/css">
	.st0{opacity:0.1;}
	.st1{fill:#2A7DE1;}
</style>
<g id="Layer_1-2" class="st0">
	<path class="st1" d="M495.5,97.1L133.2,0L68.5,241.5l120.8,32.4l32.4-120.7l241.5,64.7l-32.4,120.7L551.5,371l64.7-241.5
		L495.5,97.1z"/>
	<path class="st1" d="M287.7,235.5l76.9,20.6c12.1,3.2,19.3,15.7,16,27.8l-53,197.7c-3.2,12.1-15.7,19.3-27.8,16L223,477
		c-12.1-3.2-19.3-15.7-16-27.8l53-197.7C263.2,239.4,275.6,232.3,287.7,235.5z"/>
	<path class="st1" d="M376.7,540.4L221.4,630l-87.1-151l38.8-144.8L52.4,301.8L0,497.2l0.6,0.1l175.1,303.4l0,0l0,0l307.6-177.6
		l0.5,0.1l51.5-192l-120.7-32.4L376.7,540.4z"/>
</g>
</svg>
