<svg width="48" height="48" viewBox="0 0 48 48" fill="none" xmlns="http://www.w3.org/2000/svg">
<g clip-path="url(#clip0_173_1069)">
<path fill-rule="evenodd" clip-rule="evenodd" d="M10.7169 34.0202C12.6706 34.0202 13.661 36.4503 12.2745 37.8771C10.8879 39.2946 8.52 38.2821 8.52 36.2754C8.52 35.0327 9.51039 34.0202 10.7259 34.0202H10.7169ZM10.7169 30.5591C15.6598 30.5591 18.1808 36.7172 14.6514 40.3256C11.14 43.9156 5.13469 41.3474 5.13469 36.2754C5.13469 33.1273 7.63766 30.5591 10.7169 30.5591ZM37.1421 34.0202C39.0959 34.0202 40.0863 36.4503 38.6907 37.8771C37.3042 39.2946 34.9362 38.2821 34.9362 36.2754C34.9362 35.0327 35.9266 34.0202 37.1421 34.0202ZM37.1421 30.5591C42.085 30.5591 44.606 36.7172 41.0766 40.3256C37.5653 43.9156 31.5599 41.3474 31.5599 36.2754C31.5599 33.1273 34.0629 30.5591 37.1421 30.5591ZM44.8221 32.7591C48.1624 32.7591 47.8202 32.5658 47.8202 36.3766C47.8202 37.9875 45.2092 37.5549 45.0472 37.3708C44.687 36.9658 45.3533 35.8336 44.4079 33.385C44.2909 33.0813 44.507 32.7591 44.8221 32.7591ZM18.3968 32.7591H29.4441C30.5425 32.7591 29.12 34.2871 29.3631 37.021L28.9219 37.5181H18.9551C18.0187 37.5181 19.0451 36.1465 17.9917 33.385C17.8746 33.0813 18.0907 32.7591 18.4058 32.7591H18.3968ZM1.15515 32.7591C5.26974 32.7591 2.55969 32.667 2.93784 37.021C3.00086 37.7114 1.99247 37.5181 1.15515 37.5181C-0.321425 37.5181 0.0387143 35.5298 0.0387143 33.9005C0.0387143 33.2654 0.533906 32.7591 1.15515 32.7591ZM30.0474 29.3256V12.057C30.0474 11.4218 30.5515 10.9156 31.1638 10.9156H43.5346C45.0022 10.9156 45.0022 13.2076 43.5346 13.2076H41.2927L42.5712 20.9766C42.9674 23.3792 48.0003 21.216 48.0003 23.5909V29.3164C48.0003 29.9515 47.5051 30.4578 46.8839 30.4578H43.0214C41.7789 30.4578 41.0046 28.2578 37.1331 28.2578C33.2616 28.2578 32.6224 30.4578 31.1638 30.4578C30.5515 30.4578 30.0474 29.9423 30.0474 29.3164V29.3256ZM40.3023 20.8846L39.0238 13.2168H32.2802V20.2955C32.2802 20.6453 32.5413 20.9398 32.8835 20.9766L39.5731 21.6762C40.0142 21.7223 40.3744 21.3264 40.3023 20.8754V20.8846Z" fill="#102A43"/>
<path d="M8.18678 16.0887H20.8727C21.3229 16.0887 21.692 15.7113 21.692 15.251L20.9987 12.7472C20.9447 12.5631 20.7827 12.4435 20.6026 12.4435H8.42987C8.2408 12.4435 8.07874 12.5724 8.03372 12.7565L7.37646 15.2602C7.37646 15.7205 7.74561 16.0979 8.19578 16.0979L8.18678 16.0887Z" fill="#2A7DE1"/>
<path d="M20.5936 16.9079H8.42084C8.23177 16.9079 8.0697 17.0368 8.02469 17.2209L7.36743 19.7247C7.36743 20.1849 7.73657 20.5623 8.18675 20.5623H20.8727C21.3228 20.5623 21.692 20.1849 21.692 19.7247L20.9987 17.2209C20.9447 17.0368 20.7826 16.9171 20.6026 16.9171L20.5936 16.9079Z" fill="#2A7DE1"/>
<path d="M20.5936 21.3724H8.42084C8.23177 21.3724 8.0697 21.5013 8.02469 21.6854L7.36743 24.1891C7.36743 24.6494 7.73657 25.0268 8.18675 25.0268H20.8727C21.3228 25.0268 21.692 24.6494 21.692 24.1891L20.9987 21.6854C20.9447 21.5013 20.7826 21.3816 20.6026 21.3816L20.5936 21.3724Z" fill="#2A7DE1"/>
<path d="M24.1587 6H4.90023C2.91946 6 1.29883 7.6569 1.29883 9.68201V27.7791C1.29883 29.6661 2.69437 31.2218 4.47706 31.4335C5.39542 30.1908 6.66491 29.2243 8.12348 28.6996H4.90023C4.40503 28.6996 3.99988 28.2854 3.99988 27.7791V9.68201C3.99988 9.17573 4.40503 8.76151 4.90023 8.76151H24.1587C24.6539 8.76151 25.059 9.17573 25.059 9.68201V27.7791C25.059 28.2854 24.6539 28.6996 24.1587 28.6996H13.3275C14.7861 29.2059 16.0556 30.1632 16.9829 31.4611H24.1587C26.1485 31.4611 27.7601 29.8134 27.7601 27.7791V9.68201C27.7601 7.6569 26.1485 6 24.1587 6Z" fill="#102A43"/>
</g>
<defs>
<clipPath id="clip0_173_1069">
<rect width="48" height="48" fill="white"/>
</clipPath>
</defs>
</svg>
