<svg width="151" height="50" viewBox="0 0 151 50" fill="none" xmlns="http://www.w3.org/2000/svg">
<g clip-path="url(#clip0_400_7644)">
<path d="M23.4653 0.966125H0.303711V16.3359H8.02624V8.65102H23.4653V16.3359H31.1878V0.966125H23.4653Z" fill="#007EE7"/>
<path d="M17.2034 12.4905H14.2887C12.961 12.4905 11.8848 13.5615 11.8848 14.8827V25.4681C11.8848 26.7893 12.961 27.8603 14.2887 27.8603H17.2034C18.531 27.8603 19.6073 26.7893 19.6073 25.4681V14.8827C19.6073 13.5615 18.531 12.4905 17.2034 12.4905Z" fill="#007EE7"/>
<path d="M23.4653 29.176L15.6406 36.9686L8.02624 29.3913V20.1754H0.303711V32.6088H0.339769L15.6406 47.8351L31.1578 32.3935H31.1878V20.1754H23.4653V29.176Z" fill="#007EE7"/>
<path d="M42.8228 22.95V0.989751H50.7857C51.9877 0.955965 53.1844 1.16185 54.3053 1.59527C55.4261 2.0287 56.4485 2.68091 57.3123 3.5135C58.1791 4.35257 58.86 5.36276 59.3112 6.4792C59.7625 7.59565 59.9741 8.79367 59.9325 9.99632V13.9434C59.9727 15.1432 59.7604 16.3382 59.3091 17.4515C58.8579 18.5648 58.1777 19.572 57.3123 20.4083C56.45 21.2441 55.4283 21.8996 54.3074 22.3362C53.1864 22.7727 51.989 22.9814 50.7857 22.95H42.8228ZM47.9611 4.91293V19.0268H50.4431C51.0482 19.0581 51.6523 18.9484 52.2074 18.7065C52.7624 18.4646 53.2531 18.0971 53.6403 17.6334C54.4515 16.578 54.8604 15.2705 54.7942 13.9434V9.96642C54.8599 8.64675 54.4508 7.34699 53.6403 6.3004C53.2519 5.83844 52.7608 5.47263 52.206 5.23184C51.6511 4.99106 51.0476 4.88188 50.4431 4.91293H47.9611ZM66.7235 22.95H61.6032V0.989751H66.7115L66.7235 22.95ZM86.1951 19.9179C85.2851 20.9175 84.1731 21.7144 82.9318 22.2563C81.2402 22.9844 79.4072 23.3296 77.5651 23.267C76.3446 23.3173 75.1265 23.1212 73.9842 22.6905C72.8419 22.2599 71.799 21.6036 70.9184 20.7611C70.0659 19.9109 69.3991 18.8946 68.9596 17.776C68.5201 16.6574 68.3174 15.4605 68.3642 14.2604V9.67936C68.3197 8.48642 68.5176 7.29682 68.9462 6.18183C69.3748 5.06685 70.0251 4.04944 70.8583 3.19056C71.6961 2.35358 72.6987 1.6979 73.8032 1.26464C74.9077 0.83138 76.0902 0.629884 77.2767 0.672787C80.1173 0.672787 82.2447 1.32665 83.659 2.63438C85.1286 4.05235 85.99 5.98108 86.0629 8.01679L86.0329 8.1065H81.2251C81.146 7.12734 80.7543 6.19902 80.1073 5.45715C79.7445 5.14212 79.3221 4.90256 78.8649 4.75259C78.4076 4.60263 77.9248 4.54531 77.4449 4.58401C76.8861 4.56954 76.3321 4.69044 75.8306 4.93631C75.3292 5.18217 74.8953 5.54563 74.5663 5.99539C73.7997 7.05436 73.4143 8.33963 73.4725 9.64347V14.2544C73.4069 15.5703 73.7879 16.8699 74.5542 17.9444C74.9042 18.4015 75.3605 18.7672 75.884 19.0099C76.4074 19.2527 76.9823 19.3652 77.5591 19.3378C78.3052 19.3614 79.0511 19.285 79.7767 19.1105C80.2356 18.9982 80.6669 18.7948 81.0448 18.5125V15.0259H77.5772V11.6708H86.1891L86.1951 19.9179ZM93.2205 22.95H88.1123V0.989751H93.2205V22.95ZM111.37 4.91293H105.547V22.95H100.408V4.91293H94.6569V0.989751H111.394L111.37 4.91293ZM122.194 18.6799H115.24L113.996 22.95H108.84L115.967 0.989751H121.466L128.606 22.95H123.456L122.194 18.6799ZM116.376 14.7627H121.058L118.756 6.90442H118.696L116.376 14.7627ZM134.718 19.0268H144.219V22.95H129.58V0.989751H134.718V19.0268ZM54.5358 42.9487C54.5538 42.611 54.4939 42.2737 54.3605 41.9627C54.2272 41.6517 54.024 41.3752 53.7665 41.1545C52.9161 40.568 51.9795 40.1161 50.99 39.8149C48.1855 38.9417 46.1201 38.0048 44.794 37.0041C44.1259 36.5001 43.5925 35.8407 43.2404 35.0837C42.8883 34.3266 42.7284 33.4952 42.7747 32.6623C42.764 31.7771 42.9788 30.9036 43.3992 30.1234C43.8196 29.3433 44.4317 28.6818 45.1786 28.2008C46.9799 27.0057 49.1153 26.409 51.2785 26.4964C53.4408 26.4038 55.5672 27.0683 57.2882 28.3743C58.0313 28.9366 58.6257 29.6703 59.0204 30.5121C59.4151 31.3539 59.5982 32.2786 59.5539 33.2065V33.2962H54.5538C54.5652 32.8993 54.4911 32.5045 54.3367 32.1383C54.1823 31.7722 53.951 31.4431 53.6583 31.1731C52.9707 30.5955 52.0867 30.3023 51.1883 30.3538C50.3333 30.3098 49.4877 30.5496 48.7844 31.0356C48.5142 31.223 48.2933 31.4726 48.1406 31.763C47.9879 32.0535 47.9077 32.3763 47.907 32.7041C47.9066 33.0171 47.9885 33.3247 48.1446 33.5964C48.3006 33.8681 48.5253 34.0945 48.7965 34.2531C49.8502 34.8517 50.9641 35.3387 52.1198 35.7063C54.1746 36.2295 56.1007 37.1635 57.781 38.4513C58.416 39.0078 58.917 39.6994 59.2468 40.4749C59.5766 41.2503 59.7268 42.0897 59.6861 42.9307C59.7145 43.8147 59.5198 44.6916 59.1198 45.4814C58.7198 46.2712 58.1273 46.9487 57.3964 47.4519C55.882 48.5603 53.8787 49.1145 51.3867 49.1145C49.0764 49.171 46.8051 48.5151 44.8841 47.2366C44.0022 46.653 43.2909 45.8478 42.8223 44.9026C42.3537 43.9574 42.1445 42.9058 42.2158 41.8542L42.2458 41.7585H47.2339C47.2339 43.0324 47.5765 43.9354 48.2616 44.4796C49.1902 45.0702 50.2887 45.3392 51.3867 45.2451C52.2253 45.3067 53.0601 45.0832 53.7545 44.6112C54.0066 44.4145 54.2086 44.1615 54.3444 43.8726C54.4801 43.5838 54.5456 43.2673 54.5358 42.9487ZM79.2839 48.7736H74.1756V39.9345H66.0024V48.7736H60.864V26.8134H66.0024V36.0113H74.1756V26.8134H79.2839V48.7736ZM99.4647 39.767C99.5054 40.9978 99.2976 42.2241 98.8538 43.3736C98.4099 44.5231 97.7389 45.5723 96.8805 46.4592C95.9998 47.3453 94.9432 48.039 93.7781 48.4962C92.613 48.9534 91.3649 49.164 90.1135 49.1145C88.8663 49.1702 87.6211 48.9674 86.4567 48.5192C85.2924 48.0709 84.2343 47.3868 83.3495 46.5103C82.4647 45.6337 81.7726 44.5839 81.3169 43.4272C80.8612 42.2706 80.6519 41.0323 80.7022 39.791V35.814C80.662 34.584 80.8711 33.3587 81.3172 32.211C81.7632 31.0632 82.4371 30.0167 83.2984 29.1338C85.1426 27.4387 87.5609 26.4974 90.0714 26.4974C92.5819 26.4974 95.0002 27.4387 96.8444 29.1338C97.711 30.0141 98.3898 31.0597 98.84 32.2076C99.2903 33.3556 99.5028 34.5822 99.4647 35.814V39.767ZM94.3564 35.7841C94.4144 34.4116 94.0221 33.0576 93.2386 31.9267C92.8584 31.4573 92.3773 31.0787 91.8308 30.8186C91.2843 30.5585 90.6862 30.4234 90.0804 30.4234C89.4746 30.4234 88.8765 30.5585 88.33 30.8186C87.7835 31.0787 87.3025 31.4573 86.9223 31.9267C86.1475 33.0631 85.7618 34.418 85.8225 35.79V39.773C85.7623 41.1561 86.1522 42.5215 86.9343 43.6663C87.2995 44.1606 87.7821 44.557 88.3391 44.8201C88.896 45.0831 89.5098 45.2045 90.1255 45.1734C90.7313 45.201 91.3345 45.0776 91.8802 44.8144C92.4259 44.5512 92.897 44.1566 93.2506 43.6663C94.0283 42.5197 94.4159 41.1551 94.3564 39.773V35.7841ZM108.479 42.8171L108.63 43.6125H108.72L108.876 42.8769L113.251 26.8134H118.618L111.466 48.7736H105.931L98.7856 26.8134H104.134L108.479 42.8171ZM133.017 39.3783H124.357V44.8504H134.574V48.7736H119.219V26.8134H134.592V30.7306H124.375V35.4551H133.035L133.017 39.3783ZM140.716 44.8504H150.217V48.7736H135.577V26.8134H140.716V44.8504Z" fill="white"/>
</g>
<defs>
<clipPath id="clip0_400_7644">
<rect width="149.913" height="48.4178" fill="white" transform="translate(0.303711 0.673019)"/>
</clipPath>
</defs>
</svg>
