<svg width="48" height="48" viewBox="0 0 48 48" fill="none" xmlns="http://www.w3.org/2000/svg">
<path d="M38.5796 6H9.42043C7.53138 6 6 7.65395 6 9.6942V38.3058C6 40.3461 7.53138 42 9.42043 42H38.5796C40.4686 42 42 40.3461 42 38.3058V9.6942C42 7.65395 40.4686 6 38.5796 6Z" stroke="#102A43" stroke-width="3" stroke-miterlimit="10"/>
<path d="M13.3666 18.9608H34.6334C35.3846 18.9608 36 18.2443 36 17.3695L34.8332 12.5863C34.7453 12.242 34.4735 12 34.1698 12H13.7742C13.4625 12 13.1828 12.242 13.1029 12.5956L12 17.3695C12 18.2443 12.6154 18.9608 13.3666 18.9608Z" fill="#2A7DE1"/>
<path d="M34.1698 20.5148H13.7742C13.4625 20.5148 13.1828 20.7568 13.1029 21.1104L12 25.8844C12 26.7591 12.6154 27.4757 13.3666 27.4757H34.6334C35.3846 27.4757 36 26.7591 36 25.8844L34.8332 21.1011C34.7453 20.7568 34.4735 20.5148 34.1698 20.5148Z" fill="#2A7DE1"/>
<path d="M34.1698 29.0391H13.7742C13.4625 29.0391 13.1828 29.281 13.1029 29.6346L12 34.4086C12 35.2833 12.6154 35.9999 13.3666 35.9999H34.6334C35.3846 35.9999 36 35.2833 36 34.4086L34.8332 29.6253C34.7453 29.281 34.4735 29.0391 34.1698 29.0391Z" fill="#2A7DE1"/>
</svg>
