<svg width="32" height="32" viewBox="0 0 32 32" fill="none" xmlns="http://www.w3.org/2000/svg">
<path fill-rule="evenodd" clip-rule="evenodd" d="M28.6914 11.8357C28.5793 11.9478 28.4273 12.0108 28.2687 12.0108H25.2977V15.0483H28.2867C28.4452 15.0483 28.5973 15.1113 28.7094 15.2235C28.8215 15.3356 28.8845 15.4877 28.8845 15.6463V16.2442C28.8845 16.4028 28.8215 16.5549 28.7094 16.667C28.5973 16.7791 28.4452 16.8421 28.2867 16.8421H25.2977V19.8736H28.2867C28.4452 19.8736 28.5973 19.9366 28.7094 20.0488C28.8215 20.1609 28.8845 20.313 28.8845 20.4716V21.0695C28.8845 21.2281 28.8215 21.3802 28.7094 21.4923C28.5973 21.6044 28.4452 21.6674 28.2867 21.6674H25.2977V23.5091C25.2977 23.9848 25.1088 24.4411 24.7724 24.7775C24.4361 25.1139 23.98 25.3029 23.5043 25.3029H21.6631V28.2925C21.6631 28.4511 21.6001 28.6032 21.488 28.7153C21.3759 28.8275 21.2239 28.8905 21.0653 28.8905H20.4675C20.309 28.8905 20.1569 28.8275 20.0448 28.7153C19.9327 28.6032 19.8697 28.4511 19.8697 28.2925V25.3029H16.8389V28.2925C16.8389 28.4511 16.7759 28.6032 16.6638 28.7153C16.5517 28.8275 16.3997 28.8905 16.2411 28.8905H15.6433C15.4848 28.8905 15.3327 28.8275 15.2206 28.7153C15.1085 28.6032 15.0455 28.4511 15.0455 28.2925V25.3029H12.0147V28.2925C12.0147 28.4511 11.9517 28.6032 11.8396 28.7153C11.7275 28.8275 11.5755 28.8905 11.4169 28.8905H10.8191C10.6606 28.8905 10.5085 28.8275 10.3964 28.7153C10.2843 28.6032 10.2213 28.4511 10.2213 28.2925V25.3029H8.38014C7.90451 25.3029 7.44836 25.1139 7.11203 24.7775C6.77571 24.4411 6.58676 23.9848 6.58676 23.5091V21.6674H3.59779C3.43925 21.6674 3.2872 21.6044 3.17509 21.4923C3.06298 21.3802 3 21.2281 3 21.0695V20.4716C3 20.313 3.06298 20.1609 3.17509 20.0488C3.2872 19.9366 3.43925 19.8736 3.59779 19.8736H6.58676V16.8421H3.59779C3.43925 16.8421 3.2872 16.7791 3.17509 16.667C3.06298 16.5549 3 16.4028 3 16.2442V15.6463C3 15.4877 3.06298 15.3356 3.17509 15.2235C3.2872 15.1113 3.43925 15.0483 3.59779 15.0483H6.58676V12.0108H3.59779C3.43925 12.0108 3.2872 11.9478 3.17509 11.8357C3.06298 11.7236 3 11.5715 3 11.4129V10.815C3 10.6564 3.06298 10.5043 3.17509 10.3922C3.2872 10.28 3.43925 10.217 3.59779 10.217H6.58676V8.38139C6.58676 7.90564 6.77571 7.44938 7.11203 7.11298C7.44836 6.77658 7.90451 6.58759 8.38014 6.58759H10.2213V3.59793C10.2213 3.43935 10.2843 3.28726 10.3964 3.17513C10.5085 3.063 10.6606 3 10.8191 3H11.4169C11.5755 3 11.7275 3.063 11.8396 3.17513C11.9517 3.28726 12.0147 3.43935 12.0147 3.59793V6.58759H15.0455V3.59793C15.0455 3.43935 15.1085 3.28726 15.2206 3.17513C15.3327 3.063 15.4848 3 15.6433 3H16.2411C16.3997 3 16.5517 3.063 16.6638 3.17513C16.7759 3.28726 16.8389 3.43935 16.8389 3.59793V6.58759H19.8697V3.59793C19.8697 3.43935 19.9327 3.28726 20.0448 3.17513C20.1569 3.063 20.309 3 20.4675 3H21.0653C21.2239 3 21.3759 3.063 21.488 3.17513C21.6001 3.28726 21.6631 3.43935 21.6631 3.59793V6.58759H23.4864C23.962 6.58759 24.4182 6.77658 24.7545 7.11298C25.0908 7.44938 25.2798 7.90564 25.2798 8.38139V10.217H28.2687C28.4273 10.217 28.5793 10.28 28.6914 10.3922C28.8036 10.5043 28.8665 10.6564 28.8665 10.815V11.4129C28.8665 11.5715 28.8036 11.7236 28.6914 11.8357ZM22.9825 22.9871C23.0946 22.875 23.1576 22.7229 23.1576 22.5643V9.32612C23.1576 9.16754 23.0946 9.01545 22.9825 8.90332C22.8704 8.79118 22.7184 8.72819 22.5598 8.72819H9.32466C9.16611 8.72819 9.01406 8.79118 8.90195 8.90332C8.78985 9.01545 8.72686 9.16754 8.72686 9.32612V22.5643C8.72686 22.7229 8.78985 22.875 8.90195 22.9871C9.01406 23.0993 9.16611 23.1623 9.32466 23.1623H22.5598C22.7184 23.1623 22.8704 23.0993 22.9825 22.9871ZM21.3642 20.7706V11.1199C21.3642 10.9614 21.3013 10.8093 21.1892 10.6971C21.077 10.585 20.925 10.522 20.7664 10.522H11.1181C10.9595 10.522 10.8075 10.585 10.6954 10.6971C10.5832 10.8093 10.5203 10.9614 10.5203 11.1199V20.7706C10.5203 20.9291 10.5832 21.0812 10.6954 21.1934C10.8075 21.3055 10.9595 21.3685 11.1181 21.3685H20.7664C20.925 21.3685 21.077 21.3055 21.1892 21.1934C21.3013 21.0812 21.3642 20.9291 21.3642 20.7706Z" fill="#2A7DE1"/>
</svg>
