<svg width="23" height="22" viewBox="0 0 23 22" fill="none" xmlns="http://www.w3.org/2000/svg">
<path fill-rule="evenodd" clip-rule="evenodd" d="M6.53257 9.98355C6.71119 7.14925 8.9184 5 11.5 5C12.6899 5 13.787 5.44839 14.6514 6.20963C15.0659 6.57464 15.6977 6.53455 16.0628 6.12009C16.4278 5.70562 16.3877 5.07372 15.9732 4.70871C14.7679 3.6472 13.2079 3 11.5 3C7.72919 3 4.742 6.11534 4.53264 9.92713L3.77736 8.97539C3.72162 8.8983 3.65081 8.83327 3.56919 8.78424C3.48757 8.7352 3.39684 8.70317 3.30248 8.69008C3.20811 8.67699 3.11207 8.6831 3.02014 8.70806C2.92821 8.73302 2.8423 8.7763 2.76759 8.83529C2.69288 8.89429 2.63093 8.96777 2.58547 9.0513C2.54001 9.13484 2.51199 9.2267 2.50308 9.32134C2.49418 9.41598 2.50459 9.51144 2.53368 9.60195C2.56277 9.69247 2.60994 9.77617 2.67234 9.84799L4.7037 12.3767C4.79618 12.497 4.91501 12.5946 5.05111 12.6621C5.18721 12.7296 5.33698 12.7652 5.48896 12.7661C5.64013 12.7649 5.7892 12.7307 5.92568 12.6658C6.06216 12.601 6.18274 12.5071 6.27893 12.3907L8.56113 9.81985C8.67797 9.68204 8.73686 9.50449 8.72546 9.32436C8.71407 9.14422 8.63328 8.97547 8.5 8.85341C8.36826 8.74435 8.20085 8.68756 8.02978 8.69391C7.92145 8.69041 7.81377 8.71187 7.71509 8.75661C7.61642 8.80136 7.52941 8.8682 7.46082 8.95193L6.53257 9.98355Z" fill="#307FE2"/>
<path fill-rule="evenodd" clip-rule="evenodd" d="M16.4758 10.8424C16.3799 13.7637 14.1349 16.0028 11.4999 16.0028C10.2656 16.0028 9.13043 15.5202 8.25184 14.7058C7.84679 14.3304 7.21408 14.3544 6.83865 14.7595C6.46321 15.1645 6.48723 15.7972 6.89228 16.1727C8.11489 17.3059 9.72735 18.0028 11.4999 18.0028C15.3286 18.0028 18.3495 14.791 18.4749 10.8995L19.1821 11.7906C19.2379 11.8677 19.3087 11.9328 19.3903 11.9818C19.4719 12.0308 19.5626 12.0629 19.657 12.076C19.7514 12.0891 19.8474 12.0829 19.9393 12.058C20.0313 12.033 20.1172 11.9897 20.1919 11.9307C20.2666 11.8718 20.3286 11.7983 20.374 11.7147C20.4195 11.6312 20.4475 11.5393 20.4564 11.4447C20.4653 11.3501 20.4549 11.2546 20.4258 11.1641C20.3967 11.0736 20.3495 10.9899 20.2871 10.918L18.2558 8.38937C18.1633 8.26904 18.0445 8.17139 17.9084 8.1039C17.7723 8.03642 17.6225 8.00087 17.4705 7.99998C17.3194 8.00116 17.1703 8.03537 17.0338 8.10021C16.8973 8.16505 16.7767 8.25895 16.6805 8.3753L14.5834 10.9462C14.4665 11.084 14.4076 11.2615 14.419 11.4417C14.4304 11.6218 14.5112 11.7906 14.6445 11.9126C14.7762 12.0217 14.9436 12.0785 15.1147 12.0721C15.223 12.0756 15.3307 12.0542 15.4294 12.0094C15.5281 11.9647 15.6151 11.8978 15.6837 11.8141L16.4758 10.8424ZM17.4494 9.64809C17.4592 9.64781 17.4691 9.64766 17.479 9.64766C17.4798 9.64766 17.4807 9.64766 17.4815 9.64766L17.4658 9.62791L17.4494 9.64809Z" fill="#B8D8FF"/>
</svg>
