<svg width="45" height="32" viewBox="0 0 45 32" fill="none" xmlns="http://www.w3.org/2000/svg">
<path d="M22.6461 0.546387H22.8909C25.1514 0.554637 36.6051 0.637137 39.6934 1.46764C40.627 1.7211 41.4777 2.21515 42.1605 2.90041C42.8434 3.58567 43.3344 4.43814 43.5846 5.37264C43.8624 6.41764 44.0576 7.80089 44.1896 9.22814L44.2171 9.51414L44.2776 10.2291L44.2996 10.5151C44.4784 13.0286 44.5004 15.3826 44.5031 15.8969V16.1031C44.5004 16.6366 44.4756 19.1501 44.2776 21.7681L44.2556 22.0569L44.2309 22.3429C44.0934 23.9159 43.8899 25.4779 43.5846 26.6274C43.3352 27.5623 42.8444 28.4151 42.1614 29.1005C41.4785 29.7859 40.6273 30.2797 39.6934 30.5324C36.5034 31.3904 24.3786 31.4509 22.6984 31.4536H22.3079C21.4581 31.4536 17.9436 31.4371 14.2586 31.3106L13.7911 31.2941L13.5519 31.2831L13.0816 31.2639L12.6114 31.2446C9.55886 31.1099 6.65211 30.8926 5.31286 30.5296C4.37921 30.2772 3.52829 29.7838 2.84535 29.0989C2.16241 28.4141 1.67144 27.5618 1.42161 26.6274C1.11636 25.4806 0.912859 23.9159 0.775359 22.3429L0.753359 22.0541L0.731359 21.7681C0.59564 19.9047 0.520434 18.0374 0.505859 16.1691L0.505859 15.8309C0.511359 15.2396 0.533359 13.1964 0.681859 10.9414L0.701109 10.6581L0.709359 10.5151L0.731359 10.2291L0.791859 9.51414L0.819359 9.22814C0.951359 7.80089 1.14661 6.41489 1.42436 5.37264C1.67377 4.43777 2.16456 3.58489 2.84752 2.89951C3.53048 2.21414 4.38163 1.72034 5.31561 1.46764C6.65486 1.11014 9.56161 0.890137 12.6141 0.752637L13.0816 0.733387L13.5546 0.716887L13.7911 0.708637L14.2614 0.689387C16.8786 0.605167 19.4968 0.558412 22.1154 0.549137H22.6461V0.546387ZM18.1059 9.37389V22.6234L29.5376 16.0014L18.1059 9.37389Z" fill="#fff"/>
<path d="M18.1059 22.6234V9.37389L29.5376 16.0014L18.1059 22.6234Z" fill="transparent"/>
</svg>
