<?xml version="1.0" encoding="UTF-8"?><svg id="uuid-b5534122-981c-4b7f-a91c-5c96cd76c2a1" xmlns="http://www.w3.org/2000/svg" width="70.55" height="70.55" viewBox="0 0 70.55 70.55"><g id="uuid-8491eaa4-96a2-4a0e-91c0-7ef41269a0f2"><path d="m49.73,23.66c.16,1.1.2,2.22.12,3.33-.06.74-.18,1.48-.36,2.2-.06.25-.13.5-.2.74-.19.63-.42,1.26-.68,1.86-.14.3-.29.59-.45.88l-.13.23-.36.59-.08.12c-.23.36-.49.7-.74.99-.25.33-.53.64-.81.94l-.5.51-.33.31-.21.18c-.27.24-.55.47-.84.68-.39.3-.8.58-1.23.83-.55.32-1.12.61-1.7.86-1.11.48-2.28.81-3.48.99l-.51.07h-.28l-.94.06h-1.89c-.38,0-.74-.09-1.1-.16-.69-.12-1.38-.29-2.04-.53l-.47-.17-.35-.13c-.41-.16-.8-.35-1.19-.55-.42-.22-.82-.46-1.22-.71l-.39-.26c-.55-.37-1.08-.79-1.58-1.23-.51-.47-.99-.98-1.43-1.53-.82-1.02-1.48-2.16-1.98-3.37,0-.02,0-.03,0-.05l-.17-.41c-.15-.39-.29-.78-.4-1.18,0-.06,0-.11,0-.17l-.12-.44c-.05-.22-.1-.44-.14-.65v-.12c0-.15-.06-.31-.08-.47-.42-2.73-.04-5.53,1.11-8.05.09-.21.19-.42.3-.62l.18-.35.11-.19c.09-.16.18-.31.28-.46.21-.34.43-.67.67-.99l.05-.07c.82-1.1,1.8-2.07,2.89-2.88l.22-.17.23-.16.73-.48c.27-.16.55-.32.83-.46.54-.29,1.09-.54,1.66-.74h0l.68-.2c.65-.19,1.31-.34,1.98-.44.3,0,.6-.08.9-.11h1.7c.43,0,.72,0,1.08.07.64.07,1.28.18,1.91.34l.65.14.77.25.84.34c.39.18.77.37,1.15.57.52.3,1.02.63,1.5.99.42.31.81.62,1.19.99l.33.32c.28.26.54.53.79.82l.07.08.17.19c.49.58.93,1.2,1.32,1.84h0c0,.08.09.16.14.24.13.24.27.49.39.72.41.82.75,1.68.99,2.57v.06s0,.04,0,.06l.05.21c0,.19.09.38.13.56l.09.09c.06.22.09.43.13.63Z" style="fill:#bacada;"/><path d="m22.39,27.75c.58,0,1.05-.47,1.05-1.05s-.47-1.05-1.05-1.05-1.05.47-1.05,1.05.47,1.05,1.05,1.05Z" style="fill:#eff3f7;"/><path d="m25.67,27.26c.58,0,1.05-.47,1.05-1.05s-.47-1.05-1.05-1.05-1.05.47-1.05,1.05.47,1.05,1.05,1.05Z" style="fill:#eff3f7;"/><path d="m28.95,26.75c.58,0,1.05-.47,1.05-1.05s-.47-1.05-1.05-1.05-1.05.47-1.05,1.05.47,1.05,1.05,1.05Z" style="fill:#eff3f7;"/><path d="m32.23,26.26c.58,0,1.05-.47,1.05-1.05s-.47-1.05-1.05-1.05-1.05.47-1.05,1.05.47,1.05,1.05,1.05Z" style="fill:#eff3f7;"/><path d="m35.5,25.75c.58,0,1.05-.47,1.05-1.05s-.47-1.05-1.05-1.05-1.05.47-1.05,1.05.47,1.05,1.05,1.05Z" style="fill:#eff3f7;"/><path d="m38.78,25.26c.58,0,1.05-.47,1.05-1.05s-.47-1.05-1.05-1.05-1.05.47-1.05,1.05.47,1.05,1.05,1.05Z" style="fill:#eff3f7;"/><path d="m42.06,24.76c.58,0,1.05-.47,1.05-1.05s-.47-1.05-1.05-1.05-1.05.47-1.05,1.05.47,1.05,1.05,1.05Z" style="fill:#eff3f7;"/><path d="m45.34,24.26c.58,0,1.05-.47,1.05-1.05s-.47-1.05-1.05-1.05-1.05.47-1.05,1.05.47,1.05,1.05,1.05Z" style="fill:#eff3f7;"/><path d="m49.6,23.03c-.07.22-.21.41-.4.54-.19.13-.41.2-.64.19-.23,0-.45-.09-.63-.24-.18-.15-.3-.35-.35-.57-.05-.22-.03-.46.06-.67.09-.21.25-.38.45-.49.2-.11.43-.15.66-.12.23.03.44.14.6.3v.06s0,.04,0,.06l.05.21c0,.19.09.38.13.56l.07.17Z" style="fill:#eff3f7;"/><path d="m22.81,23.63c.58,0,1.05-.47,1.05-1.05s-.47-1.05-1.05-1.05-1.05.47-1.05,1.05.47,1.05,1.05,1.05Z" style="fill:#eff3f7;"/><path d="m26.09,23.14c.58,0,1.05-.47,1.05-1.05s-.47-1.05-1.05-1.05-1.05.47-1.05,1.05.47,1.05,1.05,1.05Z" style="fill:#eff3f7;"/><path d="m29.37,22.64c.58,0,1.05-.47,1.05-1.05s-.47-1.05-1.05-1.05-1.05.47-1.05,1.05.47,1.05,1.05,1.05Z" style="fill:#eff3f7;"/><path d="m32.65,22.14c.58,0,1.05-.47,1.05-1.05s-.47-1.05-1.05-1.05-1.05.47-1.05,1.05.47,1.05,1.05,1.05Z" style="fill:#eff3f7;"/><path d="m35.93,21.64c.58,0,1.05-.47,1.05-1.05s-.47-1.05-1.05-1.05-1.05.47-1.05,1.05.47,1.05,1.05,1.05Z" style="fill:#eff3f7;"/><path d="m39.2,21.14c.58,0,1.05-.47,1.05-1.05s-.47-1.05-1.05-1.05-1.05.47-1.05,1.05.47,1.05,1.05,1.05Z" style="fill:#eff3f7;"/><path d="m42.48,20.64c.58,0,1.05-.47,1.05-1.05s-.47-1.05-1.05-1.05-1.05.47-1.05,1.05.47,1.05,1.05,1.05Z" style="fill:#eff3f7;"/><path d="m45.76,20.14c.58,0,1.05-.47,1.05-1.05s-.47-1.05-1.05-1.05-1.05.47-1.05,1.05.47,1.05,1.05,1.05Z" style="fill:#eff3f7;"/><path d="m48.38,19.41c-.21-.17-.34-.4-.39-.66v-.06c.13.24.27.49.39.72Z" style="fill:#eff3f7;"/><path d="m25.5,18.12c.02.14.01.28-.02.41-.03.13-.09.26-.17.37-.08.11-.18.21-.3.28-.12.07-.25.12-.39.14-.14.02-.28.01-.41-.02-.13-.03-.26-.09-.37-.17-.11-.08-.21-.18-.28-.3-.07-.12-.12-.25-.14-.39,0-.05,0-.09,0-.14.21-.34.43-.67.67-.99.07-.03.14-.05.22-.06.27-.04.55.03.77.19.22.16.37.41.42.68h0Z" style="fill:#eff3f7;"/><path d="m27.74,18.84c.58,0,1.05-.47,1.05-1.05s-.47-1.05-1.05-1.05-1.05.47-1.05,1.05.47,1.05,1.05,1.05Z" style="fill:#eff3f7;"/><path d="m31.02,18.33c.58,0,1.05-.47,1.05-1.05s-.47-1.05-1.05-1.05-1.05.47-1.05,1.05.47,1.05,1.05,1.05Z" style="fill:#eff3f7;"/><path d="m34.3,17.84c.58,0,1.05-.47,1.05-1.05s-.47-1.05-1.05-1.05-1.05.47-1.05,1.05.47,1.05,1.05,1.05Z" style="fill:#eff3f7;"/><path d="m37.58,17.33c.58,0,1.05-.47,1.05-1.05s-.47-1.05-1.05-1.05-1.05.47-1.05,1.05.47,1.05,1.05,1.05Z" style="fill:#eff3f7;"/><path d="m40.85,16.83c.58,0,1.05-.47,1.05-1.05s-.47-1.05-1.05-1.05-1.05.47-1.05,1.05.47,1.05,1.05,1.05Z" style="fill:#eff3f7;"/><path d="m45.18,15.2c.02.27-.06.53-.23.74-.16.21-.4.35-.66.39-.14.02-.28.01-.41-.02-.13-.03-.26-.09-.37-.17-.22-.17-.37-.41-.42-.69s.03-.56.19-.78c.17-.22.41-.37.69-.42h0c.44.3.83.61,1.21.95Z" style="fill:#eff3f7;"/><path d="m29.2,13.51c.06.26.03.53-.1.76-.13.23-.33.41-.58.49-.25.08-.52.07-.76-.03-.24-.11-.43-.3-.54-.54l.23-.16.73-.48c.27-.16.55-.32.83-.46.09.12.16.26.19.42h0Z" style="fill:#eff3f7;"/><path d="m31.44,14.22c.58,0,1.05-.47,1.05-1.05s-.47-1.05-1.05-1.05-1.05.47-1.05,1.05.47,1.05,1.05,1.05Z" style="fill:#eff3f7;"/><path d="m34.72,13.71c.58,0,1.05-.47,1.05-1.05s-.47-1.05-1.05-1.05-1.05.47-1.05,1.05.47,1.05,1.05,1.05Z" style="fill:#eff3f7;"/><path d="m39.03,12.01c.04.28-.03.56-.19.78-.17.22-.41.37-.69.42-.28.04-.56-.03-.78-.19-.22-.17-.37-.41-.42-.69-.03-.26.02-.52.16-.74.64.07,1.28.18,1.91.34,0,0,0,.06,0,.09Z" style="fill:#eff3f7;"/><path d="m41.34,12.71c-.16.01-.32,0-.46-.07-.15-.06-.28-.15-.38-.27l.84.34Z" style="fill:#eff3f7;"/><path d="m33.06,39.48c.03.14.03.28,0,.42-.69-.12-1.38-.29-2.04-.53.04-.2.15-.39.31-.53.15-.14.35-.23.56-.25.27-.04.55.03.77.2.22.16.37.41.41.68h0Z" style="fill:#eff3f7;"/><path d="m35.3,40.18c.58,0,1.05-.47,1.05-1.05s-.47-1.05-1.05-1.05-1.05.47-1.05,1.05.47,1.05,1.05,1.05Z" style="fill:#eff3f7;"/><path d="m38.58,39.69c.58,0,1.05-.47,1.05-1.05s-.47-1.05-1.05-1.05-1.05.47-1.05,1.05.47,1.05,1.05,1.05Z" style="fill:#eff3f7;"/><path d="m42.89,37.98v.13c-.55.32-1.12.61-1.7.86-.21-.17-.35-.41-.4-.67-.02-.14-.01-.28.02-.41.03-.13.09-.26.17-.37.08-.11.18-.21.3-.28.12-.07.25-.12.39-.14.14-.02.28-.01.41.02.13.03.26.09.37.17s.21.18.28.3c.07.12.12.25.14.39h.02Z" style="fill:#eff3f7;"/><path d="m44.98,36.59c-.27.24-.54.47-.84.68.07-.18.18-.34.32-.46.15-.12.32-.2.51-.23h0Z" style="fill:#eff3f7;"/><path d="m27.89,36.49c.04.2.01.42-.08.61-.09.19-.24.34-.42.45-.55-.38-1.08-.79-1.58-1.24.06-.18.17-.35.31-.47.15-.12.33-.2.52-.22.14-.03.28-.03.42,0,.14.03.27.09.39.17.12.08.21.19.29.31.07.12.12.26.14.4h0Z" style="fill:#eff3f7;"/><path d="m30.12,37.2c.58,0,1.05-.47,1.05-1.05s-.47-1.05-1.05-1.05-1.05.47-1.05,1.05.47,1.05,1.05,1.05Z" style="fill:#eff3f7;"/><path d="m33.4,36.7c.58,0,1.05-.47,1.05-1.05s-.47-1.05-1.05-1.05-1.05.47-1.05,1.05.47,1.05,1.05,1.05Z" style="fill:#eff3f7;"/><path d="m36.68,36.2c.58,0,1.05-.47,1.05-1.05s-.47-1.05-1.05-1.05-1.05.47-1.05,1.05.47,1.05,1.05,1.05Z" style="fill:#eff3f7;"/><path d="m39.96,35.7c.58,0,1.05-.47,1.05-1.05s-.47-1.05-1.05-1.05-1.05.47-1.05,1.05.47,1.05,1.05,1.05Z" style="fill:#eff3f7;"/><path d="m43.24,35.21c.58,0,1.05-.47,1.05-1.05s-.47-1.05-1.05-1.05-1.05.47-1.05,1.05.47,1.05,1.05,1.05Z" style="fill:#eff3f7;"/><path d="m47.56,33.49s0,.09,0,.13c-.23.36-.49.7-.74.99-.05,0-.1,0-.15,0-.21.03-.42,0-.6-.09s-.35-.23-.45-.41c-.11-.18-.16-.38-.15-.59,0-.21.08-.41.2-.57.12-.17.29-.29.49-.37.2-.07.41-.08.61-.03.2.05.38.16.52.31.14.15.23.34.26.55v.08Z" style="fill:#eff3f7;"/><path d="m25.15,33.62c.04.25-.01.5-.14.72-.13.21-.34.37-.58.44-.42-.52-.8-1.07-1.15-1.64.08-.11.18-.2.3-.27.12-.07.24-.11.38-.13.14-.02.28-.02.41.02.13.03.26.09.37.17.11.08.21.19.28.3.07.12.12.25.14.39h0Z" style="fill:#eff3f7;"/><path d="m27.39,34.33c.58,0,1.05-.47,1.05-1.05s-.47-1.05-1.05-1.05-1.05.47-1.05,1.05.47,1.05,1.05,1.05Z" style="fill:#eff3f7;"/><path d="m30.67,33.83c.58,0,1.05-.47,1.05-1.05s-.47-1.05-1.05-1.05-1.05.47-1.05,1.05.47,1.05,1.05,1.05Z" style="fill:#eff3f7;"/><path d="m33.95,33.33c.58,0,1.05-.47,1.05-1.05s-.47-1.05-1.05-1.05-1.05.47-1.05,1.05.47,1.05,1.05,1.05Z" style="fill:#eff3f7;"/><path d="m37.23,32.84c.58,0,1.05-.47,1.05-1.05s-.47-1.05-1.05-1.05-1.05.47-1.05,1.05.47,1.05,1.05,1.05Z" style="fill:#eff3f7;"/><path d="m40.5,32.33c.58,0,1.05-.47,1.05-1.05s-.47-1.05-1.05-1.05-1.05.47-1.05,1.05.47,1.05,1.05,1.05Z" style="fill:#eff3f7;"/><path d="m43.78,31.84c.58,0,1.05-.47,1.05-1.05s-.47-1.05-1.05-1.05-1.05.47-1.05,1.05.47,1.05,1.05,1.05Z" style="fill:#eff3f7;"/><path d="m47.06,31.33c.58,0,1.05-.47,1.05-1.05s-.47-1.05-1.05-1.05-1.05.47-1.05,1.05.47,1.05,1.05,1.05Z" style="fill:#eff3f7;"/><path d="m49.49,29.16c-.06.25-.13.5-.2.74-.03-.26.04-.53.2-.74Z" style="fill:#eff3f7;"/><path d="m23.63,30.17c.04.28-.04.56-.2.78-.17.22-.41.37-.69.42-.12.01-.24.01-.36,0l-.15-.42c-.15-.39-.29-.78-.4-1.18,0-.06,0-.11,0-.17.13-.15.31-.26.5-.32.19-.06.4-.06.59,0,.19.06.37.17.5.32.13.15.22.34.25.54l-.05.03Z" style="fill:#eff3f7;"/><path d="m25.87,30.88c.58,0,1.05-.47,1.05-1.05s-.47-1.05-1.05-1.05-1.05.47-1.05,1.05.47,1.05,1.05,1.05Z" style="fill:#eff3f7;"/><path d="m29.15,30.38c.58,0,1.05-.47,1.05-1.05s-.47-1.05-1.05-1.05-1.05.47-1.05,1.05.47,1.05,1.05,1.05Z" style="fill:#eff3f7;"/><path d="m32.42,29.88c.58,0,1.05-.47,1.05-1.05s-.47-1.05-1.05-1.05-1.05.47-1.05,1.05.47,1.05,1.05,1.05Z" style="fill:#eff3f7;"/><path d="m35.7,29.38c.58,0,1.05-.47,1.05-1.05s-.47-1.05-1.05-1.05-1.05.47-1.05,1.05.47,1.05,1.05,1.05Z" style="fill:#eff3f7;"/><path d="m38.98,28.88c.58,0,1.05-.47,1.05-1.05s-.47-1.05-1.05-1.05-1.05.47-1.05,1.05.47,1.05,1.05,1.05Z" style="fill:#eff3f7;"/><path d="m42.26,28.38c.58,0,1.05-.47,1.05-1.05s-.47-1.05-1.05-1.05-1.05.47-1.05,1.05.47,1.05,1.05,1.05Z" style="fill:#eff3f7;"/><path d="m45.54,27.88c.58,0,1.05-.47,1.05-1.05s-.47-1.05-1.05-1.05-1.05.47-1.05,1.05.47,1.05,1.05,1.05Z" style="fill:#eff3f7;"/><path d="m48.81,27.38c.58,0,1.05-.47,1.05-1.05s-.47-1.05-1.05-1.05-1.05.47-1.05,1.05.47,1.05,1.05,1.05Z" style="fill:#eff3f7;"/><path d="m48.95,30.66c-.13.34-.27.67-.42.99-.15.32-.29.59-.46.89-.57,1.06-1.28,2.04-2.11,2.91-.33.35-.67.68-.99.99-2,1.74-4.44,2.89-7.05,3.33-2.61.44-5.29.14-7.75-.86-.84-.34-1.65-.76-2.41-1.26-2.65-1.72-4.65-4.27-5.7-7.24,4.39,3.08,14.94,8.55,26.87.25Z" style="fill:#bacada;"/><path d="m49.89,33.93l-6.35,1.5c-5.24,1.23-10.69,1.21-15.91-.07l-5.78-1.43c-.13-.04-.27-.05-.41-.03s-.26.08-.38.16c-.11.08-.2.19-.26.32-.06.12-.09.26-.09.4-.01,2.19.58,4.34,1.71,6.21,1.13,1.87,2.76,3.4,4.7,4.4,1.53.77,2.76,2.03,3.5,3.58l4.04,9c.08.19.22.36.4.47s.38.18.59.18.42-.06.59-.18c.18-.12.31-.28.4-.47l3.83-8.65c.79-1.64,2.13-2.95,3.8-3.7,2.03-.98,3.75-2.51,4.95-4.42,1.2-1.91,1.84-4.12,1.84-6.38h0c0-.14-.03-.29-.09-.42-.06-.13-.16-.24-.27-.33-.12-.09-.25-.15-.39-.17-.14-.03-.29-.02-.43.03h0Z" style="fill:#2a7de1;"/><path d="m51.01,34.8c0,2.25-.63,4.46-1.82,6.37-1.2,1.91-2.91,3.44-4.94,4.42-1.67.74-3.02,2.05-3.8,3.71l-3.85,8.65c-.08.2-.22.37-.39.48-.18.12-.38.18-.6.18s-.42-.06-.6-.18c-.18-.12-.31-.29-.39-.48l-1.24-2.77,2.24-5.05c.8-1.65,2.15-2.96,3.82-3.71,2.03-.98,3.75-2.51,4.95-4.42,1.2-1.91,1.84-4.12,1.85-6.37,0-.15-.04-.3-.11-.43-.07-.13-.18-.24-.31-.32l4.09-.99c.07-.01.14-.01.21,0,.24,0,.47.1.64.27.17.17.26.4.27.64h0Z" style="fill:#2356a6;"/><path d="m66.78,1c1.53,0,2.78,1.25,2.78,2.78v63c0,1.53-1.25,2.78-2.78,2.78H3.78c-1.53,0-2.78-1.25-2.78-2.78V3.78c0-1.53,1.25-2.78,2.78-2.78h63m0-1H3.78C1.69,0,0,1.69,0,3.78v63c0,2.09,1.69,3.78,3.78,3.78h63c2.09,0,3.78-1.69,3.78-3.78V3.78c0-2.09-1.69-3.78-3.78-3.78h0Z" style="fill:#d8e0eb;"/></g></svg>