<svg width="32" height="32" viewBox="0 0 32 32" fill="none" xmlns="http://www.w3.org/2000/svg">
<path fill-rule="evenodd" clip-rule="evenodd" d="M15.253 4.89113C12.5341 4.06461 9.63468 4.07846 6.92348 4.93094L6.95612 4.93757C14.4632 7.1601 20.273 11.1076 24.1897 18.1002C25.4578 20.3995 26.549 22.7951 27.4536 25.2654C27.7992 23.8882 27.9248 22.4636 27.8257 21.0459C27.4667 13.7481 22.2901 6.79521 15.253 4.89113ZM26.6872 6.34626L25.4825 5.12185C25.2276 4.86276 24.8142 4.86276 24.5593 5.12185L23.3546 6.34626C23.0996 6.60535 23.0996 7.02542 23.3546 7.28451L24.5593 8.50892C24.8142 8.76801 25.2276 8.76801 25.4825 8.50892L26.6872 7.28451C26.9422 7.02542 26.9422 6.60535 26.6872 6.34626ZM18.9233 14.188L17.7186 12.9636C17.4636 12.7045 17.0503 12.7045 16.7954 12.9636L4.4617 25.4985C4.20678 25.7576 4.20678 26.1777 4.4617 26.4368L5.66645 27.6612C5.92138 27.9203 6.3347 27.9203 6.58963 27.6612L18.9233 15.1262C19.1782 14.8671 19.1782 14.4471 18.9233 14.188Z" fill="#2A7DE1"/>
</svg>
