<svg width="36" height="36" viewBox="0 0 36 36" fill="none" xmlns="http://www.w3.org/2000/svg">
<path d="M7 4C7 2.89543 7.89543 2 9 2H27C28.1046 2 29 2.89543 29 4V23.1153C29 23.6788 28.7623 24.2161 28.3453 24.5951L19.3453 32.777C18.5825 33.4705 17.4175 33.4705 16.6547 32.777L7.65466 24.5951C7.23771 24.2161 7 23.6788 7 23.1153V4Z" fill="#B8D8FF"/>
<path d="M26.0558 19.9999L22.5588 14.4999L25.9782 9H23.3034L20.9697 12.7486L18.6843 9H15.9978L19.4394 14.4999L15.9319 19.9999H18.6455L20.9697 16.2455L23.3304 19.9999H23.3634H23.3645H26.0558Z" fill="#1E75DF"/>
<path d="M18.1292 14.5001L17.4823 13.461H15.0663L16.3613 11.503L15.1098 9.50464L8.05591 20H10.7471L13.6936 15.5391H17.4823L18.1292 14.5001Z" fill="#1E75DF"/>
</svg>
