<svg width="1252" height="1095" viewBox="0 0 1252 1095" fill="none" xmlns="http://www.w3.org/2000/svg">
<g clip-path="url(#clip0_1694_21439)">
<mask id="mask0_1694_21439" style="mask-type:alpha" maskUnits="userSpaceOnUse" x="0" y="0" width="1252" height="1095">
<rect x="1.40234" y="1" width="156.148" height="156.148" stroke="#9FB3C8"/>
<rect x="157.551" y="1" width="156.148" height="156.148" stroke="#9FB3C8"/>
<rect x="313.697" y="1" width="156.148" height="156.148" stroke="#9FB3C8"/>
<rect x="469.848" y="1" width="156.148" height="156.148" stroke="#9FB3C8"/>
<rect x="625.994" y="1" width="156.148" height="156.148" stroke="#9FB3C8"/>
<rect x="782.143" y="1" width="156.148" height="156.148" stroke="#9FB3C8"/>
<rect x="938.293" y="1" width="156.148" height="156.148" stroke="#9FB3C8"/>
<rect x="1094.44" y="1" width="156.148" height="156.148" stroke="#9FB3C8"/>
<rect x="1.40234" y="157.148" width="156.148" height="156.148" stroke="#9FB3C8"/>
<rect x="157.551" y="157.148" width="156.148" height="156.148" stroke="#9FB3C8"/>
<rect x="313.697" y="157.148" width="156.148" height="156.148" stroke="#9FB3C8"/>
<rect x="469.848" y="157.148" width="156.148" height="156.148" stroke="#9FB3C8"/>
<rect x="625.994" y="157.148" width="156.148" height="156.148" stroke="#9FB3C8"/>
<rect x="782.143" y="157.148" width="156.148" height="156.148" stroke="#9FB3C8"/>
<rect x="938.293" y="157.148" width="156.148" height="156.148" stroke="#9FB3C8"/>
<rect x="1094.44" y="157.148" width="156.148" height="156.148" stroke="#9FB3C8"/>
<rect x="1.40234" y="313.297" width="156.148" height="156.148" stroke="#9FB3C8"/>
<rect x="157.551" y="313.297" width="156.148" height="156.148" stroke="#9FB3C8"/>
<rect x="313.697" y="313.297" width="156.148" height="156.148" stroke="#9FB3C8"/>
<rect x="469.848" y="313.297" width="156.148" height="156.148" stroke="#9FB3C8"/>
<rect x="625.994" y="313.297" width="156.148" height="156.148" stroke="#9FB3C8"/>
<rect x="782.143" y="313.297" width="156.148" height="156.148" stroke="#9FB3C8"/>
<rect x="938.293" y="313.297" width="156.148" height="156.148" stroke="#9FB3C8"/>
<rect x="1094.44" y="313.297" width="156.148" height="156.148" stroke="#9FB3C8"/>
<rect x="1.40234" y="469.445" width="156.148" height="156.148" stroke="#9FB3C8"/>
<rect x="157.551" y="469.445" width="156.148" height="156.148" stroke="#9FB3C8"/>
<rect x="313.697" y="469.445" width="156.148" height="156.148" stroke="#9FB3C8"/>
<rect x="469.848" y="469.445" width="156.148" height="156.148" stroke="#9FB3C8"/>
<rect x="625.994" y="469.445" width="156.148" height="156.148" stroke="#9FB3C8"/>
<rect x="782.143" y="469.445" width="156.148" height="156.148" stroke="#9FB3C8"/>
<rect x="938.293" y="469.445" width="156.148" height="156.148" stroke="#9FB3C8"/>
<rect x="1094.44" y="469.445" width="156.148" height="156.148" stroke="#9FB3C8"/>
<rect x="1.40234" y="625.593" width="156.148" height="156.148" stroke="#9FB3C8"/>
<rect x="157.551" y="625.593" width="156.148" height="156.148" stroke="#9FB3C8"/>
<rect x="313.697" y="625.593" width="156.148" height="156.148" stroke="#9FB3C8"/>
<rect x="469.848" y="625.593" width="156.148" height="156.148" stroke="#9FB3C8"/>
<rect x="625.994" y="625.593" width="156.148" height="156.148" stroke="#9FB3C8"/>
<rect x="782.143" y="625.593" width="156.148" height="156.148" stroke="#9FB3C8"/>
<rect x="938.293" y="625.593" width="156.148" height="156.148" stroke="#9FB3C8"/>
<rect x="1094.44" y="625.593" width="156.148" height="156.148" stroke="#9FB3C8"/>
<rect x="1.40234" y="781.742" width="156.148" height="156.148" stroke="#9FB3C8"/>
<rect x="157.551" y="781.742" width="156.148" height="156.148" stroke="#9FB3C8"/>
<rect x="313.697" y="781.742" width="156.148" height="156.148" stroke="#9FB3C8"/>
<rect x="469.848" y="781.742" width="156.148" height="156.148" stroke="#9FB3C8"/>
<rect x="625.994" y="781.742" width="156.148" height="156.148" stroke="#9FB3C8"/>
<rect x="782.143" y="781.742" width="156.148" height="156.148" stroke="#9FB3C8"/>
<rect x="938.293" y="781.742" width="156.148" height="156.148" stroke="#9FB3C8"/>
<rect x="1094.44" y="781.742" width="156.148" height="156.148" stroke="#9FB3C8"/>
<rect x="1.40234" y="937.89" width="156.148" height="156.148" stroke="#9FB3C8"/>
<rect x="157.551" y="937.89" width="156.148" height="156.148" stroke="#9FB3C8"/>
<rect x="313.697" y="937.89" width="156.148" height="156.148" stroke="#9FB3C8"/>
<rect x="469.848" y="937.89" width="156.148" height="156.148" stroke="#9FB3C8"/>
<rect x="625.994" y="937.89" width="156.148" height="156.148" stroke="#9FB3C8"/>
<rect x="782.143" y="937.89" width="156.148" height="156.148" stroke="#9FB3C8"/>
<rect x="938.293" y="937.89" width="156.148" height="156.148" stroke="#9FB3C8"/>
<rect x="1094.44" y="937.89" width="156.148" height="156.148" stroke="#9FB3C8"/>
</mask>
<g mask="url(#mask0_1694_21439)">
<rect x="-586" y="-512" width="2419" height="2116" fill="url(#paint0_radial_1694_21439)" fill-opacity="0.5"/>
</g>
<line x1="782.5" y1="459.5" x2="782.5" y2="390.5" stroke="url(#paint1_linear_1694_21439)" stroke-opacity="0.5" stroke-width="3" stroke-linecap="round"/>
<line x1="1094.53" y1="555.543" x2="1094.53" y2="486.543" stroke="url(#paint2_linear_1694_21439)" stroke-opacity="0.25" stroke-width="3" stroke-linecap="round"/>
<line x1="625.793" y1="535.871" x2="625.793" y2="466.871" stroke="url(#paint3_linear_1694_21439)" stroke-opacity="0.5" stroke-width="3" stroke-linecap="round"/>
</g>
<defs>
<radialGradient id="paint0_radial_1694_21439" cx="0" cy="0" r="1" gradientUnits="userSpaceOnUse" gradientTransform="translate(623.5 429.5) rotate(180) scale(1132.5 1229.22)">
<stop stop-color="#9FB3C8"/>
<stop offset="0.537435" stop-color="white" stop-opacity="0"/>
</radialGradient>
<linearGradient id="paint1_linear_1694_21439" x1="785" y1="389" x2="785" y2="461" gradientUnits="userSpaceOnUse">
<stop stop-color="#307FE2"/>
<stop offset="1" stop-color="#307FE2" stop-opacity="0"/>
</linearGradient>
<linearGradient id="paint2_linear_1694_21439" x1="1097.03" y1="485.043" x2="1097.03" y2="557.043" gradientUnits="userSpaceOnUse">
<stop stop-color="#307FE2"/>
<stop offset="1" stop-color="#307FE2" stop-opacity="0"/>
</linearGradient>
<linearGradient id="paint3_linear_1694_21439" x1="628.293" y1="465.371" x2="628.293" y2="537.371" gradientUnits="userSpaceOnUse">
<stop stop-color="#307FE2"/>
<stop offset="1" stop-color="#307FE2" stop-opacity="0"/>
</linearGradient>
<clipPath id="clip0_1694_21439">
<rect width="1252" height="1095" fill="white"/>
</clipPath>
</defs>
</svg>
