<svg width="6" height="135" viewBox="0 0 6 135" fill="none" xmlns="http://www.w3.org/2000/svg">
<path d="M3.94358 0H2.05642C1.19683 0 0.5 0.696561 0.5 1.55581V8.44029C0.5 9.29954 1.19683 9.9961 2.05642 9.9961H3.94358C4.80317 9.9961 5.5 9.29954 5.5 8.44029V1.55581C5.5 0.696561 4.80317 0 3.94358 0Z" fill="#D9E2EC"/>
<path d="M3.94358 24.9961H2.05642C1.19683 24.9961 0.5 25.6927 0.5 26.5519V33.4364C0.5 34.2956 1.19683 34.9922 2.05642 34.9922H3.94358C4.80317 34.9922 5.5 34.2956 5.5 33.4364V26.5519C5.5 25.6927 4.80317 24.9961 3.94358 24.9961Z" fill="#D9E2EC"/>
<path d="M3.94358 49.9922H2.05642C1.19683 49.9922 0.5 50.6887 0.5 51.548V58.4325C0.5 59.2917 1.19683 59.9883 2.05642 59.9883H3.94358C4.80317 59.9883 5.5 59.2917 5.5 58.4325V51.548C5.5 50.6887 4.80317 49.9922 3.94358 49.9922Z" fill="#D9E2EC"/>
<path d="M3.94358 74.9883H2.05642C1.19683 74.9883 0.5 75.6848 0.5 76.5441V83.4286C0.5 84.2878 1.19683 84.9844 2.05642 84.9844H3.94358C4.80317 84.9844 5.5 84.2878 5.5 83.4286V76.5441C5.5 75.6848 4.80317 74.9883 3.94358 74.9883Z" fill="#D9E2EC"/>
<path d="M3.94358 99.9844H2.05642C1.19683 99.9844 0.5 100.681 0.5 101.54V108.425C0.5 109.284 1.19683 109.98 2.05642 109.98H3.94358C4.80317 109.98 5.5 109.284 5.5 108.425V101.54C5.5 100.681 4.80317 99.9844 3.94358 99.9844Z" fill="#D9E2EC"/>
<path d="M3.94358 124.98H2.05642C1.19683 124.98 0.5 125.677 0.5 126.536V133.421C0.5 134.28 1.19683 134.977 2.05642 134.977H3.94358C4.80317 134.977 5.5 134.28 5.5 133.421V126.536C5.5 125.677 4.80317 124.98 3.94358 124.98Z" fill="#D9E2EC"/>
</svg>
