<svg width="1030" height="812" viewBox="0 0 1030 812" fill="none" xmlns="http://www.w3.org/2000/svg">
<g clip-path="url(#clip0_2739_20216)">
<rect width="1030" height="812" fill="white"/>
<g clip-path="url(#clip1_2739_20216)">
<path d="M260.031 809.93C895.324 809.93 1410.33 294.923 1410.33 -340.37C1410.33 -975.663 895.324 -1490.67 260.031 -1490.67C-375.263 -1490.67 -890.27 -975.663 -890.27 -340.37C-890.27 294.923 -375.263 809.93 260.031 809.93Z" stroke="#E6F1FF" stroke-miterlimit="10"/>
<path d="M260.031 810.7C895.324 810.7 1410.33 295.693 1410.33 -339.6C1410.33 -974.893 895.324 -1489.9 260.031 -1489.9C-375.263 -1489.9 -890.27 -974.893 -890.27 -339.6C-890.27 295.693 -375.263 810.7 260.031 810.7Z" stroke="#E6F1FF" stroke-miterlimit="10"/>
<path d="M260.031 812.23C895.324 812.23 1410.33 297.223 1410.33 -338.07C1410.33 -973.363 895.324 -1488.37 260.031 -1488.37C-375.263 -1488.37 -890.27 -973.363 -890.27 -338.07C-890.27 297.223 -375.263 812.23 260.031 812.23Z" stroke="#E6F1FF" stroke-miterlimit="10"/>
<path d="M260.031 814.53C895.324 814.53 1410.33 299.523 1410.33 -335.77C1410.33 -971.063 895.324 -1486.07 260.031 -1486.07C-375.263 -1486.07 -890.27 -971.063 -890.27 -335.77C-890.27 299.523 -375.263 814.53 260.031 814.53Z" stroke="#E6F1FF" stroke-miterlimit="10"/>
<path d="M259.999 817.57C895.292 817.57 1410.3 302.563 1410.3 -332.73C1410.3 -968.023 895.292 -1483.03 259.999 -1483.03C-375.294 -1483.03 -890.301 -968.023 -890.301 -332.73C-890.301 302.563 -375.294 817.57 259.999 817.57Z" stroke="#E6F1FF" stroke-miterlimit="10"/>
<path d="M259.96 821.4C895.253 821.4 1410.26 306.393 1410.26 -328.9C1410.26 -964.193 895.253 -1479.2 259.96 -1479.2C-375.333 -1479.2 -890.34 -964.193 -890.34 -328.9C-890.34 306.393 -375.333 821.4 259.96 821.4Z" stroke="#E6F1FF" stroke-miterlimit="10"/>
<path d="M259.901 825.97C895.195 825.97 1410.2 310.963 1410.2 -324.33C1410.2 -959.623 895.195 -1474.63 259.901 -1474.63C-375.392 -1474.63 -890.398 -959.623 -890.398 -324.33C-890.398 310.963 -375.392 825.97 259.901 825.97Z" stroke="#E6F1FF" stroke-miterlimit="10"/>
<path d="M259.8 831.34C895.093 831.34 1410.1 316.333 1410.1 -318.96C1410.1 -954.253 895.093 -1469.26 259.8 -1469.26C-375.493 -1469.26 -890.5 -954.253 -890.5 -318.96C-890.5 316.333 -375.493 831.34 259.8 831.34Z" stroke="#E6F1FF" stroke-miterlimit="10"/>
<path d="M259.659 837.44C894.952 837.44 1409.96 322.433 1409.96 -312.86C1409.96 -948.153 894.952 -1463.16 259.659 -1463.16C-375.634 -1463.16 -890.641 -948.153 -890.641 -312.86C-890.641 322.433 -375.634 837.44 259.659 837.44Z" stroke="#E6F1FF" stroke-miterlimit="10"/>
<path d="M259.46 844.31C894.753 844.31 1409.76 329.303 1409.76 -305.99C1409.76 -941.283 894.753 -1456.29 259.46 -1456.29C-375.833 -1456.29 -890.84 -941.283 -890.84 -305.99C-890.84 329.303 -375.833 844.31 259.46 844.31Z" stroke="#E6F1FF" stroke-miterlimit="10"/>
<path d="M259.159 851.94C894.452 851.94 1409.46 336.933 1409.46 -298.36C1409.46 -933.653 894.452 -1448.66 259.159 -1448.66C-376.134 -1448.66 -891.141 -933.653 -891.141 -298.36C-891.141 336.933 -376.134 851.94 259.159 851.94Z" stroke="#E6F1FF" stroke-miterlimit="10"/>
<path d="M258.761 860.34C894.054 860.34 1409.06 345.333 1409.06 -289.96C1409.06 -925.253 894.054 -1440.26 258.761 -1440.26C-376.532 -1440.26 -891.539 -925.253 -891.539 -289.96C-891.539 345.333 -376.532 860.34 258.761 860.34Z" stroke="#E6F1FF" stroke-miterlimit="10"/>
<path d="M258.3 869.48C893.593 869.48 1408.6 354.473 1408.6 -280.82C1408.6 -916.113 893.593 -1431.12 258.3 -1431.12C-376.993 -1431.12 -892 -916.113 -892 -280.82C-892 354.473 -376.993 869.48 258.3 869.48Z" stroke="#E6F1FF" stroke-miterlimit="10"/>
<path d="M257.659 879.38C892.952 879.38 1407.96 364.373 1407.96 -270.92C1407.96 -906.213 892.952 -1421.22 257.659 -1421.22C-377.634 -1421.22 -892.641 -906.213 -892.641 -270.92C-892.641 364.373 -377.634 879.38 257.659 879.38Z" stroke="#E6F1FF" stroke-miterlimit="10"/>
<path d="M256.859 890.05C892.152 890.05 1407.16 375.043 1407.16 -260.25C1407.16 -895.543 892.152 -1410.55 256.859 -1410.55C-378.435 -1410.55 -893.441 -895.543 -893.441 -260.25C-893.441 375.043 -378.435 890.05 256.859 890.05Z" stroke="#E6F1FF" stroke-miterlimit="10"/>
<path d="M255.901 901.42C891.195 901.42 1406.2 386.413 1406.2 -248.88C1406.2 -884.173 891.195 -1399.18 255.901 -1399.18C-379.392 -1399.18 -894.398 -884.173 -894.398 -248.88C-894.398 386.413 -379.392 901.42 255.901 901.42Z" stroke="#E6F1FF" stroke-miterlimit="10"/>
<path d="M254.73 913.56C890.023 913.56 1405.03 398.553 1405.03 -236.74C1405.03 -872.033 890.023 -1387.04 254.73 -1387.04C-380.564 -1387.04 -895.57 -872.033 -895.57 -236.74C-895.57 398.553 -380.564 913.56 254.73 913.56Z" stroke="#E6F1FF" stroke-miterlimit="10"/>
<path d="M253.3 926.43C888.593 926.43 1403.6 411.423 1403.6 -223.87C1403.6 -859.163 888.593 -1374.17 253.3 -1374.17C-381.993 -1374.17 -897 -859.163 -897 -223.87C-897 411.423 -381.993 926.43 253.3 926.43Z" stroke="#E6F1FF" stroke-miterlimit="10"/>
<path d="M251.628 940C886.921 940 1401.93 424.993 1401.93 -210.3C1401.93 -845.593 886.921 -1360.6 251.628 -1360.6C-383.665 -1360.6 -898.672 -845.593 -898.672 -210.3C-898.672 424.993 -383.665 940 251.628 940Z" stroke="#E6F1FF" stroke-miterlimit="10"/>
<path d="M249.691 954.27C884.984 954.27 1399.99 439.263 1399.99 -196.03C1399.99 -831.323 884.984 -1346.33 249.691 -1346.33C-385.603 -1346.33 -900.609 -831.323 -900.609 -196.03C-900.609 439.263 -385.603 954.27 249.691 954.27Z" stroke="#E6F1FF" stroke-miterlimit="10"/>
<path d="M247.39 969.27C882.683 969.27 1397.69 454.263 1397.69 -181.03C1397.69 -816.323 882.683 -1331.33 247.39 -1331.33C-387.903 -1331.33 -902.91 -816.323 -902.91 -181.03C-902.91 454.263 -387.903 969.27 247.39 969.27Z" stroke="#E6F1FF" stroke-miterlimit="10"/>
<path d="M244.761 984.94C880.054 984.94 1395.06 469.933 1395.06 -165.36C1395.06 -800.653 880.054 -1315.66 244.761 -1315.66C-390.532 -1315.66 -905.539 -800.653 -905.539 -165.36C-905.539 469.933 -390.532 984.94 244.761 984.94Z" stroke="#E6F1FF" stroke-miterlimit="10"/>
<path d="M241.73 1001.25C877.023 1001.25 1392.03 486.243 1392.03 -149.05C1392.03 -784.343 877.023 -1299.35 241.73 -1299.35C-393.564 -1299.35 -908.57 -784.343 -908.57 -149.05C-908.57 486.243 -393.564 1001.25 241.73 1001.25Z" stroke="#E6F1FF" stroke-miterlimit="10"/>
<path d="M238.261 1018.22C873.554 1018.22 1388.56 503.213 1388.56 -132.08C1388.56 -767.373 873.554 -1282.38 238.261 -1282.38C-397.032 -1282.38 -912.039 -767.373 -912.039 -132.08C-912.039 503.213 -397.032 1018.22 238.261 1018.22Z" stroke="#E6F1FF" stroke-miterlimit="10"/>
<path d="M234.359 1035.82C869.652 1035.82 1384.66 520.813 1384.66 -114.48C1384.66 -749.773 869.652 -1264.78 234.359 -1264.78C-400.935 -1264.78 -915.941 -749.773 -915.941 -114.48C-915.941 520.813 -400.935 1035.82 234.359 1035.82Z" stroke="#E6F1FF" stroke-miterlimit="10"/>
<path d="M229.921 1053.99C865.214 1053.99 1380.22 538.983 1380.22 -96.3101C1380.22 -731.603 865.214 -1246.61 229.921 -1246.61C-405.372 -1246.61 -920.379 -731.603 -920.379 -96.3101C-920.379 538.983 -405.372 1053.99 229.921 1053.99Z" stroke="#E6F1FF" stroke-miterlimit="10"/>
<path d="M224.948 1072.73C860.241 1072.73 1375.25 557.723 1375.25 -77.5701C1375.25 -712.863 860.241 -1227.87 224.948 -1227.87C-410.345 -1227.87 -925.352 -712.863 -925.352 -77.5701C-925.352 557.723 -410.345 1072.73 224.948 1072.73Z" stroke="#E6F1FF" stroke-miterlimit="10"/>
<path d="M219.421 1092C854.714 1092 1369.72 576.993 1369.72 -58.3C1369.72 -693.593 854.714 -1208.6 219.421 -1208.6C-415.872 -1208.6 -930.879 -693.593 -930.879 -58.3C-930.879 576.993 -415.872 1092 219.421 1092Z" stroke="#E6F1FF" stroke-miterlimit="10"/>
<path d="M213.281 1111.77C848.574 1111.77 1363.58 596.763 1363.58 -38.53C1363.58 -673.823 848.574 -1188.83 213.281 -1188.83C-422.013 -1188.83 -937.02 -673.823 -937.02 -38.53C-937.02 596.763 -422.013 1111.77 213.281 1111.77Z" stroke="#E6F1FF" stroke-miterlimit="10"/>
<path d="M206.48 1132.01C841.773 1132.01 1356.78 617.003 1356.78 -18.29C1356.78 -653.583 841.773 -1168.59 206.48 -1168.59C-428.814 -1168.59 -943.82 -653.583 -943.82 -18.29C-943.82 617.003 -428.814 1132.01 206.48 1132.01Z" stroke="#E6F1FF" stroke-miterlimit="10"/>
<path d="M198.98 1152.65C834.273 1152.65 1349.28 637.643 1349.28 2.3501C1349.28 -632.943 834.273 -1147.95 198.98 -1147.95C-436.314 -1147.95 -951.32 -632.943 -951.32 2.3501C-951.32 637.643 -436.314 1152.65 198.98 1152.65Z" stroke="#E6F1FF" stroke-miterlimit="10"/>
<path d="M190.749 1173.69C826.042 1173.69 1341.05 658.683 1341.05 23.3899C1341.05 -611.903 826.042 -1126.91 190.749 -1126.91C-444.544 -1126.91 -959.551 -611.903 -959.551 23.3899C-959.551 658.683 -444.544 1173.69 190.749 1173.69Z" stroke="#E6F1FF" stroke-miterlimit="10"/>
<path d="M181.71 1195C817.003 1195 1332.01 679.993 1332.01 44.7C1332.01 -590.593 817.003 -1105.6 181.71 -1105.6C-453.583 -1105.6 -968.59 -590.593 -968.59 44.7C-968.59 679.993 -453.583 1195 181.71 1195Z" stroke="#E6F1FF" stroke-miterlimit="10"/>
<path d="M171.87 1216.57C807.164 1216.57 1322.17 701.563 1322.17 66.27C1322.17 -569.023 807.164 -1084.03 171.87 -1084.03C-463.423 -1084.03 -978.43 -569.023 -978.43 66.27C-978.43 701.563 -463.423 1216.57 171.87 1216.57Z" stroke="#E6F1FF" stroke-miterlimit="10"/>
<path d="M161.198 1238.34C796.491 1238.34 1311.5 723.333 1311.5 88.04C1311.5 -547.253 796.491 -1062.26 161.198 -1062.26C-474.095 -1062.26 -989.102 -547.253 -989.102 88.04C-989.102 723.333 -474.095 1238.34 161.198 1238.34Z" stroke="#E6F1FF" stroke-miterlimit="10"/>
<path d="M149.628 1260.21C784.921 1260.21 1299.93 745.203 1299.93 109.91C1299.93 -525.383 784.921 -1040.39 149.628 -1040.39C-485.665 -1040.39 -1000.67 -525.383 -1000.67 109.91C-1000.67 745.203 -485.665 1260.21 149.628 1260.21Z" stroke="#E6F1FF" stroke-miterlimit="10"/>
<path d="M137.128 1282.15C772.421 1282.15 1287.43 767.143 1287.43 131.85C1287.43 -503.443 772.421 -1018.45 137.128 -1018.45C-498.165 -1018.45 -1013.17 -503.443 -1013.17 131.85C-1013.17 767.143 -498.165 1282.15 137.128 1282.15Z" stroke="#E6F1FF" stroke-miterlimit="10"/>
<path d="M123.691 1304.06C758.984 1304.06 1273.99 789.053 1273.99 153.76C1273.99 -481.533 758.984 -996.54 123.691 -996.54C-511.603 -996.54 -1026.61 -481.533 -1026.61 153.76C-1026.61 789.053 -511.603 1304.06 123.691 1304.06Z" stroke="#E6F1FF" stroke-miterlimit="10"/>
<path d="M922.638 988.94C1371.85 539.724 1371.85 -188.6 922.638 -637.816C473.421 -1087.03 -254.902 -1087.03 -704.118 -637.816C-1153.33 -188.6 -1153.33 539.724 -704.118 988.94C-254.902 1438.16 473.421 1438.16 922.638 988.94Z" stroke="#E6F1FF" stroke-miterlimit="10"/>
<path d="M93.7883 1347.44C729.082 1347.44 1244.09 832.433 1244.09 197.14C1244.09 -438.153 729.082 -953.16 93.7883 -953.16C-541.505 -953.16 -1056.51 -438.153 -1056.51 197.14C-1056.51 832.433 -541.505 1347.44 93.7883 1347.44Z" stroke="#E6F1FF" stroke-miterlimit="10"/>
<path d="M77.3196 1368.74C712.613 1368.74 1227.62 853.733 1227.62 218.44C1227.62 -416.853 712.613 -931.86 77.3196 -931.86C-557.974 -931.86 -1072.98 -416.853 -1072.98 218.44C-1072.98 853.733 -557.974 1368.74 77.3196 1368.74Z" stroke="#E6F1FF" stroke-miterlimit="10"/>
<path d="M59.7415 1389.65C695.035 1389.65 1210.04 874.643 1210.04 239.35C1210.04 -395.943 695.035 -910.95 59.7415 -910.95C-575.552 -910.95 -1090.56 -395.943 -1090.56 239.35C-1090.56 874.643 -575.552 1389.65 59.7415 1389.65Z" stroke="#E6F1FF" stroke-miterlimit="10"/>
<path d="M41.1086 1410.05C676.402 1410.05 1191.41 895.043 1191.41 259.75C1191.41 -375.543 676.402 -890.55 41.1086 -890.55C-594.185 -890.55 -1109.19 -375.543 -1109.19 259.75C-1109.19 895.043 -594.185 1410.05 41.1086 1410.05Z" stroke="#E6F1FF" stroke-miterlimit="10"/>
<path d="M21.3704 1429.82C656.664 1429.82 1171.67 914.813 1171.67 279.52C1171.67 -355.773 656.664 -870.78 21.3704 -870.78C-613.923 -870.78 -1128.93 -355.773 -1128.93 279.52C-1128.93 914.813 -613.923 1429.82 21.3704 1429.82Z" stroke="#E6F1FF" stroke-miterlimit="10"/>
<path d="M0.530518 1448.9C635.824 1448.9 1150.83 933.893 1150.83 298.6C1150.83 -336.693 635.824 -851.7 0.530518 -851.7C-634.763 -851.7 -1149.77 -336.693 -1149.77 298.6C-1149.77 933.893 -634.763 1448.9 0.530518 1448.9Z" stroke="#E6F1FF" stroke-miterlimit="10"/>
<path d="M-21.4109 1467.1C613.882 1467.1 1128.89 952.093 1128.89 316.8C1128.89 -318.493 613.882 -833.5 -21.4109 -833.5C-656.704 -833.5 -1171.71 -318.493 -1171.71 316.8C-1171.71 952.093 -656.704 1467.1 -21.4109 1467.1Z" stroke="#E6F1FF" stroke-miterlimit="10"/>
<path d="M-44.45 1484.37C590.843 1484.37 1105.85 969.363 1105.85 334.07C1105.85 -301.223 590.843 -816.23 -44.45 -816.23C-679.743 -816.23 -1194.75 -301.223 -1194.75 334.07C-1194.75 969.363 -679.743 1484.37 -44.45 1484.37Z" stroke="#E6F1FF" stroke-miterlimit="10"/>
<path d="M-68.5906 1500.51C566.703 1500.51 1081.71 985.503 1081.71 350.21C1081.71 -285.083 566.703 -800.09 -68.5906 -800.09C-703.884 -800.09 -1218.89 -285.083 -1218.89 350.21C-1218.89 985.503 -703.884 1500.51 -68.5906 1500.51Z" stroke="#E6F1FF" stroke-miterlimit="10"/>
<path d="M-93.7898 1515.45C541.503 1515.45 1056.51 1000.44 1056.51 365.15C1056.51 -270.143 541.503 -785.15 -93.7898 -785.15C-729.083 -785.15 -1244.09 -270.143 -1244.09 365.15C-1244.09 1000.44 -729.083 1515.45 -93.7898 1515.45Z" stroke="#E6F1FF" stroke-miterlimit="10"/>
<path d="M-120.04 1528.98C515.253 1528.98 1030.26 1013.97 1030.26 378.68C1030.26 -256.613 515.253 -771.62 -120.04 -771.62C-755.333 -771.62 -1270.34 -256.613 -1270.34 378.68C-1270.34 1013.97 -755.333 1528.98 -120.04 1528.98Z" stroke="#E6F1FF" stroke-miterlimit="10"/>
<path d="M-147.309 1541.05C487.984 1541.05 1002.99 1026.04 1002.99 390.75C1002.99 -244.543 487.984 -759.55 -147.309 -759.55C-782.603 -759.55 -1297.61 -244.543 -1297.61 390.75C-1297.61 1026.04 -782.603 1541.05 -147.309 1541.05Z" stroke="#E6F1FF" stroke-miterlimit="10"/>
<path d="M-175.579 1551.46C459.714 1551.46 974.721 1036.45 974.721 401.16C974.721 -234.133 459.714 -749.14 -175.579 -749.14C-810.872 -749.14 -1325.88 -234.133 -1325.88 401.16C-1325.88 1036.45 -810.872 1551.46 -175.579 1551.46Z" stroke="#E6F1FF" stroke-miterlimit="10"/>
<path d="M-204.759 1560.09C430.535 1560.09 945.542 1045.08 945.542 409.79C945.542 -225.503 430.535 -740.51 -204.759 -740.51C-840.052 -740.51 -1355.06 -225.503 -1355.06 409.79C-1355.06 1045.08 -840.052 1560.09 -204.759 1560.09Z" stroke="#E6F1FF" stroke-miterlimit="10"/>
<path d="M-234.802 1566.79C400.491 1566.79 915.499 1051.78 915.499 416.49C915.499 -218.803 400.491 -733.81 -234.802 -733.81C-870.095 -733.81 -1385.1 -218.803 -1385.1 416.49C-1385.1 1051.78 -870.095 1566.79 -234.802 1566.79Z" stroke="#E6F1FF" stroke-miterlimit="10"/>
<path d="M-265.641 1571.46C369.652 1571.46 884.658 1056.45 884.658 421.16C884.658 -214.133 369.652 -729.14 -265.641 -729.14C-900.935 -729.14 -1415.94 -214.133 -1415.94 421.16C-1415.94 1056.45 -900.935 1571.46 -265.641 1571.46Z" stroke="#E6F1FF" stroke-miterlimit="10"/>
<path d="M-297.212 1573.93C338.082 1573.93 853.088 1058.92 853.088 423.63C853.088 -211.663 338.082 -726.67 -297.212 -726.67C-932.505 -726.67 -1447.51 -211.663 -1447.51 423.63C-1447.51 1058.92 -932.505 1573.93 -297.212 1573.93Z" stroke="#E6F1FF" stroke-miterlimit="10"/>
<path d="M-329.391 1574.06C305.902 1574.06 820.908 1059.05 820.908 423.76C820.908 -211.533 305.902 -726.54 -329.391 -726.54C-964.685 -726.54 -1479.69 -211.533 -1479.69 423.76C-1479.69 1059.05 -964.685 1574.06 -329.391 1574.06Z" stroke="#E6F1FF" stroke-miterlimit="10"/>
<path d="M-362.098 1571.73C273.195 1571.73 788.202 1056.72 788.202 421.43C788.202 -213.863 273.195 -728.87 -362.098 -728.87C-997.392 -728.87 -1512.4 -213.863 -1512.4 421.43C-1512.4 1056.72 -997.392 1571.73 -362.098 1571.73Z" stroke="#E6F1FF" stroke-miterlimit="10"/>
<path d="M-395.239 1566.86C240.054 1566.86 755.061 1051.85 755.061 416.56C755.061 -218.733 240.054 -733.74 -395.239 -733.74C-1030.53 -733.74 -1545.54 -218.733 -1545.54 416.56C-1545.54 1051.85 -1030.53 1566.86 -395.239 1566.86Z" stroke="#E6F1FF" stroke-miterlimit="10"/>
<path d="M-428.649 1559.26C206.644 1559.26 721.651 1044.25 721.651 408.96C721.651 -226.333 206.644 -741.34 -428.649 -741.34C-1063.94 -741.34 -1578.95 -226.333 -1578.95 408.96C-1578.95 1044.25 -1063.94 1559.26 -428.649 1559.26Z" stroke="#E6F1FF" stroke-miterlimit="10"/>
<path d="M-462.259 1548.85C173.035 1548.85 688.042 1033.84 688.042 398.55C688.042 -236.743 173.035 -751.75 -462.259 -751.75C-1097.55 -751.75 -1612.56 -236.743 -1612.56 398.55C-1612.56 1033.84 -1097.55 1548.85 -462.259 1548.85Z" stroke="#E6F1FF" stroke-miterlimit="10"/>
<path d="M-495.829 1535.58C139.464 1535.58 654.471 1020.57 654.471 385.28C654.471 -250.013 139.464 -765.02 -495.829 -765.02C-1131.12 -765.02 -1646.13 -250.013 -1646.13 385.28C-1646.13 1020.57 -1131.12 1535.58 -495.829 1535.58Z" stroke="#E6F1FF" stroke-miterlimit="10"/>
<path d="M-529.309 1519.31C105.984 1519.31 620.991 1004.3 620.991 369.01C620.991 -266.283 105.984 -781.29 -529.309 -781.29C-1164.6 -781.29 -1679.61 -266.283 -1679.61 369.01C-1679.61 1004.3 -1164.6 1519.31 -529.309 1519.31Z" stroke="#E6F1FF" stroke-miterlimit="10"/>
<path d="M-562.481 1500.01C72.812 1500.01 587.819 985.003 587.819 349.71C587.819 -285.583 72.812 -800.59 -562.481 -800.59C-1197.77 -800.59 -1712.78 -285.583 -1712.78 349.71C-1712.78 985.003 -1197.77 1500.01 -562.481 1500.01Z" stroke="#E6F1FF" stroke-miterlimit="10"/>
<path d="M-595.161 1477.57C40.1321 1477.57 555.139 962.563 555.139 327.27C555.139 -308.023 40.1321 -823.03 -595.161 -823.03C-1230.45 -823.03 -1745.46 -308.023 -1745.46 327.27C-1745.46 962.563 -1230.45 1477.57 -595.161 1477.57Z" stroke="#E6F1FF" stroke-miterlimit="10"/>
<path d="M-627.169 1452C8.12427 1452 523.131 936.993 523.131 301.7C523.131 -333.593 8.12427 -848.6 -627.169 -848.6C-1262.46 -848.6 -1777.47 -333.593 -1777.47 301.7C-1777.47 936.993 -1262.46 1452 -627.169 1452Z" stroke="#E6F1FF" stroke-miterlimit="10"/>
<path d="M-658.341 1423.29C-23.0474 1423.29 491.959 908.283 491.959 272.99C491.959 -362.303 -23.0474 -877.31 -658.341 -877.31C-1293.63 -877.31 -1808.64 -362.303 -1808.64 272.99C-1808.64 908.283 -1293.63 1423.29 -658.341 1423.29Z" stroke="#E6F1FF" stroke-miterlimit="10"/>
<path d="M-688.45 1391.38C-53.1567 1391.38 461.85 876.373 461.85 241.08C461.85 -394.213 -53.1567 -909.22 -688.45 -909.22C-1323.74 -909.22 -1838.75 -394.213 -1838.75 241.08C-1838.75 876.373 -1323.74 1391.38 -688.45 1391.38Z" stroke="#E6F1FF" stroke-miterlimit="10"/>
<path d="M-717.29 1356.37C-81.9968 1356.37 433.01 841.363 433.01 206.07C433.01 -429.223 -81.9968 -944.23 -717.29 -944.23C-1352.58 -944.23 -1867.59 -429.223 -1867.59 206.07C-1867.59 841.363 -1352.58 1356.37 -717.29 1356.37Z" stroke="#E6F1FF" stroke-miterlimit="10"/>
<path d="M-744.661 1318.23C-109.368 1318.23 405.639 803.223 405.639 167.93C405.639 -467.363 -109.368 -982.37 -744.661 -982.37C-1379.95 -982.37 -1894.96 -467.363 -1894.96 167.93C-1894.96 803.223 -1379.95 1318.23 -744.661 1318.23Z" stroke="#E6F1FF" stroke-miterlimit="10"/>
<path d="M-770.341 1277.12C-135.047 1277.12 379.959 762.113 379.959 126.82C379.959 -508.473 -135.047 -1023.48 -770.341 -1023.48C-1405.63 -1023.48 -1920.64 -508.473 -1920.64 126.82C-1920.64 762.113 -1405.63 1277.12 -770.341 1277.12Z" stroke="#E6F1FF" stroke-miterlimit="10"/>
<path d="M-794.11 1233.04C-158.817 1233.04 356.19 718.033 356.19 82.74C356.19 -552.553 -158.817 -1067.56 -794.11 -1067.56C-1429.4 -1067.56 -1944.41 -552.553 -1944.41 82.74C-1944.41 718.033 -1429.4 1233.04 -794.11 1233.04Z" stroke="#E6F1FF" stroke-miterlimit="10"/>
<path d="M-815.751 1186.19C-180.458 1186.19 334.549 671.183 334.549 35.8899C334.549 -599.403 -180.458 -1114.41 -815.751 -1114.41C-1451.04 -1114.41 -1966.05 -599.403 -1966.05 35.8899C-1966.05 671.183 -1451.04 1186.19 -815.751 1186.19Z" stroke="#E6F1FF" stroke-miterlimit="10"/>
<path d="M-835.052 1136.71C-199.759 1136.71 315.249 621.703 315.249 -13.5901C315.249 -648.883 -199.759 -1163.89 -835.052 -1163.89C-1470.34 -1163.89 -1985.35 -648.883 -1985.35 -13.5901C-1985.35 621.703 -1470.34 1136.71 -835.052 1136.71Z" stroke="#E6F1FF" stroke-miterlimit="10"/>
<path d="M-851.79 1084.77C-216.497 1084.77 298.51 569.763 298.51 -65.53C298.51 -700.823 -216.497 -1215.83 -851.79 -1215.83C-1487.08 -1215.83 -2002.09 -700.823 -2002.09 -65.53C-2002.09 569.763 -1487.08 1084.77 -851.79 1084.77Z" stroke="#E6F1FF" stroke-miterlimit="10"/>
<path d="M-865.759 1030.62C-230.465 1030.62 284.542 515.613 284.542 -119.68C284.542 -754.973 -230.465 -1269.98 -865.759 -1269.98C-1501.05 -1269.98 -2016.06 -754.973 -2016.06 -119.68C-2016.06 515.613 -1501.05 1030.62 -865.759 1030.62Z" stroke="#E6F1FF" stroke-miterlimit="10"/>
<path d="M-876.802 974.47C-241.509 974.47 273.499 459.463 273.499 -175.83C273.499 -811.123 -241.509 -1326.13 -876.802 -1326.13C-1512.09 -1326.13 -2027.1 -811.123 -2027.1 -175.83C-2027.1 459.463 -1512.09 974.47 -876.802 974.47Z" stroke="#E6F1FF" stroke-miterlimit="10"/>
<path d="M-884.63 916.62C-249.336 916.62 265.67 401.613 265.67 -233.68C265.67 -868.973 -249.336 -1383.98 -884.63 -1383.98C-1519.92 -1383.98 -2034.93 -868.973 -2034.93 -233.68C-2034.93 401.613 -1519.92 916.62 -884.63 916.62Z" stroke="#E6F1FF" stroke-miterlimit="10"/>
<path d="M-889.169 857.38C-253.876 857.38 261.131 342.373 261.131 -292.92C261.131 -928.213 -253.876 -1443.22 -889.169 -1443.22C-1524.46 -1443.22 -2039.47 -928.213 -2039.47 -292.92C-2039.47 342.373 -1524.46 857.38 -889.169 857.38Z" stroke="#E6F1FF" stroke-miterlimit="10"/>
<path d="M-890.2 797.06C-254.907 797.06 260.1 282.053 260.1 -353.24C260.1 -988.533 -254.907 -1503.54 -890.2 -1503.54C-1525.49 -1503.54 -2040.5 -988.533 -2040.5 -353.24C-2040.5 282.053 -1525.49 797.06 -890.2 797.06Z" stroke="#E6F1FF" stroke-miterlimit="10"/>
<path d="M-887.571 736.11C-252.278 736.11 262.729 221.103 262.729 -414.19C262.729 -1049.48 -252.278 -1564.49 -887.571 -1564.49C-1522.86 -1564.49 -2037.87 -1049.48 -2037.87 -414.19C-2037.87 221.103 -1522.86 736.11 -887.571 736.11Z" stroke="#E6F1FF" stroke-miterlimit="10"/>
<path d="M-881.2 674.86C-245.907 674.86 269.1 159.853 269.1 -475.44C269.1 -1110.73 -245.907 -1625.74 -881.2 -1625.74C-1516.49 -1625.74 -2031.5 -1110.73 -2031.5 -475.44C-2031.5 159.853 -1516.49 674.86 -881.2 674.86Z" stroke="#E6F1FF" stroke-miterlimit="10"/>
<path d="M-871.001 613.75C-235.708 613.75 279.299 98.743 279.299 -536.55C279.299 -1171.84 -235.708 -1686.85 -871.001 -1686.85C-1506.29 -1686.85 -2021.3 -1171.84 -2021.3 -536.55C-2021.3 98.743 -1506.29 613.75 -871.001 613.75Z" stroke="#E6F1FF" stroke-miterlimit="10"/>
<path d="M-856.86 553.23C-221.567 553.23 293.44 38.2231 293.44 -597.07C293.44 -1232.36 -221.567 -1747.37 -856.86 -1747.37C-1492.15 -1747.37 -2007.16 -1232.36 -2007.16 -597.07C-2007.16 38.2231 -1492.15 553.23 -856.86 553.23Z" stroke="#E6F1FF" stroke-miterlimit="10"/>
<path d="M-838.79 493.81C-203.497 493.81 311.51 -21.1968 311.51 -656.49C311.51 -1291.78 -203.497 -1806.79 -838.79 -1806.79C-1474.08 -1806.79 -1989.09 -1291.78 -1989.09 -656.49C-1989.09 -21.1968 -1474.08 493.81 -838.79 493.81Z" stroke="#E6F1FF" stroke-miterlimit="10"/>
<path d="M-816.719 435.93C-181.426 435.93 333.581 -79.0767 333.581 -714.37C333.581 -1349.66 -181.426 -1864.67 -816.719 -1864.67C-1452.01 -1864.67 -1967.02 -1349.66 -1967.02 -714.37C-1967.02 -79.0767 -1452.01 435.93 -816.719 435.93Z" stroke="#E6F1FF" stroke-miterlimit="10"/>
<path d="M-790.712 380.12C-155.418 380.12 359.588 -134.887 359.588 -770.18C359.588 -1405.47 -155.418 -1920.48 -790.712 -1920.48C-1426 -1920.48 -1941.01 -1405.47 -1941.01 -770.18C-1941.01 -134.887 -1426 380.12 -790.712 380.12Z" stroke="#E6F1FF" stroke-miterlimit="10"/>
<path d="M-760.872 326.87C-125.579 326.87 389.428 -188.137 389.428 -823.43C389.428 -1458.72 -125.579 -1973.73 -760.872 -1973.73C-1396.16 -1973.73 -1911.17 -1458.72 -1911.17 -823.43C-1911.17 -188.137 -1396.16 326.87 -760.872 326.87Z" stroke="#E6F1FF" stroke-miterlimit="10"/>
<path d="M-727.231 276.76C-91.938 276.76 423.069 -238.247 423.069 -873.54C423.069 -1508.83 -91.938 -2023.84 -727.231 -2023.84C-1362.52 -2023.84 -1877.53 -1508.83 -1877.53 -873.54C-1877.53 -238.247 -1362.52 276.76 -727.231 276.76Z" stroke="#E6F1FF" stroke-miterlimit="10"/>
<path d="M-689.981 230.25C-54.688 230.25 460.319 -284.757 460.319 -920.05C460.319 -1555.34 -54.688 -2070.35 -689.981 -2070.35C-1325.27 -2070.35 -1840.28 -1555.34 -1840.28 -920.05C-1840.28 -284.757 -1325.27 230.25 -689.981 230.25Z" stroke="#E6F1FF" stroke-miterlimit="10"/>
<path d="M-649.341 187.87C-14.0474 187.87 500.959 -327.137 500.959 -962.43C500.959 -1597.72 -14.0474 -2112.73 -649.341 -2112.73C-1284.63 -2112.73 -1799.64 -1597.72 -1799.64 -962.43C-1799.64 -327.137 -1284.63 187.87 -649.341 187.87Z" stroke="#E6F1FF" stroke-miterlimit="10"/>
<path d="M-605.462 150.13C29.8315 150.13 544.838 -364.877 544.838 -1000.17C544.838 -1635.46 29.8315 -2150.47 -605.462 -2150.47C-1240.75 -2150.47 -1755.76 -1635.46 -1755.76 -1000.17C-1755.76 -364.877 -1240.75 150.13 -605.462 150.13Z" stroke="#E6F1FF" stroke-miterlimit="10"/>
<path d="M-558.681 117.48C76.6125 117.48 591.62 -397.527 591.62 -1032.82C591.62 -1668.11 76.6125 -2183.12 -558.681 -2183.12C-1193.97 -2183.12 -1708.98 -1668.11 -1708.98 -1032.82C-1708.98 -397.527 -1193.97 117.48 -558.681 117.48Z" stroke="#E6F1FF" stroke-miterlimit="10"/>
<path d="M-509.341 90.48C125.953 90.48 640.959 -424.527 640.959 -1059.82C640.959 -1695.11 125.953 -2210.12 -509.341 -2210.12C-1144.63 -2210.12 -1659.64 -1695.11 -1659.64 -1059.82C-1659.64 -424.527 -1144.63 90.48 -509.341 90.48Z" stroke="#E6F1FF" stroke-miterlimit="10"/>
<path d="M-457.719 69.4399C177.574 69.4399 692.581 -445.567 692.581 -1080.86C692.581 -1716.15 177.574 -2231.16 -457.719 -2231.16C-1093.01 -2231.16 -1608.02 -1716.15 -1608.02 -1080.86C-1608.02 -445.567 -1093.01 69.4399 -457.719 69.4399Z" stroke="#E6F1FF" stroke-miterlimit="10"/>
<path d="M-404.309 54.8C230.984 54.8 745.991 -460.207 745.991 -1095.5C745.991 -1730.79 230.984 -2245.8 -404.309 -2245.8C-1039.6 -2245.8 -1554.61 -1730.79 -1554.61 -1095.5C-1554.61 -460.207 -1039.6 54.8 -404.309 54.8Z" stroke="#E6F1FF" stroke-miterlimit="10"/>
<path d="M-349.528 46.9299C285.765 46.9299 800.772 -468.077 800.772 -1103.37C800.772 -1738.66 285.765 -2253.67 -349.528 -2253.67C-984.821 -2253.67 -1499.83 -1738.66 -1499.83 -1103.37C-1499.83 -468.077 -984.821 46.9299 -349.528 46.9299Z" stroke="#E6F1FF" stroke-miterlimit="10"/>
<path d="M-293.848 46.1001C341.445 46.1001 856.452 -468.907 856.452 -1104.2C856.452 -1739.49 341.445 -2254.5 -293.848 -2254.5C-929.142 -2254.5 -1444.15 -1739.49 -1444.15 -1104.2C-1444.15 -468.907 -929.142 46.1001 -293.848 46.1001Z" stroke="#E6F1FF" stroke-miterlimit="10"/>
<path d="M-237.802 52.5C397.491 52.5 912.499 -462.507 912.499 -1097.8C912.499 -1733.09 397.491 -2248.1 -237.802 -2248.1C-873.095 -2248.1 -1388.1 -1733.09 -1388.1 -1097.8C-1388.1 -462.507 -873.095 52.5 -237.802 52.5Z" stroke="#E6F1FF" stroke-miterlimit="10"/>
<path d="M-181.919 66.3401C453.374 66.3401 968.381 -448.667 968.381 -1083.96C968.381 -1719.25 453.374 -2234.26 -181.919 -2234.26C-817.212 -2234.26 -1332.22 -1719.25 -1332.22 -1083.96C-1332.22 -448.667 -817.212 66.3401 -181.919 66.3401Z" stroke="#E6F1FF" stroke-miterlimit="10"/>
<path d="M-126.841 87.6799C508.453 87.6799 1023.46 -427.327 1023.46 -1062.62C1023.46 -1697.91 508.453 -2212.92 -126.841 -2212.92C-762.134 -2212.92 -1277.14 -1697.91 -1277.14 -1062.62C-1277.14 -427.327 -762.134 87.6799 -126.841 87.6799Z" stroke="#E6F1FF" stroke-miterlimit="10"/>
<path d="M-73.0906 116.55C562.203 116.55 1077.21 -398.457 1077.21 -1033.75C1077.21 -1669.04 562.203 -2184.05 -73.0906 -2184.05C-708.384 -2184.05 -1223.39 -1669.04 -1223.39 -1033.75C-1223.39 -398.457 -708.384 116.55 -73.0906 116.55Z" stroke="#E6F1FF" stroke-miterlimit="10"/>
<path d="M-21.3094 152.83C613.984 152.83 1128.99 -362.177 1128.99 -997.47C1128.99 -1632.76 613.984 -2147.77 -21.3094 -2147.77C-656.603 -2147.77 -1171.61 -1632.76 -1171.61 -997.47C-1171.61 -362.177 -656.603 152.83 -21.3094 152.83Z" stroke="#E6F1FF" stroke-miterlimit="10"/>
<path d="M27.9015 196.37C663.195 196.37 1178.2 -318.637 1178.2 -953.93C1178.2 -1589.22 663.195 -2104.23 27.9015 -2104.23C-607.392 -2104.23 -1122.4 -1589.22 -1122.4 -953.93C-1122.4 -318.637 -607.392 196.37 27.9015 196.37Z" stroke="#E6F1FF" stroke-miterlimit="10"/>
<path d="M73.8779 246.92C709.171 246.92 1224.18 -268.087 1224.18 -903.38C1224.18 -1538.67 709.171 -2053.68 73.8779 -2053.68C-561.415 -2053.68 -1076.42 -1538.67 -1076.42 -903.38C-1076.42 -268.087 -561.415 246.92 73.8779 246.92Z" stroke="#E6F1FF" stroke-miterlimit="10"/>
<path d="M116.089 304.1C751.382 304.1 1266.39 -210.907 1266.39 -846.2C1266.39 -1481.49 751.382 -1996.5 116.089 -1996.5C-519.204 -1996.5 -1034.21 -1481.49 -1034.21 -846.2C-1034.21 -210.907 -519.204 304.1 116.089 304.1Z" stroke="#E6F1FF" stroke-miterlimit="10"/>
<path d="M153.87 367.45C789.164 367.45 1304.17 -147.557 1304.17 -782.85C1304.17 -1418.14 789.164 -1933.15 153.87 -1933.15C-481.423 -1933.15 -996.43 -1418.14 -996.43 -782.85C-996.43 -147.557 -481.423 367.45 153.87 367.45Z" stroke="#E6F1FF" stroke-miterlimit="10"/>
<path d="M186.679 436.43C821.972 436.43 1336.98 -78.5767 1336.98 -713.87C1336.98 -1349.16 821.972 -1864.17 186.679 -1864.17C-448.614 -1864.17 -963.621 -1349.16 -963.621 -713.87C-963.621 -78.5767 -448.614 436.43 186.679 436.43Z" stroke="#E6F1FF" stroke-miterlimit="10"/>
<path d="M214.019 510.35C849.312 510.35 1364.32 -4.65674 1364.32 -639.95C1364.32 -1275.24 849.312 -1790.25 214.019 -1790.25C-421.274 -1790.25 -936.281 -1275.24 -936.281 -639.95C-936.281 -4.65674 -421.274 510.35 214.019 510.35Z" stroke="#E6F1FF" stroke-miterlimit="10"/>
<path d="M235.359 588.47C870.652 588.47 1385.66 73.4633 1385.66 -561.83C1385.66 -1197.12 870.652 -1712.13 235.359 -1712.13C-399.935 -1712.13 -914.941 -1197.12 -914.941 -561.83C-914.941 73.4633 -399.935 588.47 235.359 588.47Z" stroke="#E6F1FF" stroke-miterlimit="10"/>
<path d="M250.288 669.96C885.582 669.96 1400.59 154.953 1400.59 -480.34C1400.59 -1115.63 885.582 -1630.64 250.288 -1630.64C-385.005 -1630.64 -900.012 -1115.63 -900.012 -480.34C-900.012 154.953 -385.005 669.96 250.288 669.96Z" stroke="#E6F1FF" stroke-miterlimit="10"/>
<path d="M258.499 753.88C893.792 753.88 1408.8 238.873 1408.8 -396.42C1408.8 -1031.71 893.792 -1546.72 258.499 -1546.72C-376.794 -1546.72 -891.801 -1031.71 -891.801 -396.42C-891.801 238.873 -376.794 753.88 258.499 753.88Z" stroke="#E6F1FF" stroke-miterlimit="10"/>
<path d="M1351.98 -2007.47H-1982.22V1326.73H1351.98V-2007.47Z" stroke="#E6F1FF" stroke-miterlimit="10"/>
</g>
<g filter="url(#filter0_dd_2739_20216)">
<path d="M818.444 335H816.556C815.697 335 815 335.697 815 336.556V343.444C815 344.303 815.697 345 816.556 345H818.444C819.303 345 820 344.303 820 343.444V336.556C820 335.697 819.303 335 818.444 335Z" fill="#307FE2"/>
</g>
<g filter="url(#filter1_dd_2739_20216)">
<path d="M921.066 169H919.934C919.418 169 919 169.418 919 169.934V174.066C919 174.582 919.418 175 919.934 175H921.066C921.582 175 922 174.582 922 174.066V169.934C922 169.418 921.582 169 921.066 169Z" fill="#307FE2"/>
</g>
<g filter="url(#filter2_dd_2739_20216)">
<path d="M454.066 565H452.934C452.418 565 452 565.418 452 565.934V570.066C452 570.582 452.418 571 452.934 571H454.066C454.582 571 455 570.582 455 570.066V565.934C455 565.418 454.582 565 454.066 565Z" fill="#307FE2"/>
</g>
<g filter="url(#filter3_dd_2739_20216)">
<path d="M492.821 310H490.179C488.976 310 488 310.976 488 312.179V321.821C488 323.024 488.976 324 490.179 324H492.821C494.024 324 495 323.024 495 321.821V312.179C495 310.976 494.024 310 492.821 310Z" fill="#307FE2"/>
</g>
<g filter="url(#filter4_dd_2739_20216)">
<path d="M684.444 494H682.556C681.697 494 681 494.697 681 495.556V502.444C681 503.303 681.697 504 682.556 504H684.444C685.303 504 686 503.303 686 502.444V495.556C686 494.697 685.303 494 684.444 494Z" fill="#307FE2"/>
</g>
</g>
<rect width="1030" height="812" fill="url(#paint0_radial_2739_20216)"/>
<defs>
<filter id="filter0_dd_2739_20216" x="790" y="310" width="55" height="60" filterUnits="userSpaceOnUse" color-interpolation-filters="sRGB">
<feFlood flood-opacity="0" result="BackgroundImageFix"/>
<feColorMatrix in="SourceAlpha" type="matrix" values="0 0 0 0 0 0 0 0 0 0 0 0 0 0 0 0 0 0 127 0" result="hardAlpha"/>
<feMorphology radius="10" operator="dilate" in="SourceAlpha" result="effect1_dropShadow_2739_20216"/>
<feOffset/>
<feGaussianBlur stdDeviation="7.5"/>
<feComposite in2="hardAlpha" operator="out"/>
<feColorMatrix type="matrix" values="0 0 0 0 0.72 0 0 0 0 0.846 0 0 0 0 1 0 0 0 0.25 0"/>
<feBlend mode="normal" in2="BackgroundImageFix" result="effect1_dropShadow_2739_20216"/>
<feColorMatrix in="SourceAlpha" type="matrix" values="0 0 0 0 0 0 0 0 0 0 0 0 0 0 0 0 0 0 127 0" result="hardAlpha"/>
<feOffset/>
<feGaussianBlur stdDeviation="2.5"/>
<feComposite in2="hardAlpha" operator="out"/>
<feColorMatrix type="matrix" values="0 0 0 0 0.486275 0 0 0 0 0.768627 0 0 0 0 0.980392 0 0 0 1 0"/>
<feBlend mode="normal" in2="effect1_dropShadow_2739_20216" result="effect2_dropShadow_2739_20216"/>
<feBlend mode="normal" in="SourceGraphic" in2="effect2_dropShadow_2739_20216" result="shape"/>
</filter>
<filter id="filter1_dd_2739_20216" x="894" y="144" width="53" height="56" filterUnits="userSpaceOnUse" color-interpolation-filters="sRGB">
<feFlood flood-opacity="0" result="BackgroundImageFix"/>
<feColorMatrix in="SourceAlpha" type="matrix" values="0 0 0 0 0 0 0 0 0 0 0 0 0 0 0 0 0 0 127 0" result="hardAlpha"/>
<feMorphology radius="10" operator="dilate" in="SourceAlpha" result="effect1_dropShadow_2739_20216"/>
<feOffset/>
<feGaussianBlur stdDeviation="7.5"/>
<feComposite in2="hardAlpha" operator="out"/>
<feColorMatrix type="matrix" values="0 0 0 0 0.72 0 0 0 0 0.846 0 0 0 0 1 0 0 0 0.25 0"/>
<feBlend mode="normal" in2="BackgroundImageFix" result="effect1_dropShadow_2739_20216"/>
<feColorMatrix in="SourceAlpha" type="matrix" values="0 0 0 0 0 0 0 0 0 0 0 0 0 0 0 0 0 0 127 0" result="hardAlpha"/>
<feOffset/>
<feGaussianBlur stdDeviation="2.5"/>
<feComposite in2="hardAlpha" operator="out"/>
<feColorMatrix type="matrix" values="0 0 0 0 0.486275 0 0 0 0 0.768627 0 0 0 0 0.980392 0 0 0 1 0"/>
<feBlend mode="normal" in2="effect1_dropShadow_2739_20216" result="effect2_dropShadow_2739_20216"/>
<feBlend mode="normal" in="SourceGraphic" in2="effect2_dropShadow_2739_20216" result="shape"/>
</filter>
<filter id="filter2_dd_2739_20216" x="427" y="540" width="53" height="56" filterUnits="userSpaceOnUse" color-interpolation-filters="sRGB">
<feFlood flood-opacity="0" result="BackgroundImageFix"/>
<feColorMatrix in="SourceAlpha" type="matrix" values="0 0 0 0 0 0 0 0 0 0 0 0 0 0 0 0 0 0 127 0" result="hardAlpha"/>
<feMorphology radius="10" operator="dilate" in="SourceAlpha" result="effect1_dropShadow_2739_20216"/>
<feOffset/>
<feGaussianBlur stdDeviation="7.5"/>
<feComposite in2="hardAlpha" operator="out"/>
<feColorMatrix type="matrix" values="0 0 0 0 0.72 0 0 0 0 0.846 0 0 0 0 1 0 0 0 0.25 0"/>
<feBlend mode="normal" in2="BackgroundImageFix" result="effect1_dropShadow_2739_20216"/>
<feColorMatrix in="SourceAlpha" type="matrix" values="0 0 0 0 0 0 0 0 0 0 0 0 0 0 0 0 0 0 127 0" result="hardAlpha"/>
<feOffset/>
<feGaussianBlur stdDeviation="2.5"/>
<feComposite in2="hardAlpha" operator="out"/>
<feColorMatrix type="matrix" values="0 0 0 0 0.486275 0 0 0 0 0.768627 0 0 0 0 0.980392 0 0 0 1 0"/>
<feBlend mode="normal" in2="effect1_dropShadow_2739_20216" result="effect2_dropShadow_2739_20216"/>
<feBlend mode="normal" in="SourceGraphic" in2="effect2_dropShadow_2739_20216" result="shape"/>
</filter>
<filter id="filter3_dd_2739_20216" x="463" y="285" width="57" height="64" filterUnits="userSpaceOnUse" color-interpolation-filters="sRGB">
<feFlood flood-opacity="0" result="BackgroundImageFix"/>
<feColorMatrix in="SourceAlpha" type="matrix" values="0 0 0 0 0 0 0 0 0 0 0 0 0 0 0 0 0 0 127 0" result="hardAlpha"/>
<feMorphology radius="10" operator="dilate" in="SourceAlpha" result="effect1_dropShadow_2739_20216"/>
<feOffset/>
<feGaussianBlur stdDeviation="7.5"/>
<feComposite in2="hardAlpha" operator="out"/>
<feColorMatrix type="matrix" values="0 0 0 0 0.72 0 0 0 0 0.846 0 0 0 0 1 0 0 0 0.25 0"/>
<feBlend mode="normal" in2="BackgroundImageFix" result="effect1_dropShadow_2739_20216"/>
<feColorMatrix in="SourceAlpha" type="matrix" values="0 0 0 0 0 0 0 0 0 0 0 0 0 0 0 0 0 0 127 0" result="hardAlpha"/>
<feOffset/>
<feGaussianBlur stdDeviation="2.5"/>
<feComposite in2="hardAlpha" operator="out"/>
<feColorMatrix type="matrix" values="0 0 0 0 0.486275 0 0 0 0 0.768627 0 0 0 0 0.980392 0 0 0 1 0"/>
<feBlend mode="normal" in2="effect1_dropShadow_2739_20216" result="effect2_dropShadow_2739_20216"/>
<feBlend mode="normal" in="SourceGraphic" in2="effect2_dropShadow_2739_20216" result="shape"/>
</filter>
<filter id="filter4_dd_2739_20216" x="656" y="469" width="55" height="60" filterUnits="userSpaceOnUse" color-interpolation-filters="sRGB">
<feFlood flood-opacity="0" result="BackgroundImageFix"/>
<feColorMatrix in="SourceAlpha" type="matrix" values="0 0 0 0 0 0 0 0 0 0 0 0 0 0 0 0 0 0 127 0" result="hardAlpha"/>
<feMorphology radius="10" operator="dilate" in="SourceAlpha" result="effect1_dropShadow_2739_20216"/>
<feOffset/>
<feGaussianBlur stdDeviation="7.5"/>
<feComposite in2="hardAlpha" operator="out"/>
<feColorMatrix type="matrix" values="0 0 0 0 0.72 0 0 0 0 0.846 0 0 0 0 1 0 0 0 0.25 0"/>
<feBlend mode="normal" in2="BackgroundImageFix" result="effect1_dropShadow_2739_20216"/>
<feColorMatrix in="SourceAlpha" type="matrix" values="0 0 0 0 0 0 0 0 0 0 0 0 0 0 0 0 0 0 127 0" result="hardAlpha"/>
<feOffset/>
<feGaussianBlur stdDeviation="2.5"/>
<feComposite in2="hardAlpha" operator="out"/>
<feColorMatrix type="matrix" values="0 0 0 0 0.486275 0 0 0 0 0.768627 0 0 0 0 0.980392 0 0 0 1 0"/>
<feBlend mode="normal" in2="effect1_dropShadow_2739_20216" result="effect2_dropShadow_2739_20216"/>
<feBlend mode="normal" in="SourceGraphic" in2="effect2_dropShadow_2739_20216" result="shape"/>
</filter>
<radialGradient id="paint0_radial_2739_20216" cx="0" cy="0" r="1" gradientUnits="userSpaceOnUse" gradientTransform="translate(765.5 -38) rotate(90) scale(850 918.446)">
<stop stop-color="white"/>
<stop offset="0.494792" stop-color="white" stop-opacity="0"/>
<stop offset="1" stop-color="white"/>
</radialGradient>
<clipPath id="clip0_2739_20216">
<rect width="1030" height="812" fill="white"/>
</clipPath>
<clipPath id="clip1_2739_20216">
<rect width="3776.52" height="4056.82" fill="white" transform="translate(-2040.5 -2254.5)"/>
</clipPath>
</defs>
</svg>
